# This file uses centimeters as units for non-parametric coordinates.

mtllib innerMouth.mtl
g default
v -0.000000 8.396292 3.258519
v -0.000000 8.276640 3.395210
v -0.000000 8.626223 3.141300
v -0.000000 8.227442 3.536985
v 0.179385 8.285032 3.387137
v -0.000000 8.198116 3.667001
v 0.181921 8.396076 3.235041
v 0.202321 8.591686 3.125107
v 0.186124 8.252365 3.526516
v 0.330810 8.348675 3.250310
v 0.000000 8.870226 3.127059
v 0.200965 8.224760 3.655990
v -0.000000 8.239809 3.803463
v 0.367040 8.288427 3.367029
v 0.166606 8.875830 3.127136
v 0.402524 8.564701 3.165661
v 0.384291 8.283722 3.501631
v 0.487428 8.395180 3.234107
v 0.000000 9.068920 3.173948
v 0.226450 8.263590 3.792700
v 0.400971 8.278362 3.625161
v 0.521611 8.364712 3.338861
v 0.351585 8.866173 3.156625
v 0.587314 8.525980 3.214458
v 0.545663 8.377134 3.469517
v 0.000000 9.200260 3.233943
v 0.562298 8.627834 3.170713
v 0.191511 9.080767 3.184353
v 0.444317 8.320404 3.763680
v 0.625301 8.512762 3.310381
v 0.566809 8.382919 3.591315
v 0.649894 8.656935 3.203335
v 0.659573 8.526251 3.437124
v 0.587206 8.862242 3.162024
v -0.000000 9.263168 3.319628
v 0.707307 8.680624 3.292018
v 0.365120 9.109358 3.191607
v 0.215883 9.233898 3.250138
v 0.625013 8.418514 3.730341
v 0.691580 8.529474 3.556437
v 0.000000 9.298914 3.443522
v 0.180782 9.282677 3.326081
v 0.717738 8.860746 3.206709
v 0.750623 8.703224 3.413991
v 0.000000 9.330334 3.554793
v 0.636937 9.098257 3.200933
v 0.388828 9.244280 3.230386
v 0.764873 8.552824 3.695268
v 0.779862 8.883858 3.292580
v 0.784466 8.709608 3.528491
v 0.335554 9.313631 3.326005
v 0.182926 9.312977 3.446386
v 0.568272 9.241848 3.232903
v 0.000000 9.332922 3.686420
v 0.764588 9.071997 3.231638
v 0.467583 9.314671 3.287618
v 0.193703 9.344385 3.553974
v 0.817932 8.898407 3.407039
v 0.869707 8.720587 3.666982
v 0.359976 9.346525 3.443985
v 0.213547 9.346157 3.685111
v 0.850188 8.900156 3.512388
v 0.735921 9.186932 3.250607
v 0.665573 9.284939 3.270910
v 0.810967 9.082384 3.309121
v 0.482176 9.362270 3.379112
v 0.594291 9.313400 3.279876
v 0.388285 9.380720 3.549839
v 0.575012 9.372791 3.366449
v 0.841976 9.087080 3.414210
v 0.780522 9.228836 3.329742
v 0.525555 9.384785 3.462384
v 0.949646 8.899982 3.649026
v 0.731632 9.331512 3.349169
v 0.667351 9.377304 3.359083
v 0.429491 9.381271 3.681427
v 0.889873 9.086079 3.511872
v 0.831497 9.240852 3.431635
v 0.649133 9.417610 3.458204
v 0.568733 9.421206 3.550736
v 0.739941 9.410318 3.454217
v 0.995571 9.076900 3.644880
v 0.799323 9.350409 3.447649
v 0.629300 9.420391 3.677701
v 0.894114 9.245079 3.522122
v 0.704118 9.454569 3.540031
v 0.798802 9.433229 3.536703
v 0.862810 9.362032 3.532168
v 0.999705 9.230986 3.650771
v 0.780154 9.445719 3.665994
v 0.887883 9.419147 3.662365
v 0.961943 9.346067 3.658107
v -0.179385 8.285032 3.387137
v -0.181921 8.396076 3.235041
v -0.202321 8.591686 3.125107
v -0.186124 8.252365 3.526516
v -0.330810 8.348675 3.250310
v -0.200965 8.224760 3.655990
v -0.367040 8.288427 3.367029
v -0.166606 8.875830 3.127136
v -0.402524 8.564701 3.165661
v -0.384291 8.283722 3.501631
v -0.487428 8.395180 3.234107
v -0.226450 8.263590 3.792700
v -0.400971 8.278362 3.625161
v -0.521611 8.364712 3.338861
v -0.351585 8.866173 3.156625
v -0.587314 8.525980 3.214458
v -0.545663 8.377134 3.469517
v -0.562298 8.627834 3.170713
v -0.191511 9.080767 3.184353
v -0.444317 8.320404 3.763680
v -0.625301 8.512762 3.310381
v -0.566809 8.382919 3.591315
v -0.649894 8.656935 3.203335
v -0.659573 8.526251 3.437124
v -0.587206 8.862242 3.162024
v -0.707307 8.680624 3.292018
v -0.365120 9.109358 3.191607
v -0.215883 9.233898 3.250138
v -0.625013 8.418514 3.730341
v -0.691580 8.529474 3.556437
v -0.180782 9.282677 3.326081
v -0.717738 8.860746 3.206709
v -0.750623 8.703224 3.413991
v -0.636937 9.098257 3.200933
v -0.388828 9.244280 3.230386
v -0.764873 8.552824 3.695268
v -0.779862 8.883858 3.292580
v -0.784466 8.709608 3.528491
v -0.335554 9.313631 3.326005
v -0.182926 9.312977 3.446386
v -0.568272 9.241848 3.232903
v -0.764588 9.071997 3.231638
v -0.467583 9.314671 3.287618
v -0.193703 9.344385 3.553974
v -0.817932 8.898407 3.407039
v -0.869707 8.720587 3.666982
v -0.359976 9.346525 3.443985
v -0.213547 9.346157 3.685111
v -0.850188 8.900156 3.512388
v -0.735921 9.186932 3.250607
v -0.665573 9.284939 3.270910
v -0.810967 9.082384 3.309121
v -0.482176 9.362270 3.379112
v -0.594291 9.313400 3.279876
v -0.388285 9.380720 3.549839
v -0.575012 9.372791 3.366449
v -0.841976 9.087080 3.414210
v -0.780522 9.228836 3.329742
v -0.525555 9.384785 3.462384
v -0.949646 8.899982 3.649026
v -0.731632 9.331512 3.349169
v -0.667351 9.377304 3.359083
v -0.429491 9.381271 3.681427
v -0.889873 9.086079 3.511872
v -0.831497 9.240852 3.431635
v -0.649133 9.417610 3.458204
v -0.568733 9.421206 3.550736
v -0.739941 9.410318 3.454217
v -0.995571 9.076900 3.644880
v -0.799323 9.350409 3.447649
v -0.629300 9.420391 3.677701
v -0.894114 9.245079 3.522122
v -0.704118 9.454569 3.540031
v -0.798802 9.433229 3.536703
v -0.862810 9.362032 3.532168
v -0.999705 9.230986 3.650771
v -0.780154 9.445719 3.665994
v -0.887883 9.419147 3.662365
v -0.961943 9.346067 3.658107
vt 0.111235 0.985513
vt 0.111059 0.986919
vt 0.109747 0.985454
vt 0.109540 0.986795
vt 0.107769 0.986823
vt 0.107602 0.985368
vt 0.112168 0.987146
vt 0.112432 0.985561
vt 0.109765 0.987895
vt 0.113489 0.985604
vt 0.113191 0.987427
vt 0.110676 0.988351
vt 0.105551 0.986525
vt 0.105628 0.985288
vt 0.107986 0.988304
vt 0.111586 0.988783
vt 0.109302 0.988966
vt 0.114607 0.985649
vt 0.114238 0.987934
vt 0.112445 0.989206
vt 0.109951 0.989468
vt 0.103956 0.985221
vt 0.105664 0.987940
vt 0.108406 0.989715
vt 0.110656 0.990133
vt 0.107595 0.989494
vt 0.103860 0.986735
vt 0.113298 0.990065
vt 0.108878 0.990332
vt 0.111367 0.990741
vt 0.102757 0.985173
vt 0.107497 0.990208
vt 0.109393 0.991193
vt 0.105914 0.989745
vt 0.107612 0.991027
vt 0.103785 0.988115
vt 0.102524 0.986995
vt 0.111989 0.991812
vt 0.109950 0.991965
vt 0.101765 0.986728
vt 0.101888 0.985138
vt 0.106087 0.990811
vt 0.107876 0.992027
vt 0.100803 0.985095
vt 0.104251 0.990250
vt 0.102756 0.988432
vt 0.110387 0.993156
vt 0.106082 0.991650
vt 0.108216 0.992895
vt 0.101765 0.988097
vt 0.100741 0.986773
vt 0.099830 0.985056
vt 0.103078 0.989850
vt 0.104602 0.991254
vt 0.102216 0.989179
vt 0.099821 0.986932
vt 0.106174 0.992590
vt 0.108510 0.994167
vt 0.100822 0.988419
vt 0.098758 0.985013
vt 0.098758 0.987190
vt 0.106351 0.993462
vt 0.103736 0.991147
vt 0.102899 0.990698
vt 0.104559 0.991946
vt 0.101477 0.989451
vt 0.102529 0.990183
vt 0.099981 0.988836
vt 0.101737 0.990221
vt 0.104530 0.992792
vt 0.103381 0.991781
vt 0.100911 0.989963
vt 0.106499 0.994813
vt 0.102520 0.991442
vt 0.102040 0.990962
vt 0.098996 0.989405
vt 0.104533 0.993657
vt 0.103181 0.992641
vt 0.101251 0.991068
vt 0.100319 0.990572
vt 0.101649 0.991800
vt 0.104553 0.995052
vt 0.102228 0.992303
vt 0.099521 0.991404
vt 0.103031 0.993497
vt 0.100843 0.991764
vt 0.101312 0.992510
vt 0.101973 0.993090
vt 0.102909 0.994909
vt 0.100261 0.992786
vt 0.100928 0.993695
vt 0.101736 0.994396
vt 0.111172 0.984098
vt 0.109648 0.984101
vt 0.107885 0.983930
vt 0.112296 0.983961
vt 0.109961 0.983021
vt 0.113338 0.983763
vt 0.110905 0.982640
vt 0.105650 0.984049
vt 0.108220 0.982471
vt 0.111847 0.982283
vt 0.109585 0.981917
vt 0.114422 0.983341
vt 0.112737 0.981930
vt 0.110272 0.981468
vt 0.105876 0.982648
vt 0.108752 0.981098
vt 0.111028 0.980862
vt 0.107926 0.981254
vt 0.103981 0.983705
vt 0.113656 0.981142
vt 0.109272 0.980522
vt 0.111786 0.980313
vt 0.107885 0.980535
vt 0.109854 0.979704
vt 0.106270 0.980870
vt 0.108065 0.979727
vt 0.104018 0.982323
vt 0.102671 0.983338
vt 0.112491 0.979295
vt 0.110471 0.978979
vt 0.101892 0.983544
vt 0.106528 0.979821
vt 0.108408 0.978752
vt 0.104653 0.980233
vt 0.103017 0.981925
vt 0.111002 0.977827
vt 0.106590 0.978984
vt 0.108817 0.977913
vt 0.102003 0.982179
vt 0.100875 0.983417
vt 0.103451 0.980537
vt 0.105083 0.979260
vt 0.102539 0.981137
vt 0.099971 0.983185
vt 0.106757 0.978054
vt 0.109212 0.976669
vt 0.101088 0.981783
vt 0.098932 0.982843
vt 0.107004 0.977199
vt 0.104211 0.979298
vt 0.103341 0.979677
vt 0.105096 0.978567
vt 0.101824 0.980807
vt 0.102931 0.980162
vt 0.100284 0.981300
vt 0.102145 0.980060
vt 0.105134 0.977721
vt 0.103909 0.978637
vt 0.101300 0.980251
vt 0.107259 0.975864
vt 0.103023 0.978906
vt 0.102506 0.979346
vt 0.099347 0.980654
vt 0.105206 0.976859
vt 0.103778 0.977764
vt 0.101728 0.979177
vt 0.100759 0.979597
vt 0.102184 0.978479
vt 0.105339 0.975471
vt 0.102801 0.978024
vt 0.100031 0.978703
vt 0.103697 0.976898
vt 0.101377 0.978450
vt 0.101904 0.977744
vt 0.102609 0.977219
vt 0.103689 0.975481
vt 0.100879 0.977385
vt 0.101616 0.976532
vt 0.102478 0.975899
vn -0.000000 0.868807 0.495150
vn 0.009501 0.911663 0.410828
vn -0.000000 0.619625 0.784898
vn 0.107359 0.622075 0.775562
vn -0.026895 0.200214 0.979383
vn -0.000000 0.225248 0.974301
vn -0.127255 0.965802 0.225903
vn 0.000000 0.961912 0.273358
vn -0.021051 0.655072 0.755273
vn 0.000000 0.998395 -0.056636
vn -0.194811 0.980559 -0.023526
vn -0.187360 0.952306 0.240852
vn -0.070667 -0.109804 0.991438
vn 0.000000 -0.070503 0.997512
vn -0.126034 0.184550 0.974709
vn -0.302284 0.948602 0.093691
vn -0.294562 0.569082 0.767711
vn 0.000000 0.956361 -0.292189
vn -0.210630 0.948185 -0.237866
vn -0.366017 0.930295 -0.024155
vn -0.598692 0.775354 0.200982
vn 0.000000 -0.318168 0.948034
vn -0.087137 -0.076341 0.993267
vn -0.521010 0.442672 0.729788
vn -0.639296 0.765114 0.076819
vn -0.140400 0.112094 0.983729
vn -0.034106 -0.294714 0.954977
vn -0.401033 0.903430 -0.151618
vn -0.809711 0.523595 0.264983
vn -0.616328 0.783509 0.079076
vn -0.000000 -0.561218 0.827668
vn -0.620193 0.239851 0.746881
vn -0.822852 0.538955 0.180115
vn -0.124286 -0.047171 0.991125
vn -0.866591 0.366008 0.339201
vn -0.007729 -0.206501 0.978416
vn 0.067575 -0.569978 0.818876
vn -0.614289 0.788139 0.038561
vn -0.772991 0.579703 0.257739
vn 0.120641 -0.906156 0.405374
vn -0.000000 -0.901025 0.433767
vn -0.559157 0.091297 0.824020
vn -0.887913 0.392037 0.240662
vn 0.000000 -0.963452 0.267882
vn -0.124273 -0.173652 0.976935
vn 0.072157 -0.478364 0.875192
vn -0.748472 0.606190 0.268929
vn -0.890432 0.216426 0.400363
vn -0.829807 0.414806 0.373305
vn 0.176459 -0.888548 0.423491
vn 0.124374 -0.959638 0.252241
vn 0.000000 -0.991606 0.129300
vn -0.073510 -0.340400 0.937403
vn -0.559084 -0.071972 0.825981
vn 0.082432 -0.762686 0.641495
vn 0.124581 -0.985768 0.112879
vn -0.934069 0.220683 0.280737
vn -0.787363 0.442957 0.428775
vn 0.196211 -0.951880 0.235426
vn 0.000000 -0.999807 0.019658
vn 0.120274 -0.992739 -0.002002
vn -0.844678 0.252566 0.471942
vn -0.473538 -0.331215 0.816124
vn -0.296780 -0.478488 0.826421
vn -0.918746 -0.043684 0.392426
vn 0.181012 -0.940997 0.285935
vn -0.023243 -0.695350 0.718295
vn 0.192230 -0.978212 0.078419
vn 0.126053 -0.899107 0.419187
vn -0.930037 0.007476 0.367389
vn -0.808982 -0.314448 0.496660
vn 0.214172 -0.946245 0.242386
vn -0.787021 0.280562 0.549439
vn -0.581115 -0.542300 0.606808
vn -0.149154 -0.818695 0.554519
vn 0.183559 -0.981868 -0.047338
vn -0.819616 0.079785 0.567330
vn -0.833368 -0.199556 0.515437
vn 0.133472 -0.937787 0.320532
vn 0.221798 -0.974737 0.026336
vn -0.333126 -0.803351 0.493614
vn -0.783502 0.099990 0.613291
vn -0.695684 -0.436166 0.570774
vn 0.178722 -0.980372 -0.083242
vn -0.785563 -0.130010 0.604970
vn 0.077126 -0.995878 0.047743
vn -0.427627 -0.846731 0.316514
vn -0.719141 -0.429865 0.545942
vn -0.780492 -0.111844 0.615080
vn -0.058138 -0.998183 -0.015851
vn -0.531646 -0.795380 0.291073
vn -0.745481 -0.408102 0.526983
vn -0.009501 0.911663 0.410829
vn -0.107360 0.622075 0.775562
vn 0.026895 0.200214 0.979383
vn 0.127255 0.965802 0.225903
vn 0.021051 0.655072 0.755273
vn 0.194811 0.980559 -0.023527
vn 0.187359 0.952306 0.240852
vn 0.070667 -0.109804 0.991438
vn 0.126034 0.184550 0.974709
vn 0.302284 0.948602 0.093691
vn 0.294562 0.569083 0.767710
vn 0.210630 0.948185 -0.237867
vn 0.366017 0.930295 -0.024159
vn 0.598692 0.775355 0.200981
vn 0.087137 -0.076341 0.993267
vn 0.521010 0.442671 0.729788
vn 0.639296 0.765114 0.076820
vn 0.140400 0.112094 0.983729
vn 0.034106 -0.294713 0.954977
vn 0.401033 0.903428 -0.151624
vn 0.809711 0.523595 0.264986
vn 0.616328 0.783509 0.079076
vn 0.620194 0.239851 0.746881
vn 0.822852 0.538955 0.180116
vn 0.124286 -0.047171 0.991125
vn 0.866591 0.366008 0.339203
vn 0.007729 -0.206500 0.978416
vn -0.067575 -0.569978 0.818876
vn 0.614288 0.788139 0.038560
vn 0.772991 0.579703 0.257740
vn -0.120641 -0.906156 0.405373
vn 0.559157 0.091297 0.824020
vn 0.887912 0.392037 0.240664
vn 0.124273 -0.173652 0.976935
vn -0.072157 -0.478365 0.875192
vn 0.748472 0.606190 0.268931
vn 0.890432 0.216426 0.400364
vn 0.829806 0.414806 0.373308
vn -0.176459 -0.888549 0.423489
vn -0.124374 -0.959639 0.252240
vn 0.073510 -0.340401 0.937403
vn 0.559084 -0.071971 0.825981
vn -0.082432 -0.762686 0.641494
vn -0.124581 -0.985768 0.112877
vn 0.934069 0.220683 0.280739
vn 0.787362 0.442957 0.428778
vn -0.196211 -0.951880 0.235426
vn -0.120274 -0.992739 -0.002004
vn 0.844678 0.252566 0.471943
vn 0.473538 -0.331216 0.816124
vn 0.296778 -0.478488 0.826421
vn 0.918746 -0.043684 0.392425
vn -0.181013 -0.940996 0.285937
vn 0.023243 -0.695351 0.718295
vn -0.192230 -0.978212 0.078416
vn -0.126053 -0.899107 0.419187
vn 0.930038 0.007476 0.367388
vn 0.808982 -0.314449 0.496659
vn -0.214172 -0.946245 0.242384
vn 0.787020 0.280561 0.549441
vn 0.581115 -0.542300 0.606808
vn 0.149153 -0.818696 0.554518
vn -0.183559 -0.981868 -0.047338
vn 0.819617 0.079785 0.567329
vn 0.833368 -0.199556 0.515437
vn -0.133472 -0.937787 0.320531
vn -0.221798 -0.974737 0.026332
vn 0.333126 -0.803352 0.493612
vn 0.783502 0.099990 0.613291
vn 0.695685 -0.436166 0.570773
vn -0.178722 -0.980372 -0.083243
vn 0.785562 -0.130010 0.604971
vn -0.077126 -0.995878 0.047743
vn 0.427628 -0.846731 0.316514
vn 0.719141 -0.429864 0.545943
vn 0.780492 -0.111844 0.615080
vn 0.058139 -0.998183 -0.015851
vn 0.531647 -0.795379 0.291073
vn 0.745483 -0.408102 0.526981
s 1
g innerMouth Jake
usemtl lambert2SG
f 2/1/1 5/2/2 1/3/3
f 5/2/2 7/4/4 1/3/3
f 1/3/3 8/5/5 3/6/6
f 8/5/5 1/3/3 7/4/4
f 9/7/7 2/1/1 4/8/8
f 2/1/1 9/7/7 5/2/2
f 5/2/2 10/9/9 7/4/4
f 7/4/4 10/9/9 8/5/5
f 6/10/10 12/11/11 4/8/8
f 10/9/9 5/2/2 14/12/12
f 12/11/11 9/7/7 4/8/8
f 15/13/13 3/6/6 8/5/5
f 11/14/14 3/6/6 15/13/13
f 8/5/5 10/9/9 16/15/15
f 17/16/16 5/2/2 9/7/7
f 5/2/2 17/16/16 14/12/12
f 14/12/12 18/17/17 10/9/9
f 10/9/9 18/17/17 16/15/15
f 13/18/18 20/19/19 6/10/10
f 20/19/19 12/11/11 6/10/10
f 21/20/20 9/7/7 12/11/11
f 18/17/17 14/12/12 22/21/21
f 19/22/22 11/14/14 15/13/13
f 23/23/23 8/5/5 16/15/15
f 9/7/7 21/20/20 17/16/16
f 15/13/13 8/5/5 23/23/23
f 16/15/15 18/17/17 24/24/24
f 25/25/25 14/12/12 17/16/16
f 14/12/12 25/25/25 22/21/21
f 24/24/24 18/17/17 22/21/21
f 16/15/15 24/24/24 27/26/26
f 27/26/26 23/23/23 16/15/15
f 28/27/27 19/22/22 15/13/13
f 29/28/28 12/11/11 20/19/19
f 12/11/11 29/28/28 21/20/20
f 23/23/23 28/27/27 15/13/13
f 30/29/29 24/24/24 22/21/21
f 31/30/30 17/16/16 21/20/20
f 17/16/16 31/30/30 25/25/25
f 19/22/22 28/27/27 26/31/31
f 24/24/24 32/32/32 27/26/26
f 33/33/33 22/21/21 25/25/25
f 22/21/21 33/33/33 30/29/29
f 23/23/23 27/26/26 34/34/34
f 36/35/35 24/24/24 30/29/29
f 32/32/32 34/34/34 27/26/26
f 28/27/27 23/23/23 37/36/36
f 24/24/24 36/35/35 32/32/32
f 38/37/37 26/31/31 28/27/27
f 39/38/38 21/20/20 29/28/28
f 21/20/20 39/38/38 31/30/30
f 34/34/34 37/36/36 23/23/23
f 40/39/39 25/25/25 31/30/30
f 25/25/25 40/39/39 33/33/33
f 42/40/40 35/41/41 26/31/31
f 37/36/36 38/37/37 28/27/27
f 34/34/34 32/32/32 43/42/42
f 26/31/31 38/37/37 42/40/40
f 44/43/43 30/29/29 33/33/33
f 43/42/42 32/32/32 36/35/35
f 30/29/29 44/43/43 36/35/35
f 42/40/40 41/44/44 35/41/41
f 37/36/36 34/34/34 46/45/45
f 38/37/37 37/36/36 47/46/46
f 48/47/47 31/30/30 39/38/38
f 31/30/30 48/47/47 40/39/39
f 43/42/42 46/45/45 34/34/34
f 36/35/35 49/48/48 43/42/42
f 50/49/49 33/33/33 40/39/39
f 51/50/50 42/40/40 38/37/37
f 41/44/44 42/40/40 52/51/51
f 44/43/43 49/48/48 36/35/35
f 33/33/33 50/49/49 44/43/43
f 51/50/50 38/37/37 47/46/46
f 52/51/51 45/52/52 41/44/44
f 37/36/36 53/53/53 47/46/46
f 53/53/53 37/36/36 46/45/45
f 52/51/51 42/40/40 51/50/50
f 46/45/45 43/42/42 55/54/54
f 55/54/54 43/42/42 49/48/48
f 47/46/46 56/55/55 51/50/50
f 45/52/52 52/51/51 57/56/56
f 49/48/48 44/43/43 58/57/57
f 47/46/46 53/53/53 56/55/55
f 59/58/58 40/39/39 48/47/47
f 40/39/39 59/58/58 50/49/49
f 60/59/59 52/51/51 51/50/50
f 54/60/60 45/52/52 61/61/61
f 62/62/62 44/43/43 50/49/49
f 55/54/54 63/63/63 46/45/45
f 60/59/59 57/56/56 52/51/51
f 46/45/45 64/64/64 53/53/53
f 61/61/61 45/52/52 57/56/56
f 49/48/48 65/65/65 55/54/54
f 44/43/43 62/62/62 58/57/57
f 66/66/66 51/50/50 56/55/55
f 58/57/57 65/65/65 49/48/48
f 67/67/67 56/55/55 53/53/53
f 64/64/64 46/45/45 63/63/63
f 51/50/50 66/66/66 60/59/59
f 65/65/65 63/63/63 55/54/54
f 64/64/64 67/67/67 53/53/53
f 57/56/56 60/59/59 68/68/68
f 69/69/69 56/55/55 67/67/67
f 56/55/55 69/69/69 66/66/66
f 58/57/57 70/70/70 65/65/65
f 65/65/65 71/71/71 63/63/63
f 62/62/62 70/70/70 58/57/57
f 72/72/72 60/59/59 66/66/66
f 73/73/73 50/49/49 59/58/58
f 50/49/49 73/73/73 62/62/62
f 63/63/63 74/74/74 64/64/64
f 75/75/75 67/67/67 64/64/64
f 61/61/61 57/56/56 76/76/76
f 72/72/72 68/68/68 60/59/59
f 70/70/70 71/71/71 65/65/65
f 76/76/76 57/56/56 68/68/68
f 67/67/67 75/75/75 69/69/69
f 72/72/72 66/66/66 69/69/69
f 74/74/74 63/63/63 71/71/71
f 64/64/64 74/74/74 75/75/75
f 70/70/70 62/62/62 77/77/77
f 78/78/78 71/71/71 70/70/70
f 69/69/69 79/79/79 72/72/72
f 68/68/68 72/72/72 80/80/80
f 75/75/75 79/79/79 69/69/69
f 78/78/78 74/74/74 71/71/71
f 77/77/77 78/78/78 70/70/70
f 81/81/81 75/75/75 74/74/74
f 80/80/80 72/72/72 79/79/79
f 62/62/62 82/82/82 77/77/77
f 82/82/82 62/62/62 73/73/73
f 74/74/74 78/78/78 83/83/83
f 79/79/79 75/75/75 81/81/81
f 76/76/76 68/68/68 84/84/84
f 84/84/84 68/68/68 80/80/80
f 74/74/74 83/83/83 81/81/81
f 85/85/85 78/78/78 77/77/77
f 85/85/85 83/83/83 78/78/78
f 86/86/86 80/80/80 79/79/79
f 81/81/81 86/86/86 79/79/79
f 83/83/83 87/87/87 81/81/81
f 88/88/88 83/83/83 85/85/85
f 77/77/77 89/89/89 85/85/85
f 86/86/86 81/81/81 87/87/87
f 89/89/89 77/77/77 82/82/82
f 88/88/88 87/87/87 83/83/83
f 80/80/80 86/86/86 90/90/90
f 90/90/90 84/84/84 80/80/80
f 89/89/89 88/88/88 85/85/85
f 91/91/91 86/86/86 87/87/87
f 92/92/92 87/87/87 88/88/88
f 90/90/90 86/86/86 91/91/91
f 89/89/89 92/92/92 88/88/88
f 91/91/91 87/87/87 92/92/92
f 2/1/1 1/3/3 93/93/93
f 93/93/93 1/3/3 94/94/94
f 1/3/3 3/6/6 95/95/95
f 95/95/95 94/94/94 1/3/3
f 96/96/96 4/8/8 2/1/1
f 2/1/1 93/93/93 96/96/96
f 93/93/93 94/94/94 97/97/97
f 94/94/94 95/95/95 97/97/97
f 6/10/10 4/8/8 98/98/98
f 97/97/97 99/99/99 93/93/93
f 98/98/98 4/8/8 96/96/96
f 100/100/100 95/95/95 3/6/6
f 11/14/14 100/100/100 3/6/6
f 95/95/95 101/101/101 97/97/97
f 102/102/102 96/96/96 93/93/93
f 93/93/93 99/99/99 102/102/102
f 99/99/99 97/97/97 103/103/103
f 97/97/97 101/101/101 103/103/103
f 13/18/18 6/10/10 104/104/104
f 104/104/104 6/10/10 98/98/98
f 105/105/105 98/98/98 96/96/96
f 103/103/103 106/106/106 99/99/99
f 19/22/22 100/100/100 11/14/14
f 107/107/107 101/101/101 95/95/95
f 96/96/96 102/102/102 105/105/105
f 100/100/100 107/107/107 95/95/95
f 101/101/101 108/108/108 103/103/103
f 109/109/109 102/102/102 99/99/99
f 99/99/99 106/106/106 109/109/109
f 108/108/108 106/106/106 103/103/103
f 101/101/101 110/110/110 108/108/108
f 110/110/110 101/101/101 107/107/107
f 111/111/111 100/100/100 19/22/22
f 112/112/112 104/104/104 98/98/98
f 98/98/98 105/105/105 112/112/112
f 107/107/107 100/100/100 111/111/111
f 113/113/113 106/106/106 108/108/108
f 114/114/114 105/105/105 102/102/102
f 102/102/102 109/109/109 114/114/114
f 19/22/22 26/31/31 111/111/111
f 108/108/108 110/110/110 115/115/115
f 116/116/116 109/109/109 106/106/106
f 106/106/106 113/113/113 116/116/116
f 107/107/107 117/117/117 110/110/110
f 118/118/118 113/113/113 108/108/108
f 115/115/115 110/110/110 117/117/117
f 111/111/111 119/119/119 107/107/107
f 108/108/108 115/115/115 118/118/118
f 120/120/120 111/111/111 26/31/31
f 121/121/121 112/112/112 105/105/105
f 105/105/105 114/114/114 121/121/121
f 117/117/117 107/107/107 119/119/119
f 122/122/122 114/114/114 109/109/109
f 109/109/109 116/116/116 122/122/122
f 123/123/123 26/31/31 35/41/41
f 119/119/119 111/111/111 120/120/120
f 117/117/117 124/124/124 115/115/115
f 26/31/31 123/123/123 120/120/120
f 125/125/125 116/116/116 113/113/113
f 124/124/124 118/118/118 115/115/115
f 113/113/113 118/118/118 125/125/125
f 123/123/123 35/41/41 41/44/44
f 119/119/119 126/126/126 117/117/117
f 120/120/120 127/127/127 119/119/119
f 128/128/128 121/121/121 114/114/114
f 114/114/114 122/122/122 128/128/128
f 124/124/124 117/117/117 126/126/126
f 118/118/118 124/124/124 129/129/129
f 130/130/130 122/122/122 116/116/116
f 131/131/131 120/120/120 123/123/123
f 41/44/44 132/132/132 123/123/123
f 125/125/125 118/118/118 129/129/129
f 116/116/116 125/125/125 130/130/130
f 131/131/131 127/127/127 120/120/120
f 132/132/132 41/44/44 45/52/52
f 119/119/119 127/127/127 133/133/133
f 133/133/133 126/126/126 119/119/119
f 132/132/132 131/131/131 123/123/123
f 126/126/126 134/134/134 124/124/124
f 134/134/134 129/129/129 124/124/124
f 127/127/127 131/131/131 135/135/135
f 45/52/52 136/136/136 132/132/132
f 129/129/129 137/137/137 125/125/125
f 127/127/127 135/135/135 133/133/133
f 138/138/138 128/128/128 122/122/122
f 122/122/122 130/130/130 138/138/138
f 139/139/139 131/131/131 132/132/132
f 54/60/60 140/140/140 45/52/52
f 141/141/141 130/130/130 125/125/125
f 134/134/134 126/126/126 142/142/142
f 139/139/139 132/132/132 136/136/136
f 126/126/126 133/133/133 143/143/143
f 140/140/140 136/136/136 45/52/52
f 129/129/129 134/134/134 144/144/144
f 125/125/125 137/137/137 141/141/141
f 145/145/145 135/135/135 131/131/131
f 137/137/137 129/129/129 144/144/144
f 146/146/146 133/133/133 135/135/135
f 143/143/143 142/142/142 126/126/126
f 131/131/131 139/139/139 145/145/145
f 144/144/144 134/134/134 142/142/142
f 143/143/143 133/133/133 146/146/146
f 136/136/136 147/147/147 139/139/139
f 148/148/148 146/146/146 135/135/135
f 135/135/135 145/145/145 148/148/148
f 137/137/137 144/144/144 149/149/149
f 144/144/144 142/142/142 150/150/150
f 141/141/141 137/137/137 149/149/149
f 151/151/151 145/145/145 139/139/139
f 152/152/152 138/138/138 130/130/130
f 130/130/130 141/141/141 152/152/152
f 142/142/142 143/143/143 153/153/153
f 154/154/154 143/143/143 146/146/146
f 140/140/140 155/155/155 136/136/136
f 151/151/151 139/139/139 147/147/147
f 149/149/149 144/144/144 150/150/150
f 155/155/155 147/147/147 136/136/136
f 146/146/146 148/148/148 154/154/154
f 151/151/151 148/148/148 145/145/145
f 153/153/153 150/150/150 142/142/142
f 143/143/143 154/154/154 153/153/153
f 149/149/149 156/156/156 141/141/141
f 157/157/157 149/149/149 150/150/150
f 148/148/148 151/151/151 158/158/158
f 147/147/147 159/159/159 151/151/151
f 154/154/154 148/148/148 158/158/158
f 157/157/157 150/150/150 153/153/153
f 156/156/156 149/149/149 157/157/157
f 160/160/160 153/153/153 154/154/154
f 159/159/159 158/158/158 151/151/151
f 141/141/141 156/156/156 161/161/161
f 161/161/161 152/152/152 141/141/141
f 153/153/153 162/162/162 157/157/157
f 158/158/158 160/160/160 154/154/154
f 155/155/155 163/163/163 147/147/147
f 163/163/163 159/159/159 147/147/147
f 153/153/153 160/160/160 162/162/162
f 164/164/164 156/156/156 157/157/157
f 164/164/164 157/157/157 162/162/162
f 165/165/165 158/158/158 159/159/159
f 160/160/160 158/158/158 165/165/165
f 162/162/162 160/160/160 166/166/166
f 167/167/167 164/164/164 162/162/162
f 156/156/156 164/164/164 168/168/168
f 165/165/165 166/166/166 160/160/160
f 168/168/168 161/161/161 156/156/156
f 167/167/167 162/162/162 166/166/166
f 159/159/159 169/169/169 165/165/165
f 169/169/169 159/159/159 163/163/163
f 168/168/168 164/164/164 167/167/167
f 170/170/170 166/166/166 165/165/165
f 171/171/171 167/167/167 166/166/166
f 169/169/169 170/170/170 165/165/165
f 168/168/168 167/167/167 171/171/171
f 170/170/170 171/171/171 166/166/166
