# This file uses centimeters as units for non-parametric coordinates.

mtllib L_arm.mtl
g default
v 2.960520 8.312483 0.996068
v 2.963533 8.263071 1.136773
v 2.985226 8.499586 0.867114
v 3.091138 8.287523 1.011667
v 3.098369 8.400810 0.911336
v 2.961726 8.295912 1.303087
v 3.087522 8.234495 1.131884
v 3.114036 8.508371 0.868853
v 2.963834 8.743032 0.837587
v 3.280264 8.292360 0.923582
v 3.246820 8.205889 1.016380
v 3.232960 8.160696 1.126654
v 3.077579 8.249561 1.257825
v 3.329676 8.405346 0.871156
v 3.137537 8.661430 0.873373
v 3.235672 8.160395 1.242351
v 3.668543 8.106449 0.907775
v 3.595812 7.965948 1.113030
v 3.621610 8.016752 0.995252
v 3.383909 8.531588 0.875073
v 2.950577 8.410103 1.416977
v 3.077579 8.319159 1.361470
v 3.596096 7.963810 1.244832
v 2.949975 8.898802 0.907186
v 3.145371 8.785563 0.937549
v 3.729404 8.220640 0.867402
v 4.008480 7.820164 0.987387
v 3.979708 7.763922 1.105054
v 3.258269 8.224569 1.371908
v 4.059253 7.913811 0.905529
v 3.978405 7.756535 1.238913
v 3.111023 8.399605 1.427454
v 3.430308 8.644575 0.945275
v 2.937923 8.566475 1.476031
v 2.957507 8.983164 1.036442
v 3.792978 8.337843 0.889095
v 3.290809 8.311342 1.438796
v 3.623685 8.013401 1.364196
v 4.378565 7.547894 1.107955
v 4.412979 7.605726 0.995057
v 4.122073 8.026831 0.874844
v 3.115242 8.529764 1.458487
v 3.170077 8.863297 1.051438
v 4.371579 7.537556 1.239212
v 4.467524 7.698620 0.920862
v 3.844500 8.433052 0.969540
v 3.673364 8.105244 1.445586
v 4.005122 7.802973 1.359646
v 2.912614 8.786421 1.456145
v 2.958411 8.994614 1.197936
v 3.343535 8.437885 1.465912
v 4.770050 7.325735 1.129237
v 4.185689 8.139400 0.904797
v 4.811228 7.383244 1.021634
v 3.128197 8.681314 1.430165
v 3.464656 8.706942 1.066094
v 4.531542 7.809006 0.898156
v 3.166762 8.880169 1.193046
v 4.755454 7.312519 1.257097
v 2.915024 8.928326 1.362438
v 4.053312 7.891335 1.444136
v 4.870560 7.474262 0.953263
v 4.393456 7.578369 1.362299
v 3.141152 8.806955 1.345803
v 3.734527 8.221243 1.470292
v 3.397768 8.561117 1.426141
v 5.129954 7.110059 1.176842
v 3.470079 8.711161 1.204087
v 4.593300 7.917801 0.932788
v 4.235485 8.227119 0.990337
v 5.181464 7.164787 1.070148
v 3.872218 8.485178 1.090359
v 3.445072 8.659037 1.331233
v 4.937673 7.582413 0.935353
v 4.438711 7.661842 1.452891
v 5.102485 7.100406 1.304777
v 4.771467 7.348255 1.382845
v 3.795388 8.336336 1.433534
v 4.113159 8.003860 1.474818
v 5.247997 7.254763 1.003236
v 3.871616 8.482765 1.225038
v 3.843897 8.429136 1.346761
v 5.471230 6.899684 1.259097
v 4.260492 8.272013 1.112361
v 5.532207 6.950070 1.150408
v 4.640012 8.004135 1.018527
v 5.001506 7.689335 0.971835
v 4.816094 7.428865 1.481667
v 5.318139 7.364653 0.988027
v 5.432646 6.895576 1.388357
v 5.104542 7.139582 1.432599
v 4.498578 7.771795 1.492657
v 4.174322 8.116243 1.444689
v 5.605651 7.039749 1.083594
v 4.225241 8.209644 1.363641
v 4.255973 8.264782 1.245232
v 5.050498 7.775494 1.058325
v 5.137610 7.224033 1.536405
v 5.809258 6.693813 1.380635
v 4.661490 8.050392 1.139312
v 5.380417 7.475929 1.026930
v 4.882096 7.536169 1.531493
v 4.561286 7.885954 1.470287
v 5.874320 6.740011 1.271960
v 5.422807 6.939255 1.516935
v 5.678549 7.152652 1.071327
v 4.615218 7.982067 1.392855
v 5.763193 6.694183 1.509231
v 4.652226 8.043955 1.273240
v 5.950157 6.828638 1.205668
v 5.447030 7.027506 1.622624
v 5.422750 7.569426 1.116210
v 5.738319 7.268751 1.115226
v 5.196973 7.339457 1.592083
v 4.953381 7.651531 1.518919
v 5.072683 7.821709 1.181819
v 6.175245 6.476347 1.533189
v 5.740614 6.742629 1.635252
v 6.022093 6.943845 1.196998
v 6.242618 6.519537 1.427322
v 5.018015 7.752611 1.443288
v 5.062281 7.814835 1.320234
v 5.752367 6.835126 1.736319
v 5.503436 7.144607 1.683656
v 5.772611 7.366737 1.211698
v 6.125283 6.475677 1.667041
v 5.270935 7.462343 1.582514
v 6.074333 7.063253 1.245820
v 6.316592 6.603070 1.362089
v 5.432887 7.624178 1.243718
v 6.386189 6.719000 1.352995
v 6.087004 6.523170 1.798146
v 5.345371 7.564829 1.508985
v 6.571271 6.257600 1.691417
v 5.404705 7.622936 1.385889
v 5.798671 6.954098 1.793555
v 5.580767 7.269224 1.677759
v 6.637576 6.297591 1.589016
v 6.081604 6.620355 1.893524
v 6.095975 7.161943 1.346384
v 5.768807 7.422482 1.346445
v 6.431709 6.841138 1.408956
v 6.520777 6.242139 1.845207
v 6.711217 6.372044 1.535336
v 5.660313 7.369247 1.607107
v 5.729330 7.424225 1.488191
v 5.871626 7.075455 1.790644
v 6.122334 6.740396 1.949127
v 6.463861 6.265437 2.021101
v 6.889304 6.105308 1.786221
v 6.784382 6.474265 1.538631
v 6.442397 6.936506 1.515843
v 6.432193 6.373719 2.104853
v 6.080126 7.216591 1.479941
v 6.947802 6.139091 1.691863
v 6.833258 6.114580 1.915480
v 5.954666 7.169388 1.726867
v 6.834522 6.591284 1.597765
v 7.012195 6.212774 1.640821
v 6.770136 6.109125 2.036925
v 6.029503 7.219452 1.615907
v 6.196424 6.857847 1.950153
v 7.075763 5.997340 1.883405
v 6.477407 6.492999 2.160276
v 7.132638 6.015996 1.796474
v 6.698736 6.102951 2.163347
v 6.416903 6.989824 1.647286
v 7.078977 6.311671 1.646449
v 6.655593 6.123970 2.271534
v 6.823327 6.685179 1.708257
v 6.278959 6.948272 1.888885
v 7.029502 5.991828 2.011953
v 7.223614 6.088133 1.731737
v 7.005746 5.980550 2.102001
v 7.217489 5.921741 1.947973
v 6.976622 5.964866 2.181818
v 6.358188 6.994235 1.781084
v 7.256784 5.947899 1.859755
v 7.123507 6.419637 1.711081
v 6.636221 6.172120 2.365783
v 6.547428 6.616451 2.164992
v 6.938818 5.977001 2.315367
v 7.351469 6.012445 1.795730
v 7.300394 6.174089 1.742544
v 7.184776 5.912078 2.082831
v 7.389681 5.873775 1.923552
v 6.662294 6.247590 2.403235
v 6.717841 6.021918 2.394439
v 7.153330 5.928318 2.171769
v 7.354349 5.839454 2.019204
v 6.660727 6.090816 2.433069
v 6.721831 6.001110 2.450436
v 6.786395 6.738291 1.835277
v 6.912878 6.010996 2.441215
v 7.443544 5.949826 1.860244
v 6.694508 6.044197 2.509720
v 6.858109 5.985290 2.475434
v 6.735599 5.978569 2.510236
v 7.357235 6.262607 1.804512
v 6.634874 6.701614 2.099567
v 7.498953 5.809103 1.981124
v 6.691404 6.202489 2.447615
v 6.843662 5.970007 2.490330
v 7.427374 6.097651 1.803591
v 7.331676 5.840404 2.142524
v 7.125300 5.968971 2.285333
v 6.720942 6.009851 2.589242
v 6.836426 5.957664 2.522923
v 6.750108 5.955233 2.572942
v 7.462509 5.791533 2.069906
v 6.733307 6.138405 2.530757
v 7.560139 5.868270 1.930118
v 7.112602 6.493675 1.843801
v 6.732454 6.352029 2.401567
v 6.832099 5.942512 2.564503
v 6.717545 6.746225 1.980039
v 7.539919 5.783814 2.006516
v 6.834541 5.917791 2.616783
v 6.762881 5.930626 2.631987
v 6.740409 5.982363 2.654784
v 7.518375 6.040512 1.850444
v 7.295111 5.873131 2.257998
v 7.501062 5.773286 2.088095
v 6.758167 6.091949 2.615953
v 7.472008 6.175866 1.862606
v 7.589140 5.752414 2.037919
v 6.775657 5.906012 2.691026
v 7.601757 5.836867 1.958196
v 6.836983 5.893061 2.669058
v 7.089107 6.004998 2.410938
v 7.475000 5.830165 2.164275
v 7.550049 5.748837 2.111751
v 6.951168 6.037027 2.559533
v 6.759877 5.954867 2.720323
v 6.770484 6.269522 2.494537
v 6.968229 6.070370 2.533933
v 6.772332 6.054677 2.682323
v 6.836884 5.872871 2.730366
v 7.650087 5.798720 1.991742
v 7.653103 5.695759 2.086001
v 6.784410 5.886790 2.750302
v 6.939554 6.001138 2.592054
v 7.455647 5.840198 2.217522
v 7.629631 5.948586 1.927696
v 7.511559 5.817822 2.171397
v 6.984386 6.095905 2.518234
v 7.665638 5.914069 1.955379
v 6.930732 5.966862 2.631967
v 7.617226 5.699841 2.149584
v 6.770681 5.930845 2.777150
v 6.802357 6.213107 2.576602
v 6.836946 5.852613 2.789764
v 7.568390 6.116157 1.925179
v 7.712763 5.726459 2.044481
v 7.691927 5.653958 2.117702
v 6.786496 6.017397 2.748684
v 6.793951 5.870376 2.806445
v 7.079233 6.537572 1.961166
v 7.266142 5.918993 2.391171
v 6.910382 5.901652 2.731394
v 6.805771 6.444468 2.389312
v 7.707663 5.872035 1.988705
v 7.662220 5.661439 2.176620
v 7.712500 5.619176 2.139820
v 7.746876 5.676551 2.076887
v 7.617821 5.738451 2.209047
v 7.557884 5.797205 2.182902
v 6.921910 5.932577 2.671875
v 7.767187 5.638990 2.100981
v 7.736095 5.580271 2.164698
v 7.054840 6.033200 2.501804
v 6.833838 5.842721 2.834490
v 7.685556 5.628327 2.194895
v 6.779610 5.911139 2.829313
v 7.394487 5.830523 2.313667
v 7.764469 5.535552 2.189933
v 7.711056 5.588880 2.214265
v 6.893637 5.874650 2.798837
v 7.789938 5.599161 2.128579
v 6.793677 5.984784 2.803479
v 6.820125 6.159906 2.653896
v 6.807242 5.861670 2.851901
v 7.328382 6.329543 1.974381
v 7.796209 5.495213 2.217915
v 7.742504 5.544543 2.234515
v 7.813881 5.553250 2.158719
v 7.772251 5.784061 2.049142
v 7.661116 5.691442 2.227523
v 7.777893 5.501813 2.258268
v 7.485020 6.217749 1.931460
v 6.988235 6.550041 2.154599
v 7.838520 5.509512 2.196939
v 7.650845 6.024618 1.994808
v 6.789990 5.892632 2.863172
v 7.825750 5.470028 2.246243
v 7.684786 5.655168 2.242433
v 7.806320 5.727149 2.083554
v 7.710829 5.613650 2.259151
v 7.742266 5.567084 2.276818
v 7.822859 5.687225 2.110576
v 7.431202 5.815886 2.330369
v 6.830080 6.113867 2.711710
v 7.021088 6.140598 2.516938
v 7.561283 5.916406 2.195030
v 7.488594 5.825557 2.243650
v 6.835469 5.892120 2.890368
v 7.841833 5.647808 2.138139
v 7.776880 5.521440 2.298134
v 7.818937 5.473836 2.283314
v 7.559597 5.914434 2.210058
v 6.865624 5.866941 2.859389
v 7.861982 5.479977 2.244003
v 7.861250 5.601632 2.171666
v 6.811124 5.923839 2.888729
v 6.867979 6.281777 2.538291
v 7.879082 5.548276 2.210836
v 6.801439 5.956157 2.853939
v 7.579708 5.900172 2.202174
v 7.681297 5.987236 2.022622
v 6.840036 6.067821 2.769518
v 7.218533 5.958624 2.484200
v 7.467920 5.801259 2.347075
v 6.876913 6.495173 2.314361
v 6.980861 6.019039 2.712107
v 6.962984 5.968344 2.766914
v 7.521545 5.810923 2.269781
v 7.891653 5.510289 2.246182
v 6.985662 6.060037 2.675056
v 7.810284 5.490820 2.315101
v 7.381929 5.886959 2.415951
v 7.658051 5.801606 2.242444
v 7.862858 5.483668 2.297001
v 6.990462 6.101026 2.637999
v 7.717817 5.941021 2.057054
v 6.845218 6.024274 2.820791
v 7.693352 5.743098 2.264982
v 7.765894 5.605163 2.310795
v 7.736309 5.656201 2.293236
v 7.712605 5.700550 2.278564
v 6.939012 5.926330 2.831430
v 7.578842 5.896051 2.224037
v 7.801554 5.552361 2.329106
v 6.995606 6.149312 2.602083
v 6.902575 5.905849 2.881855
v 6.846665 5.987696 2.872745
v 7.537569 5.764789 2.384144
v 7.424879 5.867525 2.424501
v 7.606760 5.874160 2.213465
v 7.781427 5.843393 2.123369
v 7.342007 5.905842 2.448024
v 6.998693 6.193924 2.573329
v 6.888500 6.218347 2.606575
v 6.842646 5.955729 2.907076
v 7.839733 5.509618 2.334678
v 7.585886 5.770285 2.309948
v 7.308231 6.373506 2.089214
v 7.598093 5.877675 2.238019
v 7.817780 5.784011 2.159900
v 7.569281 6.146399 2.036323
v 7.891737 5.524007 2.294952
v 7.837067 5.742870 2.185222
v 7.883471 5.581749 2.272320
v 7.851006 5.700046 2.213198
v 7.866131 5.647853 2.242603
v 6.903059 6.164013 2.663079
v 7.189337 6.027654 2.557003
v 6.877755 5.937835 2.909482
v 7.463861 6.259259 2.046336
v 7.086977 6.145856 2.535912
v 7.467834 5.848097 2.433055
v 6.909515 6.118956 2.712142
v 7.586332 5.724931 2.411254
v 7.009071 6.256569 2.538169
v 7.630800 5.728524 2.341685
v 7.294500 5.921275 2.529450
v 7.868713 5.543128 2.337276
v 7.656029 5.823125 2.275116
v 6.915839 6.027993 2.814539
v 7.634888 5.998213 2.141237
v 7.609980 6.038939 2.119970
v 7.846169 5.590205 2.331534
v 7.817585 5.650997 2.313112
v 6.910115 5.983033 2.873440
v 7.667263 5.947385 2.167869
v 6.915971 6.073890 2.761201
v 7.797750 5.706551 2.291619
v 7.375753 5.892812 2.468740
v 7.044518 6.332107 2.477269
v 7.600273 6.046456 2.177642
v 7.635096 5.685079 2.438369
v 7.675714 5.686770 2.373427
v 7.729778 5.853320 2.218341
v 7.783033 5.751398 2.270647
v 7.537472 5.806882 2.459039
v 7.766445 5.792205 2.251462
v 7.697168 5.773418 2.307524
v 7.626371 6.008088 2.213213
v 7.706564 5.645718 2.400365
v 7.326614 5.898428 2.548755
v 7.464455 5.974496 2.452085
v 7.668228 5.642772 2.459109
v 7.652473 5.969728 2.248787
v 7.738306 5.723719 2.339938
v 7.739391 5.601361 2.428918
v 7.408424 5.871183 2.489477
v 7.360373 5.872929 2.567789
v 7.587263 5.762110 2.480953
v 7.704248 5.597449 2.482111
v 7.768120 5.677951 2.368112
v 7.776123 5.553444 2.457469
v 7.548882 6.166289 2.114599
v 7.744684 5.550598 2.508221
v 7.493713 5.954677 2.460885
v 7.277390 5.980997 2.597573
v 7.711742 5.899861 2.295937
v 7.797087 5.630660 2.396948
v 7.216404 6.408384 2.295916
v 7.669233 5.670839 2.521748
v 7.438452 5.851302 2.508538
v 7.391525 5.849396 2.585355
v 7.313261 5.952102 2.615479
v 7.475307 5.958076 2.462990
v 7.435406 6.285778 2.143184
v 7.817717 5.508525 2.492600
v 7.826807 5.580119 2.430775
v 7.637056 5.717341 2.502871
v 7.751488 5.839660 2.330329
v 7.703857 5.621922 2.541679
v 7.795500 5.505892 2.539851
v 7.214621 6.120503 2.586604
v 7.496763 5.935580 2.477429
v 7.351040 5.920775 2.635150
v 7.455130 5.799933 2.620015
v 7.580490 5.875175 2.496552
v 7.857922 5.478910 2.518142
v 7.791233 5.779461 2.364728
v 7.860201 5.529109 2.471303
v 7.498672 5.802118 2.547464
v 7.743683 5.572174 2.563242
v 7.140151 6.265562 2.523910
v 7.384155 6.308243 2.230780
v 7.821123 5.730365 2.391185
v 7.515978 5.915437 2.490359
v 7.520508 5.931408 2.471920
v 7.844244 5.481338 2.563972
v 7.509924 6.202107 2.221951
v 7.849771 5.682792 2.420282
v 7.627218 5.821931 2.519870
v 7.544485 5.756210 2.581584
v 7.873768 5.627038 2.451360
v 7.294271 6.063670 2.627101
v 7.893284 5.490774 2.515581
v 7.791733 5.523985 2.587065
v 7.386255 5.891575 2.653487
v 7.579918 6.107347 2.287304
v 7.896742 5.564732 2.492111
v 7.508022 5.751720 2.651059
v 7.673950 5.768692 2.543194
v 7.569845 5.857953 2.526896
v 7.885067 5.492184 2.577086
v 7.584675 5.712519 2.612165
v 7.706207 5.719362 2.562867
v 7.611540 6.066891 2.313252
v 7.738462 5.666998 2.582043
v 7.830666 5.495740 2.603914
v 7.912109 5.522336 2.528093
v 7.774054 5.611198 2.601986
v 7.333914 6.028003 2.649045
v 7.550377 5.708010 2.676726
v 7.453703 5.834801 2.689371
v 7.610521 5.808941 2.557893
v 7.816896 5.555018 2.617349
v 7.624866 5.668826 2.642747
v 7.643164 6.026441 2.339203
v 7.254936 6.337969 2.441585
v 7.375593 5.989166 2.671820
v 7.592733 5.664299 2.702392
v 7.646149 5.756524 2.588314
v 7.318874 6.332019 2.344866
v 7.551323 6.061886 2.424848
v 7.503429 5.779990 2.717250
v 7.464851 6.137916 2.466609
v 7.663303 5.626060 2.670703
v 7.491812 6.095332 2.487568
v 7.451159 6.228674 2.326590
v 7.702799 5.949413 2.386427
v 7.857491 5.512641 2.622754
v 7.589231 6.013017 2.443359
v 7.525499 6.050219 2.511367
v 7.414835 5.952601 2.693264
v 7.632891 5.621131 2.726863
v 7.681776 5.704107 2.618734
v 7.543909 5.731493 2.740554
v 7.746805 5.886386 2.421112
v 7.256208 6.233787 2.578290
v 7.704779 5.575618 2.701738
v 7.557178 6.007795 2.533747
v 7.909790 5.528446 2.578383
v 7.646599 5.938740 2.475349
v 7.824152 5.773256 2.477733
v 7.714039 5.656743 2.647435
v 7.898100 5.588031 2.560229
v 7.513420 6.110764 2.406340
v 7.678938 5.569493 2.755856
v 7.584389 5.682996 2.763859
v 7.878296 5.663198 2.527912
v 7.857315 5.724261 2.500607
v 7.691055 5.876875 2.503577
v 7.744249 5.532776 2.735956
v 7.619362 5.931001 2.575755
v 7.484951 5.885993 2.731288
v 7.884708 5.539374 2.617843
v 7.623363 5.636545 2.786601
v 7.751383 5.602970 2.685561
v 7.355074 6.146126 2.627821
v 7.859161 5.586860 2.614343
v 7.735514 5.815013 2.531809
v 7.828600 5.653991 2.598625
v 7.790817 5.823364 2.455801
v 7.734932 5.523675 2.788419
v 7.769056 5.766358 2.556077
v 7.659763 5.871944 2.604401
v 7.394920 6.256026 2.415451
v 7.800777 5.715187 2.578233
v 7.535715 5.825612 2.761534
v 7.693655 5.814647 2.630910
v 7.667948 5.583598 2.811849
v 7.794037 5.541759 2.739616
v 7.727545 5.757349 2.657419
v 7.393431 6.105919 2.648412
v 7.574800 5.774048 2.785540
v 7.757532 5.704633 2.682006
v 7.613886 5.722485 2.809546
v 7.713747 5.540170 2.830507
v 7.792171 5.643359 2.714080
v 7.333490 6.277132 2.503109
v 7.435459 6.061235 2.670769
v 7.649525 5.672135 2.831644
v 7.798336 5.523059 2.814482
v 7.826159 5.578363 2.750272
v 7.694712 5.614922 2.853182
v 7.475163 6.019027 2.691888
v 7.752274 5.554563 2.860556
v 7.425896 6.184000 2.558257
v 7.461361 6.142915 2.580559
v 7.546072 5.943059 2.729414
v 7.501587 6.095650 2.604824
v 7.539627 6.050953 2.627770
v 7.597033 5.877987 2.761280
v 7.634905 5.822796 2.786357
v 7.608299 5.969674 2.668280
v 7.825893 5.578054 2.817129
v 7.654709 5.903651 2.697451
v 7.672779 5.767604 2.811434
v 7.690823 5.845393 2.721832
v 7.726936 5.787134 2.746213
v 7.785282 5.592470 2.867074
v 7.756958 5.732615 2.766993
v 7.790813 5.666313 2.790046
v 7.705725 5.715682 2.833241
v 7.745567 5.655075 2.854374
vt 0.013574 0.983256
vt 0.013460 0.983095
vt 0.013636 0.983166
vt 0.013653 0.983366
vt 0.013781 0.983429
vt 0.013482 0.983207
vt 0.013680 0.983469
vt 0.017770 0.991871
vt 0.017630 0.991911
vt 0.017653 0.991707
vt 0.017780 0.991702
vt 0.017896 0.991697
vt 0.017896 0.991855
vt 0.013316 0.983152
vt 0.013364 0.983152
vt 0.017523 0.991711
vt 0.017522 0.991941
vt 0.013248 0.983103
vt 0.013672 0.983613
vt 0.013789 0.983738
vt 0.016205 0.991592
vt 0.016092 0.991748
vt 0.016094 0.991590
vt 0.017646 0.991293
vt 0.017901 0.991301
vt 0.016213 0.991768
vt 0.017775 0.991297
vt 0.017391 0.991715
vt 0.013256 0.983222
vt 0.017378 0.991983
vt 0.016227 0.991195
vt 0.016327 0.991805
vt 0.016100 0.991191
vt 0.013617 0.983723
vt 0.013117 0.983251
vt 0.017515 0.991288
vt 0.017776 0.990882
vt 0.017905 0.990884
vt 0.013687 0.983920
vt 0.016345 0.991608
vt 0.017646 0.990878
vt 0.016244 0.990773
vt 0.013221 0.983305
vt 0.017255 0.991719
vt 0.016114 0.990773
vt 0.017250 0.992025
vt 0.013537 0.984000
vt 0.017385 0.991280
vt 0.016453 0.991626
vt 0.016354 0.991199
vt 0.017913 0.990451
vt 0.017786 0.990448
vt 0.017518 0.990871
vt 0.016432 0.991819
vt 0.013218 0.983429
vt 0.013068 0.983451
vt 0.013513 0.983776
vt 0.016251 0.990337
vt 0.017114 0.992031
vt 0.017659 0.990442
vt 0.016124 0.990340
vt 0.017256 0.991271
vt 0.016481 0.991205
vt 0.016371 0.990775
vt 0.013361 0.983991
vt 0.016585 0.991648
vt 0.017933 0.990023
vt 0.017391 0.990860
vt 0.016545 0.991882
vt 0.017809 0.990017
vt 0.013227 0.983572
vt 0.017121 0.991709
vt 0.017534 0.990433
vt 0.013083 0.983725
vt 0.013401 0.983773
vt 0.016247 0.989905
vt 0.016498 0.990779
vt 0.016977 0.992032
vt 0.016123 0.989911
vt 0.017685 0.990009
vt 0.016378 0.990335
vt 0.013283 0.983698
vt 0.013183 0.983904
vt 0.016608 0.991214
vt 0.016718 0.991668
vt 0.016678 0.991950
vt 0.017967 0.989620
vt 0.016988 0.991697
vt 0.017408 0.990421
vt 0.017263 0.990848
vt 0.017842 0.989611
vt 0.017127 0.991261
vt 0.016855 0.991683
vt 0.016813 0.992007
vt 0.017561 0.989998
vt 0.016505 0.990336
vt 0.016243 0.989508
vt 0.016117 0.989511
vt 0.016375 0.989898
vt 0.016738 0.991225
vt 0.016624 0.990787
vt 0.017717 0.989601
vt 0.016997 0.991250
vt 0.016868 0.991237
vt 0.018002 0.989225
vt 0.017136 0.990834
vt 0.017873 0.989216
vt 0.017282 0.990408
vt 0.017436 0.989983
vt 0.016506 0.989892
vt 0.017592 0.989590
vt 0.016249 0.989123
vt 0.016373 0.989506
vt 0.016633 0.990341
vt 0.016751 0.990797
vt 0.016118 0.989122
vt 0.017746 0.989208
vt 0.016879 0.990808
vt 0.017008 0.990821
vt 0.017310 0.989964
vt 0.016506 0.989505
vt 0.018026 0.988824
vt 0.017156 0.990394
vt 0.017465 0.989577
vt 0.016637 0.989888
vt 0.016136 0.988729
vt 0.016761 0.990351
vt 0.017896 0.988820
vt 0.016381 0.989124
vt 0.017617 0.989198
vt 0.016891 0.990365
vt 0.016268 0.988731
vt 0.017025 0.990380
vt 0.017767 0.988815
vt 0.016515 0.989126
vt 0.017336 0.989564
vt 0.017487 0.989188
vt 0.016643 0.989507
vt 0.016770 0.989893
vt 0.017181 0.989943
vt 0.018042 0.988391
vt 0.016400 0.988737
vt 0.016145 0.988302
vt 0.017635 0.988809
vt 0.017913 0.988388
vt 0.016907 0.989905
vt 0.017047 0.989923
vt 0.016534 0.988747
vt 0.016654 0.989128
vt 0.017353 0.989178
vt 0.016283 0.988297
vt 0.016782 0.989515
vt 0.017501 0.988805
vt 0.017788 0.988385
vt 0.017203 0.989550
vt 0.017656 0.988383
vt 0.016423 0.988305
vt 0.016923 0.989526
vt 0.018042 0.987930
vt 0.017065 0.989537
vt 0.016669 0.988756
vt 0.016794 0.989135
vt 0.016120 0.987844
vt 0.017917 0.987927
vt 0.016554 0.988326
vt 0.017363 0.988799
vt 0.017215 0.989167
vt 0.017518 0.988381
vt 0.016274 0.987822
vt 0.017803 0.987918
vt 0.016934 0.989146
vt 0.017075 0.989156
vt 0.016807 0.988766
vt 0.016688 0.988339
vt 0.016451 0.987812
vt 0.022353 0.992703
vt 0.022163 0.993010
vt 0.022238 0.992674
vt 0.017682 0.987904
vt 0.017378 0.988377
vt 0.016575 0.987860
vt 0.017223 0.988790
vt 0.022459 0.992737
vt 0.022271 0.993031
vt 0.022033 0.992979
vt 0.022094 0.992656
vt 0.016943 0.988774
vt 0.017546 0.987894
vt 0.022375 0.993054
vt 0.021912 0.992941
vt 0.021943 0.992614
vt 0.019524 0.992453
vt 0.019579 0.992788
vt 0.019457 0.992789
vt 0.017082 0.988782
vt 0.016824 0.988346
vt 0.022090 0.993219
vt 0.016706 0.987869
vt 0.022189 0.993235
vt 0.021787 0.992887
vt 0.017237 0.988371
vt 0.019408 0.992455
vt 0.021686 0.992838
vt 0.021875 0.992512
vt 0.017405 0.987903
vt 0.016957 0.988356
vt 0.021959 0.993212
vt 0.022312 0.993264
vt 0.021867 0.993214
vt 0.019490 0.992214
vt 0.022063 0.993378
vt 0.021783 0.993205
vt 0.017095 0.988364
vt 0.022162 0.993367
vt 0.019280 0.992461
vt 0.019324 0.992798
vt 0.021607 0.992769
vt 0.016839 0.987881
vt 0.021647 0.993175
vt 0.022285 0.993385
vt 0.019378 0.992201
vt 0.021929 0.993398
vt 0.022156 0.993506
vt 0.021562 0.992694
vt 0.021794 0.992406
vt 0.021547 0.992927
vt 0.019470 0.992071
vt 0.021835 0.993389
vt 0.022055 0.993540
vt 0.021531 0.992835
vt 0.021493 0.992932
vt 0.019192 0.992827
vt 0.017267 0.987905
vt 0.021511 0.993145
vt 0.022264 0.993479
vt 0.021453 0.992865
vt 0.021466 0.993076
vt 0.021434 0.992938
vt 0.019260 0.992185
vt 0.016970 0.987888
vt 0.022171 0.993618
vt 0.021521 0.992725
vt 0.021446 0.993055
vt 0.019359 0.992057
vt 0.021934 0.993579
vt 0.021713 0.993374
vt 0.019463 0.991959
vt 0.021374 0.992876
vt 0.021410 0.993040
vt 0.021370 0.992941
vt 0.022079 0.993659
vt 0.021438 0.992763
vt 0.022266 0.993590
vt 0.019136 0.992472
vt 0.018421 0.992638
vt 0.018544 0.992983
vt 0.018318 0.992697
vt 0.021364 0.993025
vt 0.017114 0.987900
vt 0.022185 0.993659
vt 0.018665 0.992930
vt 0.021305 0.993013
vt 0.021308 0.992939
vt 0.021307 0.992879
vt 0.019349 0.991953
vt 0.021802 0.993573
vt 0.022101 0.993698
vt 0.019457 0.991823
vt 0.019063 0.992851
vt 0.021358 0.992784
vt 0.019256 0.992042
vt 0.022211 0.993709
vt 0.021246 0.992937
vt 0.022273 0.993628
vt 0.021248 0.993001
vt 0.021584 0.993342
vt 0.021991 0.993728
vt 0.022136 0.993746
vt 0.021367 0.993168
vt 0.021238 0.992878
vt 0.018327 0.992560
vt 0.018273 0.992658
vt 0.021394 0.993201
vt 0.021293 0.992797
vt 0.021187 0.992986
vt 0.022290 0.993672
vt 0.022257 0.993783
vt 0.021188 0.992930
vt 0.021327 0.993139
vt 0.021921 0.993731
vt 0.019352 0.991812
vt 0.022028 0.993759
vt 0.021409 0.993228
vt 0.019361 0.991764
vt 0.019460 0.991773
vt 0.021280 0.993113
vt 0.022198 0.993818
vt 0.021178 0.992879
vt 0.018253 0.992499
vt 0.018199 0.992596
vt 0.021131 0.992969
vt 0.019237 0.991925
vt 0.022326 0.993747
vt 0.022293 0.993833
vt 0.021223 0.992807
vt 0.021134 0.992924
vt 0.018919 0.992873
vt 0.019015 0.992489
vt 0.021645 0.993559
vt 0.021169 0.993058
vt 0.018522 0.992586
vt 0.018785 0.992894
vt 0.019376 0.991707
vt 0.019469 0.991714
vt 0.022241 0.993869
vt 0.022317 0.993870
vt 0.022354 0.993796
vt 0.022147 0.993859
vt 0.022074 0.993799
vt 0.021233 0.993087
vt 0.022375 0.993834
vt 0.022345 0.993911
vt 0.021494 0.993312
vt 0.021094 0.992952
vt 0.022270 0.993904
vt 0.021125 0.992880
vt 0.021784 0.993698
vt 0.022378 0.993956
vt 0.022302 0.993942
vt 0.021102 0.993020
vt 0.022401 0.993876
vt 0.021162 0.992817
vt 0.018173 0.992460
vt 0.018127 0.992546
vt 0.021092 0.992922
vt 0.019083 0.992185
vt 0.022408 0.994002
vt 0.022339 0.993984
vt 0.022429 0.993928
vt 0.019421 0.991603
vt 0.019501 0.991619
vt 0.022198 0.993905
vt 0.022375 0.994027
vt 0.019178 0.992027
vt 0.018814 0.992518
vt 0.022452 0.993988
vt 0.019245 0.991796
vt 0.021090 0.992892
vt 0.022426 0.994042
vt 0.022230 0.993937
vt 0.019451 0.991541
vt 0.019525 0.991556
vt 0.022265 0.993974
vt 0.022305 0.994014
vt 0.019472 0.991498
vt 0.019543 0.991510
vt 0.021782 0.993741
vt 0.018064 0.992513
vt 0.018107 0.992438
vt 0.021396 0.993273
vt 0.021992 0.993850
vt 0.021895 0.993772
vt 0.021040 0.992907
vt 0.019489 0.991452
vt 0.019559 0.991457
vt 0.022346 0.994056
vt 0.022405 0.994068
vt 0.021981 0.993847
vt 0.021054 0.992962
vt 0.022459 0.994055
vt 0.019507 0.991398
vt 0.019574 0.991396
vt 0.021059 0.992864
vt 0.018346 0.992452
vt 0.019524 0.991336
vt 0.019579 0.991329
vt 0.021102 0.992834
vt 0.022010 0.993860
vt 0.019258 0.991748
vt 0.018039 0.992417
vt 0.017997 0.992479
vt 0.021543 0.993500
vt 0.021779 0.993786
vt 0.018626 0.992557
vt 0.018090 0.992156
vt 0.018083 0.992256
vt 0.018037 0.992155
vt 0.017969 0.992175
vt 0.018012 0.992251
vt 0.021875 0.993814
vt 0.019527 0.991287
vt 0.019559 0.991267
vt 0.018135 0.992264
vt 0.018142 0.992159
vt 0.022379 0.994088
vt 0.021645 0.993696
vt 0.022103 0.993916
vt 0.022430 0.994105
vt 0.017899 0.992205
vt 0.018189 0.992271
vt 0.018189 0.992167
vt 0.019280 0.991690
vt 0.017937 0.992450
vt 0.017977 0.992398
vt 0.022153 0.993953
vt 0.022267 0.994052
vt 0.022223 0.994011
vt 0.022187 0.993978
vt 0.017941 0.992262
vt 0.017845 0.992257
vt 0.021967 0.993860
vt 0.022319 0.994097
vt 0.018249 0.992282
vt 0.018231 0.992179
vt 0.019517 0.991225
vt 0.017889 0.992287
vt 0.017830 0.992317
vt 0.017883 0.992413
vt 0.017921 0.992375
vt 0.021768 0.993876
vt 0.021666 0.993746
vt 0.022037 0.993878
vt 0.019333 0.991576
vt 0.021593 0.993655
vt 0.018262 0.992188
vt 0.018303 0.992292
vt 0.018264 0.992409
vt 0.017846 0.992366
vt 0.017883 0.992355
vt 0.022376 0.994124
vt 0.021851 0.993897
vt 0.018964 0.992189
vt 0.021955 0.993876
vt 0.019366 0.991510
vt 0.019129 0.991885
vt 0.019491 0.991262
vt 0.019387 0.991467
vt 0.019463 0.991313
vt 0.019406 0.991422
vt 0.019430 0.991371
vt 0.018192 0.992380
vt 0.021453 0.993443
vt 0.017889 0.992326
vt 0.019061 0.992021
vt 0.021383 0.993320
vt 0.019461 0.991207
vt 0.021680 0.993795
vt 0.018130 0.992364
vt 0.021762 0.993947
vt 0.018379 0.992305
vt 0.018316 0.992205
vt 0.021837 0.993963
vt 0.021503 0.993586
vt 0.019451 0.991246
vt 0.019396 0.991217
vt 0.021933 0.993937
vt 0.018006 0.992335
vt 0.019143 0.991689
vt 0.019094 0.991586
vt 0.019110 0.991568
vt 0.019111 0.991738
vt 0.019412 0.991271
vt 0.019334 0.991257
vt 0.019366 0.991318
vt 0.019288 0.991304
vt 0.017943 0.992326
vt 0.019182 0.991629
vt 0.019135 0.991538
vt 0.018069 0.992348
vt 0.019333 0.991368
vt 0.019253 0.991349
vt 0.021552 0.993686
vt 0.018487 0.992304
vt 0.019044 0.991722
vt 0.019085 0.991579
vt 0.021754 0.994018
vt 0.021826 0.994031
vt 0.019247 0.991520
vt 0.019186 0.991457
vt 0.019309 0.991412
vt 0.019227 0.991393
vt 0.021686 0.993882
vt 0.019287 0.991453
vt 0.021915 0.993993
vt 0.019012 0.991668
vt 0.019072 0.991561
vt 0.021814 0.994086
vt 0.021475 0.993621
vt 0.021570 0.993797
vt 0.021749 0.994077
vt 0.018985 0.991615
vt 0.019061 0.991541
vt 0.021900 0.994053
vt 0.021802 0.994145
vt 0.018354 0.992158
vt 0.021509 0.993716
vt 0.021444 0.993655
vt 0.021689 0.993951
vt 0.021743 0.994138
vt 0.021885 0.994107
vt 0.021790 0.994209
vt 0.019047 0.991876
vt 0.021735 0.994201
vt 0.021580 0.993820
vt 0.021422 0.993531
vt 0.018955 0.991519
vt 0.019036 0.991471
vt 0.021869 0.994164
vt 0.018746 0.992228
vt 0.021684 0.994078
vt 0.021473 0.993744
vt 0.021413 0.993685
vt 0.021405 0.993569
vt 0.021554 0.993801
vt 0.018961 0.992025
vt 0.021773 0.994274
vt 0.021848 0.994226
vt 0.021685 0.994020
vt 0.018942 0.991442
vt 0.019020 0.991407
vt 0.021682 0.994139
vt 0.021724 0.994270
vt 0.021355 0.993415
vt 0.021529 0.993816
vt 0.021381 0.993606
vt 0.021348 0.993744
vt 0.021607 0.993906
vt 0.021760 0.994325
vt 0.018930 0.991366
vt 0.019004 0.991340
vt 0.021818 0.994295
vt 0.021401 0.993801
vt 0.021679 0.994203
vt 0.018479 0.992174
vt 0.018862 0.992051
vt 0.018921 0.991306
vt 0.018992 0.991280
vt 0.021507 0.993831
vt 0.021589 0.993845
vt 0.021717 0.994325
vt 0.018925 0.991891
vt 0.018908 0.991247
vt 0.018976 0.991217
vt 0.021614 0.993964
vt 0.021341 0.993847
vt 0.018894 0.991184
vt 0.018952 0.991151
vt 0.021347 0.993489
vt 0.021777 0.994355
vt 0.018384 0.992040
vt 0.021677 0.994272
vt 0.021352 0.993639
vt 0.018899 0.991759
vt 0.018869 0.991114
vt 0.018913 0.991085
vt 0.021288 0.993796
vt 0.021614 0.994027
vt 0.021443 0.993878
vt 0.021712 0.994369
vt 0.021288 0.993887
vt 0.021615 0.994082
vt 0.018890 0.991704
vt 0.021616 0.994142
vt 0.021677 0.994320
vt 0.018842 0.991067
vt 0.018860 0.991037
vt 0.021619 0.994210
vt 0.021336 0.993524
vt 0.021238 0.993839
vt 0.021289 0.993698
vt 0.021389 0.993915
vt 0.021629 0.994284
vt 0.021236 0.993928
vt 0.018880 0.991648
vt 0.018630 0.992125
vt 0.018794 0.991026
vt 0.021317 0.993561
vt 0.021189 0.993882
vt 0.021332 0.993950
vt 0.018737 0.992089
vt 0.018756 0.991701
vt 0.018649 0.991648
vt 0.018660 0.991622
vt 0.021235 0.993751
vt 0.021187 0.993967
vt 0.018620 0.991768
vt 0.018636 0.991631
vt 0.018800 0.991922
vt 0.018861 0.991542
vt 0.021654 0.994344
vt 0.018763 0.991636
vt 0.018666 0.991592
vt 0.018577 0.991719
vt 0.018614 0.991607
vt 0.021291 0.993594
vt 0.021143 0.993922
vt 0.021275 0.993985
vt 0.021189 0.993796
vt 0.018848 0.991461
vt 0.018496 0.992047
vt 0.021130 0.994008
vt 0.018539 0.991673
vt 0.018595 0.991585
vt 0.018796 0.991066
vt 0.018761 0.991538
vt 0.018672 0.991516
vt 0.018831 0.991321
vt 0.021221 0.994019
vt 0.018801 0.991123
vt 0.018742 0.991769
vt 0.018734 0.991043
vt 0.021089 0.993969
vt 0.021142 0.993840
vt 0.018815 0.991199
vt 0.018825 0.991262
vt 0.018753 0.991459
vt 0.018671 0.991446
vt 0.018660 0.991814
vt 0.021075 0.994039
vt 0.018472 0.991591
vt 0.018538 0.991521
vt 0.021232 0.993655
vt 0.018754 0.991072
vt 0.018693 0.991095
vt 0.021096 0.993882
vt 0.021155 0.994057
vt 0.018461 0.991924
vt 0.018364 0.991951
vt 0.018739 0.991119
vt 0.018668 0.991169
vt 0.018746 0.991380
vt 0.018670 0.991373
vt 0.018732 0.991191
vt 0.018661 0.991243
vt 0.018835 0.991381
vt 0.021032 0.994018
vt 0.018739 0.991319
vt 0.018663 0.991310
vt 0.018426 0.991530
vt 0.018490 0.991469
vt 0.018697 0.991964
vt 0.018735 0.991258
vt 0.021181 0.993708
vt 0.018385 0.991475
vt 0.018444 0.991415
vt 0.021047 0.993933
vt 0.021063 0.994087
vt 0.018342 0.991420
vt 0.018395 0.991362
vt 0.018437 0.991877
vt 0.018345 0.991906
vt 0.021137 0.993753
vt 0.018302 0.991371
vt 0.018348 0.991316
vt 0.021091 0.993799
vt 0.021008 0.993980
vt 0.018251 0.991319
vt 0.018285 0.991268
vt 0.018602 0.992014
vt 0.018408 0.991826
vt 0.018322 0.991858
vt 0.021047 0.993846
vt 0.020985 0.994062
vt 0.018192 0.991271
vt 0.018194 0.991227
vt 0.020996 0.993904
vt 0.018378 0.991777
vt 0.018297 0.991813
vt 0.020960 0.993989
vt 0.018561 0.991886
vt 0.018533 0.991838
vt 0.018107 0.991245
vt 0.018321 0.991690
vt 0.018249 0.991728
vt 0.018497 0.991785
vt 0.018461 0.991736
vt 0.018271 0.991622
vt 0.018203 0.991660
vt 0.018230 0.991566
vt 0.018164 0.991603
vt 0.018396 0.991648
vt 0.018140 0.991294
vt 0.018348 0.991582
vt 0.018191 0.991510
vt 0.018126 0.991544
vt 0.018307 0.991527
vt 0.018267 0.991472
vt 0.018099 0.991331
vt 0.018059 0.991314
vt 0.018232 0.991423
vt 0.018191 0.991365
vt 0.018156 0.991459
vt 0.018091 0.991485
vt 0.018122 0.991396
vt 0.018061 0.991409
vn -0.260325 -0.763117 -0.591510
vn -0.229985 -0.967123 -0.108538
vn -0.121201 -0.767313 -0.629715
vn -0.164927 -0.500695 -0.849767
vn 0.021759 -0.262438 -0.964704
vn -0.372455 -0.912553 -0.168889
vn -0.016666 -0.104998 -0.994333
vn -0.259908 -0.495775 -0.828647
vn -0.384663 -0.724893 -0.571458
vn -0.464507 -0.862889 -0.199137
vn -0.352374 -0.883213 0.309464
vn -0.080544 -0.149594 -0.985461
vn -0.228658 -0.848958 0.476430
vn 0.185917 0.206121 -0.960703
vn 0.290592 0.206804 -0.934232
vn -0.459881 -0.845149 0.272456
vn -0.230101 -0.428607 -0.873699
vn -0.461356 -0.857035 -0.229437
vn -0.377755 -0.693742 -0.613207
vn 0.148409 0.255139 -0.955447
vn -0.265259 -0.684782 0.678758
vn -0.466126 -0.856586 0.221332
vn 0.369847 0.594463 -0.714022
vn -0.071390 -0.458799 0.885668
vn -0.022581 -0.067458 -0.997467
vn -0.349602 -0.675035 -0.649697
vn -0.454663 -0.848351 -0.271261
vn 0.455452 0.612715 -0.645867
vn -0.377667 -0.670618 0.638466
vn -0.182078 -0.388509 -0.903277
vn -0.471877 -0.862684 0.181958
vn -0.155630 -0.349398 0.923959
vn 0.348189 0.614330 -0.708070
vn 0.498605 0.821905 -0.275436
vn 0.196526 0.341858 -0.918973
vn -0.196984 -0.320098 0.926679
vn -0.377442 -0.685399 0.622708
vn -0.452904 -0.834240 -0.314518
vn -0.324680 -0.652187 -0.685007
vn 0.030123 -0.017480 -0.999393
vn 0.033793 0.000457 0.999429
vn 0.115775 -0.036047 0.992621
vn 0.458779 0.825509 -0.328719
vn -0.494770 -0.858751 0.133225
vn -0.137675 -0.356887 -0.923947
vn 0.375841 0.668073 -0.642201
vn -0.202919 -0.353647 0.913103
vn -0.394295 -0.699450 0.596072
vn 0.481668 0.848392 0.219609
vn 0.007581 0.063327 0.997964
vn -0.444158 -0.821240 -0.358174
vn 0.247428 0.375611 -0.893138
vn -0.294466 -0.637249 -0.712183
vn 0.226655 0.352015 0.908137
vn 0.464557 0.838412 -0.285049
vn 0.080029 0.010119 -0.996741
vn 0.279439 0.364058 0.888468
vn 0.465994 0.860933 0.204070
vn -0.517034 -0.852417 0.077850
vn -0.234867 -0.385946 0.892123
vn -0.094620 -0.341922 -0.934953
vn -0.439988 -0.713674 0.545049
vn 0.383820 0.679200 0.625595
vn 0.412647 0.686803 0.598351
vn 0.010210 0.045815 0.998898
vn 0.213729 0.438422 0.872987
vn -0.428054 -0.821304 -0.377133
vn 0.473265 0.859662 0.192360
vn 0.284195 0.384292 -0.878381
vn 0.412401 0.691676 -0.592883
vn -0.257409 -0.645083 -0.719450
vn 0.478483 0.851050 -0.216261
vn 0.377795 0.709802 0.594519
vn 0.120500 0.013960 -0.992615
vn -0.296202 -0.417751 0.858923
vn -0.529957 -0.847130 0.038941
vn -0.491932 -0.718290 0.491998
vn 0.213743 0.413676 0.884978
vn -0.023442 0.011436 0.999660
vn -0.041675 -0.352677 -0.934817
vn 0.468735 0.849859 0.240888
vn 0.372591 0.692092 0.618211
vn -0.403549 -0.837596 -0.368214
vn 0.486162 0.857366 -0.169028
vn -0.207676 -0.676749 -0.706315
vn 0.429896 0.687498 -0.585266
vn 0.312903 0.372278 -0.873786
vn -0.368867 -0.434577 0.821633
vn 0.181645 -0.001228 -0.983364
vn -0.529818 -0.847815 0.022428
vn -0.539540 -0.712070 0.449281
vn -0.090292 -0.026266 0.995569
vn 0.185634 0.388880 0.902393
vn 0.035186 -0.383362 -0.922928
vn 0.355539 0.677985 0.643373
vn 0.460205 0.843872 0.275847
vn 0.449619 0.677201 -0.582445
vn -0.446663 -0.427204 0.786123
vn -0.380165 -0.856565 -0.348956
vn 0.489443 0.857071 -0.160856
vn 0.370649 0.349663 -0.860439
vn -0.172239 -0.054639 0.983539
vn 0.135508 0.366989 0.920302
vn -0.163925 -0.710685 -0.684145
vn -0.572289 -0.704669 0.419437
vn 0.273802 -0.021699 -0.961541
vn 0.317942 0.665451 0.675343
vn -0.523540 -0.851834 0.016857
vn 0.442623 0.843227 0.305046
vn 0.106175 -0.410704 -0.905566
vn -0.507472 -0.418554 0.753183
vn 0.492319 0.652837 -0.575695
vn 0.460561 0.334740 -0.822091
vn -0.260947 -0.040459 0.964505
vn 0.062963 0.351091 0.934222
vn 0.494099 0.855124 -0.156935
vn -0.362178 -0.869527 -0.335784
vn -0.598964 -0.699939 0.389009
vn 0.359735 -0.027315 -0.932655
vn -0.148719 -0.732017 -0.664856
vn 0.271906 0.666734 0.693926
vn 0.428519 0.849397 0.308052
vn -0.562692 -0.395021 0.726179
vn -0.333897 -0.030521 0.942115
vn 0.566813 0.641355 -0.517094
vn -0.505710 -0.862489 -0.019247
vn -0.015280 0.362611 0.931815
vn 0.539686 0.342861 -0.768886
vn 0.130537 -0.425410 -0.895537
vn 0.515202 0.844996 -0.143349
vn 0.401616 -0.008511 -0.915769
vn -0.622048 -0.720714 0.305988
vn 0.227616 0.679465 0.697509
vn -0.337734 -0.880057 -0.333820
vn 0.417699 0.850576 0.319449
vn -0.400718 -0.010630 0.916140
vn -0.076552 0.376272 0.923341
vn -0.142822 -0.735144 -0.662695
vn -0.621823 -0.376568 0.686683
vn 0.617430 0.644497 -0.451004
vn 0.552564 0.828323 -0.092484
vn 0.577641 0.388704 -0.717802
vn -0.447609 -0.885712 -0.123128
vn 0.152086 -0.388038 -0.909008
vn 0.194455 0.685882 0.701252
vn 0.417416 0.842983 0.339328
vn -0.140589 0.390304 0.909889
vn -0.469559 0.014350 0.882784
vn -0.626343 -0.768927 0.128243
vn -0.350576 -0.889311 -0.293637
vn 0.409404 0.034404 -0.911704
vn 0.630516 0.671688 -0.388954
vn -0.732507 -0.335419 0.592391
vn 0.567326 0.822471 -0.041025
vn -0.128577 -0.732746 -0.668245
vn -0.390025 -0.902963 -0.180385
vn 0.153153 0.696038 0.701481
vn 0.571299 0.448551 -0.687328
vn 0.158829 -0.365955 -0.916979
vn -0.400697 -0.887170 -0.228847
vn 0.404546 0.840367 0.360730
vn -0.205849 0.417277 0.885159
vn -0.379241 -0.882692 -0.277545
vn -0.587960 0.092470 0.803587
vn -0.157868 -0.770743 -0.617279
vn -0.464116 -0.872595 -0.152232
vn 0.560579 0.828093 -0.003624
vn 0.411125 0.095120 -0.906603
vn -0.640804 -0.767196 0.027929
vn 0.614838 0.719724 -0.322446
vn 0.118247 0.720680 0.683109
vn -0.418878 -0.885662 -0.200358
vn 0.148871 -0.437192 -0.886962
vn -0.367471 -0.898247 -0.241077
vn -0.366873 -0.891880 -0.264488
vn -0.319285 -0.943008 -0.093769
vn 0.388544 0.847715 0.361126
vn -0.141889 -0.785445 -0.602448
vn 0.588137 0.535469 -0.606109
vn -0.880539 -0.318052 0.351416
vn -0.286532 0.472917 0.833216
vn -0.308685 -0.945854 0.100367
vn 0.168956 -0.493007 -0.853462
vn 0.440162 0.045272 -0.896776
vn -0.409286 -0.907804 -0.091523
vn -0.142805 -0.784748 -0.603140
vn -0.689672 0.198097 0.696498
vn -0.166201 -0.805914 -0.568225
vn -0.359916 -0.924723 0.123886
vn -0.363325 -0.902731 -0.230374
vn -0.964711 -0.182985 0.189341
vn -0.466153 -0.853186 -0.234043
vn 0.552286 0.833062 0.031418
vn -0.145359 -0.975445 0.165461
vn 0.191354 -0.495829 -0.847076
vn -0.946646 -0.085364 0.310764
vn 0.276889 -0.895052 -0.349592
vn -0.506083 -0.841492 -0.189134
vn 0.630068 0.586282 -0.509203
vn 0.130967 0.768781 0.625957
vn -0.138640 -0.801200 -0.582115
vn -0.772624 0.227442 0.592724
vn 0.272672 -0.879456 -0.390137
vn 0.473471 0.009828 -0.880755
vn -0.327062 -0.940903 0.087929
vn -0.266760 -0.941566 0.205651
vn -0.960204 -0.039535 0.276488
vn 0.289072 -0.913330 -0.286820
vn -0.558082 -0.807265 -0.192008
vn -0.303954 -0.952685 0.001742
vn -0.804392 0.292047 0.517360
vn 0.182271 -0.497024 -0.848377
vn 0.627275 0.745009 -0.226909
vn -0.498423 0.411904 0.762830
vn 0.276834 -0.880874 -0.383959
vn 0.400963 0.851125 0.338845
vn -0.165070 -0.817441 -0.551854
vn 0.208673 -0.879984 -0.426712
vn -0.625807 -0.756231 -0.191001
vn -0.966846 -0.027033 0.253927
vn 0.510130 -0.025979 -0.859705
vn -0.397573 -0.905739 0.146876
vn -0.467420 -0.879848 0.085945
vn -0.825996 0.368829 0.426257
vn 0.637046 0.379354 -0.671016
vn -0.226232 -0.798636 -0.557674
vn -0.676916 -0.722760 -0.139290
vn 0.187153 -0.511780 -0.838484
vn 0.125153 -0.914973 -0.383617
vn -0.202828 -0.955019 0.216334
vn -0.038529 -0.900600 0.432938
vn -0.574254 -0.812691 0.098827
vn 0.780340 -0.562164 -0.273935
vn -0.972695 -0.022537 0.230992
vn -0.544621 0.526681 0.652684
vn 0.830897 -0.536000 -0.149379
vn -0.823588 0.392408 0.409535
vn 0.066312 -0.950286 -0.304235
vn 0.185132 -0.497915 -0.847234
vn -0.327975 -0.774029 -0.541582
vn -0.718430 -0.685937 -0.115535
vn 0.717684 -0.588220 -0.372728
vn 0.001970 -0.999830 -0.018359
vn 0.587110 0.005326 -0.809490
vn -0.381613 -0.451508 0.806544
vn 0.814917 -0.550476 0.181347
vn 0.628819 0.005123 -0.777535
vn 0.692604 -0.616179 -0.374998
vn -0.650568 -0.755398 0.078324
vn -0.983761 -0.008625 0.179275
vn -0.573127 0.558517 0.599653
vn 0.036314 -0.963588 -0.264913
vn 0.766128 0.430026 -0.477624
vn 0.118639 -0.510333 -0.851754
vn -0.445453 -0.720161 -0.531921
vn -0.812814 0.418715 0.404984
vn -0.755457 -0.654589 -0.028251
vn 0.553797 0.830354 0.061817
vn -0.413897 -0.885695 0.210317
vn 0.629939 -0.750764 -0.198823
vn -0.148299 0.647188 0.747767
vn 0.698550 0.037385 -0.714584
vn -0.735047 -0.677333 0.030424
vn -0.522867 -0.661004 -0.538223
vn 0.085064 -0.510982 -0.855372
vn -0.660855 -0.359134 0.659009
vn -0.552377 -0.340572 0.760849
vn 0.658241 -0.675332 -0.332634
vn 0.097486 -0.515719 -0.851194
vn -0.523035 -0.654014 -0.546534
vn -0.309729 -0.629556 0.712549
vn 0.062113 -0.985510 0.157833
vn -0.823765 -0.566596 -0.019506
vn -0.972467 -0.021011 0.232091
vn -0.369139 -0.927861 0.053004
vn -0.488327 -0.687894 -0.536971
vn -0.826286 -0.563056 -0.014845
vn 0.622302 -0.781062 -0.051796
vn 0.138792 -0.509243 -0.849357
vn -0.800314 0.463159 0.380764
vn -0.531591 0.615127 0.582263
vn -0.541736 -0.717067 0.438563
vn 0.611364 0.769098 -0.186341
vn -0.395631 -0.781064 -0.483131
vn -0.798892 -0.601397 0.009635
vn 0.209009 -0.512567 -0.832821
vn 0.727271 0.048575 -0.684629
vn -0.731160 -0.361831 0.578346
vn -0.714760 -0.696042 0.068146
vn 0.631020 0.731703 -0.257731
vn 0.392221 0.858051 0.331529
vn 0.307890 -0.588930 -0.747238
vn 0.842755 0.467720 -0.266460
vn -0.818265 -0.261367 0.511986
vn -0.131697 -0.952653 -0.274059
vn -0.802282 -0.302548 0.514596
vn 0.761942 -0.004980 -0.647626
vn -0.798613 -0.313227 0.513912
vn -0.783591 -0.349877 0.513391
vn 0.798790 -0.060899 -0.598520
vn -0.392151 -0.916865 0.074676
vn -0.469402 0.650580 0.596999
vn -0.110847 -0.088862 0.989857
vn 0.537179 -0.061175 0.841247
vn 0.074208 -0.819098 -0.568834
vn -0.088143 -0.531019 0.842763
vn 0.826807 -0.034725 -0.561414
vn -0.739712 -0.418429 0.527014
vn -0.269639 -0.938594 0.215260
vn 0.582373 -0.554717 -0.594248
vn 0.446901 -0.790588 0.418629
vn 0.489111 -0.811065 -0.320850
vn 0.858392 -0.039435 -0.511476
vn -0.685116 0.062057 0.725785
vn -0.037936 0.684227 0.728282
vn 0.875253 -0.086516 -0.475864
vn -0.791014 0.430607 0.434597
vn -0.138024 0.250406 0.958252
vn 0.822684 0.550238 -0.142930
vn -0.391275 0.684258 0.615381
vn -0.428864 -0.858150 0.282231
vn -0.441661 -0.895767 0.050371
vn 0.229662 0.807622 0.543141
vn 0.988782 -0.073125 0.130241
vn 0.961990 -0.192844 0.193354
vn -0.031286 -0.797516 -0.602485
vn 0.921720 -0.288179 -0.259586
vn 0.984632 0.055374 0.165634
vn -0.421681 -0.644049 0.638268
vn -0.217265 -0.776273 0.591775
vn -0.273629 0.190603 0.942761
vn 0.509865 -0.768550 0.386483
vn 0.965297 0.109476 0.237102
vn 0.837665 0.542616 -0.062336
vn -0.326298 0.739243 0.589109
vn -0.336136 0.139910 0.931364
vn -0.457613 0.015930 0.889009
vn -0.440784 0.069573 0.894913
vn -0.407699 0.107082 0.906816
vn 0.921517 -0.279671 0.269426
vn 0.336274 -0.381618 -0.860981
vn -0.404016 -0.038039 0.913961
vn 0.894137 0.235523 0.380852
vn 0.668275 -0.453644 0.589589
vn -0.271829 0.737511 0.618212
vn -0.551163 -0.834004 0.025615
vn -0.392096 -0.509874 0.765695
vn -0.179142 0.278776 0.943500
vn 0.843358 0.537286 -0.008470
vn -0.191667 -0.972376 0.133225
vn 0.738601 0.327140 0.589447
vn 0.123819 0.744890 0.655597
vn -0.307709 0.370767 0.876269
vn 0.089611 -0.410225 0.907571
vn -0.161457 -0.749672 -0.641812
vn 0.551966 0.833841 0.006553
vn 0.303928 -0.351515 -0.885475
vn 0.870649 0.491513 0.019660
vn 0.805073 0.592930 -0.017060
vn 0.943609 -0.129703 0.304598
vn 0.918161 0.391701 0.059584
vn 0.935706 0.313964 0.160876
vn 0.925374 0.360081 0.118426
vn 0.924279 0.343613 0.166248
vn 0.277401 0.715994 0.640625
vn -0.437822 -0.449024 0.778903
vn 0.308693 0.021411 0.950921
vn 0.632683 0.767015 -0.106774
vn -0.330362 0.066224 0.941528
vn -0.497109 -0.486734 0.718313
vn 0.362250 0.705408 0.609241
vn -0.632430 -0.774538 -0.011054
vn 0.339704 0.498460 0.797583
vn -0.246071 -0.736699 -0.629860
vn -0.542288 -0.822197 0.172964
vn 0.578599 0.063402 0.813144
vn 0.274205 -0.348285 -0.896387
vn 0.551013 0.592550 0.587596
vn 0.493326 0.636491 0.592882
vn 0.868379 0.427486 0.251345
vn 0.395597 0.385916 0.833410
vn 0.357993 0.415208 0.836327
vn 0.601955 0.484397 0.634830
vn 0.486823 0.641254 0.593125
vn 0.455770 0.667648 0.588660
vn 0.367153 0.461191 0.807776
vn -0.037745 -0.778810 -0.626123
vn 0.125611 0.749043 0.650505
vn 0.956293 0.290411 -0.034149
vn -0.695908 -0.717095 -0.038570
vn -0.299993 -0.712926 -0.633831
vn 0.447263 0.620180 0.644463
vn 0.410389 0.501501 0.761628
vn -0.592254 -0.439699 0.675203
vn 0.427753 0.571243 0.700506
vn 0.262979 -0.374568 -0.889124
vn 0.848322 0.117532 -0.516271
vn -0.353971 -0.674666 -0.647712
vn -0.615266 -0.786011 0.060287
vn 0.536224 -0.092869 0.838951
vn -0.755667 -0.647822 -0.096403
vn 0.794972 0.188895 -0.576487
vn 0.248671 -0.380019 -0.890926
vn -0.362540 -0.667519 -0.650372
vn -0.079917 -0.740359 -0.667444
vn -0.610226 -0.791415 0.035876
vn -0.661876 -0.420987 0.620235
vn -0.745665 -0.658712 -0.100407
vn 0.230995 -0.402604 -0.885749
vn -0.328361 -0.710019 -0.622938
vn 0.817259 0.569447 0.088422
vn -0.696245 -0.714553 -0.068242
vn -0.207172 0.141702 0.967988
vn -0.593537 -0.458648 0.661329
vn 0.779482 0.231672 -0.582010
vn 0.241314 -0.412145 -0.878581
vn 0.346172 0.884893 0.311657
vn -0.778226 -0.336489 0.530225
vn -0.119285 -0.724092 -0.679310
vn -0.612997 -0.789979 0.012986
vn -0.666471 -0.430652 0.608569
vn 0.460057 -0.179987 -0.869455
vn 0.630724 0.773942 0.056569
vn -0.302730 -0.781499 -0.545541
vn 0.288855 -0.448683 -0.845722
vn -0.716944 -0.380393 0.584203
vn 0.800754 0.216593 -0.558462
vn -0.777850 -0.367679 0.509669
vn -0.598317 -0.801252 0.003569
vn -0.380475 0.068484 0.922252
vn 0.436606 -0.167275 -0.883965
vn -0.673325 -0.437161 0.596258
vn -0.641924 -0.766693 -0.010777
vn -0.286437 0.126865 0.949663
vn -0.045471 -0.939553 -0.339370
vn 0.804200 0.221578 -0.551512
vn 0.344955 -0.480489 -0.806310
vn -0.166528 -0.702833 -0.691588
vn -0.742030 -0.442562 0.503517
vn -0.150398 0.504437 0.850249
vn 0.578158 0.804076 0.138545
vn 0.810873 0.164964 -0.561491
vn 0.440455 -0.165413 -0.882405
vn -0.262047 0.143261 0.954363
vn -0.216289 -0.965534 0.144786
vn 0.747276 0.653962 0.117954
vn 0.827704 0.119264 -0.548345
vn -0.330012 0.116324 0.936782
vn -0.223789 -0.699758 -0.678422
vn 0.862307 0.034149 -0.505233
vn -0.422332 0.040616 0.905531
vn 0.626120 -0.667597 -0.402851
vn -0.678459 -0.534299 0.504201
vn -0.681389 -0.447591 0.579113
vn 0.780295 0.615681 0.109897
vn 0.904036 0.017420 -0.427101
vn -0.682469 -0.728517 -0.059155
vn -0.360957 0.110449 0.926019
vn 0.418008 -0.196114 -0.887022
vn 0.545822 -0.761846 0.348810
vn -0.255171 -0.692995 -0.674274
vn -0.405089 0.096106 0.909212
vn 0.760070 0.641411 0.104334
vn -0.414594 0.065419 0.907652
vn -0.370582 -0.742830 0.557560
vn 0.966193 -0.128749 -0.223370
vn -0.401179 0.001607 0.915998
vn -0.437883 0.049978 0.897642
vn -0.689934 -0.716965 -0.099757
vn -0.712512 -0.446569 0.541206
vn 0.412764 -0.228014 -0.881836
vn -0.337502 -0.059370 0.939451
vn -0.290631 -0.694756 -0.657911
vn 0.752817 0.649789 0.105075
vn 0.186665 0.868536 0.459131
vn -0.439119 0.045821 0.897260
vn -0.685617 -0.715969 -0.131598
vn 0.386262 -0.256817 -0.885916
vn 0.550608 0.806738 0.214488
vn 0.353465 0.564846 0.745662
vn -0.763516 -0.434629 0.477641
vn -0.324471 -0.685145 -0.652147
vn 0.828179 0.366448 -0.424070
vn 0.683435 0.688611 0.242345
vn 0.762864 0.632022 0.136334
vn 0.129862 -0.412001 0.901882
vn 0.348238 0.585081 0.732401
vn 0.804860 0.362942 -0.469545
vn -0.433074 0.047203 0.900122
vn -0.689227 -0.706313 -0.161519
vn 0.361441 -0.280503 -0.889201
vn -0.780551 -0.446799 0.437162
vn 0.778526 0.612089 0.138723
vn -0.085730 0.553617 0.828347
vn -0.295595 -0.711552 -0.637431
vn 0.795161 0.374613 -0.476848
vn 0.933552 -0.049061 0.355069
vn 0.320429 0.574782 0.752962
vn 0.805724 0.577379 0.132069
vn 0.363719 -0.306662 -0.879583
vn 0.900526 0.335922 0.276061
vn 0.708387 0.490426 0.507613
vn -0.653755 -0.743931 -0.138462
vn -0.789232 -0.467537 0.398148
vn 0.893560 0.384640 0.231521
vn 0.848020 0.505342 0.159662
vn 0.312033 0.572097 0.758512
vn 0.833227 0.488381 0.259263
vn -0.125785 -0.847095 -0.516342
vn 0.799768 0.364153 -0.477245
vn -0.436768 0.062922 0.897371
vn 0.581601 0.088363 0.808661
vn -0.787594 -0.495839 0.365841
vn 0.397500 -0.354707 -0.846273
vn 0.015498 0.495369 0.868545
vn 0.409592 0.333173 0.849252
vn 0.305552 0.572781 0.760632
vn 0.367570 0.401852 0.838693
vn 0.783450 0.605597 0.139493
vn -0.285439 -0.958397 -0.000059
vn 0.315961 0.550902 0.772448
vn 0.829892 0.315804 -0.459943
vn 0.665989 0.693928 0.273720
vn 0.338742 0.483281 0.807275
vn -0.460330 0.055931 0.885984
vn 0.839891 0.282893 -0.463201
vn -0.749764 -0.549420 0.368770
vn 0.468499 -0.687052 -0.555400
vn 0.840956 0.272246 -0.467626
vn 0.034369 0.479655 0.876784
vn -0.479135 0.040967 0.876785
vn 0.849565 0.246991 -0.466084
vn -0.489872 0.029760 0.871286
vn -0.509718 -0.715596 0.477608
vn 0.864971 0.216507 -0.452714
vn 0.437882 0.780651 0.445919
vn 0.049231 0.485000 0.873127
vn -0.485924 -0.017601 0.873824
vn 0.422120 -0.870459 0.253209
vn 0.943526 -0.025470 -0.330317
vn -0.415168 -0.081229 0.906111
vn 0.067893 0.494760 0.866374
vn -0.081624 -0.511689 0.855285
vn 0.578235 0.742335 0.338500
vn 0.625052 0.706266 0.332414
vn 0.100191 0.507916 0.855560
vn 0.642994 0.700907 0.308688
vn 0.655859 0.698717 0.285733
vn 0.134302 0.494723 0.858611
vn 0.161993 0.492334 0.855199
vn 0.686162 0.673589 0.274700
vn 0.936283 0.083614 0.341150
vn 0.743498 0.612320 0.268841
vn 0.192997 0.490717 0.849676
vn 0.769833 0.585511 0.254034
vn 0.787421 0.566956 0.241929
vn 0.466475 0.120678 0.876264
vn 0.812808 0.525700 0.250965
vn 0.827854 0.487548 0.277406
vn 0.245672 0.462081 0.852131
vn 0.338128 0.424266 0.840040
s 1
g L_arm Jake
usemtl lambert2SG
f 4/1/1 2/2/2 1/3/3
f 5/4/4 1/3/3 3/5/5
f 1/3/3 5/4/4 4/1/1
f 2/2/2 4/1/1 7/6/6
f 5/4/4 3/5/5 8/7/7
f 4/8/1 5/9/4 10/10/8
f 4/8/1 10/10/8 11/11/9
f 4/8/1 12/12/10 7/13/6
f 12/12/10 4/8/1 11/11/9
f 13/14/11 2/2/2 7/15/6
f 14/16/12 5/9/4 8/17/7
f 13/14/11 6/18/13 2/2/2
f 5/9/4 14/16/12 10/10/8
f 3/5/5 15/19/14 8/7/7
f 15/19/14 3/5/5 9/20/15
f 16/21/16 7/22/6 12/23/10
f 17/24/17 11/11/9 10/10/8
f 11/11/9 18/25/18 12/12/10
f 7/22/6 16/21/16 13/26/11
f 18/25/18 11/11/9 19/27/19
f 14/16/12 17/24/17 10/10/8
f 11/11/9 17/24/17 19/27/19
f 8/17/7 20/28/20 14/16/12
f 22/29/21 6/18/13 13/14/11
f 15/30/14 20/28/20 8/17/7
f 23/31/22 16/21/16 12/23/10
f 16/21/16 22/32/21 13/26/11
f 23/31/22 12/23/10 18/33/18
f 9/20/15 25/34/23 15/19/14
f 22/29/21 21/35/24 6/18/13
f 17/24/17 14/16/12 26/36/25
f 17/24/17 27/37/26 19/27/19
f 19/27/19 28/38/27 18/25/18
f 25/34/23 9/20/15 24/39/28
f 20/28/20 26/36/25 14/16/12
f 22/32/21 16/21/16 29/40/29
f 23/31/22 29/40/29 16/21/16
f 28/38/27 19/27/19 27/37/26
f 27/37/26 17/24/17 30/41/30
f 30/41/30 17/24/17 26/36/25
f 31/42/31 23/31/22 18/33/18
f 32/43/32 21/35/24 22/29/21
f 15/30/14 33/44/33 20/28/20
f 31/42/31 18/33/18 28/45/27
f 25/46/23 33/44/33 15/30/14
f 35/47/34 25/34/23 24/39/28
f 26/36/25 20/28/20 36/48/35
f 37/49/36 22/32/21 29/40/29
f 29/40/29 23/31/22 38/50/37
f 27/37/26 39/51/38 28/38/27
f 40/52/39 27/37/26 30/41/30
f 26/36/25 41/53/40 30/41/30
f 22/32/21 37/49/36 32/54/32
f 31/42/31 38/50/37 23/31/22
f 42/55/41 21/35/24 32/43/32
f 36/48/35 41/53/40 26/36/25
f 34/56/42 21/35/24 42/55/41
f 39/51/38 27/37/26 40/52/39
f 35/47/34 43/57/43 25/34/23
f 28/45/27 44/58/44 31/42/31
f 43/59/43 33/44/33 25/46/23
f 30/41/30 45/60/45 40/52/39
f 41/53/40 45/60/45 30/41/30
f 44/58/44 28/45/27 39/61/38
f 20/28/20 46/62/46 36/48/35
f 46/62/46 20/28/20 33/44/33
f 47/63/47 29/40/29 38/50/37
f 29/40/29 47/63/47 37/49/36
f 38/50/37 31/42/31 48/64/48
f 50/65/49 43/57/43 35/47/34
f 51/66/50 32/54/32 37/49/36
f 52/67/51 39/51/38 40/52/39
f 41/53/40 36/48/35 53/68/52
f 32/54/32 51/66/50 42/69/41
f 44/58/44 48/64/48 31/42/31
f 45/60/45 54/70/53 40/52/39
f 55/71/54 34/56/42 42/55/41
f 33/44/33 43/59/43 56/72/55
f 45/60/45 41/53/40 57/73/56
f 49/74/57 34/56/42 55/71/54
f 40/52/39 54/70/53 52/67/51
f 50/65/49 58/75/58 43/57/43
f 53/68/52 57/73/56 41/53/40
f 46/62/46 53/68/52 36/48/35
f 56/72/55 46/62/46 33/44/33
f 39/61/38 59/76/59 44/58/44
f 61/77/60 38/50/37 48/64/48
f 58/78/58 56/72/55 43/59/43
f 59/76/59 39/61/38 52/79/51
f 54/70/53 45/60/45 62/80/61
f 38/50/37 61/77/60 47/63/47
f 57/73/56 62/80/61 45/60/45
f 48/64/48 44/58/44 63/81/62
f 64/82/63 50/65/49 60/83/64
f 64/82/63 60/83/64 49/74/57
f 50/65/49 64/82/63 58/75/58
f 55/71/54 64/82/63 49/74/57
f 65/84/65 37/49/36 47/63/47
f 37/49/36 65/84/65 51/66/50
f 42/69/41 66/85/66 55/86/54
f 66/85/66 42/69/41 51/66/50
f 44/58/44 59/76/59 63/81/62
f 54/70/53 67/87/67 52/67/51
f 56/72/55 58/78/58 68/88/68
f 57/73/56 53/68/52 69/89/69
f 53/68/52 46/62/46 70/90/70
f 62/80/61 71/91/71 54/70/53
f 46/62/46 56/72/55 72/92/72
f 55/86/54 73/93/73 64/94/63
f 73/93/73 58/78/58 64/94/63
f 62/80/61 57/73/56 74/95/74
f 67/87/67 54/70/53 71/91/71
f 75/96/75 48/64/48 63/81/62
f 76/97/76 59/76/59 52/79/51
f 73/93/73 55/86/54 66/85/66
f 58/78/58 73/93/73 68/88/68
f 68/88/68 72/92/72 56/72/55
f 48/64/48 75/96/75 61/77/60
f 70/90/70 69/89/69 53/68/52
f 69/89/69 74/95/74 57/73/56
f 70/90/70 46/62/46 72/92/72
f 76/97/76 52/79/51 67/98/67
f 77/99/77 63/81/62 59/76/59
f 51/66/50 78/100/78 66/85/66
f 79/101/79 47/63/47 61/77/60
f 71/91/71 62/80/61 80/102/80
f 78/100/78 51/66/50 65/84/65
f 47/63/47 79/101/79 65/84/65
f 74/95/74 80/102/80 62/80/61
f 76/97/76 77/99/77 59/76/59
f 72/92/72 68/88/68 81/103/81
f 66/85/66 82/104/82 73/93/73
f 82/104/82 68/88/68 73/93/73
f 83/105/83 67/87/67 71/91/71
f 72/92/72 84/106/84 70/90/70
f 80/102/80 85/107/85 71/91/71
f 69/89/69 70/90/70 86/108/86
f 74/95/74 69/89/69 87/109/87
f 63/81/62 77/99/77 88/110/88
f 82/104/82 66/85/66 78/100/78
f 68/88/68 82/104/82 81/103/81
f 88/110/88 75/96/75 63/81/62
f 80/102/80 74/95/74 89/111/89
f 90/112/90 76/97/76 67/98/67
f 81/103/81 84/106/84 72/92/72
f 71/91/71 85/107/85 83/105/83
f 77/99/77 76/97/76 91/113/91
f 92/114/92 61/77/60 75/96/75
f 65/84/65 93/115/93 78/100/78
f 61/77/60 92/114/92 79/101/79
f 93/115/93 65/84/65 79/101/79
f 84/106/84 86/108/86 70/90/70
f 67/98/67 83/116/83 90/112/90
f 87/109/87 89/111/89 74/95/74
f 85/107/85 80/102/80 94/117/94
f 90/112/90 91/113/91 76/97/76
f 94/117/94 80/102/80 89/111/89
f 78/100/78 95/118/95 82/104/82
f 84/106/84 81/103/81 96/119/96
f 86/108/86 97/120/97 69/89/69
f 69/89/69 97/120/97 87/109/87
f 95/118/95 81/103/81 82/104/82
f 98/121/98 77/99/77 91/113/91
f 95/118/95 78/100/78 93/115/93
f 77/99/77 98/121/98 88/110/88
f 81/103/81 95/118/95 96/119/96
f 85/107/85 99/122/99 83/105/83
f 86/108/86 84/106/84 100/123/100
f 89/111/89 87/109/87 101/124/101
f 102/125/102 75/96/75 88/110/88
f 99/126/99 90/112/90 83/116/83
f 79/101/79 103/127/103 93/115/93
f 94/117/94 104/128/104 85/107/85
f 96/119/96 100/123/100 84/106/84
f 75/96/75 102/125/102 92/114/92
f 91/113/91 90/112/90 105/129/105
f 103/127/103 79/101/79 92/114/92
f 89/111/89 106/130/106 94/117/94
f 100/123/100 97/120/97 86/108/86
f 99/122/99 85/107/85 104/128/104
f 93/115/93 107/131/107 95/118/95
f 107/131/107 96/119/96 95/118/95
f 90/112/90 108/132/108 105/129/105
f 90/112/90 99/126/99 108/132/108
f 96/119/96 109/133/109 100/123/100
f 104/128/104 94/117/94 110/134/110
f 106/130/106 110/134/110 94/117/94
f 107/131/107 93/115/93 103/127/103
f 111/135/111 91/113/91 105/129/105
f 87/109/87 112/136/112 101/124/101
f 112/136/112 87/109/87 97/120/97
f 91/113/91 111/135/111 98/121/98
f 113/137/113 89/111/89 101/124/101
f 89/111/89 113/137/113 106/130/106
f 96/119/96 107/131/107 109/133/109
f 114/138/114 88/110/88 98/121/98
f 92/114/92 115/139/115 103/127/103
f 88/110/88 114/138/114 102/125/102
f 100/123/100 116/140/116 97/120/97
f 115/139/115 92/114/92 102/125/102
f 109/133/109 116/140/116 100/123/100
f 104/128/104 117/141/117 99/122/99
f 118/142/118 105/129/105 108/132/108
f 115/139/115 107/131/107 103/127/103
f 99/126/99 117/143/117 108/132/108
f 110/134/110 106/130/106 119/144/119
f 120/145/120 104/128/104 110/134/110
f 116/140/116 112/136/112 97/120/97
f 107/131/107 121/146/121 109/133/109
f 116/140/116 109/133/109 122/147/122
f 117/141/117 104/128/104 120/145/120
f 123/148/123 111/135/111 105/129/105
f 105/129/105 118/142/118 123/148/123
f 124/149/124 98/121/98 111/135/111
f 107/131/107 115/139/115 121/146/121
f 125/150/125 101/124/101 112/136/112
f 126/151/126 118/142/118 108/132/108
f 101/124/101 125/150/125 113/137/113
f 98/121/98 124/149/124 114/138/114
f 122/147/122 109/133/109 121/146/121
f 127/152/127 115/139/115 102/125/102
f 102/125/102 114/138/114 127/152/127
f 113/137/113 128/153/128 106/130/106
f 108/132/108 117/143/117 126/151/126
f 106/130/106 128/153/128 119/144/119
f 110/134/110 129/154/129 120/145/120
f 112/136/112 116/140/116 130/155/130
f 122/147/122 130/155/130 116/140/116
f 119/144/119 131/156/131 110/134/110
f 127/152/127 121/146/121 115/139/115
f 110/134/110 131/156/131 129/154/129
f 130/155/130 125/150/125 112/136/112
f 118/142/118 126/151/126 132/157/132
f 133/158/133 122/147/122 121/146/121
f 120/145/120 134/159/134 117/141/117
f 122/147/122 135/160/135 130/155/130
f 133/158/133 121/146/121 127/152/127
f 111/135/111 123/148/123 136/161/136
f 114/138/114 137/162/137 127/152/127
f 134/163/134 126/151/126 117/143/117
f 136/161/136 124/149/124 111/135/111
f 137/162/137 114/138/114 124/149/124
f 138/164/138 120/145/120 129/154/129
f 122/147/122 133/158/133 135/160/135
f 118/142/118 139/165/139 123/148/123
f 140/166/140 113/137/113 125/150/125
f 113/137/113 140/166/140 128/153/128
f 139/165/139 118/142/118 132/157/132
f 130/155/130 141/167/141 125/150/125
f 142/168/142 119/144/119 128/153/128
f 134/159/134 120/145/120 138/164/138
f 135/160/135 141/167/141 130/155/130
f 137/162/137 133/158/133 127/152/127
f 126/151/126 143/169/143 132/157/132
f 119/144/119 142/168/142 131/156/131
f 131/156/131 144/170/144 129/154/129
f 126/151/126 134/163/134 143/169/143
f 129/154/129 144/170/144 138/164/138
f 145/171/145 135/160/135 133/158/133
f 141/167/141 140/166/140 125/150/125
f 133/158/133 137/162/137 145/171/145
f 141/167/141 135/160/135 146/172/146
f 124/149/124 147/173/147 137/162/137
f 147/173/147 124/149/124 136/161/136
f 123/148/123 148/174/148 136/161/136
f 135/160/135 145/171/145 146/172/146
f 148/174/148 123/148/123 139/165/139
f 132/157/132 143/169/143 149/175/149
f 138/176/138 150/177/150 134/178/134
f 144/170/144 131/156/131 151/179/151
f 152/180/152 128/153/128 140/166/140
f 147/173/147 145/171/145 137/162/137
f 132/157/132 153/181/153 139/165/139
f 141/167/141 154/182/154 140/166/140
f 144/183/144 155/184/155 138/176/138
f 146/172/146 154/182/154 141/167/141
f 128/153/128 152/180/152 142/168/142
f 134/178/134 156/185/156 143/186/143
f 153/181/153 132/157/132 149/175/149
f 150/177/150 138/176/138 155/184/155
f 157/187/157 146/172/146 145/171/145
f 142/168/142 158/188/158 131/156/131
f 156/185/156 134/178/134 150/177/150
f 145/171/145 147/173/147 157/187/157
f 155/184/155 144/183/144 159/189/159
f 160/190/160 149/191/149 143/186/143
f 154/182/154 152/180/152 140/166/140
f 131/156/131 158/188/158 151/179/151
f 159/192/159 144/193/144 151/194/151
f 154/182/154 146/172/146 161/195/161
f 136/161/136 162/196/162 147/173/147
f 146/172/146 157/187/157 161/195/161
f 162/196/162 136/161/136 148/174/148
f 160/190/160 143/186/143 156/185/156
f 155/184/155 163/197/163 150/177/150
f 139/165/139 164/198/164 148/174/148
f 159/189/159 165/199/165 155/184/155
f 162/196/162 157/187/157 147/173/147
f 156/185/156 150/177/150 163/197/163
f 149/191/149 160/190/160 166/200/166
f 164/198/164 139/165/139 153/181/153
f 163/197/163 155/184/155 165/199/165
f 167/201/167 154/182/154 161/195/161
f 151/194/151 168/202/168 159/192/159
f 169/203/169 153/204/153 149/191/149
f 152/180/152 154/182/154 167/201/167
f 169/203/169 149/191/149 166/200/166
f 170/205/170 142/168/142 152/180/152
f 157/187/157 171/206/171 161/195/161
f 156/185/156 163/197/163 172/207/172
f 159/189/159 173/208/173 165/199/165
f 156/185/156 174/209/174 160/190/160
f 142/168/142 170/205/170 158/188/158
f 168/202/168 173/210/173 159/192/159
f 157/187/157 162/196/162 171/206/171
f 174/209/174 156/185/156 172/207/172
f 165/199/165 175/211/175 163/197/163
f 160/190/160 176/212/176 166/200/166
f 161/195/161 177/213/177 167/201/167
f 173/208/173 178/214/178 165/199/165
f 179/215/179 151/194/151 158/216/158
f 175/211/175 172/207/172 163/197/163
f 151/194/151 179/215/179 168/202/168
f 175/211/175 165/199/165 178/214/178
f 161/195/161 171/206/171 177/213/177
f 174/209/174 176/212/176 160/190/160
f 153/204/153 169/203/169 180/217/180
f 148/174/148 181/218/181 162/196/162
f 167/201/167 170/205/170 152/180/152
f 166/200/166 182/219/182 169/203/169
f 173/208/173 183/220/183 178/214/178
f 181/218/181 148/174/148 164/198/164
f 173/210/173 168/202/168 184/221/184
f 172/207/172 175/211/175 185/222/185
f 185/222/185 174/209/174 172/207/172
f 166/200/166 176/212/176 182/219/182
f 186/223/186 175/211/175 178/214/178
f 153/204/153 187/224/187 164/225/164
f 169/203/169 188/226/188 180/217/180
f 153/204/153 180/217/180 187/224/187
f 183/220/183 186/223/186 178/214/178
f 184/221/184 183/227/183 173/210/173
f 181/218/181 171/206/171 162/196/162
f 176/212/176 174/209/174 189/228/189
f 185/222/185 175/211/175 190/229/190
f 175/211/175 186/223/186 190/229/190
f 191/230/191 188/226/188 192/231/192
f 188/226/188 191/230/191 180/217/180
f 170/232/170 179/215/179 158/216/158
f 174/209/174 185/222/185 189/228/189
f 177/213/177 193/233/193 167/201/167
f 194/234/194 188/226/188 169/203/169
f 186/223/186 183/220/183 195/235/195
f 192/231/192 196/236/196 191/230/191
f 188/226/188 197/237/197 192/231/192
f 170/205/170 167/201/167 193/233/193
f 196/236/196 192/231/192 198/238/198
f 169/203/169 182/219/182 194/234/194
f 168/202/168 199/239/199 184/221/184
f 200/240/200 177/213/177 171/206/171
f 190/229/190 186/223/186 201/241/201
f 191/230/191 202/242/202 180/217/180
f 192/231/192 203/243/203 198/238/198
f 183/227/183 184/221/184 204/244/204
f 185/222/185 190/229/190 205/245/205
f 199/239/199 168/202/168 179/215/179
f 195/235/195 201/241/201 186/223/186
f 176/212/176 206/246/206 182/219/182
f 204/244/204 195/247/195 183/227/183
f 205/245/205 189/228/189 185/222/185
f 189/228/189 206/246/206 176/212/176
f 198/238/198 207/248/207 196/236/196
f 192/231/192 197/237/197 203/243/203
f 188/226/188 194/234/194 197/237/197
f 198/238/198 208/249/208 209/250/209
f 207/248/207 198/238/198 209/250/209
f 190/229/190 201/241/201 210/251/210
f 180/217/180 202/242/202 187/224/187
f 196/236/196 211/252/211 191/230/191
f 198/238/198 203/243/203 208/249/208
f 205/245/205 190/229/190 210/251/210
f 200/240/200 171/206/171 181/218/181
f 201/241/201 195/235/195 212/253/212
f 179/215/179 170/232/170 213/254/213
f 191/230/191 211/252/211 202/242/202
f 214/255/214 164/256/164 187/257/187
f 215/258/215 209/250/209 208/249/208
f 193/233/193 177/213/177 216/259/216
f 217/260/217 210/251/210 201/241/201
f 164/256/164 214/255/214 181/261/181
f 209/250/209 218/262/218 219/263/219
f 220/264/220 207/248/207 209/250/209
f 212/253/212 217/260/217 201/241/201
f 209/250/209 219/263/219 220/264/220
f 218/262/218 209/250/209 215/258/215
f 195/247/195 204/244/204 221/265/221
f 189/228/189 205/245/205 222/266/222
f 177/213/177 200/240/200 216/259/216
f 210/251/210 217/260/217 223/267/223
f 221/265/221 212/268/212 195/247/195
f 193/269/193 213/254/213 170/232/170
f 224/270/224 196/236/196 207/248/207
f 184/221/184 225/271/225 204/244/204
f 189/228/189 222/266/222 206/246/206
f 223/267/223 217/260/217 226/272/226
f 219/263/219 227/273/227 220/264/220
f 217/260/217 212/253/212 228/274/228
f 229/275/229 219/263/219 218/262/218
f 219/263/219 229/275/229 227/273/227
f 182/219/182 230/276/230 194/234/194
f 228/274/228 226/272/226 217/260/217
f 205/245/205 210/251/210 231/277/231
f 182/219/182 206/246/206 230/276/230
f 196/236/196 224/270/224 211/252/211
f 213/254/213 199/239/199 179/215/179
f 225/271/225 184/221/184 199/239/199
f 223/267/223 226/272/226 232/278/232
f 223/267/223 231/277/231 210/251/210
f 233/279/233 208/249/208 203/243/203
f 227/273/227 234/280/234 220/264/220
f 235/281/235 187/257/187 202/282/202
f 236/283/236 203/243/203 197/237/197
f 233/279/233 215/258/215 208/249/208
f 207/248/207 220/264/220 237/284/237
f 238/285/238 227/273/227 229/275/229
f 226/272/226 228/274/228 239/286/239
f 226/272/226 240/287/240 232/278/232
f 241/288/241 234/280/234 227/273/227
f 227/273/227 238/285/238 241/288/241
f 242/289/242 218/262/218 215/258/215
f 243/290/243 222/266/222 205/245/205
f 239/286/239 240/287/240 226/272/226
f 212/268/212 221/265/221 244/291/244
f 245/292/245 223/267/223 232/278/232
f 246/293/246 197/237/197 194/234/194
f 212/268/212 247/294/247 228/295/228
f 237/284/237 224/270/224 207/248/207
f 205/245/205 231/277/231 243/290/243
f 248/296/248 229/275/229 218/262/218
f 232/278/232 240/287/240 249/297/249
f 231/277/231 223/267/223 245/292/245
f 187/257/187 235/281/235 214/255/214
f 234/280/234 241/288/241 250/298/250
f 251/299/251 202/282/202 211/300/211
f 252/301/252 241/288/241 238/285/238
f 204/244/204 253/302/253 221/265/221
f 240/287/240 239/286/239 254/303/254
f 255/304/255 249/297/249 240/287/240
f 256/305/256 220/264/220 234/280/234
f 257/306/257 250/298/250 241/288/241
f 241/288/241 252/301/252 257/306/257
f 216/307/216 258/308/258 193/269/193
f 206/246/206 222/266/222 259/309/259
f 254/303/254 255/304/255 240/287/240
f 260/310/260 238/285/238 229/275/229
f 213/254/213 193/269/193 258/308/258
f 247/294/247 212/268/212 244/291/244
f 261/311/261 200/312/200 181/261/181
f 228/295/228 262/313/262 239/314/239
f 215/258/215 233/279/233 242/289/242
f 203/243/203 236/283/236 233/279/233
f 249/297/249 255/304/255 263/315/263
f 218/262/218 242/289/242 248/296/248
f 263/315/263 255/304/255 264/316/264
f 265/317/265 264/316/264 255/304/255
f 220/264/220 256/305/256 237/284/237
f 266/318/266 232/278/232 249/297/249
f 265/317/265 255/304/255 254/303/254
f 253/302/253 204/244/204 225/271/225
f 245/292/245 232/278/232 267/319/267
f 181/261/181 214/255/214 261/311/261
f 229/275/229 248/296/248 268/320/268
f 269/321/269 270/322/270 264/316/264
f 194/234/194 230/276/230 271/323/271
f 206/246/206 259/309/259 230/276/230
f 272/324/272 257/306/257 252/301/252
f 273/325/273 264/316/264 270/322/270
f 202/282/202 251/299/251 235/281/235
f 229/275/229 268/320/268 260/310/260
f 250/298/250 257/306/257 274/326/274
f 222/266/222 243/290/243 275/327/275
f 264/316/264 265/317/265 269/321/269
f 263/315/263 264/316/264 273/325/273
f 270/322/270 276/328/276 277/329/277
f 278/330/278 252/301/252 238/285/238
f 279/331/279 276/328/276 270/322/270
f 197/237/197 246/293/246 236/283/236
f 280/332/280 234/280/234 250/298/250
f 262/313/262 228/295/228 247/294/247
f 281/333/281 211/300/211 224/334/224
f 257/306/257 272/324/272 282/335/282
f 273/325/273 270/322/270 277/329/277
f 279/331/279 270/322/270 269/321/269
f 199/239/199 213/254/213 283/336/283
f 282/335/282 274/326/274 257/306/257
f 232/278/232 266/318/266 267/319/267
f 276/328/276 284/337/284 285/338/285
f 286/339/286 284/337/284 276/328/276
f 277/329/277 276/328/276 285/338/285
f 287/340/287 254/341/254 239/314/239
f 276/328/276 279/331/279 286/339/286
f 222/266/222 275/327/275 259/309/259
f 249/297/249 263/315/263 288/342/288
f 238/285/238 260/310/260 278/330/278
f 278/330/278 272/324/272 252/301/252
f 285/338/285 284/337/284 289/343/289
f 199/239/199 290/344/290 225/271/225
f 234/280/234 280/332/280 256/305/256
f 291/345/291 216/307/216 200/312/200
f 292/346/292 284/337/284 286/339/286
f 274/326/274 280/332/280 250/298/250
f 221/265/221 293/347/293 244/291/244
f 274/326/274 282/335/282 294/348/294
f 284/337/284 295/349/295 289/343/289
f 296/350/296 263/315/263 273/325/273
f 292/346/292 295/349/295 284/337/284
f 254/341/254 297/351/297 265/352/265
f 298/353/298 273/325/273 277/329/277
f 266/318/266 249/297/249 288/342/288
f 262/313/262 287/340/287 239/314/239
f 299/354/299 277/329/277 285/338/285
f 265/352/265 300/355/300 269/356/269
f 211/300/211 281/333/281 251/299/251
f 275/327/275 243/290/243 301/357/301
f 224/334/224 237/358/237 302/359/302
f 271/323/271 303/360/303 194/234/194
f 194/234/194 303/360/303 246/293/246
f 304/361/304 231/277/231 245/292/245
f 305/362/305 301/357/301 243/290/243
f 272/324/272 306/363/306 282/335/282
f 269/356/269 307/364/307 279/365/279
f 308/366/308 285/338/285 289/343/289
f 289/343/289 295/349/295 309/367/309
f 283/336/283 213/254/213 258/308/258
f 263/315/263 296/350/296 288/342/288
f 243/290/243 231/277/231 310/368/310
f 272/324/272 278/330/278 311/369/311
f 312/370/312 295/349/295 292/346/292
f 273/325/273 298/353/298 296/350/296
f 279/365/279 313/371/313 286/372/286
f 277/329/277 299/354/299 298/353/298
f 282/335/282 306/363/306 294/348/294
f 293/347/293 221/265/221 253/302/253
f 314/373/314 274/326/274 294/348/294
f 283/336/283 290/344/290 199/239/199
f 312/370/312 309/367/309 295/349/295
f 285/338/285 308/366/308 299/354/299
f 297/351/297 254/341/254 287/340/287
f 315/374/315 214/255/214 235/281/235
f 286/372/286 316/375/316 292/376/292
f 289/343/289 309/367/309 308/366/308
f 280/332/280 274/326/274 317/377/317
f 216/307/216 291/345/291 258/308/258
f 267/319/267 318/378/318 245/292/245
f 306/363/306 272/324/272 311/369/311
f 244/291/244 319/379/319 247/294/247
f 300/355/300 265/352/265 297/351/297
f 320/380/320 237/358/237 256/381/256
f 230/276/230 259/309/259 321/382/321
f 301/357/301 305/362/305 322/383/322
f 225/271/225 290/344/290 253/302/253
f 243/290/243 310/368/310 305/362/305
f 274/326/274 314/373/314 317/377/317
f 307/364/307 269/356/269 300/355/300
f 224/334/224 302/359/302 281/333/281
f 230/276/230 321/382/321 271/323/271
f 200/312/200 261/311/261 323/384/323
f 248/385/248 324/386/324 268/387/268
f 260/388/260 268/387/268 325/389/325
f 326/390/326 322/383/322 305/362/305
f 292/376/292 327/391/327 312/392/312
f 313/371/313 279/365/279 307/364/307
f 328/393/328 248/385/248 242/394/242
f 294/348/294 306/363/306 314/373/314
f 308/366/308 309/367/309 329/395/329
f 316/375/316 286/372/286 313/371/313
f 330/396/330 259/309/259 275/327/275
f 301/357/301 330/396/330 275/327/275
f 331/397/331 267/319/267 266/318/266
f 309/367/309 312/370/312 332/398/332
f 325/389/325 278/399/278 260/388/260
f 333/400/333 242/394/242 233/401/233
f 214/255/214 315/374/315 261/311/261
f 315/374/315 235/281/235 251/299/251
f 200/312/200 323/384/323 291/345/291
f 247/294/247 334/402/334 262/313/262
f 280/403/280 335/404/335 256/381/256
f 310/368/310 231/277/231 304/361/304
f 327/391/327 292/376/292 316/375/316
f 309/367/309 332/398/332 329/395/329
f 237/358/237 320/380/320 302/359/302
f 336/405/336 266/318/266 288/342/288
f 337/406/337 298/353/298 299/354/299
f 338/407/338 296/350/296 298/353/298
f 339/408/339 288/342/288 296/350/296
f 245/292/245 318/378/318 304/361/304
f 340/409/340 311/410/311 278/399/278
f 305/362/305 341/411/341 326/390/326
f 342/412/342 299/354/299 308/366/308
f 343/413/343 233/401/233 236/414/236
f 319/379/319 244/291/244 293/347/293
f 332/415/332 312/392/312 327/391/327
f 329/395/329 342/412/342 308/366/308
f 344/416/344 306/417/306 311/410/311
f 317/418/317 345/419/345 280/403/280
f 326/390/326 346/420/346 322/383/322
f 322/383/322 347/421/347 301/357/301
f 318/378/318 267/319/267 348/422/348
f 256/381/256 335/404/335 320/380/320
f 262/313/262 349/423/349 287/340/287
f 350/424/350 321/382/321 259/309/259
f 267/319/267 331/397/331 348/422/348
f 268/387/268 324/386/324 325/389/325
f 246/425/246 351/426/351 236/414/236
f 352/427/352 251/299/251 281/333/281
f 317/418/317 314/428/314 353/429/353
f 341/411/341 305/362/305 310/368/310
f 334/402/334 247/294/247 319/379/319
f 329/395/329 332/398/332 354/430/354
f 306/417/306 353/429/353 314/428/314
f 299/354/299 342/412/342 337/406/337
f 298/353/298 337/406/337 338/407/338
f 346/420/346 326/390/326 355/431/355
f 259/309/259 330/396/330 350/424/350
f 296/350/296 338/407/338 339/408/339
f 278/399/278 325/389/325 340/409/340
f 324/386/324 248/385/248 328/393/328
f 266/318/266 336/405/336 331/397/331
f 288/342/288 339/408/339 336/405/336
f 311/410/311 340/409/340 344/416/344
f 330/396/330 301/357/301 347/421/347
f 280/403/280 345/419/345 335/404/335
f 258/308/258 356/432/356 283/336/283
f 357/433/357 355/431/355 326/390/326
f 242/394/242 333/400/333 328/393/328
f 342/412/342 329/395/329 354/430/354
f 287/340/287 358/434/358 297/351/297
f 251/299/251 352/427/352 315/374/315
f 290/344/290 359/435/359 253/302/253
f 327/391/327 360/436/360 332/415/332
f 297/351/297 361/437/361 300/355/300
f 313/371/313 362/438/362 316/375/316
f 300/355/300 363/439/363 307/364/307
f 357/433/357 326/390/326 341/411/341
f 307/364/307 364/440/364 313/371/313
f 302/359/302 365/441/365 281/333/281
f 316/375/316 362/438/362 327/391/327
f 317/418/317 353/429/353 345/419/345
f 233/401/233 343/413/343 333/400/333
f 271/323/271 321/382/321 366/442/366
f 253/302/253 359/435/359 293/347/293
f 262/313/262 334/402/334 349/423/349
f 306/417/306 344/416/344 367/443/367
f 290/344/290 283/336/283 368/444/368
f 303/360/303 271/323/271 369/445/369
f 360/436/360 354/446/354 332/415/332
f 258/308/258 291/345/291 356/432/356
f 306/417/306 367/443/367 353/429/353
f 370/447/370 322/383/322 346/420/346
f 320/380/320 371/448/371 302/359/302
f 355/431/355 372/449/372 346/420/346
f 281/333/281 365/441/365 352/427/352
f 373/450/373 246/425/246 303/451/303
f 347/421/347 322/383/322 370/447/370
f 236/414/236 351/426/351 343/413/343
f 372/449/372 355/431/355 374/452/374
f 362/438/362 360/436/360 327/391/327
f 321/382/321 350/424/350 375/453/375
f 358/434/358 287/340/287 349/423/349
f 376/454/376 342/455/342 354/446/354
f 377/456/377 374/452/374 355/431/355
f 378/457/378 320/380/320 335/404/335
f 302/359/302 371/448/371 365/441/365
f 362/438/362 313/371/313 364/440/364
f 379/458/379 304/459/304 318/460/318
f 293/347/293 380/461/380 319/379/319
f 373/450/373 261/311/261 315/374/315
f 369/445/369 271/323/271 366/442/366
f 381/462/381 337/463/337 342/455/342
f 355/431/355 357/433/357 377/456/377
f 367/443/367 345/419/345 353/429/353
f 354/446/354 360/436/360 376/454/376
f 361/437/361 297/351/297 358/434/358
f 364/440/364 307/364/307 363/439/363
f 382/464/382 338/465/338 337/463/337
f 363/439/363 300/355/300 361/437/361
f 340/409/340 325/389/325 378/457/378
f 383/466/383 344/416/344 340/409/340
f 290/344/290 368/444/368 359/435/359
f 384/467/384 318/460/318 348/468/348
f 383/466/383 335/404/335 345/419/345
f 351/426/351 315/374/315 352/427/352
f 246/425/246 373/450/373 351/426/351
f 324/386/324 378/457/378 325/389/325
f 371/448/371 320/380/320 385/469/385
f 356/432/356 368/444/368 283/336/283
f 338/465/338 386/470/386 339/471/339
f 387/472/387 375/453/375 350/424/350
f 261/311/261 388/473/388 323/384/323
f 375/453/375 366/442/366 321/382/321
f 389/474/389 310/475/310 304/459/304
f 319/379/319 379/458/379 334/402/334
f 344/416/344 383/466/383 367/443/367
f 372/449/372 374/452/374 390/476/390
f 328/393/328 385/469/385 324/386/324
f 320/380/320 378/457/378 385/469/385
f 343/413/343 352/427/352 365/441/365
f 328/393/328 333/400/333 371/448/371
f 359/435/359 380/461/380 293/347/293
f 374/452/374 391/477/391 390/476/390
f 362/438/362 376/454/376 360/436/360
f 392/478/392 348/468/348 331/479/331
f 339/471/339 393/480/393 336/481/336
f 345/419/345 367/443/367 383/466/383
f 342/455/342 376/454/376 381/462/381
f 333/400/333 365/441/365 371/448/371
f 365/441/365 333/400/333 343/413/343
f 346/420/346 372/449/372 394/482/394
f 385/469/385 328/393/328 371/448/371
f 395/483/395 331/479/331 336/481/336
f 396/484/396 391/477/391 374/452/374
f 335/404/335 383/466/383 378/457/378
f 304/459/304 379/458/379 380/461/380
f 378/457/378 324/386/324 385/469/385
f 340/409/340 378/457/378 383/466/383
f 352/427/352 343/413/343 351/426/351
f 310/475/310 397/485/397 341/486/341
f 337/463/337 381/462/381 382/464/382
f 388/473/388 291/345/291 323/384/323
f 374/452/374 377/456/377 396/484/396
f 379/458/379 319/379/319 380/461/380
f 394/482/394 370/447/370 346/420/346
f 318/460/318 384/467/384 379/458/379
f 384/467/384 349/423/349 334/402/334
f 398/487/398 390/476/390 391/477/391
f 376/454/376 362/438/362 381/462/381
f 375/453/375 387/472/387 399/488/399
f 315/374/315 351/426/351 373/450/373
f 338/465/338 382/464/382 386/470/386
f 304/459/304 380/461/380 389/474/389
f 400/489/400 350/424/350 330/396/330
f 384/467/384 334/402/334 379/458/379
f 364/440/364 382/464/382 362/438/362
f 348/468/348 392/478/392 384/467/384
f 390/476/390 398/487/398 401/490/401
f 341/486/341 402/491/402 357/492/357
f 382/464/382 381/462/381 362/438/362
f 403/493/403 398/487/398 391/477/391
f 404/494/404 401/490/401 398/487/398
f 339/471/339 386/470/386 393/480/393
f 347/421/347 400/489/400 330/396/330
f 261/311/261 373/450/373 388/473/388
f 369/495/369 388/473/388 303/451/303
f 405/496/405 406/497/406 387/472/387
f 349/423/349 392/478/392 358/434/358
f 390/476/390 407/498/407 372/449/372
f 399/488/399 387/472/387 406/497/406
f 331/479/331 395/483/395 392/478/392
f 403/493/403 391/477/391 396/484/396
f 336/481/336 393/480/393 395/483/395
f 363/439/363 386/470/386 364/440/364
f 350/424/350 400/489/400 387/472/387
f 401/490/401 404/494/404 408/499/408
f 349/423/349 384/467/384 392/478/392
f 382/464/382 364/440/364 386/470/386
f 361/437/361 393/480/393 363/439/363
f 303/451/303 388/473/388 373/450/373
f 409/500/409 404/494/404 398/487/398
f 358/434/358 395/483/395 361/437/361
f 410/501/410 408/499/408 404/494/404
f 380/461/380 359/435/359 411/502/411
f 368/444/368 411/502/411 359/435/359
f 310/475/310 389/474/389 397/485/397
f 394/482/394 372/449/372 407/498/407
f 386/470/386 363/439/363 393/480/393
f 398/487/398 403/493/403 409/500/409
f 395/483/395 358/434/358 392/478/392
f 408/499/408 410/501/410 412/503/412
f 370/447/370 413/504/413 347/421/347
f 366/442/366 375/453/375 414/505/414
f 357/492/357 415/506/415 377/507/377
f 393/480/393 361/437/361 395/483/395
f 416/508/416 410/501/410 404/494/404
f 291/345/291 417/509/417 356/432/356
f 418/510/418 390/476/390 401/490/401
f 419/511/419 420/512/420 405/496/405
f 406/497/406 405/496/405 420/512/420
f 399/488/399 421/513/421 375/453/375
f 387/472/387 422/514/422 405/496/405
f 356/432/356 423/515/423 368/444/368
f 416/508/416 404/494/404 409/500/409
f 424/516/424 412/503/412 410/501/410
f 401/490/401 408/499/408 418/510/418
f 402/491/402 341/486/341 397/485/397
f 411/502/411 389/474/389 380/461/380
f 425/517/425 424/516/424 410/501/410
f 407/498/407 390/476/390 426/518/426
f 425/517/425 410/501/410 416/508/416
f 377/507/377 427/519/427 396/520/396
f 408/499/408 412/503/412 428/521/428
f 412/503/412 424/516/424 429/522/429
f 368/444/368 423/515/423 411/502/411
f 430/523/430 369/445/369 366/442/366
f 291/345/291 388/473/388 417/509/417
f 405/496/405 431/524/431 419/511/419
f 390/476/390 418/510/418 426/518/426
f 406/497/406 432/525/432 399/488/399
f 414/505/414 375/453/375 421/513/421
f 402/491/402 415/506/415 357/492/357
f 420/512/420 419/511/419 433/526/433
f 434/527/434 370/447/370 394/482/394
f 418/510/418 408/499/408 428/521/428
f 424/516/424 435/528/435 429/522/429
f 396/520/396 436/529/436 403/530/403
f 437/531/437 424/516/424 425/517/425
f 400/489/400 347/421/347 413/504/413
f 422/514/422 387/472/387 400/489/400
f 419/511/419 438/532/438 433/526/433
f 412/503/412 429/522/429 439/533/439
f 420/512/420 432/525/432 406/497/406
f 437/531/437 435/528/435 424/516/424
f 428/521/428 412/503/412 439/533/439
f 388/473/388 369/495/369 440/534/440
f 356/432/356 441/535/441 423/515/423
f 403/530/403 442/536/442 409/537/409
f 421/513/421 399/488/399 432/525/432
f 443/538/443 438/532/438 419/511/419
f 431/524/431 405/496/405 422/514/422
f 413/504/413 370/447/370 444/539/444
f 427/519/427 377/507/377 415/506/415
f 429/522/429 435/528/435 445/540/445
f 446/541/446 389/474/389 411/502/411
f 409/537/409 447/542/447 416/543/416
f 448/544/448 394/482/394 407/498/407
f 449/545/449 433/526/433 438/532/438
f 416/543/416 450/546/450 425/547/425
f 356/432/356 417/509/417 441/535/441
f 451/548/451 366/442/366 414/505/414
f 452/549/452 435/528/435 437/531/437
f 440/534/440 369/495/369 430/550/430
f 439/533/439 429/522/429 453/551/453
f 370/447/370 434/527/434 444/539/444
f 423/515/423 446/541/446 411/502/411
f 443/538/443 419/511/419 431/524/431
f 433/526/433 454/552/454 420/512/420
f 445/540/445 453/551/453 429/522/429
f 436/529/436 396/520/396 427/519/427
f 389/474/389 455/553/455 397/485/397
f 425/547/425 456/554/456 437/555/437
f 432/525/432 420/512/420 454/552/454
f 433/526/433 449/545/449 457/556/457
f 458/557/458 407/498/407 426/518/426
f 442/536/442 403/530/403 436/529/436
f 366/442/366 451/548/451 430/523/430
f 459/558/459 449/545/449 438/532/438
f 445/540/445 435/528/435 460/559/460
f 461/560/461 457/556/457 449/545/449
f 462/561/462 426/518/426 418/510/418
f 435/528/435 452/549/452 460/559/460
f 447/542/447 409/537/409 442/536/442
f 397/485/397 463/562/463 402/491/402
f 464/563/464 418/510/418 428/521/428
f 423/515/423 441/535/441 446/541/446
f 453/551/453 445/540/445 465/564/465
f 437/555/437 466/565/466 452/566/452
f 394/482/394 448/544/448 434/527/434
f 459/558/459 438/532/438 443/538/443
f 450/546/450 416/543/416 447/542/447
f 389/474/389 446/541/446 455/553/455
f 467/567/467 428/521/428 439/533/439
f 456/554/456 425/547/425 450/546/450
f 468/568/468 414/505/414 421/513/421
f 457/556/457 461/560/461 469/569/469
f 433/526/433 457/556/457 470/570/470
f 471/571/471 461/560/461 449/545/449
f 472/572/472 439/533/439 453/551/453
f 445/540/445 460/559/460 465/564/465
f 466/565/466 437/555/437 456/554/456
f 473/573/473 469/569/469 461/560/461
f 454/552/454 433/526/433 470/570/470
f 407/498/407 458/557/458 448/544/448
f 402/491/402 474/574/474 415/506/415
f 417/509/417 388/473/388 475/575/475
f 463/562/463 397/485/397 455/553/455
f 449/545/449 459/558/459 471/571/471
f 460/576/460 452/566/452 466/565/466
f 475/575/475 388/473/388 440/534/440
f 465/564/465 472/572/472 453/551/453
f 476/577/476 421/513/421 432/525/432
f 469/569/469 473/573/473 477/578/477
f 426/518/426 462/561/462 458/557/458
f 478/579/478 473/573/473 461/560/461
f 418/510/418 464/563/464 462/561/462
f 417/509/417 479/580/479 441/535/441
f 480/581/480 400/582/400 413/583/413
f 428/521/428 467/567/467 464/563/464
f 469/569/469 481/584/481 457/556/457
f 414/505/414 468/568/468 451/548/451
f 439/533/439 472/572/472 467/567/467
f 483/585/482 477/578/477 473/573/473
f 484/586/483 422/587/422 400/582/400
f 441/535/441 485/588/484 446/541/446
f 415/506/415 486/589/485 427/519/427
f 474/574/474 402/491/402 463/562/463
f 465/564/465 460/559/460 487/590/486
f 478/579/478 461/560/461 471/571/471
f 488/591/487 413/583/413 444/592/444
f 470/570/470 457/556/457 481/584/481
f 422/587/422 489/593/488 431/594/431
f 490/595/489 432/525/432 454/552/454
f 477/578/477 483/585/482 491/596/490
f 492/597/491 483/585/482 473/573/473
f 477/578/477 493/598/492 469/569/469
f 427/519/427 494/599/493 436/529/436
f 472/572/472 465/564/465 487/590/486
f 446/541/446 485/588/484 455/553/455
f 430/550/430 495/600/494 440/534/440
f 496/601/495 491/596/490 483/585/482
f 441/535/441 479/580/479 485/588/484
f 421/513/421 476/577/476 468/568/468
f 431/594/431 497/602/496 443/603/443
f 492/597/491 473/573/473 478/579/478
f 498/604/497 460/576/460 466/565/466
f 499/605/498 444/592/444 434/606/434
f 417/509/417 475/575/475 479/580/479
f 481/584/481 469/569/469 493/598/492
f 436/529/436 500/607/499 442/536/442
f 474/574/474 486/589/485 415/506/415
f 501/608/500 496/601/495 483/585/482
f 456/554/456 502/609/501 466/565/466
f 400/582/400 480/581/480 503/610/502
f 498/604/497 487/611/486 460/576/460
f 491/596/490 496/601/495 504/612/503
f 442/536/442 500/607/499 447/542/447
f 505/613/504 477/578/477 491/596/490
f 450/546/450 506/614/505 456/554/456
f 501/608/500 483/585/482 492/597/491
f 447/542/447 507/615/506 450/546/450
f 508/616/507 434/606/434 448/617/448
f 413/583/413 488/591/487 480/581/480
f 482/618/508 400/582/400 503/610/502
f 455/553/455 503/610/502 463/562/463
f 496/601/495 509/619/509 504/612/503
f 510/620/510 459/621/459 443/603/443
f 432/525/432 490/595/489 476/577/476
f 493/598/492 477/578/477 505/613/504
f 511/622/511 454/552/454 470/570/470
f 485/588/484 503/610/502 455/553/455
f 486/589/485 494/599/493 427/519/427
f 512/623/512 472/624/472 487/611/486
f 502/609/501 498/604/497 466/565/466
f 444/592/444 499/605/498 488/591/487
f 400/582/400 482/618/508 484/586/483
f 491/596/490 504/612/503 513/625/513
f 495/600/494 475/575/475 440/534/440
f 514/626/514 509/619/509 496/601/495
f 515/627/515 430/550/430 451/628/451
f 516/629/516 467/630/467 472/624/472
f 517/631/517 448/617/448 458/632/458
f 463/562/463 480/581/480 474/574/474
f 514/626/514 496/601/495 501/608/500
f 487/611/486 498/604/497 512/623/512
f 518/633/518 464/634/464 467/630/467
f 489/593/488 422/587/422 484/586/483
f 505/613/504 491/596/490 513/625/513
f 494/599/493 519/635/519 436/529/436
f 480/581/480 463/562/463 503/610/502
f 504/612/503 509/619/509 520/636/520
f 521/637/521 458/632/458 462/638/462
f 459/621/459 522/639/522 471/640/471
f 479/580/479 523/641/523 485/588/484
f 506/614/505 502/609/501 456/554/456
f 524/642/524 462/638/462 464/634/464
f 500/607/499 436/529/436 519/635/519
f 434/606/434 508/616/507 499/605/498
f 472/624/472 512/623/512 516/629/516
f 488/591/487 474/574/474 480/581/480
f 474/574/474 488/591/487 486/589/485
f 454/552/454 511/622/511 490/595/489
f 497/602/496 431/594/431 489/593/488
f 479/580/479 475/575/475 523/641/523
f 525/643/525 470/570/470 481/584/481
f 523/641/523 503/610/502 485/588/484
f 507/615/506 506/614/505 450/546/450
f 471/640/471 526/644/526 478/645/478
f 507/615/506 447/542/447 500/607/499
f 513/625/513 504/612/503 527/646/527
f 520/636/520 527/646/527 504/612/503
f 498/604/497 516/629/516 512/623/512
f 430/550/430 515/627/515 495/600/494
f 448/617/448 517/631/517 508/616/507
f 516/629/516 498/604/497 502/609/501
f 528/647/528 509/619/509 514/626/514
f 467/630/467 516/629/516 518/633/518
f 528/647/528 520/636/520 509/619/509
f 478/645/478 529/648/529 492/649/491
f 530/650/530 451/628/451 468/651/468
f 488/591/487 499/605/498 486/589/485
f 443/603/443 497/602/496 510/620/510
f 531/652/531 481/584/481 493/598/492
f 486/589/485 499/605/498 494/599/493
f 458/632/458 521/637/521 517/631/517
f 464/634/464 518/633/518 524/642/524
f 503/610/502 523/641/523 482/618/508
f 492/649/491 532/653/532 501/654/500
f 462/638/462 524/642/524 521/637/521
f 499/605/498 508/616/507 494/599/493
f 518/633/518 516/629/516 502/609/501
f 493/598/492 505/613/504 533/655/533
f 527/646/527 520/636/520 534/656/534
f 494/599/493 508/616/507 519/635/519
f 518/633/518 502/609/501 506/614/505
f 470/570/470 525/643/525 511/622/511
f 501/654/500 535/657/535 514/658/514
f 475/575/475 536/659/536 523/641/523
f 537/660/537 468/651/468 476/661/476
f 475/575/475 495/600/494 536/659/536
f 522/639/522 459/621/459 510/620/510
f 508/616/507 517/631/517 519/635/519
f 538/662/538 505/613/504 513/625/513
f 519/635/519 521/637/521 500/607/499
f 521/637/521 519/635/519 517/631/517
f 518/633/518 506/614/505 524/642/524
f 507/615/506 524/642/524 506/614/505
f 536/659/536 482/618/508 523/641/523
f 500/607/499 524/642/524 507/615/506
f 526/644/526 471/640/471 522/639/522
f 481/584/481 531/652/531 525/643/525
f 520/636/520 528/647/528 539/663/539
f 524/642/524 500/607/499 521/637/521
f 451/628/451 530/650/530 515/627/515
f 514/658/514 540/664/540 528/665/528
f 529/648/529 478/645/478 526/644/526
f 541/666/541 513/625/513 527/646/527
f 542/667/542 476/661/476 490/668/489
f 532/653/532 492/649/491 529/648/529
f 531/652/531 493/598/492 533/655/533
f 520/636/520 543/669/543 534/656/534
f 534/656/534 541/666/541 527/646/527
f 515/627/515 536/659/536 495/600/494
f 535/657/535 501/654/500 532/653/532
f 544/670/544 484/586/483 482/618/508
f 468/651/468 537/660/537 530/650/530
f 505/613/504 538/662/538 533/655/533
f 540/664/540 514/658/514 535/657/535
f 484/586/483 545/671/545 489/593/488
f 543/669/543 520/636/520 539/663/539
f 482/618/508 536/659/536 544/670/544
f 513/625/513 541/666/541 538/662/538
f 539/672/539 528/665/528 540/664/540
f 546/673/546 490/668/489 511/674/511
f 489/593/488 547/675/547 497/602/496
f 476/661/476 542/667/542 537/660/537
f 536/659/536 515/627/515 544/670/544
f 541/666/541 534/656/534 543/669/543
f 484/586/483 544/670/544 545/671/545
f 548/676/548 510/620/510 497/602/496
f 530/650/530 544/670/544 515/627/515
f 549/677/549 511/674/511 525/678/525
f 490/668/489 546/673/546 542/667/542
f 547/675/547 489/593/488 545/671/545
f 537/660/537 545/671/545 530/650/530
f 544/670/544 530/650/530 545/671/545
f 550/679/550 525/678/525 531/680/531
f 510/620/510 551/681/551 522/639/522
f 552/682/552 539/672/539 540/664/540
f 548/676/548 497/602/496 547/675/547
f 522/639/522 553/683/553 526/644/526
f 554/684/554 531/680/531 533/685/533
f 526/644/526 555/686/555 529/648/529
f 529/648/529 556/687/556 532/653/532
f 539/672/539 557/688/557 543/689/543
f 532/653/532 558/690/558 535/657/535
f 535/657/535 559/691/559 540/664/540
f 560/692/560 533/685/533 538/693/538
f 545/671/545 537/660/537 547/675/547
f 542/667/542 547/675/547 537/660/537
f 511/674/511 549/677/549 546/673/546
f 561/694/561 538/693/538 541/695/541
f 557/688/557 541/695/541 543/689/543
f 510/620/510 548/676/548 551/681/551
f 557/688/557 539/672/539 552/682/552
f 525/678/525 550/679/550 549/677/549
f 547/675/547 542/667/542 548/676/548
f 542/667/542 546/673/546 548/676/548
f 559/691/559 552/682/552 540/664/540
f 531/680/531 554/684/554 550/679/550
f 553/683/553 522/639/522 551/681/551
f 533/685/533 560/692/560 554/684/554
f 555/686/555 526/644/526 553/683/553
f 558/690/558 559/691/559 535/657/535
f 556/687/556 529/648/529 555/686/555
f 558/690/558 532/653/532 556/687/556
f 541/695/541 557/688/557 561/694/561
f 538/693/538 561/694/561 560/692/560
f 551/681/551 548/676/548 546/673/546
f 549/677/549 551/681/551 546/673/546
f 552/682/552 561/694/561 557/688/557
f 561/694/561 552/682/552 559/691/559
f 550/679/550 553/683/553 549/677/549
f 551/681/551 549/677/549 553/683/553
f 554/684/554 555/686/555 550/679/550
f 561/694/561 559/691/559 560/692/560
f 553/683/553 550/679/550 555/686/555
f 560/692/560 559/691/559 558/690/558
f 560/692/560 556/687/556 554/684/554
f 555/686/555 554/684/554 556/687/556
f 556/687/556 560/692/560 558/690/558
