# This file uses centimeters as units for non-parametric coordinates.

mtllib L_blackEye.mtl
g default
v 1.006594 9.456163 3.189103
v 1.012551 9.340294 3.292673
v 0.928855 9.460440 3.255821
v 1.049625 9.369661 3.233783
v 0.878546 9.457027 3.336349
v 1.125357 9.247253 3.303148
v 0.964269 9.590740 3.129778
v 0.978206 9.318369 3.373188
v 1.116187 9.425573 3.143728
v 1.134269 9.317648 3.219854
v 0.870971 9.606237 3.203032
v 1.107342 9.208807 3.391450
v 0.807624 9.618763 3.286730
v 1.089068 9.565662 3.072523
v 0.851362 9.463919 3.423203
v 1.264061 9.179737 3.297710
v 1.253409 9.387350 3.112106
v 0.937263 9.754499 3.067725
v 0.959762 9.315474 3.460089
v 1.264309 9.265196 3.202046
v 1.097536 9.196842 3.482491
v 1.259532 9.128441 3.395578
v 0.773023 9.634623 3.375327
v 0.764680 9.797167 3.230062
v 0.835423 9.775764 3.144522
v 1.070093 9.732117 3.004083
v 1.238541 9.538677 3.028963
v 0.847436 9.482794 3.509959
v 1.425096 9.135988 3.286551
v 1.257324 9.109158 3.491974
v 1.413646 9.359379 3.086835
v 0.958302 9.331385 3.546330
v 0.725390 9.819803 3.319942
v 0.927476 9.933805 3.007967
v 0.766959 9.656662 3.463682
v 1.420926 9.229738 3.184222
v 1.428065 9.077408 3.389843
v 1.226474 9.711319 2.953782
v 0.750183 9.984396 3.170796
v 1.405557 9.517025 2.996922
v 1.062609 9.913355 2.942145
v 0.823165 9.957867 3.085413
v 1.098593 9.210300 3.570448
v 1.431612 9.053572 3.490037
v 0.717743 9.845057 3.409888
v 0.709240 10.012255 3.260468
v 0.975611 9.366634 3.624757
v 1.597610 9.117596 3.271946
v 1.585943 9.345541 3.068197
v 0.867419 9.515755 3.590038
v 1.260891 9.120743 3.582651
v 1.221171 9.896860 2.889059
v 1.398757 9.694576 2.917021
v 0.937263 10.115404 2.955594
v 0.835423 10.141403 3.030921
v 1.605148 9.056755 3.376724
v 1.591093 9.213778 3.167806
v 1.582204 9.505138 2.976017
v 1.070093 10.097782 2.890472
v 1.113593 9.248678 3.649323
v 0.789494 9.687794 3.546464
v 0.700962 10.040331 3.350832
v 0.764680 10.172243 3.113527
v 1.613363 9.031282 3.478234
v 1.437738 9.063885 3.583298
v 1.395709 9.884642 2.849733
v 1.008717 9.416857 3.690192
v 1.273795 9.162329 3.663112
v 1.226474 10.086412 2.837241
v 1.579912 9.684771 2.894089
v 0.742285 9.874342 3.495482
v 1.762129 9.220434 3.154274
v 1.770771 9.126560 3.256209
v 0.909640 9.557402 3.659414
v 1.138436 9.309181 3.714512
v 0.725390 10.204525 3.200410
v 0.964269 10.285494 2.913921
v 0.870971 10.314240 2.983057
v 1.759346 9.349951 3.056492
v 1.782664 9.067736 3.358719
v 0.839795 9.722616 3.620996
v 1.291703 9.232296 3.729845
v 0.807624 10.351349 3.059119
v 1.448507 9.108110 3.665576
v 1.398757 10.079374 2.797465
v 1.579139 9.877119 2.825521
v 1.089068 10.273710 2.852536
v 0.726350 10.067486 3.438242
v 1.621917 9.041090 3.572654
v 1.760173 9.507355 2.965796
v 1.795328 9.043652 3.458113
v 0.717743 10.234690 3.288830
v 1.055316 9.478342 3.737001
v 0.797787 9.904039 3.574045
v 1.169440 9.389561 3.761178
v 0.972939 9.602747 3.713857
v 1.921142 9.247286 3.144394
v 0.773023 10.388489 3.141104
v 1.006594 10.429996 2.886537
v 1.238541 10.271259 2.801353
v 1.933416 9.161486 3.238959
v 1.461171 9.184278 3.733823
v 0.742285 10.259064 3.375951
v 0.928855 10.464281 2.943932
v 1.762554 9.684654 2.885090
v 1.922811 9.369097 3.053351
v 1.806097 9.053839 3.550967
v 0.917329 9.755884 3.684693
v 1.630473 9.086514 3.656008
v 1.579912 10.074459 2.773015
v 1.310419 9.329386 3.779371
v 1.764118 9.874596 2.817398
v 1.952132 9.109554 3.334786
v 0.783723 10.092667 3.519283
v 1.116187 10.429485 2.831817
v 0.878546 10.512724 3.008348
v 1.100431 9.533670 3.761668
v 0.766953 10.420408 3.226392
v 1.931140 9.519789 2.968174
v 1.405557 10.270943 2.762682
v 1.188895 9.493988 3.787426
v 0.883392 9.930616 3.642930
v 1.049625 10.526587 2.874331
v 2.054940 9.292540 3.139045
v 1.061221 9.632505 3.756680
v 0.797786 10.279116 3.457511
v 1.812222 9.098192 3.633652
v 0.789494 10.441658 3.312242
v 1.253409 10.443058 2.784102
v 1.473064 9.290836 3.784948
v 1.970040 9.089722 3.429420
v 1.022653 9.779213 3.736396
v 0.851362 10.556265 3.083815
v 1.012551 10.584156 2.906211
v 2.074395 9.221373 3.219851
v 1.939255 9.691881 2.891220
v 1.638688 9.165026 3.725211
v 2.065305 9.399691 3.060422
v 1.762554 10.069452 2.765534
v 1.982950 9.101046 3.519279
v 1.322693 9.453669 3.808664
v 1.134269 10.561550 2.833379
v 0.871781 10.114803 3.590532
v 1.178531 9.626829 3.791485
v 1.582205 10.268890 2.738723
v 2.105400 9.181591 3.303848
v 0.978206 10.647848 2.960125
v 0.847435 10.589880 3.165992
v 1.413646 10.451786 2.747429
v 2.087152 9.538446 2.984921
v 0.839795 10.455204 3.393386
v 1.646225 9.274530 3.777064
v 2.143404 9.339834 3.137779
v 1.943237 9.877169 2.825682
v 0.998044 9.950710 3.699254
v 1.264309 10.594675 2.788983
v 0.867419 10.608099 3.250651
v 1.986511 9.142893 3.600555
v 1.125357 10.666750 2.862117
v 1.481707 9.425947 3.815740
v 1.156685 9.783939 3.775064
v 1.815770 9.174610 3.702699
v 0.959762 10.699476 3.030084
v 1.760174 10.261272 2.731557
v 2.130243 9.168680 3.391847
v 2.188520 9.308226 3.189456
v 1.321025 9.605627 3.814648
v 0.883392 10.296255 3.529327
v 2.182615 9.424095 3.085881
v 1.939255 10.066975 2.774680
v 2.102897 9.703951 2.913432
v 2.145242 9.181759 3.478582
v 1.585943 10.452627 2.724229
v 0.989126 10.132820 3.648522
v 1.107342 10.748466 2.913085
v 1.140938 9.960814 3.740174
v 1.420926 10.613791 2.754203
v 2.235119 9.284092 3.262867
v 0.909639 10.613100 3.331414
v 0.958302 10.735241 3.110157
v 2.221183 9.556463 3.019456
v 1.264061 10.719297 2.819375
v 1.652743 9.412794 3.808362
v 1.312695 9.778055 3.799434
v 1.484489 9.588072 3.822910
v 2.109276 9.884811 2.850277
v 2.270897 9.423840 3.138028
v 0.917329 10.463888 3.464720
v 1.818739 9.281410 3.754608
v 0.975610 10.750639 3.194754
v 2.146300 9.220514 3.558681
v 1.759346 10.442358 2.717086
v 1.931140 10.252375 2.740562
v 1.984303 9.213408 3.669054
v 1.097536 10.809916 2.981315
v 2.268226 9.279793 3.345243
v 0.998044 10.311615 3.587122
v 2.245791 9.718815 2.952874
v 1.591093 10.617636 2.731633
v 1.098593 10.848671 3.061414
v 2.285534 9.295191 3.429837
v 0.972939 10.606590 3.401968
v 1.259532 10.817024 2.870943
v 1.425096 10.749020 2.785388
v 2.334196 9.417330 3.208582
v 1.134559 10.145618 3.689718
v 1.304580 9.963457 3.765316
v 2.102897 10.069614 2.799821
v 2.326507 9.566544 3.075275
v 1.008716 10.746340 3.277129
v 1.657892 9.577803 3.815766
v 1.483662 9.769157 3.808438
v 1.979774 9.311132 3.720620
v 1.922812 10.424803 2.725346
v 1.822909 9.416641 3.785792
v 1.022653 10.473969 3.520539
v 2.376417 9.422333 3.289345
v 1.762129 10.604485 2.724255
v 2.087152 10.246492 2.764933
v 2.254710 9.897610 2.891473
v 2.136493 9.281965 3.626911
v 1.113593 10.861750 3.148149
v 2.284073 9.330954 3.509912
v 2.404040 9.575226 3.146610
v 1.257324 10.887537 2.939438
v 1.140938 10.326481 3.626564
v 2.360444 9.734177 3.010668
v 1.597610 10.755899 2.762931
v 1.428065 10.855825 2.837297
v 1.260885 10.929384 3.020717
v 2.396400 9.440552 3.374004
v 1.061221 10.606337 3.454115
v 1.481282 9.960976 3.774461
v 1.055315 10.722206 3.350540
v 1.661631 9.761539 3.801272
v 1.300598 10.153261 3.714314
v 2.245791 10.079720 2.840742
v 1.979526 9.435757 3.751012
v 2.065305 10.403605 2.748511
v 2.118478 9.363680 3.677879
v 1.921142 10.576763 2.731331
v 1.830189 9.578646 3.792567
v 1.770771 10.739595 2.755047
v 1.156683 10.491985 3.555076
v 2.454341 9.588772 3.227754
v 2.221183 10.251217 2.803599
v 1.138435 10.848839 3.236147
v 2.372055 9.915627 2.949463
v 2.265630 9.382584 3.579871
v 1.100431 10.690598 3.402216
v 1.273795 10.940710 3.110577
v 1.431612 10.932240 2.906344
v 2.446049 9.751314 3.082485
v 1.605148 10.865404 2.814785
v 1.304580 10.338551 3.648777
v 1.479717 10.155836 3.722599
v 1.178531 10.630739 3.479574
v 2.109566 9.468882 3.706617
v 1.169440 10.809057 3.320147
v 2.054940 10.536444 2.752569
v 2.392474 9.474167 3.456182
v 1.663923 9.955973 3.766981
v 2.182615 10.397924 2.783316
v 1.437738 10.976591 2.989028
v 2.231284 9.446274 3.633784
v 2.476882 9.610023 3.313603
v 1.990427 9.587374 3.755894
v 1.933417 10.701046 2.760624
v 2.360444 10.099813 2.897066
v 1.838278 9.759487 3.777313
v 1.188895 10.737890 3.400950
v 1.782664 10.846153 2.806172
v 2.501551 9.771368 3.164044
v 1.312695 10.510643 3.571823
v 2.460113 9.937765 3.020713
v 1.291703 10.920877 3.205209
v 2.365290 9.517708 3.531649
v 2.194211 9.503845 3.665664
v 2.143404 10.496759 2.778327
v 1.613363 10.943918 2.883987
v 1.448507 10.986778 3.081883
v 2.127648 9.600945 3.708179
v 2.074395 10.640871 2.778818
v 1.321025 10.661335 3.486644
v 2.326507 10.274546 2.855302
v 1.310419 10.868946 3.301036
v 1.664696 10.153313 3.714474
v 1.481281 10.345776 3.654906
v 2.314981 9.566149 3.596065
v 2.270897 10.427685 2.826138
v 2.005294 9.759169 3.738644
v 1.952132 10.798138 2.810152
v 2.470812 9.641943 3.398891
v 2.526093 9.795742 3.251165
v 1.621918 10.989342 2.967341
v 2.517486 9.962944 3.101754
v 2.237241 9.600435 3.653458
v 1.322693 10.783146 3.395601
v 1.845078 9.951057 3.742530
v 2.188520 10.552086 2.802994
v 2.446049 10.126390 2.965951
v 1.483662 10.523075 3.574199
v 1.795328 10.922321 2.874420
v 2.436212 9.679083 3.480876
v 1.663923 10.345661 3.645906
v 1.461171 10.962694 3.181277
v 2.154768 9.756721 3.687460
v 2.105400 10.721251 2.825483
v 1.848126 10.145790 3.690262
v 1.630473 10.999151 3.061761
v 2.404040 10.307814 2.918999
v 2.372864 9.716192 3.556938
v 1.484489 10.680481 3.483503
v 1.473064 10.903872 3.283786
v 2.017360 9.944019 3.702754
v 1.970040 10.868103 2.876884
v 2.542873 9.990101 3.189164
v 2.235119 10.613571 2.849803
v 2.279567 9.744936 3.626075
v 2.334196 10.473028 2.880581
v 2.518445 9.825907 3.339585
v 2.501551 10.156088 3.044513
v 1.481707 10.809998 3.385722
v 1.638688 10.973677 3.163272
v 1.806097 10.966547 2.956697
v 1.661631 10.525291 3.563978
v 1.845078 10.335855 3.622974
v 2.173742 9.932650 3.649523
v 2.479156 9.858189 3.426469
v 2.022663 10.133570 3.650938
v 2.130243 10.781755 2.890672
v 1.646225 10.912836 3.268050
v 2.408412 9.889029 3.509076
v 2.454341 10.342638 2.993532
v 1.657892 10.684893 3.471799
v 1.652743 10.816654 3.372190
v 2.268225 10.663797 2.915238
v 2.306572 9.915028 3.584403
v 2.376416 10.514677 2.949958
v 2.534595 10.018179 3.279528
v 1.812223 10.976860 3.049959
v 2.526093 10.185377 3.130108
v 1.982950 10.909697 2.957340
v 1.838278 10.513407 3.543074
v 2.181225 10.117077 3.597850
v 1.815771 10.953024 3.150153
v 2.017360 10.319113 3.586215
v 2.493652 10.046036 3.369199
v 2.518445 10.210627 3.220055
v 2.316359 10.096628 3.532029
v 1.830189 10.671053 3.453161
v 2.476882 10.373777 3.076309
v 2.420670 10.072565 3.454584
v 1.818739 10.894444 3.253446
v 2.145242 10.820129 2.969548
v 1.822909 10.800694 3.355774
v 1.986511 10.921274 3.048020
v 2.396399 10.547640 3.030036
v 2.005294 10.491755 3.511032
v 2.173742 10.298315 3.535913
v 2.285534 10.699047 2.993665
v 2.479156 10.233263 3.309936
v 1.984303 10.901991 3.144418
v 2.470812 10.395809 3.164669
v 2.306572 10.275932 3.472270
v 1.990427 10.643080 3.427889
v 2.408412 10.254667 3.395474
v 2.146299 10.833590 3.057507
v 1.979774 10.850693 3.242286
v 2.392474 10.566511 3.116794
v 1.979526 10.765238 3.337949
v 2.154768 10.464767 3.467473
v 2.284073 10.714958 3.079907
v 2.436212 10.411667 3.253265
v 2.136494 10.821623 3.148546
v 2.279566 10.439690 3.410217
v 2.127648 10.604858 3.396268
v 2.372864 10.424192 3.336966
v 2.118478 10.783178 3.236848
v 2.365290 10.573402 3.203649
v 2.265630 10.712061 3.166807
v 2.109566 10.712784 3.320141
v 2.237241 10.574266 3.350893
v 2.314981 10.569992 3.284174
v 2.231285 10.690136 3.247323
v 2.194211 10.660770 3.306213
vt 0.050116 0.992382
vt 0.050003 0.993034
vt 0.049690 0.992450
vt 0.050239 0.992823
vt 0.049323 0.992605
vt 0.050474 0.993472
vt 0.050010 0.991736
vt 0.049721 0.993284
vt 0.050627 0.992474
vt 0.050614 0.993036
vt 0.049505 0.991750
vt 0.050264 0.993825
vt 0.049064 0.991818
vt 0.050595 0.991804
vt 0.048976 0.992774
vt 0.051063 0.993795
vt 0.051222 0.992635
vt 0.049972 0.990982
vt 0.049440 0.993526
vt 0.051172 0.993269
vt 0.050039 0.994143
vt 0.050917 0.994236
vt 0.048665 0.991912
vt 0.048944 0.990958
vt 0.049425 0.990956
vt 0.050598 0.991045
vt 0.051251 0.991913
vt 0.048639 0.992949
vt 0.051749 0.994029
vt 0.050752 0.994618
vt 0.051901 0.992779
vt 0.049150 0.993764
vt 0.048515 0.990981
vt 0.050014 0.990178
vt 0.048290 0.992020
vt 0.051834 0.993453
vt 0.051652 0.994520
vt 0.051289 0.991130
vt 0.048969 0.990068
vt 0.051962 0.992027
vt 0.050651 0.990244
vt 0.049459 0.990120
vt 0.049801 0.994440
vt 0.051545 0.994944
vt 0.048114 0.991016
vt 0.048530 0.990022
vt 0.039728 0.987410
vt 0.038930 0.987985
vt 0.039443 0.987176
vt 0.052491 0.994162
vt 0.040092 0.986501
vt 0.052624 0.992884
vt 0.039266 0.988162
vt 0.038578 0.988910
vt 0.050571 0.994966
vt 0.051353 0.990317
vt 0.052026 0.991223
vt 0.050140 0.989383
vt 0.049599 0.989295
vt 0.052437 0.994672
vt 0.052553 0.993569
vt 0.052703 0.992124
vt 0.050763 0.989449
vt 0.040864 0.985977
vt 0.040331 0.986796
vt 0.038952 0.989021
vt 0.038397 0.989910
vt 0.048118 0.989979
vt 0.049129 0.989193
vt 0.052389 0.995116
vt 0.051430 0.995329
vt 0.052101 0.990394
vt 0.040012 0.987656
vt 0.041045 0.986323
vt 0.051457 0.989508
vt 0.052787 0.991312
vt 0.038797 0.989949
vt 0.053281 0.993602
vt 0.053245 0.994185
vt 0.039612 0.988333
vt 0.040554 0.987116
vt 0.041725 0.985617
vt 0.048714 0.989082
vt 0.038393 0.990945
vt 0.050331 0.988652
vt 0.049841 0.988534
vt 0.053354 0.992930
vt 0.053237 0.994689
vt 0.039350 0.989117
vt 0.041208 0.986706
vt 0.049423 0.988377
vt 0.041841 0.986003
vt 0.052196 0.989567
vt 0.052872 0.990474
vt 0.050917 0.988705
vt 0.038805 0.990907
vt 0.052345 0.995515
vt 0.053448 0.992182
vt 0.053252 0.995130
vt 0.048329 0.988964
vt 0.040294 0.987908
vt 0.042643 0.985424
vt 0.039226 0.989976
vt 0.040763 0.987471
vt 0.039979 0.988490
vt 0.053966 0.993561
vt 0.049052 0.988203
vt 0.050567 0.988042
vt 0.051580 0.988733
vt 0.053965 0.994100
vt 0.041944 0.986424
vt 0.038979 0.991849
vt 0.038593 0.991962
vt 0.050166 0.987888
vt 0.053549 0.991382
vt 0.054047 0.992929
vt 0.053281 0.995530
vt 0.039791 0.989189
vt 0.042685 0.985838
vt 0.052958 0.989636
vt 0.041352 0.987149
vt 0.053644 0.990555
vt 0.054016 0.994563
vt 0.039244 0.990865
vt 0.051084 0.988055
vt 0.049837 0.987660
vt 0.040528 0.988121
vt 0.048707 0.988020
vt 0.054166 0.992217
vt 0.052298 0.988766
vt 0.040903 0.987909
vt 0.039706 0.989982
vt 0.050777 0.987635
vt 0.054560 0.993448
vt 0.040404 0.988561
vt 0.039395 0.991743
vt 0.043545 0.985829
vt 0.039310 0.992734
vt 0.051699 0.988019
vt 0.042038 0.986917
vt 0.054098 0.994973
vt 0.040293 0.989206
vt 0.043582 0.985428
vt 0.049532 0.987423
vt 0.038963 0.992913
vt 0.050591 0.987380
vt 0.054608 0.993905
vt 0.054288 0.991442
vt 0.042730 0.986281
vt 0.054663 0.992895
vt 0.053718 0.989725
vt 0.054202 0.995351
vt 0.041459 0.987677
vt 0.051187 0.987503
vt 0.039731 0.990819
vt 0.040913 0.988471
vt 0.053042 0.988823
vt 0.054741 0.994294
vt 0.050365 0.987076
vt 0.049238 0.987184
vt 0.052392 0.988017
vt 0.054830 0.992245
vt 0.039682 0.992563
vt 0.042781 0.986787
vt 0.054971 0.993316
vt 0.054391 0.990632
vt 0.040252 0.989960
vt 0.051779 0.987388
vt 0.039788 0.993518
vt 0.044390 0.985987
vt 0.051138 0.987045
vt 0.042121 0.987494
vt 0.040878 0.989141
vt 0.039492 0.993756
vt 0.044499 0.985611
vt 0.043529 0.986266
vt 0.050136 0.986778
vt 0.053781 0.988921
vt 0.054895 0.994653
vt 0.055158 0.993571
vt 0.041508 0.988312
vt 0.039866 0.991646
vt 0.055182 0.992909
vt 0.054455 0.989819
vt 0.054982 0.991500
vt 0.055068 0.994992
vt 0.053120 0.988061
vt 0.040288 0.990765
vt 0.051005 0.986656
vt 0.040876 0.989901
vt 0.052464 0.987342
vt 0.055385 0.993875
vt 0.040095 0.993283
vt 0.049904 0.986493
vt 0.055416 0.992298
vt 0.051780 0.986849
vt 0.042840 0.987379
vt 0.041534 0.989035
vt 0.042186 0.988170
vt 0.055094 0.990705
vt 0.055586 0.993064
vt 0.040105 0.992408
vt 0.043534 0.986768
vt 0.040394 0.994165
vt 0.045185 0.986311
vt 0.053842 0.988167
vt 0.054491 0.989035
vt 0.044307 0.986396
vt 0.040157 0.994455
vt 0.045361 0.985974
vt 0.050851 0.986297
vt 0.055611 0.994169
vt 0.040407 0.991562
vt 0.055608 0.991567
vt 0.053191 0.987375
vt 0.050676 0.985960
vt 0.055846 0.994461
vt 0.040424 0.993059
vt 0.051728 0.986385
vt 0.052499 0.986760
vt 0.055913 0.993289
vt 0.040925 0.990703
vt 0.041567 0.989819
vt 0.055145 0.989903
vt 0.055907 0.992414
vt 0.040622 0.993871
vt 0.042908 0.988066
vt 0.042244 0.988923
vt 0.044253 0.986859
vt 0.054519 0.988312
vt 0.043567 0.987350
vt 0.040596 0.992294
vt 0.056219 0.993525
vt 0.053910 0.987492
vt 0.055146 0.989144
vt 0.055730 0.990770
vt 0.045029 0.986669
vt 0.041108 0.994651
vt 0.045898 0.986795
vt 0.056329 0.992570
vt 0.051646 0.985976
vt 0.040934 0.994989
vt 0.046131 0.986510
vt 0.041033 0.991498
vt 0.056149 0.991652
vt 0.053252 0.986783
vt 0.052506 0.986259
vt 0.051539 0.985600
vt 0.056514 0.993764
vt 0.040828 0.992906
vt 0.042304 0.989728
vt 0.040850 0.993568
vt 0.042984 0.988829
vt 0.041628 0.990632
vt 0.055769 0.989965
vt 0.044252 0.987398
vt 0.055114 0.988473
vt 0.044895 0.987058
vt 0.054571 0.987677
vt 0.043637 0.988025
vt 0.053994 0.986915
vt 0.041182 0.992243
vt 0.056700 0.992742
vt 0.046794 0.987204
vt 0.055731 0.989211
vt 0.041263 0.994293
vt 0.056286 0.990826
vt 0.045667 0.987092
vt 0.041037 0.993314
vt 0.041904 0.994974
vt 0.052492 0.985821
vt 0.056619 0.991751
vt 0.053305 0.986276
vt 0.041799 0.995352
vt 0.041727 0.991442
vt 0.042375 0.990558
vt 0.041347 0.992894
vt 0.044844 0.987515
vt 0.041398 0.993904
vt 0.055126 0.987912
vt 0.046499 0.987442
vt 0.043064 0.989642
vt 0.055622 0.988566
vt 0.052457 0.985420
vt 0.045440 0.987395
vt 0.057047 0.992923
vt 0.044329 0.988030
vt 0.054680 0.987150
vt 0.056315 0.989989
vt 0.043728 0.988775
vt 0.041448 0.993448
vt 0.054091 0.986422
vt 0.057035 0.991859
vt 0.041846 0.992218
vt 0.047322 0.988042
vt 0.056773 0.990874
vt 0.041987 0.994565
vt 0.046193 0.987678
vt 0.045253 0.987649
vt 0.055500 0.988125
vt 0.053352 0.985833
vt 0.042750 0.995134
vt 0.044944 0.988068
vt 0.055268 0.987474
vt 0.041963 0.992931
vt 0.056233 0.989195
vt 0.042041 0.994101
vt 0.043147 0.990480
vt 0.042719 0.995535
vt 0.042467 0.991385
vt 0.045864 0.987904
vt 0.056048 0.988496
vt 0.044446 0.988744
vt 0.054826 0.986708
vt 0.046976 0.988223
vt 0.057420 0.991974
vt 0.053396 0.985420
vt 0.057213 0.990917
vt 0.045462 0.988057
vt 0.042041 0.993563
vt 0.043827 0.989576
vt 0.055735 0.987913
vt 0.056796 0.989985
vt 0.042565 0.992185
vt 0.054195 0.986002
vt 0.047696 0.988988
vt 0.046604 0.988396
vt 0.043229 0.991318
vt 0.042766 0.994693
vt 0.045109 0.988719
vt 0.055478 0.987120
vt 0.043918 0.990403
vt 0.043612 0.995124
vt 0.056674 0.989126
vt 0.046186 0.988552
vt 0.042656 0.992934
vt 0.042760 0.994190
vt 0.043655 0.995523
vt 0.044566 0.989519
vt 0.054990 0.986325
vt 0.057625 0.990957
vt 0.056018 0.987662
vt 0.045695 0.988668
vt 0.056415 0.988340
vt 0.047311 0.989104
vt 0.057224 0.989960
vt 0.042727 0.993607
vt 0.043566 0.994680
vt 0.054312 0.985617
vt 0.047903 0.990003
vt 0.043310 0.992130
vt 0.043990 0.991233
vt 0.044570 0.995340
vt 0.045260 0.989463
vt 0.046895 0.989214
vt 0.044666 0.990329
vt 0.055702 0.986800
vt 0.043514 0.994170
vt 0.046425 0.989313
vt 0.057072 0.989031
vt 0.043386 0.992891
vt 0.043454 0.993576
vt 0.056303 0.987417
vt 0.045884 0.989399
vt 0.056762 0.988171
vt 0.047491 0.990045
vt 0.044457 0.994955
vt 0.057625 0.989922
vt 0.055172 0.985979
vt 0.044051 0.992036
vt 0.045369 0.990259
vt 0.044351 0.994531
vt 0.044727 0.991142
vt 0.045431 0.994981
vt 0.047052 0.990089
vt 0.047502 0.991003
vt 0.046006 0.990195
vt 0.047903 0.991040
vt 0.044109 0.992788
vt 0.057448 0.988922
vt 0.046561 0.990139
vt 0.044256 0.994039
vt 0.055942 0.986506
vt 0.044173 0.993463
vt 0.045252 0.994633
vt 0.057099 0.987996
vt 0.044762 0.991925
vt 0.045419 0.991060
vt 0.046203 0.994458
vt 0.056588 0.987184
vt 0.047073 0.990979
vt 0.045088 0.994250
vt 0.047348 0.991934
vt 0.047724 0.992043
vt 0.046045 0.990999
vt 0.044788 0.992647
vt 0.046593 0.990975
vt 0.045966 0.994160
vt 0.046857 0.993784
vt 0.044944 0.993808
vt 0.047034 0.992795
vt 0.047371 0.992971
vt 0.044836 0.993281
vt 0.045419 0.991819
vt 0.046568 0.993545
vt 0.046950 0.991839
vt 0.045743 0.993841
vt 0.046004 0.991753
vt 0.045385 0.992489
vt 0.046509 0.991769
vt 0.045534 0.993487
vt 0.046688 0.992625
vt 0.046287 0.993302
vt 0.045395 0.993051
vt 0.045895 0.992398
vt 0.046321 0.992468
vt 0.046006 0.993051
vt 0.045771 0.992839
vn -0.506426 -0.511939 -0.693867
vn -0.574694 -0.642215 -0.507235
vn -0.649499 -0.524530 -0.550472
vn -0.477900 -0.595300 -0.645933
vn -0.774888 -0.534588 -0.337290
vn -0.446016 -0.729595 -0.518421
vn -0.522465 -0.419810 -0.742153
vn -0.667185 -0.681891 -0.299815
vn -0.375692 -0.517018 -0.769122
vn -0.391508 -0.622536 -0.677621
vn -0.682190 -0.412673 -0.603587
vn -0.515796 -0.803912 -0.296109
vn -0.827314 -0.398020 -0.396399
vn -0.381190 -0.428670 -0.819107
vn -0.853892 -0.515664 -0.070424
vn -0.314999 -0.774678 -0.548315
vn -0.269879 -0.532286 -0.802394
vn -0.530403 -0.333259 -0.779494
vn -0.731357 -0.681393 -0.028639
vn -0.283460 -0.648303 -0.706649
vn -0.565985 -0.824297 -0.014012
vn -0.357293 -0.876522 -0.322571
vn -0.923770 -0.360693 -0.128642
vn -0.847237 -0.274454 -0.454823
vn -0.692829 -0.310951 -0.650614
vn -0.387730 -0.348331 -0.853423
vn -0.270698 -0.439730 -0.856364
vn -0.864409 -0.450542 0.223181
vn -0.190801 -0.795009 -0.575809
vn -0.389774 -0.920501 -0.027454
vn -0.175490 -0.544040 -0.820502
vn -0.736898 -0.622177 0.264342
vn -0.958356 -0.215866 -0.186962
vn -0.532641 -0.251170 -0.808212
vn -0.941527 -0.285296 0.179256
vn -0.179626 -0.662310 -0.727379
vn -0.205319 -0.912143 -0.354739
vn -0.275983 -0.360037 -0.891183
vn -0.852197 -0.155241 -0.499660
vn -0.177316 -0.450108 -0.875192
vn -0.390596 -0.272506 -0.879304
vn -0.695543 -0.213570 -0.686009
vn -0.567436 -0.769816 0.292231
vn -0.212517 -0.975846 -0.050613
vn -0.982733 -0.127412 0.134169
vn -0.968814 -0.073520 -0.236631
vn -0.677688 -0.507186 0.532449
vn -0.072731 -0.802460 -0.592257
vn -0.087896 -0.550008 -0.830521
vn -0.799438 -0.339874 0.495363
vn -0.384213 -0.871213 0.305562
vn -0.278679 -0.284190 -0.917373
vn -0.180624 -0.368836 -0.911776
vn -0.530693 -0.167408 -0.830867
vn -0.694140 -0.112733 -0.710957
vn -0.056397 -0.924958 -0.375861
vn -0.082910 -0.668413 -0.739155
vn -0.090156 -0.455702 -0.885555
vn -0.387947 -0.196813 -0.900423
vn -0.508645 -0.639553 0.576413
vn -0.866394 -0.175474 0.467514
vn -0.995803 0.027157 0.087404
vn -0.847238 -0.031610 -0.530272
vn -0.032319 -0.996942 -0.071148
vn -0.194799 -0.931678 0.306642
vn -0.182421 -0.291223 -0.939102
vn -0.569446 -0.357388 0.740274
vn -0.328320 -0.719987 0.611413
vn -0.276168 -0.208595 -0.938200
vn -0.091138 -0.373499 -0.923143
vn -0.898080 -0.021283 0.439316
vn 0.014150 -0.667457 -0.744514
vn 0.043859 -0.801170 -0.596828
vn -0.674280 -0.209807 0.708045
vn -0.414409 -0.467127 0.781062
vn -0.958356 0.071910 -0.276373
vn -0.523310 -0.073980 -0.848925
vn -0.684212 -0.001114 -0.729282
vn 0.000300 -0.548835 -0.835930
vn 0.090117 -0.920097 -0.381184
vn -0.722925 -0.061034 0.688225
vn -0.249304 -0.520270 0.816803
vn -0.827318 0.103311 -0.552153
vn -0.148450 -0.763257 0.628810
vn -0.180834 -0.212890 -0.960196
vn -0.091524 -0.295460 -0.950961
vn -0.381189 -0.110981 -0.917812
vn -0.907415 0.124683 0.401313
vn -0.000171 -0.955514 0.294945
vn -0.002345 -0.454880 -0.890550
vn 0.146984 -0.985715 -0.082232
vn -0.982734 0.181008 0.038346
vn -0.444062 -0.208110 0.871492
vn -0.739028 0.074867 0.669502
vn -0.311430 -0.280798 0.907835
vn -0.518582 -0.088385 0.850448
vn 0.120637 -0.659324 -0.742118
vn -0.923766 0.224268 -0.310421
vn -0.507910 0.027426 -0.860973
vn -0.270702 -0.122979 -0.954776
vn 0.172380 -0.787967 -0.591095
vn -0.094292 -0.540673 0.835932
vn -0.898081 0.266490 0.349905
vn -0.653327 0.120355 -0.747448
vn -0.000995 -0.373779 -0.927517
vn 0.096895 -0.542288 -0.834587
vn 0.194511 -0.942294 0.272486
vn -0.544070 0.034380 0.838335
vn 0.034615 -0.780557 0.624125
vn -0.091284 -0.215390 -0.972252
vn -0.172711 -0.312354 0.934134
vn -0.000322 -0.296796 -0.954941
vn 0.247754 -0.893016 -0.375685
vn -0.741701 0.199823 0.640274
vn -0.375688 -0.009868 -0.926694
vn -0.774887 0.249327 -0.580850
vn -0.338901 -0.090257 0.936483
vn -0.941531 0.336637 -0.013970
vn 0.093314 -0.449657 -0.888314
vn -0.177315 -0.125100 -0.976171
vn -0.234373 -0.110189 0.965882
vn -0.552657 0.146733 0.820390
vn -0.491353 0.112899 -0.863612
vn 0.233322 -0.639579 -0.732461
vn -0.347863 -0.004687 0.937534
vn -0.736939 0.319700 0.595577
vn 0.213787 -0.773137 0.597121
vn -0.866383 0.409509 0.285801
vn -0.269880 -0.016139 -0.962759
vn -0.046602 -0.321419 0.945790
vn 0.328683 -0.940089 -0.090555
vn -0.362469 0.098697 0.926755
vn -0.853884 0.384961 -0.350267
vn -0.577069 0.235958 -0.781867
vn 0.308842 -0.750185 -0.584670
vn 0.096757 -0.370203 -0.923898
vn 0.059154 -0.548089 0.834326
vn 0.207554 -0.532917 -0.820318
vn -0.001065 -0.217695 -0.976016
vn 0.383852 -0.892156 0.238151
vn -0.119878 -0.121530 0.985322
vn -0.392623 0.127289 -0.910849
vn -0.553503 0.248121 0.795028
vn -0.207551 0.025775 0.977885
vn -0.090153 -0.126367 -0.987878
vn 0.412128 -0.829217 -0.377557
vn -0.669440 0.391173 -0.631533
vn -0.864398 0.497708 -0.071439
vn -0.175495 -0.016717 -0.984338
vn 0.209032 -0.444765 -0.870913
vn -0.722554 0.439270 0.533814
vn 0.073857 -0.325592 0.942621
vn 0.325267 -0.617196 -0.716429
vn 0.099278 -0.294786 -0.950392
vn -0.368114 0.191918 0.909758
vn -0.282818 0.132508 -0.949977
vn -0.799429 0.560756 0.215558
vn 0.390293 -0.739561 0.548381
vn -0.449057 0.301536 -0.841085
vn -0.014490 -0.128101 0.991655
vn -0.209035 0.127079 0.969616
vn 0.208817 -0.548716 0.809510
vn -0.731587 0.545614 -0.408760
vn -0.002347 -0.129873 -0.991528
vn 0.509479 -0.853627 -0.108406
vn 0.436930 -0.671652 -0.598310
vn -0.096895 0.026142 0.994951
vn -0.551896 0.346077 0.758710
vn 0.349461 -0.535279 -0.768995
vn 0.096922 -0.218721 -0.970962
vn 0.213835 -0.364738 -0.906223
vn 0.567178 -0.800753 0.192626
vn -0.087897 -0.017481 -0.995976
vn -0.369443 0.275771 0.887390
vn -0.518166 0.492553 -0.699210
vn -0.214064 0.213231 0.953263
vn -0.179940 0.133404 -0.974590
vn 0.567114 -0.716935 -0.405445
vn -0.671651 0.575461 0.466615
vn -0.736911 0.662373 -0.134996
vn 0.361810 -0.443927 -0.819770
vn -0.315534 0.325671 -0.891278
vn 0.083096 -0.132014 0.987759
vn -0.093312 0.132906 0.986726
vn -0.000302 0.021511 0.999769
vn 0.216246 -0.289056 -0.932569
vn 0.515155 -0.557461 -0.651040
vn -0.543248 0.445484 0.711636
vn 0.193074 -0.327960 0.924751
vn -0.677267 0.719808 0.152270
vn 0.565881 -0.668847 0.482101
vn 0.000300 -0.021511 -0.999769
vn 0.093318 -0.132911 -0.986725
vn 0.359168 -0.536864 0.763398
vn -0.565882 0.668849 -0.482098
vn 0.677270 -0.719803 -0.152281
vn -0.367803 0.357752 0.858333
vn 0.367801 -0.357756 -0.858332
vn -0.083098 0.132014 -0.987759
vn -0.567178 0.800751 -0.192630
vn 0.736914 -0.662371 0.134990
vn -0.515159 0.557459 0.651038
vn -0.359172 0.536855 -0.763402
vn -0.193075 0.327959 -0.924751
vn 0.671653 -0.575466 -0.466607
vn -0.216248 0.289055 0.932568
vn -0.096921 0.218722 0.970962
vn 0.214058 -0.213230 -0.953264
vn 0.543246 -0.445483 -0.711638
vn -0.567113 0.716938 0.405441
vn 0.087896 0.017479 0.995976
vn 0.002346 0.129873 0.991528
vn 0.315534 -0.325669 0.891279
vn 0.096895 -0.026143 -0.994951
vn 0.179942 -0.133402 0.974590
vn -0.361816 0.443926 0.819768
vn 0.799430 -0.560758 -0.215549
vn 0.014490 0.128099 -0.991655
vn 0.209032 -0.127077 -0.969617
vn 0.369444 -0.275772 -0.887390
vn 0.518162 -0.492550 0.699216
vn -0.509481 0.853625 0.108411
vn 0.731587 -0.545616 0.408759
vn 0.722554 -0.439271 -0.533813
vn -0.390299 0.739564 -0.548372
vn -0.213839 0.364734 0.906224
vn 0.551897 -0.346079 -0.758709
vn -0.073860 0.325592 -0.942621
vn -0.208814 0.548717 -0.809510
vn -0.383852 0.892155 -0.238156
vn 0.864397 -0.497710 0.071440
vn -0.349464 0.535281 0.768993
vn 0.001067 0.217692 0.976017
vn -0.436931 0.671657 0.598305
vn 0.090153 0.126366 0.987879
vn -0.099283 0.294786 0.950392
vn 0.368115 -0.191919 -0.909758
vn 0.282815 -0.132512 0.949977
vn 0.207554 -0.025779 -0.977884
vn 0.449053 -0.301535 0.841088
vn 0.119879 0.121530 -0.985322
vn 0.175492 0.016716 0.984339
vn 0.046601 0.321422 -0.945789
vn -0.209034 0.444767 0.870912
vn 0.866384 -0.409511 -0.285797
vn 0.362467 -0.098697 -0.926756
vn -0.412130 0.829215 0.377561
vn 0.553508 -0.248121 -0.795025
vn 0.669439 -0.391169 0.631536
vn -0.325257 0.617201 0.716429
vn -0.328683 0.940090 0.090548
vn -0.213787 0.773149 -0.597106
vn 0.736940 -0.319702 -0.595576
vn -0.059154 0.548082 -0.834330
vn -0.096759 0.370200 0.923899
vn 0.000324 0.296792 0.954942
vn -0.207550 0.532921 0.820316
vn 0.392622 -0.127291 0.910849
vn -0.308841 0.750182 0.584674
vn 0.234377 0.110194 -0.965880
vn 0.853885 -0.384962 0.350263
vn 0.091282 0.215391 0.972252
vn 0.347856 0.004686 -0.937536
vn -0.194518 0.942294 -0.272478
vn 0.577067 -0.235955 0.781869
vn 0.941531 -0.336638 0.013974
vn 0.269878 0.016137 0.962759
vn 0.172714 0.312355 -0.934133
vn 0.552658 -0.146734 -0.820389
vn 0.177313 0.125101 0.976171
vn -0.233321 0.639577 0.732464
vn 0.094291 0.540673 -0.835932
vn 0.898081 -0.266491 -0.349906
vn -0.093311 0.449660 0.888312
vn 0.741702 -0.199824 -0.640272
vn -0.247754 0.893017 0.375683
vn 0.774889 -0.249328 0.580846
vn 0.491353 -0.112900 0.863612
vn 0.338896 0.090257 -0.936484
vn -0.034619 0.780552 -0.624131
vn -0.146989 0.985714 0.082233
vn 0.375694 0.009865 0.926691
vn 0.311432 0.280794 -0.907835
vn -0.096895 0.542288 0.834587
vn 0.544074 -0.034380 -0.838333
vn -0.172382 0.787966 0.591096
vn 0.091525 0.295460 0.950961
vn 0.000998 0.373782 0.927516
vn 0.653323 -0.120351 0.747452
vn 0.518581 0.088386 -0.850448
vn 0.270699 0.122981 0.954776
vn 0.249302 0.520276 -0.816800
vn 0.923767 -0.224268 0.310418
vn 0.982735 -0.181005 -0.038343
vn 0.000167 0.955512 -0.294953
vn 0.907417 -0.124685 -0.401309
vn 0.507911 -0.027424 0.860973
vn -0.120643 0.659323 0.742118
vn 0.180836 0.212889 0.960196
vn 0.444062 0.208115 -0.871491
vn 0.739029 -0.074868 -0.669500
vn 0.002348 0.454880 0.890550
vn 0.148451 0.763254 -0.628813
vn 0.827318 -0.103313 0.552152
vn 0.091139 0.373500 0.923142
vn -0.090118 0.920097 0.381183
vn 0.381190 0.110983 0.917811
vn 0.414409 0.467118 -0.781067
vn 0.182419 0.291224 0.939102
vn 0.032313 0.996943 0.071143
vn 0.722929 0.061035 -0.688221
vn 0.684213 0.001115 0.729282
vn -0.000305 0.548830 0.835934
vn -0.043862 0.801174 0.596822
vn 0.276169 0.208596 0.938200
vn 0.328292 0.719966 -0.611452
vn 0.995803 -0.027155 -0.087399
vn 0.569446 0.357381 -0.740277
vn 0.523314 0.073975 0.848923
vn 0.674283 0.209811 -0.708041
vn 0.958357 -0.071908 0.276370
vn 0.898080 0.021284 -0.439317
vn -0.014152 0.667460 0.744511
vn 0.056391 0.924957 0.375865
vn 0.194784 0.931679 -0.306648
vn 0.090152 0.455701 0.885556
vn 0.180623 0.368835 0.911776
vn 0.387945 0.196816 0.900423
vn 0.847239 0.031611 0.530270
vn 0.278678 0.284186 0.917375
vn 0.508656 0.639548 -0.576409
vn 0.072726 0.802457 0.592261
vn 0.694141 0.112735 0.710957
vn 0.866382 0.175453 -0.467545
vn 0.087895 0.550003 0.830525
vn 0.082907 0.668414 0.739155
vn 0.677686 0.507181 -0.532455
vn 0.530693 0.167408 0.830867
vn 0.799430 0.339876 -0.495375
vn 0.968814 0.073521 0.236630
vn 0.212514 0.975846 0.050626
vn 0.982735 0.127410 -0.134163
vn 0.384216 0.871212 -0.305562
vn 0.177316 0.450108 0.875193
vn 0.390592 0.272504 0.879306
vn 0.205322 0.912142 0.354739
vn 0.275980 0.360039 0.891183
vn 0.852196 0.155242 0.499662
vn 0.958356 0.215866 0.186964
vn 0.532637 0.251174 0.808214
vn 0.175495 0.544035 0.820505
vn 0.941530 0.285287 -0.179258
vn 0.695546 0.213569 0.686006
vn 0.190804 0.795013 0.575802
vn 0.567455 0.769810 -0.292211
vn 0.179625 0.662310 0.727379
vn 0.389784 0.920496 0.027497
vn 0.864397 0.450563 -0.223184
vn 0.270699 0.439732 0.856363
vn 0.387733 0.348331 0.853422
vn 0.736894 0.622182 -0.264343
vn 0.847240 0.274453 0.454819
vn 0.357295 0.876520 0.322574
vn 0.923766 0.360693 0.128677
vn 0.530401 0.333263 0.779494
vn 0.269880 0.532284 0.802395
vn 0.692827 0.310953 0.650614
vn 0.565981 0.824299 0.014008
vn 0.315003 0.774680 0.548310
vn 0.853886 0.515672 0.070442
vn 0.283467 0.648301 0.706649
vn 0.381191 0.428669 0.819107
vn 0.731357 0.681393 0.028647
vn 0.827315 0.398018 0.396397
vn 0.515797 0.803909 0.296114
vn 0.522464 0.419811 0.742153
vn 0.375688 0.517015 0.769126
vn 0.682188 0.412674 0.603589
vn 0.446016 0.729595 0.518421
vn 0.774888 0.534589 0.337289
vn 0.667186 0.681889 0.299817
vn 0.391504 0.622536 0.677624
vn 0.506427 0.511934 0.693870
vn 0.649497 0.524532 0.550473
vn 0.574698 0.642217 0.507227
vn 0.477909 0.595299 0.645927
s 1
g textureEditorIsolateSelectSet L_blackEye Jake
usemtl lambert2SG
f 1/1/1 2/2/2 3/3/3
f 2/2/2 1/1/1 4/4/4
f 3/3/3 2/2/2 5/5/5
f 6/6/6 2/2/2 4/4/4
f 3/3/3 7/7/7 1/1/1
f 8/8/8 5/5/5 2/2/2
f 9/9/9 4/4/4 1/1/1
f 6/6/6 4/4/4 10/10/10
f 7/7/7 3/3/3 11/11/11
f 4/4/4 9/9/9 10/10/10
f 12/12/12 8/8/8 2/2/2
f 2/2/2 6/6/6 12/12/12
f 13/13/13 3/3/3 5/5/5
f 3/3/3 13/13/13 11/11/11
f 14/14/14 1/1/1 7/7/7
f 1/1/1 14/14/14 9/9/9
f 8/8/8 15/15/15 5/5/5
f 6/6/6 10/10/10 16/16/16
f 17/17/17 10/10/10 9/9/9
f 11/11/11 18/18/18 7/7/7
f 15/15/15 8/8/8 19/19/19
f 16/16/16 10/10/10 20/20/20
f 21/21/21 8/8/8 12/12/12
f 10/10/10 17/17/17 20/20/20
f 6/6/6 22/22/22 12/12/12
f 5/5/5 23/23/23 13/13/13
f 21/21/21 19/19/19 8/8/8
f 13/13/13 24/24/24 11/11/11
f 23/23/23 5/5/5 15/15/15
f 18/18/18 11/11/11 25/25/25
f 22/22/22 6/6/6 16/16/16
f 7/7/7 26/26/26 14/14/14
f 27/27/27 9/9/9 14/14/14
f 25/25/25 11/11/11 24/24/24
f 9/9/9 27/27/27 17/17/17
f 26/26/26 7/7/7 18/18/18
f 15/15/15 19/19/19 28/28/28
f 29/29/29 16/16/16 20/20/20
f 12/12/12 30/30/30 21/21/21
f 31/31/31 20/20/20 17/17/17
f 21/21/21 32/32/32 19/19/19
f 30/30/30 12/12/12 22/22/22
f 33/33/33 13/13/13 23/23/23
f 13/13/13 33/33/33 24/24/24
f 25/25/25 34/34/34 18/18/18
f 15/15/15 35/35/35 23/23/23
f 32/32/32 28/28/28 19/19/19
f 29/29/29 20/20/20 36/36/36
f 37/37/37 22/22/22 16/16/16
f 14/14/14 38/38/38 27/27/27
f 38/38/38 14/14/14 26/26/26
f 20/20/20 31/31/31 36/36/36
f 39/39/39 25/25/25 24/24/24
f 35/35/35 15/15/15 28/28/28
f 40/40/40 17/17/17 27/27/27
f 18/18/18 41/41/41 26/26/26
f 37/37/37 16/16/16 29/29/29
f 34/34/34 25/25/25 42/42/42
f 32/32/32 21/21/21 43/43/43
f 21/21/21 30/30/30 43/43/43
f 25/25/25 39/39/39 42/42/42
f 17/17/17 40/40/40 31/31/31
f 41/41/41 18/18/18 34/34/34
f 44/44/44 30/30/30 22/22/22
f 33/33/33 23/23/23 45/45/45
f 46/46/46 24/24/24 33/33/33
f 45/45/45 23/23/23 35/35/35
f 47/47/47 28/48/28 32/49/32
f 44/44/44 22/22/22 37/37/37
f 48/50/48 29/29/29 36/36/36
f 24/24/24 46/46/46 39/39/39
f 43/51/43 47/47/47 32/49/32
f 49/52/49 36/36/36 31/31/31
f 50/53/50 35/54/35 28/48/28
f 51/55/51 43/43/43 30/30/30
f 26/26/26 52/56/52 38/38/38
f 53/57/53 27/27/27 38/38/38
f 52/56/52 26/26/26 41/41/41
f 27/27/27 53/57/53 40/40/40
f 42/42/42 54/58/54 34/34/34
f 39/39/39 55/59/55 42/42/42
f 28/48/28 47/47/47 50/53/50
f 29/29/29 56/60/56 37/37/37
f 48/50/48 36/36/36 57/61/57
f 44/44/44 51/55/51 30/30/30
f 36/36/36 49/52/49 57/61/57
f 58/62/58 31/31/31 40/40/40
f 34/34/34 59/63/59 41/41/41
f 51/64/51 60/65/60 43/51/43
f 47/47/47 43/51/43 60/65/60
f 56/60/56 29/29/29 48/50/48
f 54/58/54 42/42/42 55/59/55
f 61/66/61 45/67/45 35/54/35
f 35/54/35 50/53/50 61/66/61
f 31/31/31 58/62/58 49/52/49
f 62/68/62 33/33/33 45/45/45
f 59/63/59 34/34/34 54/58/54
f 46/46/46 63/69/63 39/39/39
f 33/33/33 62/68/62 46/46/46
f 55/59/55 39/39/39 63/69/63
f 64/70/64 44/44/44 37/37/37
f 51/55/51 44/44/44 65/71/65
f 66/72/66 38/38/38 52/56/52
f 38/38/38 66/72/66 53/57/53
f 67/73/67 50/53/50 47/47/47
f 64/70/64 37/37/37 56/60/56
f 60/65/60 51/64/51 68/74/68
f 41/41/41 69/75/69 52/56/52
f 70/76/70 40/40/40 53/57/53
f 45/67/45 61/66/61 71/77/71
f 72/78/72 57/61/57 49/52/49
f 73/79/73 48/50/48 57/61/57
f 61/66/61 50/53/50 74/80/74
f 69/75/69 41/41/41 59/63/59
f 75/81/75 47/47/47 60/65/60
f 40/40/40 70/76/70 58/62/58
f 65/82/65 68/74/68 51/64/51
f 63/69/63 46/46/46 76/83/76
f 71/77/71 62/84/62 45/67/45
f 55/59/55 77/85/77 54/58/54
f 65/71/65 44/44/44 64/70/64
f 62/68/62 76/83/76 46/46/46
f 50/53/50 67/73/67 74/80/74
f 78/86/78 55/59/55 63/69/63
f 58/62/58 79/87/79 49/52/49
f 77/85/77 59/63/59 54/58/54
f 80/88/80 56/60/56 48/50/48
f 47/47/47 75/81/75 67/73/67
f 73/79/73 57/61/57 72/78/72
f 72/78/72 49/52/49 79/87/79
f 81/89/81 71/77/71 61/66/61
f 74/80/74 81/89/81 61/66/61
f 77/85/77 55/59/55 78/86/78
f 80/88/80 48/50/48 73/79/73
f 82/90/82 60/65/60 68/74/68
f 76/83/76 83/91/83 63/69/63
f 68/74/68 65/82/65 84/92/84
f 52/56/52 85/93/85 66/72/66
f 86/94/86 53/57/53 66/72/66
f 87/95/87 69/75/69 59/63/59
f 60/65/60 82/90/82 75/81/75
f 85/93/85 52/56/52 69/75/69
f 62/84/62 71/77/71 88/96/88
f 63/69/63 83/91/83 78/86/78
f 59/63/59 77/85/77 87/95/87
f 89/97/89 65/71/65 64/70/64
f 53/57/53 86/94/86 70/76/70
f 90/98/90 58/62/58 70/76/70
f 91/99/91 64/70/64 56/60/56
f 79/87/79 58/62/58 90/98/90
f 76/83/76 62/68/62 92/100/92
f 93/101/93 74/80/74 67/73/67
f 89/102/89 84/92/84 65/82/65
f 91/99/91 56/60/56 80/88/80
f 71/77/71 81/89/81 94/103/94
f 95/104/95 67/73/67 75/81/75
f 96/105/96 81/89/81 74/80/74
f 97/106/97 73/79/73 72/78/72
f 72/78/72 79/87/79 97/106/97
f 88/96/88 71/77/71 94/103/94
f 83/91/83 76/83/76 98/107/98
f 78/86/78 99/108/99 77/85/77
f 98/107/98 76/83/76 92/100/92
f 69/75/69 87/95/87 100/109/100
f 74/80/74 93/101/93 96/105/96
f 80/88/80 73/79/73 101/110/101
f 102/111/102 68/74/68 84/92/84
f 103/112/103 62/84/62 88/96/88
f 77/85/77 99/108/99 87/95/87
f 67/73/67 95/104/95 93/101/93
f 62/84/62 103/112/103 92/113/92
f 83/91/83 104/114/104 78/86/78
f 90/98/90 70/76/70 105/115/105
f 68/74/68 102/111/102 82/90/82
f 100/109/100 85/93/85 69/75/69
f 79/87/79 90/98/90 106/116/106
f 107/117/107 89/97/89 64/70/64
f 73/79/73 97/106/97 101/110/101
f 108/118/108 94/103/94 81/89/81
f 97/106/97 79/87/79 106/116/106
f 99/108/99 78/86/78 104/114/104
f 84/92/84 89/102/89 109/119/109
f 81/89/81 96/105/96 108/118/108
f 107/117/107 64/70/64 91/99/91
f 110/120/110 66/72/66 85/93/85
f 82/90/82 111/121/111 75/81/75
f 66/72/66 110/120/110 86/94/86
f 112/122/112 70/76/70 86/94/86
f 111/121/111 95/104/95 75/81/75
f 113/123/113 91/99/91 80/88/80
f 94/103/94 114/124/114 88/96/88
f 87/95/87 115/125/115 100/109/100
f 99/108/99 115/125/115 87/95/87
f 98/107/98 116/126/116 83/91/83
f 113/123/113 80/88/80 101/110/101
f 70/76/70 112/122/112 105/115/105
f 104/114/104 83/91/83 116/126/116
f 117/127/117 96/105/96 93/101/93
f 92/100/92 118/128/118 98/107/98
f 84/92/84 109/119/109 102/111/102
f 90/98/90 105/115/105 119/129/119
f 106/116/106 90/98/90 119/129/119
f 85/93/85 100/109/100 120/130/120
f 121/131/121 93/101/93 95/104/95
f 94/103/94 108/118/108 122/132/122
f 104/114/104 123/133/123 99/108/99
f 122/132/122 114/124/114 94/103/94
f 124/134/124 101/110/101 97/106/97
f 96/105/96 117/127/117 125/135/125
f 93/101/93 121/131/121 117/127/117
f 120/130/120 110/120/110 85/93/85
f 103/112/103 88/96/88 126/136/126
f 124/134/124 97/106/97 106/116/106
f 123/133/123 115/125/115 99/108/99
f 127/137/127 109/119/109 89/102/89
f 128/138/128 92/113/92 103/112/103
f 126/136/126 88/96/88 114/124/114
f 100/109/100 115/125/115 129/139/129
f 130/140/130 82/90/82 102/111/102
f 91/99/91 113/123/113 131/141/131
f 96/105/96 132/142/132 108/118/108
f 127/137/127 89/102/89 107/143/107
f 116/126/116 98/107/98 133/144/133
f 92/113/92 128/138/128 118/145/118
f 118/128/118 133/144/133 98/107/98
f 82/90/82 130/140/130 111/121/111
f 120/130/120 100/109/100 129/139/129
f 134/146/134 104/114/104 116/126/116
f 135/147/135 113/123/113 101/110/101
f 119/129/119 105/115/105 136/148/136
f 132/142/132 96/105/96 125/135/125
f 137/149/137 102/111/102 109/119/109
f 119/129/119 138/150/138 106/116/106
f 123/133/123 104/114/104 134/146/134
f 139/151/139 86/94/86 110/120/110
f 105/115/105 112/122/112 136/148/136
f 91/99/91 140/152/140 107/117/107
f 141/153/141 95/104/95 111/121/111
f 86/94/86 139/151/139 112/122/112
f 101/110/101 124/134/124 135/147/135
f 132/142/132 122/132/122 108/118/108
f 124/134/124 106/116/106 138/150/138
f 115/125/115 123/133/123 142/154/142
f 95/104/95 141/153/141 121/131/121
f 115/125/115 142/154/142 129/139/129
f 140/152/140 91/99/91 131/141/131
f 114/124/114 122/132/122 143/155/143
f 144/156/144 125/135/125 117/127/117
f 127/137/127 137/149/137 109/119/109
f 110/120/110 120/130/120 145/157/145
f 144/156/144 117/127/117 121/131/121
f 146/158/146 131/141/131 113/123/113
f 133/144/133 147/159/147 116/126/116
f 134/146/134 142/154/142 123/133/123
f 116/126/116 147/159/147 134/146/134
f 113/123/113 135/147/135 146/158/146
f 143/155/143 126/136/126 114/124/114
f 133/144/133 118/128/118 148/160/148
f 120/130/120 129/139/129 149/161/149
f 150/162/150 119/129/119 136/148/136
f 138/150/138 119/129/119 150/162/150
f 151/163/151 103/112/103 126/136/126
f 152/164/152 102/111/102 137/149/137
f 103/112/103 151/163/151 128/138/128
f 153/165/153 135/147/135 124/134/124
f 136/148/136 112/122/112 154/166/154
f 152/164/152 130/140/130 102/111/102
f 124/134/124 138/150/138 153/165/153
f 149/161/149 145/157/145 120/130/120
f 122/132/122 132/142/132 155/167/155
f 129/139/129 142/154/142 156/168/156
f 143/155/143 122/132/122 155/167/155
f 157/169/157 118/145/118 128/138/128
f 158/170/158 127/137/127 107/143/107
f 142/154/142 134/146/134 159/171/159
f 160/172/160 111/121/111 130/140/130
f 161/173/161 132/142/132 125/135/125
f 160/172/160 141/153/141 111/121/111
f 156/168/156 149/161/149 129/139/129
f 118/145/118 157/169/157 148/174/148
f 147/159/147 159/171/159 134/146/134
f 158/170/158 107/143/107 140/175/140
f 161/173/161 125/135/125 144/156/144
f 137/149/137 127/137/127 162/176/162
f 147/159/147 133/144/133 163/177/163
f 164/178/164 110/120/110 145/157/145
f 131/141/131 146/158/146 165/179/165
f 110/120/110 164/178/164 139/151/139
f 163/177/163 133/144/133 148/160/148
f 146/158/146 135/147/135 166/180/166
f 167/181/167 121/131/121 141/153/141
f 144/156/144 121/131/121 167/181/167
f 126/136/126 143/155/143 168/182/168
f 135/147/135 153/165/153 166/180/166
f 138/150/138 150/162/150 169/183/169
f 159/171/159 156/168/156 142/154/142
f 170/184/170 112/122/112 139/151/139
f 153/165/153 138/150/138 169/183/169
f 150/162/150 136/148/136 171/185/171
f 112/122/112 170/184/170 154/166/154
f 154/166/154 171/185/171 136/148/136
f 172/186/172 140/152/140 131/141/131
f 162/176/162 152/164/152 137/149/137
f 168/182/168 151/163/151 126/136/126
f 145/157/145 149/161/149 173/187/173
f 127/137/127 158/170/158 162/176/162
f 172/186/172 131/141/131 165/179/165
f 174/188/174 143/155/143 155/167/155
f 153/165/153 169/183/169 166/180/166
f 159/171/159 147/159/147 175/189/175
f 176/190/176 155/167/155 132/142/132
f 163/177/163 175/189/175 147/159/147
f 149/161/149 156/168/156 177/191/177
f 174/188/174 168/182/168 143/155/143
f 178/192/178 146/158/146 166/180/166
f 178/192/178 165/179/165 146/158/146
f 151/163/151 179/193/179 128/138/128
f 176/190/176 132/142/132 161/173/161
f 148/160/148 180/194/180 163/177/163
f 169/183/169 150/162/150 181/195/181
f 156/168/156 159/171/159 182/196/182
f 183/197/183 130/140/130 152/164/152
f 157/169/157 128/138/128 179/193/179
f 150/162/150 171/185/171 181/195/181
f 130/140/130 183/197/183 160/172/160
f 149/161/149 177/191/177 173/187/173
f 144/156/144 184/198/184 161/173/161
f 185/199/185 141/153/141 160/172/160
f 171/185/171 154/166/154 186/200/186
f 187/201/187 166/180/166 169/183/169
f 185/199/185 167/181/167 141/153/141
f 182/196/182 159/171/159 175/189/175
f 184/198/184 144/156/144 167/181/167
f 177/191/177 156/168/156 182/196/182
f 151/163/151 168/182/168 188/202/188
f 152/164/152 162/176/162 189/203/189
f 190/204/190 148/174/148 157/169/157
f 191/205/191 158/170/158 140/175/140
f 176/190/176 174/188/174 155/167/155
f 145/157/145 192/206/192 164/178/164
f 186/200/186 154/166/154 170/184/170
f 192/206/192 145/157/145 173/187/173
f 193/207/193 139/151/139 164/178/164
f 194/208/194 162/176/162 158/170/158
f 187/201/187 178/192/178 166/180/166
f 139/151/139 193/207/193 170/184/170
f 181/195/181 187/201/187 169/183/169
f 148/174/148 190/204/190 180/209/180
f 191/205/191 140/175/140 172/210/172
f 175/189/175 163/177/163 195/211/195
f 165/179/165 178/192/178 196/212/196
f 168/182/168 174/188/174 197/213/197
f 194/208/194 189/203/189 162/176/162
f 189/203/189 183/197/183 152/164/152
f 181/195/181 171/185/171 198/214/198
f 188/202/188 168/182/168 197/213/197
f 171/185/171 186/200/186 198/214/198
f 173/187/173 177/191/177 199/215/199
f 200/216/200 163/177/163 180/194/180
f 165/179/165 201/217/201 172/186/172
f 202/218/202 151/163/151 188/202/188
f 182/196/182 175/189/175 203/219/203
f 191/205/191 194/208/194 158/170/158
f 151/163/151 202/218/202 179/193/179
f 177/191/177 182/196/182 204/220/204
f 187/201/187 205/221/205 178/192/178
f 174/188/174 176/190/176 206/222/206
f 163/177/163 200/216/200 195/211/195
f 161/173/161 207/223/207 176/190/176
f 201/217/201 165/179/165 196/212/196
f 186/200/186 170/184/170 208/224/208
f 187/201/187 181/195/181 209/225/209
f 195/211/195 203/219/203 175/189/175
f 210/226/210 157/169/157 179/193/179
f 206/222/206 197/213/197 174/188/174
f 207/223/207 161/173/161 184/198/184
f 211/227/211 160/172/160 183/197/183
f 185/199/185 160/172/160 211/227/211
f 157/169/157 210/226/210 190/204/190
f 181/195/181 198/214/198 209/225/209
f 204/220/204 199/215/199 177/191/177
f 212/228/212 184/198/184 167/181/167
f 212/228/212 167/181/167 185/199/185
f 204/220/204 182/196/182 203/219/203
f 189/203/189 194/208/194 213/229/213
f 214/230/214 164/178/164 192/206/192
f 164/178/164 214/230/214 193/207/193
f 183/197/183 189/203/189 215/231/215
f 197/213/197 216/232/216 188/202/188
f 178/192/178 217/233/217 196/212/196
f 173/187/173 218/234/218 192/206/192
f 218/234/218 173/187/173 199/215/199
f 219/235/219 170/184/170 193/207/193
f 198/214/198 186/200/186 220/236/220
f 217/233/217 178/192/178 205/221/205
f 194/208/194 191/205/191 221/237/221
f 216/232/216 202/218/202 188/202/188
f 206/222/206 176/190/176 207/223/207
f 222/238/222 180/209/180 190/204/190
f 170/184/170 219/235/219 208/224/208
f 223/239/223 191/205/191 172/210/172
f 186/200/186 208/224/208 220/236/220
f 202/218/202 210/226/210 179/193/179
f 215/231/215 189/203/189 213/229/213
f 187/201/187 224/240/224 205/221/205
f 203/219/203 195/211/195 225/241/225
f 221/237/221 213/229/213 194/208/194
f 224/240/224 187/201/187 209/225/209
f 180/209/180 222/238/222 200/242/200
f 223/239/223 172/210/172 201/243/201
f 215/231/215 211/227/211 183/197/183
f 197/213/197 206/222/206 226/244/226
f 198/214/198 227/245/227 209/225/209
f 226/244/226 216/232/216 197/213/197
f 199/215/199 204/220/204 228/246/228
f 204/220/204 203/219/203 229/247/229
f 220/236/220 227/245/227 198/214/198
f 210/226/210 222/238/222 190/204/190
f 221/237/221 191/205/191 223/239/223
f 230/248/230 195/211/195 200/216/200
f 196/212/196 231/249/231 201/217/201
f 202/218/202 216/232/216 232/250/232
f 233/251/233 207/223/207 184/198/184
f 210/226/210 202/218/202 234/252/234
f 229/247/229 203/219/203 225/241/225
f 233/251/233 184/198/184 212/228/212
f 235/253/235 185/199/185 211/227/211
f 236/254/236 206/222/206 207/223/207
f 185/199/185 235/253/235 212/228/212
f 220/236/220 208/224/208 237/255/237
f 195/211/195 230/248/230 225/241/225
f 231/249/231 196/212/196 217/233/217
f 204/220/204 229/247/229 228/246/228
f 209/225/209 227/245/227 224/240/224
f 238/256/238 215/231/215 213/229/213
f 239/257/239 193/207/193 214/230/214
f 213/229/213 221/237/221 240/258/240
f 192/206/192 241/259/241 214/230/214
f 234/252/234 202/218/202 232/250/232
f 236/254/236 226/244/226 206/222/206
f 241/259/241 192/206/192 218/234/218
f 193/207/193 239/257/239 219/235/219
f 211/227/211 215/231/215 242/260/242
f 199/215/199 243/261/243 218/234/218
f 216/232/216 226/244/226 244/262/244
f 245/263/245 217/233/217 205/221/205
f 243/261/243 199/215/199 228/246/228
f 240/258/240 238/256/238 213/229/213
f 244/262/244 232/250/232 216/232/216
f 231/264/231 223/239/223 201/243/201
f 246/265/246 208/224/208 219/235/219
f 245/263/245 205/221/205 224/240/224
f 222/238/222 210/226/210 247/266/247
f 234/252/234 247/266/247 210/226/210
f 227/245/227 220/236/220 248/267/248
f 238/256/238 242/260/242 215/231/215
f 223/239/223 249/268/249 221/237/221
f 208/224/208 246/265/246 237/255/237
f 249/268/249 240/258/240 221/237/221
f 232/250/232 250/269/250 234/252/234
f 248/267/248 220/236/220 237/255/237
f 251/270/251 200/242/200 222/238/222
f 229/247/229 225/241/225 252/271/252
f 242/260/242 235/253/235 211/227/211
f 224/240/224 227/245/227 253/272/253
f 228/246/228 229/247/229 254/273/254
f 200/242/200 251/270/251 230/274/230
f 226/244/226 236/254/236 255/275/255
f 256/276/256 236/254/236 207/223/207
f 244/262/244 226/244/226 255/275/255
f 257/277/257 250/269/250 232/250/232
f 256/276/256 207/223/207 233/251/233
f 238/256/238 240/258/240 258/278/258
f 232/250/232 244/262/244 257/277/257
f 259/279/259 234/252/234 250/269/250
f 227/245/227 248/267/248 253/272/253
f 214/230/214 260/280/260 239/257/239
f 260/280/260 214/230/214 241/259/241
f 247/266/247 234/252/234 259/279/259
f 223/239/223 231/264/231 261/281/261
f 233/251/233 212/228/212 262/282/262
f 251/270/251 222/238/222 247/266/247
f 262/282/262 212/228/212 235/253/235
f 249/268/249 223/239/223 261/281/261
f 252/271/252 254/273/254 229/247/229
f 263/283/263 219/235/219 239/257/239
f 264/284/264 225/241/225 230/248/230
f 240/258/240 249/268/249 265/285/265
f 217/233/217 266/286/266 231/249/231
f 242/260/242 238/256/238 267/287/267
f 241/259/241 218/234/218 268/288/268
f 219/235/219 263/283/263 246/265/246
f 243/261/243 268/288/268 218/234/218
f 240/258/240 265/285/265 258/278/258
f 225/241/225 264/284/264 252/271/252
f 266/286/266 217/233/217 245/263/245
f 248/267/248 237/255/237 269/289/269
f 258/278/258 267/287/267 238/256/238
f 246/265/246 269/289/269 237/255/237
f 235/253/235 242/260/242 270/290/270
f 250/269/250 257/277/257 271/291/271
f 228/246/228 272/292/272 243/261/243
f 256/276/256 255/275/255 236/254/236
f 250/269/250 271/291/271 259/279/259
f 224/240/224 273/293/273 245/263/245
f 272/292/272 228/246/228 254/273/254
f 273/293/273 224/240/224 253/272/253
f 274/294/274 257/277/257 244/262/244
f 274/294/274 244/262/244 255/275/255
f 270/290/270 242/260/242 267/287/267
f 266/295/266 261/281/261 231/264/231
f 253/272/253 248/267/248 275/296/275
f 259/279/259 276/297/276 247/266/247
f 249/268/249 277/298/277 265/285/265
f 258/278/258 265/285/265 278/299/278
f 277/298/277 249/268/249 261/281/261
f 247/266/247 276/297/276 251/270/251
f 279/300/279 239/257/239 260/280/260
f 270/290/270 262/282/262 235/253/235
f 254/273/254 252/271/252 280/301/280
f 239/257/239 279/300/279 263/283/263
f 248/267/248 269/289/269 275/296/275
f 281/302/281 230/274/230 251/270/251
f 267/287/267 258/278/258 282/303/282
f 241/259/241 283/304/283 260/280/260
f 278/299/278 282/303/282 258/278/258
f 271/291/271 257/277/257 284/305/284
f 269/289/269 246/265/246 285/306/285
f 286/307/286 259/279/259 271/291/271
f 233/251/233 287/308/287 256/276/256
f 283/304/283 241/259/241 268/288/268
f 230/274/230 281/302/281 264/309/264
f 255/275/255 256/276/256 288/310/288
f 287/308/287 233/251/233 262/282/262
f 265/285/265 289/311/289 278/299/278
f 257/277/257 274/294/274 284/305/284
f 272/292/272 254/273/254 280/301/280
f 290/312/290 246/265/246 263/283/263
f 288/310/288 274/294/274 255/275/255
f 276/297/276 259/279/259 286/307/286
f 277/298/277 289/311/289 265/285/265
f 291/313/291 270/290/270 267/287/267
f 243/261/243 292/314/292 268/288/268
f 261/281/261 266/295/266 293/315/293
f 245/263/245 294/316/294 266/286/266
f 277/298/277 261/281/261 293/315/293
f 295/317/295 252/271/252 264/284/264
f 246/265/246 290/312/290 285/306/285
f 276/297/276 281/302/281 251/270/251
f 292/314/292 243/261/243 272/292/272
f 282/303/282 291/313/291 267/287/267
f 296/318/296 253/272/253 275/296/275
f 294/316/294 245/263/245 273/293/273
f 252/271/252 295/317/295 280/301/280
f 282/303/282 278/299/278 297/319/297
f 298/320/298 271/291/271 284/305/284
f 296/318/296 273/293/273 253/272/253
f 262/282/262 270/290/270 299/321/299
f 260/280/260 300/322/300 279/300/279
f 279/300/279 290/312/290 263/283/263
f 271/291/271 298/320/298 286/307/286
f 275/296/275 269/289/269 301/323/301
f 278/299/278 289/311/289 297/319/297
f 269/289/269 285/306/285 301/323/301
f 283/304/283 300/322/300 260/280/260
f 291/313/291 299/321/299 270/290/270
f 302/324/302 284/305/284 274/294/274
f 274/294/274 288/310/288 302/324/302
f 272/292/272 280/301/280 303/325/303
f 294/326/294 293/315/293 266/295/266
f 290/312/290 279/300/279 300/322/300
f 304/327/304 289/311/289 277/298/277
f 256/276/256 305/328/305 288/310/288
f 286/307/286 306/329/306 276/297/276
f 304/327/304 277/298/277 293/315/293
f 307/330/307 282/303/282 297/319/297
f 291/313/291 282/303/282 307/330/307
f 301/323/301 296/318/296 275/296/275
f 281/302/281 276/297/276 306/329/306
f 268/288/268 308/331/308 283/304/283
f 305/328/305 256/276/256 287/308/287
f 309/332/309 287/308/287 262/282/262
f 308/331/308 268/288/268 292/314/292
f 309/332/309 262/282/262 299/321/299
f 310/333/310 264/309/264 281/302/281
f 285/306/285 290/312/290 311/334/311
f 295/317/295 303/325/303 280/301/280
f 312/335/312 297/319/297 289/311/289
f 313/336/313 298/320/298 284/305/284
f 311/334/311 301/323/301 285/306/285
f 298/320/298 314/337/314 286/307/286
f 264/309/264 310/333/310 295/338/295
f 284/305/284 302/324/302 313/336/313
f 299/321/299 291/313/291 315/339/315
f 272/292/272 316/340/316 292/314/292
f 302/324/302 288/310/288 305/328/305
f 289/311/289 304/327/304 312/335/312
f 273/293/273 317/341/317 294/316/294
f 283/304/283 318/342/318 300/322/300
f 297/319/297 319/343/319 307/330/307
f 317/341/317 273/293/273 296/318/296
f 303/325/303 316/340/316 272/292/272
f 306/329/306 286/307/286 314/337/314
f 320/344/320 290/312/290 300/322/300
f 307/330/307 315/339/315 291/313/291
f 293/315/293 294/326/294 321/345/321
f 297/319/297 312/335/312 319/343/319
f 304/327/304 293/315/293 321/345/321
f 296/318/296 301/323/301 322/346/322
f 298/320/298 313/336/313 323/347/323
f 314/337/314 298/320/298 323/347/323
f 320/344/320 311/334/311 290/312/290
f 318/342/318 283/304/283 308/331/308
f 311/334/311 322/346/322 301/323/301
f 324/348/324 281/302/281 306/329/306
f 303/325/303 295/317/295 325/349/325
f 318/342/318 320/344/320 300/322/300
f 317/350/317 321/345/321 294/326/294
f 326/351/326 313/336/313 302/324/302
f 281/302/281 324/348/324 310/333/310
f 326/351/326 302/324/302 305/328/305
f 327/352/327 305/328/305 287/308/287
f 310/333/310 325/353/325 295/338/295
f 319/343/319 328/354/328 307/330/307
f 329/355/329 312/335/312 304/327/304
f 317/341/317 296/318/296 322/346/322
f 330/356/330 299/321/299 315/339/315
f 292/314/292 331/357/331 308/331/308
f 315/339/315 307/330/307 328/354/328
f 327/352/327 287/308/287 309/332/309
f 299/321/299 330/356/330 309/332/309
f 325/349/325 316/340/316 303/325/303
f 329/355/329 304/327/304 321/345/321
f 331/357/331 292/314/292 316/340/316
f 332/358/332 306/329/306 314/337/314
f 333/359/333 319/343/319 312/335/312
f 320/344/320 334/360/334 311/334/311
f 322/346/322 311/334/311 334/360/334
f 323/347/323 313/336/313 335/361/335
f 336/362/336 314/337/314 323/347/323
f 308/331/308 337/363/337 318/342/318
f 306/329/306 332/358/332 324/348/324
f 328/354/328 319/343/319 338/364/338
f 313/336/313 326/351/326 335/361/335
f 312/335/312 329/355/329 333/359/333
f 318/342/318 339/365/339 320/344/320
f 321/345/321 317/350/317 340/366/340
f 325/353/325 310/333/310 341/367/341
f 319/343/319 333/359/333 338/364/338
f 342/368/342 317/341/317 322/346/322
f 329/355/329 321/345/321 340/366/340
f 325/349/325 343/369/343 316/340/316
f 344/370/344 326/351/326 305/328/305
f 331/357/331 337/363/337 308/331/308
f 345/371/345 315/339/315 328/354/328
f 339/365/339 334/360/334 320/344/320
f 314/337/314 336/362/336 332/358/332
f 336/362/336 323/347/323 335/361/335
f 342/368/342 322/346/322 334/360/334
f 344/370/344 305/328/305 327/352/327
f 345/371/345 330/356/330 315/339/315
f 343/369/343 331/357/331 316/340/316
f 346/372/346 310/333/310 324/348/324
f 339/365/339 318/342/318 337/363/337
f 327/352/327 309/332/309 347/373/347
f 347/373/347 309/332/309 330/356/330
f 341/367/341 343/374/343 325/353/325
f 310/333/310 346/372/346 341/367/341
f 348/375/348 333/359/333 329/355/329
f 317/350/317 349/376/349 340/366/340
f 348/375/348 329/355/329 340/366/340
f 350/377/350 328/354/328 338/364/338
f 349/376/349 317/350/317 342/378/342
f 351/379/351 335/361/335 326/351/326
f 352/380/352 334/360/334 339/365/339
f 352/380/352 342/368/342 334/360/334
f 353/381/353 338/364/338 333/359/333
f 354/382/354 324/348/324 332/358/332
f 337/363/337 331/357/331 355/383/355
f 343/369/343 355/383/355 331/357/331
f 328/354/328 350/377/350 345/371/345
f 351/379/351 326/351/326 344/370/344
f 356/384/356 336/362/336 335/361/335
f 343/374/343 341/367/341 357/385/357
f 356/384/356 332/358/332 336/362/336
f 324/348/324 354/382/354 346/372/346
f 358/386/358 339/365/339 337/363/337
f 333/359/333 348/375/348 353/381/353
f 353/381/353 350/377/350 338/364/338
f 327/352/327 359/387/359 344/370/344
f 360/388/360 330/356/330 345/371/345
f 359/387/359 327/352/327 347/373/347
f 360/388/360 347/373/347 330/356/330
f 357/385/357 355/389/355 343/374/343
f 358/386/358 352/380/352 339/365/339
f 356/384/356 335/361/335 351/379/351
f 355/383/355 361/390/361 337/363/337
f 340/366/340 362/391/362 348/375/348
f 332/358/332 356/384/356 354/382/354
f 363/392/363 341/367/341 346/372/346
f 361/390/361 358/386/358 337/363/337
f 364/393/364 342/378/342 352/394/352
f 362/391/362 340/366/340 349/376/349
f 364/393/364 349/376/349 342/378/342
f 341/367/341 363/392/363 357/385/357
f 365/395/365 345/371/345 350/377/350
f 351/379/351 344/370/344 366/396/366
f 348/375/348 367/397/367 353/381/353
f 357/385/357 368/398/368 355/389/355
f 368/398/368 361/399/361 355/389/355
f 367/397/367 350/377/350 353/381/353
f 369/400/369 346/372/346 354/382/354
f 360/388/360 345/371/345 365/395/365
f 366/396/366 344/370/344 359/387/359
f 370/401/370 352/394/352 358/402/358
f 367/397/367 348/375/348 362/391/362
f 351/379/351 371/403/371 356/384/356
f 372/404/372 347/373/347 360/388/360
f 372/404/372 359/387/359 347/373/347
f 346/372/346 369/400/369 363/392/363
f 371/403/371 354/382/354 356/384/356
f 373/405/373 358/402/358 361/399/361
f 352/394/352 370/401/370 364/393/364
f 367/397/367 365/395/365 350/377/350
f 349/376/349 374/406/374 362/391/362
f 374/406/374 349/376/349 364/393/364
f 375/407/375 357/385/357 363/392/363
f 361/399/361 368/398/368 373/405/373
f 371/403/371 351/379/351 366/396/366
f 357/385/357 375/407/375 368/398/368
f 354/382/354 371/403/371 369/400/369
f 373/405/373 370/401/370 358/402/358
f 376/408/376 360/388/360 365/395/365
f 377/409/377 366/396/366 359/387/359
f 378/410/378 367/397/367 362/391/362
f 359/387/359 372/404/372 377/409/377
f 360/388/360 376/408/376 372/404/372
f 379/411/379 363/392/363 369/400/369
f 365/395/365 367/397/367 378/410/378
f 380/412/380 364/393/364 370/401/370
f 378/410/378 362/391/362 374/406/374
f 368/398/368 381/413/381 373/405/373
f 364/393/364 380/412/380 374/406/374
f 363/392/363 379/411/379 375/407/375
f 382/414/382 371/403/371 366/396/366
f 381/413/381 368/398/368 375/407/375
f 382/414/382 369/400/369 371/403/371
f 381/413/381 370/401/370 373/405/373
f 376/408/376 365/395/365 378/410/378
f 366/396/366 377/409/377 382/414/382
f 369/400/369 382/414/382 379/411/379
f 370/401/370 381/413/381 380/412/380
f 377/409/377 372/404/372 383/415/383
f 383/415/383 372/404/372 376/408/376
f 374/406/374 384/416/384 378/410/378
f 384/416/384 374/406/374 380/412/380
f 385/417/385 375/407/375 379/411/379
f 375/407/375 385/417/385 381/413/381
f 377/409/377 386/418/386 382/414/382
f 376/408/376 378/410/378 384/416/384
f 386/418/386 379/411/379 382/414/382
f 386/418/386 377/409/377 383/415/383
f 385/417/385 380/412/380 381/413/381
f 383/415/383 376/408/376 384/416/384
f 379/411/379 386/418/386 385/417/385
f 385/417/385 384/416/384 380/412/380
f 386/418/386 383/415/383 385/417/385
f 384/416/384 385/417/385 383/415/383
