# This file uses centimeters as units for non-parametric coordinates.

mtllib L_leg.mtl
g default
v 1.826148 0.064546 0.237924
v 1.485684 0.063943 0.411168
v 1.498037 0.191090 0.447625
v 1.307619 0.064245 0.762779
v 1.648986 0.040743 0.519936
v 1.494121 0.040743 0.755548
v 1.832173 0.191691 0.282817
v 1.324492 0.190186 0.789594
v 1.859892 0.040743 0.458170
v 1.302196 0.064245 0.998090
v 1.510089 0.374276 0.495230
v 1.492915 0.040743 0.951691
v 1.611927 0.040743 0.763984
v 1.723406 0.040743 0.656121
v 1.864412 0.040743 0.582906
v 2.233799 0.064245 0.326806
v 1.300689 0.189884 1.010745
v 1.332627 0.372770 0.803153
v 1.830667 0.374879 0.348499
v 1.647781 0.040743 0.898362
v 1.802948 0.040743 0.803755
v 1.340460 0.064245 1.232498
v 1.517019 0.565900 0.540122
v 2.084055 0.040743 0.541026
v 1.536301 0.040743 1.162899
v 1.298580 0.369455 1.031233
v 2.233197 0.189282 0.362057
v 1.822532 0.565900 0.413880
v 1.976493 0.040743 0.681731
v 1.332627 0.563791 0.809781
v 2.197644 0.378494 0.417194
v 1.713162 0.040743 1.090889
v 1.358839 0.190186 1.231895
v 1.899964 0.040743 0.988449
v 2.269051 0.040743 0.694385
v 1.295266 0.552944 1.052022
v 2.115390 0.040743 0.842622
v 1.601683 0.040743 1.381940
v 1.519030 0.949347 0.619308
v 1.374506 0.365237 1.240934
v 1.424822 0.190488 1.428339
v 2.431148 0.189282 0.498243
v 1.395597 0.064546 1.434064
v 2.149436 0.582170 0.476248
v 2.453443 0.064546 0.485889
v 1.798752 0.950955 0.528084
v 1.326470 0.943094 0.841252
v 1.791800 0.040743 1.313546
v 1.471222 0.361923 1.420807
v 2.004212 0.040743 1.209901
v 1.380833 0.539386 1.255998
v 1.463690 0.064546 1.627194
v 2.409153 0.373071 0.561514
v 1.485986 0.190186 1.605802
v 2.279295 0.040743 1.048708
v 1.282323 0.936663 1.091958
v 2.441994 0.040743 0.896855
v 2.629399 0.064245 0.683539
v 1.687551 0.040743 1.620264
v 1.510559 1.230411 0.669108
v 2.083312 0.948275 0.574067
v 1.519731 0.532758 1.414479
v 1.559200 0.362526 1.587122
v 2.385351 0.568612 0.651902
v 1.313840 1.230110 0.877391
v 1.777476 1.230411 0.592836
v 1.884900 0.040743 1.560005
v 2.620361 0.189282 0.712764
v 2.110569 0.040743 1.462988
v 1.376449 0.932554 1.294241
v 1.636030 0.064546 1.993266
v 1.656819 0.188980 1.956810
v 1.270525 1.229808 1.123038
v 2.402223 0.040743 1.326502
v 1.671282 0.522513 1.594353
v 1.816205 0.040743 1.901673
v 2.627290 0.040743 1.179168
v 1.495335 1.567761 0.719905
v 2.602885 0.370058 0.813698
v 2.857178 0.064245 1.061061
v 1.721598 0.355295 1.914930
v 2.039349 1.230411 0.636012
v 1.294661 1.563845 0.919750
v 2.311418 0.967210 0.758975
v 1.749826 1.569570 0.656034
v 1.561616 0.936127 1.434204
v 2.212407 0.040743 1.731441
v 1.992462 0.040743 1.821830
v 1.361425 1.229507 1.322597
v 1.255632 1.560832 1.157251
v 2.831568 0.188679 1.061663
v 2.579385 0.543603 0.964647
v 1.862001 0.713534 1.651900
v 1.821929 0.505038 1.886909
v 1.821929 0.822904 1.487393
v 2.498034 0.040743 1.611225
v 1.964139 0.040743 2.140599
v 1.477549 1.882256 0.759163
v 1.544334 1.229808 1.460344
v 1.990237 1.569570 0.698939
v 1.877066 0.188378 2.214717
v 2.252842 1.230411 0.788354
v 2.085863 0.040742 2.065576
v 1.275983 1.879846 0.953197
v 2.762873 0.040743 1.500348
v 2.424217 0.825917 1.047201
v 1.860193 0.064244 2.259007
v 1.720996 1.883461 0.703724
v 1.342910 1.560832 1.352536
v 2.791496 0.361622 1.136686
v 2.297071 0.040742 1.994471
v 1.924067 0.323959 2.160786
v 2.982817 0.063942 1.404837
v 1.802912 0.992933 1.500109
v 1.239526 1.879243 1.184892
v 1.965044 0.654480 1.871242
v 2.585711 0.040742 1.878773
v 1.520760 1.563543 1.491252
v 2.396452 0.992219 1.032125
v 2.122621 0.040742 2.249667
v 2.187688 1.569570 0.832805
v 2.020181 0.909074 1.472931
v 2.003911 0.468280 2.097815
v 1.440189 2.336306 0.790498
v 1.946665 1.883461 0.747713
v 2.543831 0.718355 1.177361
v 2.742385 0.522211 1.263832
v 2.952085 0.187172 1.417491
v 1.247963 2.335403 0.978505
v 1.778152 1.230411 1.520890
v 2.151846 0.064244 2.404231
v 2.825240 0.040742 1.798328
v 1.328107 1.879544 1.375612
v 2.079536 0.809346 1.627495
v 1.669474 2.336909 0.743797
v 2.013206 1.012940 1.479983
v 2.332624 0.900337 1.266544
v 2.355249 1.230712 1.021107
v 2.353413 0.040742 2.243641
v 2.157269 0.188378 2.355723
v 2.194028 0.923837 1.400921
v 2.905987 0.320947 1.460275
v 2.327219 1.015798 1.256091
v 1.999344 1.231014 1.495502
v 2.435968 0.810852 1.386760
v 3.007523 0.064545 1.758557
v 1.217532 2.335403 1.201765
v 1.748150 1.565954 1.548770
v 2.191623 1.021158 1.399670
v 2.671881 0.040742 2.110168
v 2.275378 0.838270 1.539818
v 2.685741 0.654781 1.393087
v 2.131961 1.883762 0.873353
v 1.503159 1.880147 1.510592
v 2.173841 0.743964 1.815804
v 2.171129 0.304677 2.290643
v 2.101832 0.596631 2.036652
v 2.314533 1.231014 1.240740
v 1.878572 2.337210 0.791100
v 2.185532 1.231014 1.398984
v 2.759256 0.040742 2.025805
v 2.827650 0.500819 1.544638
v 2.294142 1.569871 1.032820
v 1.394995 2.791261 0.797428
v 2.194027 0.439958 2.202967
v 2.554979 0.741855 1.575069
v 2.981913 0.187774 1.752832
v 2.424819 0.064244 2.423514
v 2.377215 0.771985 1.716979
v 1.972903 1.567761 1.518695
v 1.303702 2.335704 1.386458
v 2.280499 0.664724 1.970669
v 2.426024 0.188076 2.363858
v 2.229882 0.561681 2.104142
v 1.611927 2.791864 0.756452
v 1.187704 2.791562 1.197848
v 1.216930 2.790960 0.975493
v 2.705927 0.064244 2.312939
v 2.937321 0.300760 1.746204
v 2.928283 0.064244 2.064672
v 2.783360 0.582169 1.593448
v 1.721899 1.880749 1.564825
v 2.416082 0.301965 2.294259
v 2.162053 1.568665 1.408378
v 2.279125 1.569570 1.238971
v 2.394991 0.445382 2.194229
v 2.052118 2.337512 0.913727
v 2.650490 0.658698 1.741082
v 1.470619 2.336005 1.516618
v 2.474232 0.686116 1.873350
v 2.368477 0.569214 2.093596
v 2.891826 0.187473 2.045992
v 2.805053 0.542097 1.729633
v 2.865613 0.448997 1.737767
v 2.236510 1.883160 1.059252
v 2.686343 0.187774 2.262321
v 2.845728 0.311908 2.001400
v 2.655310 0.313414 2.193928
v 1.803249 2.792466 0.808274
v 2.786071 0.448394 1.936923
v 2.558594 0.580963 2.007426
v 2.612225 0.447491 2.107757
v 1.270861 2.791864 1.378324
v 2.727319 0.564091 1.872145
v 1.938229 1.881352 1.535599
v 1.186801 3.244107 0.960127
v 2.231690 1.882557 1.256299
v 2.122621 1.881955 1.425928
v 1.678211 2.336306 1.569947
v 1.555284 3.244709 0.743496
v 1.156672 3.245010 1.177360
v 1.351609 3.243805 0.783870
v 1.961730 2.792768 0.929997
v 2.150038 2.337210 1.089683
v 1.426330 2.792165 1.503361
v 1.883996 2.336306 1.541926
v 1.730035 3.245613 0.796223
v 1.232899 3.245914 1.351810
v 1.145524 3.689722 0.933613
v 2.150340 2.337210 1.275883
v 2.052721 2.336909 1.436172
v 1.504968 3.690325 0.712764
v 1.624581 2.792466 1.553677
v 1.309428 3.689120 0.750125
v 1.119914 3.691831 1.144519
v 1.869534 3.246216 0.908907
v 2.051516 2.792768 1.096914
v 1.378424 3.245914 1.467507
v 1.661642 3.691530 0.767901
v 1.818916 2.792768 1.523548
v 1.107352 4.011965 0.909960
v 1.193430 3.692736 1.308424
v 1.970769 2.792768 1.421108
v 1.274258 4.032090 0.714206
v 2.054227 2.792768 1.269858
v 1.462836 4.058460 0.677096
v 1.956910 3.246216 1.068292
v 1.083865 4.014181 1.115680
v 1.562515 3.246216 1.511797
v 1.780954 3.692736 0.871848
v 1.076226 4.227834 0.895047
v 1.327204 3.692736 1.416588
v 1.250073 4.249227 0.689263
v 1.605910 4.080163 0.733158
v 1.963840 3.246517 1.235510
v 1.747510 3.246216 1.480161
v 1.159760 4.031603 1.274272
v 1.051219 4.241693 1.101434
v 1.432959 4.295023 0.650396
v 1.889118 3.246517 1.381939
v 1.858989 3.693037 1.020085
v 1.495929 3.693037 1.454853
v 1.711789 4.096605 0.835571
v 1.289643 4.048436 1.369447
v 1.573362 4.325756 0.707341
v 1.866220 3.693037 1.178566
v 1.665257 3.693037 1.418999
v 1.147332 4.303158 1.282211
v 1.772631 4.108582 0.970173
v 1.797827 3.693037 1.319572
v 1.448326 4.068012 1.394218
v 1.673392 4.355583 0.809479
v 1.772613 4.108842 1.114947
v 1.263631 4.330275 1.391882
v 1.596781 4.086935 1.347205
v 1.711887 4.101269 1.245217
v 1.724311 4.373361 0.941145
v 1.414580 4.369142 1.350002
v 1.710752 4.394752 1.078837
v 1.545041 4.377276 1.297878
v 1.649288 4.387219 1.202368
v 1.049410 4.306170 0.890226
v 1.236815 4.350160 0.670281
v 1.418195 4.420060 0.628703
v 1.564323 4.451695 0.690167
v 1.662846 4.479114 0.795921
v 1.708341 4.502314 0.928792
v 1.693879 4.517679 1.068593
v 1.633018 4.514968 1.194534
v 1.024101 4.315209 1.112281
v 1.094604 4.380892 1.353919
v 1.257303 4.436933 1.409056
v 1.534193 4.501711 1.298782
v 1.408252 4.480017 1.375010
vt 0.015994 0.990918
vt 0.015633 0.990979
vt 0.015601 0.990854
vt 0.015263 0.990982
vt 0.015416 0.991090
vt 0.015146 0.991265
vt 0.015047 0.991102
vt 0.014914 0.991407
vt 0.014747 0.991336
vt 0.015955 0.990794
vt 0.015233 0.990859
vt 0.015355 0.991298
vt 0.015054 0.990980
vt 0.015553 0.990678
vt 0.014832 0.991578
vt 0.015013 0.991463
vt 0.014645 0.991539
vt 0.015155 0.991415
vt 0.015308 0.991409
vt 0.011869 0.989445
vt 0.011923 0.989833
vt 0.011745 0.989486
vt 0.015736 0.991336
vt 0.015025 0.990860
vt 0.015206 0.990685
vt 0.015893 0.990622
vt 0.014989 0.991595
vt 0.015163 0.991576
vt 0.014852 0.990993
vt 0.015507 0.990498
vt 0.015517 0.991462
vt 0.014783 0.991780
vt 0.014980 0.990691
vt 0.012040 0.989786
vt 0.015827 0.990450
vt 0.014582 0.991760
vt 0.015365 0.991541
vt 0.015183 0.990506
vt 0.012207 0.989693
vt 0.012041 0.989382
vt 0.014967 0.991790
vt 0.014818 0.990875
vt 0.015172 0.991777
vt 0.015615 0.991672
vt 0.014937 0.990519
vt 0.015420 0.991739
vt 0.014750 0.991998
vt 0.015433 0.990148
vt 0.014764 0.990710
vt 0.014643 0.990912
vt 0.012157 0.989964
vt 0.014547 0.991959
vt 0.012209 0.989316
vt 0.012380 0.989588
vt 0.014689 0.991031
vt 0.015863 0.991566
vt 0.015719 0.990116
vt 0.015139 0.990155
vt 0.014944 0.992017
vt 0.012054 0.990032
vt 0.014574 0.990744
vt 0.015172 0.992014
vt 0.014713 0.990544
vt 0.014527 0.992156
vt 0.012335 0.989889
vt 0.014497 0.990972
vt 0.015479 0.991986
vt 0.014877 0.990157
vt 0.014539 0.991093
vt 0.015683 0.991920
vt 0.015935 0.991811
vt 0.012182 0.990216
vt 0.014727 0.992242
vt 0.015401 0.989895
vt 0.012670 0.989399
vt 0.014496 0.990569
vt 0.012511 0.989165
vt 0.014411 0.990801
vt 0.012542 0.989819
vt 0.015118 0.989888
vt 0.015671 0.989881
vt 0.014924 0.992270
vt 0.012297 0.990165
vt 0.015161 0.992278
vt 0.014641 0.990162
vt 0.014527 0.992546
vt 0.014206 0.991140
vt 0.014867 0.989878
vt 0.015472 0.992279
vt 0.014278 0.990646
vt 0.014723 0.992540
vt 0.015729 0.992243
vt 0.015393 0.989591
vt 0.014241 0.991265
vt 0.012499 0.990118
vt 0.015979 0.992234
vt 0.014134 0.990972
vt 0.012690 0.989028
vt 0.012858 0.989229
vt 0.015118 0.989576
vt 0.012887 0.989613
vt 0.012370 0.990524
vt 0.015646 0.989593
vt 0.014389 0.990162
vt 0.015139 0.992554
vt 0.014910 0.992543
vt 0.014642 0.989870
vt 0.014884 0.989560
vt 0.012472 0.990452
vt 0.012735 0.990102
vt 0.014024 0.990485
vt 0.014031 0.990823
vt 0.014094 0.990287
vt 0.015438 0.992567
vt 0.014755 0.992810
vt 0.015408 0.989303
vt 0.014402 0.989864
vt 0.013045 0.988993
vt 0.013941 0.991277
vt 0.013048 0.989419
vt 0.014892 0.992794
vt 0.012875 0.988823
vt 0.015141 0.989277
vt 0.015715 0.992579
vt 0.013046 0.989930
vt 0.014614 0.992871
vt 0.015647 0.989321
vt 0.014675 0.989545
vt 0.013963 0.991405
vt 0.012651 0.990395
vt 0.015105 0.992819
vt 0.013898 0.991134
vt 0.015948 0.992586
vt 0.014105 0.990101
vt 0.014918 0.989253
vt 0.013882 0.990678
vt 0.012515 0.990791
vt 0.015405 0.992836
vt 0.014453 0.989528
vt 0.013145 0.989791
vt 0.014848 0.992970
vt 0.013224 0.989149
vt 0.013836 0.990165
vt 0.013830 0.990978
vt 0.015456 0.988880
vt 0.013195 0.988750
vt 0.013025 0.990132
vt 0.013024 0.988603
vt 0.012854 0.990375
vt 0.012621 0.990726
vt 0.015203 0.988843
vt 0.014148 0.989847
vt 0.013675 0.991483
vt 0.015647 0.992865
vt 0.014719 0.989235
vt 0.013777 0.990366
vt 0.015677 0.988913
vt 0.013858 0.990050
vt 0.014809 0.993118
vt 0.013344 0.990016
vt 0.013261 0.989577
vt 0.015052 0.993059
vt 0.013672 0.991354
vt 0.013594 0.990086
vt 0.012751 0.990671
vt 0.013395 0.989903
vt 0.013909 0.989818
vt 0.013299 0.990200
vt 0.015824 0.992906
vt 0.014992 0.988816
vt 0.014222 0.989506
vt 0.013624 0.989982
vt 0.015385 0.993074
vt 0.013542 0.990278
vt 0.013041 0.990380
vt 0.013367 0.988884
vt 0.014509 0.989216
vt 0.013684 0.990572
vt 0.013666 0.991224
vt 0.013743 0.990841
vt 0.013475 0.989691
vt 0.012684 0.991052
vt 0.013382 0.988365
vt 0.013685 0.989768
vt 0.015496 0.993036
vt 0.013215 0.988240
vt 0.012944 0.990612
vt 0.013410 0.989276
vt 0.015521 0.988448
vt 0.013654 0.991067
vt 0.013266 0.990430
vt 0.012776 0.990969
vt 0.015040 0.993247
vt 0.013420 0.991493
vt 0.013478 0.990492
vt 0.014000 0.989474
vt 0.014801 0.988795
vt 0.013589 0.990751
vt 0.013432 0.991359
vt 0.013629 0.990916
vt 0.015728 0.988491
vt 0.015077 0.988378
vt 0.015286 0.988406
vt 0.015331 0.993266
vt 0.012863 0.990891
vt 0.015628 0.993141
vt 0.013040 0.990594
vt 0.014296 0.989195
vt 0.013451 0.991231
vt 0.013789 0.989428
vt 0.013595 0.989365
vt 0.013481 0.991063
vt 0.013549 0.988482
vt 0.013224 0.990628
vt 0.014604 0.988777
vt 0.013410 0.990684
vt 0.013511 0.990909
vt 0.012961 0.991165
vt 0.013063 0.990718
vt 0.012983 0.990788
vt 0.013541 0.988994
vt 0.012882 0.991263
vt 0.013189 0.991299
vt 0.013032 0.991051
vt 0.013147 0.991422
vt 0.013235 0.991166
vt 0.013555 0.987959
vt 0.013109 0.990916
vt 0.013344 0.990858
vt 0.013288 0.991017
vt 0.014892 0.988360
vt 0.013175 0.990793
vt 0.014091 0.989166
vt 0.013396 0.987850
vt 0.015371 0.987971
vt 0.013712 0.989070
vt 0.013893 0.989125
vt 0.014407 0.988756
vt 0.015792 0.988063
vt 0.015164 0.987943
vt 0.015597 0.988015
vt 0.013716 0.988064
vt 0.013713 0.988578
vt 0.014707 0.988343
vt 0.014217 0.988730
vt 0.013722 0.987546
vt 0.014985 0.987926
vt 0.013573 0.987450
vt 0.015452 0.987541
vt 0.013872 0.988646
vt 0.014038 0.988694
vt 0.015870 0.987641
vt 0.014519 0.988324
vt 0.015685 0.987589
vt 0.015249 0.987512
vt 0.013867 0.987638
vt 0.013873 0.988153
vt 0.014812 0.987912
vt 0.013887 0.987139
vt 0.014340 0.988299
vt 0.015512 0.987230
vt 0.013750 0.987054
vt 0.015078 0.987496
vt 0.014174 0.988265
vt 0.015760 0.987262
vt 0.014021 0.988218
vt 0.015945 0.987292
vt 0.014017 0.987724
vt 0.015314 0.987201
vt 0.014636 0.987896
vt 0.014018 0.987219
vt 0.015552 0.987022
vt 0.014914 0.987485
vt 0.015808 0.987054
vt 0.014030 0.986784
vt 0.014159 0.987791
vt 0.013892 0.986724
vt 0.014462 0.987872
vt 0.015146 0.987170
vt 0.015359 0.986983
vt 0.020312 0.987227
vt 0.020570 0.986999
vt 0.020394 0.987248
vt 0.020312 0.987227
vt 0.020504 0.986922
vt 0.015994 0.987065
vt 0.014305 0.987839
vt 0.020743 0.986866
vt 0.020504 0.986922
vt 0.020358 0.987449
vt 0.014157 0.987300
vt 0.013979 0.986509
vt 0.014751 0.987471
vt 0.020283 0.987461
vt 0.020701 0.986748
vt 0.014160 0.986846
vt 0.014990 0.987140
vt 0.014120 0.986560
vt 0.020701 0.986748
vt 0.020905 0.986811
vt 0.014293 0.987365
vt 0.014588 0.987449
vt 0.009946 0.978482
vt 0.010012 0.978439
vt 0.010117 0.978644
vt 0.015175 0.986908
vt 0.014290 0.986907
vt 0.014434 0.987415
vt 0.020895 0.986687
vt 0.014835 0.987108
vt 0.010055 0.978742
vt 0.009946 0.978482
vt 0.014252 0.986607
vt 0.020895 0.986687
vt 0.021055 0.986793
vt 0.014417 0.986967
vt 0.015029 0.986865
vt 0.014687 0.987069
vt 0.021063 0.986671
vt 0.014546 0.987021
vt 0.010298 0.978848
vt 0.014378 0.986659
vt 0.021063 0.986671
vt 0.021193 0.986806
vt 0.010298 0.978848
vt 0.010311 0.978737
vt 0.014887 0.986813
vt 0.014506 0.986696
vt 0.021207 0.986683
vt 0.014756 0.986788
vt 0.010527 0.978783
vt 0.014628 0.986747
vt 0.011192 0.978699
vt 0.011005 0.978688
vt 0.011111 0.978597
vt 0.010538 0.978894
vt 0.011192 0.978699
vt 0.011078 0.978791
vt 0.010708 0.978771
vt 0.010869 0.978739
vt 0.010929 0.978856
vt 0.010747 0.978891
vt 0.010929 0.978856
vt 0.010747 0.978891
vt 0.010538 0.978894
vn -0.075430 -0.622704 -0.778813
vn -0.559524 -0.589534 -0.582566
vn -0.683705 0.242999 -0.688113
vn -0.740061 -0.627724 -0.241397
vn -0.055057 -0.995628 -0.075459
vn -0.090473 -0.995325 -0.033810
vn -0.097832 0.326146 -0.940243
vn -0.938257 0.122040 -0.323697
vn 0.005352 -0.996643 -0.081699
vn -0.628494 -0.777314 0.027897
vn -0.669564 0.212892 -0.711590
vn -0.070560 -0.997490 0.005885
vn 0.000000 -1.000000 0.000000
vn 0.000000 -1.000000 0.000000
vn 0.000000 -1.000000 0.000000
vn 0.233594 -0.744600 -0.625303
vn -0.998663 0.001854 0.051667
vn -0.926034 0.050675 -0.374023
vn -0.110294 0.325259 -0.939171
vn 0.000000 -1.000000 -0.000000
vn 0.000000 -1.000000 0.000000
vn -0.594223 -0.789089 0.155685
vn -0.619424 0.179954 -0.764153
vn 0.030319 -0.998104 -0.053564
vn -0.059466 -0.998132 0.014009
vn -0.996944 -0.010717 0.077381
vn 0.334427 0.295255 -0.894977
vn -0.115284 0.286482 -0.951125
vn 0.000000 -1.000000 0.000000
vn -0.908526 0.039525 -0.415955
vn 0.339598 0.336338 -0.878380
vn 0.000000 -1.000000 0.000000
vn -0.941272 0.104933 0.320930
vn 0.000000 -1.000000 0.000000
vn 0.036158 -0.998623 -0.038015
vn -0.994985 -0.031531 0.094928
vn 0.000000 -1.000000 -0.000000
vn -0.053524 -0.998413 0.017505
vn -0.565382 0.140582 -0.812761
vn -0.897559 0.046077 0.438480
vn -0.910192 0.260427 0.322071
vn 0.640255 0.269649 -0.719279
vn -0.602377 -0.776086 0.186636
vn 0.371423 0.316795 -0.872746
vn 0.353219 -0.850934 -0.388778
vn -0.094791 0.243998 -0.965132
vn -0.892119 0.024128 -0.451155
vn 0.000000 -1.000000 -0.000000
vn -0.846044 0.259460 0.465715
vn 0.000000 -1.000000 -0.000000
vn -0.847695 -0.052150 0.527915
vn -0.602721 -0.753233 0.263378
vn 0.643317 0.361732 -0.674754
vn -0.864387 0.328478 0.380708
vn 0.000000 -1.000000 -0.000000
vn -0.993026 -0.043164 0.109711
vn 0.043133 -0.998624 -0.029836
vn 0.439141 -0.841556 -0.314547
vn -0.058205 -0.997984 0.025287
vn -0.522838 0.116046 -0.844496
vn 0.373685 0.281580 -0.883783
vn -0.656051 0.129216 0.743573
vn -0.798620 0.446547 0.403488
vn 0.723865 0.374272 -0.579604
vn -0.881509 0.019256 -0.471774
vn -0.067367 0.194745 -0.978538
vn 0.000000 -1.000000 0.000000
vn 0.784494 0.286347 -0.550068
vn 0.000000 -1.000000 0.000000
vn -0.783256 -0.056683 0.619110
vn -0.637050 -0.656301 0.404273
vn -0.787825 0.361987 0.498294
vn -0.992447 -0.056205 0.109040
vn 0.000000 -1.000000 0.000000
vn -0.709798 0.503163 0.492965
vn -0.056998 -0.997913 0.030356
vn 0.044028 -0.998773 -0.022655
vn -0.503408 0.091832 -0.859155
vn 0.771359 0.412513 -0.484602
vn 0.504601 -0.828155 -0.244002
vn -0.727729 0.485487 0.484472
vn 0.364697 0.233743 -0.901310
vn -0.877160 0.008456 -0.480124
vn 0.805613 0.262900 -0.530915
vn -0.047300 0.161386 -0.985757
vn -0.411663 -0.049601 0.909986
vn -0.000001 -1.000000 -0.000002
vn -0.000001 -1.000000 -0.000002
vn -0.773355 -0.100445 0.625966
vn -0.991503 -0.060115 0.115363
vn 0.861803 0.290592 -0.415755
vn 0.753595 0.519322 -0.402988
vn -0.553591 0.660536 0.507177
vn -0.650895 0.591043 0.476449
vn -0.370863 0.306186 0.876762
vn -0.000001 -1.000000 -0.000002
vn -0.063618 -0.996112 0.060948
vn -0.488263 0.046058 -0.871480
vn -0.428368 -0.109696 0.896921
vn 0.361898 0.205821 -0.909212
vn -0.575886 0.403733 0.710883
vn 0.759742 0.227907 -0.608976
vn -0.000002 -1.000000 -0.000001
vn -0.874575 -0.016789 -0.484599
vn 0.049466 -0.998703 -0.012101
vn 0.883443 0.419773 -0.208133
vn -0.544308 -0.479619 0.688254
vn -0.023060 0.112911 -0.993338
vn -0.778202 -0.091560 0.621303
vn 0.828128 0.431551 -0.357726
vn -0.000001 -1.000000 -0.000002
vn -0.531001 0.510577 0.676276
vn 0.598753 -0.790416 -0.129374
vn -0.098512 -0.088847 0.991162
vn -0.990218 -0.057273 0.127233
vn -0.466642 0.740215 0.484074
vn -0.000001 -1.000000 -0.000002
vn -0.432147 -0.094362 0.896853
vn 0.982912 0.165480 -0.080628
vn -0.029349 -0.995709 0.087758
vn 0.729513 0.214430 -0.649485
vn 0.029455 0.551274 0.833804
vn -0.470791 0.579979 0.664816
vn -0.487892 -0.005097 -0.872889
vn 0.377989 0.165767 -0.910849
vn 0.705176 0.676427 -0.212542
vn 0.793979 0.532236 -0.293806
vn 0.929781 0.310065 -0.198410
vn -0.882285 -0.044875 -0.468571
vn -0.072943 -0.088943 0.993362
vn -0.227244 -0.491202 0.840881
vn 0.067003 -0.997747 0.003441
vn -0.773926 -0.067458 0.629673
vn -0.143168 0.877553 0.457606
vn 0.000226 0.059818 -0.998209
vn 0.259364 -0.039782 0.964960
vn 0.756979 0.591788 0.277074
vn 0.972751 0.182082 -0.143531
vn 0.010317 -0.998205 0.059002
vn -0.240725 0.427295 0.871476
vn 0.426309 0.670587 0.607103
vn 0.893887 0.415248 -0.168927
vn 0.879383 0.071913 0.470653
vn 0.293711 -0.040085 0.955053
vn 0.491509 0.868317 0.066670
vn 0.700807 -0.710991 0.057977
vn -0.988544 -0.058465 0.139150
vn -0.062103 -0.073260 0.995377
vn 0.581097 0.021163 0.813559
vn 0.041491 -0.997595 0.055518
vn 0.206817 0.928458 0.308533
vn 0.666058 0.733577 -0.135025
vn 0.721212 0.195961 -0.664419
vn -0.431564 -0.058806 0.900164
vn -0.094775 0.900324 0.424777
vn -0.196924 0.525512 0.827682
vn -0.284338 0.740586 0.608839
vn 0.908957 0.119159 0.399498
vn 0.402953 0.125502 -0.906575
vn 0.630605 0.033917 0.775362
vn 0.062528 -0.997458 0.034174
vn 0.862994 0.483640 -0.146059
vn 0.961890 0.177734 -0.207792
vn -0.489965 -0.050324 -0.870288
vn -0.154326 0.588529 0.793610
vn 0.447237 0.887846 0.108210
vn 0.953387 0.286183 0.095667
vn 0.126533 -0.648704 0.750449
vn 0.196394 0.932660 0.302612
vn 0.321337 -0.029229 0.946514
vn -0.777447 -0.051884 0.626805
vn 0.031395 0.861692 0.506460
vn 0.161905 0.469492 0.867965
vn -0.069755 0.709839 0.700902
vn 0.024687 0.003969 -0.999687
vn -0.988944 -0.064556 0.133501
vn -0.886663 -0.069646 -0.457142
vn 0.420869 -0.660016 0.622293
vn 0.905370 0.410794 0.107486
vn 0.753175 -0.519390 0.403686
vn 0.686167 0.727437 0.003259
vn -0.056480 -0.032884 0.997862
vn 0.161226 0.550548 0.819087
vn 0.675761 0.033167 0.736374
vn 0.938269 0.108370 0.328492
vn 0.172565 0.607703 0.775189
vn 0.729555 0.176938 -0.660638
vn 0.471033 0.851846 0.229096
vn -0.438001 -0.028836 0.898512
vn 0.264106 0.875575 0.404496
vn 0.158893 0.739096 0.654592
vn 0.802326 0.376697 0.463004
vn 0.728632 0.665515 0.161816
vn 0.865294 0.477661 0.152008
vn 0.951651 0.191690 -0.240032
vn 0.512603 0.443843 0.735011
vn 0.748570 0.485465 0.451627
vn 0.466631 0.539865 0.700572
vn 0.440496 0.076007 -0.894531
vn 0.695856 0.554944 0.455874
vn 0.362297 0.744982 0.560128
vn 0.427804 0.612019 0.665143
vn -0.786286 -0.036592 0.616778
vn 0.567255 0.717941 0.403462
vn 0.329410 0.011648 0.944115
vn -0.891239 -0.093577 -0.443774
vn 0.944981 0.143260 0.294089
vn 0.689066 0.073090 0.721004
vn -0.059254 0.008261 0.998209
vn 0.032473 -0.040290 -0.998660
vn -0.990693 -0.065946 0.119077
vn -0.509114 -0.090978 -0.855877
vn 0.749477 0.145214 -0.645908
vn 0.948016 0.199584 -0.247854
vn -0.442497 0.006071 0.896749
vn 0.335760 0.058514 0.940129
vn 0.463426 0.033850 -0.885489
vn -0.793370 -0.019671 0.608421
vn -0.894025 -0.123039 -0.430791
vn 0.946738 0.174899 0.270367
vn 0.698305 0.116959 0.706180
vn 0.051751 -0.073165 -0.995976
vn -0.050677 0.058082 0.997025
vn -0.517529 -0.123916 -0.846645
vn -0.988317 -0.082850 0.127930
vn 0.761822 0.111519 -0.638115
vn 0.948147 0.193350 -0.252255
vn -0.436853 0.039118 0.898682
vn 0.497283 0.007912 -0.867552
vn 0.352505 0.114333 0.928799
vn -0.889229 -0.147432 -0.433053
vn -0.795324 -0.011340 0.606079
vn 0.717045 0.168315 0.676399
vn -0.527453 -0.146447 -0.836867
vn 0.949510 0.202925 0.239273
vn 0.077513 -0.094367 -0.992515
vn 0.945584 0.180016 -0.271044
vn -0.983338 -0.112564 0.142747
vn -0.034414 0.105899 0.993781
vn 0.781840 0.092578 -0.616568
vn -0.878875 -0.203363 -0.431534
vn -0.433574 0.067145 0.898613
vn -0.518246 -0.178355 -0.836427
vn 0.537323 -0.011068 -0.843304
vn 0.952808 0.220382 0.208781
vn 0.363953 0.169044 0.915949
vn -0.775296 -0.040774 0.630280
vn -0.962679 -0.173813 0.207455
vn -0.850371 -0.306159 -0.427943
vn -0.466548 -0.219080 -0.856935
vn 0.094498 -0.119996 -0.988267
vn 0.728585 0.213480 0.650838
vn 0.948246 0.174457 -0.265321
vn -0.008079 0.144389 0.989488
vn -0.853379 -0.449417 0.264139
vn 0.130898 -0.150995 -0.979830
vn 0.810830 0.070642 -0.581003
vn -0.399195 0.002758 0.916862
vn 0.557720 -0.031377 -0.829436
vn 0.951859 0.238169 0.192976
vn 0.396473 0.211861 0.893266
vn -0.706633 -0.292628 0.644235
vn 0.963007 0.162336 -0.215093
vn 0.739176 0.250887 0.625039
vn 0.573704 -0.063886 -0.816567
vn 0.085318 0.130983 0.987707
vn -0.253559 -0.743177 0.619189
vn 0.832745 0.053293 -0.551086
vn 0.949018 0.237228 0.207577
vn -0.254275 -0.045562 0.966058
vn 0.453946 0.227298 0.861550
vn 0.852472 0.025740 -0.522139
vn 0.759682 0.258547 0.596689
vn -0.012550 -0.306342 0.951839
vn 0.978076 0.141405 -0.152878
vn 0.304257 0.069059 0.950083
vn 0.946153 0.198423 0.255780
vn 0.985141 0.112390 -0.129869
vn 0.518277 0.156221 0.840823
vn 0.775724 0.210855 0.594805
vn 0.362747 -0.134576 0.922119
vn 0.952614 0.152679 0.263088
vn 0.807051 0.142181 0.573109
vn 0.607915 0.066038 0.791252
s 1
g L_leg Jake
usemtl lambert2SG
f 1/1/1 2/2/2 3/3/3
f 4/4/4 3/3/3 2/2/2
f 1/5/1 5/6/5 2/7/2
f 2/7/2 6/8/6 4/9/4
f 6/8/6 2/7/2 5/6/5
f 1/1/1 3/3/3 7/10/7
f 3/3/3 4/4/4 8/11/8
f 5/6/5 1/5/1 9/12/9
f 10/13/10 8/11/8 4/4/4
f 8/11/8 11/14/11 3/3/3
f 11/14/11 7/10/7 3/3/3
f 12/15/12 4/9/4 6/8/6
f 5/6/5 13/16/13 6/8/6
f 4/9/4 12/15/12 10/17/10
f 13/16/13 5/6/5 14/18/14
f 15/19/15 5/6/5 9/12/9
f 7/20/7 16/21/16 1/22/1
f 16/23/16 9/12/9 1/5/1
f 5/6/5 15/19/15 14/18/14
f 8/11/8 10/13/10 17/24/17
f 18/25/18 11/14/11 8/11/8
f 7/10/7 11/14/11 19/26/19
f 20/27/20 6/8/6 13/16/13
f 17/24/17 18/25/18 8/11/8
f 6/8/6 20/27/20 12/15/12
f 21/28/21 13/16/13 14/18/14
f 22/29/22 17/24/17 10/13/10
f 18/25/18 23/30/23 11/14/11
f 24/31/24 15/19/15 9/12/9
f 15/19/15 21/28/21 14/18/14
f 25/32/25 10/17/10 12/15/12
f 9/12/9 16/23/16 24/31/24
f 13/16/13 21/28/21 20/27/20
f 26/33/26 18/25/18 17/24/17
f 16/21/16 7/20/7 27/34/27
f 19/26/19 11/14/11 28/35/28
f 10/17/10 25/32/25 22/36/22
f 11/14/11 23/30/23 28/35/28
f 21/28/21 15/19/15 29/37/29
f 30/38/30 23/30/23 18/25/18
f 15/19/15 24/31/24 29/37/29
f 31/39/31 7/20/7 19/40/19
f 26/33/26 30/38/30 18/25/18
f 32/41/32 12/15/12 20/27/20
f 17/24/17 22/29/22 33/42/33
f 33/42/33 26/33/26 17/24/17
f 12/15/12 32/41/32 25/32/25
f 7/20/7 31/39/31 27/34/27
f 34/43/34 20/27/20 21/28/21
f 16/23/16 35/44/35 24/31/24
f 36/45/36 30/38/30 26/33/26
f 37/46/37 21/28/21 29/37/29
f 20/27/20 34/43/34 32/41/32
f 35/44/35 29/37/29 24/31/24
f 38/47/38 22/36/22 25/32/25
f 30/38/30 39/48/39 23/30/23
f 33/42/33 40/49/40 26/33/26
f 22/29/22 41/50/41 33/42/33
f 16/21/16 27/34/27 42/51/42
f 22/36/22 38/47/38 43/52/43
f 19/40/19 28/53/28 44/54/44
f 41/50/41 22/29/22 43/55/43
f 21/28/21 37/46/37 34/43/34
f 40/49/40 36/45/36 26/33/26
f 16/23/16 45/56/45 35/44/35
f 29/37/29 35/44/35 37/46/37
f 28/35/28 23/30/23 46/57/46
f 36/45/36 47/58/47 30/38/30
f 48/59/48 25/32/25 32/41/32
f 45/60/45 16/21/16 42/51/42
f 31/39/31 19/40/19 44/54/44
f 30/38/30 47/58/47 39/48/39
f 25/32/25 48/59/48 38/47/38
f 23/30/23 39/48/39 46/57/46
f 33/42/33 49/61/49 40/49/40
f 50/62/50 32/41/32 34/43/34
f 36/45/36 40/49/40 51/63/51
f 52/64/52 43/52/43 38/47/38
f 49/61/49 33/42/33 41/50/41
f 53/65/53 27/34/27 31/39/31
f 43/55/43 54/66/54 41/50/41
f 32/41/32 50/62/50 48/59/48
f 27/34/27 53/65/53 42/51/42
f 55/67/55 34/43/34 37/46/37
f 36/45/36 56/68/56 47/58/47
f 54/66/54 43/55/43 52/69/52
f 57/70/57 37/46/37 35/44/35
f 58/71/58 35/44/35 45/56/45
f 51/63/51 56/68/56 36/45/36
f 42/51/42 58/72/58 45/60/45
f 59/73/59 38/47/38 48/59/48
f 38/47/38 59/73/59 52/64/52
f 34/43/34 55/67/55 50/62/50
f 47/58/47 60/74/60 39/48/39
f 44/54/44 28/53/28 61/75/61
f 62/76/62 51/63/51 40/49/40
f 28/53/28 46/77/46 61/75/61
f 49/61/49 62/76/62 40/49/40
f 37/46/37 57/70/57 55/67/55
f 35/44/35 58/71/58 57/70/57
f 41/50/41 63/78/63 49/61/49
f 31/39/31 44/54/44 64/79/64
f 63/78/63 41/50/41 54/66/54
f 56/68/56 65/80/65 47/58/47
f 65/80/65 60/74/60 47/58/47
f 53/65/53 31/39/31 64/79/64
f 46/57/46 39/48/39 66/81/66
f 48/59/48 67/82/67 59/73/59
f 68/83/68 42/51/42 53/65/53
f 69/84/69 48/59/48 50/62/50
f 58/72/58 42/51/42 68/83/68
f 51/63/51 70/85/70 56/68/56
f 39/48/39 60/74/60 66/81/66
f 59/73/59 71/86/71 52/64/52
f 52/69/52 72/87/72 54/66/54
f 48/59/48 69/84/69 67/82/67
f 62/76/62 70/85/70 51/63/51
f 73/88/73 65/80/65 56/68/56
f 74/89/74 50/62/50 55/67/55
f 49/61/49 75/90/75 62/76/62
f 70/85/70 73/88/73 56/68/56
f 75/90/75 49/61/49 63/78/63
f 67/82/67 76/91/76 59/73/59
f 77/92/77 55/67/55 57/70/57
f 65/80/65 78/93/78 60/74/60
f 50/62/50 74/89/74 69/84/69
f 72/87/72 52/69/52 71/94/71
f 79/95/79 68/83/68 53/65/53
f 64/79/64 79/95/79 53/65/53
f 80/96/80 57/70/57 58/71/58
f 54/66/54 81/97/81 63/78/63
f 46/77/46 66/98/66 82/99/82
f 61/75/61 46/77/46 82/99/82
f 71/86/71 59/73/59 76/91/76
f 73/88/73 83/100/83 65/80/65
f 44/54/44 61/75/61 84/101/84
f 84/101/84 64/79/64 44/54/44
f 68/83/68 80/102/80 58/72/58
f 78/93/78 65/80/65 83/100/83
f 55/67/55 77/92/77 74/89/74
f 60/74/60 85/103/85 66/81/66
f 70/85/70 62/76/62 86/104/86
f 81/97/81 54/66/54 72/87/72
f 87/105/87 67/82/67 69/84/69
f 76/91/76 67/82/67 88/106/88
f 70/85/70 89/107/89 73/88/73
f 85/103/85 60/74/60 78/93/78
f 57/70/57 80/96/80 77/92/77
f 67/82/67 87/105/87 88/106/88
f 83/100/83 73/88/73 90/108/90
f 79/95/79 91/109/91 68/83/68
f 79/95/79 64/79/64 92/110/92
f 93/111/93 62/76/62 75/90/75
f 89/107/89 90/108/90 73/88/73
f 63/78/63 94/112/94 75/90/75
f 95/113/95 86/104/86 62/76/62
f 96/114/96 69/84/69 74/89/74
f 80/102/80 68/83/68 91/109/91
f 97/115/97 71/86/71 76/91/76
f 98/116/98 78/93/78 83/100/83
f 94/112/94 63/78/63 81/97/81
f 69/84/69 96/114/96 87/105/87
f 70/85/70 99/117/99 89/107/89
f 82/99/82 66/98/66 100/118/100
f 99/117/99 70/85/70 86/104/86
f 101/119/101 72/87/72 71/94/71
f 61/75/61 82/99/82 102/120/102
f 103/121/103 76/91/76 88/106/88
f 62/76/62 93/111/93 95/113/95
f 66/98/66 85/122/85 100/118/100
f 90/108/90 104/123/104 83/100/83
f 84/101/84 61/75/61 102/120/102
f 105/124/105 74/89/74 77/92/77
f 106/125/106 64/79/64 84/101/84
f 106/125/106 92/110/92 64/79/64
f 83/100/83 104/123/104 98/116/98
f 71/86/71 97/115/97 107/126/107
f 78/93/78 108/127/108 85/103/85
f 76/91/76 103/121/103 97/115/97
f 89/107/89 109/128/109 90/108/90
f 71/94/71 107/129/107 101/119/101
f 91/109/91 79/95/79 110/130/110
f 110/130/110 79/95/79 92/110/92
f 111/131/111 88/106/88 87/105/87
f 72/87/72 112/132/112 81/97/81
f 108/127/108 78/93/78 98/116/98
f 74/89/74 105/124/105 96/114/96
f 113/133/113 77/92/77 80/96/80
f 86/104/86 95/113/95 114/134/114
f 88/106/88 111/131/111 103/121/103
f 115/135/115 104/123/104 90/108/90
f 114/134/114 99/117/99 86/104/86
f 112/132/112 72/87/72 101/119/101
f 116/136/116 75/90/75 94/112/94
f 75/90/75 116/136/116 93/111/93
f 91/109/91 113/137/113 80/102/80
f 109/128/109 115/135/115 90/108/90
f 77/92/77 113/133/113 105/124/105
f 117/138/117 87/105/87 96/114/96
f 118/139/118 89/107/89 99/117/99
f 102/120/102 119/140/119 84/101/84
f 120/141/120 107/126/107 97/115/97
f 89/107/89 118/139/118 109/128/109
f 103/121/103 120/141/120 97/115/97
f 82/99/82 100/118/100 121/142/121
f 84/101/84 119/140/119 106/125/106
f 93/111/93 122/143/122 95/113/95
f 121/142/121 102/120/102 82/99/82
f 123/144/123 94/112/94 81/97/81
f 124/145/124 98/116/98 104/123/104
f 100/118/100 85/122/85 125/146/125
f 87/105/87 117/138/117 111/131/111
f 92/110/92 106/125/106 126/147/126
f 122/143/122 114/134/114 95/113/95
f 85/122/85 108/148/108 125/146/125
f 92/110/92 127/149/127 110/130/110
f 110/130/110 128/150/128 91/109/91
f 111/131/111 120/141/120 103/121/103
f 112/132/112 123/144/123 81/97/81
f 115/135/115 129/151/129 104/123/104
f 92/110/92 126/147/126 127/149/127
f 99/117/99 114/134/114 130/152/130
f 131/153/131 101/119/101 107/129/107
f 113/137/113 91/109/91 128/150/128
f 132/154/132 96/114/96 105/124/105
f 109/128/109 133/155/133 115/135/115
f 122/143/122 93/111/93 134/156/134
f 98/116/98 135/157/135 108/127/108
f 114/134/114 122/143/122 136/158/136
f 107/126/107 120/141/120 131/159/131
f 137/160/137 106/125/106 119/140/119
f 134/156/134 93/111/93 116/136/116
f 137/160/137 126/147/126 106/125/106
f 104/123/104 129/151/129 124/145/124
f 94/112/94 123/144/123 116/136/116
f 119/140/119 102/120/102 138/161/138
f 96/114/96 132/154/132 117/138/117
f 120/141/120 111/131/111 139/162/139
f 101/119/101 140/163/140 112/132/112
f 141/164/141 136/158/136 122/143/122
f 135/157/135 98/116/98 124/145/124
f 134/156/134 141/164/141 122/143/122
f 121/142/121 138/161/138 102/120/102
f 142/165/142 110/130/110 127/149/127
f 119/140/119 143/166/143 137/160/137
f 144/167/144 114/134/114 136/158/136
f 128/150/128 110/130/110 142/165/142
f 114/134/114 144/167/144 130/152/130
f 126/147/126 137/160/137 145/168/145
f 146/169/146 105/124/105 113/133/113
f 101/119/101 131/153/131 140/163/140
f 141/164/141 137/160/137 143/166/143
f 115/135/115 147/170/147 129/151/129
f 148/171/148 99/117/99 130/152/130
f 136/158/136 141/164/141 149/172/149
f 133/155/133 147/170/147 115/135/115
f 141/164/141 145/168/145 137/160/137
f 150/173/150 111/131/111 117/138/117
f 139/162/139 131/159/131 120/141/120
f 99/117/99 148/171/148 118/139/118
f 141/164/141 134/156/134 151/174/151
f 127/149/127 126/147/126 152/175/152
f 100/118/100 125/146/125 153/176/153
f 154/177/154 109/128/109 118/139/118
f 149/172/149 141/164/141 143/166/143
f 109/128/109 154/177/154 133/155/133
f 153/176/153 121/142/121 100/118/100
f 155/178/155 134/156/134 116/136/116
f 156/179/156 123/144/123 112/132/112
f 111/131/111 150/173/150 139/162/139
f 157/180/157 116/136/116 123/144/123
f 105/124/105 146/169/146 132/154/132
f 145/168/145 141/164/141 151/174/151
f 158/181/158 143/166/143 119/140/119
f 126/147/126 145/168/145 152/175/152
f 158/181/158 119/140/119 138/161/138
f 128/150/128 146/182/146 113/137/113
f 156/179/156 112/132/112 140/163/140
f 108/148/108 159/183/159 125/146/125
f 155/178/155 151/174/151 134/156/134
f 160/184/160 136/158/136 149/172/149
f 157/180/157 155/178/155 116/136/116
f 161/185/161 117/138/117 132/154/132
f 160/184/160 149/172/149 143/166/143
f 136/158/136 160/184/160 144/167/144
f 159/183/159 108/148/108 135/186/135
f 142/165/142 127/149/127 162/187/162
f 138/161/138 121/142/121 163/188/163
f 129/151/129 164/189/164 124/145/124
f 152/175/152 162/187/162 127/149/127
f 157/180/157 123/144/123 165/190/165
f 117/138/117 161/185/161 150/173/150
f 151/174/151 166/191/166 145/168/145
f 142/165/142 167/192/167 128/150/128
f 131/159/131 139/162/139 168/193/168
f 123/144/123 156/179/156 165/190/165
f 160/184/160 143/166/143 158/181/158
f 168/194/168 140/163/140 131/153/131
f 152/175/152 145/168/145 166/191/166
f 151/174/151 155/178/155 169/195/169
f 163/188/163 158/181/158 138/161/138
f 146/182/146 128/150/128 167/192/167
f 170/196/170 130/152/130 144/167/144
f 133/155/133 171/197/171 147/170/147
f 153/176/153 163/188/163 121/142/121
f 155/178/155 157/180/157 172/198/172
f 166/191/166 151/174/151 169/195/169
f 140/163/140 173/199/173 156/179/156
f 130/152/130 170/196/170 148/171/148
f 165/190/165 174/200/174 157/180/157
f 124/145/124 175/201/175 135/157/135
f 176/202/176 129/151/129 147/170/147
f 172/198/172 169/195/169 155/178/155
f 164/189/164 129/151/129 177/203/177
f 178/204/178 139/162/139 150/173/150
f 179/205/179 142/165/142 162/187/162
f 174/200/174 172/198/172 157/180/157
f 132/154/132 180/206/180 161/185/161
f 180/206/180 132/154/132 146/169/146
f 152/175/152 166/191/166 181/207/181
f 162/187/162 152/175/152 181/207/181
f 140/163/140 168/194/168 173/199/173
f 167/192/167 142/165/142 179/205/179
f 182/208/182 118/139/118 148/171/148
f 183/209/183 165/190/165 156/179/156
f 139/162/139 178/204/178 168/193/168
f 118/139/118 182/208/182 154/177/154
f 184/210/184 144/167/144 160/184/160
f 185/211/185 160/184/160 158/181/158
f 180/206/180 150/173/150 161/185/161
f 175/201/175 124/145/124 164/189/164
f 129/151/129 176/202/176 177/203/177
f 183/209/183 156/179/156 173/199/173
f 186/212/186 174/200/174 165/190/165
f 125/146/125 187/213/187 153/176/153
f 158/181/158 163/188/163 185/211/185
f 166/191/166 169/195/169 188/214/188
f 189/215/189 133/155/133 154/177/154
f 169/195/169 172/198/172 190/216/190
f 172/198/172 174/200/174 191/217/191
f 192/218/192 146/182/146 167/192/167
f 181/207/181 166/191/166 188/214/188
f 165/190/165 183/209/183 186/212/186
f 187/213/187 125/146/125 159/183/159
f 193/219/193 162/187/162 181/207/181
f 179/205/179 162/187/162 194/220/194
f 144/167/144 184/210/184 170/196/170
f 171/197/171 133/155/133 189/215/189
f 188/214/188 169/195/169 190/216/190
f 174/200/174 186/212/186 191/217/191
f 180/206/180 178/204/178 150/173/150
f 163/188/163 153/176/153 195/221/195
f 191/217/191 190/216/190 172/198/172
f 162/187/162 193/219/193 194/220/194
f 180/222/180 146/182/146 192/218/192
f 168/194/168 196/223/196 173/199/173
f 160/184/160 185/211/185 184/210/184
f 197/224/197 167/192/167 179/205/179
f 181/207/181 188/214/188 193/219/193
f 196/223/196 168/194/168 178/225/178
f 173/199/173 198/226/198 183/209/183
f 135/186/135 199/227/199 159/183/159
f 195/221/195 185/211/185 163/188/163
f 192/218/192 167/192/167 197/224/197
f 200/228/200 179/205/179 194/220/194
f 190/216/190 191/217/191 201/229/201
f 186/212/186 201/229/201 191/217/191
f 186/212/186 183/209/183 202/230/202
f 171/197/171 203/231/203 147/170/147
f 190/216/190 204/232/204 188/214/188
f 180/222/180 196/223/196 178/225/178
f 198/226/198 173/199/173 196/223/196
f 205/233/205 148/171/148 170/196/170
f 188/214/188 204/232/204 193/219/193
f 204/232/204 194/220/194 193/219/193
f 199/227/199 135/186/135 175/234/175
f 179/205/179 200/228/200 197/224/197
f 196/223/196 180/222/180 192/218/192
f 202/230/202 183/209/183 198/226/198
f 204/232/204 190/216/190 201/229/201
f 201/229/201 186/212/186 202/230/202
f 206/235/206 164/189/164 177/203/177
f 187/213/187 195/221/195 153/176/153
f 176/202/176 147/170/147 203/231/203
f 148/171/148 205/233/205 182/208/182
f 200/228/200 194/220/194 204/232/204
f 196/223/196 192/218/192 198/226/198
f 198/226/198 192/218/192 197/224/197
f 204/232/204 201/229/201 200/228/200
f 201/229/201 202/230/202 200/228/200
f 200/228/200 198/226/198 197/224/197
f 202/230/202 198/226/198 200/228/200
f 207/236/207 184/210/184 185/211/185
f 208/237/208 170/196/170 184/210/184
f 185/211/185 195/221/195 207/236/207
f 209/238/209 154/177/154 182/208/182
f 164/189/164 210/239/210 175/201/175
f 211/240/211 177/203/177 176/202/176
f 164/189/164 206/235/206 212/241/212
f 154/177/154 209/238/209 189/215/189
f 170/196/170 208/237/208 205/233/205
f 210/239/210 164/189/164 212/241/212
f 184/210/184 207/236/207 208/237/208
f 177/203/177 211/240/211 206/235/206
f 159/183/159 213/242/213 187/213/187
f 195/221/195 187/213/187 214/243/214
f 215/244/215 171/197/171 189/215/189
f 213/242/213 159/183/159 199/227/199
f 195/221/195 214/243/214 207/236/207
f 171/197/171 215/244/215 203/231/203
f 182/208/182 205/233/205 216/245/216
f 175/234/175 217/246/217 199/227/199
f 218/247/218 176/202/176 203/231/203
f 217/246/217 175/234/175 210/248/210
f 209/238/209 182/208/182 216/245/216
f 219/249/219 212/241/212 206/235/206
f 220/250/220 208/237/208 207/236/207
f 213/242/213 214/243/214 187/213/187
f 176/202/176 218/247/218 211/240/211
f 221/251/221 205/233/205 208/237/208
f 220/250/220 207/236/207 214/243/214
f 212/241/212 222/252/222 210/239/210
f 189/215/189 209/238/209 223/253/223
f 212/241/212 219/249/219 224/254/224
f 225/255/225 206/235/206 211/240/211
f 216/245/216 205/233/205 221/251/221
f 215/244/215 189/215/189 223/253/223
f 208/237/208 220/250/220 221/251/221
f 222/252/222 212/241/212 224/254/224
f 199/227/199 226/256/226 213/242/213
f 206/235/206 225/255/225 219/249/219
f 226/256/226 199/227/199 217/246/217
f 214/243/214 213/242/213 227/257/227
f 203/231/203 215/244/215 228/258/228
f 227/257/227 220/250/220 214/243/214
f 218/247/218 203/231/203 228/258/228
f 210/248/210 229/259/229 217/246/217
f 230/260/230 209/238/209 216/245/216
f 231/261/231 224/254/224 219/249/219
f 229/259/229 210/248/210 222/262/222
f 218/247/218 232/263/232 211/240/211
f 223/253/223 209/238/209 230/260/230
f 225/255/225 211/240/211 232/263/232
f 233/264/233 216/245/216 221/251/221
f 220/250/220 233/264/233 221/251/221
f 224/254/224 231/261/231 234/265/234
f 220/250/220 227/257/227 235/266/235
f 236/267/236 222/252/222 224/254/224
f 213/242/213 237/268/237 227/257/227
f 238/269/238 219/249/219 225/255/225
f 224/254/224 234/265/234 236/267/236
f 237/268/237 213/242/213 226/256/226
f 219/249/219 238/269/238 231/261/231
f 239/270/239 215/244/215 223/253/223
f 233/264/233 220/250/220 235/266/235
f 216/245/216 233/264/233 230/260/230
f 228/258/228 215/244/215 239/270/239
f 217/246/217 240/271/240 226/256/226
f 240/271/240 217/246/217 229/259/229
f 241/272/241 234/265/234 231/261/231
f 242/273/242 218/247/218 228/258/228
f 243/274/243 236/267/236 234/265/234
f 234/265/234 241/272/241 243/274/243
f 244/275/244 229/259/229 222/262/222
f 232/263/232 218/247/218 242/273/242
f 245/276/245 235/266/235 227/257/227
f 222/262/222 236/277/236 244/275/244
f 246/278/246 223/253/223 230/260/230
f 247/279/247 225/255/225 232/263/232
f 231/261/231 248/280/248 241/272/241
f 272/281/249 243/282/243 241/283/241
f 225/255/225 247/279/247 238/269/238
f 248/280/248 231/261/231 238/269/238
f 245/276/245 227/257/227 237/268/237
f 243/282/243 272/284/249 273/285/250
f 223/253/223 246/278/246 239/270/239
f 236/267/236 243/274/243 249/286/251
f 235/266/235 250/287/252 233/264/233
f 249/288/251 243/282/243 273/289/250
f 230/260/230 233/264/233 250/287/252
f 248/290/248 272/281/249 241/283/241
f 226/256/226 251/291/253 237/268/237
f 251/291/253 226/256/226 240/271/240
f 236/277/236 249/292/251 244/275/244
f 252/293/254 228/258/228 239/270/239
f 247/279/247 248/280/248 238/269/238
f 250/287/252 235/266/235 245/276/245
f 280/294/255 272/284/249 248/290/248
f 249/288/251 273/285/250 274/295/256
f 229/259/229 253/296/257 240/271/240
f 246/278/246 230/260/230 250/287/252
f 228/258/228 252/293/254 242/273/242
f 253/296/257 229/259/229 244/275/244
f 254/297/258 232/263/232 242/273/242
f 232/263/232 254/297/258 247/279/247
f 244/275/244 249/292/251 255/298/259
f 274/299/256 255/300/259 249/288/251
f 237/268/237 256/301/260 245/276/245
f 239/270/239 246/278/246 257/302/261
f 280/303/255 248/304/248 258/305/262
f 256/301/260 237/268/237 251/291/253
f 247/279/247 258/306/262 248/280/248
f 255/298/259 253/296/257 244/275/244
f 252/293/254 239/270/239 257/302/261
f 259/307/263 251/291/253 240/271/240
f 260/308/264 250/287/252 245/276/245
f 255/300/259 274/295/256 275/309/265
f 260/308/264 246/278/246 250/287/252
f 259/307/263 240/271/240 253/296/257
f 258/306/262 247/279/247 254/297/258
f 242/273/242 252/293/254 261/310/266
f 260/308/264 245/276/245 256/301/260
f 281/311/267 280/312/255 258/305/262
f 254/297/258 242/273/242 261/310/266
f 257/302/261 246/278/246 260/308/264
f 253/296/257 255/298/259 262/313/268
f 275/314/265 262/315/268 255/300/259
f 251/291/253 263/316/269 256/301/260
f 262/313/268 259/307/263 253/296/257
f 263/316/269 251/291/253 259/307/263
f 254/297/258 264/317/270 258/306/262
f 265/318/271 252/293/254 257/302/261
f 262/315/268 275/309/265 276/319/272
f 252/293/254 265/318/271 261/310/266
f 264/317/270 254/297/258 261/310/266
f 256/301/260 266/320/273 260/308/264
f 266/320/273 257/302/261 260/308/264
f 258/305/262 282/321/274 281/311/267
f 259/307/263 262/313/268 267/322/275
f 266/320/273 256/301/260 263/316/269
f 276/323/272 267/324/275 262/315/268
f 282/325/274 258/305/262 264/326/270
f 257/302/261 266/320/273 265/318/271
f 264/317/270 261/310/266 268/327/276
f 269/328/277 263/316/269 259/307/263
f 269/328/277 259/307/263 267/322/275
f 267/324/275 276/319/272 277/329/278
f 270/330/279 261/310/266 265/318/271
f 264/326/270 268/331/276 282/325/274
f 261/310/266 270/330/279 268/327/276
f 271/332/280 266/320/273 263/316/269
f 265/318/271 266/320/273 271/332/280
f 277/333/278 269/334/277 267/335/275
f 271/332/280 263/316/269 269/328/277
f 270/330/279 265/318/271 271/332/280
f 284/336/281 282/321/274 268/331/276
f 269/334/277 277/337/278 278/338/282
f 284/336/281 268/331/276 270/339/279
f 271/340/280 269/334/277 279/341/283
f 271/340/280 283/342/284 270/339/279
f 279/343/283 269/334/277 278/338/282
f 283/344/284 284/345/281 270/339/279
f 283/342/284 271/340/280 279/343/283
