# This file uses centimeters as units for non-parametric coordinates.

mtllib L_whiteEye.mtl
g default
v 1.081836 9.535236 3.786136
v 0.987771 9.654623 3.733528
v 1.079906 9.526382 3.763635
v 1.014906 9.666882 3.724077
v 1.100797 9.545128 3.751889
v 1.199110 9.426418 3.785393
v 0.992684 9.661188 3.757346
v 1.213516 9.451843 3.772826
v 0.922418 9.803577 3.696043
v 0.954516 9.810148 3.689219
v 1.199121 9.438847 3.807996
v 1.137893 9.588091 3.762817
v 0.930201 9.809296 3.721334
v 1.114553 9.576740 3.808256
v 1.338432 9.354347 3.798100
v 1.065845 9.695940 3.740720
v 1.237221 9.510248 3.782778
v 1.346882 9.385290 3.785511
v 1.038987 9.689718 3.785074
v 1.219455 9.495516 3.829327
v 0.918325 9.967588 3.646904
v 0.892886 9.971724 3.677775
v 0.883539 9.965258 3.652005
v 1.337899 9.370197 3.821302
v 1.017028 9.828512 3.712271
v 0.988127 9.828362 3.755374
v 1.359866 9.456997 3.796412
v 1.176529 9.634014 3.776402
v 1.348888 9.440172 3.843771
v 1.155605 9.624914 3.821939
v 1.490606 9.309813 3.800829
v 1.494445 9.343786 3.788272
v 1.253215 9.598194 3.794915
v 0.906213 10.131433 3.598122
v 0.880465 10.140604 3.627544
v 1.236666 9.587599 3.841434
v 1.141937 9.718782 3.767606
v 0.987218 9.980070 3.673386
v 0.870656 10.132656 3.602019
v 1.107907 9.845221 3.745335
v 1.119409 9.713791 3.812692
v 0.957200 9.986174 3.715008
v 1.491195 9.327488 3.824299
v 1.084303 9.846207 3.789487
v 1.501456 9.422810 3.799596
v 1.369411 9.561821 3.809520
v 1.497663 9.404751 3.847250
v 1.359489 9.550077 3.856873
v 1.243340 9.711266 3.789706
v 1.649215 9.292156 3.792727
v 0.883476 10.298370 3.546646
v 1.649095 9.327074 3.780373
v 1.086177 9.993666 3.709692
v 0.918263 10.293549 3.543807
v 1.227057 9.706579 3.836051
v 0.976978 10.140169 3.626225
v 1.061960 10.000603 3.752553
v 0.946639 10.152580 3.666044
v 0.892822 10.307674 3.571517
v 1.651737 9.310326 3.816158
v 1.223719 9.846256 3.769135
v 1.507723 9.536835 3.813151
v 1.652308 9.408298 3.791979
v 1.207319 9.848133 3.814730
v 1.366952 9.691031 3.804291
v 1.504591 9.524364 3.860776
v 1.655901 9.389738 3.839317
v 1.357808 9.686182 3.851545
v 0.922294 10.456007 3.489687
v 0.987158 10.298294 3.572736
v 1.803420 9.335188 3.760915
v 1.807518 9.300993 3.772769
v 0.957137 10.316902 3.610404
v 1.078286 10.151836 3.663760
v 1.209621 9.999104 3.734547
v 0.954395 10.446730 3.487876
v 1.053878 10.164679 3.704967
v 1.193066 10.006893 3.778976
v 0.930076 10.465652 3.513736
v 1.656672 9.525021 3.805724
v 1.358967 9.838924 3.783363
v 1.811922 9.318563 3.795901
v 1.509051 9.674618 3.808029
v 1.660419 9.512196 3.853046
v 1.350351 9.841351 3.829948
v 1.506558 9.669518 3.855549
v 1.016912 10.444704 3.517377
v 1.802732 9.414427 3.772922
v 1.086117 10.307678 3.610373
v 0.987592 10.599472 3.434684
v 0.988006 10.469284 3.552659
v 1.959084 9.337074 3.743147
v 0.992503 10.607590 3.458012
v 1.813668 9.395956 3.819270
v 1.061898 10.326305 3.649538
v 1.351435 9.998949 3.748648
v 1.203922 10.159538 3.688588
v 1.014731 10.584042 3.433991
v 1.950283 9.368500 3.732085
v 1.507524 9.829800 3.786948
v 1.660035 9.665237 3.800537
v 1.342969 10.007339 3.794139
v 1.187279 10.172895 3.731459
v 1.964446 9.352762 3.765827
v 1.663977 9.659903 3.847751
v 1.505529 9.832315 3.833803
v 1.107792 10.449701 3.554145
v 1.805044 9.528561 3.786825
v 1.065679 10.569609 3.464389
v 1.943253 9.440763 3.744758
v 1.084184 10.473944 3.590941
v 1.038814 10.599878 3.497201
v 1.347803 10.163664 3.701952
v 1.209560 10.317257 3.633920
v 1.815628 9.515707 3.833236
v 1.100577 10.699688 3.386715
v 1.961271 9.423132 3.789550
v 2.097784 9.401411 3.705823
v 1.081609 10.727236 3.409122
v 1.504936 9.995256 3.751848
v 1.339313 10.177374 3.745958
v 1.193003 10.336069 3.674861
v 2.102323 9.413712 3.728025
v 1.662467 9.822653 3.779186
v 2.082832 9.427652 3.695857
v 1.079678 10.721743 3.385557
v 1.141776 10.566076 3.499619
v 1.503125 10.003807 3.797614
v 1.941770 9.545893 3.758843
v 1.810289 9.666235 3.781356
v 1.137687 10.670610 3.420431
v 1.666560 9.825012 3.825734
v 1.223602 10.462297 3.574289
v 1.119241 10.595751 3.533740
v 2.064380 9.487230 3.709540
v 1.114338 10.705706 3.451179
v 1.959023 9.533392 3.803788
v 1.820624 9.660780 3.827741
v 1.207197 10.486622 3.612785
v 1.503386 10.164328 3.704200
v 1.351373 10.325315 3.645423
v 1.176337 10.640614 3.458027
v 1.213262 10.788063 3.350197
v 2.089047 9.471315 3.752332
v 1.663946 9.990322 3.743621
v 2.195104 9.514675 3.654997
v 1.198859 10.818680 3.371572
v 1.243174 10.584732 3.513440
v 1.501584 10.178125 3.748500
v 1.155405 10.673914 3.490152
v 1.342905 10.344233 3.687584
v 2.219095 9.503588 3.685441
v 2.055480 9.575871 3.723881
v 1.236987 10.745766 3.391999
v 1.950258 9.674797 3.752645
v 1.198845 10.816059 3.345866
v 1.816540 9.821201 3.759587
v 1.668111 9.998756 3.789077
v 2.216652 9.494749 3.662986
v 1.226883 10.614868 3.548769
v 1.358845 10.476320 3.581763
v 1.253009 10.680471 3.452604
v 2.162821 9.559572 3.672070
v 1.219210 10.784264 3.421712
v 2.079167 9.564154 3.766837
v 1.967100 9.669228 3.797597
v 1.826681 9.823378 3.805367
v 1.664420 10.161520 3.695320
v 1.236451 10.715553 3.484674
v 1.350225 10.500753 3.621388
v 2.192960 9.546730 3.712772
v 1.504872 10.330093 3.645946
v 2.129638 9.607491 3.692012
v 2.070393 9.688250 3.716478
v 1.366777 10.609552 3.513774
v 1.346603 10.849813 3.322300
v 1.359612 10.797142 3.372540
v 2.281351 9.631639 3.611944
v 1.962492 9.822128 3.729926
v 1.369191 10.718552 3.443661
v 1.337611 10.882500 3.342980
v 1.668601 10.175222 3.739309
v 1.821980 9.986435 3.723777
v 1.503059 10.349031 3.688426
v 2.157540 9.597033 3.733224
v 2.308608 9.624569 3.640832
v 2.235687 9.663385 3.637140
v 1.357627 10.640335 3.549758
v 2.094108 9.682451 3.759281
v 1.338141 10.882347 3.314812
v 2.166713 9.690264 3.676872
v 2.308994 9.617857 3.616545
v 1.359260 10.755047 3.475754
v 1.979093 9.823854 3.774278
v 1.507399 10.485775 3.579471
v 1.663882 10.329405 3.636374
v 1.832079 9.994652 3.768488
v 2.269376 9.655479 3.676133
v 1.824441 10.155394 3.675773
v 1.348622 10.837812 3.401715
v 2.093435 9.822054 3.692131
v 2.196337 9.683823 3.717340
v 1.505400 10.510284 3.619370
v 1.508870 10.625078 3.507411
v 1.668044 10.348257 3.678535
v 1.972567 9.981667 3.693652
v 1.501189 10.826939 3.355488
v 1.494151 10.885370 3.300688
v 2.203170 9.814743 3.648359
v 2.342474 9.771524 3.566327
v 1.507494 10.741051 3.432272
v 1.834563 10.168859 3.719018
v 2.117490 9.822805 3.734143
v 1.490892 10.919178 3.320868
v 1.506370 10.656212 3.543470
v 2.371850 9.769178 3.593688
v 2.285953 9.793201 3.599918
v 1.989154 9.989357 3.736927
v 1.821917 10.321272 3.617874
v 1.490300 10.920372 3.291430
v 1.662340 10.487167 3.569008
v 1.504353 10.778294 3.464172
v 2.374852 9.763159 3.567442
v 2.234013 9.814213 3.687690
v 1.977004 10.146156 3.646242
v 2.109601 9.974060 3.654862
v 1.497384 10.868786 3.384192
v 2.321764 9.791250 3.637292
v 1.659852 10.628458 3.495883
v 1.832014 10.339876 3.659299
v 1.666429 10.511627 3.608566
v 1.993646 10.159166 3.688024
v 2.316762 9.943071 3.555667
v 2.379285 9.926931 3.517549
v 1.648797 10.894535 3.284606
v 1.652037 10.834461 3.340902
v 1.816415 10.477175 3.552111
v 2.133927 9.980711 3.695672
v 2.226422 9.961937 3.608732
v 2.115965 10.134159 3.607835
v 1.656439 10.746468 3.419395
v 1.972505 10.308031 3.590427
v 1.663787 10.659611 3.531556
v 1.651430 10.928574 3.304327
v 2.409822 9.929510 3.543463
v 2.353754 9.947309 3.591355
v 1.655618 10.876537 3.369061
v 2.414240 9.922663 3.516475
v 1.648903 10.930197 3.274635
v 1.826552 10.501348 3.590934
v 1.810109 10.616693 3.480738
v 2.257967 9.967321 3.646657
v 2.234824 10.119652 3.561358
v 2.140410 10.146374 3.647069
v 1.660177 10.783827 3.450845
v 1.989090 10.326250 3.630370
v 2.327367 10.102592 3.506660
v 1.804815 10.732777 3.405947
v 1.962371 10.459526 3.528327
v 2.109540 10.292212 3.554235
v 2.391656 10.090097 3.466599
v 1.802464 10.818554 3.328814
v 1.803127 10.876774 3.273331
v 1.820436 10.647472 3.515662
v 1.807211 10.911554 3.263370
v 2.266592 10.130928 3.597590
v 2.422519 10.097692 3.491008
v 1.950083 10.593323 3.462127
v 1.815390 10.769640 3.436632
v 1.978967 10.483257 3.565717
v 2.427352 10.089334 3.464187
v 2.364706 10.113119 3.540486
v 2.226362 10.275948 3.509414
v 2.133864 10.309887 3.591558
v 1.813390 10.859993 3.356214
v 2.093317 10.438097 3.497283
v 1.811619 10.910254 3.292470
v 2.316701 10.261293 3.455018
v 1.941550 10.702623 3.392983
v 2.379223 10.252892 3.414451
v 1.942998 10.780909 3.320888
v 1.950005 10.833021 3.268875
v 1.966919 10.623381 3.495811
v 2.414176 10.255774 3.411116
v 1.958794 10.865078 3.259860
v 2.257905 10.293022 3.543642
v 2.070227 10.561718 3.440211
v 2.203055 10.419224 3.457170
v 2.117368 10.461292 3.532197
v 1.958794 10.738363 3.422671
v 2.353691 10.278038 3.486750
v 2.055274 10.658146 3.381570
v 2.409758 10.265459 3.437206
v 2.285835 10.409393 3.405025
v 1.961005 10.820770 3.347493
v 2.064145 10.722748 3.318761
v 2.342352 10.408106 3.364985
v 2.166553 10.537560 3.408882
v 1.964159 10.865065 3.287505
v 2.082578 10.763872 3.273226
v 2.093936 10.590738 3.472000
v 2.374728 10.415588 3.361087
v 2.129447 10.614090 3.373637
v 2.097520 10.791052 3.266297
v 2.233893 10.441950 3.489144
v 2.235520 10.537054 3.360810
v 2.162615 10.642090 3.329682
v 2.281177 10.548798 3.321857
v 2.194884 10.669237 3.289824
v 2.078953 10.692108 3.410079
v 2.321641 10.432171 3.434577
v 2.088802 10.760065 3.344718
v 2.371725 10.425535 3.386090
v 2.308814 10.562706 3.317701
v 2.102061 10.793547 3.291601
v 2.216425 10.690107 3.284908
v 2.196169 10.565783 3.438386
v 2.157341 10.646032 3.401439
v 2.269203 10.565639 3.388260
v 2.308427 10.570971 3.341498
v 2.192745 10.675697 3.355694
v 2.218868 10.695589 3.308427
vt 0.175393 0.975034
vt 0.174589 0.975755
vt 0.175293 0.974915
vt 0.169499 0.993452
vt 0.170008 0.994382
vt 0.169328 0.993559
vt 0.170136 0.994232
vt 0.176160 0.974284
vt 0.174729 0.975837
vt 0.170934 0.994805
vt 0.174055 0.976765
vt 0.170854 0.994994
vt 0.169021 0.992507
vt 0.168816 0.992575
vt 0.176217 0.974440
vt 0.170370 0.993941
vt 0.174224 0.976814
vt 0.175623 0.975323
vt 0.177150 0.973858
vt 0.169839 0.993253
vt 0.171069 0.994415
vt 0.171855 0.995182
vt 0.175068 0.976038
vt 0.176354 0.974829
vt 0.168699 0.991444
vt 0.171817 0.995401
vt 0.173882 0.977917
vt 0.168474 0.991485
vt 0.173702 0.977890
vt 0.177173 0.974039
vt 0.169451 0.992385
vt 0.174657 0.976939
vt 0.171906 0.994708
vt 0.170617 0.993630
vt 0.177229 0.974515
vt 0.175884 0.975647
vt 0.178218 0.973637
vt 0.172857 0.995373
vt 0.171144 0.993836
vt 0.168533 0.990317
vt 0.173710 0.979093
vt 0.176438 0.975431
vt 0.170356 0.993089
vt 0.172849 0.995609
vt 0.169177 0.991372
vt 0.168302 0.990335
vt 0.173527 0.979080
vt 0.170074 0.992272
vt 0.175610 0.976212
vt 0.174367 0.977993
vt 0.178219 0.973827
vt 0.175314 0.977064
vt 0.172854 0.994856
vt 0.171919 0.994023
vt 0.178222 0.974349
vt 0.177254 0.975232
vt 0.171028 0.993111
vt 0.179319 0.973616
vt 0.173527 0.980284
vt 0.173892 0.995386
vt 0.169856 0.991293
vt 0.168530 0.989177
vt 0.176322 0.976193
vt 0.169027 0.990281
vt 0.175084 0.978080
vt 0.174209 0.979130
vt 0.168302 0.989170
vt 0.173909 0.995625
vt 0.173709 0.980283
vt 0.179307 0.973808
vt 0.170834 0.992241
vt 0.172827 0.994115
vt 0.173853 0.994857
vt 0.176122 0.977103
vt 0.171837 0.993194
vt 0.178204 0.975128
vt 0.179272 0.974341
vt 0.177177 0.976106
vt 0.168482 0.988039
vt 0.169014 0.989179
vt 0.173716 0.981453
vt 0.174915 0.995226
vt 0.180411 0.973783
vt 0.174199 0.980279
vt 0.169726 0.990229
vt 0.170665 0.991240
vt 0.168695 0.988077
vt 0.174949 0.979183
vt 0.175945 0.978140
vt 0.174956 0.995458
vt 0.173890 0.981428
vt 0.173799 0.994103
vt 0.171709 0.992241
vt 0.180385 0.973971
vt 0.172759 0.993231
vt 0.179218 0.975135
vt 0.177048 0.977106
vt 0.178139 0.976062
vt 0.169138 0.988135
vt 0.174842 0.994713
vt 0.169700 0.989157
vt 0.168846 0.986990
vt 0.174338 0.981365
vt 0.175947 0.995104
vt 0.174253 0.982470
vt 0.180312 0.974490
vt 0.174925 0.980295
vt 0.181446 0.974148
vt 0.171579 0.991196
vt 0.170549 0.990169
vt 0.169032 0.987071
vt 0.175878 0.994892
vt 0.174103 0.982532
vt 0.172665 0.992230
vt 0.173734 0.993203
vt 0.176914 0.978188
vt 0.175826 0.979246
vt 0.181397 0.974324
vt 0.179153 0.976086
vt 0.178045 0.977114
vt 0.169772 0.988157
vt 0.174762 0.993976
vt 0.169397 0.987219
vt 0.175760 0.994431
vt 0.175007 0.981335
vt 0.174618 0.982319
vt 0.171474 0.990102
vt 0.170509 0.989093
vt 0.180225 0.975264
vt 0.169549 0.986205
vt 0.181276 0.974789
vt 0.176842 0.994564
vt 0.174800 0.983362
vt 0.172563 0.991151
vt 0.176806 0.979315
vt 0.175787 0.980357
vt 0.182292 0.974856
vt 0.173660 0.992186
vt 0.176736 0.994388
vt 0.169401 0.986075
vt 0.169933 0.987306
vt 0.174685 0.983469
vt 0.177941 0.978233
vt 0.182372 0.974710
vt 0.175648 0.993755
vt 0.174703 0.993091
vt 0.169824 0.986459
vt 0.179078 0.977155
vt 0.170530 0.988078
vt 0.175181 0.982223
vt 0.176546 0.994021
vt 0.175070 0.983109
vt 0.181152 0.975497
vt 0.180160 0.976200
vt 0.175814 0.981410
vt 0.172469 0.990030
vt 0.171420 0.989004
vt 0.170114 0.986732
vt 0.170257 0.985521
vt 0.182102 0.975223
vt 0.173582 0.991091
vt 0.177444 0.993707
vt 0.175538 0.984070
vt 0.170596 0.987188
vt 0.177846 0.979387
vt 0.175374 0.982823
vt 0.176753 0.980446
vt 0.183027 0.975564
vt 0.176389 0.993459
vt 0.170448 0.985889
vt 0.175610 0.992923
vt 0.170150 0.985345
vt 0.174652 0.992087
vt 0.178998 0.978291
vt 0.175460 0.984217
vt 0.177592 0.993837
vt 0.175885 0.982341
vt 0.183144 0.975459
vt 0.171398 0.987951
vt 0.170607 0.986453
vt 0.177170 0.993452
vt 0.175727 0.983702
vt 0.181934 0.975808
vt 0.181107 0.976375
vt 0.180106 0.977255
vt 0.173500 0.989955
vt 0.175894 0.983114
vt 0.176733 0.981536
vt 0.182757 0.975816
vt 0.172401 0.988907
vt 0.176881 0.993180
vt 0.176399 0.992724
vt 0.171386 0.986988
vt 0.171116 0.985014
vt 0.171235 0.985477
vt 0.177962 0.992843
vt 0.175600 0.991961
vt 0.171348 0.986154
vt 0.176433 0.984600
vt 0.178915 0.979461
vt 0.174599 0.991004
vt 0.177778 0.980543
vt 0.182453 0.976101
vt 0.183572 0.976454
vt 0.177597 0.992695
vt 0.176721 0.982546
vt 0.181942 0.976580
vt 0.171046 0.984803
vt 0.177061 0.992607
vt 0.178147 0.992925
vt 0.176676 0.983425
vt 0.176387 0.984776
vt 0.181095 0.977384
vt 0.172347 0.987823
vt 0.173418 0.988819
vt 0.183723 0.976394
vt 0.180052 0.978379
vt 0.183207 0.976604
vt 0.174531 0.989881
vt 0.176554 0.984134
vt 0.176466 0.991835
vt 0.182644 0.976699
vt 0.177724 0.981666
vt 0.172295 0.986818
vt 0.178833 0.980632
vt 0.175579 0.990907
vt 0.172154 0.985193
vt 0.172081 0.984680
vt 0.177225 0.991758
vt 0.178300 0.991839
vt 0.172235 0.985931
vt 0.179985 0.979536
vt 0.182012 0.977511
vt 0.177444 0.984954
vt 0.177670 0.982722
vt 0.183933 0.977493
vt 0.177856 0.991780
vt 0.181076 0.978476
vt 0.174438 0.988759
vt 0.172040 0.984448
vt 0.173339 0.987723
vt 0.177606 0.983658
vt 0.178513 0.991878
vt 0.182819 0.977586
vt 0.175526 0.989809
vt 0.177418 0.985143
vt 0.184106 0.977469
vt 0.176490 0.990820
vt 0.177518 0.984432
vt 0.183485 0.977555
vt 0.173266 0.986705
vt 0.179891 0.980691
vt 0.178754 0.981767
vt 0.181024 0.979608
vt 0.177984 0.990738
vt 0.178469 0.990742
vt 0.173106 0.984515
vt 0.173145 0.985046
vt 0.174336 0.987679
vt 0.182040 0.978564
vt 0.177298 0.990757
vt 0.176452 0.989743
vt 0.173201 0.985805
vt 0.175423 0.988714
vt 0.178680 0.982836
vt 0.178522 0.985122
vt 0.184117 0.978633
vt 0.183627 0.978639
vt 0.178558 0.984585
vt 0.178697 0.990751
vt 0.173088 0.984277
vt 0.179789 0.981810
vt 0.174243 0.986676
vt 0.182901 0.978624
vt 0.178509 0.985314
vt 0.184300 0.978632
vt 0.177277 0.989685
vt 0.182005 0.979676
vt 0.178614 0.983788
vt 0.180919 0.980736
vt 0.177977 0.989636
vt 0.174174 0.985790
vt 0.175294 0.987668
vt 0.176338 0.988672
vt 0.178472 0.989602
vt 0.174147 0.985047
vt 0.174145 0.984527
vt 0.179697 0.982863
vt 0.174152 0.984291
vt 0.182882 0.979736
vt 0.179611 0.985296
vt 0.184125 0.979820
vt 0.175167 0.986713
vt 0.179631 0.983799
vt 0.180788 0.981820
vt 0.178703 0.989586
vt 0.183623 0.979787
vt 0.177149 0.988619
vt 0.181888 0.980783
vt 0.179610 0.984580
vt 0.184308 0.979833
vt 0.176171 0.987669
vt 0.179612 0.985105
vt 0.177832 0.988542
vt 0.175085 0.985882
vt 0.178312 0.988471
vt 0.175099 0.985195
vt 0.175149 0.984719
vt 0.180661 0.982822
vt 0.178536 0.988432
vt 0.175188 0.984500
vt 0.182751 0.980841
vt 0.175978 0.986797
vt 0.176934 0.987638
vt 0.184141 0.981025
vt 0.180683 0.985077
vt 0.181716 0.981822
vt 0.180584 0.983698
vt 0.183473 0.980925
vt 0.175863 0.986070
vt 0.183960 0.980998
vt 0.177559 0.987526
vt 0.180607 0.984418
vt 0.175938 0.985489
vt 0.177991 0.987405
vt 0.176652 0.986819
vt 0.180662 0.984896
vt 0.176074 0.985097
vt 0.181518 0.982735
vt 0.178196 0.987338
vt 0.176390 0.986277
vt 0.176154 0.984908
vt 0.182527 0.981859
vt 0.177171 0.986655
vt 0.176639 0.985964
vt 0.183789 0.982153
vt 0.181681 0.984653
vt 0.177512 0.986456
vt 0.176875 0.985672
vt 0.181403 0.983500
vt 0.183186 0.981982
vt 0.181487 0.984106
vt 0.183621 0.982106
vt 0.177684 0.986350
vt 0.181624 0.984496
vt 0.177003 0.985522
vt 0.182232 0.982715
vt 0.183259 0.983170
vt 0.182554 0.984018
vt 0.181959 0.983283
vt 0.182777 0.982888
vt 0.183118 0.983088
vt 0.182221 0.983609
vt 0.182453 0.983897
vn -0.552400 -0.336886 0.762471
vn -0.691389 -0.508372 -0.513360
vn -0.595280 -0.660008 -0.458292
vn 0.138497 -0.157617 -0.977740
vn 0.093925 -0.138253 -0.985933
vn -0.445576 -0.782976 -0.434063
vn -0.648919 -0.183357 0.738434
vn 0.073601 -0.089798 -0.993237
vn -0.750208 -0.379862 -0.541196
vn 0.192128 -0.189536 -0.962893
vn -0.384905 -0.424018 0.819791
vn 0.276585 0.031245 -0.960482
vn -0.675322 -0.024238 0.737124
vn -0.349051 -0.105691 0.931124
vn -0.307227 -0.861094 -0.405127
vn 0.337228 -0.038501 -0.940635
vn 0.195789 0.092143 -0.976307
vn 0.032687 -0.041298 -0.998612
vn -0.408907 -0.005835 0.912557
vn -0.236390 -0.162026 0.958054
vn 0.214813 -0.239298 -0.946885
vn -0.671533 0.108955 0.732920
vn -0.779603 -0.278305 -0.561041
vn -0.214155 -0.443456 0.870336
vn 0.364758 -0.121020 -0.923204
vn -0.424224 0.097619 0.900281
vn 0.098420 0.120488 -0.987824
vn 0.262033 0.011755 -0.964987
vn -0.120467 -0.181921 0.975906
vn -0.257461 -0.007544 0.966259
vn -0.179267 -0.904626 -0.386673
vn -0.024360 -0.022698 -0.999446
vn 0.171576 0.025266 -0.984847
vn 0.220496 -0.294830 -0.929762
vn -0.666214 0.225738 0.710775
vn -0.169789 -0.022130 0.985232
vn 0.265882 -0.062469 -0.961979
vn 0.370843 -0.203322 -0.906165
vn -0.787980 -0.185981 -0.586940
vn 0.274697 -0.146846 -0.950251
vn -0.262209 0.063881 0.962894
vn -0.426576 0.189430 0.884392
vn -0.067666 -0.439678 0.895603
vn -0.271473 0.147459 0.951083
vn 0.005499 0.127831 -0.991781
vn 0.076572 0.031917 -0.996553
vn -0.016515 -0.184808 0.982636
vn -0.076305 -0.029396 0.996651
vn 0.143104 -0.091115 -0.985505
vn -0.058862 -0.922468 -0.381559
vn -0.776672 -0.096135 -0.622527
vn -0.088795 -0.016194 -0.995918
vn 0.278248 -0.221863 -0.934535
vn 0.215095 -0.349423 -0.911942
vn -0.144073 0.090264 0.985442
vn 0.371671 -0.280548 -0.884960
vn -0.275354 0.222085 0.935339
vn -0.426802 0.273482 0.862002
vn -0.667661 0.334418 0.665127
vn 0.067365 -0.439207 0.895857
vn 0.142559 -0.171297 -0.974851
vn -0.008843 0.035786 -0.999320
vn -0.083838 0.130555 -0.987890
vn -0.144318 0.170174 0.974789
vn 0.054389 -0.092320 -0.994243
vn 0.008728 -0.033594 0.999397
vn 0.081499 -0.186400 0.979088
vn -0.055837 0.090701 0.994312
vn -0.750826 0.000015 -0.660500
vn 0.370595 -0.354809 -0.858353
vn -0.152472 -0.020366 -0.988098
vn 0.060231 -0.910820 -0.408387
vn -0.426820 0.354137 0.832112
vn 0.278568 -0.289657 -0.915696
vn 0.145631 -0.238641 -0.960126
vn 0.196972 -0.399605 -0.895275
vn -0.275749 0.289936 0.916460
vn -0.147642 0.238009 0.959976
vn -0.668850 0.444443 0.595911
vn -0.087066 0.038513 -0.995458
vn 0.050497 -0.175940 -0.983105
vn 0.200197 -0.447468 0.871604
vn -0.021536 -0.089135 -0.995787
vn 0.087132 -0.036322 0.995534
vn -0.052551 0.174255 0.983297
vn 0.020762 0.087228 0.995972
vn 0.363836 -0.431215 -0.825637
vn -0.172465 0.132626 -0.976046
vn 0.277673 -0.355706 -0.892396
vn -0.700936 0.127764 -0.701687
vn -0.424390 0.437953 0.792522
vn 0.181556 -0.877961 -0.442969
vn -0.642694 0.575736 0.505444
vn 0.178525 -0.190052 0.965406
vn -0.274782 0.355999 0.893174
vn 0.052768 -0.242112 -0.968812
vn 0.147432 -0.298015 -0.943107
vn 0.147205 -0.440681 -0.885511
vn -0.209717 -0.034701 -0.977146
vn -0.023936 -0.173553 -0.984534
vn -0.090247 -0.086131 -0.992188
vn -0.054979 0.241424 0.968861
vn -0.149365 0.297963 0.942819
vn 0.337662 -0.458939 0.821803
vn 0.090208 0.084240 0.992354
vn 0.023088 0.171680 0.984882
vn 0.274326 -0.426071 -0.862095
vn -0.164758 0.040013 -0.985522
vn 0.334211 -0.512507 -0.790974
vn -0.263426 0.130246 -0.955847
vn -0.271109 0.426049 0.863124
vn -0.403173 0.531601 0.744884
vn 0.054145 -0.301106 -0.952052
vn 0.145427 -0.356900 -0.922753
vn 0.165007 -0.037834 0.985567
vn 0.087868 -0.454887 -0.886204
vn 0.279584 -0.192672 0.940591
vn 0.323641 -0.809857 -0.489272
vn -0.545639 0.716763 0.434200
vn -0.023064 -0.241058 -0.970237
vn -0.056361 0.301071 0.951935
vn -0.147438 0.357319 0.922272
vn 0.498486 -0.447584 0.742415
vn -0.091616 -0.170853 -0.981028
vn -0.254850 -0.077747 -0.963850
vn -0.589160 0.272246 -0.760771
vn 0.267171 -0.502385 -0.822331
vn 0.022248 0.240400 0.970419
vn -0.248365 0.040742 -0.967809
vn -0.158559 -0.085382 -0.983651
vn 0.268703 -0.583284 -0.766537
vn 0.091592 0.168950 0.981360
vn 0.142346 -0.420270 -0.896165
vn -0.263324 0.501450 0.824141
vn -0.358526 0.107113 -0.927354
vn -0.341797 0.626097 0.700841
vn 0.248260 -0.038207 0.967940
vn 0.159251 0.083435 0.983706
vn -0.144105 0.421149 0.895470
vn -0.022563 -0.301540 -0.953187
vn 0.052715 -0.358984 -0.931854
vn 0.250344 -0.573271 -0.780185
vn 0.068614 -0.491564 -0.868134
vn 0.391302 -0.178924 0.902701
vn -0.092280 -0.239176 -0.966581
vn -0.269983 -0.130208 -0.954020
vn -0.384741 0.819981 0.423800
vn 0.142764 -0.491813 -0.858917
vn 0.021751 0.301547 0.953203
vn -0.245632 0.570822 0.783471
vn -0.054927 0.359569 0.931501
vn 0.657064 -0.367799 0.658021
vn -0.339928 0.039162 -0.939636
vn 0.193411 -0.636217 -0.746874
vn -0.233028 -0.084452 -0.968796
vn -0.447798 0.400768 -0.799288
vn -0.158886 -0.169832 -0.972580
vn 0.092277 0.238501 0.966748
vn 0.462419 -0.685167 -0.562774
vn -0.143731 0.492477 0.858375
vn 0.050382 -0.421246 -0.905546
vn 0.170071 -0.585087 -0.792937
vn -0.438334 0.050637 -0.897384
vn -0.233055 0.685616 0.689649
vn 0.338409 -0.035936 0.940313
vn 0.234378 0.082756 0.968617
vn 0.159675 0.167917 0.972784
vn -0.092412 -0.300282 -0.949363
vn -0.168662 0.582838 0.794892
vn -0.052433 0.422731 0.904737
vn 0.500154 -0.128624 0.856330
vn -0.023015 -0.360739 -0.932383
vn -0.425921 0.030454 -0.904248
vn -0.318507 -0.078477 -0.944666
vn 0.054191 -0.495852 -0.866714
vn 0.032481 -0.539963 -0.841062
vn 0.097908 -0.665519 -0.739931
vn -0.316288 -0.145133 -0.937496
vn -0.231863 -0.168159 -0.958104
vn 0.076210 -0.598408 -0.797559
vn -0.216252 0.865197 0.452404
vn 0.092412 0.300283 0.949363
vn -0.161127 -0.237296 -0.957982
vn 0.022202 0.361377 0.932156
vn 0.421890 -0.026014 0.906274
vn 0.757129 -0.221777 0.614468
vn -0.498150 -0.015742 -0.866948
vn -0.055640 0.497218 0.865840
vn 0.319401 0.077575 0.944439
vn -0.310031 0.483281 -0.818731
vn -0.433255 -0.043370 -0.900227
vn 0.567550 -0.543265 -0.618668
vn -0.075944 0.596407 0.799081
vn 0.233818 0.166364 0.957942
vn -0.023972 -0.424037 -0.905327
vn -0.092170 -0.360155 -0.928328
vn 0.161915 0.236587 0.958024
vn 0.561064 -0.032183 0.827146
vn -0.162142 -0.297220 -0.940941
vn -0.119091 0.708134 0.695963
vn -0.320517 -0.158550 -0.933879
vn 0.429890 0.044972 0.901761
vn 0.023127 0.425766 0.904538
vn -0.021599 -0.499353 -0.866129
vn 0.092168 0.360798 0.928079
vn -0.235369 -0.234301 -0.943242
vn 0.005511 -0.673882 -0.738818
vn -0.024172 -0.556332 -0.830609
vn -0.444998 -0.126938 -0.886489
vn -0.368064 -0.174108 -0.913354
vn -0.008928 -0.603270 -0.797487
vn 0.162931 0.297196 0.940812
vn 0.322173 0.157335 0.933515
vn -0.066090 0.875238 0.479156
vn 0.020823 0.501018 0.865186
vn 0.790877 -0.066177 0.608387
vn -0.527021 -0.095664 -0.844451
vn 0.237513 0.233479 0.942908
vn -0.160897 -0.356839 -0.920206
vn -0.181274 0.526438 -0.830664
vn -0.091572 -0.424248 -0.900904
vn 0.008822 0.601538 0.798795
vn 0.625524 -0.421229 -0.656724
vn 0.442017 0.127756 0.887862
vn -0.237038 -0.292424 -0.926446
vn -0.324739 -0.225681 -0.918484
vn -0.015060 0.714496 0.699477
vn 0.580186 0.069150 0.811543
vn -0.090184 -0.499756 -0.861459
vn 0.161695 0.357439 0.919833
vn 0.091550 0.425992 0.900083
vn 0.239181 0.292308 0.925931
vn -0.534591 -0.179146 -0.825905
vn -0.390246 -0.222565 -0.893405
vn -0.089261 -0.556996 -0.825705
vn -0.084470 -0.673813 -0.734058
vn -0.158762 -0.420260 -0.893407
vn 0.326647 0.224934 0.917990
vn -0.449187 -0.202193 -0.870258
vn -0.326434 -0.284612 -0.901353
vn -0.087175 -0.603051 -0.792925
vn -0.235144 -0.350947 -0.906390
vn 0.090142 0.501396 0.860509
vn 0.065992 0.873130 0.483001
vn 0.793447 0.068927 0.604724
vn 0.585280 0.162164 0.794450
vn 0.081380 0.714304 0.695087
vn 0.653957 -0.317885 -0.686505
vn -0.060045 0.530206 -0.845740
vn 0.159552 0.421936 0.892476
vn -0.158369 -0.495499 -0.854049
vn 0.446506 0.202544 0.871555
vn -0.450065 -0.269452 -0.851374
vn 0.328316 0.284477 0.900712
vn 0.087257 0.601286 0.794255
vn 0.237281 0.351418 0.905651
vn -0.535443 -0.255438 -0.805017
vn -0.164462 -0.598741 -0.783876
vn -0.231671 -0.413337 -0.880614
vn -0.324428 -0.343794 -0.881222
vn -0.394869 -0.277701 -0.875763
vn -0.172090 -0.668712 -0.723332
vn -0.152578 -0.551972 -0.819785
vn 0.159056 0.497120 0.852979
vn 0.061607 0.519922 -0.851989
vn 0.447457 0.269880 0.852612
vn 0.790762 0.185687 0.583280
vn -0.232709 -0.487774 -0.841381
vn 0.164713 0.596990 0.785158
vn 0.233625 0.414705 0.879454
vn 0.657763 -0.226893 -0.718239
vn 0.585081 0.245500 0.772923
vn -0.448747 -0.335467 -0.828304
vn 0.326336 0.344107 0.880395
vn 0.177004 0.708871 0.682768
vn -0.320235 -0.407311 -0.855305
vn 0.198041 0.867832 0.455684
vn -0.533827 -0.329646 -0.778693
vn -0.247854 -0.589227 -0.769012
vn -0.391450 -0.332740 -0.857934
vn -0.262771 -0.655265 -0.708222
vn -0.209367 -0.533107 -0.819733
vn 0.234058 0.489051 0.840266
vn 0.654260 -0.134047 -0.744295
vn 0.188006 0.469903 -0.862464
vn 0.446072 0.335914 0.829567
vn -0.318066 -0.478849 -0.818253
vn -0.444038 -0.405968 -0.798761
vn 0.321884 0.408095 0.854312
vn 0.247751 0.587245 0.770560
vn 0.583658 0.324977 0.744133
vn -0.339214 -0.571863 -0.746931
vn 0.792949 0.291202 0.535194
vn -0.525695 -0.406347 -0.747346
vn 0.278197 0.696835 0.661080
vn -0.357647 -0.620194 -0.698175
vn -0.372543 -0.383673 -0.844989
vn -0.434263 -0.482672 -0.760555
vn 0.339567 0.849418 0.403959
vn -0.251233 -0.488186 -0.835797
vn 0.318958 0.479450 0.817554
vn 0.626150 -0.032113 -0.779041
vn -0.414788 -0.546456 -0.727556
vn 0.322521 0.380083 -0.866901
vn 0.441061 0.406121 0.800332
vn -0.495076 -0.489205 -0.718038
vn -0.434603 -0.560975 -0.704576
vn -0.321621 -0.424938 -0.846161
vn -0.267958 -0.443285 -0.855393
vn 0.337711 0.569615 0.749327
vn 0.578940 0.409580 0.705034
vn 0.388585 0.665527 0.637241
vn 0.789950 0.404349 0.460957
vn 0.568598 0.090164 -0.817660
vn 0.497437 0.795099 0.346950
vn 0.466396 0.246254 -0.849608
vn 0.430756 0.481935 0.763012
vn 0.410828 0.544196 0.731485
vn 0.556736 0.503238 0.660906
vn 0.755820 0.534981 0.377535
vn 0.499421 0.601757 0.623271
vn 0.650095 0.680221 0.338637
s 1
g L_whiteEye Jake
usemtl lambert2SG
f 1/1/1 2/2/2 3/3/3
f 4/4/4 3/5/3 2/6/2
f 3/5/3 4/4/4 5/7/5
f 6/8/6 1/1/1 3/3/3
f 2/2/2 1/1/1 7/9/7
f 8/10/8 3/5/3 5/7/5
f 7/9/7 9/11/9 2/2/2
f 3/5/3 8/10/8 6/12/6
f 2/6/2 10/13/10 4/4/4
f 10/13/10 2/6/2 9/14/9
f 1/1/1 6/8/6 11/15/11
f 4/4/4 12/16/12 5/7/5
f 9/11/9 7/9/7 13/17/13
f 14/18/14 7/9/7 1/1/1
f 15/19/15 11/15/11 6/8/6
f 10/13/10 16/20/16 4/4/4
f 5/7/5 17/21/17 8/10/8
f 8/10/8 18/22/18 6/12/6
f 19/23/19 13/17/13 7/9/7
f 20/24/20 1/1/1 11/15/11
f 12/16/12 4/4/4 16/20/16
f 9/14/9 21/25/21 10/13/10
f 17/21/17 5/7/5 12/16/12
f 6/12/6 18/22/18 15/26/15
f 7/9/7 14/18/14 19/23/19
f 22/27/22 9/11/9 13/17/13
f 1/1/1 20/24/20 14/18/14
f 21/25/21 9/14/9 23/28/23
f 23/29/23 9/11/9 22/27/22
f 11/15/11 15/19/15 24/30/24
f 16/20/16 10/13/10 25/31/25
f 21/25/21 25/31/25 10/13/10
f 13/17/13 19/23/19 26/32/26
f 8/10/8 27/33/27 18/22/18
f 26/32/26 22/27/22 13/17/13
f 16/20/16 28/34/28 12/16/12
f 27/33/27 8/10/8 17/21/17
f 29/35/29 11/15/11 24/30/24
f 30/36/30 19/23/19 14/18/14
f 31/37/31 24/30/24 15/19/15
f 11/15/11 29/35/29 20/24/20
f 18/22/18 32/38/32 15/26/15
f 12/16/12 33/39/33 17/21/17
f 23/28/23 34/40/34 21/25/21
f 35/41/35 23/29/23 22/27/22
f 20/24/20 36/42/36 14/18/14
f 28/34/28 16/20/16 37/43/37
f 31/44/31 15/26/15 32/38/32
f 33/39/33 12/16/12 28/34/28
f 25/31/25 21/25/21 38/45/38
f 34/40/34 23/28/23 39/46/39
f 23/29/23 35/41/35 39/47/39
f 40/48/40 16/20/16 25/31/25
f 19/23/19 30/36/30 41/49/41
f 36/42/36 30/36/30 14/18/14
f 22/27/22 26/32/26 42/50/42
f 24/30/24 31/37/31 43/51/43
f 19/23/19 44/52/44 26/32/26
f 34/40/34 38/45/38 21/25/21
f 16/20/16 40/48/40 37/43/37
f 42/50/42 35/41/35 22/27/22
f 27/33/27 45/53/45 18/22/18
f 32/38/32 18/22/18 45/53/45
f 44/52/44 19/23/19 41/49/41
f 17/21/17 46/54/46 27/33/27
f 47/55/47 29/35/29 24/30/24
f 46/54/46 17/21/17 33/39/33
f 47/55/47 24/30/24 43/51/43
f 48/56/48 20/24/20 29/35/29
f 28/34/28 37/43/37 49/57/49
f 20/24/20 48/56/48 36/42/36
f 33/39/33 28/34/28 49/57/49
f 50/58/50 43/51/43 31/37/31
f 35/41/35 51/59/51 39/47/39
f 52/60/52 31/44/31 32/38/32
f 53/61/53 25/31/25 38/45/38
f 39/46/39 54/62/54 34/40/34
f 55/63/55 41/49/41 30/36/30
f 38/45/38 34/40/34 56/64/56
f 55/63/55 30/36/30 36/42/36
f 42/50/42 26/32/26 57/65/57
f 25/31/25 53/61/53 40/48/40
f 35/41/35 42/50/42 58/66/58
f 54/62/54 39/46/39 51/67/51
f 31/44/31 52/60/52 50/68/50
f 26/32/26 44/52/44 57/65/57
f 54/62/54 56/64/56 34/40/34
f 51/59/51 35/41/35 59/69/59
f 43/51/43 50/58/50 60/70/60
f 37/43/37 40/48/40 61/71/61
f 53/61/53 38/45/38 56/64/56
f 58/66/58 59/69/59 35/41/35
f 45/53/45 27/33/27 62/72/62
f 63/73/63 32/38/32 45/53/45
f 46/54/46 62/72/62 27/33/27
f 49/57/49 37/43/37 61/71/61
f 32/38/32 63/73/63 52/60/52
f 44/52/44 41/49/41 64/74/64
f 57/65/57 58/66/58 42/50/42
f 33/39/33 65/75/65 46/54/46
f 65/75/65 33/39/33 49/57/49
f 66/76/66 29/35/29 47/55/47
f 67/77/67 47/55/47 43/51/43
f 64/74/64 41/49/41 55/63/55
f 66/76/66 48/56/48 29/35/29
f 67/77/67 43/51/43 60/70/60
f 68/78/68 36/42/36 48/56/48
f 68/78/68 55/63/55 36/42/36
f 51/67/51 69/79/69 54/62/54
f 56/64/56 54/62/54 70/80/70
f 59/69/59 69/81/69 51/59/51
f 52/60/52 71/82/71 50/68/50
f 72/83/72 60/70/60 50/58/50
f 59/69/59 58/66/58 73/84/73
f 53/61/53 56/64/56 74/85/74
f 40/48/40 53/61/53 75/86/75
f 61/71/61 40/48/40 75/86/75
f 70/80/70 74/85/74 56/64/56
f 76/87/76 70/80/70 54/62/54
f 58/66/58 57/65/57 77/88/77
f 63/73/63 71/82/71 52/60/52
f 76/87/76 54/62/54 69/79/69
f 78/89/78 57/65/57 44/52/44
f 72/90/72 50/68/50 71/82/71
f 69/81/69 59/69/59 79/91/79
f 45/53/45 80/92/80 63/73/63
f 81/93/81 49/57/49 61/71/61
f 73/84/73 79/91/79 59/69/59
f 80/92/80 45/53/45 62/72/62
f 78/89/78 44/52/44 64/74/64
f 77/88/77 73/84/73 58/66/58
f 60/70/60 72/83/72 82/94/82
f 49/57/49 81/93/81 65/75/65
f 82/94/82 67/77/67 60/70/60
f 62/72/62 46/54/46 83/95/83
f 46/54/46 65/75/65 83/95/83
f 74/85/74 75/86/75 53/61/53
f 84/96/84 47/55/47 67/77/67
f 55/63/55 85/97/85 64/74/64
f 47/55/47 84/96/84 66/76/66
f 85/97/85 55/63/55 68/78/68
f 86/98/86 48/56/48 66/76/66
f 86/98/86 68/78/68 48/56/48
f 78/89/78 77/88/77 57/65/57
f 70/80/70 76/87/76 87/99/87
f 71/82/71 63/73/63 88/100/88
f 74/85/74 70/80/70 89/101/89
f 90/102/90 76/87/76 69/79/69
f 79/91/79 73/84/73 91/103/91
f 71/82/71 92/104/92 72/90/72
f 80/92/80 88/100/88 63/73/63
f 93/105/93 69/81/69 79/91/79
f 67/77/67 82/94/82 94/106/94
f 70/80/70 87/99/87 89/101/89
f 73/84/73 77/88/77 95/107/95
f 92/108/92 82/94/82 72/83/72
f 96/109/96 61/71/61 75/86/75
f 75/86/75 74/85/74 97/110/97
f 98/111/98 87/99/87 76/87/76
f 61/71/61 96/109/96 81/93/81
f 95/107/95 91/103/91 73/84/73
f 94/106/94 84/96/84 67/77/67
f 88/100/88 99/112/99 71/82/71
f 76/87/76 90/102/90 98/111/98
f 90/113/90 69/81/69 93/105/93
f 89/101/89 97/110/97 74/85/74
f 65/75/65 81/93/81 100/114/100
f 62/72/62 101/115/101 80/92/80
f 101/115/101 62/72/62 83/95/83
f 91/103/91 93/105/93 79/91/79
f 83/95/83 65/75/65 100/114/100
f 92/104/92 71/82/71 99/112/99
f 102/116/102 78/89/78 64/74/64
f 77/88/77 78/89/78 103/117/103
f 102/116/102 64/74/64 85/97/85
f 104/118/104 94/106/94 82/94/82
f 82/94/82 92/108/92 104/118/104
f 103/117/103 95/107/95 77/88/77
f 105/119/105 66/76/66 84/96/84
f 85/97/85 68/78/68 106/120/106
f 105/119/105 86/98/86 66/76/66
f 87/99/87 107/121/107 89/101/89
f 88/100/88 80/92/80 108/122/108
f 106/120/106 68/78/68 86/98/86
f 87/99/87 98/111/98 109/123/109
f 99/112/99 88/100/88 110/124/110
f 109/123/109 107/121/107 87/99/87
f 91/103/91 95/107/95 111/125/111
f 93/105/93 91/103/91 112/126/112
f 113/127/113 75/86/75 97/110/97
f 97/110/97 89/101/89 114/128/114
f 84/96/84 94/106/94 115/129/115
f 101/115/101 108/122/108 80/92/80
f 110/124/110 88/100/88 108/122/108
f 90/102/90 116/130/116 98/111/98
f 75/86/75 113/127/113 96/109/96
f 107/121/107 114/128/114 89/101/89
f 94/106/94 104/118/104 117/131/117
f 111/125/111 112/126/112 91/103/91
f 99/112/99 118/132/118 92/104/92
f 119/133/119 90/113/90 93/105/93
f 116/130/116 109/123/109 98/111/98
f 81/93/81 96/109/96 120/134/120
f 78/89/78 121/135/121 103/117/103
f 95/107/95 103/117/103 122/136/122
f 100/114/100 81/93/81 120/134/120
f 115/129/115 105/119/105 84/96/84
f 123/137/123 104/118/104 92/108/92
f 117/131/117 115/129/115 94/106/94
f 124/138/124 83/95/83 100/114/100
f 83/95/83 124/138/124 101/115/101
f 110/124/110 125/139/125 99/112/99
f 121/135/121 78/89/78 102/116/102
f 122/136/122 111/125/111 95/107/95
f 116/130/116 90/102/90 126/140/126
f 112/126/112 119/133/119 93/105/93
f 107/121/107 109/123/109 127/141/127
f 114/128/114 113/127/113 97/110/97
f 90/113/90 119/133/119 126/142/126
f 118/132/118 99/112/99 125/139/125
f 128/143/128 102/116/102 85/97/85
f 92/108/92 118/144/118 123/137/123
f 110/124/110 108/122/108 129/145/129
f 128/143/128 85/97/85 106/120/106
f 123/137/123 117/131/117 104/118/104
f 108/122/108 101/115/101 130/146/130
f 109/123/109 116/130/116 131/147/131
f 132/148/132 86/98/86 105/119/105
f 86/98/86 132/148/132 106/120/106
f 114/128/114 107/121/107 133/149/133
f 112/126/112 111/125/111 134/150/134
f 109/123/109 131/147/131 127/141/127
f 121/135/121 122/136/122 103/117/103
f 127/141/127 133/149/133 107/121/107
f 125/139/125 110/124/110 135/151/135
f 130/146/130 129/145/129 108/122/108
f 119/133/119 112/126/112 136/152/136
f 115/129/115 117/131/117 137/153/137
f 129/145/129 135/151/135 110/124/110
f 105/119/105 115/129/115 138/154/138
f 124/138/124 130/146/130 101/115/101
f 134/150/134 136/152/136 112/126/112
f 111/125/111 122/136/122 139/155/139
f 96/109/96 113/127/113 140/156/140
f 113/127/113 114/128/114 141/157/141
f 139/155/139 134/150/134 111/125/111
f 131/147/131 142/158/142 127/141/127
f 120/134/120 96/109/96 140/156/140
f 126/140/126 143/159/143 116/130/116
f 117/131/117 123/137/123 144/160/144
f 141/157/141 114/128/114 133/149/133
f 143/159/143 131/147/131 116/130/116
f 137/153/137 138/154/138 115/129/115
f 145/161/145 100/114/100 120/134/120
f 146/162/146 118/132/118 125/139/125
f 144/160/144 137/153/137 117/131/117
f 100/114/100 145/161/145 124/138/124
f 147/163/147 126/142/126 119/133/119
f 138/154/138 132/148/132 105/119/105
f 133/149/133 127/141/127 148/164/148
f 142/158/142 148/164/148 127/141/127
f 135/151/135 146/162/146 125/139/125
f 102/116/102 149/165/149 121/135/121
f 136/152/136 134/150/134 150/166/150
f 122/136/122 121/135/121 151/167/151
f 118/144/118 152/168/152 123/137/123
f 135/151/135 129/145/129 153/169/153
f 149/165/149 102/116/102 128/143/128
f 147/163/147 119/133/119 136/152/136
f 154/170/154 142/158/142 131/147/131
f 129/145/129 130/146/130 155/171/155
f 151/167/151 139/155/139 122/136/122
f 143/159/143 126/140/126 156/172/156
f 141/157/141 140/156/140 113/127/113
f 130/146/130 124/138/124 157/173/157
f 158/174/158 128/143/128 106/120/106
f 156/175/156 126/142/126 147/163/147
f 159/176/159 118/132/118 146/162/146
f 158/174/158 106/120/106 132/148/132
f 134/150/134 139/155/139 160/177/160
f 154/170/154 131/147/131 143/159/143
f 160/177/160 150/166/150 134/150/134
f 152/168/152 144/160/144 123/137/123
f 155/171/155 153/169/153 129/145/129
f 152/168/152 118/144/118 159/178/159
f 141/157/141 133/149/133 161/179/161
f 148/164/148 142/158/142 162/180/162
f 163/181/163 135/151/135 153/169/153
f 164/182/164 136/152/136 150/166/150
f 148/164/148 161/179/161 133/149/133
f 137/153/137 144/160/144 165/183/165
f 146/162/146 135/151/135 163/181/163
f 155/171/155 130/146/130 157/173/157
f 154/170/154 162/180/162 142/158/142
f 138/154/138 137/153/137 166/184/166
f 145/161/145 157/173/157 124/138/124
f 149/165/149 151/167/151 121/135/121
f 132/148/132 138/154/138 167/185/167
f 136/152/136 164/182/164 147/163/147
f 165/183/165 166/184/166 137/153/137
f 168/186/168 120/134/120 140/156/140
f 150/166/150 160/177/160 169/187/169
f 139/155/139 151/167/151 170/188/170
f 170/188/170 160/177/160 139/155/139
f 120/134/120 168/186/168 145/161/145
f 144/160/144 152/168/152 171/189/171
f 140/156/140 141/157/141 172/190/172
f 165/183/165 144/160/144 171/189/171
f 163/181/163 153/169/153 173/191/173
f 150/166/150 169/187/169 164/182/164
f 166/184/166 167/185/167 138/154/138
f 153/169/153 155/171/155 174/192/174
f 175/193/175 148/164/148 162/180/162
f 161/179/161 172/190/172 141/157/141
f 167/185/167 158/174/158 132/148/132
f 156/172/156 176/194/176 143/159/143
f 161/179/161 148/164/148 175/193/175
f 143/159/143 177/195/177 154/170/154
f 174/192/174 173/191/173 153/169/153
f 178/196/178 159/176/159 146/162/146
f 178/196/178 146/162/146 163/181/163
f 155/171/155 157/173/157 179/197/179
f 154/170/154 180/198/180 162/180/162
f 181/199/181 156/175/156 147/163/147
f 128/143/128 182/200/182 149/165/149
f 157/173/157 145/161/145 183/201/183
f 151/167/151 149/165/149 184/202/184
f 182/200/182 128/143/128 158/174/158
f 165/183/165 171/189/171 185/203/185
f 186/204/186 152/168/152 159/178/159
f 173/191/173 187/205/187 163/181/163
f 179/197/179 174/192/174 155/171/155
f 188/206/188 169/187/169 160/177/160
f 164/182/164 181/199/181 147/163/147
f 166/184/166 165/183/165 189/207/189
f 184/202/184 170/188/170 151/167/151
f 177/195/177 143/159/143 176/194/176
f 175/193/175 162/180/162 180/198/180
f 160/177/160 170/188/170 188/206/188
f 176/194/176 156/172/156 190/208/190
f 185/203/185 189/207/189 165/183/165
f 152/168/152 186/204/186 171/189/171
f 180/198/180 154/170/154 177/195/177
f 173/191/173 174/192/174 191/209/191
f 159/176/159 178/196/178 192/210/192
f 183/201/183 179/197/179 157/173/157
f 193/211/193 164/182/164 169/187/169
f 163/181/163 187/205/187 178/196/178
f 156/175/156 181/199/181 190/212/190
f 167/185/167 166/184/166 194/213/194
f 172/190/172 161/179/161 195/214/195
f 175/193/175 195/214/195 161/179/161
f 196/215/196 140/156/140 172/190/172
f 159/178/159 192/216/192 186/204/186
f 191/209/191 187/205/187 173/191/173
f 158/174/158 167/185/167 197/217/197
f 140/156/140 196/215/196 168/186/168
f 198/218/198 185/203/185 171/189/171
f 189/207/189 194/213/194 166/184/166
f 169/187/169 188/206/188 193/211/193
f 145/161/145 168/186/168 199/219/199
f 181/199/181 164/182/164 200/220/200
f 183/201/183 145/161/145 199/219/199
f 174/192/174 179/197/179 201/221/201
f 164/182/164 193/211/193 200/220/200
f 174/192/174 201/221/201 191/209/191
f 189/207/189 185/203/185 202/222/202
f 171/189/171 186/204/186 198/218/198
f 194/213/194 197/217/197 167/185/167
f 170/188/170 184/202/184 203/223/203
f 203/223/203 188/206/188 170/188/170
f 180/198/180 204/224/204 175/193/175
f 205/225/205 184/202/184 149/165/149
f 196/215/196 172/190/172 195/214/195
f 185/203/185 198/218/198 202/222/202
f 179/197/179 183/201/183 206/226/206
f 195/214/195 175/193/175 204/224/204
f 205/225/205 149/165/149 182/200/182
f 176/194/176 207/227/207 177/195/177
f 190/208/190 208/228/208 176/194/176
f 209/229/209 187/205/187 191/209/191
f 187/205/187 210/230/210 178/196/178
f 177/195/177 211/231/211 180/198/180
f 178/196/178 210/230/210 192/210/192
f 182/200/182 158/174/158 212/232/212
f 206/226/206 201/221/201 179/197/179
f 212/232/212 158/174/158 197/217/197
f 194/213/194 189/207/189 213/233/213
f 201/221/201 209/229/209 191/209/191
f 202/222/202 213/233/213 189/207/189
f 214/234/214 190/212/190 181/199/181
f 215/235/215 193/211/193 188/206/188
f 192/216/192 216/236/216 186/204/186
f 204/224/204 180/198/180 211/231/211
f 205/225/205 203/223/203 184/202/184
f 187/205/187 209/229/209 217/237/217
f 200/220/200 214/234/214 181/199/181
f 207/227/207 176/194/176 208/228/208
f 197/217/197 194/213/194 218/238/218
f 188/206/188 203/223/203 215/235/215
f 211/231/211 177/195/177 207/227/207
f 210/230/210 187/205/187 217/237/217
f 216/236/216 198/218/198 186/204/186
f 168/186/168 196/215/196 219/239/219
f 208/228/208 190/208/190 220/240/220
f 196/215/196 195/214/195 221/241/221
f 222/242/222 200/220/200 193/211/193
f 223/243/223 192/210/192 210/230/210
f 204/224/204 221/241/221 195/214/195
f 198/218/198 224/244/224 202/222/202
f 199/219/199 168/186/168 219/239/219
f 183/201/183 225/245/225 206/226/206
f 225/245/225 183/201/183 199/219/199
f 213/233/213 218/238/218 194/213/194
f 190/212/190 214/234/214 220/246/220
f 216/236/216 192/216/192 223/247/223
f 201/221/201 206/226/206 226/248/226
f 213/233/213 202/222/202 224/244/224
f 226/248/226 209/229/209 201/221/201
f 193/211/193 215/235/215 222/242/222
f 200/220/200 227/249/227 214/234/214
f 200/220/200 222/242/222 227/249/227
f 198/218/198 216/236/216 228/250/228
f 224/244/224 198/218/198 228/250/228
f 229/251/229 204/224/204 211/231/211
f 230/252/230 205/225/205 182/200/182
f 203/223/203 205/225/205 231/253/231
f 231/253/231 215/235/215 203/223/203
f 230/252/230 182/200/182 212/232/212
f 221/241/221 204/224/204 229/251/229
f 232/254/232 197/217/197 218/238/218
f 197/217/197 232/254/232 212/232/212
f 209/229/209 233/255/233 217/237/217
f 217/237/217 234/256/234 210/230/210
f 235/257/235 207/227/207 208/228/208
f 236/258/236 211/231/211 207/227/207
f 196/215/196 221/241/221 237/259/237
f 218/238/218 213/233/213 238/260/238
f 209/229/209 226/248/226 239/261/239
f 234/256/234 223/243/223 210/230/210
f 220/240/220 235/257/235 208/228/208
f 224/244/224 238/260/238 213/233/213
f 219/239/219 196/215/196 237/259/237
f 226/248/226 206/226/206 240/262/240
f 206/226/206 225/245/225 240/262/240
f 209/229/209 239/261/239 233/255/233
f 229/251/229 211/231/211 241/263/241
f 242/264/242 199/219/199 219/239/219
f 199/219/199 242/264/242 225/245/225
f 243/265/243 222/242/222 215/235/215
f 244/266/244 220/246/220 214/234/214
f 234/256/234 217/237/217 233/255/233
f 245/267/245 216/236/216 223/247/223
f 211/231/211 236/258/236 241/263/241
f 207/227/207 235/257/235 236/258/236
f 215/235/215 231/253/231 243/265/243
f 245/267/245 228/250/228 216/236/216
f 246/268/246 224/244/224 228/250/228
f 227/249/227 247/269/247 214/234/214
f 223/243/223 234/256/234 248/270/248
f 235/257/235 220/240/220 249/271/249
f 247/269/247 227/249/227 222/242/222
f 231/253/231 205/225/205 250/272/250
f 221/241/221 229/251/229 251/273/251
f 238/260/238 224/244/224 252/274/252
f 220/246/220 244/266/244 249/275/249
f 223/247/223 248/276/248 245/267/245
f 250/272/250 205/225/205 230/252/230
f 226/248/226 253/277/253 239/261/239
f 254/278/254 218/238/218 238/260/238
f 237/259/237 221/241/221 251/273/251
f 232/254/232 218/238/218 254/278/254
f 222/242/222 243/265/243 255/279/255
f 256/280/256 230/252/230 212/232/212
f 224/244/224 246/268/246 252/274/252
f 256/280/256 212/232/212 232/254/232
f 253/277/253 226/248/226 240/262/240
f 244/266/244 214/234/214 247/269/247
f 228/250/228 245/267/245 246/268/246
f 247/269/247 222/242/222 255/279/255
f 233/255/233 239/261/239 257/281/257
f 229/251/229 241/263/241 258/282/258
f 259/283/259 219/239/219 237/259/237
f 219/239/219 259/283/259 242/264/242
f 240/262/240 225/245/225 260/284/260
f 233/255/233 261/285/261 234/256/234
f 225/245/225 242/264/242 260/284/260
f 236/258/236 262/286/262 241/263/241
f 235/257/235 263/287/263 236/258/236
f 264/288/264 243/265/243 231/253/231
f 234/256/234 261/285/261 248/270/248
f 251/273/251 229/251/229 258/282/258
f 239/261/239 253/277/253 257/281/257
f 249/271/249 265/289/265 235/257/235
f 266/290/266 238/260/238 252/274/252
f 264/288/264 231/253/231 250/272/250
f 261/285/261 233/255/233 257/281/257
f 258/282/258 241/263/241 262/286/262
f 244/266/244 265/291/265 249/275/249
f 262/286/262 236/258/236 263/287/263
f 238/260/238 266/290/266 254/278/254
f 248/276/248 267/292/267 245/267/245
f 268/293/268 237/259/237 251/273/251
f 263/287/263 235/257/235 265/289/265
f 255/279/255 243/265/243 269/294/269
f 230/252/230 270/295/270 250/272/250
f 261/285/261 271/296/271 248/270/248
f 272/297/272 252/274/252 246/268/246
f 240/262/240 273/298/273 253/277/253
f 267/292/267 246/268/246 245/267/245
f 237/259/237 268/293/268 259/283/259
f 270/295/270 230/252/230 256/280/256
f 274/299/274 232/254/232 254/278/254
f 275/300/275 244/266/244 247/269/247
f 274/299/274 256/280/256 232/254/232
f 275/300/275 247/269/247 255/279/255
f 273/298/273 240/262/240 260/284/260
f 267/292/267 248/276/248 271/301/271
f 242/264/242 259/283/259 276/302/276
f 260/284/260 242/264/242 276/302/276
f 269/294/269 243/265/243 264/288/264
f 265/291/265 244/266/244 277/303/277
f 266/290/266 252/274/252 272/297/272
f 278/304/278 257/281/257 253/277/253
f 279/305/279 251/273/251 258/282/258
f 246/268/246 267/292/267 272/297/272
f 244/266/244 275/300/275 277/303/277
f 257/281/257 280/306/280 261/285/261
f 281/307/281 258/282/258 262/286/262
f 275/300/275 255/279/255 269/294/269
f 251/273/251 279/305/279 268/293/268
f 282/308/282 262/286/262 263/287/263
f 253/277/253 273/298/273 278/304/278
f 283/309/283 264/288/264 250/272/250
f 261/285/261 284/310/284 271/296/271
f 280/306/280 257/281/257 278/304/278
f 265/289/265 285/311/285 263/287/263
f 286/312/286 254/278/254 266/290/266
f 258/282/258 281/307/281 279/305/279
f 259/283/259 268/293/268 287/313/287
f 283/309/283 250/272/250 270/295/270
f 262/286/262 282/308/282 281/307/281
f 260/284/260 288/314/288 273/298/273
f 276/302/276 259/283/259 287/313/287
f 286/312/286 274/299/274 254/278/254
f 288/314/288 260/284/260 276/302/276
f 284/315/284 267/292/267 271/301/271
f 284/310/284 261/285/261 280/306/280
f 277/303/277 285/316/285 265/291/265
f 270/295/270 256/280/256 289/317/289
f 263/287/263 285/311/285 282/308/282
f 289/317/289 256/280/256 274/299/274
f 264/288/264 290/318/290 269/294/269
f 291/319/291 266/290/266 272/297/272
f 268/293/268 279/305/279 292/320/292
f 272/297/272 267/292/267 293/321/293
f 294/322/294 278/304/278 273/298/273
f 287/313/287 268/293/268 292/320/292
f 275/300/275 295/323/295 277/303/277
f 295/323/295 275/300/275 269/294/269
f 281/307/281 296/324/296 279/305/279
f 290/318/290 264/288/264 283/309/283
f 273/298/273 288/314/288 294/322/294
f 278/304/278 297/325/297 280/306/280
f 267/292/267 284/315/284 293/321/293
f 291/319/291 286/312/286 266/290/266
f 298/326/298 276/302/276 287/313/287
f 285/316/285 277/303/277 299/327/299
f 282/308/282 300/328/300 281/307/281
f 276/302/276 298/326/298 288/314/288
f 292/320/292 279/305/279 296/324/296
f 297/325/297 278/304/278 294/322/294
f 291/319/291 272/297/272 293/321/293
f 299/327/299 277/303/277 295/323/295
f 281/307/281 300/328/300 296/324/296
f 301/329/301 283/309/283 270/295/270
f 295/323/295 269/294/269 290/318/290
f 280/306/280 302/330/302 284/310/284
f 303/331/303 287/313/287 292/320/292
f 285/311/285 304/332/304 282/308/282
f 305/333/305 274/299/274 286/312/286
f 270/295/270 289/317/289 301/329/301
f 287/313/287 303/331/303 298/326/298
f 274/299/274 305/333/305 289/317/289
f 306/334/306 294/322/294 288/314/288
f 302/330/302 280/306/280 297/325/297
f 288/314/288 298/326/298 306/334/306
f 282/308/282 304/332/304 300/328/300
f 296/324/296 307/335/307 292/320/292
f 302/336/302 293/321/293 284/315/284
f 292/320/292 307/335/307 303/331/303
f 299/327/299 304/337/304 285/316/285
f 307/335/307 298/326/298 303/331/303
f 294/322/294 308/338/308 297/325/297
f 309/339/309 296/324/296 300/328/300
f 307/335/307 306/334/306 298/326/298
f 308/338/308 294/322/294 306/334/306
f 290/318/290 283/309/283 310/340/310
f 296/324/296 309/339/309 307/335/307
f 311/341/311 286/312/286 291/319/291
f 293/321/293 311/341/311 291/319/291
f 309/339/309 306/334/306 307/335/307
f 310/340/310 283/309/283 301/329/301
f 306/334/306 309/339/309 308/338/308
f 312/342/312 299/327/299 295/323/295
f 312/342/312 295/323/295 290/318/290
f 293/321/293 302/336/302 313/343/313
f 305/333/305 286/312/286 311/341/311
f 297/325/297 314/344/314 302/330/302
f 314/344/314 297/325/297 308/338/308
f 304/337/304 299/327/299 315/345/315
f 316/346/316 309/339/309 300/328/300
f 304/332/304 316/346/316 300/328/300
f 317/347/317 301/329/301 289/317/289
f 289/317/289 305/333/305 317/347/317
f 311/341/311 293/321/293 313/343/313
f 312/342/312 290/318/290 310/340/310
f 316/346/316 308/338/308 309/339/309
f 299/327/299 312/342/312 315/345/315
f 314/348/314 313/343/313 302/336/302
f 308/338/308 316/346/316 314/344/314
f 315/345/315 316/349/316 304/337/304
f 301/329/301 318/350/318 310/340/310
f 318/350/318 301/329/301 317/347/317
f 305/333/305 311/341/311 319/351/319
f 317/347/317 305/333/305 319/351/319
f 313/343/313 314/348/314 320/352/320
f 313/343/313 319/351/319 311/341/311
f 321/353/321 312/342/312 310/340/310
f 315/345/315 322/354/322 316/349/316
f 316/349/316 320/352/320 314/348/314
f 312/342/312 321/353/321 315/345/315
f 321/353/321 310/340/310 318/350/318
f 319/351/319 313/343/313 320/352/320
f 317/347/317 321/353/321 318/350/318
f 321/353/321 322/354/322 315/345/315
f 320/352/320 316/349/316 322/354/322
f 321/353/321 317/347/317 319/351/319
f 320/352/320 322/354/322 321/353/321
f 321/353/321 319/351/319 320/352/320
