# This file uses centimeters as units for non-parametric coordinates.

mtllib mouth.mtl
g default
v -0.000000 8.303537 3.979069
v -0.000000 8.346142 4.034153
v 0.207509 8.324011 3.959523
v 0.203222 8.325689 3.976233
v 0.000000 8.396573 4.067087
v 0.190551 8.361595 4.024308
v 0.000000 8.468058 3.929389
v 0.000000 8.498053 4.038764
v -0.000000 8.452178 4.069316
v 0.179271 8.410507 4.057380
v 0.150245 8.510368 4.029414
v 0.165346 8.465605 4.061460
v 0.392147 8.384907 3.956432
v 0.371603 8.414225 4.003301
v 0.389694 8.379255 3.926265
v 0.351600 8.460157 4.035353
v 0.303475 8.549276 4.004403
v -0.000000 8.479982 3.908321
v 0.316924 8.519117 3.881657
v 0.325977 8.512638 4.037822
v 0.530765 8.461554 3.926102
v 0.525676 8.454380 3.893788
v 0.516375 8.489941 3.972147
v 0.430547 8.610674 3.974569
v 0.452157 8.586700 3.851333
v 0.458849 8.580854 4.005167
v 0.492469 8.532068 4.001599
v 0.643013 8.560249 3.888704
v -0.000000 9.217676 3.827466
v -0.000000 9.221595 3.814054
v 0.642216 8.550680 3.849640
v 0.531955 8.694040 3.942737
v 0.556778 8.679214 3.819656
v 0.634723 8.589630 3.937284
v 0.000000 9.219231 3.931513
v 0.569330 8.668173 3.971683
v 0.000000 9.280589 3.943872
v 0.741410 8.668449 3.810726
v 0.608103 8.627277 3.968163
v 0.136600 9.226900 3.929273
v 0.747082 8.691427 3.848125
v 0.608510 8.801306 3.916935
v -0.000000 9.360801 3.924584
v 0.635187 8.794775 3.794144
v 0.000000 9.428307 3.877473
v 0.736134 8.718220 3.901508
v 0.705158 8.747747 3.935791
v 0.138433 9.290779 3.941456
v 0.658244 8.779520 3.942538
v 0.291770 9.250250 3.925493
v 0.834243 8.847807 3.768149
v 0.305383 9.249872 3.808888
v 0.133561 9.437819 3.869356
v 0.136894 9.370760 3.919721
v 0.671316 8.917751 3.899024
v 0.235601 9.449183 3.738215
v 0.694997 8.918348 3.777890
v 0.835979 8.858685 3.811678
v 0.814186 8.873671 3.869513
v 0.726856 8.906458 3.919858
v 0.294933 9.313448 3.937028
v 0.274823 9.479893 3.784184
v 0.290131 9.388264 3.912927
v 0.434967 9.276258 3.917250
v 0.705749 9.033787 3.891935
v 0.777967 8.889870 3.908444
v 0.455093 9.276819 3.804702
v 0.729390 9.040213 3.774014
v 0.284651 9.452007 3.858942
v 0.409706 9.496986 3.726626
v 0.878253 9.037445 3.779728
v 0.570947 9.293589 3.790453
v 0.879262 9.036434 3.727578
v 0.851125 9.037107 3.844020
v 0.761519 9.035498 3.906638
v 0.442290 9.335569 3.925440
v 0.434060 9.495445 3.758355
v 0.436970 9.460249 3.839861
v 0.543783 9.288170 3.905352
v 0.708280 9.136642 3.893276
v 0.440669 9.403568 3.898476
v 0.732519 9.146353 3.779212
v 0.812914 9.037090 3.889301
v 0.564211 9.477997 3.704927
v 0.864920 9.193449 3.754024
v 0.623249 9.266262 3.901402
v 0.648785 9.275961 3.789975
v 0.678810 9.214626 3.897548
v 0.704260 9.225622 3.785876
v 0.851169 9.188938 3.704295
v 0.582696 9.472794 3.733747
v 0.560664 9.336382 3.912183
v 0.757409 9.150085 3.902318
v 0.576716 9.440222 3.819235
v 0.839167 9.183887 3.826262
v 0.687238 9.410425 3.686530
v 0.803572 9.168673 3.878853
v 0.570429 9.391449 3.882354
v 0.804553 9.317116 3.735977
v 0.786860 9.311914 3.692036
v 0.707597 9.411957 3.727715
v 0.652016 9.302710 3.906783
v 0.718574 9.240194 3.903327
v 0.693807 9.387295 3.813295
v 0.675326 9.347479 3.876407
v 0.783571 9.301264 3.816006
v 0.754907 9.272938 3.875150
v 0.000000 8.465130 3.917873
v 0.000000 9.451250 3.805992
v 0.000000 9.426760 3.742763
v 0.128305 9.463947 3.802827
v -0.207509 8.324011 3.959523
v -0.203222 8.325689 3.976233
v -0.190551 8.361595 4.024308
v -0.179271 8.410507 4.057380
v -0.150245 8.510368 4.029414
v -0.165346 8.465605 4.061460
v -0.392147 8.384907 3.956432
v -0.371603 8.414225 4.003301
v -0.389694 8.379255 3.926265
v -0.351600 8.460157 4.035353
v -0.303475 8.549276 4.004403
v -0.316924 8.519117 3.881657
v -0.325977 8.512638 4.037822
v -0.530765 8.461554 3.926102
v -0.525676 8.454380 3.893788
v -0.516375 8.489941 3.972147
v -0.430547 8.610674 3.974569
v -0.452157 8.586700 3.851333
v -0.458849 8.580854 4.005167
v -0.492469 8.532068 4.001599
v -0.643013 8.560249 3.888704
v -0.642216 8.550680 3.849640
v -0.531955 8.694040 3.942737
v -0.556778 8.679214 3.819656
v -0.634723 8.589630 3.937284
v -0.569330 8.668173 3.971683
v -0.741410 8.668449 3.810726
v -0.608103 8.627277 3.968163
v -0.136600 9.226900 3.929273
v -0.747082 8.691427 3.848125
v -0.608510 8.801306 3.916935
v -0.635187 8.794775 3.794144
v -0.736134 8.718220 3.901508
v -0.705158 8.747747 3.935791
v -0.138433 9.290779 3.941456
v -0.658244 8.779520 3.942538
v -0.291770 9.250250 3.925493
v -0.834243 8.847807 3.768149
v -0.305383 9.249872 3.808888
v -0.133561 9.437819 3.869356
v -0.136894 9.370760 3.919721
v -0.671316 8.917751 3.899024
v -0.235601 9.449183 3.738215
v -0.694997 8.918348 3.777890
v -0.835979 8.858685 3.811678
v -0.814186 8.873671 3.869513
v -0.726856 8.906458 3.919858
v -0.294933 9.313448 3.937028
v -0.274823 9.479893 3.784184
v -0.290131 9.388264 3.912927
v -0.434967 9.276258 3.917250
v -0.705749 9.033787 3.891935
v -0.777967 8.889870 3.908444
v -0.455093 9.276819 3.804702
v -0.729390 9.040213 3.774014
v -0.284651 9.452007 3.858942
v -0.409706 9.496986 3.726626
v -0.878253 9.037445 3.779728
v -0.570947 9.293589 3.790453
v -0.879262 9.036434 3.727578
v -0.851125 9.037107 3.844020
v -0.761519 9.035498 3.906638
v -0.442290 9.335569 3.925440
v -0.434060 9.495445 3.758355
v -0.436970 9.460249 3.839861
v -0.543783 9.288170 3.905352
v -0.708280 9.136642 3.893276
v -0.440669 9.403568 3.898476
v -0.732519 9.146353 3.779212
v -0.812914 9.037090 3.889301
v -0.564211 9.477997 3.704927
v -0.864920 9.193449 3.754024
v -0.623249 9.266262 3.901402
v -0.648785 9.275961 3.789975
v -0.678810 9.214626 3.897548
v -0.704260 9.225622 3.785876
v -0.851169 9.188938 3.704295
v -0.582696 9.472794 3.733747
v -0.560664 9.336382 3.912183
v -0.757409 9.150085 3.902318
v -0.576716 9.440222 3.819235
v -0.839167 9.183887 3.826262
v -0.687238 9.410425 3.686530
v -0.803572 9.168673 3.878853
v -0.570429 9.391449 3.882354
v -0.804553 9.317116 3.735977
v -0.786860 9.311914 3.692036
v -0.707597 9.411957 3.727715
v -0.652016 9.302710 3.906783
v -0.718574 9.240194 3.903327
v -0.693807 9.387295 3.813295
v -0.675326 9.347479 3.876407
v -0.783571 9.301264 3.816006
v -0.754907 9.272938 3.875150
v -0.128305 9.463947 3.802827
vt 0.017634 0.993216
vt 0.017599 0.993444
vt 0.017585 0.993434
vt 0.017566 0.993209
vt 0.017532 0.993407
vt 0.017477 0.993386
vt 0.017508 0.993203
vt 0.017305 0.993184
vt 0.017404 0.993194
vt 0.017372 0.993349
vt 0.017425 0.993367
vt 0.017455 0.993198
vt 0.017505 0.993632
vt 0.017463 0.993593
vt 0.017531 0.993646
vt 0.017415 0.993561
vt 0.017324 0.993504
vt 0.017279 0.993182
vt 0.017211 0.993474
vt 0.017368 0.993531
vt 0.017410 0.993783
vt 0.017437 0.993802
vt 0.017371 0.993746
vt 0.017250 0.993643
vt 0.017145 0.993598
vt 0.017287 0.993674
vt 0.017330 0.993710
vt 0.017294 0.993913
vt 0.017318 0.993943
vt 0.017151 0.993756
vt 0.017060 0.993690
vt 0.017254 0.993874
vt 0.016558 0.993149
vt 0.016573 0.993149
vt 0.016448 0.993275
vt 0.017183 0.993795
vt 0.017170 0.994058
vt 0.017218 0.993835
vt 0.016456 0.993147
vt 0.017135 0.994030
vt 0.017030 0.993840
vt 0.016958 0.993755
vt 0.016395 0.993146
vt 0.017102 0.993982
vt 0.016092 0.993143
vt 0.016159 0.993143
vt 0.016156 0.993289
vt 0.017076 0.993937
vt 0.016386 0.993280
vt 0.016315 0.993144
vt 0.017052 0.993890
vt 0.016225 0.993288
vt 0.016438 0.993423
vt 0.016942 0.994155
vt 0.016547 0.993441
vt 0.016234 0.993143
vt 0.016306 0.993284
vt 0.016896 0.993897
vt 0.016092 0.993412
vt 0.016852 0.993801
vt 0.016928 0.994113
vt 0.016917 0.994052
vt 0.016901 0.993951
vt 0.016379 0.993435
vt 0.016148 0.993454
vt 0.016305 0.993443
vt 0.016434 0.993568
vt 0.016761 0.993917
vt 0.016908 0.994001
vt 0.016533 0.993578
vt 0.016752 0.993820
vt 0.016226 0.993451
vt 0.016121 0.993620
vt 0.016714 0.994136
vt 0.016703 0.994185
vt 0.016729 0.994070
vt 0.016751 0.993967
vt 0.016382 0.993587
vt 0.016158 0.993637
vt 0.016240 0.993615
vt 0.016447 0.993687
vt 0.016641 0.993899
vt 0.016315 0.993600
vt 0.016539 0.993674
vt 0.016670 0.993812
vt 0.016741 0.994015
vt 0.016167 0.993798
vt 0.016537 0.994103
vt 0.016486 0.993779
vt 0.016565 0.993736
vt 0.016549 0.993852
vt 0.016610 0.993781
vt 0.016514 0.994148
vt 0.016201 0.993803
vt 0.016406 0.993712
vt 0.016624 0.993941
vt 0.016280 0.993762
vt 0.016571 0.994038
vt 0.016241 0.993947
vt 0.016600 0.993985
vt 0.016351 0.993734
vt 0.016398 0.994034
vt 0.016363 0.994065
vt 0.016285 0.993934
vt 0.016456 0.993809
vt 0.016526 0.993886
vt 0.016351 0.993880
vt 0.016411 0.993839
vt 0.016447 0.993972
vt 0.016492 0.993923
vt 0.017295 0.993184
vt 0.017619 0.992990
vt 0.017634 0.992983
vt 0.017562 0.993007
vt 0.017505 0.993017
vt 0.017396 0.993034
vt 0.017450 0.993026
vt 0.017565 0.992778
vt 0.017518 0.992809
vt 0.017593 0.992769
vt 0.017467 0.992832
vt 0.017370 0.992873
vt 0.017256 0.992884
vt 0.017417 0.992855
vt 0.017484 0.992613
vt 0.017514 0.992598
vt 0.017441 0.992643
vt 0.017308 0.992727
vt 0.017199 0.992761
vt 0.017348 0.992702
vt 0.017395 0.992673
vt 0.017377 0.992469
vt 0.017405 0.992442
vt 0.017216 0.992608
vt 0.017118 0.992667
vt 0.017332 0.992502
vt 0.016459 0.993019
vt 0.017252 0.992572
vt 0.017261 0.992311
vt 0.017292 0.992536
vt 0.017223 0.992334
vt 0.017098 0.992514
vt 0.017018 0.992593
vt 0.017184 0.992379
vt 0.016166 0.992998
vt 0.017154 0.992421
vt 0.016396 0.993011
vt 0.017125 0.992466
vt 0.016235 0.993000
vt 0.016461 0.992871
vt 0.017033 0.992190
vt 0.016573 0.992859
vt 0.016316 0.993005
vt 0.016964 0.992445
vt 0.016109 0.992875
vt 0.016913 0.992539
vt 0.017015 0.992231
vt 0.016998 0.992290
vt 0.016974 0.992391
vt 0.016400 0.992857
vt 0.016168 0.992833
vt 0.016326 0.992848
vt 0.016464 0.992728
vt 0.016825 0.992412
vt 0.016985 0.992341
vt 0.016565 0.992721
vt 0.016810 0.992510
vt 0.016246 0.992838
vt 0.016150 0.992669
vt 0.016794 0.992189
vt 0.016787 0.992138
vt 0.016805 0.992256
vt 0.016819 0.992361
vt 0.016412 0.992707
vt 0.016188 0.992652
vt 0.016270 0.992676
vt 0.016481 0.992611
vt 0.016699 0.992419
vt 0.016345 0.992692
vt 0.016569 0.992626
vt 0.016720 0.992511
vt 0.016812 0.992312
vt 0.016206 0.992493
vt 0.016607 0.992207
vt 0.016527 0.992523
vt 0.016598 0.992571
vt 0.016651 0.992534
vt 0.016600 0.992457
vt 0.016587 0.992161
vt 0.016242 0.992488
vt 0.016443 0.992585
vt 0.016685 0.992375
vt 0.016319 0.992530
vt 0.016638 0.992274
vt 0.016292 0.992346
vt 0.016664 0.992330
vt 0.016389 0.992561
vt 0.016458 0.992267
vt 0.016425 0.992234
vt 0.016335 0.992360
vt 0.016500 0.992492
vt 0.016579 0.992421
vt 0.016400 0.992417
vt 0.016457 0.992460
vt 0.016505 0.992330
vt 0.016547 0.992382
vn 0.000000 -0.794860 0.606793
vn 0.235010 -0.959612 0.154647
vn 0.199209 -0.827136 0.525512
vn 0.000001 -0.692146 0.721757
vn 0.176428 -0.662166 0.728292
vn 0.142059 -0.319857 0.936755
vn 0.000000 -0.333693 0.942682
vn 0.000000 0.999868 -0.016229
vn -0.000000 0.990245 0.139340
vn -0.167502 0.941916 0.291098
vn 0.051376 0.255319 0.965491
vn -0.000001 0.244680 0.969604
vn 0.406871 -0.792067 0.455067
vn 0.344971 -0.591508 0.728775
vn 0.402858 -0.905061 0.136270
vn 0.250512 -0.236112 0.938880
vn -0.234039 0.971922 0.024373
vn -0.000000 0.999213 -0.039676
vn -0.263832 0.930132 -0.255435
vn 0.051766 0.315520 0.947506
vn 0.600662 -0.698734 0.388555
vn 0.588554 -0.802769 0.095739
vn 0.515849 -0.489953 0.702742
vn -0.509047 0.858135 0.066893
vn -0.588162 0.771012 -0.244144
vn 0.047495 0.322580 0.945350
vn 0.341612 -0.145614 0.928492
vn 0.727363 -0.598785 0.335259
vn 0.727895 -0.669281 0.149103
vn -0.702218 0.703848 0.107180
vn -0.768105 0.600903 -0.221200
vn 0.650986 -0.427791 0.627067
vn 0.000000 -0.998444 -0.055754
vn -0.000000 -0.998675 -0.051467
vn 0.129340 -0.926439 0.353529
vn -0.003225 0.293463 0.955965
vn 0.841964 -0.509594 0.177233
vn 0.393281 -0.102783 0.913655
vn -0.000000 -0.883758 0.467944
vn 0.840772 -0.458094 0.288534
vn -0.815357 0.552184 0.174027
vn -0.861432 0.466637 -0.200461
vn 0.000000 0.040027 0.999199
vn 0.752112 -0.343456 0.562464
vn -0.000000 0.930804 -0.365519
vn -0.000000 0.999978 0.006627
vn -0.092981 0.994119 -0.055520
vn 0.452319 -0.088282 0.887476
vn 0.019807 0.058084 0.998115
vn 0.000001 0.405288 0.914189
vn -0.034907 0.229978 0.972570
vn -0.036632 0.786028 0.617104
vn 0.131998 -0.932891 0.335098
vn 0.937321 -0.344390 0.053147
vn 0.123817 -0.992140 0.018125
vn 0.000000 0.785618 0.618712
vn -0.006820 0.437135 0.899370
vn -0.885424 0.402466 0.232476
vn -0.168150 0.897277 -0.408192
vn -0.925042 0.336097 -0.177020
vn 0.924711 -0.292239 0.243939
vn 0.817355 -0.198692 0.540788
vn -0.011468 0.142925 0.989667
vn 0.041657 0.091625 0.994922
vn -0.123154 0.990342 0.063690
vn 0.007900 0.491237 0.870990
vn 0.174257 -0.872885 0.455748
vn -0.947801 0.185231 0.259544
vn 0.522790 -0.055894 0.850627
vn 0.152460 -0.988220 0.013294
vn -0.969791 0.154536 -0.188742
vn -0.014110 0.818172 0.574801
vn -0.056417 0.998225 -0.019061
vn 0.973616 -0.048494 0.222981
vn 0.997755 -0.066548 -0.007458
vn 0.868591 -0.014125 0.495329
vn 0.067956 0.067381 0.995410
vn 0.087474 0.157705 0.983604
vn 0.076545 0.955804 0.283865
vn 0.090102 0.844801 0.527439
vn 0.027366 -0.917517 0.396753
vn -0.958224 -0.131437 0.254029
vn 0.086106 0.576056 0.812863
vn -0.053132 -0.996051 -0.071127
vn -0.968154 -0.118328 -0.220626
vn 0.604402 0.018261 0.796470
vn 0.262913 0.964787 -0.007959
vn 0.952217 0.286651 0.105421
vn -0.406343 -0.859906 0.308945
vn -0.481461 -0.856179 -0.187494
vn -0.798102 -0.536258 0.274701
vn -0.833469 -0.498201 -0.239007
vn 0.919874 0.264630 -0.289486
vn 0.324577 0.916831 0.232530
vn 0.142512 0.237061 0.960985
vn 0.181195 0.064242 0.981347
vn 0.282626 0.838154 0.466498
vn 0.850530 0.263617 0.455087
vn 0.531615 0.797579 -0.285049
vn 0.651330 0.200763 0.731754
vn 0.233066 0.637581 0.734282
vn 0.803742 0.591149 0.067390
vn 0.752986 0.545157 -0.368533
vn 0.578690 0.809758 0.097002
vn 0.195381 0.234180 0.952358
vn 0.228933 0.142307 0.962984
vn 0.508905 0.748497 0.425169
vn 0.410519 0.594689 0.691245
vn 0.717564 0.553984 0.422141
vn 0.582937 0.434664 0.686478
vn -0.000000 0.870286 0.492547
vn -0.199210 -0.827137 0.525509
vn -0.235010 -0.959612 0.154647
vn -0.176429 -0.662166 0.728292
vn -0.142059 -0.319856 0.936756
vn 0.167502 0.941915 0.291099
vn -0.051376 0.255318 0.965491
vn -0.406871 -0.792068 0.455065
vn -0.344973 -0.591511 0.728772
vn -0.402859 -0.905061 0.136272
vn -0.250513 -0.236114 0.938879
vn 0.234039 0.971922 0.024374
vn 0.263832 0.930133 -0.255432
vn -0.051764 0.315520 0.947506
vn -0.600660 -0.698733 0.388560
vn -0.588554 -0.802768 0.095750
vn -0.515848 -0.489953 0.702742
vn 0.509047 0.858135 0.066895
vn 0.588162 0.771013 -0.244142
vn -0.047491 0.322580 0.945350
vn -0.341610 -0.145615 0.928493
vn -0.727362 -0.598786 0.335261
vn -0.727895 -0.669281 0.149104
vn 0.702217 0.703849 0.107180
vn 0.768105 0.600903 -0.221200
vn -0.650986 -0.427792 0.627066
vn -0.129341 -0.926439 0.353529
vn 0.003225 0.293463 0.955965
vn -0.841962 -0.509596 0.177234
vn -0.393283 -0.102784 0.913654
vn -0.840772 -0.458095 0.288534
vn 0.815357 0.552184 0.174027
vn 0.861432 0.466638 -0.200459
vn -0.752112 -0.343456 0.562464
vn 0.092981 0.994119 -0.055519
vn -0.452320 -0.088282 0.887476
vn -0.019807 0.058084 0.998115
vn 0.034906 0.229980 0.972569
vn 0.036632 0.786028 0.617105
vn -0.131998 -0.932891 0.335098
vn -0.937321 -0.344390 0.053148
vn -0.123817 -0.992140 0.018126
vn 0.006820 0.437135 0.899370
vn 0.885424 0.402466 0.232477
vn 0.168150 0.897277 -0.408190
vn 0.925042 0.336097 -0.177019
vn -0.924711 -0.292238 0.243939
vn -0.817355 -0.198692 0.540788
vn 0.011468 0.142926 0.989667
vn -0.041659 0.091625 0.994922
vn 0.123154 0.990342 0.063690
vn -0.007901 0.491237 0.870990
vn -0.174258 -0.872885 0.455747
vn 0.947801 0.185231 0.259544
vn -0.522790 -0.055894 0.850627
vn -0.152459 -0.988220 0.013295
vn 0.969791 0.154536 -0.188743
vn 0.014110 0.818172 0.574801
vn 0.056417 0.998225 -0.019065
vn -0.973616 -0.048494 0.222981
vn -0.997755 -0.066549 -0.007457
vn -0.868590 -0.014125 0.495330
vn -0.067956 0.067381 0.995410
vn -0.087474 0.157704 0.983604
vn -0.076545 0.955804 0.283866
vn -0.090102 0.844802 0.527439
vn -0.027365 -0.917517 0.396753
vn 0.958224 -0.131437 0.254028
vn -0.086105 0.576055 0.812863
vn 0.053132 -0.996051 -0.071126
vn 0.968154 -0.118327 -0.220627
vn -0.604400 0.018262 0.796472
vn -0.262913 0.964787 -0.007958
vn -0.952217 0.286650 0.105421
vn 0.406344 -0.859906 0.308945
vn 0.481461 -0.856178 -0.187494
vn 0.833470 -0.498201 -0.239006
vn 0.798102 -0.536258 0.274700
vn -0.919874 0.264631 -0.289486
vn -0.324578 0.916831 0.232529
vn -0.142510 0.237060 0.960986
vn -0.181195 0.064242 0.981347
vn -0.282626 0.838155 0.466496
vn -0.850532 0.263617 0.455084
vn -0.531616 0.797579 -0.285048
vn -0.651331 0.200763 0.731752
vn -0.233064 0.637581 0.734283
vn -0.803742 0.591149 0.067392
vn -0.752987 0.545156 -0.368531
vn -0.578691 0.809758 0.097002
vn -0.195382 0.234180 0.952358
vn -0.228931 0.142307 0.962985
vn -0.508905 0.748498 0.425166
vn -0.410520 0.594690 0.691243
vn -0.717565 0.553984 0.422140
vn -0.582938 0.434664 0.686477
s 1
g mouth Jake
usemtl lambert2SG
f 1/1/1 3/2/2 4/3/3
f 2/4/4 1/1/1 6/5/5
f 2/4/4 6/5/5 10/6/6
f 10/6/6 5/7/7 2/4/4
f 7/8/8 8/9/9 11/10/10
f 12/11/11 9/12/12 5/7/7
f 13/13/13 4/3/3 3/2/2
f 11/10/10 8/9/9 9/12/12
f 14/14/14 6/5/5 4/3/3
f 3/2/2 15/15/15 13/13/13
f 14/14/14 4/3/3 13/13/13
f 6/5/5 16/16/16 10/6/6
f 17/17/17 18/18/18 11/10/10
f 18/18/18 17/17/17 19/19/19
f 16/16/16 6/5/5 14/14/14
f 10/6/6 20/20/20 12/11/11
f 12/11/11 17/17/17 11/10/10
f 21/21/21 13/13/13 15/15/15
f 20/20/20 10/6/6 16/16/16
f 17/17/17 12/11/11 20/20/20
f 21/21/21 15/15/15 22/22/22
f 23/23/23 14/14/14 13/13/13
f 24/24/24 19/19/19 17/17/17
f 14/14/14 23/23/23 16/16/16
f 19/19/19 24/24/24 25/25/25
f 23/23/23 13/13/13 21/21/21
f 20/20/20 24/24/24 17/17/17
f 16/16/16 26/26/26 20/20/20
f 16/16/16 23/23/23 27/27/27
f 22/22/22 28/28/28 21/21/21
f 26/26/26 16/16/16 27/27/27
f 24/24/24 20/20/20 26/26/26
f 28/28/28 23/23/23 21/21/21
f 28/28/28 22/22/22 31/29/29
f 32/30/30 25/25/25 24/24/24
f 25/25/25 32/30/30 33/31/31
f 34/32/32 27/27/27 23/23/23
f 26/26/26 32/30/30 24/24/24
f 23/23/23 28/28/28 34/32/32
f 29/33/33 30/34/34 40/35/35
f 27/27/27 36/36/36 26/26/26
f 38/37/37 28/28/28 31/29/29
f 27/27/27 34/32/32 39/38/38
f 26/26/26 36/36/36 32/30/30
f 36/36/36 27/27/27 39/38/38
f 35/39/39 29/33/33 40/35/35
f 41/40/40 34/32/32 28/28/28
f 42/41/41 33/31/31 32/30/30
f 28/28/28 38/37/37 41/40/40
f 33/31/31 42/41/41 44/42/42
f 40/35/35 37/43/43 35/39/39
f 36/36/36 42/41/41 32/30/30
f 46/44/44 39/38/38 34/32/32
f 110/45/45 109/46/46 111/47/47
f 47/48/48 36/36/36 39/38/38
f 34/32/32 41/40/40 46/44/44
f 48/49/49 37/43/43 40/35/35
f 48/49/49 43/50/50 37/43/43
f 36/36/36 49/51/51 42/41/41
f 111/47/47 109/46/46 53/52/52
f 40/35/35 30/34/34 50/53/53
f 39/38/38 46/44/44 47/48/48
f 51/54/54 41/40/40 38/37/37
f 36/36/36 47/48/48 49/51/51
f 50/53/53 30/34/34 52/55/55
f 53/52/52 109/46/46 45/56/56
f 54/57/57 45/56/56 43/50/50
f 55/58/58 44/42/42 42/41/41
f 53/52/52 45/56/56 54/57/57
f 111/47/47 56/59/59 110/45/45
f 44/42/42 55/58/58 57/60/60
f 50/53/53 48/49/49 40/35/35
f 58/61/61 46/44/44 41/40/40
f 49/51/51 55/58/58 42/41/41
f 41/40/40 51/54/54 58/61/61
f 59/62/62 47/48/48 46/44/44
f 47/48/48 60/63/63 49/51/51
f 61/64/64 54/57/57 48/49/49
f 56/59/59 111/47/47 62/65/65
f 53/52/52 62/65/65 111/47/47
f 48/49/49 50/53/53 61/64/64
f 46/44/44 58/61/61 59/62/62
f 49/51/51 60/63/63 55/58/58
f 63/66/66 53/52/52 54/57/57
f 50/53/53 52/55/55 64/67/67
f 65/68/68 57/60/60 55/58/58
f 47/48/48 66/69/69 60/63/63
f 47/48/48 59/62/62 66/69/69
f 64/67/67 52/55/55 67/70/70
f 54/57/57 61/64/64 63/66/66
f 57/60/60 65/68/68 68/71/71
f 53/52/52 69/72/72 62/65/65
f 62/65/65 70/73/73 56/59/59
f 53/52/52 63/66/66 69/72/72
f 64/67/67 61/64/64 50/53/53
f 71/74/74 58/61/61 51/54/54
f 65/68/68 55/58/58 60/63/63
f 71/74/74 51/54/54 73/75/75
f 74/76/76 59/62/62 58/61/61
f 75/77/77 60/63/63 66/69/69
f 76/78/78 63/66/66 61/64/64
f 70/73/73 62/65/65 77/79/79
f 74/76/76 66/69/69 59/62/62
f 78/80/80 62/65/65 69/72/72
f 61/64/64 64/67/67 76/78/78
f 60/63/63 75/77/77 65/68/68
f 64/67/67 67/70/70 79/81/81
f 80/82/82 68/71/71 65/68/68
f 81/83/83 69/72/72 63/66/66
f 79/81/81 67/70/70 72/84/84
f 74/76/76 58/61/61 71/74/74
f 68/71/71 80/82/82 82/85/85
f 62/65/65 78/80/80 77/79/79
f 66/69/69 83/86/86 75/77/77
f 63/66/66 76/78/78 81/83/83
f 66/69/69 74/76/76 83/86/86
f 77/79/79 84/87/87 70/73/73
f 79/81/81 76/78/78 64/67/67
f 75/77/77 80/82/82 65/68/68
f 69/72/72 81/83/83 78/80/80
f 73/75/75 85/88/88 71/74/74
f 86/89/89 72/84/84 87/90/90
f 82/85/85 88/91/91 89/92/92
f 79/81/81 72/84/84 86/89/89
f 88/91/91 82/85/85 80/82/82
f 85/88/88 73/75/75 90/93/93
f 88/91/91 87/90/90 89/92/92
f 84/87/87 77/79/79 91/94/94
f 76/78/78 79/81/81 92/95/95
f 80/82/82 75/77/77 93/96/96
f 83/86/86 93/96/96 75/77/77
f 76/78/78 92/95/95 81/83/83
f 94/97/97 77/79/79 78/80/80
f 71/74/74 95/98/98 74/76/76
f 86/89/89 87/90/90 88/91/91
f 77/79/79 94/97/97 91/94/94
f 91/94/94 96/99/99 84/87/87
f 74/76/76 97/100/100 83/86/86
f 98/101/101 78/80/80 81/83/83
f 86/89/89 92/95/95 79/81/81
f 88/91/91 80/82/82 93/96/96
f 95/98/98 71/74/74 85/88/88
f 99/102/102 90/93/93 100/103/103
f 98/101/101 81/83/83 92/95/95
f 93/96/96 83/86/86 97/100/100
f 99/102/102 85/88/88 90/93/93
f 78/80/80 98/101/101 94/97/97
f 96/99/99 91/94/94 101/104/104
f 101/104/104 100/103/103 96/99/99
f 97/100/100 74/76/76 95/98/98
f 88/91/91 102/105/105 86/89/89
f 102/105/105 92/95/95 86/89/89
f 88/91/91 93/96/96 103/106/106
f 101/104/104 99/102/102 100/103/103
f 103/106/106 102/105/105 88/91/91
f 94/97/97 104/107/107 91/94/94
f 103/106/106 93/96/96 97/100/100
f 104/107/107 101/104/104 91/94/94
f 92/95/95 105/108/108 98/101/101
f 106/109/109 95/98/98 85/88/88
f 105/108/108 92/95/95 102/105/105
f 106/109/109 85/88/88 99/102/102
f 98/101/101 105/108/108 94/97/97
f 107/110/110 97/100/100 95/98/98
f 106/109/109 99/102/102 101/104/104
f 103/106/106 97/100/100 107/110/110
f 107/110/110 102/105/105 103/106/106
f 104/107/107 94/97/97 105/108/108
f 104/107/107 106/109/109 101/104/104
f 107/110/110 95/98/98 106/109/109
f 102/105/105 107/110/110 105/108/108
f 105/108/108 107/110/110 104/107/107
f 107/110/110 106/109/109 104/107/107
f 6/5/5 1/1/1 4/3/3
f 11/10/10 18/18/18 108/111/111 7/8/8
f 5/7/7 10/6/6 12/11/11
f 9/12/12 12/11/11 11/10/10
f 43/50/50 48/49/49 54/57/57
f 1/1/1 113/112/112 112/113/113
f 2/4/4 114/114/114 1/1/1
f 2/4/4 115/115/115 114/114/114
f 115/115/115 2/4/4 5/7/7
f 7/8/8 116/116/116 8/9/9
f 117/117/117 5/7/7 9/12/12
f 118/118/118 112/113/113 113/112/112
f 116/116/116 9/12/12 8/9/9
f 119/119/119 113/112/112 114/114/114
f 112/113/113 118/118/118 120/120/120
f 119/119/119 118/118/118 113/112/112
f 114/114/114 115/115/115 121/121/121
f 122/122/122 116/116/116 18/18/18
f 18/18/18 123/123/123 122/122/122
f 121/121/121 119/119/119 114/114/114
f 115/115/115 117/117/117 124/124/124
f 117/117/117 116/116/116 122/122/122
f 125/125/125 120/120/120 118/118/118
f 124/124/124 121/121/121 115/115/115
f 122/122/122 124/124/124 117/117/117
f 125/125/125 126/126/126 120/120/120
f 127/127/127 118/118/118 119/119/119
f 128/128/128 122/122/122 123/123/123
f 119/119/119 121/121/121 127/127/127
f 123/123/123 129/129/129 128/128/128
f 127/127/127 125/125/125 118/118/118
f 124/124/124 122/122/122 128/128/128
f 121/121/121 124/124/124 130/130/130
f 121/121/121 131/131/131 127/127/127
f 126/126/126 125/125/125 132/132/132
f 130/130/130 131/131/131 121/121/121
f 128/128/128 130/130/130 124/124/124
f 132/132/132 125/125/125 127/127/127
f 132/132/132 133/133/133 126/126/126
f 134/134/134 128/128/128 129/129/129
f 129/129/129 135/135/135 134/134/134
f 136/136/136 127/127/127 131/131/131
f 130/130/130 128/128/128 134/134/134
f 127/127/127 136/136/136 132/132/132
f 29/33/33 140/137/137 30/34/34
f 131/131/131 130/130/130 137/138/138
f 138/139/139 133/133/133 132/132/132
f 131/131/131 139/140/140 136/136/136
f 130/130/130 134/134/134 137/138/138
f 137/138/138 139/140/140 131/131/131
f 35/39/39 140/137/137 29/33/33
f 141/141/141 132/132/132 136/136/136
f 142/142/142 134/134/134 135/135/135
f 132/132/132 141/141/141 138/139/139
f 135/135/135 143/143/143 142/142/142
f 140/137/137 35/39/39 37/43/43
f 137/138/138 134/134/134 142/142/142
f 144/144/144 136/136/136 139/140/140
f 110/45/45 206/145/145 109/46/46
f 145/146/146 139/140/140 137/138/138
f 136/136/136 144/144/144 141/141/141
f 146/147/147 140/137/137 37/43/43
f 146/147/147 37/43/43 43/50/50
f 137/138/138 142/142/142 147/148/148
f 206/145/145 151/149/149 109/46/46
f 140/137/137 148/150/150 30/34/34
f 139/140/140 145/146/146 144/144/144
f 149/151/151 138/139/139 141/141/141
f 137/138/138 147/148/148 145/146/146
f 148/150/150 150/152/152 30/34/34
f 151/149/149 45/56/56 109/46/46
f 152/153/153 43/50/50 45/56/56
f 153/154/154 142/142/142 143/143/143
f 151/149/149 152/153/153 45/56/56
f 206/145/145 110/45/45 154/155/155
f 143/143/143 155/156/156 153/154/154
f 148/150/150 140/137/137 146/147/147
f 156/157/157 141/141/141 144/144/144
f 147/148/148 142/142/142 153/154/154
f 141/141/141 156/157/157 149/151/151
f 157/158/158 144/144/144 145/146/146
f 145/146/146 147/148/148 158/159/159
f 159/160/160 146/147/147 152/153/153
f 154/155/155 160/161/161 206/145/145
f 151/149/149 206/145/145 160/161/161
f 146/147/147 159/160/160 148/150/150
f 144/144/144 157/158/158 156/157/157
f 147/148/148 153/154/154 158/159/159
f 161/162/162 152/153/153 151/149/149
f 148/150/150 162/163/163 150/152/152
f 163/164/164 153/154/154 155/156/156
f 145/146/146 158/159/159 164/165/165
f 145/146/146 164/165/165 157/158/158
f 162/163/163 165/166/166 150/152/152
f 152/153/153 161/162/162 159/160/160
f 155/156/156 166/167/167 163/164/164
f 151/149/149 160/161/161 167/168/168
f 160/161/161 154/155/155 168/169/169
f 151/149/149 167/168/168 161/162/162
f 162/163/163 148/150/150 159/160/160
f 169/170/170 149/151/151 156/157/157
f 163/164/164 158/159/159 153/154/154
f 169/170/170 171/171/171 149/151/151
f 172/172/172 156/157/157 157/158/158
f 173/173/173 164/165/165 158/159/159
f 174/174/174 159/160/160 161/162/162
f 168/169/169 175/175/175 160/161/161
f 172/172/172 157/158/158 164/165/165
f 176/176/176 167/168/168 160/161/161
f 159/160/160 174/174/174 162/163/163
f 158/159/159 163/164/164 173/173/173
f 162/163/163 177/177/177 165/166/166
f 178/178/178 163/164/164 166/167/167
f 179/179/179 161/162/162 167/168/168
f 177/177/177 170/180/180 165/166/166
f 172/172/172 169/170/170 156/157/157
f 166/167/167 180/181/181 178/178/178
f 160/161/161 175/175/175 176/176/176
f 164/165/165 173/173/173 181/182/182
f 161/162/162 179/179/179 174/174/174
f 164/165/165 181/182/182 172/172/172
f 175/175/175 168/169/169 182/183/183
f 177/177/177 162/163/163 174/174/174
f 173/173/173 163/164/164 178/178/178
f 167/168/168 176/176/176 179/179/179
f 171/171/171 169/170/170 183/184/184
f 184/185/185 185/186/186 170/180/180
f 180/181/181 187/187/187 186/188/188
f 177/177/177 184/185/185 170/180/180
f 186/188/188 178/178/178 180/181/181
f 183/184/184 188/189/189 171/171/171
f 186/188/188 187/187/187 185/186/186
f 182/183/183 189/190/190 175/175/175
f 174/174/174 190/191/191 177/177/177
f 178/178/178 191/192/192 173/173/173
f 181/182/182 173/173/173 191/192/192
f 174/174/174 179/179/179 190/191/191
f 192/193/193 176/176/176 175/175/175
f 169/170/170 172/172/172 193/194/194
f 184/185/185 186/188/188 185/186/186
f 175/175/175 189/190/190 192/193/193
f 189/190/190 182/183/183 194/195/195
f 172/172/172 181/182/182 195/196/196
f 196/197/197 179/179/179 176/176/176
f 184/185/185 177/177/177 190/191/191
f 186/188/188 191/192/192 178/178/178
f 193/194/194 183/184/184 169/170/170
f 197/198/198 198/199/199 188/189/189
f 196/197/197 190/191/191 179/179/179
f 191/192/192 195/196/196 181/182/182
f 197/198/198 188/189/189 183/184/184
f 176/176/176 192/193/193 196/197/197
f 194/195/195 199/200/200 189/190/190
f 199/200/200 194/195/195 198/199/199
f 195/196/196 193/194/194 172/172/172
f 186/188/188 184/185/185 200/201/201
f 200/201/201 184/185/185 190/191/191
f 186/188/188 201/202/202 191/192/192
f 199/200/200 198/199/199 197/198/198
f 201/202/202 186/188/188 200/201/201
f 192/193/193 189/190/190 202/203/203
f 201/202/202 195/196/196 191/192/192
f 202/203/203 189/190/190 199/200/200
f 190/191/191 196/197/197 203/204/204
f 204/205/205 183/184/184 193/194/194
f 203/204/204 200/201/201 190/191/191
f 204/205/205 197/198/198 183/184/184
f 196/197/197 192/193/193 203/204/204
f 205/206/206 193/194/194 195/196/196
f 204/205/205 199/200/200 197/198/198
f 201/202/202 205/206/206 195/196/196
f 205/206/206 201/202/202 200/201/201
f 202/203/203 203/204/204 192/193/193
f 202/203/203 199/200/200 204/205/205
f 205/206/206 204/205/205 193/194/194
f 200/201/201 203/204/204 205/206/206
f 203/204/204 202/203/203 205/206/206
f 205/206/206 202/203/203 204/205/205
f 114/114/114 113/112/112 1/1/1
f 116/116/116 7/8/8 108/111/111 18/18/18
f 5/7/7 117/117/117 115/115/115
f 9/12/12 116/116/116 117/117/117
f 43/50/50 152/153/153 146/147/147
