# This file uses centimeters as units for non-parametric coordinates.

mtllib mustache.mtl
g default
v 0.374851 9.659101 3.844811
v -0.000000 10.169862 4.073493
v 0.309957 9.871910 4.030439
v 0.401284 9.681849 3.965268
v 0.462677 9.520425 3.890924
v 0.464115 9.740522 4.069952
v 0.369494 9.960569 4.107412
v 0.201806 10.148951 4.094132
v 0.000000 10.287339 4.037462
v 0.237518 10.270919 4.061458
v -0.000000 10.424299 3.971903
v 0.440263 10.081925 4.132642
v 0.274120 10.405017 3.996804
v -0.000000 10.537792 3.873386
v 0.509705 10.204185 4.101498
v 0.556228 9.829027 4.150301
v 0.664591 9.937706 4.184974
v 0.574757 10.322624 4.031956
v 0.774036 10.045321 4.157481
v 0.807964 9.751500 4.249006
v 0.297978 10.514233 3.897388
v 0.875410 10.144089 4.085486
v 0.310435 10.540187 3.785646
v 0.000000 10.564596 3.758590
v 0.623717 10.419454 3.932223
v 0.317215 10.493979 3.684742
v 0.000000 10.520536 3.664099
v 0.000000 10.416918 3.595994
v 0.311537 10.388626 3.602906
v 0.653664 10.401952 3.715915
v 0.636284 10.295474 3.626747
v 0.648797 10.447375 3.821096
v 0.990915 10.209159 3.759058
v 0.951502 10.119310 3.666245
v 0.952996 10.220803 3.979331
v 0.990237 10.244112 3.866669
v 1.232778 9.946761 3.813257
v 1.178583 9.880262 3.715898
v 1.235513 9.975006 3.926961
v 1.367827 9.692322 3.870991
v 1.311138 9.644495 3.764825
v 1.186279 9.960772 4.046644
v 1.368400 9.713286 3.992306
v 1.439918 9.429708 3.924397
v 1.382159 9.391282 3.809119
v 1.086410 9.907510 4.152827
v 1.494618 9.155738 3.970140
v 1.437833 9.129018 3.846670
v 0.949428 9.832203 4.227581
v 1.197456 9.666339 4.227355
v 1.036448 9.610994 4.302132
v 1.312948 9.705637 4.118104
v 1.249048 9.421112 4.298471
v 1.437857 9.448481 4.054235
v 1.374505 9.446071 4.184311
v 1.487698 9.170834 4.108194
v 1.539279 8.868036 4.004863
v 1.484778 8.855057 3.871690
v 1.465368 8.577445 3.895479
v 1.418193 9.173758 4.243468
v 1.512588 8.582175 4.035635
v 1.396803 8.398520 3.936437
v 1.530143 8.882185 4.153273
v 1.430104 8.405834 4.057495
v 1.292805 8.267745 3.972437
v 1.497965 8.597847 4.184353
v 1.415884 8.419570 4.183813
v 1.456007 8.893908 4.298020
v 1.428201 8.619638 4.324257
v 1.362299 8.436225 4.300838
v 1.316265 8.897799 4.415323
v 1.283759 9.161827 4.361331
v 1.296592 8.635719 4.440076
v 1.121335 8.885366 4.482611
v 1.069052 9.377724 4.372361
v 1.090290 9.130450 4.434955
v 0.864615 9.551332 4.319016
v 0.878780 9.331032 4.385314
v 0.671753 9.670720 4.210105
v 0.712618 9.494500 4.274366
v 0.557059 9.596532 4.127332
v 0.716272 9.289248 4.335525
v 0.482923 9.544726 4.013516
v 0.512530 9.366111 3.953744
v 0.592886 9.442208 4.187074
v 0.521819 9.399847 4.073904
v 0.543403 9.182891 4.020795
v 0.600480 9.253411 4.247370
v 0.541065 9.218161 4.139719
v 0.574138 8.983783 4.075613
v 0.726401 9.060220 4.383550
v 0.564363 9.007392 4.194197
v 0.599829 8.775721 4.110895
v 0.617347 9.030547 4.297850
v 0.591040 8.785512 4.232177
v 0.649498 8.802767 4.336118
v 0.633066 8.552268 4.242700
v 0.636097 8.541075 4.118900
v 0.694301 8.564724 4.348758
v 0.762707 8.828362 4.423328
v 0.801233 8.588515 4.434746
v 0.753933 8.378748 4.331917
v 0.692869 8.366101 4.233161
v 0.683263 8.368128 4.128053
v 0.853465 8.401550 4.408381
v 0.790375 8.241950 4.219143
v 0.771745 8.236026 4.123299
v 0.843207 8.261331 4.299648
v 0.920161 8.178319 4.185376
v 0.946246 8.613919 4.493320
v 0.918577 8.291229 4.362809
v 0.921689 8.858334 4.481308
v 0.981393 8.425408 4.455711
v 0.889969 9.093322 4.439713
v 1.123551 8.634619 4.498565
v 1.128761 8.444531 4.454182
v 1.262566 8.447330 4.397799
v 1.123347 8.321083 4.375995
v 1.285673 8.318092 4.263222
v 1.221164 8.323621 4.330144
v 1.313183 8.300314 4.180915
v 1.206739 8.271105 4.278283
v 1.315614 8.282179 4.079095
v 1.199985 8.236307 4.200474
v 1.188786 8.212708 4.109153
v 1.170811 8.196164 4.008650
v 1.103399 8.249348 4.310403
v 1.080431 8.203923 4.234290
v 1.006715 8.310889 4.386519
v 0.995197 8.253800 4.335603
v 0.956192 8.204776 4.269846
v 1.056827 8.178697 4.145252
v 0.894976 8.165731 4.086093
v 1.035084 8.162722 4.044931
v 0.801607 8.254658 4.008209
v 0.885532 8.197349 3.981921
v 0.747057 8.383778 3.996482
v 0.878951 8.274995 3.924956
v 0.704354 8.575231 3.994788
v 0.863628 8.405606 3.885260
v 0.833525 8.598842 3.873003
v 0.674061 8.774668 3.983243
v 0.812060 8.785486 3.857760
v 1.012659 8.607693 3.772801
v 0.646407 8.970797 3.952493
v 0.782747 8.973415 3.831553
v 0.611806 9.160554 3.901608
v 0.740619 9.165171 3.791643
v 0.567752 9.348193 3.841261
v 0.683542 9.358002 3.742892
v 0.503375 9.519776 3.784853
v 0.609270 9.542958 3.690465
v 0.404914 9.669405 3.730827
v 0.495911 9.700284 3.640728
v 0.759054 9.598046 3.627589
v 0.615167 9.770715 3.588232
v 0.338923 9.843999 3.599145
v 0.272525 9.804008 3.690753
v 0.116948 9.914336 3.680120
v 0.000000 9.922450 3.695478
v -0.000000 9.953115 3.668653
v 0.000000 10.013330 3.568566
v 0.159205 9.960529 3.587001
v 0.207139 10.039568 3.536929
v -0.000000 10.093884 3.524600
v 0.422699 9.922977 3.553349
v 0.251040 10.139022 3.527429
v 0.000000 10.184044 3.519343
v 0.511239 10.032274 3.541142
v 0.287258 10.254657 3.550848
v 0.000000 10.294518 3.546403
v 0.590306 10.158937 3.564610
v 0.748423 9.870171 3.573905
v 0.868542 9.991943 3.601052
v 0.924336 9.686633 3.610211
v 1.072555 9.786523 3.642512
v 1.198526 9.573567 3.686000
v 0.854255 9.409527 3.671766
v 1.038972 9.490613 3.652222
v 1.269206 9.337053 3.725472
v 1.111926 9.272449 3.689317
v 0.919684 9.206833 3.711347
v 1.326635 9.093969 3.756077
v 1.170493 9.051949 3.715119
v 0.975240 9.004836 3.740256
v 1.370253 8.842571 3.775380
v 1.010831 8.804954 3.756372
v 1.210072 8.827180 3.729329
v 1.356913 8.585999 3.792230
v 1.203369 8.601382 3.745363
v 1.312516 8.401402 3.839442
v 1.024425 8.414503 3.804525
v 1.187518 8.410931 3.788922
v 1.229825 8.277422 3.885838
v 1.143292 8.282135 3.849980
v 1.143615 8.215057 3.910976
v 1.008513 8.276792 3.864078
v 1.014709 8.182585 3.935276
v -0.374851 9.659101 3.844811
v -0.309957 9.871910 4.030439
v -0.401284 9.681849 3.965268
v -0.462677 9.520425 3.890924
v -0.464115 9.740522 4.069952
v -0.369494 9.960569 4.107412
v -0.201806 10.148951 4.094132
v -0.237518 10.270919 4.061458
v -0.440263 10.081925 4.132642
v -0.274120 10.405017 3.996804
v -0.509705 10.204185 4.101498
v -0.556228 9.829027 4.150301
v -0.664591 9.937706 4.184974
v -0.574757 10.322624 4.031956
v -0.774036 10.045321 4.157481
v -0.807964 9.751500 4.249006
v -0.297978 10.514233 3.897388
v -0.875410 10.144089 4.085486
v -0.310435 10.540187 3.785646
v -0.623717 10.419454 3.932223
v -0.317215 10.493979 3.684742
v -0.311537 10.388626 3.602906
v -0.653664 10.401952 3.715915
v -0.636284 10.295474 3.626747
v -0.648797 10.447375 3.821096
v -0.990915 10.209159 3.759058
v -0.951502 10.119310 3.666245
v -0.952996 10.220803 3.979331
v -0.990237 10.244112 3.866669
v -1.232778 9.946761 3.813257
v -1.178583 9.880262 3.715898
v -1.235513 9.975006 3.926961
v -1.367827 9.692322 3.870991
v -1.311138 9.644495 3.764825
v -1.186279 9.960772 4.046644
v -1.368400 9.713286 3.992306
v -1.439918 9.429708 3.924397
v -1.382159 9.391282 3.809119
v -1.086410 9.907510 4.152827
v -1.494618 9.155738 3.970140
v -1.437833 9.129018 3.846670
v -0.949428 9.832203 4.227581
v -1.197456 9.666339 4.227355
v -1.036448 9.610994 4.302132
v -1.312948 9.705637 4.118104
v -1.249048 9.421112 4.298471
v -1.437857 9.448481 4.054235
v -1.374505 9.446071 4.184311
v -1.487698 9.170834 4.108194
v -1.539279 8.868036 4.004863
v -1.484778 8.855057 3.871690
v -1.465368 8.577445 3.895479
v -1.418193 9.173758 4.243468
v -1.512588 8.582175 4.035635
v -1.396803 8.398520 3.936437
v -1.530143 8.882185 4.153273
v -1.430104 8.405834 4.057495
v -1.292805 8.267745 3.972437
v -1.497965 8.597847 4.184353
v -1.415884 8.419570 4.183813
v -1.456007 8.893908 4.298020
v -1.428201 8.619638 4.324257
v -1.362299 8.436225 4.300838
v -1.316265 8.897799 4.415323
v -1.283759 9.161827 4.361331
v -1.296592 8.635719 4.440076
v -1.121335 8.885366 4.482611
v -1.069052 9.377724 4.372361
v -1.090290 9.130450 4.434955
v -0.864615 9.551332 4.319016
v -0.878780 9.331032 4.385314
v -0.671753 9.670720 4.210105
v -0.712618 9.494500 4.274366
v -0.557059 9.596532 4.127332
v -0.716272 9.289248 4.335525
v -0.482923 9.544726 4.013516
v -0.512530 9.366111 3.953744
v -0.592886 9.442208 4.187074
v -0.521819 9.399847 4.073904
v -0.543403 9.182891 4.020795
v -0.600480 9.253411 4.247370
v -0.541065 9.218161 4.139719
v -0.574138 8.983783 4.075613
v -0.726401 9.060220 4.383550
v -0.564363 9.007392 4.194197
v -0.599829 8.775721 4.110895
v -0.617347 9.030547 4.297850
v -0.591040 8.785512 4.232177
v -0.649498 8.802767 4.336118
v -0.633066 8.552268 4.242700
v -0.636097 8.541075 4.118900
v -0.694301 8.564724 4.348758
v -0.762707 8.828362 4.423328
v -0.801233 8.588515 4.434746
v -0.753933 8.378748 4.331917
v -0.692869 8.366101 4.233161
v -0.683263 8.368128 4.128053
v -0.853465 8.401550 4.408381
v -0.790375 8.241950 4.219143
v -0.771745 8.236026 4.123299
v -0.843207 8.261331 4.299648
v -0.920161 8.178319 4.185376
v -0.946246 8.613919 4.493320
v -0.918577 8.291229 4.362809
v -0.921689 8.858334 4.481308
v -0.981393 8.425408 4.455711
v -0.889969 9.093322 4.439713
v -1.123551 8.634619 4.498565
v -1.128761 8.444531 4.454182
v -1.262566 8.447330 4.397799
v -1.123347 8.321083 4.375995
v -1.285673 8.318092 4.263222
v -1.221164 8.323621 4.330144
v -1.313183 8.300314 4.180915
v -1.206739 8.271105 4.278283
v -1.315614 8.282179 4.079095
v -1.199985 8.236307 4.200474
v -1.188786 8.212708 4.109153
v -1.170811 8.196164 4.008650
v -1.103399 8.249348 4.310403
v -1.080431 8.203923 4.234290
v -1.006715 8.310889 4.386519
v -0.995197 8.253800 4.335603
v -0.956192 8.204776 4.269846
v -1.056827 8.178697 4.145252
v -0.894976 8.165731 4.086093
v -1.035084 8.162722 4.044931
v -0.801607 8.254658 4.008209
v -0.885532 8.197349 3.981921
v -0.747057 8.383778 3.996482
v -0.878951 8.274995 3.924956
v -0.704354 8.575231 3.994788
v -0.863628 8.405606 3.885260
v -0.833525 8.598842 3.873003
v -0.674061 8.774668 3.983243
v -0.812060 8.785486 3.857760
v -1.012659 8.607693 3.772801
v -0.646407 8.970797 3.952493
v -0.782747 8.973415 3.831553
v -0.611806 9.160554 3.901608
v -0.740619 9.165171 3.791643
v -0.567752 9.348193 3.841261
v -0.683542 9.358002 3.742892
v -0.503375 9.519776 3.784853
v -0.609270 9.542958 3.690465
v -0.404914 9.669405 3.730827
v -0.495911 9.700284 3.640728
v -0.759054 9.598046 3.627589
v -0.615167 9.770715 3.588232
v -0.338923 9.843999 3.599145
v -0.272525 9.804008 3.690753
v -0.116948 9.914336 3.680120
v -0.159205 9.960529 3.587001
v -0.207139 10.039568 3.536929
v -0.422699 9.922977 3.553349
v -0.251040 10.139022 3.527429
v -0.511239 10.032274 3.541142
v -0.287258 10.254657 3.550848
v -0.590306 10.158937 3.564610
v -0.748423 9.870171 3.573905
v -0.868542 9.991943 3.601052
v -0.924336 9.686633 3.610211
v -1.072555 9.786523 3.642512
v -1.198526 9.573567 3.686000
v -0.854255 9.409527 3.671766
v -1.038972 9.490613 3.652222
v -1.269206 9.337053 3.725472
v -1.111926 9.272449 3.689317
v -0.919684 9.206833 3.711347
v -1.326635 9.093969 3.756077
v -1.170493 9.051949 3.715119
v -0.975240 9.004836 3.740256
v -1.370253 8.842571 3.775380
v -1.010831 8.804954 3.756372
v -1.210072 8.827180 3.729329
v -1.356913 8.585999 3.792230
v -1.203369 8.601382 3.745363
v -1.312516 8.401402 3.839442
v -1.024425 8.414503 3.804525
v -1.187518 8.410931 3.788922
v -1.229825 8.277422 3.885838
v -1.143292 8.282135 3.849980
v -1.143615 8.215057 3.910976
v -1.008513 8.276792 3.864078
v -1.014709 8.182585 3.935276
v 0.000000 9.898476 3.799859
v 0.249354 9.794323 3.812350
v 0.000000 9.918947 3.917236
v 0.267798 9.817435 3.931275
v -0.000000 9.954300 4.007530
v 0.000000 10.059128 4.067474
v 0.167180 10.033558 4.075317
v -0.249354 9.794323 3.812350
v -0.267798 9.817435 3.931275
v -0.167180 10.033558 4.075317
vt 0.012615 0.978438
vt 0.012730 0.978702
vt 0.012615 0.978699
vt 0.012093 0.978438
vt 0.012211 0.978701
vt 0.012093 0.978715
vt 0.014614 0.978438
vt 0.014707 0.978722
vt 0.014614 0.978715
vt 0.022090 0.978439
vt 0.022207 0.978604
vt 0.022090 0.978620
vt 0.011331 0.978448
vt 0.011427 0.978452
vt 0.011311 0.978603
vt 0.022177 0.978727
vt 0.022283 0.978906
vt 0.022178 0.978890
vt 0.011572 0.978438
vt 0.011683 0.978716
vt 0.011572 0.978749
vt 0.006182 0.978439
vt 0.006310 0.978609
vt 0.006182 0.978749
vt 0.016700 0.978439
vt 0.016819 0.978603
vt 0.016700 0.978625
vt 0.011486 0.990849
vt 0.011639 0.990948
vt 0.011529 0.991028
vt 0.015512 0.978638
vt 0.015396 0.978653
vt 0.015512 0.978438
vt 0.015918 0.978439
vt 0.016017 0.978597
vt 0.015918 0.978682
vt 0.007399 0.978440
vt 0.007600 0.978499
vt 0.007399 0.978567
vt 0.005856 0.989516
vt 0.006081 0.989625
vt 0.005971 0.989692
vt 0.016179 0.978439
vt 0.016293 0.978612
vt 0.016179 0.978636
vt 0.015127 0.978467
vt 0.015253 0.978652
vt 0.015156 0.978694
vt 0.006266 0.989816
vt 0.006412 0.990025
vt 0.006292 0.990025
vt 0.006392 0.989789
vt 0.006562 0.990025
vt 0.006209 0.989567
vt 0.006539 0.989763
vt 0.006710 0.990025
vt 0.006341 0.989518
vt 0.005969 0.989417
vt 0.006096 0.989323
vt 0.006482 0.989472
vt 0.006227 0.989241
vt 0.005946 0.989140
vt 0.006684 0.989746
vt 0.006363 0.989164
vt 0.006795 0.989731
vt 0.006825 0.990025
vt 0.006620 0.989436
vt 0.006900 0.989708
vt 0.006925 0.990025
vt 0.010641 0.991680
vt 0.010778 0.991880
vt 0.010655 0.991880
vt 0.010770 0.991661
vt 0.010575 0.991466
vt 0.006832 0.989363
vt 0.010703 0.991426
vt 0.006729 0.989404
vt 0.010482 0.991205
vt 0.006698 0.988993
vt 0.010607 0.991168
vt 0.006497 0.989100
vt 0.006602 0.989049
vt 0.010407 0.990937
vt 0.010531 0.990914
vt 0.006419 0.988749
vt 0.006506 0.988680
vt 0.010369 0.990698
vt 0.006302 0.988455
vt 0.010496 0.990690
vt 0.006317 0.988823
vt 0.006219 0.988540
vt 0.010361 0.990464
vt 0.006078 0.988270
vt 0.010494 0.990464
vt 0.006197 0.988915
vt 0.010355 0.990216
vt 0.010491 0.990226
vt 0.006066 0.989026
vt 0.006009 0.988743
vt 0.005887 0.988879
vt 0.006123 0.988632
vt 0.005809 0.988614
vt 0.006002 0.988372
vt 0.005831 0.988100
vt 0.005914 0.988482
vt 0.005763 0.988216
vt 0.010355 0.989939
vt 0.005552 0.987943
vt 0.010495 0.989973
vt 0.010557 0.989721
vt 0.005688 0.988344
vt 0.010430 0.989653
vt 0.010640 0.989552
vt 0.005502 0.988075
vt 0.005238 0.987857
vt 0.010553 0.989470
vt 0.010763 0.989436
vt 0.005223 0.988002
vt 0.005025 0.987992
vt 0.005011 0.987873
vt 0.005446 0.988221
vt 0.005201 0.988145
vt 0.005021 0.988111
vt 0.005379 0.988376
vt 0.005596 0.988493
vt 0.005157 0.988298
vt 0.005288 0.988547
vt 0.005690 0.988770
vt 0.005482 0.988662
vt 0.005773 0.989020
vt 0.005576 0.988926
vt 0.005835 0.989261
vt 0.005674 0.989156
vt 0.005730 0.989383
vt 0.005768 0.989616
vt 0.005480 0.989068
vt 0.005648 0.989500
vt 0.011603 0.990794
vt 0.011495 0.990655
vt 0.005585 0.989284
vt 0.011618 0.990634
vt 0.005514 0.989400
vt 0.011520 0.990440
vt 0.005402 0.989190
vt 0.011641 0.990432
vt 0.005334 0.989294
vt 0.011533 0.990215
vt 0.005273 0.988965
vt 0.011651 0.990200
vt 0.011526 0.989988
vt 0.005193 0.989076
vt 0.005129 0.989170
vt 0.011641 0.989957
vt 0.004995 0.988937
vt 0.004921 0.989026
vt 0.011588 0.989707
vt 0.011475 0.989743
vt 0.004805 0.988771
vt 0.004718 0.988850
vt 0.005083 0.988831
vt 0.004898 0.988684
vt 0.004676 0.988616
vt 0.011497 0.989510
vt 0.004582 0.988672
vt 0.011414 0.989566
vt 0.004770 0.988546
vt 0.011381 0.989367
vt 0.011319 0.989435
vt 0.004617 0.988471
vt 0.004530 0.988498
vt 0.011223 0.989278
vt 0.004531 0.988325
vt 0.004994 0.988578
vt 0.004704 0.988433
vt 0.005182 0.988703
vt 0.004859 0.988460
vt 0.005370 0.988825
vt 0.005087 0.988446
vt 0.004939 0.988355
vt 0.004993 0.988236
vt 0.004829 0.988285
vt 0.004881 0.988104
vt 0.004867 0.988191
vt 0.004865 0.988025
vt 0.004807 0.988158
vt 0.004827 0.987937
vt 0.010708 0.989348
vt 0.004750 0.988103
vt 0.004688 0.988037
vt 0.010895 0.989370
vt 0.010873 0.989275
vt 0.004747 0.988247
vt 0.004670 0.988210
vt 0.004769 0.988375
vt 0.004705 0.988345
vt 0.004621 0.988336
vt 0.004587 0.988167
vt 0.011187 0.989368
vt 0.011048 0.989248
vt 0.011040 0.989345
vt 0.011241 0.989509
vt 0.011155 0.989460
vt 0.011299 0.989634
vt 0.011150 0.989548
vt 0.011357 0.989821
vt 0.011161 0.989678
vt 0.011197 0.989862
vt 0.011387 0.990024
vt 0.011209 0.990050
vt 0.011010 0.989870
vt 0.011394 0.990234
vt 0.011216 0.990244
vt 0.011384 0.990448
vt 0.011217 0.990452
vt 0.011372 0.990671
vt 0.011221 0.990672
vt 0.011376 0.990893
vt 0.011231 0.990898
vt 0.011401 0.991120
vt 0.006617 0.978649
vt 0.006731 0.978823
vt 0.006617 0.978829
vt 0.011258 0.991127
vt 0.011057 0.990890
vt 0.011103 0.991122
vt 0.011258 0.991397
vt 0.020873 0.978439
vt 0.020992 0.978610
vt 0.020873 0.978625
vt 0.011372 0.991421
vt 0.021742 0.978439
vt 0.021926 0.978550
vt 0.021742 0.978559
vt 0.006443 0.978440
vt 0.006657 0.978453
vt 0.006443 0.978602
vt 0.011444 0.991880
vt 0.011342 0.991715
vt 0.011472 0.991856
vt 0.011317 0.991879
vt 0.011205 0.991879
vt 0.011236 0.991674
vt 0.011137 0.991653
vt 0.011114 0.991879
vt 0.011136 0.991382
vt 0.011032 0.991644
vt 0.011024 0.991880
vt 0.010996 0.991379
vt 0.010913 0.991646
vt 0.010910 0.991880
vt 0.010849 0.991389
vt 0.010934 0.991117
vt 0.010762 0.991130
vt 0.010869 0.990888
vt 0.010685 0.990893
vt 0.010648 0.990682
vt 0.011031 0.990674
vt 0.010827 0.990676
vt 0.010643 0.990463
vt 0.010816 0.990461
vt 0.011019 0.990457
vt 0.010638 0.990239
vt 0.010805 0.990249
vt 0.011004 0.990248
vt 0.010637 0.990007
vt 0.010991 0.990054
vt 0.010796 0.990035
vt 0.010689 0.989781
vt 0.010833 0.989835
vt 0.010742 0.989615
vt 0.011001 0.989690
vt 0.010857 0.989661
vt 0.010833 0.989507
vt 0.010911 0.989543
vt 0.010920 0.989462
vt 0.011029 0.989558
vt 0.011037 0.989452
vt 0.012875 0.978438
vt 0.012980 0.978678
vt 0.012875 0.978726
vt 0.012354 0.978438
vt 0.012467 0.978691
vt 0.012354 0.978726
vt 0.013919 0.978438
vt 0.014005 0.978701
vt 0.013919 0.978737
vt 0.022351 0.978439
vt 0.022455 0.978586
vt 0.022351 0.978641
vt 0.010268 0.978440
vt 0.010430 0.978457
vt 0.010268 0.978556
vt 0.021742 0.978667
vt 0.021846 0.978783
vt 0.021742 0.978875
vt 0.011832 0.978438
vt 0.011948 0.978726
vt 0.011832 0.978738
vt 0.005834 0.978439
vt 0.006021 0.978687
vt 0.005834 0.978652
vt 0.020351 0.978439
vt 0.020461 0.978590
vt 0.020351 0.978641
vt 0.021574 0.979770
vt 0.021596 0.979933
vt 0.021475 0.979922
vt 0.007249 0.978556
vt 0.007051 0.978582
vt 0.007249 0.978439
vt 0.010528 0.978439
vt 0.010658 0.978645
vt 0.010528 0.978625
vt 0.014875 0.978440
vt 0.014997 0.978475
vt 0.014853 0.978714
vt 0.005856 0.990533
vt 0.005971 0.990357
vt 0.006084 0.990411
vt 0.016439 0.978439
vt 0.016549 0.978603
vt 0.016439 0.978647
vt 0.015657 0.978439
vt 0.015758 0.978622
vt 0.015657 0.978682
vt 0.006266 0.990234
vt 0.006392 0.990261
vt 0.006209 0.990483
vt 0.006539 0.990287
vt 0.006341 0.990532
vt 0.005969 0.990632
vt 0.006096 0.990727
vt 0.006482 0.990578
vt 0.006227 0.990809
vt 0.005946 0.990910
vt 0.006684 0.990304
vt 0.006363 0.990885
vt 0.006795 0.990319
vt 0.006620 0.990614
vt 0.006900 0.990342
vt 0.010640 0.992082
vt 0.010769 0.992101
vt 0.010575 0.992302
vt 0.006832 0.990687
vt 0.010704 0.992340
vt 0.006729 0.990646
vt 0.010491 0.992571
vt 0.006698 0.991057
vt 0.010616 0.992605
vt 0.006497 0.990950
vt 0.006602 0.991001
vt 0.010430 0.992845
vt 0.010555 0.992864
vt 0.006419 0.991301
vt 0.006506 0.991370
vt 0.010406 0.993086
vt 0.006302 0.991595
vt 0.010533 0.993089
vt 0.006317 0.991227
vt 0.006219 0.991510
vt 0.010410 0.993317
vt 0.006078 0.991780
vt 0.010542 0.993312
vt 0.006197 0.991135
vt 0.010413 0.993558
vt 0.010549 0.993545
vt 0.006066 0.991024
vt 0.006009 0.991307
vt 0.005887 0.991171
vt 0.006123 0.991418
vt 0.005809 0.991436
vt 0.006002 0.991678
vt 0.005831 0.991950
vt 0.005914 0.991567
vt 0.005763 0.991834
vt 0.010417 0.993825
vt 0.005552 0.992107
vt 0.010557 0.993793
vt 0.010617 0.994039
vt 0.005688 0.991706
vt 0.010487 0.994104
vt 0.010693 0.994206
vt 0.005502 0.991975
vt 0.005238 0.992193
vt 0.010602 0.994284
vt 0.010809 0.994324
vt 0.005223 0.992048
vt 0.005011 0.992177
vt 0.005025 0.992058
vt 0.005446 0.991829
vt 0.005201 0.991905
vt 0.005021 0.991939
vt 0.005379 0.991674
vt 0.005596 0.991557
vt 0.005157 0.991752
vt 0.005288 0.991503
vt 0.005690 0.991280
vt 0.005482 0.991388
vt 0.005773 0.991029
vt 0.005576 0.991124
vt 0.005835 0.990789
vt 0.005674 0.990894
vt 0.005730 0.990667
vt 0.005768 0.990433
vt 0.005480 0.990982
vt 0.005648 0.990550
vt 0.021452 0.979763
vt 0.021545 0.979604
vt 0.005585 0.990766
vt 0.021424 0.979609
vt 0.005514 0.990649
vt 0.021520 0.979415
vt 0.005402 0.990860
vt 0.021401 0.979423
vt 0.005334 0.990756
vt 0.021511 0.979214
vt 0.005273 0.991085
vt 0.021394 0.979212
vt 0.021522 0.979009
vt 0.005193 0.990974
vt 0.005129 0.990880
vt 0.021406 0.978994
vt 0.004995 0.991113
vt 0.004921 0.991024
vt 0.021447 0.978768
vt 0.021566 0.978784
vt 0.004805 0.991278
vt 0.004718 0.991200
vt 0.005083 0.991219
vt 0.004898 0.991365
vt 0.004676 0.991433
vt 0.021497 0.978586
vt 0.004582 0.991378
vt 0.021596 0.978613
vt 0.004770 0.991504
vt 0.021540 0.978440
vt 0.011400 0.994457
vt 0.011359 0.994371
vt 0.011485 0.994247
vt 0.004617 0.991579
vt 0.004530 0.991552
vt 0.011239 0.994514
vt 0.004531 0.991725
vt 0.004994 0.991472
vt 0.004704 0.991617
vt 0.005182 0.991346
vt 0.004859 0.991590
vt 0.005370 0.991225
vt 0.005087 0.991603
vt 0.004939 0.991695
vt 0.004993 0.991814
vt 0.004829 0.991765
vt 0.004881 0.991946
vt 0.004867 0.991859
vt 0.004865 0.992025
vt 0.004807 0.991892
vt 0.004827 0.992113
vt 0.010748 0.994408
vt 0.004750 0.991947
vt 0.004688 0.992013
vt 0.010934 0.994394
vt 0.010904 0.994488
vt 0.004747 0.991803
vt 0.004670 0.991839
vt 0.004769 0.991674
vt 0.004705 0.991705
vt 0.004621 0.991714
vt 0.004587 0.991883
vt 0.011220 0.994419
vt 0.011070 0.994525
vt 0.011074 0.994428
vt 0.011296 0.994284
vt 0.011202 0.994323
vt 0.011369 0.994164
vt 0.011556 0.994047
vt 0.011207 0.994235
vt 0.011432 0.993967
vt 0.011601 0.993779
vt 0.011228 0.994105
vt 0.011268 0.993918
vt 0.011459 0.993750
vt 0.011599 0.993541
vt 0.011279 0.993724
vt 0.011077 0.993903
vt 0.011458 0.993529
vt 0.011575 0.993305
vt 0.011279 0.993524
vt 0.011438 0.993307
vt 0.011534 0.993080
vt 0.011270 0.993311
vt 0.011408 0.993079
vt 0.011501 0.992881
vt 0.011259 0.993087
vt 0.011389 0.992854
vt 0.011513 0.992692
vt 0.011408 0.993079
vt 0.011248 0.992857
vt 0.011397 0.992624
vt 0.021916 0.978662
vt 0.022015 0.978814
vt 0.021916 0.978870
vt 0.011260 0.992626
vt 0.011079 0.992872
vt 0.011110 0.992637
vt 0.011257 0.992358
vt 0.020612 0.978439
vt 0.020718 0.978592
vt 0.020612 0.978647
vt 0.011371 0.992333
vt 0.021134 0.978439
vt 0.021236 0.978501
vt 0.021134 0.978654
vt 0.006791 0.978440
vt 0.006953 0.978450
vt 0.006791 0.978654
vt 0.011472 0.991904
vt 0.011341 0.992043
vt 0.011236 0.992084
vt 0.011136 0.992105
vt 0.011136 0.992375
vt 0.011031 0.992115
vt 0.010998 0.992381
vt 0.010912 0.992115
vt 0.010851 0.992375
vt 0.010944 0.992647
vt 0.010773 0.992639
vt 0.010892 0.992880
vt 0.010709 0.992879
vt 0.010685 0.993092
vt 0.011068 0.993091
vt 0.010864 0.993094
vt 0.010692 0.993310
vt 0.010866 0.993309
vt 0.011071 0.993310
vt 0.010697 0.993531
vt 0.010864 0.993521
vt 0.011065 0.993521
vt 0.010700 0.993760
vt 0.011057 0.993718
vt 0.010860 0.993734
vt 0.010751 0.993983
vt 0.010897 0.993933
vt 0.010798 0.994147
vt 0.011064 0.994083
vt 0.010917 0.994106
vt 0.010884 0.994257
vt 0.010964 0.994224
vt 0.010967 0.994305
vt 0.011084 0.994216
vt 0.011082 0.994322
vn -0.551538 -0.833986 -0.016560
vn 0.000000 -0.961173 0.275946
vn 0.000000 -0.993892 -0.110360
vn -0.475881 -0.773015 0.419506
vn 0.000000 -0.693205 0.720741
vn -0.781645 -0.623711 0.004034
vn 0.000000 -0.274223 0.961666
vn -0.172994 -0.292702 0.940425
vn -0.000000 0.134997 0.990846
vn -0.398434 -0.559029 0.727143
vn -0.757323 -0.456907 0.466581
vn -0.896940 -0.439163 -0.051330
vn -0.601257 -0.287749 0.745447
vn -0.306294 -0.223357 0.925362
vn -0.114048 0.110756 0.987282
vn -0.000000 0.375612 0.926777
vn -0.054205 0.375033 0.925426
vn -0.000000 0.562690 0.826668
vn -0.134843 0.128940 0.982442
vn 0.011733 0.571403 0.820586
vn 0.000000 0.856134 0.516754
vn 0.008679 0.393844 0.919136
vn -0.394361 -0.090418 0.914496
vn -0.160527 0.163955 0.973319
vn 0.134084 0.581546 0.802387
vn 0.075608 0.393596 0.916169
vn -0.165334 0.244933 0.955339
vn 0.104721 0.840263 0.531969
vn 0.268803 0.553918 0.787985
vn 0.184877 0.979678 -0.077789
vn 0.000000 0.994732 -0.102514
vn 0.277811 0.795680 0.538251
vn 0.183953 0.759110 -0.624431
vn 0.000000 0.740897 -0.671619
vn -0.000000 0.476091 -0.879396
vn 0.141070 0.482137 -0.864663
vn 0.371607 0.726915 -0.577497
vn 0.283512 0.464038 -0.839220
vn 0.393284 0.919256 -0.017219
vn 0.590581 0.637265 -0.495083
vn 0.438171 0.378811 -0.815174
vn 0.460642 0.705667 0.538371
vn 0.616249 0.785506 0.056726
vn 0.774261 0.477268 -0.415615
vn 0.579810 0.270680 -0.768475
vn 0.791311 0.599815 0.118532
vn 0.901907 0.295941 -0.314614
vn 0.692935 0.150891 -0.705034
vn 0.607777 0.570894 0.551984
vn 0.902589 0.392864 0.176045
vn 0.950065 0.178240 -0.256140
vn 0.745640 0.076187 -0.661980
vn 0.366856 0.479763 0.797022
vn 0.968093 0.141432 -0.206866
vn 0.779943 0.075606 -0.621267
vn 0.130219 0.375466 0.917643
vn 0.433175 0.382920 0.815924
vn 0.156636 0.336693 0.928495
vn 0.700716 0.413009 0.581739
vn 0.458072 0.297783 0.837553
vn 0.941305 0.255640 0.220437
vn 0.743743 0.291660 0.601482
vn 0.947481 0.198206 0.250986
vn 0.987784 0.019365 -0.154620
vn 0.813342 -0.010183 -0.581696
vn 0.824558 -0.223110 -0.519929
vn 0.755399 0.236107 0.611249
vn 0.968444 -0.232467 -0.089866
vn 0.758065 -0.518838 -0.395152
vn 0.962362 0.057564 0.265605
vn 0.847852 -0.529905 -0.018634
vn 0.599883 -0.755874 -0.262288
vn 0.933714 -0.202200 0.295455
vn 0.824248 -0.493715 0.277236
vn 0.776194 0.105047 0.621682
vn 0.765639 -0.143919 0.626965
vn 0.698375 -0.426191 0.575008
vn 0.485308 0.139224 0.863187
vn 0.467796 0.247397 0.848505
vn 0.485915 -0.084704 0.869892
vn 0.160352 0.137188 0.977480
vn 0.162177 0.278789 0.946560
vn 0.154333 0.227721 0.961418
vn -0.163946 0.280049 0.945883
vn -0.159603 0.246943 0.955796
vn -0.467138 0.112418 0.877009
vn -0.481360 0.221483 0.848079
vn -0.701584 -0.015813 0.712412
vn -0.478564 0.201246 0.854679
vn -0.883246 -0.220128 0.414030
vn -0.951142 -0.277940 -0.134457
vn -0.740519 0.136457 0.658036
vn -0.943674 -0.044881 0.327819
vn -0.951542 -0.216278 -0.218614
vn -0.757973 0.124008 0.640390
vn -0.966469 -0.030059 0.255019
vn -0.942873 -0.185542 -0.276702
vn -0.484259 0.117303 0.867026
vn -0.973391 -0.069978 0.218202
vn -0.944121 -0.166030 -0.284728
vn -0.761480 0.040253 0.646938
vn -0.963448 -0.120556 0.239235
vn -0.738737 -0.043467 0.672591
vn -0.939210 -0.222152 0.261790
vn -0.939158 -0.205654 -0.275117
vn -0.720544 -0.183904 0.668578
vn -0.475830 0.025093 0.879180
vn -0.471444 -0.128119 0.872540
vn -0.637694 -0.409828 0.652217
vn -0.846415 -0.438837 0.301668
vn -0.901504 -0.385766 -0.196152
vn -0.394094 -0.352816 0.848652
vn -0.585846 -0.742023 0.325862
vn -0.695660 -0.716207 -0.055723
vn -0.432137 -0.687907 0.583130
vn -0.170893 -0.953547 0.248081
vn -0.177780 -0.080093 0.980805
vn -0.244509 -0.602701 0.759583
vn -0.175708 0.090917 0.980235
vn -0.094775 -0.329084 0.939533
vn -0.173966 0.180298 0.968106
vn 0.152021 -0.059918 0.986559
vn 0.200824 -0.334140 0.920880
vn 0.481066 -0.366769 0.796277
vn 0.229607 -0.583177 0.779221
vn 0.607022 -0.638999 0.472446
vn 0.441101 -0.582691 0.682570
vn 0.645559 -0.726220 0.236345
vn 0.413565 -0.788646 0.454975
vn 0.641657 -0.764813 0.057774
vn 0.412187 -0.876219 0.249682
vn 0.394095 -0.910192 0.127432
vn 0.350488 -0.931294 -0.099245
vn 0.213075 -0.790340 0.574423
vn 0.199956 -0.922462 0.330275
vn 0.039838 -0.570782 0.820134
vn 0.039069 -0.764729 0.643167
vn -0.074460 -0.888867 0.452075
vn 0.165293 -0.971793 0.168215
vn -0.277531 -0.959898 -0.039652
vn 0.080934 -0.995580 -0.047651
vn -0.695476 -0.533457 -0.481391
vn -0.379716 -0.806193 -0.453727
vn -0.747193 -0.259106 -0.612018
vn -0.493598 -0.402034 -0.771187
vn -0.757774 -0.158776 -0.632905
vn -0.541479 -0.211203 -0.813753
vn -0.570106 -0.136386 -0.810172
vn -0.755449 -0.176056 -0.631111
vn -0.544134 -0.153747 -0.824791
vn -0.312192 -0.124479 -0.941828
vn -0.745178 -0.244727 -0.620338
vn -0.507408 -0.233543 -0.829454
vn -0.731079 -0.320861 -0.602139
vn -0.463891 -0.306069 -0.831341
vn -0.712308 -0.396458 -0.579170
vn -0.413761 -0.364863 -0.834072
vn -0.654334 -0.519705 -0.549321
vn -0.356014 -0.433721 -0.827732
vn -0.587798 -0.647114 -0.485527
vn -0.289264 -0.499057 -0.816865
vn -0.101332 -0.281604 -0.954165
vn -0.057538 -0.275695 -0.959522
vn -0.276313 -0.530499 -0.801388
vn -0.538402 -0.734245 -0.413531
vn -0.349170 -0.822379 -0.449192
vn 0.000000 -0.927398 -0.374077
vn 0.000001 -0.824185 -0.566321
vn 0.000000 -0.642222 -0.766519
vn -0.253384 -0.625589 -0.737858
vn -0.047668 -0.255779 -0.965560
vn -0.000000 -0.228760 -0.973483
vn -0.042150 -0.247522 -0.967965
vn 0.062159 0.056257 -0.996480
vn -0.000000 0.123622 -0.992329
vn 0.087919 -0.003337 -0.996122
vn 0.104976 0.274682 -0.955788
vn -0.000000 0.317144 -0.948377
vn 0.189984 0.230385 -0.954374
vn 0.114364 -0.059744 -0.991641
vn 0.277257 0.149161 -0.949147
vn 0.124943 -0.106079 -0.986477
vn 0.348283 0.079229 -0.934035
vn 0.403144 0.001120 -0.915136
vn -0.143968 -0.260319 -0.954729
vn 0.117653 -0.135870 -0.983716
vn 0.424042 -0.023959 -0.905326
vn 0.096950 -0.118223 -0.988243
vn -0.204601 -0.221882 -0.953366
vn 0.450257 0.001623 -0.892897
vn 0.081606 -0.079200 -0.993513
vn -0.253602 -0.168487 -0.952522
vn 0.482089 -0.038602 -0.875271
vn -0.282987 -0.099672 -0.953931
vn 0.076262 -0.062243 -0.995143
vn 0.483840 -0.186726 -0.855004
vn 0.065407 -0.144993 -0.987268
vn 0.490239 -0.427668 -0.759451
vn -0.269467 -0.252681 -0.929268
vn 0.105874 -0.318437 -0.942013
vn 0.438095 -0.656280 -0.614304
vn 0.050177 -0.513238 -0.856779
vn 0.214218 -0.835581 -0.505881
vn -0.242165 -0.455017 -0.856922
vn -0.088076 -0.850743 -0.518150
vn 0.551537 -0.833986 -0.016561
vn 0.475881 -0.773016 0.419504
vn 0.781645 -0.623711 0.004034
vn 0.172994 -0.292701 0.940425
vn 0.398433 -0.559029 0.727143
vn 0.757324 -0.456907 0.466580
vn 0.896940 -0.439163 -0.051330
vn 0.601256 -0.287749 0.745447
vn 0.306296 -0.223357 0.925362
vn 0.114050 0.110756 0.987282
vn 0.054205 0.375035 0.925425
vn 0.134843 0.128940 0.982442
vn -0.011733 0.571405 0.820584
vn -0.008680 0.393844 0.919137
vn 0.394361 -0.090418 0.914497
vn 0.160526 0.163955 0.973319
vn -0.134085 0.581548 0.802386
vn -0.075608 0.393596 0.916169
vn 0.165335 0.244934 0.955339
vn -0.104721 0.840264 0.531968
vn -0.268803 0.553917 0.787985
vn -0.184877 0.979678 -0.077791
vn -0.277811 0.795681 0.538250
vn -0.183953 0.759109 -0.624431
vn -0.141070 0.482137 -0.864663
vn -0.371607 0.726915 -0.577498
vn -0.283511 0.464037 -0.839220
vn -0.393284 0.919256 -0.017220
vn -0.590580 0.637264 -0.495086
vn -0.438168 0.378810 -0.815176
vn -0.460642 0.705667 0.538371
vn -0.616249 0.785506 0.056726
vn -0.774261 0.477268 -0.415615
vn -0.579810 0.270680 -0.768474
vn -0.791310 0.599815 0.118532
vn -0.901907 0.295941 -0.314614
vn -0.692935 0.150891 -0.705034
vn -0.607777 0.570895 0.551983
vn -0.902589 0.392864 0.176044
vn -0.950065 0.178240 -0.256140
vn -0.745639 0.076187 -0.661980
vn -0.366856 0.479763 0.797022
vn -0.968093 0.141432 -0.206867
vn -0.779943 0.075606 -0.621267
vn -0.130219 0.375466 0.917643
vn -0.433175 0.382920 0.815924
vn -0.156636 0.336694 0.928495
vn -0.700717 0.413010 0.581738
vn -0.458072 0.297783 0.837553
vn -0.941305 0.255640 0.220437
vn -0.743743 0.291659 0.601483
vn -0.947481 0.198206 0.250986
vn -0.987784 0.019365 -0.154621
vn -0.813342 -0.010184 -0.581697
vn -0.824558 -0.223110 -0.519929
vn -0.755398 0.236107 0.611250
vn -0.968444 -0.232467 -0.089866
vn -0.758065 -0.518839 -0.395150
vn -0.962362 0.057565 0.265605
vn -0.847853 -0.529905 -0.018633
vn -0.599884 -0.755874 -0.262287
vn -0.933714 -0.202201 0.295455
vn -0.824248 -0.493715 0.277239
vn -0.776194 0.105047 0.621681
vn -0.765639 -0.143919 0.626965
vn -0.698374 -0.426191 0.575009
vn -0.485309 0.139225 0.863187
vn -0.467796 0.247397 0.848505
vn -0.485915 -0.084704 0.869892
vn -0.160353 0.137188 0.977480
vn -0.162177 0.278789 0.946560
vn -0.154334 0.227720 0.961418
vn 0.163947 0.280050 0.945882
vn 0.159602 0.246943 0.955796
vn 0.467139 0.112419 0.877008
vn 0.481361 0.221483 0.848078
vn 0.701584 -0.015813 0.712412
vn 0.478563 0.201246 0.854680
vn 0.883246 -0.220129 0.414029
vn 0.951142 -0.277940 -0.134458
vn 0.740520 0.136457 0.658035
vn 0.943674 -0.044881 0.327819
vn 0.951542 -0.216278 -0.218614
vn 0.757972 0.124008 0.640391
vn 0.966469 -0.030059 0.255020
vn 0.942873 -0.185542 -0.276703
vn 0.484258 0.117303 0.867026
vn 0.973392 -0.069979 0.218202
vn 0.944121 -0.166030 -0.284729
vn 0.761480 0.040252 0.646938
vn 0.963448 -0.120556 0.239235
vn 0.738737 -0.043467 0.672591
vn 0.939209 -0.222152 0.261791
vn 0.939158 -0.205654 -0.275117
vn 0.720543 -0.183904 0.668578
vn 0.475828 0.025093 0.879180
vn 0.471445 -0.128119 0.872540
vn 0.637693 -0.409828 0.652218
vn 0.846415 -0.438837 0.301669
vn 0.901504 -0.385766 -0.196152
vn 0.394094 -0.352816 0.848653
vn 0.585845 -0.742023 0.325863
vn 0.695660 -0.716206 -0.055723
vn 0.432137 -0.687908 0.583130
vn 0.170892 -0.953547 0.248081
vn 0.177781 -0.080093 0.980805
vn 0.244507 -0.602702 0.759583
vn 0.175708 0.090916 0.980235
vn 0.094774 -0.329084 0.939533
vn 0.173965 0.180298 0.968106
vn -0.152021 -0.059917 0.986559
vn -0.200826 -0.334140 0.920880
vn -0.481067 -0.366769 0.796276
vn -0.229608 -0.583179 0.779220
vn -0.607021 -0.638998 0.472449
vn -0.441103 -0.582691 0.682568
vn -0.645559 -0.726219 0.236346
vn -0.413566 -0.788646 0.454974
vn -0.641658 -0.764812 0.057773
vn -0.412187 -0.876220 0.249680
vn -0.394095 -0.910193 0.127431
vn -0.350487 -0.931294 -0.099243
vn -0.213075 -0.790340 0.574423
vn -0.199955 -0.922464 0.330271
vn -0.039838 -0.570783 0.820134
vn -0.039068 -0.764729 0.643167
vn 0.074460 -0.888868 0.452072
vn -0.165293 -0.971794 0.168212
vn 0.277531 -0.959898 -0.039651
vn -0.080934 -0.995580 -0.047651
vn 0.695476 -0.533456 -0.481392
vn 0.379716 -0.806193 -0.453728
vn 0.747194 -0.259106 -0.612018
vn 0.493598 -0.402034 -0.771187
vn 0.757774 -0.158776 -0.632905
vn 0.541478 -0.211203 -0.813753
vn 0.570106 -0.136386 -0.810172
vn 0.755449 -0.176056 -0.631111
vn 0.544134 -0.153747 -0.824791
vn 0.312192 -0.124479 -0.941829
vn 0.745177 -0.244727 -0.620339
vn 0.507408 -0.233543 -0.829455
vn 0.731078 -0.320861 -0.602140
vn 0.463890 -0.306069 -0.831341
vn 0.712308 -0.396459 -0.579169
vn 0.413762 -0.364863 -0.834072
vn 0.654334 -0.519705 -0.549321
vn 0.356014 -0.433721 -0.827732
vn 0.587798 -0.647114 -0.485527
vn 0.289263 -0.499056 -0.816866
vn 0.101331 -0.281603 -0.954165
vn 0.057537 -0.275695 -0.959522
vn 0.276313 -0.530499 -0.801388
vn 0.538402 -0.734245 -0.413531
vn 0.349170 -0.822377 -0.449195
vn 0.253384 -0.625589 -0.737858
vn 0.047668 -0.255779 -0.965559
vn 0.042150 -0.247522 -0.967965
vn -0.062160 0.056257 -0.996480
vn -0.087920 -0.003337 -0.996122
vn -0.104977 0.274682 -0.955788
vn -0.189983 0.230385 -0.954374
vn -0.114364 -0.059744 -0.991641
vn -0.277256 0.149161 -0.949147
vn -0.124943 -0.106080 -0.986477
vn -0.348283 0.079229 -0.934035
vn -0.403144 0.001120 -0.915136
vn 0.143968 -0.260319 -0.954729
vn -0.117652 -0.135870 -0.983716
vn -0.424042 -0.023959 -0.905325
vn -0.096951 -0.118223 -0.988243
vn 0.204601 -0.221882 -0.953366
vn -0.450258 0.001623 -0.892897
vn -0.081606 -0.079200 -0.993513
vn 0.253602 -0.168487 -0.952522
vn -0.482089 -0.038602 -0.875272
vn 0.282987 -0.099672 -0.953931
vn -0.076262 -0.062243 -0.995143
vn -0.483840 -0.186726 -0.855004
vn -0.065407 -0.144993 -0.987269
vn -0.490241 -0.427668 -0.759450
vn 0.269466 -0.252681 -0.929269
vn -0.105874 -0.318437 -0.942013
vn -0.438096 -0.656279 -0.614304
vn -0.050176 -0.513236 -0.856779
vn -0.214217 -0.835580 -0.505882
vn 0.242165 -0.455017 -0.856922
vn 0.088076 -0.850742 -0.518151
s 1
g mustache Jake
usemtl lambert2SG
f 385/1/1 386/2/2 384/3/3
f 386/4/2 385/5/1 387/6/4
f 387/7/4 388/8/5 386/9/2
f 1/10/6 387/11/4 385/12/1
f 389/13/7 388/14/5 390/15/8
f 390/16/8 2/17/9 389/18/7
f 388/19/5 387/20/4 3/21/10
f 3/22/10 390/23/8 388/24/5
f 387/25/4 1/26/6 4/27/11
f 5/28/12 4/29/11 1/30/6
f 3/31/10 387/32/4 6/33/13
f 387/34/4 4/35/11 6/36/13
f 7/37/14 390/38/8 3/39/10
f 6/40/13 7/41/14 3/42/10
f 2/43/9 390/44/8 8/45/15
f 7/46/14 8/47/15 390/48/8
f 8/49/15 9/50/16 2/51/9
f 9/50/16 8/49/15 10/52/17
f 10/52/17 11/53/18 9/50/16
f 12/54/19 8/49/15 7/41/14
f 12/54/19 10/52/17 8/49/15
f 11/53/18 10/52/17 13/55/20
f 13/55/20 14/56/21 11/53/18
f 15/57/22 10/52/17 12/54/19
f 15/57/22 13/55/20 10/52/17
f 16/58/23 12/54/19 7/41/14
f 7/41/14 6/40/13 16/58/23
f 17/59/24 15/57/22 12/54/19
f 12/54/19 16/58/23 17/59/24
f 18/60/25 13/55/20 15/57/22
f 15/57/22 17/59/24 19/61/26
f 19/61/26 18/60/25 15/57/22
f 16/58/23 20/62/27 17/59/24
f 20/62/27 19/61/26 17/59/24
f 18/60/25 21/63/28 13/55/20
f 14/56/21 13/55/20 21/63/28
f 18/60/25 19/61/26 22/64/29
f 23/65/30 14/56/21 21/63/28
f 14/56/21 23/65/30 24/66/31
f 21/63/28 18/60/25 25/67/32
f 25/67/32 23/65/30 21/63/28
f 22/64/29 25/67/32 18/60/25
f 24/66/31 23/65/30 26/68/33
f 24/66/31 26/68/33 27/69/34
f 26/70/33 28/71/35 27/72/34
f 28/71/35 26/70/33 29/73/36
f 30/74/37 29/73/36 26/70/33
f 23/65/30 30/75/37 26/68/33
f 29/73/36 30/74/37 31/76/38
f 23/65/30 32/77/39 30/75/37
f 23/65/30 25/67/32 32/77/39
f 33/78/40 31/76/38 30/74/37
f 32/77/39 33/79/40 30/75/37
f 31/76/38 33/78/40 34/80/41
f 35/81/42 32/77/39 25/67/32
f 25/67/32 22/64/29 35/81/42
f 33/79/40 32/77/39 36/82/43
f 32/77/39 35/81/42 36/82/43
f 37/83/44 34/80/41 33/78/40
f 34/80/41 37/83/44 38/84/45
f 39/85/46 33/79/40 36/82/43
f 33/79/40 39/85/46 37/86/44
f 37/83/44 40/87/47 38/84/45
f 39/85/46 40/88/47 37/86/44
f 40/87/47 41/89/48 38/84/45
f 42/90/49 39/85/46 36/82/43
f 35/81/42 42/90/49 36/82/43
f 39/85/46 43/91/50 40/88/47
f 42/90/49 43/91/50 39/85/46
f 44/92/51 41/89/48 40/87/47
f 43/91/50 44/93/51 40/88/47
f 41/89/48 44/92/51 45/94/52
f 42/90/49 35/81/42 46/95/53
f 46/95/53 35/81/42 22/64/29
f 47/96/54 45/94/52 44/92/51
f 45/94/52 47/96/54 48/97/55
f 46/95/53 22/64/29 49/98/56
f 49/98/56 22/64/29 19/61/26
f 49/98/56 19/61/26 20/62/27
f 49/98/56 50/99/57 46/95/53
f 50/99/57 42/90/49 46/95/53
f 20/62/27 51/100/58 49/98/56
f 49/98/56 51/100/58 50/99/57
f 42/90/49 50/99/57 52/101/59
f 42/90/49 52/101/59 43/91/50
f 51/100/58 53/102/60 50/99/57
f 52/101/59 54/103/61 43/91/50
f 44/93/51 43/91/50 54/103/61
f 54/103/61 47/104/54 44/93/51
f 50/99/57 55/105/62 52/101/59
f 54/103/61 52/101/59 55/105/62
f 55/105/62 50/99/57 53/102/60
f 54/103/61 56/106/63 47/104/54
f 55/105/62 56/106/63 54/103/61
f 47/96/54 57/107/64 48/97/55
f 56/106/63 57/108/64 47/104/54
f 57/107/64 58/109/65 48/97/55
f 57/107/64 59/110/66 58/109/65
f 55/105/62 60/111/67 56/106/63
f 59/110/66 57/107/64 61/112/68
f 61/112/68 62/113/69 59/110/66
f 56/106/63 63/114/70 57/108/64
f 63/114/70 61/115/68 57/108/64
f 60/111/67 63/114/70 56/106/63
f 61/112/68 64/116/71 62/113/69
f 64/116/71 65/117/72 62/113/69
f 63/114/70 66/118/73 61/115/68
f 61/115/68 67/119/74 64/120/71
f 67/119/74 61/115/68 66/118/73
f 63/114/70 60/111/67 68/121/75
f 63/114/70 69/122/76 66/118/73
f 69/122/76 63/114/70 68/121/75
f 66/118/73 70/123/77 67/119/74
f 70/123/77 66/118/73 69/122/76
f 71/124/78 68/121/75 60/111/67
f 71/124/78 69/122/76 68/121/75
f 55/105/62 72/125/79 60/111/67
f 72/125/79 71/124/78 60/111/67
f 72/125/79 55/105/62 53/102/60
f 69/122/76 71/124/78 73/126/80
f 73/126/80 70/123/77 69/122/76
f 72/125/79 74/127/81 71/124/78
f 74/127/81 73/126/80 71/124/78
f 75/128/82 72/125/79 53/102/60
f 53/102/60 51/100/58 75/128/82
f 72/125/79 76/129/83 74/127/81
f 75/128/82 76/129/83 72/125/79
f 77/130/84 75/128/82 51/100/58
f 20/62/27 77/130/84 51/100/58
f 75/128/82 78/131/85 76/129/83
f 75/128/82 77/130/84 78/131/85
f 79/132/86 77/130/84 20/62/27
f 20/62/27 16/58/23 79/132/86
f 6/40/13 79/132/86 16/58/23
f 79/132/86 80/133/87 77/130/84
f 80/133/87 78/131/85 77/130/84
f 79/132/86 6/40/13 81/134/88
f 81/134/88 80/133/87 79/132/86
f 4/135/11 81/134/88 6/40/13
f 78/131/85 80/133/87 82/136/89
f 81/134/88 4/135/11 83/137/90
f 4/29/11 5/28/12 83/138/90
f 84/139/91 83/138/90 5/28/12
f 81/134/88 85/140/92 80/133/87
f 85/140/92 81/134/88 83/137/90
f 85/140/92 82/136/89 80/133/87
f 83/138/90 84/139/91 86/141/93
f 83/137/90 86/142/93 85/140/92
f 87/143/94 86/141/93 84/139/91
f 86/142/93 88/144/95 85/140/92
f 82/136/89 85/140/92 88/144/95
f 86/141/93 87/143/94 89/145/96
f 88/144/95 86/142/93 89/146/96
f 90/147/97 89/145/96 87/143/94
f 82/136/89 88/144/95 91/148/98
f 89/145/96 90/147/97 92/149/99
f 93/150/100 92/149/99 90/147/97
f 94/151/101 88/144/95 89/146/96
f 89/146/96 92/152/99 94/151/101
f 88/144/95 94/151/101 91/148/98
f 92/149/99 93/150/100 95/153/102
f 92/152/99 96/154/103 94/151/101
f 96/154/103 92/152/99 95/155/102
f 93/150/100 97/156/104 95/153/102
f 97/156/104 93/150/100 98/157/105
f 95/155/102 99/158/106 96/154/103
f 99/158/106 95/155/102 97/159/104
f 100/160/107 94/151/101 96/154/103
f 94/151/101 100/160/107 91/148/98
f 101/161/108 96/154/103 99/158/106
f 96/154/103 101/161/108 100/160/107
f 102/162/109 99/158/106 97/159/104
f 102/162/109 101/161/108 99/158/106
f 97/156/104 98/157/105 103/163/110
f 102/162/109 97/159/104 103/164/110
f 103/163/110 98/157/105 104/165/111
f 101/161/108 102/162/109 105/166/112
f 104/165/111 106/167/113 103/163/110
f 106/167/113 104/165/111 107/168/114
f 103/164/110 108/169/115 102/162/109
f 108/169/115 103/164/110 106/170/113
f 108/169/115 105/166/112 102/162/109
f 109/171/116 106/167/113 107/168/114
f 109/172/116 108/169/115 106/170/113
f 105/166/112 110/173/117 101/161/108
f 110/173/117 100/160/107 101/161/108
f 105/166/112 108/169/115 111/174/118
f 100/160/107 110/173/117 112/175/119
f 112/175/119 91/148/98 100/160/107
f 110/173/117 105/166/112 113/176/120
f 111/174/118 113/176/120 105/166/112
f 91/148/98 112/175/119 114/177/121
f 82/136/89 91/148/98 114/177/121
f 78/131/85 82/136/89 114/177/121
f 78/131/85 114/177/121 76/129/83
f 114/177/121 74/127/81 76/129/83
f 74/127/81 114/177/121 112/175/119
f 112/175/119 115/178/122 74/127/81
f 115/178/122 112/175/119 110/173/117
f 73/126/80 74/127/81 115/178/122
f 110/173/117 116/179/123 115/178/122
f 116/179/123 110/173/117 113/176/120
f 115/178/122 117/180/124 73/126/80
f 117/180/124 115/178/122 116/179/123
f 70/123/77 73/126/80 117/180/124
f 113/176/120 118/181/125 116/179/123
f 70/123/77 117/180/124 119/182/126
f 119/182/126 67/119/74 70/123/77
f 116/179/123 120/183/127 117/180/124
f 119/182/126 117/180/124 120/183/127
f 120/183/127 116/179/123 118/181/125
f 67/119/74 119/182/126 121/184/128
f 121/184/128 64/120/71 67/119/74
f 122/185/129 119/182/126 120/183/127
f 64/120/71 121/184/128 123/186/130
f 65/117/72 64/116/71 123/187/130
f 124/188/131 121/184/128 119/182/126
f 119/182/126 122/185/129 124/188/131
f 121/184/128 125/189/132 123/186/130
f 121/184/128 124/188/131 125/189/132
f 123/187/130 126/190/133 65/117/72
f 126/190/133 123/187/130 125/191/132
f 120/183/127 127/192/134 122/185/129
f 120/183/127 118/181/125 127/192/134
f 122/185/129 128/193/135 124/188/131
f 128/193/135 122/185/129 127/192/134
f 129/194/136 127/192/134 118/181/125
f 118/181/125 113/176/120 129/194/136
f 113/176/120 111/174/118 129/194/136
f 127/192/134 129/194/136 130/195/137
f 129/194/136 111/174/118 130/195/137
f 130/195/137 128/193/135 127/192/134
f 111/174/118 131/196/138 130/195/137
f 128/193/135 130/195/137 131/196/138
f 131/196/138 111/174/118 108/169/115
f 108/169/115 109/172/116 131/196/138
f 131/196/138 132/197/139 128/193/135
f 132/197/139 131/196/138 109/172/116
f 132/197/139 124/188/131 128/193/135
f 124/188/131 132/197/139 125/189/132
f 133/198/140 132/199/139 109/171/116
f 109/171/116 107/168/114 133/198/140
f 134/200/141 125/191/132 132/199/139
f 132/199/139 133/198/140 134/200/141
f 125/191/132 134/200/141 126/190/133
f 107/168/114 135/201/142 133/198/140
f 104/165/111 135/201/142 107/168/114
f 136/202/143 134/200/141 133/198/140
f 133/198/140 135/201/142 136/202/143
f 135/201/142 104/165/111 137/203/144
f 98/157/105 137/203/144 104/165/111
f 136/202/143 135/201/142 138/204/145
f 137/203/144 98/157/105 139/205/146
f 98/157/105 93/150/100 139/205/146
f 135/201/142 137/203/144 140/206/147
f 140/206/147 138/204/145 135/201/142
f 137/203/144 139/205/146 141/207/148
f 141/207/148 140/206/147 137/203/144
f 93/150/100 142/208/149 139/205/146
f 93/150/100 90/147/97 142/208/149
f 139/205/146 143/209/150 141/207/148
f 143/209/150 139/205/146 142/208/149
f 140/206/147 141/207/148 144/210/151
f 144/210/151 141/207/148 143/209/150
f 145/211/152 142/208/149 90/147/97
f 87/143/94 145/211/152 90/147/97
f 142/208/149 146/212/153 143/209/150
f 146/212/153 142/208/149 145/211/152
f 145/211/152 87/143/94 147/213/154
f 84/139/91 147/213/154 87/143/94
f 145/211/152 148/214/155 146/212/153
f 148/214/155 145/211/152 147/213/154
f 147/213/154 84/139/91 149/215/156
f 5/28/12 149/215/156 84/139/91
f 147/213/154 150/216/157 148/214/155
f 150/216/157 147/213/154 149/215/156
f 149/215/156 5/28/12 151/217/158
f 1/30/6 151/217/158 5/28/12
f 149/215/156 152/218/159 150/216/157
f 152/218/159 149/215/156 151/217/158
f 151/217/158 1/30/6 153/219/160
f 385/220/1 153/221/160 1/222/6
f 151/217/158 154/223/161 152/218/159
f 154/223/161 151/217/158 153/219/160
f 155/224/162 150/216/157 152/218/159
f 156/225/163 152/218/159 154/223/161
f 152/218/159 156/225/163 155/224/162
f 157/226/164 154/223/161 153/219/160
f 153/227/160 385/228/1 158/229/165
f 158/230/165 157/226/164 153/219/160
f 385/231/1 159/232/166 158/233/165
f 159/234/166 385/235/1 384/236/3
f 160/237/167 159/238/166 384/239/3
f 159/238/166 160/237/167 161/240/168
f 159/238/166 161/240/168 162/241/169
f 163/242/170 158/230/165 159/238/166
f 162/241/169 163/242/170 159/238/166
f 158/230/165 163/242/170 157/226/164
f 162/241/169 164/243/171 163/242/170
f 164/243/171 157/226/164 163/242/170
f 164/243/171 162/241/169 165/244/172
f 166/245/173 154/223/161 157/226/164
f 157/226/164 164/243/171 166/245/173
f 166/245/173 156/225/163 154/223/161
f 165/244/172 167/246/174 164/243/171
f 167/246/174 166/245/173 164/243/171
f 167/246/174 165/244/172 168/247/175
f 169/248/176 156/225/163 166/245/173
f 166/245/173 167/246/174 169/248/176
f 168/247/175 170/249/177 167/246/174
f 170/249/177 169/248/176 167/246/174
f 170/249/177 168/247/175 171/250/178
f 29/73/36 171/250/178 28/71/35
f 171/250/178 29/73/36 170/249/177
f 31/76/38 170/249/177 29/73/36
f 170/249/177 31/76/38 172/251/179
f 169/248/176 170/249/177 172/251/179
f 34/80/41 172/251/179 31/76/38
f 169/248/176 173/252/180 156/225/163
f 169/248/176 172/251/179 173/252/180
f 173/252/180 155/224/162 156/225/163
f 172/251/179 34/80/41 174/253/181
f 172/251/179 174/253/181 173/252/180
f 34/80/41 38/84/45 174/253/181
f 155/224/162 173/252/180 175/254/182
f 174/253/181 175/254/182 173/252/180
f 38/84/45 176/255/183 174/253/181
f 175/254/182 174/253/181 176/255/183
f 41/89/48 176/255/183 38/84/45
f 176/255/183 41/89/48 177/256/184
f 177/256/184 175/254/182 176/255/183
f 45/94/52 177/256/184 41/89/48
f 175/254/182 178/257/185 155/224/162
f 150/216/157 155/224/162 178/257/185
f 178/257/185 148/214/155 150/216/157
f 175/254/182 177/256/184 179/258/186
f 179/258/186 178/257/185 175/254/182
f 177/256/184 45/94/52 180/259/187
f 177/256/184 180/259/187 179/258/186
f 45/94/52 48/97/55 180/259/187
f 179/258/186 181/260/188 178/257/185
f 181/260/188 179/258/186 180/259/187
f 148/214/155 178/257/185 182/261/189
f 181/260/188 182/261/189 178/257/185
f 182/261/189 146/212/153 148/214/155
f 183/262/190 180/259/187 48/97/55
f 183/262/190 181/260/188 180/259/187
f 58/109/65 183/262/190 48/97/55
f 184/263/191 182/261/189 181/260/188
f 181/260/188 183/262/190 184/263/191
f 146/212/153 182/261/189 185/264/192
f 182/261/189 184/263/191 185/264/192
f 185/264/192 143/209/150 146/212/153
f 183/262/190 58/109/65 186/265/193
f 186/265/193 184/263/191 183/262/190
f 59/110/66 186/265/193 58/109/65
f 143/209/150 185/264/192 187/266/194
f 184/263/191 187/266/194 185/264/192
f 144/210/151 143/209/150 187/266/194
f 184/263/191 186/265/193 188/267/195
f 187/266/194 184/263/191 188/267/195
f 189/268/196 186/265/193 59/110/66
f 189/268/196 188/267/195 186/265/193
f 190/269/197 187/266/194 188/267/195
f 189/268/196 190/269/197 188/267/195
f 187/266/194 190/269/197 144/210/151
f 59/110/66 191/270/198 189/268/196
f 190/269/197 189/268/196 191/270/198
f 191/270/198 59/110/66 62/113/69
f 62/113/69 65/117/72 191/270/198
f 190/269/197 192/271/199 144/210/151
f 192/271/199 140/206/147 144/210/151
f 193/272/200 190/269/197 191/270/198
f 192/271/199 190/269/197 193/272/200
f 191/270/198 65/117/72 194/273/201
f 193/272/200 191/270/198 194/273/201
f 126/190/133 194/273/201 65/117/72
f 195/274/202 192/271/199 193/272/200
f 195/274/202 193/272/200 194/273/201
f 194/273/201 126/190/133 196/275/203
f 195/274/202 194/273/201 196/275/203
f 134/200/141 196/275/203 126/190/133
f 192/271/199 195/274/202 197/276/204
f 196/275/203 197/276/204 195/274/202
f 197/276/204 140/206/147 192/271/199
f 197/276/204 138/204/145 140/206/147
f 136/202/143 138/204/145 197/276/204
f 196/275/203 134/200/141 198/277/205
f 134/200/141 136/202/143 198/277/205
f 196/275/203 198/277/205 197/276/204
f 198/277/205 136/202/143 197/276/204
f 391/278/206 384/279/3 386/280/2
f 386/281/2 392/282/207 391/283/206
f 392/284/207 386/285/2 388/286/5
f 199/287/208 391/288/206 392/289/207
f 389/290/7 393/291/209 388/292/5
f 393/293/209 389/294/7 2/295/9
f 388/296/5 200/297/210 392/298/207
f 200/299/210 388/300/5 393/301/209
f 392/302/207 201/303/211 199/304/208
f 202/305/212 199/306/208 201/307/211
f 200/308/210 203/309/213 392/310/207
f 392/311/207 203/312/213 201/313/211
f 204/314/214 200/315/210 393/316/209
f 203/317/213 200/318/210 204/319/214
f 2/320/9 205/321/215 393/322/209
f 204/323/214 393/324/209 205/325/215
f 205/326/215 2/51/9 9/50/16
f 9/50/16 206/327/216 205/326/215
f 206/327/216 9/50/16 11/53/18
f 207/328/217 204/319/214 205/326/215
f 207/328/217 205/326/215 206/327/216
f 11/53/18 208/329/218 206/327/216
f 208/329/218 11/53/18 14/56/21
f 209/330/219 207/328/217 206/327/216
f 209/330/219 206/327/216 208/329/218
f 210/331/220 204/319/214 207/328/217
f 204/319/214 210/331/220 203/317/213
f 211/332/221 207/328/217 209/330/219
f 207/328/217 211/332/221 210/331/220
f 212/333/222 209/330/219 208/329/218
f 209/330/219 213/334/223 211/332/221
f 213/334/223 209/330/219 212/333/222
f 210/331/220 211/332/221 214/335/224
f 214/335/224 211/332/221 213/334/223
f 212/333/222 208/329/218 215/336/225
f 14/56/21 215/336/225 208/329/218
f 212/333/222 216/337/226 213/334/223
f 217/338/227 215/336/225 14/56/21
f 14/56/21 24/66/31 217/338/227
f 215/336/225 218/339/228 212/333/222
f 218/339/228 215/336/225 217/338/227
f 216/337/226 212/333/222 218/339/228
f 24/66/31 219/340/229 217/338/227
f 24/66/31 27/69/34 219/340/229
f 219/341/229 27/72/34 28/71/35
f 28/71/35 220/342/230 219/341/229
f 221/343/231 219/341/229 220/342/230
f 217/338/227 219/340/229 221/344/231
f 220/342/230 222/345/232 221/343/231
f 217/338/227 221/344/231 223/346/233
f 217/338/227 223/346/233 218/339/228
f 224/347/234 221/343/231 222/345/232
f 223/346/233 221/344/231 224/348/234
f 222/345/232 225/349/235 224/347/234
f 226/350/236 218/339/228 223/346/233
f 218/339/228 226/350/236 216/337/226
f 224/348/234 227/351/237 223/346/233
f 223/346/233 227/351/237 226/350/236
f 228/352/238 224/347/234 225/349/235
f 225/349/235 229/353/239 228/352/238
f 230/354/240 227/351/237 224/348/234
f 224/348/234 228/355/238 230/354/240
f 228/352/238 229/353/239 231/356/241
f 230/354/240 228/355/238 231/357/241
f 231/356/241 229/353/239 232/358/242
f 233/359/243 227/351/237 230/354/240
f 226/350/236 227/351/237 233/359/243
f 230/354/240 231/357/241 234/360/244
f 233/359/243 230/354/240 234/360/244
f 235/361/245 231/356/241 232/358/242
f 234/360/244 231/357/241 235/362/245
f 232/358/242 236/363/246 235/361/245
f 233/359/243 237/364/247 226/350/236
f 237/364/247 216/337/226 226/350/236
f 238/365/248 235/361/245 236/363/246
f 236/363/246 239/366/249 238/365/248
f 237/364/247 240/367/250 216/337/226
f 240/367/250 213/334/223 216/337/226
f 240/367/250 214/335/224 213/334/223
f 240/367/250 237/364/247 241/368/251
f 241/368/251 237/364/247 233/359/243
f 214/335/224 240/367/250 242/369/252
f 240/367/250 241/368/251 242/369/252
f 233/359/243 243/370/253 241/368/251
f 233/359/243 234/360/244 243/370/253
f 242/369/252 241/368/251 244/371/254
f 243/370/253 234/360/244 245/372/255
f 235/362/245 245/372/255 234/360/244
f 245/372/255 235/362/245 238/373/248
f 241/368/251 243/370/253 246/374/256
f 245/372/255 246/374/256 243/370/253
f 246/374/256 244/371/254 241/368/251
f 245/372/255 238/373/248 247/375/257
f 246/374/256 245/372/255 247/375/257
f 238/365/248 239/366/249 248/376/258
f 247/375/257 238/373/248 248/377/258
f 248/376/258 239/366/249 249/378/259
f 248/376/258 249/378/259 250/379/260
f 246/374/256 247/375/257 251/380/261
f 250/379/260 252/381/262 248/376/258
f 252/381/262 250/379/260 253/382/263
f 247/375/257 248/377/258 254/383/264
f 254/383/264 248/377/258 252/384/262
f 251/380/261 247/375/257 254/383/264
f 252/381/262 253/382/263 255/385/265
f 255/385/265 253/382/263 256/386/266
f 254/383/264 252/384/262 257/387/267
f 252/384/262 255/388/265 258/389/268
f 258/389/268 257/387/267 252/384/262
f 254/383/264 259/390/269 251/380/261
f 254/383/264 257/387/267 260/391/270
f 260/391/270 259/390/269 254/383/264
f 257/387/267 258/389/268 261/392/271
f 261/392/271 260/391/270 257/387/267
f 262/393/272 251/380/261 259/390/269
f 262/393/272 259/390/269 260/391/270
f 246/374/256 251/380/261 263/394/273
f 263/394/273 251/380/261 262/393/272
f 263/394/273 244/371/254 246/374/256
f 260/391/270 264/395/274 262/393/272
f 264/395/274 260/391/270 261/392/271
f 263/394/273 262/393/272 265/396/275
f 265/396/275 262/393/272 264/395/274
f 266/397/276 244/371/254 263/394/273
f 244/371/254 266/397/276 242/369/252
f 263/394/273 265/396/275 267/398/277
f 266/397/276 263/394/273 267/398/277
f 268/399/278 242/369/252 266/397/276
f 214/335/224 242/369/252 268/399/278
f 266/397/276 267/398/277 269/400/279
f 266/397/276 269/400/279 268/399/278
f 270/401/280 214/335/224 268/399/278
f 214/335/224 270/401/280 210/331/220
f 203/317/213 210/331/220 270/401/280
f 270/401/280 268/399/278 271/402/281
f 271/402/281 268/399/278 269/400/279
f 270/401/280 272/403/282 203/317/213
f 272/403/282 270/401/280 271/402/281
f 201/404/211 203/317/213 272/403/282
f 269/400/279 273/405/283 271/402/281
f 272/403/282 274/406/284 201/404/211
f 201/307/211 274/407/284 202/305/212
f 275/408/285 202/305/212 274/407/284
f 272/403/282 271/402/281 276/409/286
f 276/409/286 274/406/284 272/403/282
f 276/409/286 271/402/281 273/405/283
f 274/407/284 277/410/287 275/408/285
f 274/406/284 276/409/286 277/411/287
f 278/412/288 275/408/285 277/410/287
f 277/411/287 276/409/286 279/413/289
f 273/405/283 279/413/289 276/409/286
f 277/410/287 280/414/290 278/412/288
f 279/413/289 280/415/290 277/411/287
f 281/416/291 278/412/288 280/414/290
f 273/405/283 282/417/292 279/413/289
f 280/414/290 283/418/293 281/416/291
f 284/419/294 281/416/291 283/418/293
f 285/420/295 280/415/290 279/413/289
f 280/415/290 285/420/295 283/421/293
f 279/413/289 282/417/292 285/420/295
f 283/418/293 286/422/296 284/419/294
f 283/421/293 285/420/295 287/423/297
f 287/423/297 286/424/296 283/421/293
f 284/419/294 286/422/296 288/425/298
f 288/425/298 289/426/299 284/419/294
f 286/424/296 287/423/297 290/427/300
f 290/427/300 288/428/298 286/424/296
f 291/429/301 287/423/297 285/420/295
f 285/420/295 282/417/292 291/429/301
f 292/430/302 290/427/300 287/423/297
f 287/423/297 291/429/301 292/430/302
f 293/431/303 288/428/298 290/427/300
f 293/431/303 290/427/300 292/430/302
f 288/425/298 294/432/304 289/426/299
f 293/431/303 294/433/304 288/428/298
f 294/432/304 295/434/305 289/426/299
f 292/430/302 296/435/306 293/431/303
f 295/434/305 294/432/304 297/436/307
f 297/437/307 298/438/308 295/439/305
f 294/433/304 293/431/303 299/440/309
f 299/440/309 297/441/307 294/433/304
f 299/440/309 293/431/303 296/435/306
f 300/442/310 298/438/308 297/437/307
f 300/443/310 297/441/307 299/440/309
f 296/435/306 292/430/302 301/444/311
f 301/444/311 292/430/302 291/429/301
f 296/435/306 302/445/312 299/440/309
f 291/429/301 303/446/313 301/444/311
f 303/446/313 291/429/301 282/417/292
f 301/444/311 304/447/314 296/435/306
f 302/445/312 296/435/306 304/447/314
f 282/417/292 305/448/315 303/446/313
f 273/405/283 305/448/315 282/417/292
f 269/400/279 305/448/315 273/405/283
f 269/400/279 267/398/277 305/448/315
f 305/448/315 267/398/277 265/396/275
f 265/396/275 303/446/313 305/448/315
f 303/446/313 265/396/275 306/449/316
f 306/449/316 301/444/311 303/446/313
f 264/395/274 306/449/316 265/396/275
f 301/444/311 306/449/316 307/450/317
f 307/450/317 304/447/314 301/444/311
f 306/449/316 264/395/274 308/451/318
f 308/451/318 307/450/317 306/449/316
f 261/392/271 308/451/318 264/395/274
f 304/447/314 307/450/317 309/452/319
f 261/392/271 310/453/320 308/451/318
f 310/453/320 261/392/271 258/389/268
f 307/450/317 308/451/318 311/454/321
f 310/453/320 311/454/321 308/451/318
f 311/454/321 309/452/319 307/450/317
f 258/389/268 312/455/322 310/453/320
f 312/455/322 258/389/268 255/388/265
f 313/456/323 311/454/321 310/453/320
f 255/388/265 314/457/324 312/455/322
f 256/386/266 314/458/324 255/385/265
f 315/459/325 310/453/320 312/455/322
f 310/453/320 315/459/325 313/456/323
f 312/455/322 314/457/324 316/460/326
f 312/455/322 316/460/326 315/459/325
f 314/458/324 256/386/266 317/461/327
f 317/461/327 316/462/326 314/458/324
f 311/454/321 313/456/323 318/463/328
f 311/454/321 318/463/328 309/452/319
f 313/456/323 315/459/325 319/464/329
f 319/464/329 318/463/328 313/456/323
f 320/465/330 309/452/319 318/463/328
f 309/452/319 320/465/330 304/447/314
f 304/447/314 320/465/330 302/445/312
f 318/463/328 321/466/331 320/465/330
f 320/465/330 321/466/331 302/445/312
f 321/466/331 318/463/328 319/464/329
f 302/445/312 321/466/331 322/467/332
f 319/464/329 322/467/332 321/466/331
f 322/467/332 299/440/309 302/445/312
f 299/440/309 322/467/332 300/443/310
f 322/467/332 319/464/329 323/468/333
f 323/468/333 300/443/310 322/467/332
f 323/468/333 319/464/329 315/459/325
f 315/459/325 316/460/326 323/468/333
f 324/469/334 300/442/310 323/470/333
f 300/442/310 324/469/334 298/438/308
f 325/471/335 323/470/333 316/462/326
f 323/470/333 325/471/335 324/469/334
f 316/462/326 317/461/327 325/471/335
f 298/438/308 324/469/334 326/472/336
f 295/439/305 298/438/308 326/472/336
f 327/473/337 324/469/334 325/471/335
f 324/469/334 327/473/337 326/472/336
f 326/472/336 328/474/338 295/439/305
f 289/475/299 295/439/305 328/474/338
f 327/473/337 329/476/339 326/472/336
f 328/474/338 330/477/340 289/475/299
f 289/475/299 330/477/340 284/478/294
f 326/472/336 331/479/341 328/474/338
f 331/479/341 326/472/336 329/476/339
f 328/474/338 332/480/342 330/477/340
f 332/480/342 328/474/338 331/479/341
f 284/478/294 330/477/340 333/481/343
f 284/478/294 333/481/343 281/482/291
f 330/477/340 332/480/342 334/483/344
f 334/483/344 333/481/343 330/477/340
f 331/479/341 335/484/345 332/480/342
f 335/484/345 334/483/344 332/480/342
f 336/485/346 281/482/291 333/481/343
f 278/486/288 281/482/291 336/485/346
f 333/481/343 334/483/344 337/487/347
f 337/487/347 336/485/346 333/481/343
f 336/485/346 338/488/348 278/486/288
f 275/489/285 278/486/288 338/488/348
f 336/485/346 337/487/347 339/490/349
f 339/490/349 338/488/348 336/485/346
f 338/488/348 340/491/350 275/489/285
f 202/492/212 275/489/285 340/491/350
f 338/488/348 339/490/349 341/493/351
f 341/493/351 340/491/350 338/488/348
f 340/491/350 342/494/352 202/492/212
f 199/495/208 202/492/212 342/494/352
f 340/496/350 341/493/351 343/497/353
f 343/497/353 342/494/352 340/491/350
f 342/494/352 344/498/354 199/495/208
f 391/499/206 199/500/208 344/501/354
f 342/494/352 343/497/353 345/502/355
f 345/502/355 344/498/354 342/494/352
f 346/503/356 343/497/353 341/493/351
f 347/504/357 345/502/355 343/497/353
f 343/497/353 346/503/356 347/504/357
f 348/505/358 344/498/354 345/502/355
f 344/506/354 349/507/359 391/508/206
f 349/509/359 344/498/354 348/505/358
f 391/510/206 349/511/359 350/512/360
f 350/513/360 384/514/3 391/515/206
f 160/237/167 384/516/3 350/517/360
f 350/517/360 161/240/168 160/237/167
f 350/517/360 162/241/169 161/240/168
f 351/518/361 350/517/360 349/509/359
f 162/241/169 350/517/360 351/518/361
f 349/509/359 348/505/358 351/518/361
f 162/241/169 351/518/361 352/519/362
f 352/519/362 351/518/361 348/505/358
f 352/519/362 165/244/172 162/241/169
f 353/520/363 348/505/358 345/502/355
f 348/505/358 353/520/363 352/519/362
f 353/520/363 345/502/355 347/504/357
f 165/244/172 352/519/362 354/521/364
f 354/521/364 352/519/362 353/520/363
f 354/521/364 168/247/175 165/244/172
f 355/522/365 353/520/363 347/504/357
f 353/520/363 355/522/365 354/521/364
f 168/247/175 354/521/364 356/523/366
f 356/523/366 354/521/364 355/522/365
f 356/523/366 171/250/178 168/247/175
f 220/342/230 28/71/35 171/250/178
f 171/250/178 356/523/366 220/342/230
f 222/345/232 220/342/230 356/523/366
f 356/523/366 357/524/367 222/345/232
f 355/522/365 357/524/367 356/523/366
f 225/349/235 222/345/232 357/524/367
f 355/522/365 347/504/357 358/525/368
f 355/522/365 358/525/368 357/524/367
f 358/525/368 347/504/357 346/503/356
f 357/524/367 359/526/369 225/349/235
f 357/524/367 358/525/368 359/526/369
f 225/349/235 359/526/369 229/353/239
f 346/503/356 360/527/370 358/525/368
f 359/526/369 358/525/368 360/527/370
f 229/353/239 359/526/369 361/528/371
f 360/527/370 361/528/371 359/526/369
f 232/358/242 229/353/239 361/528/371
f 361/528/371 362/529/372 232/358/242
f 362/529/372 361/528/371 360/527/370
f 236/363/246 232/358/242 362/529/372
f 360/527/370 346/503/356 363/530/373
f 341/493/351 363/530/373 346/503/356
f 363/530/373 341/493/351 339/490/349
f 360/527/370 364/531/374 362/529/372
f 364/531/374 360/527/370 363/530/373
f 362/529/372 365/532/375 236/363/246
f 362/529/372 364/531/374 365/532/375
f 236/363/246 365/532/375 239/366/249
f 364/531/374 363/530/373 366/533/376
f 366/533/376 365/532/375 364/531/374
f 339/490/349 367/534/377 363/530/373
f 366/533/376 363/530/373 367/534/377
f 367/534/377 339/490/349 337/487/347
f 368/535/378 239/366/249 365/532/375
f 368/535/378 365/532/375 366/533/376
f 249/378/259 239/366/249 368/535/378
f 369/536/379 366/533/376 367/534/377
f 366/533/376 369/536/379 368/535/378
f 337/487/347 370/537/380 367/534/377
f 367/534/377 370/537/380 369/536/379
f 370/537/380 337/487/347 334/483/344
f 368/535/378 371/538/381 249/378/259
f 371/538/381 368/535/378 369/536/379
f 250/379/260 249/378/259 371/538/381
f 334/483/344 372/539/382 370/537/380
f 369/536/379 370/537/380 372/539/382
f 335/484/345 372/539/382 334/483/344
f 369/536/379 373/540/383 371/538/381
f 372/539/382 373/540/383 369/536/379
f 374/541/384 250/379/260 371/538/381
f 374/541/384 371/538/381 373/540/383
f 375/542/385 373/540/383 372/539/382
f 374/541/384 373/540/383 375/542/385
f 372/539/382 335/484/345 375/542/385
f 250/379/260 374/541/384 376/543/386
f 375/542/385 376/543/386 374/541/384
f 376/543/386 253/382/263 250/379/260
f 253/382/263 376/543/386 256/386/266
f 375/542/385 335/484/345 377/544/387
f 377/544/387 335/484/345 331/479/341
f 378/545/388 376/543/386 375/542/385
f 377/544/387 378/545/388 375/542/385
f 376/543/386 379/546/389 256/386/266
f 378/545/388 379/546/389 376/543/386
f 317/461/327 256/386/266 379/546/389
f 380/547/390 378/545/388 377/544/387
f 380/547/390 379/546/389 378/545/388
f 379/546/389 381/548/391 317/461/327
f 380/547/390 381/548/391 379/546/389
f 325/471/335 317/461/327 381/548/391
f 377/544/387 382/549/392 380/547/390
f 381/548/391 380/547/390 382/549/392
f 382/549/392 377/544/387 331/479/341
f 382/549/392 331/479/341 329/476/339
f 327/473/337 382/549/392 329/476/339
f 381/548/391 383/550/393 325/471/335
f 325/471/335 383/550/393 327/473/337
f 381/548/391 382/549/392 383/550/393
f 383/550/393 382/549/392 327/473/337
