# This file uses centimeters as units for non-parametric coordinates.

mtllib nose.mtl
g default
v -0.000000 9.465322 3.753893
v -0.000000 9.323374 3.911143
v -0.000000 9.373392 3.815321
v -0.000000 9.600794 3.731097
v -0.000000 9.324806 4.030920
v 0.117814 9.379814 3.823095
v 0.115091 9.470320 3.759755
v 0.112688 9.329920 3.918243
v 0.110653 9.600794 3.741148
v -0.000000 9.702332 3.747292
v 0.230461 9.398712 3.842186
v 0.000000 9.377056 4.159068
v 0.102020 9.330387 4.035291
v 0.227677 9.483192 3.781378
v 0.100277 9.702259 3.751123
v 0.221716 9.350172 3.932108
v 0.203619 9.346643 4.041317
v 0.214860 9.600794 3.765419
v 0.338987 9.431524 3.879372
v 0.205581 9.699974 3.771375
v 0.094594 9.813822 3.806718
v 0.000000 9.895071 3.885783
v 0.188701 9.386425 4.156414
v 0.336785 9.504515 3.824214
v 0.327009 9.386417 3.956997
v 0.304122 9.375957 4.050249
v -0.000000 9.462057 4.275354
v 0.000000 9.816702 3.802660
v 0.327375 9.595526 3.807757
v 0.194614 9.803118 3.822798
v 0.306912 9.694036 3.811432
v 0.094632 9.460497 4.270679
v 0.422206 9.469765 3.925862
v 0.285789 9.404007 4.148754
v 0.190397 9.460335 4.257623
v 0.420005 9.531340 3.879192
v 0.411094 9.431078 3.990208
v 0.291747 9.782074 3.854640
v 0.405806 9.608122 3.856966
v 0.391635 9.419312 4.063274
v 0.000000 9.568611 4.348794
v 0.386120 9.687950 3.861756
v 0.376329 9.435890 4.134344
v 0.288484 9.466660 4.233748
v 0.099960 9.564569 4.341660
v 0.000000 9.944971 4.006963
v 0.475071 9.508286 3.973701
v 0.473468 9.560598 3.934300
v 0.464059 9.474272 4.024844
v 0.187584 9.881256 3.903916
v 0.368845 9.757542 3.892047
v 0.090720 9.939465 4.006887
v 0.449708 9.463434 4.066034
v 0.459172 9.623701 3.911912
v 0.379836 9.481997 4.192860
v 0.438433 9.686314 3.909245
v 0.441733 9.477154 4.113566
v 0.000000 9.683144 4.366347
v 0.282203 9.847815 3.922898
v 0.199060 9.558495 4.322657
v 0.502173 9.543711 4.019591
v -0.000000 9.938808 4.130571
v 0.491817 9.512968 4.057109
v 0.501204 9.590166 3.987478
v 0.420670 9.737421 3.925807
v 0.102147 9.678684 4.359398
v 0.441250 9.503040 4.152968
v 0.184360 9.921141 4.007912
v 0.487310 9.643656 3.963996
v 0.091787 9.933504 4.128295
v 0.000000 9.792860 4.328099
v 0.359220 9.807892 3.943791
v 0.298773 9.553291 4.287409
v 0.491886 9.531206 4.085366
v 0.000000 9.883780 4.243670
v 0.466004 9.692770 3.951797
v 0.447594 9.725731 3.949712
v 0.507768 9.569190 4.065565
v 0.487185 9.543957 4.117723
v 0.203301 9.668177 4.338737
v 0.389657 9.550781 4.230598
v 0.279336 9.881350 4.010908
v 0.507375 9.619045 4.039303
v 0.413082 9.772118 3.961312
v 0.185185 9.914997 4.121619
v 0.493842 9.668573 4.013391
v 0.100047 9.788607 4.322375
v 0.471825 9.711340 3.991392
v 0.095479 9.879110 4.239669
v 0.452037 9.547802 4.171096
v 0.446990 9.743176 3.975373
v 0.358891 9.831860 4.011132
v 0.304831 9.651365 4.299013
v 0.495145 9.593399 4.113764
v 0.414098 9.787540 4.007704
v 0.443492 9.757906 4.002985
v 0.283264 9.875488 4.108192
v 0.395725 9.631689 4.237774
v 0.493414 9.647894 4.092990
v 0.459264 9.612379 4.172998
v 0.480077 9.699207 4.061584
v 0.460245 9.737873 4.028200
v 0.199838 9.774954 4.304224
v 0.191564 9.862759 4.226651
v 0.367773 9.823708 4.085921
v 0.426767 9.775429 4.058674
v 0.456750 9.678970 4.151004
v 0.444050 9.737041 4.109707
v 0.302258 9.748287 4.267565
v 0.292974 9.828218 4.199279
v 0.392877 9.713301 4.211707
v 0.381729 9.781841 4.157151
v -0.117814 9.379814 3.823095
v -0.115091 9.470320 3.759755
v -0.112688 9.329920 3.918243
v -0.110653 9.600794 3.741148
v -0.230461 9.398712 3.842186
v -0.102020 9.330387 4.035291
v -0.227677 9.483192 3.781378
v -0.100277 9.702259 3.751123
v -0.221716 9.350172 3.932108
v -0.203619 9.346643 4.041317
v -0.214860 9.600794 3.765419
v -0.338987 9.431524 3.879372
v -0.205581 9.699974 3.771375
v -0.094594 9.813822 3.806718
v -0.188701 9.386425 4.156414
v -0.336785 9.504515 3.824214
v -0.327009 9.386417 3.956997
v -0.304122 9.375957 4.050249
v -0.327375 9.595526 3.807757
v -0.194614 9.803118 3.822798
v -0.306912 9.694036 3.811432
v -0.094632 9.460497 4.270679
v -0.422206 9.469765 3.925862
v -0.285789 9.404007 4.148754
v -0.190397 9.460335 4.257623
v -0.420005 9.531340 3.879192
v -0.411094 9.431078 3.990208
v -0.291747 9.782074 3.854640
v -0.405806 9.608122 3.856966
v -0.391635 9.419312 4.063274
v -0.386120 9.687950 3.861756
v -0.376329 9.435890 4.134344
v -0.288484 9.466660 4.233748
v -0.099960 9.564569 4.341660
v -0.475071 9.508286 3.973701
v -0.473468 9.560598 3.934300
v -0.464059 9.474272 4.024844
v -0.187584 9.881256 3.903916
v -0.368845 9.757542 3.892047
v -0.090720 9.939465 4.006887
v -0.449708 9.463434 4.066034
v -0.459172 9.623701 3.911912
v -0.379836 9.481997 4.192860
v -0.438433 9.686314 3.909245
v -0.441733 9.477154 4.113566
v -0.282203 9.847815 3.922898
v -0.199060 9.558495 4.322657
v -0.502173 9.543711 4.019591
v -0.491817 9.512968 4.057109
v -0.501204 9.590166 3.987478
v -0.420670 9.737421 3.925807
v -0.102147 9.678684 4.359398
v -0.441250 9.503040 4.152968
v -0.184360 9.921141 4.007912
v -0.487310 9.643656 3.963996
v -0.091787 9.933504 4.128295
v -0.359220 9.807892 3.943791
v -0.298773 9.553291 4.287409
v -0.491886 9.531206 4.085366
v -0.466004 9.692770 3.951797
v -0.447594 9.725731 3.949712
v -0.507768 9.569190 4.065565
v -0.487185 9.543957 4.117723
v -0.203301 9.668177 4.338737
v -0.389657 9.550781 4.230598
v -0.279336 9.881350 4.010908
v -0.507375 9.619045 4.039303
v -0.413082 9.772118 3.961312
v -0.185185 9.914997 4.121619
v -0.493842 9.668573 4.013391
v -0.100047 9.788607 4.322375
v -0.471825 9.711340 3.991392
v -0.095479 9.879110 4.239669
v -0.452037 9.547802 4.171096
v -0.446990 9.743176 3.975373
v -0.358891 9.831860 4.011132
v -0.304831 9.651365 4.299013
v -0.495145 9.593399 4.113764
v -0.414098 9.787540 4.007704
v -0.443492 9.757906 4.002985
v -0.283264 9.875488 4.108192
v -0.395725 9.631689 4.237774
v -0.493414 9.647894 4.092990
v -0.459264 9.612379 4.172998
v -0.480077 9.699207 4.061584
v -0.460245 9.737873 4.028200
v -0.199838 9.774954 4.304224
v -0.191564 9.862759 4.226651
v -0.367773 9.823708 4.085921
v -0.426767 9.775429 4.058674
v -0.456750 9.678970 4.151004
v -0.444050 9.737041 4.109707
v -0.302258 9.748287 4.267565
v -0.292974 9.828218 4.199279
v -0.392877 9.713301 4.211707
v -0.381729 9.781841 4.157151
vt 0.036576 0.988005
vt 0.036560 0.988534
vt 0.036104 0.988498
vt 0.037033 0.988572
vt 0.036113 0.988022
vt 0.035533 0.988452
vt 0.037033 0.987982
vt 0.052895 0.978265
vt 0.053260 0.978948
vt 0.052759 0.978895
vt 0.035562 0.988010
vt 0.036511 0.987489
vt 0.053375 0.978451
vt 0.036078 0.987547
vt 0.035135 0.988020
vt 0.035104 0.988417
vt 0.036938 0.987413
vt 0.053823 0.979008
vt 0.053571 0.977974
vt 0.053190 0.977696
vt 0.035580 0.987582
vt 0.036383 0.986969
vt 0.035163 0.987594
vt 0.034620 0.987992
vt 0.054021 0.978204
vt 0.036006 0.987058
vt 0.036750 0.986863
vt 0.053866 0.977536
vt 0.053634 0.977212
vt 0.035615 0.987098
vt 0.034677 0.987570
vt 0.035195 0.987157
vt 0.054478 0.978709
vt 0.054437 0.979074
vt 0.034576 0.988374
vt 0.034079 0.988334
vt 0.036227 0.986533
vt 0.054198 0.977803
vt 0.054519 0.978329
vt 0.035907 0.986637
vt 0.054133 0.976892
vt 0.036529 0.986414
vt 0.034772 0.987143
vt 0.035567 0.986719
vt 0.054244 0.977210
vt 0.035216 0.986775
vt 0.054431 0.977442
vt 0.054604 0.977943
vt 0.054986 0.978765
vt 0.036072 0.986193
vt 0.035793 0.986302
vt 0.054967 0.979131
vt 0.054547 0.976824
vt 0.034209 0.987505
vt 0.054643 0.976537
vt 0.034875 0.986779
vt 0.033540 0.988291
vt 0.033606 0.987834
vt 0.054553 0.977017
vt 0.035497 0.986402
vt 0.054712 0.977559
vt 0.035212 0.986481
vt 0.054665 0.977174
vt 0.057444 0.978843
vt 0.057453 0.979397
vt 0.056932 0.978885
vt 0.034374 0.987074
vt 0.055002 0.978396
vt 0.054944 0.976664
vt 0.054826 0.976855
vt 0.035662 0.986033
vt 0.034957 0.986512
vt 0.055458 0.978811
vt 0.054824 0.977278
vt 0.055176 0.976481
vt 0.055439 0.979181
vt 0.033757 0.987373
vt 0.035389 0.986153
vt 0.056917 0.979339
vt 0.034567 0.986715
vt 0.055022 0.978007
vt 0.054937 0.976940
vt 0.035159 0.986276
vt 0.035000 0.986355
vt 0.055113 0.976819
vt 0.055016 0.977050
vt 0.055455 0.978435
vt 0.055040 0.977612
vt 0.034006 0.986919
vt 0.055485 0.976383
vt 0.055356 0.976702
vt 0.034742 0.986461
vt 0.056866 0.978416
vt 0.057323 0.978280
vt 0.035203 0.985971
vt 0.055928 0.978850
vt 0.055907 0.979231
vt 0.035021 0.986138
vt 0.056396 0.979283
vt 0.056423 0.978880
vt 0.055039 0.977291
vt 0.034880 0.986292
vt 0.055640 0.976625
vt 0.034305 0.986560
vt 0.055428 0.978033
vt 0.055240 0.977006
vt 0.034575 0.986335
vt 0.034754 0.986229
vt 0.056696 0.977910
vt 0.057057 0.977726
vt 0.055383 0.977622
vt 0.055498 0.976937
vt 0.055321 0.977275
vt 0.055953 0.976641
vt 0.055774 0.976885
vt 0.056217 0.976833
vt 0.056039 0.976860
vt 0.055912 0.978458
vt 0.056389 0.978462
vt 0.056455 0.977454
vt 0.056719 0.977283
vt 0.056217 0.977108
vt 0.056413 0.976994
vt 0.055624 0.977233
vt 0.055936 0.977178
vt 0.055848 0.978030
vt 0.056283 0.977996
vt 0.055744 0.977601
vt 0.056118 0.977543
vt 0.036491 0.989060
vt 0.036036 0.988969
vt 0.036939 0.989155
vt 0.052759 0.979538
vt 0.035491 0.988892
vt 0.036344 0.989558
vt 0.053267 0.979459
vt 0.035926 0.989432
vt 0.035071 0.988814
vt 0.036753 0.989701
vt 0.053358 0.979965
vt 0.052927 0.980157
vt 0.035440 0.989317
vt 0.036134 0.990051
vt 0.035031 0.989239
vt 0.034558 0.988759
vt 0.053847 0.979836
vt 0.035777 0.989903
vt 0.036481 0.990214
vt 0.053554 0.980456
vt 0.053258 0.980724
vt 0.035398 0.989801
vt 0.034547 0.989185
vt 0.034992 0.989675
vt 0.054400 0.979439
vt 0.035911 0.990457
vt 0.053935 0.980265
vt 0.054359 0.979820
vt 0.035612 0.990302
vt 0.053678 0.981142
vt 0.036190 0.990622
vt 0.034573 0.989621
vt 0.035290 0.990167
vt 0.053854 0.980855
vt 0.034951 0.990056
vt 0.054086 0.980667
vt 0.054361 0.980215
vt 0.054909 0.979492
vt 0.035704 0.990767
vt 0.035445 0.990615
vt 0.054068 0.981297
vt 0.034074 0.989174
vt 0.054102 0.981597
vt 0.034616 0.989997
vt 0.033532 0.988753
vt 0.054115 0.981109
vt 0.035170 0.990469
vt 0.054385 0.980612
vt 0.034900 0.990345
vt 0.054258 0.980980
vt 0.057327 0.979935
vt 0.056836 0.979786
vt 0.034168 0.989626
vt 0.054846 0.979857
vt 0.054423 0.981536
vt 0.054348 0.981325
vt 0.035273 0.990859
vt 0.034654 0.990274
vt 0.055380 0.979547
vt 0.054435 0.980911
vt 0.054611 0.981765
vt 0.033607 0.989232
vt 0.035022 0.990698
vt 0.034301 0.990011
vt 0.054784 0.980240
vt 0.054474 0.981265
vt 0.034815 0.990539
vt 0.034671 0.990436
vt 0.054620 0.981421
vt 0.054575 0.981175
vt 0.055297 0.979914
vt 0.054718 0.980630
vt 0.033780 0.989720
vt 0.054892 0.981926
vt 0.054834 0.981586
vt 0.034434 0.990290
vt 0.057090 0.980460
vt 0.056672 0.980231
vt 0.034810 0.990847
vt 0.055847 0.979609
vt 0.034658 0.990654
vt 0.056337 0.979684
vt 0.054648 0.980944
vt 0.034542 0.990479
vt 0.055095 0.981721
vt 0.034018 0.990122
vt 0.055185 0.980301
vt 0.054784 0.981265
vt 0.034248 0.990388
vt 0.034408 0.990521
vt 0.056713 0.980946
vt 0.056399 0.980689
vt 0.055055 0.980693
vt 0.055022 0.981387
vt 0.054921 0.981020
vt 0.055404 0.981772
vt 0.055281 0.981496
vt 0.055702 0.981641
vt 0.055534 0.981576
vt 0.055749 0.979987
vt 0.056216 0.980085
vt 0.056289 0.981308
vt 0.056067 0.981085
vt 0.055928 0.981525
vt 0.055761 0.981372
vt 0.055208 0.981125
vt 0.055501 0.981244
vt 0.055595 0.980393
vt 0.056013 0.980518
vt 0.055403 0.980790
vt 0.055757 0.980926
vn 0.155911 -0.738334 -0.656167
vn 0.000000 -0.740950 -0.671560
vn 0.000001 -0.355190 -0.934794
vn -0.000000 -0.973345 -0.229347
vn 0.142346 -0.344638 -0.927880
vn 0.000000 -0.034162 -0.999416
vn 0.134182 -0.964718 -0.226525
vn -0.000000 -0.979585 0.201033
vn 0.149888 -0.028479 -0.988293
vn 0.321151 -0.712813 -0.623506
vn 0.081000 -0.969026 0.233296
vn 0.310809 -0.317647 -0.895823
vn 0.118192 0.301096 -0.946241
vn 0.000000 0.315255 -0.949007
vn 0.277805 -0.934419 -0.222904
vn -0.000000 -0.877701 0.479209
vn 0.198091 -0.964794 0.173013
vn 0.296508 -0.013058 -0.954941
vn 0.484697 -0.667175 -0.565638
vn 0.279635 0.287749 -0.915972
vn 0.132995 0.616170 -0.776304
vn 0.103652 -0.868760 0.484264
vn 0.476456 -0.306283 -0.824124
vn 0.433229 -0.878614 -0.200874
vn 0.337481 -0.929503 0.148764
vn 0.437875 -0.002505 -0.899032
vn 0.246074 0.607130 -0.755540
vn 0.430676 0.280581 -0.857783
vn 0.064329 -0.713118 0.698087
vn -0.000000 -0.698921 0.715199
vn 0.000000 0.583448 -0.812151
vn -0.000000 0.846626 -0.532188
vn 0.649886 -0.590624 -0.478343
vn 0.272462 -0.853328 0.444518
vn 0.135856 -0.712071 0.688838
vn 0.660628 -0.266596 -0.701782
vn 0.577115 -0.801456 -0.156864
vn 0.419700 0.568630 -0.707468
vn 0.606099 0.031723 -0.794757
vn 0.490340 -0.858967 0.147453
vn 0.566159 0.294018 -0.770076
vn 0.438376 -0.796979 0.415513
vn 0.301787 -0.664285 0.683850
vn 0.100723 -0.369996 0.923557
vn 0.815909 -0.461642 -0.348108
vn 0.823463 -0.177445 -0.538908
vn 0.000000 -0.372013 0.928228
vn 0.738821 -0.666099 -0.102251
vn 0.210586 0.818705 -0.534206
vn 0.534920 0.548881 -0.642332
vn 0.000000 0.984508 -0.175342
vn 0.118719 0.968366 -0.219483
vn 0.665125 -0.721942 0.190810
vn 0.774985 0.083437 -0.626448
vn 0.467784 -0.610333 0.639275
vn 0.698046 0.291181 -0.654175
vn 0.649882 -0.669764 0.359262
vn 0.133627 0.959974 0.246160
vn 0.429173 0.781171 -0.453412
vn 0.223603 -0.357351 0.906809
vn 0.947024 -0.271163 -0.172094
vn 0.864565 -0.492556 0.099578
vn 0.950996 -0.031215 -0.307622
vn 0.623399 0.524769 -0.579647
vn 0.138696 0.086631 0.986539
vn 0.647827 -0.538879 0.538451
vn 0.000001 0.093779 0.995593
vn 0.285065 0.947836 -0.142634
vn 0.903898 0.170848 -0.392147
vn 0.000000 0.967677 0.252192
vn 0.536593 0.739480 -0.406494
vn 0.390403 -0.329031 0.859839
vn 0.848890 -0.441301 0.290929
vn 0.841471 0.316614 -0.437815
vn 0.742974 0.487754 -0.458351
vn 0.991940 -0.068925 0.106326
vn 0.849147 -0.305534 0.430812
vn 0.290964 0.079104 0.953458
vn 0.564839 -0.283693 0.774904
vn 0.444698 0.886164 -0.130221
vn 0.990620 0.136587 -0.003988
vn 0.621967 0.694963 -0.360810
vn 0.296928 0.925938 0.233394
vn 0.948137 0.303366 -0.094897
vn 0.144970 0.509457 0.848196
vn -0.000000 0.518706 0.854953
vn 0.886707 0.428773 -0.172929
vn 0.000000 0.803956 0.594689
vn 0.138710 0.795739 0.589541
vn 0.725785 -0.235581 0.646327
vn 0.749908 0.594761 -0.289649
vn 0.560057 0.819837 -0.119181
vn 0.465212 0.072182 0.882251
vn 0.913750 0.041603 0.404142
vn 0.643373 0.757166 -0.113012
vn 0.750291 0.651877 -0.110090
vn 0.462277 0.861682 0.209294
vn 0.632379 0.065930 0.771848
vn 0.919518 0.265388 0.289924
vn 0.781250 0.059335 0.621392
vn 0.885584 0.435826 0.160616
vn 0.834072 0.549753 0.045781
vn 0.313059 0.485441 0.816297
vn 0.307795 0.766839 0.563223
vn 0.596755 0.783011 0.175435
vn 0.708410 0.690730 0.145079
vn 0.794624 0.344233 0.500077
vn 0.766270 0.552017 0.328797
vn 0.490453 0.444930 0.749329
vn 0.480908 0.710746 0.513388
vn 0.653636 0.397599 0.643953
vn 0.631608 0.638131 0.440295
vn -0.155910 -0.738333 -0.656168
vn -0.142345 -0.344637 -0.927881
vn -0.134182 -0.964718 -0.226526
vn -0.149888 -0.028479 -0.988293
vn -0.321151 -0.712813 -0.623506
vn -0.081000 -0.969027 0.233293
vn -0.310808 -0.317646 -0.895823
vn -0.118192 0.301095 -0.946241
vn -0.277805 -0.934419 -0.222903
vn -0.198091 -0.964794 0.173012
vn -0.296507 -0.013058 -0.954942
vn -0.484697 -0.667176 -0.565637
vn -0.279635 0.287748 -0.915972
vn -0.132995 0.616170 -0.776304
vn -0.103652 -0.868760 0.484264
vn -0.476455 -0.306283 -0.824125
vn -0.433230 -0.878614 -0.200870
vn -0.337481 -0.929503 0.148766
vn -0.437875 -0.002505 -0.899032
vn -0.246075 0.607131 -0.755539
vn -0.430676 0.280581 -0.857783
vn -0.064329 -0.713116 0.698088
vn -0.649886 -0.590624 -0.478344
vn -0.272463 -0.853328 0.444516
vn -0.135856 -0.712070 0.688839
vn -0.660630 -0.266596 -0.701780
vn -0.577115 -0.801458 -0.156858
vn -0.419699 0.568630 -0.707469
vn -0.606102 0.031722 -0.794754
vn -0.490338 -0.858966 0.147465
vn -0.566160 0.294019 -0.770075
vn -0.438377 -0.796978 0.415514
vn -0.301787 -0.664285 0.683849
vn -0.100724 -0.369996 0.923557
vn -0.815908 -0.461641 -0.348111
vn -0.823464 -0.177445 -0.538906
vn -0.738821 -0.666100 -0.102247
vn -0.210585 0.818705 -0.534206
vn -0.534919 0.548881 -0.642333
vn -0.118719 0.968366 -0.219483
vn -0.665126 -0.721942 0.190808
vn -0.774985 0.083437 -0.626447
vn -0.467785 -0.610333 0.639274
vn -0.698049 0.291181 -0.654173
vn -0.649881 -0.669764 0.359265
vn -0.133627 0.959973 0.246161
vn -0.429171 0.781171 -0.453415
vn -0.223603 -0.357351 0.906809
vn -0.947023 -0.271163 -0.172097
vn -0.864565 -0.492556 0.099577
vn -0.950996 -0.031215 -0.307623
vn -0.623401 0.524770 -0.579644
vn -0.138695 0.086631 0.986539
vn -0.647828 -0.538879 0.538450
vn -0.285065 0.947836 -0.142636
vn -0.903897 0.170848 -0.392150
vn -0.536593 0.739479 -0.406495
vn -0.390404 -0.329031 0.859839
vn -0.848891 -0.441299 0.290930
vn -0.841473 0.316615 -0.437812
vn -0.742977 0.487757 -0.458342
vn -0.991940 -0.068925 0.106325
vn -0.849146 -0.305533 0.430814
vn -0.290964 0.079105 0.953458
vn -0.564839 -0.283693 0.774903
vn -0.444697 0.886164 -0.130222
vn -0.990620 0.136587 -0.003989
vn -0.621970 0.694962 -0.360807
vn -0.296929 0.925938 0.233392
vn -0.948137 0.303366 -0.094897
vn -0.144970 0.509457 0.848196
vn -0.886707 0.428774 -0.172925
vn -0.138710 0.795739 0.589541
vn -0.725786 -0.235581 0.646325
vn -0.749910 0.594762 -0.289642
vn -0.560057 0.819836 -0.119184
vn -0.465213 0.072182 0.882251
vn -0.913750 0.041603 0.404140
vn -0.643372 0.757165 -0.113024
vn -0.750292 0.651877 -0.110088
vn -0.462278 0.861682 0.209291
vn -0.632380 0.065930 0.771848
vn -0.919519 0.265388 0.289922
vn -0.781251 0.059335 0.621391
vn -0.885584 0.435826 0.160613
vn -0.834072 0.549753 0.045788
vn -0.313060 0.485441 0.816297
vn -0.307796 0.766840 0.563221
vn -0.596754 0.783011 0.175436
vn -0.708409 0.690731 0.145078
vn -0.794624 0.344233 0.500077
vn -0.766269 0.552018 0.328797
vn -0.490453 0.444930 0.749329
vn -0.480910 0.710747 0.513386
vn -0.653634 0.397599 0.643955
vn -0.631608 0.638131 0.440296
s 1
g nose Jake
usemtl lambert2SG
f 6/1/1 3/2/2 1/3/3
f 6/1/1 2/4/4 3/2/2
f 6/1/1 1/3/3 7/5/5
f 4/6/6 7/5/5 1/3/3
f 2/4/4 6/1/1 8/7/7
f 8/8/7 5/9/8 2/10/4
f 9/11/9 7/5/5 4/6/6
f 11/12/10 6/1/1 7/5/5
f 11/12/10 8/7/7 6/1/1
f 5/9/8 8/8/7 13/13/11
f 9/11/9 14/14/12 7/5/5
f 11/12/10 7/5/5 14/14/12
f 15/15/13 4/6/6 10/16/14
f 8/7/7 11/12/10 16/17/15
f 15/15/13 9/11/9 4/6/6
f 12/18/16 5/9/8 13/13/11
f 8/8/7 17/19/17 13/13/11
f 17/19/17 8/8/7 16/20/15
f 18/21/18 14/14/12 9/11/9
f 19/22/19 11/12/10 14/14/12
f 19/22/19 16/17/15 11/12/10
f 20/23/20 9/11/9 15/15/13
f 20/23/20 18/21/18 9/11/9
f 10/16/14 21/24/21 15/15/13
f 23/25/22 12/18/16 13/13/11
f 18/21/18 24/26/23 14/14/12
f 23/25/22 13/13/11 17/19/17
f 19/22/19 14/14/12 24/26/23
f 16/17/15 19/22/19 25/27/24
f 26/28/25 17/19/17 16/20/15
f 16/20/15 25/29/24 26/28/25
f 18/21/18 29/30/26 24/26/23
f 15/15/13 30/31/27 20/23/20
f 20/23/20 31/32/28 18/21/18
f 30/31/27 15/15/13 21/24/21
f 32/33/29 27/34/30 12/18/16
f 28/35/31 22/36/32 21/24/21
f 18/21/18 31/32/28 29/30/26
f 24/26/23 33/37/33 19/22/19
f 33/37/33 25/27/24 19/22/19
f 34/38/34 17/19/17 26/28/25
f 23/25/22 17/19/17 34/38/34
f 35/39/35 12/18/16 23/25/22
f 24/26/23 29/30/26 36/40/36
f 25/29/24 37/41/37 26/28/25
f 12/18/16 35/39/35 32/33/29
f 30/31/27 21/24/21 22/36/32
f 33/37/33 24/26/23 36/40/36
f 25/27/24 33/37/33 37/42/37
f 20/23/20 38/43/38 31/32/28
f 38/43/38 20/23/20 30/31/27
f 36/40/36 29/30/26 39/44/39
f 26/28/25 37/41/37 40/45/40
f 42/46/41 29/30/26 31/32/28
f 26/28/25 43/47/42 34/38/34
f 29/30/26 42/46/41 39/44/39
f 43/47/42 26/28/25 40/45/40
f 44/48/43 23/25/22 34/38/34
f 45/49/44 27/34/30 32/33/29
f 33/37/33 47/50/45 37/42/37
f 48/51/46 33/37/33 36/40/36
f 35/39/35 23/25/22 44/48/43
f 27/34/30 45/49/44 41/52/47
f 49/53/48 40/45/40 37/41/37
f 39/44/39 48/51/46 36/40/36
f 50/54/49 38/43/38 30/31/27
f 35/39/35 45/49/44 32/33/29
f 33/37/33 48/51/46 47/50/45
f 37/41/37 47/55/45 49/53/48
f 31/32/28 38/43/38 51/56/50
f 42/46/41 31/32/28 51/56/50
f 22/36/32 46/57/51 52/58/52
f 40/45/40 49/53/48 53/59/53
f 48/51/46 39/44/39 54/60/54
f 55/61/55 34/38/34 43/47/42
f 56/62/56 39/44/39 42/46/41
f 43/47/42 40/45/40 57/63/57
f 34/38/34 55/61/55 44/48/43
f 57/63/57 40/45/40 53/59/53
f 39/44/39 56/62/56 54/60/54
f 52/64/52 46/65/51 70/66/58
f 50/54/49 59/67/59 38/43/38
f 44/48/43 60/68/60 35/39/35
f 61/69/61 49/53/48 47/55/45
f 45/49/44 35/39/35 60/68/60
f 59/67/59 51/56/50 38/43/38
f 49/53/48 63/70/62 53/59/53
f 64/71/63 47/50/45 48/51/46
f 65/72/64 42/46/41 51/56/50
f 54/60/54 64/71/63 48/51/46
f 42/46/41 65/72/64 56/62/56
f 66/73/65 41/52/47 45/49/44
f 63/70/62 57/63/57 53/59/53
f 67/74/66 43/47/42 57/63/57
f 49/53/48 61/69/61 63/70/62
f 43/47/42 67/74/66 55/61/55
f 47/55/45 64/75/63 61/69/61
f 66/73/65 58/76/67 41/52/47
f 68/77/68 50/54/49 52/58/52
f 56/62/56 69/78/69 54/60/54
f 68/77/68 59/67/59 50/54/49
f 64/71/63 54/60/54 69/78/69
f 70/66/58 46/65/51 62/79/70
f 51/56/50 59/67/59 72/80/71
f 73/81/72 44/48/43 55/61/55
f 57/63/57 63/70/62 74/82/73
f 60/68/60 44/48/43 73/81/72
f 51/56/50 72/80/71 65/72/64
f 69/78/69 56/62/56 76/83/74
f 77/84/75 56/62/56 65/72/64
f 78/85/76 63/70/62 61/69/61
f 76/83/74 56/62/56 77/84/75
f 57/63/57 79/86/77 67/74/66
f 64/75/63 78/85/76 61/69/61
f 79/86/77 57/63/57 74/82/73
f 80/87/78 45/49/44 60/68/60
f 63/70/62 78/85/76 74/82/73
f 81/88/79 55/61/55 67/74/66
f 82/89/80 72/80/71 59/67/59
f 68/77/68 82/89/80 59/67/59
f 69/90/69 83/91/81 64/75/63
f 72/80/71 84/92/82 65/72/64
f 65/72/64 84/92/82 77/84/75
f 45/49/44 80/87/78 66/73/65
f 81/88/79 73/81/72 55/61/55
f 52/64/52 85/93/83 68/94/68
f 76/83/74 86/95/84 69/78/69
f 58/76/67 87/96/85 71/97/86
f 78/85/76 64/75/63 83/91/81
f 78/85/76 79/86/77 74/82/73
f 87/96/85 58/76/67 66/73/65
f 77/84/75 88/98/87 76/83/74
f 75/99/88 89/100/89 62/79/70
f 85/93/83 52/64/52 70/66/58
f 79/86/77 90/101/90 67/74/66
f 77/84/75 84/92/82 91/102/91
f 69/90/69 86/103/84 83/91/81
f 89/100/89 70/66/58 62/79/70
f 90/101/90 81/88/79 67/74/66
f 92/104/92 84/92/82 72/80/71
f 86/95/84 76/83/74 88/98/87
f 89/100/89 75/99/88 71/97/86
f 91/102/91 88/98/87 77/84/75
f 93/105/93 60/68/60 73/81/72
f 72/80/71 82/89/80 92/104/92
f 79/86/77 78/85/76 94/106/94
f 83/91/81 94/106/94 78/85/76
f 95/107/95 91/102/91 84/92/82
f 90/101/90 79/86/77 94/106/94
f 91/102/91 96/108/96 88/98/87
f 80/87/78 60/68/60 93/105/93
f 89/100/89 71/97/86 87/96/85
f 68/94/68 97/109/97 82/110/80
f 84/92/82 92/104/92 95/107/95
f 98/111/98 73/81/72 81/88/79
f 86/103/84 99/112/99 83/91/81
f 91/102/91 95/107/95 96/108/96
f 100/113/100 81/88/79 90/101/90
f 88/114/87 101/115/101 86/103/84
f 97/109/97 68/94/68 85/93/83
f 94/106/94 83/91/81 99/112/99
f 96/116/96 102/117/102 88/114/87
f 100/113/100 90/101/90 94/106/94
f 103/118/103 66/73/65 80/87/78
f 103/118/103 87/96/85 66/73/65
f 101/115/101 88/114/87 102/117/102
f 104/119/104 70/66/58 89/100/89
f 82/110/80 105/120/105 92/121/92
f 86/103/84 101/115/101 99/112/99
f 70/66/58 104/119/104 85/93/83
f 73/81/72 98/111/98 93/105/93
f 92/121/92 106/122/106 95/123/95
f 96/116/96 95/123/95 106/122/106
f 100/113/100 98/111/98 81/88/79
f 100/113/100 94/106/94 99/112/99
f 96/116/96 106/122/106 102/117/102
f 87/96/85 104/119/104 89/100/89
f 105/120/105 82/110/80 97/109/97
f 106/122/106 101/115/101 102/117/102
f 106/122/106 92/121/92 105/120/105
f 99/112/99 107/124/107 100/113/100
f 108/125/108 99/112/99 101/115/101
f 104/119/104 87/96/85 103/118/103
f 109/126/109 80/87/78 93/105/93
f 101/115/101 106/122/106 108/125/108
f 107/124/107 98/111/98 100/113/100
f 103/118/103 80/87/78 109/126/109
f 85/93/83 110/127/110 97/109/97
f 99/112/99 108/125/108 107/124/107
f 110/127/110 85/93/83 104/119/104
f 105/120/105 108/125/108 106/122/106
f 111/128/111 93/105/93 98/111/98
f 97/109/97 112/129/112 105/120/105
f 98/111/98 107/124/107 111/128/111
f 104/119/104 103/118/103 110/127/110
f 108/125/108 105/120/105 112/129/112
f 93/105/93 111/128/111 109/126/109
f 112/129/112 107/124/107 108/125/108
f 112/129/112 97/109/97 110/127/110
f 110/127/110 103/118/103 109/126/109
f 107/124/107 112/129/112 111/128/111
f 112/129/112 109/126/109 111/128/111
f 109/126/109 112/129/112 110/127/110
f 21/24/21 10/16/14 28/35/31
f 30/31/27 22/36/32 50/54/49
f 52/58/52 50/54/49 22/36/32
f 113/130/113 1/3/3 3/2/2
f 113/130/113 3/2/2 2/4/4
f 113/130/113 114/131/114 1/3/3
f 4/6/6 1/3/3 114/131/114
f 2/4/4 115/132/115 113/130/113
f 115/133/115 2/10/4 5/9/8
f 116/134/116 4/6/6 114/131/114
f 117/135/117 114/131/114 113/130/113
f 117/135/117 113/130/113 115/132/115
f 5/9/8 118/136/118 115/133/115
f 116/134/116 114/131/114 119/137/119
f 117/135/117 119/137/119 114/131/114
f 120/138/120 10/16/14 4/6/6
f 115/132/115 121/139/121 117/135/117
f 120/138/120 4/6/6 116/134/116
f 12/18/16 118/136/118 5/9/8
f 115/133/115 118/136/118 122/140/122
f 122/140/122 121/141/121 115/133/115
f 123/142/123 116/134/116 119/137/119
f 124/143/124 119/137/119 117/135/117
f 124/143/124 117/135/117 121/139/121
f 125/144/125 120/138/120 116/134/116
f 125/144/125 116/134/116 123/142/123
f 10/16/14 120/138/120 126/145/126
f 127/146/127 118/136/118 12/18/16
f 123/142/123 119/137/119 128/147/128
f 127/146/127 122/140/122 118/136/118
f 124/143/124 128/147/128 119/137/119
f 121/139/121 129/148/129 124/143/124
f 130/149/130 121/141/121 122/140/122
f 121/141/121 130/149/130 129/150/129
f 123/142/123 128/147/128 131/151/131
f 120/138/120 125/144/125 132/152/132
f 125/144/125 123/142/123 133/153/133
f 132/152/132 126/145/126 120/138/120
f 134/154/134 12/18/16 27/34/30
f 28/35/31 126/145/126 22/36/32
f 123/142/123 131/151/131 133/153/133
f 128/147/128 124/143/124 135/155/135
f 135/155/135 124/143/124 129/148/129
f 136/156/136 130/149/130 122/140/122
f 127/146/127 136/156/136 122/140/122
f 137/157/137 127/146/127 12/18/16
f 128/147/128 138/158/138 131/151/131
f 129/150/129 130/149/130 139/159/139
f 12/18/16 134/154/134 137/157/137
f 132/152/132 22/36/32 126/145/126
f 135/155/135 138/158/138 128/147/128
f 129/148/129 139/160/139 135/155/135
f 125/144/125 133/153/133 140/161/140
f 140/161/140 132/152/132 125/144/125
f 138/158/138 141/162/141 131/151/131
f 130/149/130 142/163/142 139/159/139
f 143/164/143 133/153/133 131/151/131
f 130/149/130 136/156/136 144/165/144
f 131/151/131 141/162/141 143/164/143
f 144/165/144 142/163/142 130/149/130
f 145/166/145 136/156/136 127/146/127
f 146/167/146 134/154/134 27/34/30
f 135/155/135 139/160/139 147/168/147
f 148/169/148 138/158/138 135/155/135
f 137/157/137 145/166/145 127/146/127
f 27/34/30 41/52/47 146/167/146
f 149/170/149 139/159/139 142/163/142
f 141/162/141 138/158/138 148/169/148
f 150/171/150 132/152/132 140/161/140
f 137/157/137 134/154/134 146/167/146
f 135/155/135 147/168/147 148/169/148
f 139/159/139 149/170/149 147/172/147
f 133/153/133 151/173/151 140/161/140
f 143/164/143 151/173/151 133/153/133
f 22/36/32 152/174/152 46/57/51
f 142/163/142 153/175/153 149/170/149
f 148/169/148 154/176/154 141/162/141
f 155/177/155 144/165/144 136/156/136
f 156/178/156 143/164/143 141/162/141
f 144/165/144 157/179/157 142/163/142
f 136/156/136 145/166/145 155/177/155
f 157/179/157 153/175/153 142/163/142
f 141/162/141 154/176/154 156/178/156
f 152/180/152 168/181/158 46/65/51
f 150/171/150 140/161/140 158/182/159
f 145/166/145 137/157/137 159/183/160
f 160/184/161 147/172/147 149/170/149
f 146/167/146 159/183/160 137/157/137
f 158/182/159 140/161/140 151/173/151
f 149/170/149 153/175/153 161/185/162
f 162/186/163 148/169/148 147/168/147
f 163/187/164 151/173/151 143/164/143
f 154/176/154 148/169/148 162/186/163
f 143/164/143 156/178/156 163/187/164
f 164/188/165 146/167/146 41/52/47
f 161/185/162 153/175/153 157/179/157
f 165/189/166 157/179/157 144/165/144
f 149/170/149 161/185/162 160/184/161
f 144/165/144 155/177/155 165/189/166
f 147/172/147 160/184/161 162/190/163
f 164/188/165 41/52/47 58/76/67
f 166/191/167 152/174/152 150/171/150
f 156/178/156 154/176/154 167/192/168
f 166/191/167 150/171/150 158/182/159
f 162/186/163 167/192/168 154/176/154
f 168/181/158 62/79/70 46/65/51
f 151/173/151 169/193/169 158/182/159
f 170/194/170 155/177/155 145/166/145
f 157/179/157 171/195/171 161/185/162
f 159/183/160 170/194/170 145/166/145
f 151/173/151 163/187/164 169/193/169
f 167/192/168 172/196/172 156/178/156
f 173/197/173 163/187/164 156/178/156
f 174/198/174 160/184/161 161/185/162
f 172/196/172 173/197/173 156/178/156
f 157/179/157 165/189/166 175/199/175
f 162/190/163 160/184/161 174/198/174
f 175/199/175 171/195/171 157/179/157
f 176/200/176 159/183/160 146/167/146
f 161/185/162 171/195/171 174/198/174
f 177/201/177 165/189/166 155/177/155
f 178/202/178 158/182/159 169/193/169
f 166/191/167 158/182/159 178/202/178
f 167/203/168 162/190/163 179/204/179
f 169/193/169 163/187/164 180/205/180
f 163/187/164 173/197/173 180/205/180
f 146/167/146 164/188/165 176/200/176
f 177/201/177 155/177/155 170/194/170
f 152/180/152 166/206/167 181/207/181
f 172/196/172 167/192/168 182/208/182
f 58/76/67 71/97/86 183/209/183
f 174/198/174 179/204/179 162/190/163
f 174/198/174 171/195/171 175/199/175
f 183/209/183 164/188/165 58/76/67
f 173/197/173 172/196/172 184/210/184
f 75/99/88 62/79/70 185/211/185
f 181/207/181 168/181/158 152/180/152
f 175/199/175 165/189/166 186/212/186
f 173/197/173 187/213/187 180/205/180
f 167/203/168 179/204/179 182/214/182
f 185/211/185 62/79/70 168/181/158
f 186/212/186 165/189/166 177/201/177
f 188/215/188 169/193/169 180/205/180
f 182/208/182 184/210/184 172/196/172
f 185/211/185 71/97/86 75/99/88
f 187/213/187 173/197/173 184/210/184
f 189/216/189 170/194/170 159/183/160
f 169/193/169 188/215/188 178/202/178
f 175/199/175 190/217/190 174/198/174
f 179/204/179 174/198/174 190/217/190
f 191/218/191 180/205/180 187/213/187
f 186/212/186 190/217/190 175/199/175
f 187/213/187 184/210/184 192/219/192
f 176/200/176 189/216/189 159/183/160
f 185/211/185 183/209/183 71/97/86
f 166/206/167 178/220/178 193/221/193
f 180/205/180 191/218/191 188/215/188
f 194/222/194 177/201/177 170/194/170
f 182/214/182 179/204/179 195/223/195
f 187/213/187 192/219/192 191/218/191
f 196/224/196 186/212/186 177/201/177
f 184/225/184 182/214/182 197/226/197
f 193/221/193 181/207/181 166/206/167
f 190/217/190 195/223/195 179/204/179
f 192/227/192 184/225/184 198/228/198
f 196/224/196 190/217/190 186/212/186
f 199/229/199 176/200/176 164/188/165
f 199/229/199 164/188/165 183/209/183
f 197/226/197 198/228/198 184/225/184
f 200/230/200 185/211/185 168/181/158
f 178/220/178 188/231/188 201/232/201
f 182/214/182 195/223/195 197/226/197
f 168/181/158 181/207/181 200/230/200
f 170/194/170 189/216/189 194/222/194
f 188/231/188 191/233/191 202/234/202
f 192/227/192 202/234/202 191/233/191
f 196/224/196 177/201/177 194/222/194
f 196/224/196 195/223/195 190/217/190
f 192/227/192 198/228/198 202/234/202
f 183/209/183 185/211/185 200/230/200
f 201/232/201 193/221/193 178/220/178
f 202/234/202 198/228/198 197/226/197
f 202/234/202 201/232/201 188/231/188
f 195/223/195 196/224/196 203/235/203
f 204/236/204 197/226/197 195/223/195
f 200/230/200 199/229/199 183/209/183
f 205/237/205 189/216/189 176/200/176
f 197/226/197 204/236/204 202/234/202
f 203/235/203 196/224/196 194/222/194
f 199/229/199 205/237/205 176/200/176
f 181/207/181 193/221/193 206/238/206
f 195/223/195 203/235/203 204/236/204
f 206/238/206 200/230/200 181/207/181
f 201/232/201 202/234/202 204/236/204
f 207/239/207 194/222/194 189/216/189
f 193/221/193 201/232/201 208/240/208
f 194/222/194 207/239/207 203/235/203
f 200/230/200 206/238/206 199/229/199
f 204/236/204 208/240/208 201/232/201
f 189/216/189 205/237/205 207/239/207
f 208/240/208 204/236/204 203/235/203
f 208/240/208 206/238/206 193/221/193
f 206/238/206 205/237/205 199/229/199
f 203/235/203 207/239/207 208/240/208
f 208/240/208 207/239/207 205/237/205
f 205/237/205 206/238/206 208/240/208
f 126/145/126 28/35/31 10/16/14
f 132/152/132 150/171/150 22/36/32
f 152/174/152 22/36/32 150/171/150
