# This file uses centimeters as units for non-parametric coordinates.

mtllib R_arm.mtl
g default
v -2.960520 8.312483 0.996068
v -2.963533 8.263071 1.136773
v -2.985226 8.499586 0.867114
v -3.091138 8.287523 1.011667
v -3.098369 8.400810 0.911336
v -2.961726 8.295912 1.303087
v -3.087522 8.234495 1.131884
v -3.114036 8.508371 0.868853
v -2.963834 8.743032 0.837587
v -3.280264 8.292360 0.923582
v -3.246820 8.205889 1.016380
v -3.232960 8.160696 1.126654
v -3.077579 8.249561 1.257825
v -3.329676 8.405346 0.871156
v -3.137537 8.661430 0.873373
v -3.235672 8.160395 1.242351
v -3.668543 8.106449 0.907775
v -3.595812 7.965948 1.113030
v -3.621610 8.016752 0.995252
v -3.383909 8.531588 0.875073
v -2.950577 8.410103 1.416977
v -3.077579 8.319159 1.361470
v -3.596096 7.963810 1.244832
v -2.949975 8.898802 0.907186
v -3.145371 8.785563 0.937549
v -3.729404 8.220640 0.867402
v -4.008480 7.820164 0.987387
v -3.979708 7.763922 1.105054
v -3.258269 8.224569 1.371908
v -4.059253 7.913811 0.905529
v -3.978405 7.756535 1.238913
v -3.111023 8.399605 1.427454
v -3.430308 8.644575 0.945275
v -2.937923 8.566475 1.476031
v -2.957507 8.983164 1.036442
v -3.792978 8.337843 0.889095
v -3.290809 8.311342 1.438796
v -3.623685 8.013401 1.364196
v -4.378565 7.547894 1.107955
v -4.412979 7.605726 0.995057
v -4.122073 8.026831 0.874844
v -3.115242 8.529764 1.458487
v -3.170077 8.863297 1.109670
v -4.371579 7.537556 1.239212
v -4.467524 7.698620 0.920862
v -3.844500 8.433052 0.969540
v -3.673364 8.105244 1.445586
v -4.005122 7.802973 1.359646
v -2.912614 8.786421 1.456145
v -2.958411 8.994614 1.197936
v -3.343535 8.437885 1.465912
v -4.770050 7.325735 1.129237
v -4.185689 8.139400 0.904797
v -4.811228 7.383244 1.021634
v -3.128197 8.681314 1.430165
v -3.464656 8.706942 1.066094
v -4.531542 7.809006 0.898156
v -3.166762 8.880169 1.251278
v -4.755454 7.312519 1.257097
v -2.915024 8.928326 1.362438
v -4.053312 7.891335 1.444136
v -4.870560 7.474262 0.953263
v -4.393456 7.578369 1.362299
v -3.141152 8.806955 1.404035
v -3.734527 8.221243 1.470292
v -3.397768 8.561117 1.426141
v -5.129954 7.110059 1.176842
v -3.470079 8.711161 1.204087
v -4.593300 7.917801 0.932788
v -4.235485 8.227119 0.990337
v -5.181464 7.164787 1.070148
v -3.872218 8.485178 1.090359
v -3.445072 8.659037 1.331233
v -4.937673 7.582413 0.935353
v -4.438711 7.661842 1.452891
v -5.102485 7.100406 1.304777
v -4.771467 7.348255 1.382845
v -3.795388 8.336336 1.433534
v -4.113159 8.003860 1.474818
v -5.247997 7.254763 1.003236
v -3.871616 8.482765 1.225038
v -3.843897 8.429136 1.346761
v -5.471230 6.899684 1.259097
v -4.260492 8.272013 1.112361
v -5.532207 6.950070 1.150408
v -4.640012 8.004135 1.018527
v -5.001506 7.689335 0.971835
v -4.816094 7.428865 1.481667
v -5.318139 7.364653 0.988027
v -5.432646 6.895576 1.388357
v -5.104542 7.139582 1.432599
v -4.498578 7.771795 1.492657
v -4.174322 8.116243 1.444689
v -5.605651 7.039749 1.083594
v -4.225241 8.209644 1.363641
v -4.255973 8.264782 1.245232
v -5.050498 7.775494 1.058325
v -5.137610 7.224033 1.536405
v -5.809258 6.693813 1.380635
v -4.661490 8.050392 1.139312
v -5.380417 7.475929 1.026930
v -4.882096 7.536169 1.531493
v -4.561286 7.885954 1.470287
v -5.874320 6.740011 1.271960
v -5.422807 6.939255 1.516935
v -5.678549 7.152652 1.071327
v -4.615218 7.982067 1.392855
v -5.763193 6.694183 1.509231
v -4.652226 8.043955 1.273240
v -5.950157 6.828638 1.205668
v -5.447030 7.027506 1.622624
v -5.422750 7.569426 1.116210
v -5.738319 7.268751 1.115226
v -5.196973 7.339457 1.592083
v -4.953381 7.651531 1.518919
v -5.072683 7.821709 1.181819
v -6.175245 6.476347 1.533189
v -5.740614 6.742629 1.635252
v -6.022093 6.943845 1.196998
v -6.242618 6.519537 1.427322
v -5.018015 7.752611 1.443288
v -5.062281 7.814835 1.320234
v -5.752367 6.835126 1.736319
v -5.503436 7.144607 1.683656
v -5.772611 7.366737 1.211698
v -6.125283 6.475677 1.667041
v -5.270935 7.462343 1.582514
v -6.074333 7.063253 1.245820
v -6.316592 6.603070 1.362089
v -5.432887 7.624178 1.243718
v -6.386189 6.719000 1.352995
v -6.087004 6.523170 1.798146
v -5.345371 7.564829 1.508985
v -6.571271 6.257600 1.691417
v -5.404705 7.622936 1.385889
v -5.798671 6.954098 1.793555
v -5.580767 7.269224 1.677759
v -6.637576 6.297591 1.589016
v -6.081604 6.620355 1.893524
v -6.095975 7.161943 1.346384
v -5.768807 7.422482 1.346445
v -6.431709 6.841138 1.408956
v -6.520777 6.242139 1.845207
v -6.711217 6.372044 1.535336
v -5.660313 7.369247 1.607107
v -5.729330 7.424225 1.488191
v -5.871626 7.075455 1.790644
v -6.122334 6.740396 1.949127
v -6.463861 6.265437 2.021101
v -6.889304 6.105308 1.786221
v -6.784382 6.474265 1.538631
v -6.442397 6.936506 1.515843
v -6.432193 6.373719 2.104853
v -6.080126 7.216591 1.479941
v -6.947802 6.139091 1.691863
v -6.833258 6.114580 1.915480
v -5.954666 7.169388 1.726867
v -6.834522 6.591284 1.597765
v -7.012195 6.212774 1.640821
v -6.770136 6.109125 2.036925
v -6.029503 7.219452 1.615907
v -6.196424 6.857847 1.950153
v -7.075763 5.997340 1.883405
v -6.477407 6.492999 2.160276
v -7.132638 6.015996 1.796474
v -6.698736 6.102951 2.163347
v -6.416903 6.989824 1.647286
v -7.078977 6.311671 1.646449
v -6.655593 6.123970 2.271534
v -6.823327 6.685179 1.708257
v -6.278959 6.948272 1.888885
v -7.029502 5.991828 2.011953
v -7.223614 6.088133 1.731737
v -7.005746 5.980550 2.102001
v -7.217489 5.921741 1.947973
v -6.976622 5.964866 2.181818
v -6.358188 6.994235 1.781084
v -7.256784 5.947899 1.859755
v -7.123507 6.419637 1.711081
v -6.636221 6.172120 2.365783
v -6.547428 6.616451 2.164992
v -6.938818 5.977001 2.315367
v -7.351469 6.012445 1.795730
v -7.300394 6.174089 1.742544
v -7.184776 5.912078 2.082831
v -7.389681 5.873775 1.923552
v -6.662294 6.247590 2.403235
v -6.717841 6.021918 2.394439
v -7.153330 5.928318 2.171769
v -7.354349 5.839454 2.019204
v -6.660727 6.090816 2.433069
v -6.721831 6.001110 2.450436
v -6.786395 6.738291 1.835277
v -6.912878 6.010996 2.441215
v -7.443544 5.949826 1.860244
v -6.694508 6.044197 2.509720
v -6.858109 5.985290 2.475434
v -6.735599 5.978569 2.510236
v -7.357235 6.262607 1.804512
v -6.634874 6.701614 2.099567
v -7.498953 5.809103 1.981124
v -6.691404 6.202489 2.447615
v -6.843662 5.970007 2.490330
v -7.427374 6.097651 1.803591
v -7.331676 5.840404 2.142524
v -7.125300 5.968971 2.285333
v -6.720942 6.009851 2.589242
v -6.836426 5.957664 2.522923
v -6.750108 5.955233 2.572942
v -7.462509 5.791533 2.069906
v -6.733307 6.138405 2.530757
v -7.560139 5.868270 1.930118
v -7.112602 6.493675 1.843801
v -6.732454 6.352029 2.401567
v -6.832099 5.942512 2.564503
v -6.717545 6.746225 1.980039
v -7.539919 5.783814 2.006516
v -6.834541 5.917791 2.616783
v -6.762881 5.930626 2.631987
v -6.740409 5.982363 2.654784
v -7.518375 6.040512 1.850444
v -7.295111 5.873131 2.257998
v -7.501062 5.773286 2.088095
v -6.758167 6.091949 2.615953
v -7.472008 6.175866 1.862606
v -7.589140 5.752414 2.037919
v -6.775657 5.906012 2.691026
v -7.601757 5.836867 1.958196
v -6.836983 5.893061 2.669058
v -7.089107 6.004998 2.410938
v -7.475000 5.830165 2.164275
v -7.550049 5.748837 2.111751
v -6.951168 6.037027 2.559533
v -6.759877 5.954867 2.720323
v -6.770484 6.269522 2.494537
v -6.968229 6.070370 2.533933
v -6.772332 6.054677 2.682323
v -6.836884 5.872871 2.730366
v -7.650087 5.798720 1.991742
v -7.653103 5.695759 2.086001
v -6.784410 5.886790 2.750302
v -6.939554 6.001138 2.592054
v -7.455647 5.840198 2.217522
v -7.629631 5.948586 1.927696
v -7.511559 5.817822 2.171397
v -6.984386 6.095905 2.518234
v -7.665638 5.914069 1.955379
v -6.930732 5.966862 2.631967
v -7.617226 5.699841 2.149584
v -6.770681 5.930845 2.777150
v -6.802357 6.213107 2.576602
v -6.836946 5.852613 2.789764
v -7.568390 6.116157 1.925179
v -7.712763 5.726459 2.044481
v -7.691927 5.653958 2.117702
v -6.786496 6.017397 2.748684
v -6.793951 5.870376 2.806445
v -7.079233 6.537572 1.961166
v -7.266142 5.918993 2.391171
v -6.910382 5.901652 2.731394
v -6.805771 6.444468 2.389312
v -7.707663 5.872035 1.988705
v -7.662220 5.661439 2.176620
v -7.712500 5.619176 2.139820
v -7.746876 5.676551 2.076887
v -7.617821 5.738451 2.209047
v -7.557884 5.797205 2.182902
v -6.921910 5.932577 2.671875
v -7.767187 5.638990 2.100981
v -7.736095 5.580271 2.164698
v -7.054840 6.033200 2.501804
v -6.833838 5.842721 2.834490
v -7.685556 5.628327 2.194895
v -6.779610 5.911139 2.829313
v -7.394487 5.830523 2.313667
v -7.764469 5.535552 2.189933
v -7.711056 5.588880 2.214265
v -6.893637 5.874650 2.798837
v -7.789938 5.599161 2.128579
v -6.793677 5.984784 2.803479
v -6.820125 6.159906 2.653896
v -6.807242 5.861670 2.851901
v -7.328382 6.329543 1.974381
v -7.796209 5.495213 2.217915
v -7.742504 5.544543 2.234515
v -7.813881 5.553250 2.158719
v -7.772251 5.784061 2.049142
v -7.661116 5.691442 2.227523
v -7.777893 5.501813 2.258268
v -7.485020 6.217749 1.931460
v -6.988235 6.550041 2.154599
v -7.838520 5.509512 2.196939
v -7.650845 6.024618 1.994808
v -6.789990 5.892632 2.863172
v -7.825750 5.470028 2.246243
v -7.684786 5.655168 2.242433
v -7.806320 5.727149 2.083554
v -7.710829 5.613650 2.259151
v -7.742266 5.567084 2.276818
v -7.822859 5.687225 2.110576
v -7.431202 5.815886 2.330369
v -6.830080 6.113867 2.711710
v -7.021088 6.140598 2.516938
v -7.561283 5.916406 2.195030
v -7.488594 5.825557 2.243650
v -6.835469 5.892120 2.890368
v -7.841833 5.647808 2.138139
v -7.776880 5.521440 2.298134
v -7.818937 5.473836 2.283314
v -7.559597 5.914434 2.210058
v -6.865624 5.866941 2.859389
v -7.861982 5.479977 2.244003
v -7.861250 5.601632 2.171666
v -6.811124 5.923839 2.888729
v -6.867979 6.281777 2.538291
v -7.879082 5.548276 2.210836
v -6.801439 5.956157 2.853939
v -7.579708 5.900172 2.202174
v -7.681297 5.987236 2.022622
v -6.840036 6.067821 2.769518
v -7.218533 5.958624 2.484200
v -7.467920 5.801259 2.347075
v -6.876913 6.495173 2.314361
v -6.980861 6.019039 2.712107
v -6.962984 5.968344 2.766914
v -7.521545 5.810923 2.269781
v -7.891653 5.510289 2.246182
v -6.985662 6.060037 2.675056
v -7.810284 5.490820 2.315101
v -7.381929 5.886959 2.415951
v -7.658051 5.801606 2.242444
v -7.862858 5.483668 2.297001
v -6.990462 6.101026 2.637999
v -7.717817 5.941021 2.057054
v -6.845218 6.024274 2.820791
v -7.693352 5.743098 2.264982
v -7.765894 5.605163 2.310795
v -7.736309 5.656201 2.293236
v -7.712605 5.700550 2.278564
v -6.939012 5.926330 2.831430
v -7.578842 5.896051 2.224037
v -7.801554 5.552361 2.329106
v -6.995606 6.149312 2.602083
v -6.902575 5.905849 2.881855
v -6.846665 5.987696 2.872745
v -7.537569 5.764789 2.384144
v -7.424879 5.867525 2.424501
v -7.606760 5.874160 2.213465
v -7.781427 5.843393 2.123369
v -7.342007 5.905842 2.448024
v -6.998693 6.193924 2.573329
v -6.888500 6.218347 2.606575
v -6.842646 5.955729 2.907076
v -7.839733 5.509618 2.334678
v -7.585886 5.770285 2.309948
v -7.308231 6.373506 2.089214
v -7.598093 5.877675 2.238019
v -7.817780 5.784011 2.159900
v -7.569281 6.146399 2.036323
v -7.891737 5.524007 2.294952
v -7.837067 5.742870 2.185222
v -7.883471 5.581749 2.272320
v -7.851006 5.700046 2.213198
v -7.866131 5.647853 2.242603
v -6.903059 6.164013 2.663079
v -7.189337 6.027654 2.557003
v -6.877755 5.937835 2.909482
v -7.463861 6.259259 2.046336
v -7.086977 6.145856 2.535912
v -7.467834 5.848097 2.433055
v -6.909515 6.118956 2.712142
v -7.586332 5.724931 2.411254
v -7.009071 6.256569 2.538169
v -7.630800 5.728524 2.341685
v -7.294500 5.921275 2.529450
v -7.868713 5.543128 2.337276
v -7.656029 5.823125 2.275116
v -6.915839 6.027993 2.814539
v -7.634888 5.998213 2.141237
v -7.609980 6.038939 2.119970
v -7.846169 5.590205 2.331534
v -7.817585 5.650997 2.313112
v -6.910115 5.983033 2.873440
v -7.667263 5.947385 2.167869
v -6.915971 6.073890 2.761201
v -7.797750 5.706551 2.291619
v -7.375753 5.892812 2.468740
v -7.044518 6.332107 2.477269
v -7.600273 6.046456 2.177642
v -7.635096 5.685079 2.438369
v -7.675714 5.686770 2.373427
v -7.729778 5.853320 2.218341
v -7.783033 5.751398 2.270647
v -7.537472 5.806882 2.459039
v -7.766445 5.792205 2.251462
v -7.697168 5.773418 2.307524
v -7.626371 6.008088 2.213213
v -7.706564 5.645718 2.400365
v -7.326614 5.898428 2.548755
v -7.464455 5.974496 2.452085
v -7.668228 5.642772 2.459109
v -7.652473 5.969728 2.248787
v -7.738306 5.723719 2.339938
v -7.739391 5.601361 2.428918
v -7.408424 5.871183 2.489477
v -7.360373 5.872929 2.567789
v -7.587263 5.762110 2.480953
v -7.704248 5.597449 2.482111
v -7.768120 5.677951 2.368112
v -7.776123 5.553444 2.457469
v -7.548882 6.166289 2.114599
v -7.744684 5.550598 2.508221
v -7.493713 5.954677 2.460885
v -7.277390 5.980997 2.597573
v -7.711742 5.899861 2.295937
v -7.797087 5.630660 2.396948
v -7.216404 6.408384 2.295916
v -7.669233 5.670839 2.521748
v -7.438452 5.851302 2.508538
v -7.391525 5.849396 2.585355
v -7.313261 5.952102 2.615479
v -7.475307 5.958076 2.462990
v -7.435406 6.285778 2.143184
v -7.817717 5.508525 2.492600
v -7.826807 5.580119 2.430775
v -7.637056 5.717341 2.502871
v -7.751488 5.839660 2.330329
v -7.703857 5.621922 2.541679
v -7.795500 5.505892 2.539851
v -7.214621 6.120503 2.586604
v -7.496763 5.935580 2.477429
v -7.351040 5.920775 2.635150
v -7.455130 5.799933 2.620015
v -7.580490 5.875175 2.496552
v -7.857922 5.478910 2.518142
v -7.791233 5.779461 2.364728
v -7.860201 5.529109 2.471303
v -7.498672 5.802118 2.547464
v -7.743683 5.572174 2.563242
v -7.140151 6.265562 2.523910
v -7.384155 6.308243 2.230780
v -7.821123 5.730365 2.391185
v -7.515978 5.915437 2.490359
v -7.520508 5.931408 2.471920
v -7.844244 5.481338 2.563972
v -7.509924 6.202107 2.221951
v -7.849771 5.682792 2.420282
v -7.627218 5.821931 2.519870
v -7.544485 5.756210 2.581584
v -7.873768 5.627038 2.451360
v -7.294271 6.063670 2.627101
v -7.893284 5.490774 2.515581
v -7.791733 5.523985 2.587065
v -7.386255 5.891575 2.653487
v -7.579918 6.107347 2.287304
v -7.896742 5.564732 2.492111
v -7.508022 5.751720 2.651059
v -7.673950 5.768692 2.543194
v -7.569845 5.857953 2.526896
v -7.885067 5.492184 2.577086
v -7.584675 5.712519 2.612165
v -7.706207 5.719362 2.562867
v -7.611540 6.066891 2.313252
v -7.738462 5.666998 2.582043
v -7.830666 5.495740 2.603914
v -7.912109 5.522336 2.528093
v -7.774054 5.611198 2.601986
v -7.333914 6.028003 2.649045
v -7.550377 5.708010 2.676726
v -7.453703 5.834801 2.689371
v -7.610521 5.808941 2.557893
v -7.816896 5.555018 2.617349
v -7.624866 5.668826 2.642747
v -7.643164 6.026441 2.339203
v -7.254936 6.337969 2.441585
v -7.375593 5.989166 2.671820
v -7.592733 5.664299 2.702392
v -7.646149 5.756524 2.588314
v -7.318874 6.332019 2.344866
v -7.551323 6.061886 2.424848
v -7.503429 5.779990 2.717250
v -7.464851 6.137916 2.466609
v -7.663303 5.626060 2.670703
v -7.491812 6.095332 2.487568
v -7.451159 6.228674 2.326590
v -7.702799 5.949413 2.386427
v -7.857491 5.512641 2.622754
v -7.589231 6.013017 2.443359
v -7.525499 6.050219 2.511367
v -7.414835 5.952601 2.693264
v -7.632891 5.621131 2.726863
v -7.681776 5.704107 2.618734
v -7.543909 5.731493 2.740554
v -7.746805 5.886386 2.421112
v -7.256208 6.233787 2.578290
v -7.704779 5.575618 2.701738
v -7.557178 6.007795 2.533747
v -7.909790 5.528446 2.578383
v -7.646599 5.938740 2.475349
v -7.824152 5.773256 2.477733
v -7.714039 5.656743 2.647435
v -7.898100 5.588031 2.560229
v -7.513420 6.110764 2.406340
v -7.678938 5.569493 2.755856
v -7.584389 5.682996 2.763859
v -7.878296 5.663198 2.527912
v -7.857315 5.724261 2.500607
v -7.691055 5.876875 2.503577
v -7.744249 5.532776 2.735956
v -7.619362 5.931001 2.575755
v -7.484951 5.885993 2.731288
v -7.884708 5.539374 2.617843
v -7.623363 5.636545 2.786601
v -7.751383 5.602970 2.685561
v -7.355074 6.146126 2.627821
v -7.859161 5.586860 2.614343
v -7.735514 5.815013 2.531809
v -7.828600 5.653991 2.598625
v -7.790817 5.823364 2.455801
v -7.734932 5.523675 2.788419
v -7.769056 5.766358 2.556077
v -7.659763 5.871944 2.604401
v -7.394920 6.256026 2.415451
v -7.800777 5.715187 2.578233
v -7.535715 5.825612 2.761534
v -7.693655 5.814647 2.630910
v -7.667948 5.583598 2.811849
v -7.794037 5.541759 2.739616
v -7.727545 5.757349 2.657419
v -7.393431 6.105919 2.648412
v -7.574800 5.774048 2.785540
v -7.757532 5.704633 2.682006
v -7.613886 5.722485 2.809546
v -7.713747 5.540170 2.830507
v -7.792171 5.643359 2.714080
v -7.333490 6.277132 2.503109
v -7.435459 6.061235 2.670769
v -7.649525 5.672135 2.831644
v -7.798336 5.523059 2.814482
v -7.826159 5.578363 2.750272
v -7.694712 5.614922 2.853182
v -7.475163 6.019027 2.691888
v -7.752274 5.554563 2.860556
v -7.425896 6.184000 2.558257
v -7.461361 6.142915 2.580559
v -7.546072 5.943059 2.729414
v -7.501587 6.095650 2.604824
v -7.539627 6.050953 2.627770
v -7.597033 5.877987 2.761280
v -7.634905 5.822796 2.786357
v -7.608299 5.969674 2.668280
v -7.825893 5.578054 2.817129
v -7.654709 5.903651 2.697451
v -7.672779 5.767604 2.811434
v -7.690823 5.845393 2.721832
v -7.726936 5.787134 2.746213
v -7.785282 5.592470 2.867074
v -7.756958 5.732615 2.766993
v -7.790813 5.666313 2.790046
v -7.705725 5.715682 2.833241
v -7.745567 5.655075 2.854374
vt 0.004779 0.984629
vt 0.004682 0.984583
vt 0.004848 0.984426
vt 0.004743 0.984763
vt 0.004638 0.984879
vt 0.004854 0.984544
vt 0.004755 0.984869
vt 0.008785 0.989474
vt 0.008660 0.989632
vt 0.008647 0.989428
vt 0.008786 0.989643
vt 0.008910 0.989496
vt 0.008902 0.989653
vt 0.005018 0.984419
vt 0.004954 0.984449
vt 0.008530 0.989622
vt 0.008540 0.989392
vt 0.005066 0.984335
vt 0.004816 0.984995
vt 0.004747 0.985159
vt 0.007204 0.989686
vt 0.007092 0.989685
vt 0.007096 0.989527
vt 0.008634 0.990044
vt 0.008889 0.990048
vt 0.007217 0.989511
vt 0.008763 0.990046
vt 0.008398 0.989612
vt 0.005103 0.984452
vt 0.008399 0.989344
vt 0.007211 0.990083
vt 0.007333 0.989478
vt 0.007084 0.990082
vt 0.004910 0.985072
vt 0.005246 0.984417
vt 0.008503 0.990044
vt 0.008746 0.990460
vt 0.008874 0.990464
vt 0.004913 0.985281
vt 0.007344 0.989675
vt 0.008616 0.990458
vt 0.007211 0.990504
vt 0.005169 0.984515
vt 0.008263 0.989601
vt 0.007081 0.990499
vt 0.008273 0.989295
vt 0.005087 0.985301
vt 0.008373 0.990045
vt 0.007453 0.989661
vt 0.007338 0.990083
vt 0.008864 0.990896
vt 0.008737 0.990894
vt 0.008488 0.990460
vt 0.007437 0.989468
vt 0.005220 0.984618
vt 0.005361 0.984594
vt 0.005066 0.985061
vt 0.007200 0.990940
vt 0.008091 0.989283
vt 0.008610 0.990895
vt 0.007073 0.990932
vt 0.008242 0.990048
vt 0.007465 0.990082
vt 0.007338 0.990508
vt 0.005250 0.985229
vt 0.007586 0.989644
vt 0.008867 0.991324
vt 0.008360 0.990465
vt 0.007550 0.989409
vt 0.008742 0.991325
vt 0.005231 0.984766
vt 0.008127 0.989604
vt 0.008485 0.990898
vt 0.005429 0.984867
vt 0.005168 0.985011
vt 0.007178 0.991371
vt 0.007465 0.990508
vt 0.007954 0.989272
vt 0.007054 0.991360
vt 0.008618 0.991328
vt 0.007327 0.990948
vt 0.005254 0.984892
vt 0.005390 0.985080
vt 0.007593 0.990077
vt 0.007683 0.989344
vt 0.007720 0.989627
vt 0.008884 0.991728
vt 0.007994 0.989609
vt 0.008359 0.990904
vt 0.008232 0.990472
vt 0.008758 0.991732
vt 0.008113 0.990052
vt 0.007791 0.989285
vt 0.007859 0.989615
vt 0.008494 0.991334
vt 0.007454 0.990952
vt 0.007157 0.991768
vt 0.007031 0.991760
vt 0.007305 0.991384
vt 0.007723 0.990072
vt 0.007591 0.990506
vt 0.008633 0.991736
vt 0.007983 0.990058
vt 0.007853 0.990064
vt 0.008902 0.992124
vt 0.008105 0.990479
vt 0.008773 0.992127
vt 0.008233 0.990912
vt 0.008368 0.991344
vt 0.007436 0.991395
vt 0.008508 0.991742
vt 0.007147 0.992153
vt 0.007286 0.991776
vt 0.007581 0.990952
vt 0.007718 0.990501
vt 0.007016 0.992148
vt 0.008645 0.992131
vt 0.007847 0.990495
vt 0.007976 0.990487
vt 0.008241 0.991357
vt 0.007420 0.991782
vt 0.008910 0.992526
vt 0.008105 0.990920
vt 0.008380 0.991750
vt 0.007567 0.991404
vt 0.007017 0.992541
vt 0.007709 0.990947
vt 0.008780 0.992525
vt 0.007278 0.992158
vt 0.008517 0.992135
vt 0.007840 0.990939
vt 0.007149 0.992545
vt 0.007975 0.990929
vt 0.008650 0.992524
vt 0.007413 0.992161
vt 0.008250 0.991758
vt 0.008386 0.992139
vt 0.007556 0.991785
vt 0.007699 0.991405
vt 0.008112 0.991372
vt 0.008907 0.992960
vt 0.007282 0.992544
vt 0.007008 0.992969
vt 0.008518 0.992524
vt 0.008778 0.992957
vt 0.007837 0.991399
vt 0.007977 0.991387
vt 0.007415 0.992541
vt 0.007551 0.992165
vt 0.008252 0.992144
vt 0.007146 0.992980
vt 0.007695 0.991783
vt 0.008384 0.992523
vt 0.008653 0.992954
vt 0.008118 0.991766
vt 0.008521 0.992951
vt 0.007286 0.992977
vt 0.007836 0.991778
vt 0.008888 0.993420
vt 0.007979 0.991773
vt 0.007551 0.992537
vt 0.007692 0.992163
vt 0.006964 0.993425
vt 0.008763 0.993418
vt 0.007418 0.992961
vt 0.008246 0.992523
vt 0.008113 0.992149
vt 0.008383 0.992947
vt 0.007117 0.993454
vt 0.008649 0.993422
vt 0.007832 0.992158
vt 0.007973 0.992155
vt 0.007689 0.992533
vt 0.007553 0.992954
vt 0.007293 0.993471
vt 0.006706 0.993698
vt 0.006591 0.993726
vt 0.006516 0.993391
vt 0.008527 0.993431
vt 0.008243 0.992946
vt 0.007420 0.993428
vt 0.008105 0.992526
vt 0.006812 0.993664
vt 0.006624 0.993369
vt 0.006447 0.993744
vt 0.006386 0.993422
vt 0.007826 0.992530
vt 0.008391 0.993435
vt 0.006728 0.993347
vt 0.006265 0.993460
vt 0.006296 0.993787
vt 0.014058 0.980159
vt 0.014400 0.980186
vt 0.014366 0.980303
vt 0.007965 0.992528
vt 0.007688 0.992954
vt 0.006443 0.993182
vt 0.007551 0.993425
vt 0.006542 0.993165
vt 0.006140 0.993513
vt 0.008102 0.992946
vt 0.014092 0.980048
vt 0.006039 0.993563
vt 0.006229 0.993889
vt 0.008250 0.993420
vt 0.007822 0.992948
vt 0.006312 0.993189
vt 0.006665 0.993137
vt 0.006220 0.993187
vt 0.013837 0.980061
vt 0.006417 0.993023
vt 0.006136 0.993196
vt 0.007960 0.992946
vt 0.006515 0.993034
vt 0.014132 0.979927
vt 0.014444 0.980060
vt 0.005960 0.993632
vt 0.007684 0.993419
vt 0.006000 0.993226
vt 0.006638 0.993015
vt 0.013855 0.979950
vt 0.006282 0.993002
vt 0.006510 0.992895
vt 0.006147 0.993995
vt 0.005915 0.993707
vt 0.005900 0.993473
vt 0.013705 0.980003
vt 0.006188 0.993012
vt 0.006408 0.992860
vt 0.005884 0.993566
vt 0.005846 0.993469
vt 0.014508 0.979941
vt 0.008113 0.993413
vt 0.005864 0.993256
vt 0.006617 0.992921
vt 0.005806 0.993536
vt 0.005819 0.993325
vt 0.005787 0.993463
vt 0.013871 0.979832
vt 0.007815 0.993417
vt 0.006524 0.992783
vt 0.005874 0.993675
vt 0.005799 0.993346
vt 0.013721 0.979893
vt 0.006287 0.992822
vt 0.006066 0.993027
vt 0.013599 0.979966
vt 0.005727 0.993525
vt 0.005723 0.993460
vt 0.005763 0.993361
vt 0.006432 0.992742
vt 0.005791 0.993637
vt 0.006619 0.992811
vt 0.014181 0.979790
vt 0.014536 0.979148
vt 0.014620 0.979064
vt 0.014834 0.979359
vt 0.005717 0.993376
vt 0.007959 0.993411
vt 0.006538 0.992741
vt 0.014750 0.979462
vt 0.005661 0.993461
vt 0.005658 0.993388
vt 0.005660 0.993522
vt 0.013624 0.979854
vt 0.006155 0.992828
vt 0.006454 0.992703
vt 0.013470 0.979923
vt 0.014566 0.979823
vt 0.005712 0.993616
vt 0.013736 0.979789
vt 0.006564 0.992692
vt 0.005599 0.993464
vt 0.006626 0.992773
vt 0.005602 0.993399
vt 0.005937 0.993059
vt 0.006344 0.992673
vt 0.006489 0.992655
vt 0.005720 0.993233
vt 0.005591 0.993523
vt 0.014486 0.979036
vt 0.014595 0.979011
vt 0.005747 0.993200
vt 0.005646 0.993603
vt 0.005540 0.993415
vt 0.006644 0.992728
vt 0.006610 0.992618
vt 0.005541 0.993471
vt 0.005680 0.993262
vt 0.006274 0.992669
vt 0.013488 0.979819
vt 0.006382 0.992642
vt 0.005762 0.993173
vt 0.013421 0.979913
vt 0.013439 0.979815
vt 0.005633 0.993288
vt 0.006551 0.992583
vt 0.005532 0.993522
vt 0.014448 0.978948
vt 0.014556 0.978922
vt 0.005484 0.993432
vt 0.013627 0.979740
vt 0.006679 0.992653
vt 0.006646 0.992568
vt 0.005576 0.993594
vt 0.005488 0.993477
vt 0.014626 0.979691
vt 0.014231 0.979678
vt 0.005998 0.992842
vt 0.005523 0.993342
vt 0.014458 0.979230
vt 0.014683 0.979567
vt 0.013362 0.979905
vt 0.013380 0.979814
vt 0.006594 0.992531
vt 0.006670 0.992531
vt 0.006707 0.992604
vt 0.006501 0.992542
vt 0.006427 0.992602
vt 0.005586 0.993313
vt 0.006728 0.992567
vt 0.006698 0.992490
vt 0.005847 0.993088
vt 0.005447 0.993449
vt 0.006623 0.992496
vt 0.005478 0.993521
vt 0.006137 0.992703
vt 0.006655 0.992458
vt 0.006731 0.992445
vt 0.005455 0.993380
vt 0.006754 0.992524
vt 0.005515 0.993583
vt 0.014431 0.978861
vt 0.014527 0.978839
vt 0.005445 0.993479
vt 0.013920 0.979662
vt 0.006692 0.992417
vt 0.006761 0.992399
vt 0.006782 0.992473
vt 0.013268 0.979829
vt 0.013262 0.979910
vt 0.006551 0.992496
vt 0.006728 0.992374
vt 0.013742 0.979711
vt 0.014313 0.979493
vt 0.006805 0.992412
vt 0.013502 0.979713
vt 0.005443 0.993509
vt 0.006779 0.992359
vt 0.006583 0.992464
vt 0.013194 0.979916
vt 0.013200 0.979841
vt 0.006619 0.992427
vt 0.006658 0.992386
vt 0.013145 0.979921
vt 0.013153 0.979849
vt 0.006135 0.992660
vt 0.014428 0.978791
vt 0.014512 0.978770
vt 0.005749 0.993128
vt 0.006345 0.992551
vt 0.006248 0.992629
vt 0.005393 0.993493
vt 0.013090 0.979922
vt 0.013104 0.979853
vt 0.006699 0.992345
vt 0.006758 0.992332
vt 0.006334 0.992554
vt 0.005408 0.993439
vt 0.006812 0.992346
vt 0.013027 0.979921
vt 0.013048 0.979856
vt 0.005412 0.993537
vt 0.014377 0.979025
vt 0.012962 0.979906
vt 0.012983 0.979855
vt 0.005455 0.993567
vt 0.006363 0.992541
vt 0.013452 0.979712
vt 0.014426 0.978720
vt 0.014498 0.978697
vt 0.005896 0.992901
vt 0.006132 0.992615
vt 0.014402 0.979323
vt 0.014161 0.978698
vt 0.014176 0.978647
vt 0.014260 0.978718
vt 0.014212 0.978587
vt 0.014274 0.978648
vt 0.006228 0.992587
vt 0.012907 0.979871
vt 0.012935 0.979846
vt 0.014253 0.978771
vt 0.014150 0.978749
vt 0.006732 0.992313
vt 0.005998 0.992705
vt 0.006456 0.992485
vt 0.006783 0.992296
vt 0.014261 0.978528
vt 0.014246 0.978825
vt 0.014146 0.978797
vt 0.013390 0.979717
vt 0.014486 0.978630
vt 0.014425 0.978655
vt 0.006506 0.992448
vt 0.006620 0.992349
vt 0.006576 0.992390
vt 0.006540 0.992422
vt 0.014304 0.978583
vt 0.014325 0.978490
vt 0.006320 0.992540
vt 0.006672 0.992304
vt 0.014240 0.978886
vt 0.014145 0.978840
vt 0.012878 0.979818
vt 0.014342 0.978540
vt 0.014388 0.978492
vt 0.014465 0.978569
vt 0.014419 0.978595
vt 0.006121 0.992525
vt 0.006019 0.992655
vt 0.006390 0.992522
vt 0.013266 0.979737
vt 0.005946 0.992745
vt 0.014145 0.978873
vt 0.014235 0.978941
vt 0.014358 0.978934
vt 0.014410 0.978553
vt 0.014430 0.978520
vt 0.006729 0.992277
vt 0.006204 0.992504
vt 0.013956 0.979548
vt 0.006308 0.992525
vt 0.013194 0.979751
vt 0.013619 0.979624
vt 0.012921 0.979804
vt 0.013146 0.979759
vt 0.012978 0.979790
vt 0.013098 0.979765
vt 0.013042 0.979774
vt 0.014350 0.978858
vt 0.005806 0.992957
vt 0.014380 0.978551
vt 0.013768 0.979596
vt 0.005737 0.993081
vt 0.012875 0.979760
vt 0.006033 0.992606
vt 0.014351 0.978793
vt 0.006115 0.992453
vt 0.014226 0.979016
vt 0.014148 0.978929
vt 0.006190 0.992437
vt 0.005856 0.992814
vt 0.012916 0.979761
vt 0.012904 0.979700
vt 0.006286 0.992463
vt 0.014357 0.978666
vt 0.013426 0.979585
vt 0.013319 0.979521
vt 0.013341 0.979509
vt 0.013482 0.979567
vt 0.012951 0.979730
vt 0.012959 0.979652
vt 0.013009 0.979699
vt 0.013017 0.979620
vt 0.014365 0.978603
vt 0.013358 0.979606
vt 0.013284 0.979536
vt 0.014352 0.978730
vt 0.013069 0.979599
vt 0.013066 0.979680
vt 0.005905 0.992715
vt 0.014196 0.979121
vt 0.013484 0.979499
vt 0.013336 0.979499
vt 0.006107 0.992383
vt 0.006179 0.992370
vt 0.013235 0.979640
vt 0.013191 0.979563
vt 0.013118 0.979585
vt 0.013115 0.979669
vt 0.006039 0.992519
vt 0.013160 0.979659
vt 0.006268 0.992408
vt 0.013322 0.979482
vt 0.013442 0.979453
vt 0.006167 0.992315
vt 0.005828 0.992780
vt 0.005923 0.992604
vt 0.006102 0.992324
vt 0.013306 0.979466
vt 0.013398 0.979412
vt 0.006253 0.992348
vt 0.006155 0.992256
vt 0.014092 0.978953
vt 0.005862 0.992685
vt 0.005797 0.992746
vt 0.006042 0.992449
vt 0.006096 0.992263
vt 0.006238 0.992294
vt 0.006143 0.992192
vt 0.013633 0.979543
vt 0.006088 0.992199
vt 0.005933 0.992580
vt 0.005775 0.992869
vt 0.013246 0.979422
vt 0.013313 0.979358
vt 0.006222 0.992237
vt 0.014053 0.979349
vt 0.006037 0.992323
vt 0.005826 0.992657
vt 0.005766 0.992716
vt 0.005758 0.992832
vt 0.005907 0.992599
vt 0.013799 0.979500
vt 0.006126 0.992127
vt 0.006201 0.992174
vt 0.006038 0.992380
vt 0.013188 0.979390
vt 0.013243 0.979324
vt 0.006035 0.992262
vt 0.006077 0.992131
vt 0.005708 0.992985
vt 0.005882 0.992585
vt 0.005734 0.992795
vt 0.005701 0.992657
vt 0.005960 0.992495
vt 0.006113 0.992076
vt 0.013128 0.979356
vt 0.013173 0.979292
vt 0.006171 0.992106
vt 0.005754 0.992600
vt 0.006032 0.992197
vt 0.014074 0.979078
vt 0.013851 0.979413
vt 0.013073 0.979328
vt 0.013118 0.979267
vt 0.005860 0.992570
vt 0.005942 0.992556
vt 0.006070 0.992076
vt 0.013680 0.979429
vt 0.013018 0.979296
vt 0.013065 0.979239
vt 0.005967 0.992437
vt 0.005694 0.992554
vt 0.012960 0.979255
vt 0.013008 0.979208
vt 0.005701 0.992912
vt 0.006130 0.992046
vt 0.013971 0.978950
vt 0.006030 0.992129
vt 0.005705 0.992762
vt 0.013560 0.979369
vt 0.012907 0.979200
vt 0.012947 0.979165
vt 0.005641 0.992605
vt 0.005967 0.992373
vt 0.005796 0.992523
vt 0.006065 0.992032
vt 0.005641 0.992513
vt 0.005968 0.992319
vt 0.013509 0.979345
vt 0.005969 0.992259
vt 0.006030 0.992081
vt 0.012875 0.979136
vt 0.012910 0.979126
vt 0.005972 0.992191
vt 0.005689 0.992876
vt 0.005591 0.992562
vt 0.005642 0.992703
vt 0.005742 0.992486
vt 0.005982 0.992117
vt 0.005589 0.992473
vt 0.013458 0.979320
vt 0.013985 0.979209
vt 0.012883 0.979069
vt 0.005670 0.992840
vt 0.005543 0.992519
vt 0.005685 0.992451
vt 0.013921 0.979303
vt 0.013543 0.979216
vt 0.013493 0.979102
vt 0.013521 0.979099
vt 0.005589 0.992650
vt 0.005540 0.992434
vt 0.013644 0.979103
vt 0.013508 0.979081
vt 0.013743 0.979318
vt 0.013362 0.979273
vt 0.006007 0.992056
vt 0.013479 0.979204
vt 0.013462 0.979099
vt 0.013491 0.979054
vt 0.013609 0.979049
vt 0.005644 0.992807
vt 0.005496 0.992478
vt 0.005628 0.992415
vt 0.005542 0.992605
vt 0.013287 0.979239
vt 0.013946 0.979059
vt 0.005483 0.992393
vt 0.013475 0.979029
vt 0.013575 0.979000
vt 0.012921 0.979082
vt 0.013385 0.979176
vt 0.013388 0.979085
vt 0.013156 0.979184
vt 0.005574 0.992382
vt 0.012975 0.979102
vt 0.013612 0.979221
vt 0.012915 0.979016
vt 0.005442 0.992432
vt 0.005495 0.992561
vt 0.013044 0.979136
vt 0.013101 0.979163
vt 0.013311 0.979147
vt 0.013321 0.979064
vt 0.013678 0.979153
vt 0.005428 0.992361
vt 0.013514 0.978912
vt 0.013429 0.978957
vt 0.005585 0.992745
vt 0.012938 0.979043
vt 0.012977 0.978991
vt 0.005449 0.992518
vt 0.005508 0.992344
vt 0.013837 0.978992
vt 0.013890 0.978907
vt 0.012988 0.979041
vt 0.013055 0.978987
vt 0.013237 0.979118
vt 0.013251 0.979044
vt 0.013058 0.979054
vt 0.013128 0.979000
vt 0.013213 0.979205
vt 0.005385 0.992383
vt 0.013180 0.979096
vt 0.013192 0.979021
vt 0.013391 0.978897
vt 0.013468 0.978852
vt 0.013812 0.979231
vt 0.013122 0.979075
vt 0.005534 0.992693
vt 0.013352 0.978837
vt 0.013426 0.978797
vt 0.005400 0.992468
vt 0.005416 0.992313
vt 0.013315 0.978776
vt 0.013385 0.978741
vt 0.013798 0.978957
vt 0.013852 0.978876
vt 0.005490 0.992648
vt 0.013283 0.978718
vt 0.013349 0.978689
vt 0.005444 0.992601
vt 0.005361 0.992421
vt 0.013253 0.978645
vt 0.013312 0.978625
vt 0.013886 0.979153
vt 0.013757 0.978914
vt 0.013812 0.978840
vt 0.005400 0.992555
vt 0.005338 0.992339
vt 0.013240 0.978546
vt 0.013282 0.978556
vt 0.005349 0.992496
vt 0.013719 0.978872
vt 0.013775 0.978804
vt 0.005313 0.992412
vt 0.013774 0.979079
vt 0.013735 0.979038
vt 0.013280 0.978467
vt 0.013651 0.978794
vt 0.013707 0.978735
vt 0.013694 0.978989
vt 0.013656 0.978941
vt 0.013598 0.978728
vt 0.013653 0.978672
vt 0.013556 0.978673
vt 0.013609 0.978619
vt 0.013589 0.978855
vt 0.013318 0.978512
vt 0.013539 0.978791
vt 0.013513 0.978620
vt 0.013562 0.978567
vt 0.013497 0.978737
vt 0.013455 0.978683
vt 0.013359 0.978440
vt 0.013365 0.978483
vt 0.013417 0.978636
vt 0.013373 0.978581
vt 0.013473 0.978573
vt 0.013515 0.978517
vt 0.013421 0.978523
vt 0.013450 0.978468
vn 0.260324 -0.763116 -0.591511
vn 0.121201 -0.767313 -0.629715
vn 0.229985 -0.967123 -0.108538
vn 0.164927 -0.500695 -0.849767
vn -0.021759 -0.262438 -0.964704
vn 0.372455 -0.912554 -0.168889
vn 0.016666 -0.104998 -0.994333
vn 0.259908 -0.495774 -0.828647
vn 0.384663 -0.724893 -0.571458
vn 0.464507 -0.862890 -0.199134
vn 0.352374 -0.883213 0.309465
vn 0.080545 -0.149594 -0.985461
vn 0.228658 -0.848959 0.476428
vn -0.185917 0.206120 -0.960703
vn -0.290592 0.206804 -0.934231
vn 0.459881 -0.845149 0.272456
vn 0.230101 -0.428608 -0.873699
vn 0.461356 -0.857035 -0.229436
vn 0.377755 -0.693742 -0.613207
vn -0.148409 0.255139 -0.955447
vn 0.265259 -0.684782 0.678757
vn 0.466126 -0.856586 0.221333
vn -0.418166 0.662458 -0.621520
vn 0.071390 -0.458800 0.885667
vn 0.022581 -0.067458 -0.997467
vn 0.349602 -0.675035 -0.649697
vn 0.454663 -0.848351 -0.271261
vn -0.455452 0.612716 -0.645866
vn 0.377666 -0.670619 0.638466
vn 0.182078 -0.388509 -0.903277
vn 0.471877 -0.862684 0.181958
vn 0.155630 -0.349398 0.923959
vn -0.341111 0.633618 -0.694386
vn -0.526986 0.800956 -0.284175
vn -0.196526 0.341858 -0.918973
vn 0.196985 -0.320098 0.926679
vn 0.377442 -0.685399 0.622708
vn 0.452904 -0.834240 -0.314518
vn 0.324680 -0.652187 -0.685007
vn -0.030123 -0.017480 -0.999393
vn -0.033793 0.000457 0.999429
vn -0.115774 -0.036047 0.992621
vn -0.480166 0.837665 -0.260305
vn 0.494770 -0.858751 0.133224
vn 0.137674 -0.356887 -0.923947
vn -0.375840 0.668073 -0.642202
vn 0.202919 -0.353647 0.913103
vn 0.394295 -0.699450 0.596072
vn -0.448483 0.875399 0.180386
vn -0.007581 0.063327 0.997964
vn 0.444158 -0.821240 -0.358175
vn -0.247428 0.375611 -0.893138
vn 0.294466 -0.637248 -0.712183
vn -0.199796 0.195373 0.960162
vn -0.443378 0.846315 -0.295240
vn -0.080029 0.010119 -0.996741
vn -0.165258 0.326272 0.930718
vn -0.458194 0.856656 0.237063
vn 0.517034 -0.852417 0.077850
vn 0.234867 -0.385946 0.892123
vn 0.094620 -0.341922 -0.934952
vn 0.439989 -0.713675 0.545048
vn -0.366383 0.588682 0.720567
vn -0.295924 0.752841 0.587929
vn -0.010210 0.045815 0.998898
vn -0.213730 0.438423 0.872986
vn 0.428055 -0.821304 -0.377133
vn -0.485546 0.855107 0.181762
vn -0.284195 0.384292 -0.878381
vn -0.412401 0.691676 -0.592882
vn 0.257409 -0.645082 -0.719451
vn -0.478483 0.851050 -0.216262
vn -0.400664 0.695659 0.596261
vn -0.120499 0.013960 -0.992615
vn 0.296202 -0.417751 0.858923
vn 0.529957 -0.847130 0.038941
vn 0.491932 -0.718290 0.491999
vn -0.213743 0.413676 0.884978
vn 0.023442 0.011436 0.999660
vn 0.041675 -0.352676 -0.934817
vn -0.468735 0.849859 0.240888
vn -0.372591 0.692092 0.618211
vn 0.403549 -0.837596 -0.368214
vn -0.486162 0.857366 -0.169028
vn 0.207676 -0.676750 -0.706315
vn -0.429896 0.687498 -0.585266
vn -0.312903 0.372278 -0.873786
vn 0.368867 -0.434577 0.821633
vn -0.181645 -0.001228 -0.983364
vn 0.529818 -0.847815 0.022428
vn 0.539540 -0.712070 0.449280
vn 0.090292 -0.026266 0.995569
vn -0.185634 0.388881 0.902392
vn -0.035186 -0.383363 -0.922927
vn -0.355539 0.677985 0.643373
vn -0.460205 0.843872 0.275847
vn -0.449619 0.677201 -0.582445
vn 0.446663 -0.427204 0.786123
vn 0.380165 -0.856566 -0.348955
vn -0.489443 0.857071 -0.160856
vn -0.370649 0.349663 -0.860439
vn 0.172239 -0.054638 0.983539
vn -0.135509 0.366990 0.920302
vn 0.163925 -0.710685 -0.684146
vn 0.572290 -0.704669 0.419435
vn -0.273801 -0.021699 -0.961541
vn -0.317942 0.665451 0.675343
vn 0.523540 -0.851834 0.016858
vn -0.442623 0.843227 0.305047
vn -0.106175 -0.410704 -0.905566
vn 0.507474 -0.418555 0.753181
vn -0.492319 0.652837 -0.575696
vn -0.460561 0.334740 -0.822091
vn 0.260947 -0.040459 0.964505
vn -0.062963 0.351092 0.934222
vn -0.494100 0.855124 -0.156935
vn 0.362178 -0.869527 -0.335784
vn 0.598964 -0.699939 0.389008
vn -0.359737 -0.027315 -0.932654
vn 0.148719 -0.732016 -0.664857
vn -0.271907 0.666734 0.693926
vn -0.428519 0.849397 0.308052
vn 0.562693 -0.395022 0.726178
vn 0.333897 -0.030521 0.942115
vn -0.566812 0.641356 -0.517095
vn 0.505710 -0.862489 -0.019246
vn 0.015280 0.362611 0.931815
vn -0.539687 0.342861 -0.768885
vn -0.130536 -0.425409 -0.895538
vn -0.515202 0.844996 -0.143349
vn -0.401615 -0.008511 -0.915769
vn 0.622047 -0.720714 0.305988
vn -0.227616 0.679465 0.697509
vn 0.337734 -0.880057 -0.333821
vn -0.417699 0.850577 0.319448
vn 0.400719 -0.010630 0.916139
vn 0.076552 0.376272 0.923341
vn 0.142822 -0.735143 -0.662696
vn 0.621823 -0.376568 0.686682
vn -0.617430 0.644497 -0.451003
vn -0.552564 0.828323 -0.092485
vn -0.577641 0.388704 -0.717802
vn 0.447608 -0.885712 -0.123128
vn -0.152085 -0.388038 -0.909009
vn -0.194455 0.685881 0.701252
vn -0.417416 0.842983 0.339329
vn 0.140590 0.390305 0.909888
vn 0.469559 0.014349 0.882784
vn 0.626342 -0.768927 0.128243
vn 0.350576 -0.889311 -0.293637
vn -0.409403 0.034403 -0.911705
vn -0.630516 0.671688 -0.388954
vn 0.732507 -0.335420 0.592390
vn -0.567326 0.822471 -0.041024
vn 0.128576 -0.732745 -0.668246
vn 0.390025 -0.902963 -0.180385
vn -0.153153 0.696038 0.701481
vn -0.571299 0.448550 -0.687328
vn -0.158829 -0.365954 -0.916979
vn 0.400698 -0.887170 -0.228847
vn -0.404546 0.840367 0.360730
vn 0.205848 0.417278 0.885159
vn 0.379240 -0.882692 -0.277547
vn 0.587961 0.092470 0.803587
vn 0.157867 -0.770742 -0.617280
vn 0.464116 -0.872595 -0.152232
vn -0.560579 0.828093 -0.003625
vn -0.411125 0.095122 -0.906603
vn 0.640805 -0.767196 0.027929
vn -0.614838 0.719723 -0.322448
vn -0.118247 0.720680 0.683109
vn 0.418878 -0.885662 -0.200358
vn -0.148871 -0.437191 -0.886962
vn 0.367472 -0.898246 -0.241077
vn 0.366873 -0.891880 -0.264488
vn 0.319286 -0.943008 -0.093769
vn -0.388544 0.847716 0.361126
vn 0.141889 -0.785446 -0.602447
vn -0.588136 0.535470 -0.606109
vn 0.880540 -0.318051 0.351416
vn 0.286532 0.472917 0.833216
vn 0.308686 -0.945854 0.100367
vn -0.168956 -0.493008 -0.853462
vn -0.440162 0.045272 -0.896776
vn 0.409286 -0.907804 -0.091521
vn 0.142805 -0.784748 -0.603139
vn 0.689672 0.198098 0.696498
vn 0.166202 -0.805914 -0.568225
vn 0.359916 -0.924723 0.123886
vn 0.363325 -0.902731 -0.230374
vn 0.964711 -0.182986 0.189340
vn 0.466152 -0.853186 -0.234042
vn -0.552286 0.833062 0.031417
vn 0.145359 -0.975445 0.165463
vn -0.191354 -0.495829 -0.847076
vn 0.946646 -0.085368 0.310764
vn -0.276890 -0.895054 -0.349586
vn 0.506083 -0.841492 -0.189135
vn -0.630067 0.586283 -0.509203
vn -0.130967 0.768782 0.625957
vn 0.138640 -0.801200 -0.582114
vn 0.772624 0.227444 0.592724
vn -0.272674 -0.879454 -0.390139
vn -0.473471 0.009828 -0.880755
vn 0.327062 -0.940903 0.087930
vn 0.266761 -0.941566 0.205649
vn 0.960204 -0.039534 0.276488
vn 0.558086 -0.807263 -0.192005
vn -0.289074 -0.913329 -0.286820
vn 0.303954 -0.952685 0.001741
vn 0.804392 0.292050 0.517359
vn -0.182271 -0.497025 -0.848377
vn -0.627275 0.745009 -0.226909
vn 0.498423 0.411905 0.762830
vn -0.276833 -0.880875 -0.383956
vn -0.400964 0.851125 0.338843
vn 0.165070 -0.817443 -0.551851
vn 0.625809 -0.756230 -0.190997
vn -0.208672 -0.879987 -0.426708
vn 0.966845 -0.027027 0.253928
vn -0.510128 -0.025981 -0.859706
vn 0.397573 -0.905739 0.146876
vn 0.467418 -0.879849 0.085945
vn 0.825996 0.368829 0.426257
vn -0.637045 0.379355 -0.671017
vn 0.226231 -0.798636 -0.557673
vn 0.676917 -0.722760 -0.139288
vn -0.187154 -0.511782 -0.838483
vn -0.125153 -0.914975 -0.383612
vn 0.202828 -0.955019 0.216334
vn 0.038528 -0.900600 0.432938
vn 0.574252 -0.812692 0.098827
vn -0.780340 -0.562166 -0.273933
vn 0.972695 -0.022532 0.230993
vn 0.544621 0.526680 0.652683
vn -0.830895 -0.536003 -0.149378
vn 0.823588 0.392407 0.409536
vn -0.066312 -0.950286 -0.304236
vn -0.185132 -0.497914 -0.847235
vn 0.327974 -0.774031 -0.541581
vn 0.718432 -0.685934 -0.115540
vn -0.717684 -0.588224 -0.372723
vn -0.001969 -0.999830 -0.018359
vn -0.587110 0.005325 -0.809490
vn 0.381610 -0.451509 0.806544
vn -0.814916 -0.550476 0.181353
vn -0.628819 0.005124 -0.777535
vn -0.692604 -0.616180 -0.374995
vn 0.650567 -0.755399 0.078322
vn 0.983762 -0.008622 0.179273
vn 0.573127 0.558519 0.599651
vn -0.036314 -0.963588 -0.264916
vn -0.766128 0.430025 -0.477626
vn -0.118638 -0.510331 -0.851755
vn 0.445453 -0.720162 -0.531920
vn 0.812813 0.418714 0.404986
vn 0.755458 -0.654588 -0.028251
vn -0.553798 0.830353 0.061816
vn 0.413898 -0.885695 0.210315
vn -0.629939 -0.750765 -0.198821
vn 0.148300 0.647188 0.747767
vn -0.698550 0.037384 -0.714584
vn 0.735051 -0.677329 0.030422
vn 0.522866 -0.661006 -0.538221
vn -0.085064 -0.510982 -0.855372
vn 0.660856 -0.359136 0.659008
vn 0.552377 -0.340574 0.760847
vn -0.658241 -0.675333 -0.332631
vn -0.097484 -0.515718 -0.851195
vn 0.523036 -0.654016 -0.546532
vn 0.309730 -0.629556 0.712549
vn -0.062114 -0.985510 0.157835
vn 0.823767 -0.566593 -0.019504
vn 0.972467 -0.021014 0.232090
vn 0.369139 -0.927861 0.053005
vn 0.826287 -0.563054 -0.014843
vn 0.488328 -0.687894 -0.536972
vn -0.622302 -0.781062 -0.051798
vn -0.138791 -0.509243 -0.849358
vn 0.800313 0.463160 0.380764
vn 0.531590 0.615129 0.582262
vn 0.541738 -0.717064 0.438565
vn -0.611363 0.769098 -0.186341
vn 0.798889 -0.601401 0.009634
vn 0.395630 -0.781067 -0.483127
vn -0.209010 -0.512565 -0.832821
vn -0.727271 0.048575 -0.684630
vn 0.731162 -0.361828 0.578345
vn 0.714755 -0.696047 0.068145
vn -0.631019 0.731703 -0.257730
vn -0.392221 0.858051 0.331528
vn -0.307890 -0.588932 -0.747237
vn -0.842755 0.467720 -0.266461
vn 0.818267 -0.261363 0.511985
vn 0.131694 -0.952653 -0.274060
vn 0.802283 -0.302544 0.514596
vn -0.761942 -0.004980 -0.647626
vn 0.798615 -0.313223 0.513912
vn 0.783590 -0.349877 0.513394
vn -0.798789 -0.060901 -0.598521
vn 0.392150 -0.916865 0.074674
vn 0.469402 0.650580 0.596999
vn 0.110847 -0.088863 0.989857
vn -0.537177 -0.061176 0.841248
vn -0.074208 -0.819099 -0.568832
vn 0.088145 -0.531017 0.842764
vn -0.826806 -0.034730 -0.561414
vn 0.739710 -0.418432 0.527014
vn 0.269638 -0.938595 0.215256
vn -0.582372 -0.554719 -0.594246
vn -0.446900 -0.790587 0.418632
vn -0.489112 -0.811065 -0.320846
vn -0.858392 -0.039437 -0.511477
vn 0.685119 0.062055 0.725784
vn 0.037935 0.684227 0.728282
vn -0.875253 -0.086515 -0.475865
vn 0.791017 0.430601 0.434598
vn 0.138024 0.250404 0.958252
vn -0.822682 0.550240 -0.142930
vn 0.391277 0.684257 0.615382
vn 0.428864 -0.858150 0.282232
vn 0.441661 -0.895767 0.050369
vn -0.229662 0.807622 0.543141
vn -0.988783 -0.073121 0.130239
vn -0.961991 -0.192842 0.193351
vn 0.031287 -0.797516 -0.602486
vn -0.921721 -0.288179 -0.259584
vn -0.984632 0.055376 0.165633
vn 0.421680 -0.644047 0.638271
vn 0.217266 -0.776272 0.591775
vn 0.273630 0.190601 0.942761
vn -0.509865 -0.768549 0.386485
vn -0.965297 0.109473 0.237103
vn -0.837664 0.542617 -0.062336
vn 0.326299 0.739243 0.589109
vn 0.336135 0.139910 0.931364
vn 0.457612 0.015931 0.889009
vn 0.440785 0.069573 0.894912
vn 0.407699 0.107084 0.906816
vn -0.921518 -0.279670 0.269423
vn -0.336272 -0.381619 -0.860981
vn 0.404013 -0.038039 0.913962
vn -0.894137 0.235522 0.380852
vn -0.668273 -0.453643 0.589592
vn 0.271831 0.737511 0.618212
vn 0.551164 -0.834004 0.025613
vn 0.392099 -0.509872 0.765695
vn 0.179143 0.278774 0.943500
vn -0.843358 0.537285 -0.008469
vn 0.191667 -0.972376 0.133228
vn -0.738600 0.327143 0.589446
vn -0.123819 0.744890 0.655597
vn 0.307713 0.370765 0.876268
vn -0.089611 -0.410224 0.907571
vn 0.161460 -0.749669 -0.641816
vn -0.551967 0.833840 0.006554
vn -0.303925 -0.351513 -0.885476
vn -0.870649 0.491512 0.019660
vn -0.805073 0.592930 -0.017059
vn -0.943609 -0.129701 0.304599
vn -0.918162 0.391700 0.059583
vn -0.935706 0.313964 0.160876
vn -0.925376 0.360076 0.118427
vn -0.924280 0.343610 0.166249
vn -0.277402 0.715993 0.640626
vn 0.437821 -0.449023 0.778904
vn -0.308691 0.021407 0.950921
vn -0.632683 0.767015 -0.106772
vn 0.330361 0.066223 0.941529
vn 0.497110 -0.486733 0.718313
vn -0.362249 0.705408 0.609241
vn 0.632431 -0.774538 -0.011052
vn -0.339703 0.498460 0.797584
vn 0.246072 -0.736698 -0.629861
vn 0.542287 -0.822196 0.172969
vn -0.578598 0.063404 0.813145
vn -0.274203 -0.348284 -0.896388
vn -0.551012 0.592552 0.587595
vn -0.493326 0.636490 0.592883
vn -0.868378 0.427487 0.251345
vn -0.395598 0.385915 0.833410
vn -0.357991 0.415211 0.836327
vn -0.601955 0.484396 0.634831
vn -0.486823 0.641253 0.593126
vn -0.455767 0.667651 0.588658
vn -0.367152 0.461191 0.807776
vn 0.037745 -0.778813 -0.626120
vn -0.125610 0.749042 0.650506
vn -0.956292 0.290412 -0.034148
vn 0.695905 -0.717098 -0.038567
vn 0.299990 -0.712929 -0.633828
vn -0.447264 0.620179 0.644464
vn -0.410390 0.501501 0.761628
vn 0.592254 -0.439700 0.675203
vn -0.427755 0.571242 0.700505
vn -0.262980 -0.374565 -0.889125
vn -0.848323 0.117530 -0.516270
vn 0.353970 -0.674668 -0.647710
vn 0.615267 -0.786010 0.060288
vn -0.536225 -0.092876 0.838950
vn 0.755664 -0.647826 -0.096403
vn -0.794972 0.188894 -0.576488
vn -0.248673 -0.380016 -0.890926
vn 0.362542 -0.667519 -0.650371
vn 0.079918 -0.740361 -0.667442
vn 0.610227 -0.791414 0.035875
vn 0.661875 -0.420988 0.620235
vn 0.745665 -0.658713 -0.100408
vn -0.230993 -0.402602 -0.885751
vn 0.328362 -0.710018 -0.622939
vn -0.817259 0.569447 0.088423
vn 0.696245 -0.714552 -0.068243
vn 0.207171 0.141700 0.967988
vn 0.593536 -0.458646 0.661331
vn -0.779481 0.231673 -0.582011
vn -0.241312 -0.412146 -0.878581
vn -0.346172 0.884893 0.311657
vn 0.778225 -0.336493 0.530224
vn 0.119285 -0.724091 -0.679310
vn 0.612998 -0.789978 0.012986
vn 0.666470 -0.430654 0.608568
vn -0.460056 -0.179989 -0.869455
vn -0.630724 0.773942 0.056571
vn 0.302729 -0.781498 -0.545543
vn -0.288856 -0.448680 -0.845723
vn 0.716941 -0.380398 0.584203
vn -0.800755 0.216593 -0.558462
vn 0.777848 -0.367684 0.509667
vn 0.598317 -0.801252 0.003568
vn 0.380474 0.068484 0.922252
vn -0.436606 -0.167274 -0.883965
vn 0.673327 -0.437157 0.596258
vn 0.641923 -0.766694 -0.010775
vn 0.286436 0.126865 0.949663
vn 0.045471 -0.939553 -0.339370
vn -0.804201 0.221577 -0.551510
vn -0.344956 -0.480488 -0.806310
vn 0.166528 -0.702834 -0.691588
vn 0.742030 -0.442562 0.503517
vn 0.150398 0.504435 0.850250
vn -0.578158 0.804076 0.138545
vn -0.810874 0.164961 -0.561490
vn -0.440454 -0.165409 -0.882406
vn 0.262046 0.143261 0.954363
vn 0.216289 -0.965534 0.144788
vn -0.747276 0.653962 0.117954
vn -0.827703 0.119262 -0.548346
vn 0.330012 0.116325 0.936782
vn 0.223790 -0.699761 -0.678419
vn -0.862307 0.034153 -0.505233
vn 0.422331 0.040618 0.905531
vn -0.626117 -0.667596 -0.402855
vn 0.678457 -0.534299 0.504203
vn 0.681390 -0.447587 0.579114
vn -0.780296 0.615680 0.109896
vn -0.904036 0.017419 -0.427101
vn 0.682469 -0.728518 -0.059151
vn 0.360956 0.110448 0.926020
vn -0.418007 -0.196112 -0.887024
vn -0.545824 -0.761847 0.348806
vn 0.255170 -0.692997 -0.674273
vn 0.405089 0.096106 0.909212
vn -0.760070 0.641410 0.104335
vn 0.414596 0.065417 0.907651
vn 0.370580 -0.742831 0.557559
vn -0.966192 -0.128753 -0.223374
vn 0.401180 0.001609 0.915998
vn 0.437882 0.049977 0.897642
vn 0.689934 -0.716966 -0.099755
vn 0.712510 -0.446572 0.541205
vn -0.412764 -0.228014 -0.881836
vn 0.337500 -0.059370 0.939451
vn 0.290630 -0.694757 -0.657911
vn -0.752817 0.649790 0.105076
vn -0.186664 0.868535 0.459132
vn 0.439119 0.045819 0.897260
vn 0.685619 -0.715966 -0.131598
vn -0.386263 -0.256816 -0.885916
vn -0.550607 0.806739 0.214487
vn -0.353466 0.564843 0.745664
vn 0.763517 -0.434627 0.477642
vn 0.324471 -0.685146 -0.652145
vn -0.828180 0.366446 -0.424070
vn -0.683436 0.688611 0.242344
vn -0.762865 0.632020 0.136334
vn -0.129865 -0.412004 0.901880
vn -0.348237 0.585081 0.732401
vn -0.804860 0.362943 -0.469545
vn 0.433073 0.047204 0.900122
vn 0.689229 -0.706311 -0.161519
vn -0.361442 -0.280503 -0.889201
vn 0.780550 -0.446802 0.437161
vn -0.778526 0.612090 0.138722
vn 0.085729 0.553617 0.828347
vn 0.295594 -0.711553 -0.637429
vn -0.795161 0.374614 -0.476847
vn -0.933554 -0.049060 0.355064
vn -0.320429 0.574782 0.752962
vn -0.805725 0.577378 0.132068
vn -0.363719 -0.306663 -0.879583
vn -0.900527 0.335919 0.276060
vn -0.708388 0.490425 0.507613
vn 0.653755 -0.743930 -0.138461
vn 0.789236 -0.467531 0.398147
vn -0.893560 0.384640 0.231522
vn -0.848020 0.505341 0.159663
vn -0.312032 0.572099 0.758511
vn -0.833227 0.488381 0.259263
vn 0.125785 -0.847095 -0.516342
vn -0.799768 0.364153 -0.477246
vn 0.436767 0.062918 0.897372
vn -0.581604 0.088363 0.808659
vn 0.787594 -0.495837 0.365842
vn -0.397500 -0.354706 -0.846272
vn -0.015499 0.495368 0.868545
vn -0.409591 0.333175 0.849252
vn -0.305550 0.572781 0.760632
vn -0.367571 0.401854 0.838693
vn -0.783449 0.605598 0.139493
vn 0.285440 -0.958396 -0.000059
vn -0.315961 0.550902 0.772448
vn -0.829892 0.315803 -0.459944
vn -0.665990 0.693928 0.273719
vn -0.338743 0.483281 0.807275
vn 0.460331 0.055932 0.885984
vn -0.839890 0.282895 -0.463202
vn 0.749764 -0.549420 0.368770
vn -0.468500 -0.687049 -0.555402
vn -0.840957 0.272245 -0.467626
vn -0.034369 0.479655 0.876784
vn 0.479135 0.040964 0.876785
vn -0.849565 0.246991 -0.466084
vn 0.489873 0.029762 0.871286
vn 0.509718 -0.715598 0.477606
vn -0.864972 0.216505 -0.452713
vn -0.437883 0.780651 0.445918
vn -0.049232 0.484999 0.873128
vn 0.485925 -0.017601 0.873823
vn -0.422118 -0.870460 0.253210
vn -0.943526 -0.025470 -0.330317
vn 0.415169 -0.081230 0.906111
vn -0.067894 0.494761 0.866373
vn 0.081624 -0.511690 0.855284
vn -0.578236 0.742336 0.338498
vn -0.625051 0.706267 0.332413
vn -0.100190 0.507916 0.855560
vn -0.642994 0.700908 0.308687
vn -0.655858 0.698718 0.285732
vn -0.134299 0.494725 0.858610
vn -0.161992 0.492335 0.855199
vn -0.686162 0.673588 0.274700
vn -0.936283 0.083612 0.341150
vn -0.743498 0.612320 0.268840
vn -0.192998 0.490715 0.849677
vn -0.769835 0.585509 0.254035
vn -0.787422 0.566953 0.241930
vn -0.466475 0.120677 0.876264
vn -0.812810 0.525696 0.250966
vn -0.827856 0.487545 0.277406
vn -0.245674 0.462078 0.852132
vn -0.338129 0.424265 0.840041
s 1
g R_arm Jake
usemtl lambert2SG
f 4/1/1 1/2/2 2/3/3
f 5/4/4 3/5/5 1/2/2
f 1/2/2 4/1/1 5/4/4
f 2/3/3 7/6/6 4/1/1
f 5/4/4 8/7/7 3/5/5
f 4/8/1 10/9/8 5/10/4
f 4/8/1 11/11/9 10/9/8
f 4/8/1 7/12/6 12/13/10
f 12/13/10 11/11/9 4/8/1
f 13/14/11 7/15/6 2/3/3
f 14/16/12 8/17/7 5/10/4
f 13/14/11 2/3/3 6/18/13
f 5/10/4 10/9/8 14/16/12
f 3/5/5 8/7/7 15/19/14
f 15/19/14 9/20/15 3/5/5
f 16/21/16 12/22/10 7/23/6
f 17/24/17 10/9/8 11/11/9
f 11/11/9 12/13/10 18/25/18
f 7/23/6 13/26/11 16/21/16
f 18/25/18 19/27/19 11/11/9
f 14/16/12 10/9/8 17/24/17
f 11/11/9 19/27/19 17/24/17
f 8/17/7 14/16/12 20/28/20
f 22/29/21 13/14/11 6/18/13
f 15/30/14 8/17/7 20/28/20
f 23/31/22 12/22/10 16/21/16
f 16/21/16 13/26/11 22/32/21
f 23/31/22 18/33/18 12/22/10
f 9/20/15 15/19/14 25/34/23
f 22/29/21 6/18/13 21/35/24
f 17/24/17 26/36/25 14/16/12
f 17/24/17 19/27/19 27/37/26
f 19/27/19 18/25/18 28/38/27
f 25/34/23 24/39/28 9/20/15
f 20/28/20 14/16/12 26/36/25
f 22/32/21 29/40/29 16/21/16
f 23/31/22 16/21/16 29/40/29
f 28/38/27 27/37/26 19/27/19
f 27/37/26 30/41/30 17/24/17
f 30/41/30 26/36/25 17/24/17
f 31/42/31 18/33/18 23/31/22
f 32/43/32 22/29/21 21/35/24
f 15/30/14 20/28/20 33/44/33
f 31/42/31 28/45/27 18/33/18
f 25/46/23 15/30/14 33/44/33
f 35/47/34 24/39/28 25/34/23
f 26/36/25 36/48/35 20/28/20
f 37/49/36 29/40/29 22/32/21
f 29/40/29 38/50/37 23/31/22
f 27/37/26 28/38/27 39/51/38
f 40/52/39 30/41/30 27/37/26
f 26/36/25 30/41/30 41/53/40
f 22/32/21 32/54/32 37/49/36
f 31/42/31 23/31/22 38/50/37
f 42/55/41 32/43/32 21/35/24
f 36/48/35 26/36/25 41/53/40
f 34/56/42 42/55/41 21/35/24
f 39/51/38 40/52/39 27/37/26
f 35/47/34 25/34/23 43/57/43
f 28/45/27 31/42/31 44/58/44
f 43/59/43 25/46/23 33/44/33
f 30/41/30 40/52/39 45/60/45
f 41/53/40 30/41/30 45/60/45
f 44/58/44 39/61/38 28/45/27
f 20/28/20 36/48/35 46/62/46
f 46/62/46 33/44/33 20/28/20
f 47/63/47 38/50/37 29/40/29
f 29/40/29 37/49/36 47/63/47
f 38/50/37 48/64/48 31/42/31
f 50/65/49 35/47/34 43/57/43
f 51/66/50 37/49/36 32/54/32
f 52/67/51 40/52/39 39/51/38
f 41/53/40 53/68/52 36/48/35
f 32/54/32 42/69/41 51/66/50
f 44/58/44 31/42/31 48/64/48
f 45/60/45 40/52/39 54/70/53
f 55/71/54 42/55/41 34/56/42
f 33/44/33 56/72/55 43/59/43
f 45/60/45 57/73/56 41/53/40
f 49/74/57 55/71/54 34/56/42
f 40/52/39 52/67/51 54/70/53
f 50/65/49 43/57/43 58/75/58
f 53/68/52 41/53/40 57/73/56
f 46/62/46 36/48/35 53/68/52
f 56/72/55 33/44/33 46/62/46
f 39/61/38 44/58/44 59/76/59
f 61/77/60 48/64/48 38/50/37
f 58/78/58 43/59/43 56/72/55
f 59/76/59 52/79/51 39/61/38
f 54/70/53 62/80/61 45/60/45
f 38/50/37 47/63/47 61/77/60
f 57/73/56 45/60/45 62/80/61
f 48/64/48 63/81/62 44/58/44
f 64/82/63 60/83/64 50/65/49
f 64/82/63 49/74/57 60/83/64
f 50/65/49 58/75/58 64/82/63
f 55/71/54 49/74/57 64/82/63
f 65/84/65 47/63/47 37/49/36
f 37/49/36 51/66/50 65/84/65
f 42/69/41 55/85/54 66/86/66
f 66/86/66 51/66/50 42/69/41
f 44/58/44 63/81/62 59/76/59
f 54/70/53 52/67/51 67/87/67
f 56/72/55 68/88/68 58/78/58
f 57/73/56 69/89/69 53/68/52
f 53/68/52 70/90/70 46/62/46
f 62/80/61 54/70/53 71/91/71
f 46/62/46 72/92/72 56/72/55
f 55/85/54 64/93/63 73/94/73
f 73/94/73 64/93/63 58/78/58
f 62/80/61 74/95/74 57/73/56
f 67/87/67 71/91/71 54/70/53
f 75/96/75 63/81/62 48/64/48
f 76/97/76 52/79/51 59/76/59
f 73/94/73 66/86/66 55/85/54
f 58/78/58 68/88/68 73/94/73
f 68/88/68 56/72/55 72/92/72
f 48/64/48 61/77/60 75/96/75
f 70/90/70 53/68/52 69/89/69
f 69/89/69 57/73/56 74/95/74
f 70/90/70 72/92/72 46/62/46
f 76/97/76 67/98/67 52/79/51
f 77/99/77 59/76/59 63/81/62
f 51/66/50 66/86/66 78/100/78
f 79/101/79 61/77/60 47/63/47
f 71/91/71 80/102/80 62/80/61
f 78/100/78 65/84/65 51/66/50
f 47/63/47 65/84/65 79/101/79
f 74/95/74 62/80/61 80/102/80
f 76/97/76 59/76/59 77/99/77
f 72/92/72 81/103/81 68/88/68
f 66/86/66 73/94/73 82/104/82
f 82/104/82 73/94/73 68/88/68
f 83/105/83 71/91/71 67/87/67
f 72/92/72 70/90/70 84/106/84
f 80/102/80 71/91/71 85/107/85
f 69/89/69 86/108/86 70/90/70
f 74/95/74 87/109/87 69/89/69
f 63/81/62 88/110/88 77/99/77
f 82/104/82 78/100/78 66/86/66
f 68/88/68 81/103/81 82/104/82
f 88/110/88 63/81/62 75/96/75
f 80/102/80 89/111/89 74/95/74
f 90/112/90 67/98/67 76/97/76
f 81/103/81 72/92/72 84/106/84
f 71/91/71 83/105/83 85/107/85
f 77/99/77 91/113/91 76/97/76
f 92/114/92 75/96/75 61/77/60
f 65/84/65 78/100/78 93/115/93
f 61/77/60 79/101/79 92/114/92
f 93/115/93 79/101/79 65/84/65
f 84/106/84 70/90/70 86/108/86
f 67/98/67 90/112/90 83/116/83
f 87/109/87 74/95/74 89/111/89
f 85/107/85 94/117/94 80/102/80
f 90/112/90 76/97/76 91/113/91
f 94/117/94 89/111/89 80/102/80
f 78/100/78 82/104/82 95/118/95
f 84/106/84 96/119/96 81/103/81
f 86/108/86 69/89/69 97/120/97
f 69/89/69 87/109/87 97/120/97
f 95/118/95 82/104/82 81/103/81
f 98/121/98 91/113/91 77/99/77
f 95/118/95 93/115/93 78/100/78
f 77/99/77 88/110/88 98/121/98
f 81/103/81 96/119/96 95/118/95
f 85/107/85 83/105/83 99/122/99
f 86/108/86 100/123/100 84/106/84
f 89/111/89 101/124/101 87/109/87
f 102/125/102 88/110/88 75/96/75
f 99/126/99 83/116/83 90/112/90
f 79/101/79 93/115/93 103/127/103
f 94/117/94 85/107/85 104/128/104
f 96/119/96 84/106/84 100/123/100
f 75/96/75 92/114/92 102/125/102
f 91/113/91 105/129/105 90/112/90
f 103/127/103 92/114/92 79/101/79
f 89/111/89 94/117/94 106/130/106
f 100/123/100 86/108/86 97/120/97
f 99/122/99 104/128/104 85/107/85
f 93/115/93 95/118/95 107/131/107
f 107/131/107 95/118/95 96/119/96
f 90/112/90 105/129/105 108/132/108
f 90/112/90 108/132/108 99/126/99
f 96/119/96 100/123/100 109/133/109
f 104/128/104 110/134/110 94/117/94
f 106/130/106 94/117/94 110/134/110
f 107/131/107 103/127/103 93/115/93
f 111/135/111 105/129/105 91/113/91
f 87/109/87 101/124/101 112/136/112
f 112/136/112 97/120/97 87/109/87
f 91/113/91 98/121/98 111/135/111
f 113/137/113 101/124/101 89/111/89
f 89/111/89 106/130/106 113/137/113
f 96/119/96 109/133/109 107/131/107
f 114/138/114 98/121/98 88/110/88
f 92/114/92 103/127/103 115/139/115
f 88/110/88 102/125/102 114/138/114
f 100/123/100 97/120/97 116/140/116
f 115/139/115 102/125/102 92/114/92
f 109/133/109 100/123/100 116/140/116
f 104/128/104 99/122/99 117/141/117
f 118/142/118 108/132/108 105/129/105
f 115/139/115 103/127/103 107/131/107
f 99/126/99 108/132/108 117/143/117
f 110/134/110 119/144/119 106/130/106
f 120/145/120 110/134/110 104/128/104
f 116/140/116 97/120/97 112/136/112
f 107/131/107 109/133/109 121/146/121
f 116/140/116 122/147/122 109/133/109
f 117/141/117 120/145/120 104/128/104
f 123/148/123 105/129/105 111/135/111
f 105/129/105 123/148/123 118/142/118
f 124/149/124 111/135/111 98/121/98
f 107/131/107 121/146/121 115/139/115
f 125/150/125 112/136/112 101/124/101
f 126/151/126 108/132/108 118/142/118
f 101/124/101 113/137/113 125/150/125
f 98/121/98 114/138/114 124/149/124
f 122/147/122 121/146/121 109/133/109
f 127/152/127 102/125/102 115/139/115
f 102/125/102 127/152/127 114/138/114
f 113/137/113 106/130/106 128/153/128
f 108/132/108 126/151/126 117/143/117
f 106/130/106 119/144/119 128/153/128
f 110/134/110 120/145/120 129/154/129
f 112/136/112 130/155/130 116/140/116
f 122/147/122 116/140/116 130/155/130
f 119/144/119 110/134/110 131/156/131
f 127/152/127 115/139/115 121/146/121
f 110/134/110 129/154/129 131/156/131
f 130/155/130 112/136/112 125/150/125
f 118/142/118 132/157/132 126/151/126
f 133/158/133 121/146/121 122/147/122
f 120/145/120 117/141/117 134/159/134
f 122/147/122 130/155/130 135/160/135
f 133/158/133 127/152/127 121/146/121
f 111/135/111 136/161/136 123/148/123
f 114/138/114 127/152/127 137/162/137
f 134/163/134 117/143/117 126/151/126
f 136/161/136 111/135/111 124/149/124
f 137/162/137 124/149/124 114/138/114
f 138/164/138 129/154/129 120/145/120
f 122/147/122 135/160/135 133/158/133
f 118/142/118 123/148/123 139/165/139
f 140/166/140 125/150/125 113/137/113
f 113/137/113 128/153/128 140/166/140
f 139/165/139 132/157/132 118/142/118
f 130/155/130 125/150/125 141/167/141
f 142/168/142 128/153/128 119/144/119
f 134/159/134 138/164/138 120/145/120
f 135/160/135 130/155/130 141/167/141
f 137/162/137 127/152/127 133/158/133
f 126/151/126 132/157/132 143/169/143
f 119/144/119 131/156/131 142/168/142
f 131/156/131 129/154/129 144/170/144
f 126/151/126 143/169/143 134/163/134
f 129/154/129 138/164/138 144/170/144
f 145/171/145 133/158/133 135/160/135
f 141/167/141 125/150/125 140/166/140
f 133/158/133 145/171/145 137/162/137
f 141/167/141 146/172/146 135/160/135
f 124/149/124 137/162/137 147/173/147
f 147/173/147 136/161/136 124/149/124
f 123/148/123 136/161/136 148/174/148
f 135/160/135 146/172/146 145/171/145
f 148/174/148 139/165/139 123/148/123
f 132/157/132 149/175/149 143/169/143
f 138/176/138 134/177/134 150/178/150
f 144/170/144 151/179/151 131/156/131
f 152/180/152 140/166/140 128/153/128
f 147/173/147 137/162/137 145/171/145
f 132/157/132 139/165/139 153/181/153
f 141/167/141 140/166/140 154/182/154
f 144/183/144 138/176/138 155/184/155
f 146/172/146 141/167/141 154/182/154
f 128/153/128 142/168/142 152/180/152
f 134/177/134 143/185/143 156/186/156
f 153/181/153 149/175/149 132/157/132
f 150/178/150 155/184/155 138/176/138
f 157/187/157 145/171/145 146/172/146
f 142/168/142 131/156/131 158/188/158
f 156/186/156 150/178/150 134/177/134
f 145/171/145 157/187/157 147/173/147
f 155/184/155 159/189/159 144/183/144
f 160/190/160 143/185/143 149/191/149
f 154/182/154 140/166/140 152/180/152
f 131/156/131 151/179/151 158/188/158
f 159/192/159 151/193/151 144/194/144
f 154/182/154 161/195/161 146/172/146
f 136/161/136 147/173/147 162/196/162
f 146/172/146 161/195/161 157/187/157
f 162/196/162 148/174/148 136/161/136
f 160/190/160 156/186/156 143/185/143
f 155/184/155 150/178/150 163/197/163
f 139/165/139 148/174/148 164/198/164
f 159/189/159 155/184/155 165/199/165
f 162/196/162 147/173/147 157/187/157
f 156/186/156 163/197/163 150/178/150
f 149/191/149 166/200/166 160/190/160
f 164/198/164 153/181/153 139/165/139
f 163/197/163 165/199/165 155/184/155
f 167/201/167 161/195/161 154/182/154
f 151/193/151 159/192/159 168/202/168
f 169/203/169 149/191/149 153/204/153
f 152/180/152 167/201/167 154/182/154
f 169/203/169 166/200/166 149/191/149
f 170/205/170 152/180/152 142/168/142
f 157/187/157 161/195/161 171/206/171
f 156/186/156 172/207/172 163/197/163
f 159/189/159 165/199/165 173/208/173
f 156/186/156 160/190/160 174/209/174
f 142/168/142 158/188/158 170/205/170
f 168/202/168 159/192/159 173/210/173
f 157/187/157 171/206/171 162/196/162
f 174/209/174 172/207/172 156/186/156
f 165/199/165 163/197/163 175/211/175
f 160/190/160 166/200/166 176/212/176
f 161/195/161 167/201/167 177/213/177
f 173/208/173 165/199/165 178/214/178
f 179/215/179 158/216/158 151/193/151
f 175/211/175 163/197/163 172/207/172
f 151/193/151 168/202/168 179/215/179
f 175/211/175 178/214/178 165/199/165
f 161/195/161 177/213/177 171/206/171
f 174/209/174 160/190/160 176/212/176
f 153/204/153 180/217/180 169/203/169
f 148/174/148 162/196/162 181/218/181
f 167/201/167 152/180/152 170/205/170
f 166/200/166 169/203/169 182/219/182
f 173/208/173 178/214/178 183/220/183
f 181/218/181 164/198/164 148/174/148
f 173/210/173 184/221/184 168/202/168
f 172/207/172 185/222/185 175/211/175
f 185/222/185 172/207/172 174/209/174
f 166/200/166 182/219/182 176/212/176
f 186/223/186 178/214/178 175/211/175
f 153/204/153 164/224/164 187/225/187
f 169/203/169 180/217/180 188/226/188
f 153/204/153 187/225/187 180/217/180
f 183/220/183 178/214/178 186/223/186
f 184/221/184 173/210/173 183/227/183
f 181/218/181 162/196/162 171/206/171
f 176/212/176 189/228/189 174/209/174
f 185/222/185 190/229/190 175/211/175
f 175/211/175 190/229/190 186/223/186
f 191/230/191 192/231/192 188/226/188
f 188/226/188 180/217/180 191/230/191
f 170/232/170 158/216/158 179/215/179
f 174/209/174 189/228/189 185/222/185
f 177/213/177 167/201/167 193/233/193
f 194/234/194 169/203/169 188/226/188
f 186/223/186 195/235/195 183/220/183
f 192/231/192 191/230/191 196/236/196
f 188/226/188 192/231/192 197/237/197
f 170/205/170 193/233/193 167/201/167
f 196/236/196 198/238/198 192/231/192
f 169/203/169 194/234/194 182/219/182
f 168/202/168 184/221/184 199/239/199
f 200/240/200 171/206/171 177/213/177
f 190/229/190 201/241/201 186/223/186
f 191/230/191 180/217/180 202/242/202
f 192/231/192 198/238/198 203/243/203
f 183/227/183 204/244/204 184/221/184
f 185/222/185 205/245/205 190/229/190
f 199/239/199 179/215/179 168/202/168
f 195/235/195 186/223/186 201/241/201
f 176/212/176 182/219/182 206/246/206
f 204/244/204 183/227/183 195/247/195
f 205/245/205 185/222/185 189/228/189
f 189/228/189 176/212/176 206/246/206
f 198/238/198 196/236/196 207/248/207
f 192/231/192 203/243/203 197/237/197
f 188/226/188 197/237/197 194/234/194
f 198/238/198 209/249/208 208/250/209
f 207/248/207 209/249/208 198/238/198
f 190/229/190 210/251/210 201/241/201
f 180/217/180 187/225/187 202/242/202
f 196/236/196 191/230/191 211/252/211
f 198/238/198 208/250/209 203/243/203
f 205/245/205 210/251/210 190/229/190
f 200/240/200 181/218/181 171/206/171
f 201/241/201 212/253/212 195/235/195
f 179/215/179 213/254/213 170/232/170
f 191/230/191 202/242/202 211/252/211
f 214/255/214 187/256/187 164/257/164
f 215/258/215 208/250/209 209/249/208
f 193/233/193 216/259/216 177/213/177
f 217/260/217 201/241/201 210/251/210
f 164/257/164 181/261/181 214/255/214
f 209/249/208 219/262/218 218/263/219
f 220/264/220 209/249/208 207/248/207
f 212/253/212 201/241/201 217/260/217
f 209/249/208 220/264/220 219/262/218
f 218/263/219 215/258/215 209/249/208
f 195/247/195 221/265/221 204/244/204
f 189/228/189 222/266/222 205/245/205
f 177/213/177 216/259/216 200/240/200
f 210/251/210 223/267/223 217/260/217
f 221/265/221 195/247/195 212/268/212
f 193/269/193 170/232/170 213/254/213
f 224/270/224 207/248/207 196/236/196
f 184/221/184 204/244/204 225/271/225
f 189/228/189 206/246/206 222/266/222
f 223/267/223 226/272/226 217/260/217
f 219/262/218 220/264/220 227/273/227
f 217/260/217 228/274/228 212/253/212
f 229/275/229 218/263/219 219/262/218
f 219/262/218 227/273/227 229/275/229
f 182/219/182 194/234/194 230/276/230
f 228/274/228 217/260/217 226/272/226
f 205/245/205 231/277/231 210/251/210
f 182/219/182 230/276/230 206/246/206
f 196/236/196 211/252/211 224/270/224
f 213/254/213 179/215/179 199/239/199
f 225/271/225 199/239/199 184/221/184
f 223/267/223 232/278/232 226/272/226
f 223/267/223 210/251/210 231/277/231
f 233/279/233 203/243/203 208/250/209
f 227/273/227 220/264/220 234/280/234
f 235/281/235 202/282/202 187/256/187
f 236/283/236 197/237/197 203/243/203
f 233/279/233 208/250/209 215/258/215
f 207/248/207 237/284/237 220/264/220
f 238/285/238 229/275/229 227/273/227
f 226/272/226 239/286/239 228/274/228
f 226/272/226 232/278/232 240/287/240
f 241/288/241 227/273/227 234/280/234
f 227/273/227 241/288/241 238/285/238
f 242/289/242 215/258/215 218/263/219
f 243/290/243 205/245/205 222/266/222
f 239/286/239 226/272/226 240/287/240
f 212/268/212 244/291/244 221/265/221
f 245/292/245 232/278/232 223/267/223
f 246/293/246 194/234/194 197/237/197
f 212/268/212 228/294/228 247/295/247
f 237/284/237 207/248/207 224/270/224
f 205/245/205 243/290/243 231/277/231
f 248/296/248 218/263/219 229/275/229
f 232/278/232 249/297/249 240/287/240
f 231/277/231 245/292/245 223/267/223
f 187/256/187 214/255/214 235/281/235
f 234/280/234 250/298/250 241/288/241
f 251/299/251 211/300/211 202/282/202
f 252/301/252 238/285/238 241/288/241
f 204/244/204 221/265/221 253/302/253
f 240/287/240 254/303/254 239/286/239
f 255/304/255 240/287/240 249/297/249
f 256/305/256 234/280/234 220/264/220
f 257/306/257 241/288/241 250/298/250
f 241/288/241 257/306/257 252/301/252
f 216/307/216 193/269/193 258/308/258
f 206/246/206 259/309/259 222/266/222
f 254/303/254 240/287/240 255/304/255
f 260/310/260 229/275/229 238/285/238
f 213/254/213 258/308/258 193/269/193
f 247/295/247 244/291/244 212/268/212
f 261/311/261 181/261/181 200/312/200
f 228/294/228 239/313/239 262/314/262
f 215/258/215 242/289/242 233/279/233
f 203/243/203 233/279/233 236/283/236
f 249/297/249 263/315/263 255/304/255
f 218/263/219 248/296/248 242/289/242
f 263/315/263 264/316/264 255/304/255
f 265/317/265 255/304/255 264/316/264
f 220/264/220 237/284/237 256/305/256
f 266/318/266 249/297/249 232/278/232
f 265/317/265 254/303/254 255/304/255
f 253/302/253 225/271/225 204/244/204
f 245/292/245 267/319/267 232/278/232
f 181/261/181 261/311/261 214/255/214
f 229/275/229 268/320/268 248/296/248
f 269/321/269 264/316/264 270/322/270
f 194/234/194 271/323/271 230/276/230
f 206/246/206 230/276/230 259/309/259
f 272/324/272 252/301/252 257/306/257
f 273/325/273 270/322/270 264/316/264
f 202/282/202 235/281/235 251/299/251
f 229/275/229 260/310/260 268/320/268
f 250/298/250 274/326/274 257/306/257
f 222/266/222 275/327/275 243/290/243
f 264/316/264 269/321/269 265/317/265
f 263/315/263 273/325/273 264/316/264
f 270/322/270 277/328/276 276/329/277
f 278/330/278 238/285/238 252/301/252
f 279/331/279 270/322/270 276/329/277
f 197/237/197 236/283/236 246/293/246
f 280/332/280 250/298/250 234/280/234
f 262/314/262 247/295/247 228/294/228
f 281/333/281 224/334/224 211/300/211
f 257/306/257 282/335/282 272/324/272
f 273/325/273 277/328/276 270/322/270
f 279/331/279 269/321/269 270/322/270
f 199/239/199 283/336/283 213/254/213
f 282/335/282 257/306/257 274/326/274
f 232/278/232 267/319/267 266/318/266
f 276/329/277 285/337/284 284/338/285
f 286/339/286 276/329/277 284/338/285
f 277/328/276 285/337/284 276/329/277
f 287/340/287 239/313/239 254/341/254
f 276/329/277 286/339/286 279/331/279
f 222/266/222 259/309/259 275/327/275
f 249/297/249 288/342/288 263/315/263
f 238/285/238 278/330/278 260/310/260
f 278/330/278 252/301/252 272/324/272
f 285/337/284 289/343/289 284/338/285
f 199/239/199 225/271/225 290/344/290
f 234/280/234 256/305/256 280/332/280
f 291/345/291 200/312/200 216/307/216
f 292/346/292 286/339/286 284/338/285
f 274/326/274 250/298/250 280/332/280
f 221/265/221 244/291/244 293/347/293
f 274/326/274 294/348/294 282/335/282
f 284/338/285 289/343/289 295/349/295
f 296/350/296 273/325/273 263/315/263
f 292/346/292 284/338/285 295/349/295
f 254/341/254 265/351/265 297/352/297
f 298/353/298 277/328/276 273/325/273
f 266/318/266 288/342/288 249/297/249
f 262/314/262 239/313/239 287/340/287
f 299/354/299 285/337/284 277/328/276
f 265/351/265 269/355/269 300/356/300
f 211/300/211 251/299/251 281/333/281
f 275/327/275 301/357/301 243/290/243
f 224/334/224 302/358/302 237/359/237
f 271/323/271 194/234/194 303/360/303
f 194/234/194 246/293/246 303/360/303
f 304/361/304 245/292/245 231/277/231
f 305/362/305 243/290/243 301/357/301
f 272/324/272 282/335/282 306/363/306
f 269/355/269 279/364/279 307/365/307
f 308/366/308 289/343/289 285/337/284
f 289/343/289 309/367/309 295/349/295
f 283/336/283 258/308/258 213/254/213
f 263/315/263 288/342/288 296/350/296
f 243/290/243 310/368/310 231/277/231
f 272/324/272 311/369/311 278/330/278
f 312/370/312 292/346/292 295/349/295
f 273/325/273 296/350/296 298/353/298
f 279/364/279 286/371/286 313/372/313
f 277/328/276 298/353/298 299/354/299
f 282/335/282 294/348/294 306/363/306
f 293/347/293 253/302/253 221/265/221
f 314/373/314 294/348/294 274/326/274
f 283/336/283 199/239/199 290/344/290
f 312/370/312 295/349/295 309/367/309
f 285/337/284 299/354/299 308/366/308
f 297/352/297 287/340/287 254/341/254
f 315/374/315 235/281/235 214/255/214
f 286/371/286 292/375/292 316/376/316
f 289/343/289 308/366/308 309/367/309
f 280/332/280 317/377/317 274/326/274
f 216/307/216 258/308/258 291/345/291
f 267/319/267 245/292/245 318/378/318
f 306/363/306 311/369/311 272/324/272
f 244/291/244 247/295/247 319/379/319
f 300/356/300 297/352/297 265/351/265
f 320/380/320 256/381/256 237/359/237
f 230/276/230 321/382/321 259/309/259
f 301/357/301 322/383/322 305/362/305
f 225/271/225 253/302/253 290/344/290
f 243/290/243 305/362/305 310/368/310
f 274/326/274 317/377/317 314/373/314
f 307/365/307 300/356/300 269/355/269
f 224/334/224 281/333/281 302/358/302
f 230/276/230 271/323/271 321/382/321
f 200/312/200 323/384/323 261/311/261
f 248/385/248 268/386/268 324/387/324
f 260/388/260 325/389/325 268/386/268
f 326/390/326 305/362/305 322/383/322
f 292/375/292 312/391/312 327/392/327
f 313/372/313 307/365/307 279/364/279
f 328/393/328 242/394/242 248/385/248
f 294/348/294 314/373/314 306/363/306
f 308/366/308 329/395/329 309/367/309
f 316/376/316 313/372/313 286/371/286
f 330/396/330 275/327/275 259/309/259
f 301/357/301 275/327/275 330/396/330
f 331/397/331 266/318/266 267/319/267
f 309/367/309 332/398/332 312/370/312
f 325/389/325 260/388/260 278/399/278
f 333/400/333 233/401/233 242/394/242
f 214/255/214 261/311/261 315/374/315
f 315/374/315 251/299/251 235/281/235
f 200/312/200 291/345/291 323/384/323
f 247/295/247 262/314/262 334/402/334
f 280/403/280 256/381/256 335/404/335
f 310/368/310 304/361/304 231/277/231
f 327/392/327 316/376/316 292/375/292
f 309/367/309 329/395/329 332/398/332
f 237/359/237 302/358/302 320/380/320
f 336/405/336 288/342/288 266/318/266
f 337/406/337 299/354/299 298/353/298
f 338/407/338 298/353/298 296/350/296
f 339/408/339 296/350/296 288/342/288
f 245/292/245 304/361/304 318/378/318
f 340/409/340 278/399/278 311/410/311
f 305/362/305 326/390/326 341/411/341
f 342/412/342 308/366/308 299/354/299
f 343/413/343 236/414/236 233/401/233
f 319/379/319 293/347/293 244/291/244
f 332/415/332 327/392/327 312/391/312
f 329/395/329 308/366/308 342/412/342
f 344/416/344 311/410/311 306/417/306
f 317/418/317 280/403/280 345/419/345
f 326/390/326 322/383/322 346/420/346
f 322/383/322 301/357/301 347/421/347
f 318/378/318 348/422/348 267/319/267
f 256/381/256 320/380/320 335/404/335
f 262/314/262 287/340/287 349/423/349
f 350/424/350 259/309/259 321/382/321
f 267/319/267 348/422/348 331/397/331
f 268/386/268 325/389/325 324/387/324
f 246/425/246 236/414/236 351/426/351
f 352/427/352 281/333/281 251/299/251
f 317/418/317 353/428/353 314/429/314
f 341/411/341 310/368/310 305/362/305
f 334/402/334 319/379/319 247/295/247
f 329/395/329 354/430/354 332/398/332
f 306/417/306 314/429/314 353/428/353
f 299/354/299 337/406/337 342/412/342
f 298/353/298 338/407/338 337/406/337
f 346/420/346 355/431/355 326/390/326
f 259/309/259 350/424/350 330/396/330
f 296/350/296 339/408/339 338/407/338
f 278/399/278 340/409/340 325/389/325
f 324/387/324 328/393/328 248/385/248
f 266/318/266 331/397/331 336/405/336
f 288/342/288 336/405/336 339/408/339
f 311/410/311 344/416/344 340/409/340
f 330/396/330 347/421/347 301/357/301
f 280/403/280 335/404/335 345/419/345
f 258/308/258 283/336/283 356/432/356
f 357/433/357 326/390/326 355/431/355
f 242/394/242 328/393/328 333/400/333
f 342/412/342 354/430/354 329/395/329
f 287/340/287 297/352/297 358/434/358
f 251/299/251 315/374/315 352/427/352
f 290/344/290 253/302/253 359/435/359
f 327/392/327 332/415/332 360/436/360
f 297/352/297 300/356/300 361/437/361
f 313/372/313 316/376/316 362/438/362
f 300/356/300 307/365/307 363/439/363
f 357/433/357 341/411/341 326/390/326
f 307/365/307 313/372/313 364/440/364
f 302/358/302 281/333/281 365/441/365
f 316/376/316 327/392/327 362/438/362
f 317/418/317 345/419/345 353/428/353
f 233/401/233 333/400/333 343/413/343
f 271/323/271 366/442/366 321/382/321
f 253/302/253 293/347/293 359/435/359
f 262/314/262 349/423/349 334/402/334
f 306/417/306 367/443/367 344/416/344
f 290/344/290 368/444/368 283/336/283
f 303/360/303 369/445/369 271/323/271
f 360/436/360 332/415/332 354/446/354
f 258/308/258 356/432/356 291/345/291
f 306/417/306 353/428/353 367/443/367
f 370/447/370 346/420/346 322/383/322
f 320/380/320 302/358/302 371/448/371
f 355/431/355 346/420/346 372/449/372
f 281/333/281 352/427/352 365/441/365
f 373/450/373 303/451/303 246/425/246
f 347/421/347 370/447/370 322/383/322
f 236/414/236 343/413/343 351/426/351
f 372/449/372 374/452/374 355/431/355
f 362/438/362 327/392/327 360/436/360
f 321/382/321 375/453/375 350/424/350
f 358/434/358 349/423/349 287/340/287
f 376/454/376 354/446/354 342/455/342
f 377/456/377 355/431/355 374/452/374
f 378/457/378 335/404/335 320/380/320
f 302/358/302 365/441/365 371/448/371
f 362/438/362 364/440/364 313/372/313
f 379/458/379 318/459/318 304/460/304
f 293/347/293 319/379/319 380/461/380
f 373/450/373 315/374/315 261/311/261
f 369/445/369 366/442/366 271/323/271
f 381/462/381 342/455/342 337/463/337
f 355/431/355 377/456/377 357/433/357
f 367/443/367 353/428/353 345/419/345
f 354/446/354 376/454/376 360/436/360
f 361/437/361 358/434/358 297/352/297
f 364/440/364 363/439/363 307/365/307
f 382/464/382 337/463/337 338/465/338
f 363/439/363 361/437/361 300/356/300
f 340/409/340 378/457/378 325/389/325
f 383/466/383 340/409/340 344/416/344
f 290/344/290 359/435/359 368/444/368
f 384/467/384 348/468/348 318/459/318
f 383/466/383 345/419/345 335/404/335
f 351/426/351 352/427/352 315/374/315
f 246/425/246 351/426/351 373/450/373
f 324/387/324 325/389/325 378/457/378
f 371/448/371 385/469/385 320/380/320
f 356/432/356 283/336/283 368/444/368
f 338/465/338 339/470/339 386/471/386
f 387/472/387 350/424/350 375/453/375
f 261/311/261 323/384/323 388/473/388
f 375/453/375 321/382/321 366/442/366
f 389/474/389 304/460/304 310/475/310
f 319/379/319 334/402/334 379/458/379
f 344/416/344 367/443/367 383/466/383
f 372/449/372 390/476/390 374/452/374
f 328/393/328 324/387/324 385/469/385
f 320/380/320 385/469/385 378/457/378
f 343/413/343 365/441/365 352/427/352
f 328/393/328 371/448/371 333/400/333
f 359/435/359 293/347/293 380/461/380
f 374/452/374 390/476/390 391/477/391
f 362/438/362 360/436/360 376/454/376
f 392/478/392 331/479/331 348/468/348
f 339/470/339 336/480/336 393/481/393
f 345/419/345 383/466/383 367/443/367
f 342/455/342 381/462/381 376/454/376
f 333/400/333 371/448/371 365/441/365
f 365/441/365 343/413/343 333/400/333
f 346/420/346 394/482/394 372/449/372
f 385/469/385 371/448/371 328/393/328
f 395/483/395 336/480/336 331/479/331
f 396/484/396 374/452/374 391/477/391
f 335/404/335 378/457/378 383/466/383
f 304/460/304 380/461/380 379/458/379
f 378/457/378 385/469/385 324/387/324
f 340/409/340 383/466/383 378/457/378
f 352/427/352 351/426/351 343/413/343
f 310/475/310 341/485/341 397/486/397
f 337/463/337 382/464/382 381/462/381
f 388/473/388 323/384/323 291/345/291
f 374/452/374 396/484/396 377/456/377
f 379/458/379 380/461/380 319/379/319
f 394/482/394 346/420/346 370/447/370
f 318/459/318 379/458/379 384/467/384
f 384/467/384 334/402/334 349/423/349
f 398/487/398 391/477/391 390/476/390
f 376/454/376 381/462/381 362/438/362
f 375/453/375 399/488/399 387/472/387
f 315/374/315 373/450/373 351/426/351
f 338/465/338 386/471/386 382/464/382
f 304/460/304 389/474/389 380/461/380
f 400/489/400 330/396/330 350/424/350
f 384/467/384 379/458/379 334/402/334
f 364/440/364 362/438/362 382/464/382
f 348/468/348 384/467/384 392/478/392
f 390/476/390 401/490/401 398/487/398
f 341/485/341 357/491/357 402/492/402
f 382/464/382 362/438/362 381/462/381
f 403/493/403 391/477/391 398/487/398
f 404/494/404 398/487/398 401/490/401
f 339/470/339 393/481/393 386/471/386
f 347/421/347 330/396/330 400/489/400
f 261/311/261 388/473/388 373/450/373
f 369/495/369 303/451/303 388/473/388
f 405/496/405 387/472/387 406/497/406
f 349/423/349 358/434/358 392/478/392
f 390/476/390 372/449/372 407/498/407
f 399/488/399 406/497/406 387/472/387
f 331/479/331 392/478/392 395/483/395
f 403/493/403 396/484/396 391/477/391
f 336/480/336 395/483/395 393/481/393
f 363/439/363 364/440/364 386/471/386
f 350/424/350 387/472/387 400/489/400
f 401/490/401 408/499/408 404/494/404
f 349/423/349 392/478/392 384/467/384
f 382/464/382 386/471/386 364/440/364
f 361/437/361 363/439/363 393/481/393
f 303/451/303 373/450/373 388/473/388
f 409/500/409 398/487/398 404/494/404
f 358/434/358 361/437/361 395/483/395
f 410/501/410 404/494/404 408/499/408
f 380/461/380 411/502/411 359/435/359
f 368/444/368 359/435/359 411/502/411
f 310/475/310 397/486/397 389/474/389
f 394/482/394 407/498/407 372/449/372
f 386/471/386 393/481/393 363/439/363
f 398/487/398 409/500/409 403/493/403
f 395/483/395 392/478/392 358/434/358
f 408/499/408 412/503/412 410/501/410
f 370/447/370 347/421/347 413/504/413
f 366/442/366 414/505/414 375/453/375
f 357/491/357 377/506/377 415/507/415
f 393/481/393 395/483/395 361/437/361
f 416/508/416 404/494/404 410/501/410
f 291/345/291 356/432/356 417/509/417
f 418/510/418 401/490/401 390/476/390
f 419/511/419 405/496/405 420/512/420
f 406/497/406 420/512/420 405/496/405
f 399/488/399 375/453/375 421/513/421
f 387/472/387 405/496/405 422/514/422
f 356/432/356 368/444/368 423/515/423
f 416/508/416 409/500/409 404/494/404
f 424/516/424 410/501/410 412/503/412
f 401/490/401 418/510/418 408/499/408
f 402/492/402 397/486/397 341/485/341
f 411/502/411 380/461/380 389/474/389
f 425/517/425 410/501/410 424/516/424
f 407/498/407 426/518/426 390/476/390
f 425/517/425 416/508/416 410/501/410
f 377/506/377 396/519/396 427/520/427
f 408/499/408 428/521/428 412/503/412
f 412/503/412 429/522/429 424/516/424
f 368/444/368 411/502/411 423/515/423
f 430/523/430 366/442/366 369/445/369
f 291/345/291 417/509/417 388/473/388
f 405/496/405 419/511/419 431/524/431
f 390/476/390 426/518/426 418/510/418
f 406/497/406 399/488/399 432/525/432
f 414/505/414 421/513/421 375/453/375
f 402/492/402 357/491/357 415/507/415
f 420/512/420 433/526/433 419/511/419
f 434/527/434 394/482/394 370/447/370
f 418/510/418 428/521/428 408/499/408
f 424/516/424 429/522/429 435/528/435
f 396/519/396 403/529/403 436/530/436
f 437/531/437 425/517/425 424/516/424
f 400/489/400 413/504/413 347/421/347
f 422/514/422 400/489/400 387/472/387
f 419/511/419 433/526/433 438/532/438
f 412/503/412 439/533/439 429/522/429
f 420/512/420 406/497/406 432/525/432
f 437/531/437 424/516/424 435/528/435
f 428/521/428 439/533/439 412/503/412
f 388/473/388 440/534/440 369/495/369
f 356/432/356 423/515/423 441/535/441
f 403/529/403 409/536/409 442/537/442
f 421/513/421 432/525/432 399/488/399
f 443/538/443 419/511/419 438/532/438
f 431/524/431 422/514/422 405/496/405
f 413/504/413 444/539/444 370/447/370
f 427/520/427 415/507/415 377/506/377
f 429/522/429 445/540/445 435/528/435
f 446/541/446 411/502/411 389/474/389
f 409/536/409 416/542/416 447/543/447
f 448/544/448 407/498/407 394/482/394
f 449/545/449 438/532/438 433/526/433
f 416/542/416 425/546/425 450/547/450
f 356/432/356 441/535/441 417/509/417
f 451/548/451 414/505/414 366/442/366
f 452/549/452 437/531/437 435/528/435
f 440/534/440 430/550/430 369/495/369
f 439/533/439 453/551/453 429/522/429
f 370/447/370 444/539/444 434/527/434
f 423/515/423 411/502/411 446/541/446
f 443/538/443 431/524/431 419/511/419
f 433/526/433 420/512/420 454/552/454
f 445/540/445 429/522/429 453/551/453
f 436/530/436 427/520/427 396/519/396
f 389/474/389 397/486/397 455/553/455
f 425/546/425 437/554/437 456/555/456
f 432/525/432 454/552/454 420/512/420
f 433/526/433 457/556/457 449/545/449
f 458/557/458 426/518/426 407/498/407
f 442/537/442 436/530/436 403/529/403
f 366/442/366 430/523/430 451/548/451
f 459/558/459 438/532/438 449/545/449
f 445/540/445 460/559/460 435/528/435
f 461/560/461 449/545/449 457/556/457
f 462/561/462 418/510/418 426/518/426
f 435/528/435 460/559/460 452/549/452
f 447/543/447 442/537/442 409/536/409
f 397/486/397 402/492/402 463/562/463
f 464/563/464 428/521/428 418/510/418
f 423/515/423 446/541/446 441/535/441
f 453/551/453 465/564/465 445/540/445
f 437/554/437 452/565/452 466/566/466
f 394/482/394 434/527/434 448/544/448
f 459/558/459 443/538/443 438/532/438
f 450/547/450 447/543/447 416/542/416
f 389/474/389 455/553/455 446/541/446
f 467/567/467 439/533/439 428/521/428
f 456/555/456 450/547/450 425/546/425
f 468/568/468 421/513/421 414/505/414
f 457/556/457 469/569/469 461/560/461
f 433/526/433 470/570/470 457/556/457
f 471/571/471 449/545/449 461/560/461
f 472/572/472 453/551/453 439/533/439
f 445/540/445 465/564/465 460/559/460
f 466/566/466 456/555/456 437/554/437
f 473/573/473 461/560/461 469/569/469
f 454/552/454 470/570/470 433/526/433
f 407/498/407 448/544/448 458/557/458
f 402/492/402 415/507/415 474/574/474
f 417/509/417 475/575/475 388/473/388
f 463/562/463 455/553/455 397/486/397
f 449/545/449 471/571/471 459/558/459
f 460/576/460 466/566/466 452/565/452
f 475/575/475 440/534/440 388/473/388
f 465/564/465 453/551/453 472/572/472
f 476/577/476 432/525/432 421/513/421
f 469/569/469 477/578/477 473/573/473
f 426/518/426 458/557/458 462/561/462
f 478/579/478 461/560/461 473/573/473
f 418/510/418 462/561/462 464/563/464
f 417/509/417 441/535/441 479/580/479
f 480/581/480 413/582/413 400/583/400
f 428/521/428 464/563/464 467/567/467
f 469/569/469 457/556/457 481/584/481
f 414/505/414 451/548/451 468/568/468
f 439/533/439 467/567/467 472/572/472
f 483/585/482 473/573/473 477/578/477
f 484/586/483 400/583/400 422/587/422
f 441/535/441 446/541/446 485/588/484
f 415/507/415 427/520/427 486/589/485
f 474/574/474 463/562/463 402/492/402
f 465/564/465 487/590/486 460/559/460
f 478/579/478 471/571/471 461/560/461
f 488/591/487 444/592/444 413/582/413
f 470/570/470 481/584/481 457/556/457
f 422/587/422 431/593/431 489/594/488
f 490/595/489 454/552/454 432/525/432
f 477/578/477 491/596/490 483/585/482
f 492/597/491 473/573/473 483/585/482
f 477/578/477 469/569/469 493/598/492
f 427/520/427 436/530/436 494/599/493
f 472/572/472 487/590/486 465/564/465
f 446/541/446 455/553/455 485/588/484
f 430/550/430 440/534/440 495/600/494
f 496/601/495 483/585/482 491/596/490
f 441/535/441 485/588/484 479/580/479
f 421/513/421 468/568/468 476/577/476
f 431/593/431 443/602/443 497/603/496
f 492/597/491 478/579/478 473/573/473
f 498/604/497 466/566/466 460/576/460
f 499/605/498 434/606/434 444/592/444
f 417/509/417 479/580/479 475/575/475
f 481/584/481 493/598/492 469/569/469
f 436/530/436 442/537/442 500/607/499
f 474/574/474 415/507/415 486/589/485
f 501/608/500 483/585/482 496/601/495
f 456/555/456 466/566/466 502/609/501
f 400/583/400 503/610/502 480/581/480
f 498/604/497 460/576/460 487/611/486
f 491/596/490 504/612/503 496/601/495
f 442/537/442 447/543/447 500/607/499
f 505/613/504 491/596/490 477/578/477
f 450/547/450 456/555/456 506/614/505
f 501/608/500 492/597/491 483/585/482
f 447/543/447 450/547/450 507/615/506
f 508/616/507 448/617/448 434/606/434
f 413/582/413 480/581/480 488/591/487
f 482/618/508 503/610/502 400/583/400
f 455/553/455 463/562/463 503/610/502
f 496/601/495 504/612/503 509/619/509
f 510/620/510 443/602/443 459/621/459
f 432/525/432 476/577/476 490/595/489
f 493/598/492 505/613/504 477/578/477
f 511/622/511 470/570/470 454/552/454
f 485/588/484 455/553/455 503/610/502
f 486/589/485 427/520/427 494/599/493
f 512/623/512 487/611/486 472/624/472
f 502/609/501 466/566/466 498/604/497
f 444/592/444 488/591/487 499/605/498
f 400/583/400 484/586/483 482/618/508
f 491/596/490 513/625/513 504/612/503
f 495/600/494 440/534/440 475/575/475
f 514/626/514 496/601/495 509/619/509
f 515/627/515 451/628/451 430/550/430
f 516/629/516 472/624/472 467/630/467
f 517/631/517 458/632/458 448/617/448
f 463/562/463 474/574/474 480/581/480
f 514/626/514 501/608/500 496/601/495
f 487/611/486 512/623/512 498/604/497
f 518/633/518 467/630/467 464/634/464
f 489/594/488 484/586/483 422/587/422
f 505/613/504 513/625/513 491/596/490
f 494/599/493 436/530/436 519/635/519
f 480/581/480 503/610/502 463/562/463
f 504/612/503 520/636/520 509/619/509
f 521/637/521 462/638/462 458/632/458
f 459/621/459 471/639/471 522/640/522
f 479/580/479 485/588/484 523/641/523
f 506/614/505 456/555/456 502/609/501
f 524/642/524 464/634/464 462/638/462
f 500/607/499 519/635/519 436/530/436
f 434/606/434 499/605/498 508/616/507
f 472/624/472 516/629/516 512/623/512
f 488/591/487 480/581/480 474/574/474
f 474/574/474 486/589/485 488/591/487
f 454/552/454 490/595/489 511/622/511
f 497/603/496 489/594/488 431/593/431
f 479/580/479 523/641/523 475/575/475
f 525/643/525 481/584/481 470/570/470
f 523/641/523 485/588/484 503/610/502
f 507/615/506 450/547/450 506/614/505
f 471/639/471 478/644/478 526/645/526
f 507/615/506 500/607/499 447/543/447
f 513/625/513 527/646/527 504/612/503
f 520/636/520 504/612/503 527/646/527
f 498/604/497 512/623/512 516/629/516
f 430/550/430 495/600/494 515/627/515
f 448/617/448 508/616/507 517/631/517
f 516/629/516 502/609/501 498/604/497
f 528/647/528 514/626/514 509/619/509
f 467/630/467 518/633/518 516/629/516
f 528/647/528 509/619/509 520/636/520
f 478/644/478 492/648/491 529/649/529
f 530/650/530 468/651/468 451/628/451
f 488/591/487 486/589/485 499/605/498
f 443/602/443 510/620/510 497/603/496
f 531/652/531 493/598/492 481/584/481
f 486/589/485 494/599/493 499/605/498
f 458/632/458 517/631/517 521/637/521
f 464/634/464 524/642/524 518/633/518
f 503/610/502 482/618/508 523/641/523
f 492/648/491 501/653/500 532/654/532
f 462/638/462 521/637/521 524/642/524
f 499/605/498 494/599/493 508/616/507
f 518/633/518 502/609/501 516/629/516
f 493/598/492 533/655/533 505/613/504
f 527/646/527 534/656/534 520/636/520
f 494/599/493 519/635/519 508/616/507
f 518/633/518 506/614/505 502/609/501
f 470/570/470 511/622/511 525/643/525
f 501/653/500 514/657/514 535/658/535
f 475/575/475 523/641/523 536/659/536
f 537/660/537 476/661/476 468/651/468
f 475/575/475 536/659/536 495/600/494
f 522/640/522 510/620/510 459/621/459
f 508/616/507 519/635/519 517/631/517
f 538/662/538 513/625/513 505/613/504
f 519/635/519 500/607/499 521/637/521
f 521/637/521 517/631/517 519/635/519
f 518/633/518 524/642/524 506/614/505
f 507/615/506 506/614/505 524/642/524
f 536/659/536 523/641/523 482/618/508
f 500/607/499 507/615/506 524/642/524
f 526/645/526 522/640/522 471/639/471
f 481/584/481 525/643/525 531/652/531
f 520/636/520 539/663/539 528/647/528
f 524/642/524 521/637/521 500/607/499
f 451/628/451 515/627/515 530/650/530
f 514/657/514 528/664/528 540/665/540
f 529/649/529 526/645/526 478/644/478
f 541/666/541 527/646/527 513/625/513
f 542/667/542 490/668/489 476/661/476
f 532/654/532 529/649/529 492/648/491
f 531/652/531 533/655/533 493/598/492
f 520/636/520 534/656/534 543/669/543
f 534/656/534 527/646/527 541/666/541
f 515/627/515 495/600/494 536/659/536
f 535/658/535 532/654/532 501/653/500
f 544/670/544 482/618/508 484/586/483
f 468/651/468 530/650/530 537/660/537
f 505/613/504 533/655/533 538/662/538
f 540/665/540 535/658/535 514/657/514
f 484/586/483 489/594/488 545/671/545
f 543/669/543 539/663/539 520/636/520
f 482/618/508 544/670/544 536/659/536
f 513/625/513 538/662/538 541/666/541
f 539/672/539 540/665/540 528/664/528
f 546/673/546 511/674/511 490/668/489
f 489/594/488 497/603/496 547/675/547
f 476/661/476 537/660/537 542/667/542
f 536/659/536 544/670/544 515/627/515
f 541/666/541 543/669/543 534/656/534
f 484/586/483 545/671/545 544/670/544
f 548/676/548 497/603/496 510/620/510
f 530/650/530 515/627/515 544/670/544
f 549/677/549 525/678/525 511/674/511
f 490/668/489 542/667/542 546/673/546
f 547/675/547 545/671/545 489/594/488
f 537/660/537 530/650/530 545/671/545
f 544/670/544 545/671/545 530/650/530
f 550/679/550 531/680/531 525/678/525
f 510/620/510 522/640/522 551/681/551
f 552/682/552 540/665/540 539/672/539
f 548/676/548 547/675/547 497/603/496
f 522/640/522 526/645/526 553/683/553
f 554/684/554 533/685/533 531/680/531
f 526/645/526 529/649/529 555/686/555
f 529/649/529 532/654/532 556/687/556
f 539/672/539 543/688/543 557/689/557
f 532/654/532 535/658/535 558/690/558
f 535/658/535 540/665/540 559/691/559
f 560/692/560 538/693/538 533/685/533
f 545/671/545 547/675/547 537/660/537
f 542/667/542 537/660/537 547/675/547
f 511/674/511 546/673/546 549/677/549
f 561/694/561 541/695/541 538/693/538
f 557/689/557 543/688/543 541/695/541
f 510/620/510 551/681/551 548/676/548
f 557/689/557 552/682/552 539/672/539
f 525/678/525 549/677/549 550/679/550
f 547/675/547 548/676/548 542/667/542
f 542/667/542 548/676/548 546/673/546
f 559/691/559 540/665/540 552/682/552
f 531/680/531 550/679/550 554/684/554
f 553/683/553 551/681/551 522/640/522
f 533/685/533 554/684/554 560/692/560
f 555/686/555 553/683/553 526/645/526
f 558/690/558 535/658/535 559/691/559
f 556/687/556 555/686/555 529/649/529
f 558/690/558 556/687/556 532/654/532
f 541/695/541 561/694/561 557/689/557
f 538/693/538 560/692/560 561/694/561
f 551/681/551 546/673/546 548/676/548
f 549/677/549 546/673/546 551/681/551
f 552/682/552 557/689/557 561/694/561
f 561/694/561 559/691/559 552/682/552
f 550/679/550 549/677/549 553/683/553
f 551/681/551 553/683/553 549/677/549
f 554/684/554 550/679/550 555/686/555
f 561/694/561 560/692/560 559/691/559
f 553/683/553 555/686/555 550/679/550
f 560/692/560 558/690/558 559/691/559
f 560/692/560 554/684/554 556/687/556
f 555/686/555 556/687/556 554/684/554
f 556/687/556 558/690/558 560/692/560
