# This file uses centimeters as units for non-parametric coordinates.

mtllib R_blackEye.mtl
g default
v -1.006594 9.456163 3.189103
v -1.012551 9.340294 3.292673
v -0.928855 9.460440 3.255821
v -1.049625 9.369661 3.233783
v -0.878546 9.457027 3.336349
v -1.125357 9.247253 3.303148
v -0.964269 9.590740 3.129778
v -0.978206 9.318369 3.373188
v -1.116187 9.425573 3.143728
v -1.134269 9.317648 3.219854
v -0.870971 9.606237 3.203032
v -1.107342 9.208807 3.391450
v -0.807624 9.618763 3.286730
v -1.089068 9.565662 3.072523
v -0.851362 9.463919 3.423203
v -1.264061 9.179737 3.297710
v -1.253409 9.387350 3.112106
v -0.937263 9.754499 3.067725
v -0.959762 9.315474 3.460089
v -1.264309 9.265196 3.202046
v -1.097536 9.196842 3.482491
v -1.259532 9.128441 3.395578
v -0.773023 9.634623 3.375327
v -0.764680 9.797167 3.230062
v -0.835423 9.775764 3.144522
v -1.070093 9.732117 3.004083
v -1.238541 9.538677 3.028963
v -0.847436 9.482794 3.509959
v -1.425096 9.135988 3.286551
v -1.257324 9.109158 3.491974
v -1.413646 9.359379 3.086835
v -0.958302 9.331385 3.546330
v -0.725390 9.819803 3.319942
v -0.927476 9.933805 3.007967
v -0.766959 9.656662 3.463682
v -1.420926 9.229738 3.184222
v -1.428065 9.077408 3.389843
v -1.226474 9.711319 2.953782
v -0.750183 9.984396 3.170796
v -1.405557 9.517025 2.996922
v -1.062609 9.913355 2.942145
v -0.823165 9.957867 3.085413
v -1.098593 9.210300 3.570448
v -1.431612 9.053572 3.490037
v -0.717743 9.845057 3.409888
v -0.709240 10.012255 3.260468
v -0.975611 9.366634 3.624757
v -1.597610 9.117596 3.271946
v -1.585943 9.345541 3.068197
v -0.867419 9.515755 3.590038
v -1.260891 9.120743 3.582651
v -1.221171 9.896860 2.889059
v -1.398757 9.694576 2.917021
v -0.937263 10.115404 2.955594
v -0.835423 10.141403 3.030921
v -1.605148 9.056755 3.376724
v -1.591093 9.213778 3.167806
v -1.582204 9.505138 2.976017
v -1.070093 10.097782 2.890472
v -1.113593 9.248678 3.649323
v -0.789494 9.687794 3.546464
v -0.700962 10.040331 3.350832
v -0.764680 10.172243 3.113527
v -1.613363 9.031282 3.478234
v -1.437738 9.063885 3.583298
v -1.395709 9.884642 2.849733
v -1.008717 9.416857 3.690192
v -1.273795 9.162329 3.663112
v -1.226474 10.086412 2.837241
v -1.579912 9.684771 2.894089
v -0.742285 9.874342 3.495482
v -1.762129 9.220434 3.154274
v -1.770771 9.126560 3.256209
v -0.909640 9.557402 3.659414
v -1.138436 9.309181 3.714512
v -0.725390 10.204525 3.200410
v -0.964269 10.285494 2.913921
v -0.870971 10.314240 2.983057
v -1.759346 9.349951 3.056492
v -1.782664 9.067736 3.358719
v -0.839795 9.722616 3.620996
v -1.291703 9.232296 3.729845
v -0.807624 10.351349 3.059119
v -1.448507 9.108110 3.665576
v -1.398757 10.079374 2.797465
v -1.579139 9.877119 2.825521
v -1.089068 10.273710 2.852536
v -0.726350 10.067486 3.438242
v -1.621917 9.041090 3.572654
v -1.760173 9.507355 2.965796
v -1.795328 9.043652 3.458113
v -0.717743 10.234690 3.288830
v -1.055316 9.478342 3.737001
v -0.797787 9.904039 3.574045
v -1.169440 9.389561 3.761178
v -0.972939 9.602747 3.713857
v -1.921142 9.247286 3.144394
v -0.773023 10.388489 3.141104
v -1.006594 10.429996 2.886537
v -1.238541 10.271259 2.801353
v -1.933416 9.161486 3.238959
v -1.461171 9.184278 3.733823
v -0.742285 10.259064 3.375951
v -0.928855 10.464281 2.943932
v -1.762554 9.684654 2.885090
v -1.922811 9.369097 3.053351
v -1.806097 9.053839 3.550967
v -0.917329 9.755884 3.684693
v -1.630473 9.086514 3.656008
v -1.579912 10.074459 2.773015
v -1.310419 9.329386 3.779371
v -1.764118 9.874596 2.817398
v -1.952132 9.109554 3.334786
v -0.783723 10.092667 3.519283
v -1.116187 10.429485 2.831817
v -0.878546 10.512724 3.008348
v -1.100431 9.533670 3.761668
v -0.766953 10.420408 3.226392
v -1.931140 9.519789 2.968174
v -1.405557 10.270943 2.762682
v -1.188895 9.493988 3.787426
v -0.883392 9.930616 3.642930
v -1.049625 10.526587 2.874331
v -2.054940 9.292540 3.139045
v -1.061221 9.632505 3.756680
v -0.797786 10.279116 3.457511
v -1.812222 9.098192 3.633652
v -0.789494 10.441658 3.312242
v -1.253409 10.443058 2.784102
v -1.473064 9.290836 3.784948
v -1.970040 9.089722 3.429420
v -1.022653 9.779213 3.736396
v -0.851362 10.556265 3.083815
v -1.012551 10.584156 2.906211
v -2.074395 9.221373 3.219851
v -1.939255 9.691881 2.891220
v -1.638688 9.165026 3.725211
v -2.065305 9.399691 3.060422
v -1.762554 10.069452 2.765534
v -1.982950 9.101046 3.519279
v -1.322693 9.453669 3.808664
v -1.134269 10.561550 2.833379
v -0.871781 10.114803 3.590532
v -1.178531 9.626829 3.791485
v -1.582205 10.268890 2.738723
v -2.105400 9.181591 3.303848
v -0.978206 10.647848 2.960125
v -0.847435 10.589880 3.165992
v -1.413646 10.451786 2.747429
v -2.087152 9.538446 2.984921
v -0.839795 10.455204 3.393386
v -1.646225 9.274530 3.777064
v -2.143404 9.339834 3.137779
v -1.943237 9.877169 2.825682
v -0.998044 9.950710 3.699254
v -1.264309 10.594675 2.788983
v -0.867419 10.608099 3.250651
v -1.986511 9.142893 3.600555
v -1.125357 10.666750 2.862117
v -1.481707 9.425947 3.815740
v -1.156685 9.783939 3.775064
v -1.815770 9.174610 3.702699
v -0.959762 10.699476 3.030084
v -1.760174 10.261272 2.731557
v -2.130243 9.168680 3.391847
v -2.188520 9.308226 3.189456
v -1.321025 9.605627 3.814648
v -0.883392 10.296255 3.529327
v -2.182615 9.424095 3.085881
v -1.939255 10.066975 2.774680
v -2.102897 9.703951 2.913432
v -2.145242 9.181759 3.478582
v -1.585943 10.452627 2.724229
v -0.989126 10.132820 3.648522
v -1.107342 10.748466 2.913085
v -1.140938 9.960814 3.740174
v -1.420926 10.613791 2.754203
v -2.235119 9.284092 3.262867
v -0.909639 10.613100 3.331414
v -0.958302 10.735241 3.110157
v -2.221183 9.556463 3.019456
v -1.264061 10.719297 2.819375
v -1.652743 9.412794 3.808362
v -1.312695 9.778055 3.799434
v -1.484489 9.588072 3.822910
v -2.109276 9.884811 2.850277
v -2.270897 9.423840 3.138028
v -0.917329 10.463888 3.464720
v -1.818739 9.281410 3.754608
v -0.975610 10.750639 3.194754
v -2.146300 9.220514 3.558681
v -1.759346 10.442358 2.717086
v -1.931140 10.252375 2.740562
v -1.984303 9.213408 3.669054
v -1.097536 10.809916 2.981315
v -2.268226 9.279793 3.345243
v -0.998044 10.311615 3.587122
v -2.245791 9.718815 2.952874
v -1.591093 10.617636 2.731633
v -1.098593 10.848671 3.061414
v -2.285534 9.295191 3.429837
v -0.972939 10.606590 3.401968
v -1.259532 10.817024 2.870943
v -1.425096 10.749020 2.785388
v -2.334196 9.417330 3.208582
v -1.134559 10.145618 3.689718
v -1.304580 9.963457 3.765316
v -2.102897 10.069614 2.799821
v -2.326507 9.566544 3.075275
v -1.008716 10.746340 3.277129
v -1.657892 9.577803 3.815766
v -1.483662 9.769157 3.808438
v -1.979774 9.311132 3.720620
v -1.922812 10.424803 2.725346
v -1.822909 9.416641 3.785792
v -1.022653 10.473969 3.520539
v -2.376417 9.422333 3.289345
v -1.762129 10.604485 2.724255
v -2.087152 10.246492 2.764933
v -2.254710 9.897610 2.891473
v -2.136493 9.281965 3.626911
v -1.113593 10.861750 3.148149
v -2.284073 9.330954 3.509912
v -2.404040 9.575226 3.146610
v -1.257324 10.887537 2.939438
v -1.140938 10.326481 3.626564
v -2.360444 9.734177 3.010668
v -1.597610 10.755899 2.762931
v -1.428065 10.855825 2.837297
v -1.260885 10.929384 3.020717
v -2.396400 9.440552 3.374004
v -1.061221 10.606337 3.454115
v -1.481282 9.960976 3.774461
v -1.055315 10.722206 3.350540
v -1.661631 9.761539 3.801272
v -1.300598 10.153261 3.714314
v -2.245791 10.079720 2.840742
v -1.979526 9.435757 3.751012
v -2.065305 10.403605 2.748511
v -2.118478 9.363680 3.677879
v -1.921142 10.576763 2.731331
v -1.830189 9.578646 3.792567
v -1.770771 10.739595 2.755047
v -1.156683 10.491985 3.555076
v -2.454341 9.588772 3.227754
v -2.221183 10.251217 2.803599
v -1.138435 10.848839 3.236147
v -2.372055 9.915627 2.949463
v -2.265630 9.382584 3.579871
v -1.100431 10.690598 3.402216
v -1.273795 10.940710 3.110577
v -1.431612 10.932240 2.906344
v -2.446049 9.751314 3.082485
v -1.605148 10.865404 2.814785
v -1.304580 10.338551 3.648777
v -1.479717 10.155836 3.722599
v -1.178531 10.630739 3.479574
v -2.109566 9.468882 3.706617
v -1.169440 10.809057 3.320147
v -2.054940 10.536444 2.752569
v -2.392474 9.474167 3.456182
v -1.663923 9.955973 3.766981
v -2.182615 10.397924 2.783316
v -1.437738 10.976591 2.989028
v -2.231284 9.446274 3.633784
v -2.476882 9.610023 3.313603
v -1.990427 9.587374 3.755894
v -1.933417 10.701046 2.760624
v -2.360444 10.099813 2.897066
v -1.838278 9.759487 3.777313
v -1.188895 10.737890 3.400950
v -1.782664 10.846153 2.806172
v -2.501551 9.771368 3.164044
v -1.312695 10.510643 3.571823
v -2.460113 9.937765 3.020713
v -1.291703 10.920877 3.205209
v -2.365290 9.517708 3.531649
v -2.194211 9.503845 3.665664
v -2.143404 10.496759 2.778327
v -1.613363 10.943918 2.883987
v -1.448507 10.986778 3.081883
v -2.127648 9.600945 3.708179
v -2.074395 10.640871 2.778818
v -1.321025 10.661335 3.486644
v -2.326507 10.274546 2.855302
v -1.310419 10.868946 3.301036
v -1.664696 10.153313 3.714474
v -1.481281 10.345776 3.654906
v -2.314981 9.566149 3.596065
v -2.270897 10.427685 2.826138
v -2.005294 9.759169 3.738644
v -1.952132 10.798138 2.810152
v -2.470812 9.641943 3.398891
v -2.526093 9.795742 3.251165
v -1.621918 10.989342 2.967341
v -2.517486 9.962944 3.101754
v -2.237241 9.600435 3.653458
v -1.322693 10.783146 3.395601
v -1.845078 9.951057 3.742530
v -2.188520 10.552086 2.802994
v -2.446049 10.126390 2.965951
v -1.483662 10.523075 3.574199
v -1.795328 10.922321 2.874420
v -2.436212 9.679083 3.480876
v -1.663923 10.345661 3.645906
v -1.461171 10.962694 3.181277
v -2.154768 9.756721 3.687460
v -2.105400 10.721251 2.825483
v -1.848126 10.145790 3.690262
v -1.630473 10.999151 3.061761
v -2.404040 10.307814 2.918999
v -2.372864 9.716192 3.556938
v -1.484489 10.680481 3.483503
v -1.473064 10.903872 3.283786
v -2.017360 9.944019 3.702754
v -1.970040 10.868103 2.876884
v -2.542873 9.990101 3.189164
v -2.235119 10.613571 2.849803
v -2.279567 9.744936 3.626075
v -2.334196 10.473028 2.880581
v -2.518445 9.825907 3.339585
v -2.501551 10.156088 3.044513
v -1.481707 10.809998 3.385722
v -1.638688 10.973677 3.163272
v -1.806097 10.966547 2.956697
v -1.661631 10.525291 3.563978
v -1.845078 10.335855 3.622974
v -2.173742 9.932650 3.649523
v -2.479156 9.858189 3.426469
v -2.022663 10.133570 3.650938
v -2.130243 10.781755 2.890672
v -1.646225 10.912836 3.268050
v -2.408412 9.889029 3.509076
v -2.454341 10.342638 2.993532
v -1.657892 10.684893 3.471799
v -1.652743 10.816654 3.372190
v -2.268225 10.663797 2.915238
v -2.306572 9.915028 3.584403
v -2.376416 10.514677 2.949958
v -2.534595 10.018179 3.279528
v -1.812223 10.976860 3.049959
v -2.526093 10.185377 3.130108
v -1.982950 10.909697 2.957340
v -1.838278 10.513407 3.543074
v -2.181225 10.117077 3.597850
v -1.815771 10.953024 3.150153
v -2.017360 10.319113 3.586215
v -2.493652 10.046036 3.369199
v -2.518445 10.210627 3.220055
v -2.316359 10.096628 3.532029
v -1.830189 10.671053 3.453161
v -2.476882 10.373777 3.076309
v -2.420670 10.072565 3.454584
v -1.818739 10.894444 3.253446
v -2.145242 10.820129 2.969548
v -1.822909 10.800694 3.355774
v -1.986511 10.921274 3.048020
v -2.396399 10.547640 3.030036
v -2.005294 10.491755 3.511032
v -2.173742 10.298315 3.535913
v -2.285534 10.699047 2.993665
v -2.479156 10.233263 3.309936
v -1.984303 10.901991 3.144418
v -2.470812 10.395809 3.164669
v -2.306572 10.275932 3.472270
v -1.990427 10.643080 3.427889
v -2.408412 10.254667 3.395474
v -2.146299 10.833590 3.057507
v -1.979774 10.850693 3.242286
v -2.392474 10.566511 3.116794
v -1.979526 10.765238 3.337949
v -2.154768 10.464767 3.467473
v -2.284073 10.714958 3.079907
v -2.436212 10.411667 3.253265
v -2.136494 10.821623 3.148546
v -2.279566 10.439690 3.410217
v -2.127648 10.604858 3.396268
v -2.372864 10.424192 3.336966
v -2.118478 10.783178 3.236848
v -2.365290 10.573402 3.203649
v -2.265630 10.712061 3.166807
v -2.109566 10.712784 3.320141
v -2.237241 10.574266 3.350893
v -2.314981 10.569992 3.284174
v -2.231285 10.690136 3.247323
v -2.194211 10.660770 3.306213
vt 0.050756 0.983357
vt 0.051182 0.983427
vt 0.050867 0.984010
vt 0.050632 0.983798
vt 0.051549 0.983584
vt 0.050395 0.984446
vt 0.050865 0.982712
vt 0.051148 0.984261
vt 0.050246 0.983448
vt 0.050256 0.984010
vt 0.051370 0.982728
vt 0.050603 0.984800
vt 0.051811 0.982798
vt 0.050280 0.982778
vt 0.051895 0.983754
vt 0.049805 0.984767
vt 0.049649 0.983606
vt 0.050906 0.981958
vt 0.051429 0.984504
vt 0.049697 0.984240
vt 0.050827 0.985119
vt 0.049949 0.985209
vt 0.052209 0.982893
vt 0.051934 0.981938
vt 0.051454 0.981934
vt 0.050280 0.982019
vt 0.049623 0.982884
vt 0.052232 0.983930
vt 0.049117 0.984998
vt 0.050113 0.985592
vt 0.048970 0.983747
vt 0.051718 0.984743
vt 0.052363 0.981962
vt 0.050867 0.981154
vt 0.052585 0.983002
vt 0.049034 0.984422
vt 0.049212 0.985490
vt 0.049588 0.982101
vt 0.051913 0.981048
vt 0.048912 0.982995
vt 0.050230 0.981218
vt 0.051422 0.981098
vt 0.051064 0.985417
vt 0.049318 0.985914
vt 0.052764 0.981999
vt 0.052352 0.981004
vt 0.034867 0.984508
vt 0.034583 0.984742
vt 0.034069 0.983932
vt 0.048374 0.985129
vt 0.035232 0.985417
vt 0.048246 0.983850
vt 0.034405 0.983756
vt 0.033717 0.983007
vt 0.050291 0.985940
vt 0.049527 0.981288
vt 0.048851 0.982192
vt 0.050745 0.980358
vt 0.051286 0.980272
vt 0.048427 0.985639
vt 0.048315 0.984535
vt 0.048171 0.983089
vt 0.050121 0.980422
vt 0.036003 0.985941
vt 0.035470 0.985122
vt 0.034092 0.982897
vt 0.033536 0.982008
vt 0.052764 0.980962
vt 0.051756 0.980173
vt 0.048473 0.986083
vt 0.049431 0.986299
vt 0.048779 0.981362
vt 0.035151 0.984262
vt 0.036184 0.985594
vt 0.049427 0.980478
vt 0.048090 0.982278
vt 0.033936 0.981968
vt 0.047587 0.984566
vt 0.047621 0.985149
vt 0.034751 0.983585
vt 0.035693 0.984801
vt 0.036865 0.986300
vt 0.052172 0.980063
vt 0.033532 0.980972
vt 0.050556 0.979627
vt 0.051047 0.979511
vt 0.047517 0.983893
vt 0.047627 0.985652
vt 0.034490 0.982800
vt 0.036347 0.985211
vt 0.051465 0.979355
vt 0.036981 0.985915
vt 0.048688 0.980534
vt 0.048008 0.981439
vt 0.049970 0.979678
vt 0.033944 0.981011
vt 0.048516 0.986482
vt 0.047426 0.983144
vt 0.047611 0.986093
vt 0.052557 0.979947
vt 0.035433 0.984009
vt 0.037782 0.986494
vt 0.034365 0.981942
vt 0.035902 0.984447
vt 0.035118 0.983428
vt 0.046902 0.984522
vt 0.051837 0.979182
vt 0.050323 0.979016
vt 0.049307 0.979703
vt 0.046901 0.985061
vt 0.037083 0.985494
vt 0.034118 0.980068
vt 0.033732 0.979955
vt 0.050724 0.978863
vt 0.047328 0.982344
vt 0.046823 0.983890
vt 0.047580 0.986494
vt 0.034931 0.982729
vt 0.037824 0.986080
vt 0.047925 0.980601
vt 0.036491 0.984768
vt 0.047236 0.981517
vt 0.046848 0.985524
vt 0.034383 0.981053
vt 0.049805 0.979027
vt 0.051053 0.978637
vt 0.035667 0.983797
vt 0.052183 0.979001
vt 0.046707 0.983177
vt 0.048589 0.979734
vt 0.036042 0.984009
vt 0.034845 0.981936
vt 0.050114 0.978608
vt 0.046309 0.984407
vt 0.035543 0.983356
vt 0.034534 0.980175
vt 0.038685 0.986089
vt 0.034449 0.979184
vt 0.049190 0.978989
vt 0.037178 0.985001
vt 0.046765 0.985933
vt 0.035432 0.982712
vt 0.038721 0.986490
vt 0.051359 0.978401
vt 0.034102 0.979005
vt 0.050301 0.978354
vt 0.046259 0.984863
vt 0.046588 0.982401
vt 0.037870 0.985637
vt 0.046208 0.983853
vt 0.047164 0.980687
vt 0.046660 0.986311
vt 0.036599 0.984240
vt 0.049705 0.978474
vt 0.034871 0.981099
vt 0.036052 0.983447
vt 0.047845 0.979788
vt 0.046124 0.985252
vt 0.050528 0.978051
vt 0.051655 0.978163
vt 0.048498 0.978984
vt 0.046043 0.983202
vt 0.034821 0.979355
vt 0.037920 0.985130
vt 0.045898 0.984273
vt 0.046489 0.981591
vt 0.035391 0.981957
vt 0.049113 0.978357
vt 0.034928 0.978400
vt 0.039529 0.985930
vt 0.049756 0.978017
vt 0.037260 0.984423
vt 0.036017 0.982776
vt 0.034631 0.978162
vt 0.039638 0.986306
vt 0.038668 0.985651
vt 0.050758 0.977754
vt 0.047105 0.979882
vt 0.045969 0.985610
vt 0.045710 0.984527
vt 0.036647 0.983606
vt 0.035005 0.980272
vt 0.045689 0.983865
vt 0.046428 0.980778
vt 0.045894 0.982457
vt 0.045795 0.985949
vt 0.047769 0.979025
vt 0.035427 0.981152
vt 0.049890 0.977628
vt 0.036015 0.982017
vt 0.048428 0.978309
vt 0.045482 0.984830
vt 0.035235 0.978634
vt 0.050991 0.977469
vt 0.045457 0.983253
vt 0.049114 0.977818
vt 0.037979 0.984538
vt 0.036673 0.982883
vt 0.037325 0.983748
vt 0.045785 0.981662
vt 0.045284 0.984018
vt 0.035244 0.979509
vt 0.038673 0.985150
vt 0.035533 0.977753
vt 0.040324 0.985607
vt 0.047047 0.979129
vt 0.046395 0.979994
vt 0.039446 0.985522
vt 0.035296 0.977462
vt 0.040500 0.985943
vt 0.050046 0.977270
vt 0.045255 0.985124
vt 0.035546 0.980356
vt 0.045268 0.982521
vt 0.047701 0.978338
vt 0.050221 0.976933
vt 0.045018 0.985414
vt 0.035563 0.978858
vt 0.049168 0.977355
vt 0.048395 0.977727
vt 0.044956 0.984242
vt 0.036064 0.981215
vt 0.036706 0.982099
vt 0.045737 0.980860
vt 0.044966 0.983367
vt 0.035761 0.978047
vt 0.038047 0.983851
vt 0.037383 0.982994
vt 0.039392 0.985058
vt 0.046369 0.979271
vt 0.038707 0.984568
vt 0.035735 0.979624
vt 0.044649 0.984477
vt 0.046982 0.978453
vt 0.045739 0.980100
vt 0.045149 0.981724
vt 0.040168 0.985249
vt 0.036247 0.977267
vt 0.041037 0.985123
vt 0.044543 0.983522
vt 0.049251 0.976946
vt 0.036073 0.976928
vt 0.041270 0.985407
vt 0.036172 0.980419
vt 0.044727 0.982605
vt 0.047642 0.977746
vt 0.048390 0.977225
vt 0.049360 0.976571
vt 0.044353 0.984715
vt 0.035967 0.979011
vt 0.037443 0.982190
vt 0.035989 0.978349
vt 0.038123 0.983089
vt 0.036767 0.981285
vt 0.045113 0.980919
vt 0.039391 0.984520
vt 0.045774 0.979430
vt 0.040034 0.984859
vt 0.046320 0.978636
vt 0.038776 0.983893
vt 0.046899 0.977876
vt 0.036321 0.979674
vt 0.044171 0.983693
vt 0.041933 0.984714
vt 0.045154 0.980165
vt 0.036402 0.977624
vt 0.044592 0.981778
vt 0.040806 0.984825
vt 0.036176 0.978603
vt 0.037043 0.976943
vt 0.048406 0.976788
vt 0.044256 0.982702
vt 0.047591 0.977240
vt 0.036938 0.976566
vt 0.036866 0.980475
vt 0.037514 0.981360
vt 0.036486 0.979023
vt 0.039983 0.984402
vt 0.036537 0.978013
vt 0.045764 0.978868
vt 0.041638 0.984475
vt 0.038203 0.982276
vt 0.045265 0.979520
vt 0.048442 0.976387
vt 0.040579 0.984522
vt 0.043824 0.983872
vt 0.039468 0.983888
vt 0.046213 0.978108
vt 0.044566 0.980941
vt 0.038867 0.983143
vt 0.036587 0.978470
vt 0.046805 0.977383
vt 0.043840 0.982808
vt 0.036985 0.979700
vt 0.042461 0.983876
vt 0.044105 0.981824
vt 0.037127 0.977352
vt 0.041332 0.984240
vt 0.040392 0.984268
vt 0.045389 0.979080
vt 0.047546 0.976797
vt 0.037889 0.976783
vt 0.040083 0.983849
vt 0.045624 0.978430
vt 0.037102 0.978987
vt 0.044652 0.980147
vt 0.037180 0.977816
vt 0.038286 0.981437
vt 0.037858 0.976383
vt 0.037606 0.980532
vt 0.041003 0.984013
vt 0.044839 0.979449
vt 0.039585 0.983174
vt 0.046069 0.977665
vt 0.042115 0.983694
vt 0.043454 0.982921
vt 0.047504 0.976383
vt 0.043666 0.981866
vt 0.040601 0.983861
vt 0.037180 0.978355
vt 0.038966 0.982342
vt 0.045155 0.978867
vt 0.044086 0.980935
vt 0.037704 0.979732
vt 0.046702 0.976962
vt 0.042835 0.982930
vt 0.041743 0.983521
vt 0.038369 0.980599
vt 0.037905 0.977224
vt 0.040249 0.983199
vt 0.045415 0.978075
vt 0.039057 0.981514
vt 0.038751 0.976793
vt 0.044211 0.980076
vt 0.041325 0.983366
vt 0.037795 0.978983
vt 0.037899 0.977728
vt 0.038794 0.976395
vt 0.039705 0.982398
vt 0.045906 0.977282
vt 0.043254 0.981904
vt 0.044873 0.978615
vt 0.040834 0.983249
vt 0.044473 0.979292
vt 0.042450 0.982813
vt 0.043658 0.980908
vt 0.037866 0.978311
vt 0.038705 0.977237
vt 0.046586 0.976576
vt 0.043042 0.981914
vt 0.038449 0.979787
vt 0.039130 0.980685
vt 0.039709 0.976577
vt 0.040399 0.982454
vt 0.042034 0.982704
vt 0.039806 0.981589
vt 0.045192 0.977755
vt 0.038653 0.977748
vt 0.041564 0.982604
vt 0.043813 0.979980
vt 0.038525 0.979026
vt 0.038593 0.978341
vt 0.044589 0.978369
vt 0.041023 0.982519
vt 0.044127 0.979121
vt 0.042630 0.981872
vt 0.039596 0.976963
vt 0.043258 0.980869
vt 0.045725 0.976936
vt 0.039190 0.979881
vt 0.040509 0.981659
vt 0.039491 0.977387
vt 0.039866 0.980776
vt 0.040570 0.976937
vt 0.042191 0.981828
vt 0.042641 0.980914
vt 0.041145 0.981722
vt 0.043042 0.980877
vt 0.039248 0.979129
vt 0.043438 0.979869
vt 0.041700 0.981779
vt 0.039395 0.977878
vt 0.044953 0.977460
vt 0.039313 0.978455
vt 0.040391 0.977285
vt 0.043791 0.978944
vt 0.039901 0.979992
vt 0.040558 0.980858
vt 0.041342 0.977460
vt 0.044304 0.978135
vt 0.042212 0.980938
vt 0.040227 0.977668
vt 0.042488 0.979983
vt 0.042863 0.979874
vt 0.041184 0.980918
vt 0.039928 0.979271
vt 0.041732 0.980942
vt 0.041105 0.977757
vt 0.041996 0.978133
vt 0.040083 0.978110
vt 0.042173 0.979123
vt 0.042510 0.978947
vt 0.039975 0.978636
vt 0.040558 0.980099
vt 0.041707 0.978372
vt 0.042089 0.980079
vt 0.040882 0.978077
vt 0.041143 0.980164
vt 0.040524 0.979429
vt 0.041648 0.980148
vt 0.040673 0.978431
vt 0.041827 0.979293
vt 0.041426 0.978615
vt 0.040534 0.978867
vt 0.041034 0.979519
vt 0.041460 0.979449
vt 0.041145 0.978867
vt 0.040911 0.979078
vn 0.506426 -0.511939 -0.693867
vn 0.649500 -0.524530 -0.550471
vn 0.574695 -0.642215 -0.507233
vn 0.477900 -0.595300 -0.645933
vn 0.774889 -0.534588 -0.337287
vn 0.446016 -0.729596 -0.518420
vn 0.522465 -0.419811 -0.742152
vn 0.667185 -0.681891 -0.299815
vn 0.375691 -0.517017 -0.769123
vn 0.391508 -0.622536 -0.677621
vn 0.682190 -0.412674 -0.603587
vn 0.515796 -0.803911 -0.296109
vn 0.827314 -0.398021 -0.396399
vn 0.381190 -0.428670 -0.819107
vn 0.853892 -0.515664 -0.070423
vn 0.315000 -0.774678 -0.548315
vn 0.269879 -0.532286 -0.802394
vn 0.530402 -0.333259 -0.779495
vn 0.731357 -0.681394 -0.028640
vn 0.283460 -0.648303 -0.706650
vn 0.565985 -0.824297 -0.014013
vn 0.357292 -0.876521 -0.322573
vn 0.923770 -0.360693 -0.128642
vn 0.847238 -0.274454 -0.454822
vn 0.692829 -0.310951 -0.650614
vn 0.387730 -0.348331 -0.853423
vn 0.270699 -0.439730 -0.856364
vn 0.864408 -0.450542 0.223182
vn 0.190800 -0.795009 -0.575809
vn 0.389774 -0.920501 -0.027456
vn 0.175490 -0.544040 -0.820502
vn 0.736897 -0.622177 0.264347
vn 0.958356 -0.215866 -0.186962
vn 0.532641 -0.251170 -0.808212
vn 0.941527 -0.285296 0.179257
vn 0.179625 -0.662310 -0.727379
vn 0.205319 -0.912143 -0.354740
vn 0.275984 -0.360037 -0.891183
vn 0.852197 -0.155241 -0.499660
vn 0.177316 -0.450108 -0.875192
vn 0.390596 -0.272506 -0.879304
vn 0.695544 -0.213570 -0.686008
vn 0.567436 -0.769816 0.292232
vn 0.212517 -0.975846 -0.050614
vn 0.982733 -0.127412 0.134170
vn 0.968814 -0.073521 -0.236631
vn 0.677686 -0.507185 0.532452
vn 0.072731 -0.802460 -0.592257
vn 0.087896 -0.550008 -0.830521
vn 0.799438 -0.339874 0.495363
vn 0.384215 -0.871213 0.305560
vn 0.278679 -0.284190 -0.917373
vn 0.180625 -0.368836 -0.911776
vn 0.530693 -0.167408 -0.830867
vn 0.694140 -0.112733 -0.710958
vn 0.056397 -0.924959 -0.375860
vn 0.082911 -0.668412 -0.739156
vn 0.090155 -0.455703 -0.885555
vn 0.387948 -0.196813 -0.900423
vn 0.508645 -0.639553 0.576413
vn 0.866394 -0.175474 0.467515
vn 0.995803 0.027157 0.087404
vn 0.847239 -0.031610 -0.530271
vn 0.032319 -0.996942 -0.071147
vn 0.194799 -0.931678 0.306641
vn 0.182421 -0.291223 -0.939102
vn 0.569446 -0.357389 0.740274
vn 0.328320 -0.719987 0.611413
vn 0.276168 -0.208595 -0.938200
vn 0.091139 -0.373499 -0.923143
vn 0.898079 -0.021283 0.439318
vn -0.014150 -0.667456 -0.744514
vn -0.043859 -0.801169 -0.596829
vn 0.674280 -0.209807 0.708045
vn 0.414409 -0.467127 0.781062
vn 0.958357 0.071910 -0.276372
vn 0.523311 -0.073980 -0.848924
vn 0.684212 -0.001114 -0.729282
vn -0.000300 -0.548836 -0.835930
vn -0.090117 -0.920096 -0.381186
vn 0.722924 -0.061034 0.688226
vn 0.249305 -0.520271 0.816802
vn 0.827318 0.103311 -0.552151
vn 0.148450 -0.763257 0.628810
vn 0.180834 -0.212890 -0.960196
vn 0.091524 -0.295459 -0.950961
vn 0.381189 -0.110981 -0.917812
vn 0.907415 0.124684 0.401313
vn 0.000171 -0.955515 0.294944
vn 0.002345 -0.454881 -0.890549
vn -0.146984 -0.985715 -0.082230
vn 0.982734 0.181008 0.038347
vn 0.444062 -0.208110 0.871493
vn 0.739027 0.074867 0.669502
vn 0.311430 -0.280798 0.907835
vn 0.518582 -0.088385 0.850447
vn -0.120637 -0.659324 -0.742118
vn 0.923766 0.224268 -0.310421
vn 0.507912 0.027426 -0.860972
vn 0.270702 -0.122979 -0.954776
vn -0.172380 -0.787967 -0.591095
vn 0.094292 -0.540673 0.835932
vn 0.898081 0.266490 0.349905
vn 0.653328 0.120355 -0.747447
vn 0.000995 -0.373779 -0.927517
vn -0.096895 -0.542288 -0.834587
vn -0.194511 -0.942293 0.272488
vn 0.544070 0.034380 0.838335
vn -0.034616 -0.780557 0.624126
vn 0.091284 -0.215390 -0.972252
vn 0.172711 -0.312354 0.934134
vn 0.000322 -0.296796 -0.954941
vn -0.247755 -0.893016 -0.375686
vn 0.741702 0.199823 0.640273
vn 0.375689 -0.009868 -0.926693
vn 0.774888 0.249328 -0.580849
vn 0.338900 -0.090258 0.936483
vn 0.941531 0.336637 -0.013970
vn -0.093315 -0.449657 -0.888314
vn 0.177315 -0.125100 -0.976171
vn 0.234374 -0.110189 0.965882
vn 0.552658 0.146733 0.820389
vn 0.491354 0.112899 -0.863612
vn -0.233322 -0.639578 -0.732462
vn 0.347863 -0.004687 0.937534
vn 0.736940 0.319701 0.595576
vn -0.213787 -0.773137 0.597121
vn 0.866383 0.409509 0.285801
vn 0.269880 -0.016139 -0.962759
vn 0.046602 -0.321419 0.945790
vn -0.328684 -0.940089 -0.090556
vn 0.362469 0.098697 0.926755
vn 0.853884 0.384961 -0.350267
vn 0.577068 0.235957 -0.781867
vn -0.308843 -0.750184 -0.584670
vn -0.096757 -0.370203 -0.923898
vn -0.059155 -0.548088 0.834326
vn -0.207554 -0.532917 -0.820317
vn 0.001065 -0.217695 -0.976016
vn -0.383851 -0.892156 0.238153
vn 0.119879 -0.121529 0.985322
vn 0.392624 0.127289 -0.910848
vn 0.553504 0.248121 0.795027
vn 0.207551 0.025775 0.977885
vn 0.090153 -0.126367 -0.987878
vn -0.412129 -0.829218 -0.377555
vn 0.669440 0.391173 -0.631533
vn 0.864398 0.497707 -0.071440
vn 0.175495 -0.016717 -0.984338
vn -0.209032 -0.444766 -0.870913
vn 0.722554 0.439270 0.533814
vn -0.073858 -0.325592 0.942621
vn -0.325270 -0.617197 -0.716427
vn -0.099278 -0.294786 -0.950392
vn 0.368115 0.191918 0.909757
vn 0.282818 0.132508 -0.949977
vn 0.799429 0.560757 0.215556
vn -0.390291 -0.739560 0.548383
vn 0.449058 0.301536 -0.841084
vn 0.014490 -0.128101 0.991655
vn 0.209035 0.127079 0.969616
vn -0.208817 -0.548715 0.809510
vn 0.731587 0.545614 -0.408760
vn 0.002347 -0.129873 -0.991528
vn -0.509480 -0.853627 -0.108404
vn -0.436931 -0.671654 -0.598308
vn 0.096896 0.026142 0.994951
vn 0.551896 0.346077 0.758710
vn -0.349462 -0.535280 -0.768994
vn -0.096921 -0.218721 -0.970962
vn -0.213835 -0.364738 -0.906223
vn -0.567179 -0.800752 0.192626
vn 0.087897 -0.017481 -0.995976
vn 0.369445 0.275771 0.887390
vn 0.518167 0.492553 -0.699210
vn 0.214064 0.213231 0.953263
vn 0.179941 0.133404 -0.974590
vn -0.567115 -0.716936 -0.405443
vn 0.671651 0.575461 0.466616
vn 0.736912 0.662372 -0.134996
vn -0.361810 -0.443927 -0.819770
vn 0.315534 0.325671 -0.891278
vn -0.083096 -0.132014 0.987759
vn 0.093311 0.132906 0.986726
vn 0.000302 0.021511 0.999769
vn -0.216246 -0.289056 -0.932569
vn -0.515155 -0.557461 -0.651039
vn 0.543247 0.445483 0.711637
vn -0.193075 -0.327960 0.924751
vn 0.677267 0.719807 0.152271
vn -0.565882 -0.668847 0.482102
vn -0.000300 -0.021511 -0.999769
vn -0.093318 -0.132911 -0.986725
vn -0.359167 -0.536864 0.763398
vn 0.565882 0.668849 -0.482098
vn -0.677270 -0.719803 -0.152279
vn 0.367803 0.357751 0.858333
vn -0.367800 -0.357755 -0.858332
vn 0.083098 0.132014 -0.987759
vn 0.567178 0.800751 -0.192630
vn -0.736915 -0.662370 0.134989
vn 0.515158 0.557459 0.651039
vn 0.359172 0.536854 -0.763402
vn 0.193075 0.327958 -0.924752
vn -0.671653 -0.575466 -0.466606
vn 0.216247 0.289055 0.932569
vn 0.096921 0.218721 0.970962
vn -0.214058 -0.213230 -0.953264
vn -0.543246 -0.445483 -0.711638
vn 0.567113 0.716938 0.405442
vn -0.087896 0.017479 0.995976
vn -0.002346 0.129873 0.991528
vn -0.315535 -0.325670 0.891278
vn -0.096895 -0.026143 -0.994951
vn -0.179941 -0.133402 0.974590
vn 0.361815 0.443926 0.819768
vn -0.799429 -0.560758 -0.215552
vn -0.014491 0.128099 -0.991656
vn -0.209032 -0.127077 -0.969617
vn -0.369444 -0.275772 -0.887390
vn -0.518162 -0.492550 0.699216
vn 0.509481 0.853625 0.108412
vn -0.731588 -0.545616 0.408758
vn -0.722554 -0.439271 -0.533814
vn 0.390298 0.739564 -0.548372
vn 0.213839 0.364734 0.906224
vn -0.551896 -0.346079 -0.758710
vn 0.073860 0.325592 -0.942621
vn 0.208813 0.548716 -0.809511
vn 0.383851 0.892156 -0.238152
vn -0.864396 -0.497710 0.071439
vn 0.349463 0.535280 0.768993
vn -0.001067 0.217692 0.976017
vn 0.436930 0.671656 0.598306
vn -0.090153 0.126366 0.987879
vn 0.099282 0.294786 0.950392
vn -0.368114 -0.191919 -0.909758
vn -0.282815 -0.132512 0.949977
vn -0.207555 -0.025779 -0.977884
vn -0.449053 -0.301535 0.841087
vn -0.119879 0.121530 -0.985322
vn -0.175491 0.016716 0.984339
vn -0.046601 0.321422 -0.945789
vn 0.209034 0.444767 0.870912
vn -0.866384 -0.409510 -0.285798
vn -0.362467 -0.098697 -0.926756
vn 0.412129 0.829214 0.377562
vn -0.553507 -0.248120 -0.795026
vn -0.669440 -0.391169 0.631535
vn 0.325256 0.617200 0.716431
vn 0.328682 0.940090 0.090550
vn 0.213787 0.773149 -0.597106
vn -0.736939 -0.319702 -0.595577
vn 0.059154 0.548082 -0.834330
vn 0.096758 0.370200 0.923899
vn -0.000325 0.296792 0.954942
vn 0.207550 0.532921 0.820316
vn -0.392622 -0.127291 0.910849
vn 0.308841 0.750183 0.584674
vn -0.234377 0.110194 -0.965880
vn -0.853885 -0.384962 0.350263
vn -0.091282 0.215391 0.972252
vn -0.347858 0.004686 -0.937536
vn 0.194518 0.942295 -0.272475
vn -0.577070 -0.235957 0.781866
vn -0.941531 -0.336637 0.013973
vn -0.269878 0.016136 0.962759
vn -0.172714 0.312355 -0.934133
vn -0.552657 -0.146734 -0.820390
vn -0.177314 0.125101 0.976171
vn 0.233321 0.639578 0.732463
vn -0.094290 0.540673 -0.835932
vn -0.898081 -0.266491 -0.349906
vn 0.093311 0.449660 0.888312
vn -0.741702 -0.199823 -0.640272
vn 0.247754 0.893018 0.375683
vn -0.774890 -0.249328 0.580846
vn -0.491355 -0.112902 0.863611
vn -0.338895 0.090257 -0.936485
vn 0.034619 0.780553 -0.624131
vn 0.146989 0.985714 0.082236
vn -0.375695 0.009865 0.926691
vn -0.311432 0.280794 -0.907835
vn 0.096895 0.542289 0.834586
vn -0.544074 -0.034380 -0.838333
vn 0.172382 0.787965 0.591097
vn -0.091525 0.295460 0.950961
vn -0.000998 0.373782 0.927516
vn -0.653324 -0.120350 0.747451
vn -0.518581 0.088386 -0.850448
vn -0.270698 0.122981 0.954776
vn -0.249301 0.520274 -0.816801
vn -0.923767 -0.224267 0.310417
vn -0.982735 -0.181005 -0.038343
vn -0.000167 0.955512 -0.294952
vn -0.907417 -0.124684 -0.401309
vn -0.507911 -0.027424 0.860973
vn 0.120643 0.659323 0.742117
vn -0.180836 0.212889 0.960196
vn -0.444060 0.208114 -0.871492
vn -0.739029 -0.074868 -0.669501
vn -0.002348 0.454880 0.890550
vn -0.148452 0.763255 -0.628812
vn -0.827317 -0.103312 0.552153
vn -0.091139 0.373500 0.923142
vn 0.090118 0.920097 0.381184
vn -0.381190 0.110983 0.917811
vn -0.414409 0.467118 -0.781068
vn -0.182420 0.291223 0.939102
vn -0.032313 0.996943 0.071144
vn -0.722929 0.061035 -0.688221
vn -0.684211 0.001115 0.729283
vn 0.000305 0.548830 0.835934
vn 0.043862 0.801174 0.596822
vn -0.276168 0.208597 0.938200
vn -0.328293 0.719965 -0.611453
vn -0.995803 -0.027155 -0.087399
vn -0.569445 0.357381 -0.740278
vn -0.523314 0.073975 0.848923
vn -0.674283 0.209810 -0.708041
vn -0.958357 -0.071909 0.276370
vn -0.898080 0.021284 -0.439317
vn 0.014152 0.667460 0.744511
vn -0.056391 0.924956 0.375868
vn -0.194785 0.931679 -0.306648
vn -0.090152 0.455701 0.885556
vn -0.180624 0.368835 0.911776
vn -0.387945 0.196817 0.900423
vn -0.847239 0.031611 0.530270
vn -0.278678 0.284186 0.917375
vn -0.508655 0.639548 -0.576410
vn -0.072726 0.802457 0.592262
vn -0.694140 0.112734 0.710958
vn -0.866382 0.175452 -0.467545
vn -0.087895 0.550003 0.830525
vn -0.082907 0.668414 0.739154
vn -0.677686 0.507181 -0.532455
vn -0.530693 0.167408 0.830867
vn -0.799430 0.339875 -0.495375
vn -0.968814 0.073521 0.236630
vn -0.212514 0.975846 0.050626
vn -0.982735 0.127410 -0.134163
vn -0.384216 0.871212 -0.305562
vn -0.177316 0.450108 0.875192
vn -0.390591 0.272504 0.879307
vn -0.205323 0.912142 0.354739
vn -0.275982 0.360039 0.891182
vn -0.852196 0.155242 0.499662
vn -0.958356 0.215866 0.186964
vn -0.532636 0.251174 0.808214
vn -0.175494 0.544035 0.820504
vn -0.941530 0.285286 -0.179257
vn -0.695546 0.213569 0.686006
vn -0.190804 0.795013 0.575802
vn -0.567455 0.769810 -0.292211
vn -0.179624 0.662310 0.727380
vn -0.389784 0.920496 0.027496
vn -0.864398 0.450562 -0.223182
vn -0.270700 0.439732 0.856363
vn -0.387732 0.348331 0.853422
vn -0.736895 0.622181 -0.264342
vn -0.847240 0.274453 0.454820
vn -0.357294 0.876520 0.322573
vn -0.923766 0.360693 0.128675
vn -0.530401 0.333263 0.779494
vn -0.269881 0.532284 0.802395
vn -0.692827 0.310953 0.650615
vn -0.565981 0.824299 0.014008
vn -0.315003 0.774680 0.548310
vn -0.853886 0.515671 0.070441
vn -0.283466 0.648301 0.706649
vn -0.381191 0.428669 0.819107
vn -0.731357 0.681393 0.028648
vn -0.827317 0.398019 0.396394
vn -0.515798 0.803909 0.296113
vn -0.522464 0.419811 0.742153
vn -0.375688 0.517015 0.769126
vn -0.682189 0.412675 0.603587
vn -0.446016 0.729595 0.518421
vn -0.774889 0.534589 0.337286
vn -0.667186 0.681888 0.299818
vn -0.391504 0.622536 0.677624
vn -0.506426 0.511934 0.693871
vn -0.649498 0.524532 0.550472
vn -0.574698 0.642216 0.507228
vn -0.477909 0.595298 0.645928
s 1
g textureEditorIsolateSelectSet R_blackEye Jake
usemtl lambert2SG
f 1/1/1 3/2/2 2/3/3
f 2/3/3 4/4/4 1/1/1
f 3/2/2 5/5/5 2/3/3
f 6/6/6 4/4/4 2/3/3
f 3/2/2 1/1/1 7/7/7
f 8/8/8 2/3/3 5/5/5
f 9/9/9 1/1/1 4/4/4
f 6/6/6 10/10/10 4/4/4
f 7/7/7 11/11/11 3/2/2
f 4/4/4 10/10/10 9/9/9
f 12/12/12 2/3/3 8/8/8
f 2/3/3 12/12/12 6/6/6
f 13/13/13 5/5/5 3/2/2
f 3/2/2 11/11/11 13/13/13
f 14/14/14 7/7/7 1/1/1
f 1/1/1 9/9/9 14/14/14
f 8/8/8 5/5/5 15/15/15
f 6/6/6 16/16/16 10/10/10
f 17/17/17 9/9/9 10/10/10
f 11/11/11 7/7/7 18/18/18
f 15/15/15 19/19/19 8/8/8
f 16/16/16 20/20/20 10/10/10
f 21/21/21 12/12/12 8/8/8
f 10/10/10 20/20/20 17/17/17
f 6/6/6 12/12/12 22/22/22
f 5/5/5 13/13/13 23/23/23
f 21/21/21 8/8/8 19/19/19
f 13/13/13 11/11/11 24/24/24
f 23/23/23 15/15/15 5/5/5
f 18/18/18 25/25/25 11/11/11
f 22/22/22 16/16/16 6/6/6
f 7/7/7 14/14/14 26/26/26
f 27/27/27 14/14/14 9/9/9
f 25/25/25 24/24/24 11/11/11
f 9/9/9 17/17/17 27/27/27
f 26/26/26 18/18/18 7/7/7
f 15/15/15 28/28/28 19/19/19
f 29/29/29 20/20/20 16/16/16
f 12/12/12 21/21/21 30/30/30
f 31/31/31 17/17/17 20/20/20
f 21/21/21 19/19/19 32/32/32
f 30/30/30 22/22/22 12/12/12
f 33/33/33 23/23/23 13/13/13
f 13/13/13 24/24/24 33/33/33
f 25/25/25 18/18/18 34/34/34
f 15/15/15 23/23/23 35/35/35
f 32/32/32 19/19/19 28/28/28
f 29/29/29 36/36/36 20/20/20
f 37/37/37 16/16/16 22/22/22
f 14/14/14 27/27/27 38/38/38
f 38/38/38 26/26/26 14/14/14
f 20/20/20 36/36/36 31/31/31
f 39/39/39 24/24/24 25/25/25
f 35/35/35 28/28/28 15/15/15
f 40/40/40 27/27/27 17/17/17
f 18/18/18 26/26/26 41/41/41
f 37/37/37 29/29/29 16/16/16
f 34/34/34 42/42/42 25/25/25
f 32/32/32 43/43/43 21/21/21
f 21/21/21 43/43/43 30/30/30
f 25/25/25 42/42/42 39/39/39
f 17/17/17 31/31/31 40/40/40
f 41/41/41 34/34/34 18/18/18
f 44/44/44 22/22/22 30/30/30
f 33/33/33 45/45/45 23/23/23
f 46/46/46 33/33/33 24/24/24
f 45/45/45 35/35/35 23/23/23
f 47/47/47 32/48/32 28/49/28
f 44/44/44 37/37/37 22/22/22
f 48/50/48 36/36/36 29/29/29
f 24/24/24 39/39/39 46/46/46
f 43/51/43 32/48/32 47/47/47
f 49/52/49 31/31/31 36/36/36
f 50/53/50 28/49/28 35/54/35
f 51/55/51 30/30/30 43/43/43
f 26/26/26 38/38/38 52/56/52
f 53/57/53 38/38/38 27/27/27
f 52/56/52 41/41/41 26/26/26
f 27/27/27 40/40/40 53/57/53
f 42/42/42 34/34/34 54/58/54
f 39/39/39 42/42/42 55/59/55
f 28/49/28 50/53/50 47/47/47
f 29/29/29 37/37/37 56/60/56
f 48/50/48 57/61/57 36/36/36
f 44/44/44 30/30/30 51/55/51
f 36/36/36 57/61/57 49/52/49
f 58/62/58 40/40/40 31/31/31
f 34/34/34 41/41/41 59/63/59
f 51/64/51 43/51/43 60/65/60
f 47/47/47 60/65/60 43/51/43
f 56/60/56 48/50/48 29/29/29
f 54/58/54 55/59/55 42/42/42
f 61/66/61 35/54/35 45/67/45
f 35/54/35 61/66/61 50/53/50
f 31/31/31 49/52/49 58/62/58
f 62/68/62 45/45/45 33/33/33
f 59/63/59 54/58/54 34/34/34
f 46/46/46 39/39/39 63/69/63
f 33/33/33 46/46/46 62/68/62
f 55/59/55 63/69/63 39/39/39
f 64/70/64 37/37/37 44/44/44
f 51/55/51 65/71/65 44/44/44
f 66/72/66 52/56/52 38/38/38
f 38/38/38 53/57/53 66/72/66
f 67/73/67 47/47/47 50/53/50
f 64/70/64 56/60/56 37/37/37
f 60/65/60 68/74/68 51/64/51
f 41/41/41 52/56/52 69/75/69
f 70/76/70 53/57/53 40/40/40
f 45/67/45 71/77/71 61/66/61
f 72/78/72 49/52/49 57/61/57
f 73/79/73 57/61/57 48/50/48
f 61/66/61 74/80/74 50/53/50
f 69/75/69 59/63/59 41/41/41
f 75/81/75 60/65/60 47/47/47
f 40/40/40 58/62/58 70/76/70
f 65/82/65 51/64/51 68/74/68
f 63/69/63 76/83/76 46/46/46
f 71/77/71 45/67/45 62/84/62
f 55/59/55 54/58/54 77/85/77
f 65/71/65 64/70/64 44/44/44
f 62/68/62 46/46/46 76/83/76
f 50/53/50 74/80/74 67/73/67
f 78/86/78 63/69/63 55/59/55
f 58/62/58 49/52/49 79/87/79
f 77/85/77 54/58/54 59/63/59
f 80/88/80 48/50/48 56/60/56
f 47/47/47 67/73/67 75/81/75
f 73/79/73 72/78/72 57/61/57
f 72/78/72 79/87/79 49/52/49
f 81/89/81 61/66/61 71/77/71
f 74/80/74 61/66/61 81/89/81
f 77/85/77 78/86/78 55/59/55
f 80/88/80 73/79/73 48/50/48
f 82/90/82 68/74/68 60/65/60
f 76/83/76 63/69/63 83/91/83
f 68/74/68 84/92/84 65/82/65
f 52/56/52 66/72/66 85/93/85
f 86/94/86 66/72/66 53/57/53
f 87/95/87 59/63/59 69/75/69
f 60/65/60 75/81/75 82/90/82
f 85/93/85 69/75/69 52/56/52
f 62/84/62 88/96/88 71/77/71
f 63/69/63 78/86/78 83/91/83
f 59/63/59 87/95/87 77/85/77
f 89/97/89 64/70/64 65/71/65
f 53/57/53 70/76/70 86/94/86
f 90/98/90 70/76/70 58/62/58
f 91/99/91 56/60/56 64/70/64
f 79/87/79 90/98/90 58/62/58
f 76/83/76 92/100/92 62/68/62
f 93/101/93 67/73/67 74/80/74
f 89/102/89 65/82/65 84/92/84
f 91/99/91 80/88/80 56/60/56
f 71/77/71 94/103/94 81/89/81
f 95/104/95 75/81/75 67/73/67
f 96/105/96 74/80/74 81/89/81
f 97/106/97 72/78/72 73/79/73
f 72/78/72 97/106/97 79/87/79
f 88/96/88 94/103/94 71/77/71
f 83/91/83 98/107/98 76/83/76
f 78/86/78 77/85/77 99/108/99
f 98/107/98 92/100/92 76/83/76
f 69/75/69 100/109/100 87/95/87
f 74/80/74 96/105/96 93/101/93
f 80/88/80 101/110/101 73/79/73
f 102/111/102 84/92/84 68/74/68
f 103/112/103 88/96/88 62/84/62
f 77/85/77 87/95/87 99/108/99
f 67/73/67 93/101/93 95/104/95
f 62/84/62 92/113/92 103/112/103
f 83/91/83 78/86/78 104/114/104
f 90/98/90 105/115/105 70/76/70
f 68/74/68 82/90/82 102/111/102
f 100/109/100 69/75/69 85/93/85
f 79/87/79 106/116/106 90/98/90
f 107/117/107 64/70/64 89/97/89
f 73/79/73 101/110/101 97/106/97
f 108/118/108 81/89/81 94/103/94
f 97/106/97 106/116/106 79/87/79
f 99/108/99 104/114/104 78/86/78
f 84/92/84 109/119/109 89/102/89
f 81/89/81 108/118/108 96/105/96
f 107/117/107 91/99/91 64/70/64
f 110/120/110 85/93/85 66/72/66
f 82/90/82 75/81/75 111/121/111
f 66/72/66 86/94/86 110/120/110
f 112/122/112 86/94/86 70/76/70
f 111/121/111 75/81/75 95/104/95
f 113/123/113 80/88/80 91/99/91
f 94/103/94 88/96/88 114/124/114
f 87/95/87 100/109/100 115/125/115
f 99/108/99 87/95/87 115/125/115
f 98/107/98 83/91/83 116/126/116
f 113/123/113 101/110/101 80/88/80
f 70/76/70 105/115/105 112/122/112
f 104/114/104 116/126/116 83/91/83
f 117/127/117 93/101/93 96/105/96
f 92/100/92 98/107/98 118/128/118
f 84/92/84 102/111/102 109/119/109
f 90/98/90 119/129/119 105/115/105
f 106/116/106 119/129/119 90/98/90
f 85/93/85 120/130/120 100/109/100
f 121/131/121 95/104/95 93/101/93
f 94/103/94 122/132/122 108/118/108
f 104/114/104 99/108/99 123/133/123
f 122/132/122 94/103/94 114/124/114
f 124/134/124 97/106/97 101/110/101
f 96/105/96 125/135/125 117/127/117
f 93/101/93 117/127/117 121/131/121
f 120/130/120 85/93/85 110/120/110
f 103/112/103 126/136/126 88/96/88
f 124/134/124 106/116/106 97/106/97
f 123/133/123 99/108/99 115/125/115
f 127/137/127 89/102/89 109/119/109
f 128/138/128 103/112/103 92/113/92
f 126/136/126 114/124/114 88/96/88
f 100/109/100 129/139/129 115/125/115
f 130/140/130 102/111/102 82/90/82
f 91/99/91 131/141/131 113/123/113
f 96/105/96 108/118/108 132/142/132
f 127/137/127 107/143/107 89/102/89
f 116/126/116 133/144/133 98/107/98
f 92/113/92 118/145/118 128/138/128
f 118/128/118 98/107/98 133/144/133
f 82/90/82 111/121/111 130/140/130
f 120/130/120 129/139/129 100/109/100
f 134/146/134 116/126/116 104/114/104
f 135/147/135 101/110/101 113/123/113
f 119/129/119 136/148/136 105/115/105
f 132/142/132 125/135/125 96/105/96
f 137/149/137 109/119/109 102/111/102
f 119/129/119 106/116/106 138/150/138
f 123/133/123 134/146/134 104/114/104
f 139/151/139 110/120/110 86/94/86
f 105/115/105 136/148/136 112/122/112
f 91/99/91 107/117/107 140/152/140
f 141/153/141 111/121/111 95/104/95
f 86/94/86 112/122/112 139/151/139
f 101/110/101 135/147/135 124/134/124
f 132/142/132 108/118/108 122/132/122
f 124/134/124 138/150/138 106/116/106
f 115/125/115 142/154/142 123/133/123
f 95/104/95 121/131/121 141/153/141
f 115/125/115 129/139/129 142/154/142
f 140/152/140 131/141/131 91/99/91
f 114/124/114 143/155/143 122/132/122
f 144/156/144 117/127/117 125/135/125
f 127/137/127 109/119/109 137/149/137
f 110/120/110 145/157/145 120/130/120
f 144/156/144 121/131/121 117/127/117
f 146/158/146 113/123/113 131/141/131
f 133/144/133 116/126/116 147/159/147
f 134/146/134 123/133/123 142/154/142
f 116/126/116 134/146/134 147/159/147
f 113/123/113 146/158/146 135/147/135
f 143/155/143 114/124/114 126/136/126
f 133/144/133 148/160/148 118/128/118
f 120/130/120 149/161/149 129/139/129
f 150/162/150 136/148/136 119/129/119
f 138/150/138 150/162/150 119/129/119
f 151/163/151 126/136/126 103/112/103
f 152/164/152 137/149/137 102/111/102
f 103/112/103 128/138/128 151/163/151
f 153/165/153 124/134/124 135/147/135
f 136/148/136 154/166/154 112/122/112
f 152/164/152 102/111/102 130/140/130
f 124/134/124 153/165/153 138/150/138
f 149/161/149 120/130/120 145/157/145
f 122/132/122 155/167/155 132/142/132
f 129/139/129 156/168/156 142/154/142
f 143/155/143 155/167/155 122/132/122
f 157/169/157 128/138/128 118/145/118
f 158/170/158 107/143/107 127/137/127
f 142/154/142 159/171/159 134/146/134
f 160/172/160 130/140/130 111/121/111
f 161/173/161 125/135/125 132/142/132
f 160/172/160 111/121/111 141/153/141
f 156/168/156 129/139/129 149/161/149
f 118/145/118 148/174/148 157/169/157
f 147/159/147 134/146/134 159/171/159
f 158/170/158 140/175/140 107/143/107
f 161/173/161 144/156/144 125/135/125
f 137/149/137 162/176/162 127/137/127
f 147/159/147 163/177/163 133/144/133
f 164/178/164 145/157/145 110/120/110
f 131/141/131 165/179/165 146/158/146
f 110/120/110 139/151/139 164/178/164
f 163/177/163 148/160/148 133/144/133
f 146/158/146 166/180/166 135/147/135
f 167/181/167 141/153/141 121/131/121
f 144/156/144 167/181/167 121/131/121
f 126/136/126 168/182/168 143/155/143
f 135/147/135 166/180/166 153/165/153
f 138/150/138 169/183/169 150/162/150
f 159/171/159 142/154/142 156/168/156
f 170/184/170 139/151/139 112/122/112
f 153/165/153 169/183/169 138/150/138
f 150/162/150 171/185/171 136/148/136
f 112/122/112 154/166/154 170/184/170
f 154/166/154 136/148/136 171/185/171
f 172/186/172 131/141/131 140/152/140
f 162/176/162 137/149/137 152/164/152
f 168/182/168 126/136/126 151/163/151
f 145/157/145 173/187/173 149/161/149
f 127/137/127 162/176/162 158/170/158
f 172/186/172 165/179/165 131/141/131
f 174/188/174 155/167/155 143/155/143
f 153/165/153 166/180/166 169/183/169
f 159/171/159 175/189/175 147/159/147
f 176/190/176 132/142/132 155/167/155
f 163/177/163 147/159/147 175/189/175
f 149/161/149 177/191/177 156/168/156
f 174/188/174 143/155/143 168/182/168
f 178/192/178 166/180/166 146/158/146
f 178/192/178 146/158/146 165/179/165
f 151/163/151 128/138/128 179/193/179
f 176/190/176 161/173/161 132/142/132
f 148/160/148 163/177/163 180/194/180
f 169/183/169 181/195/181 150/162/150
f 156/168/156 182/196/182 159/171/159
f 183/197/183 152/164/152 130/140/130
f 157/169/157 179/193/179 128/138/128
f 150/162/150 181/195/181 171/185/171
f 130/140/130 160/172/160 183/197/183
f 149/161/149 173/187/173 177/191/177
f 144/156/144 161/173/161 184/198/184
f 185/199/185 160/172/160 141/153/141
f 171/185/171 186/200/186 154/166/154
f 187/201/187 169/183/169 166/180/166
f 185/199/185 141/153/141 167/181/167
f 182/196/182 175/189/175 159/171/159
f 184/198/184 167/181/167 144/156/144
f 177/191/177 182/196/182 156/168/156
f 151/163/151 188/202/188 168/182/168
f 152/164/152 189/203/189 162/176/162
f 190/204/190 157/169/157 148/174/148
f 191/205/191 140/175/140 158/170/158
f 176/190/176 155/167/155 174/188/174
f 145/157/145 164/178/164 192/206/192
f 186/200/186 170/184/170 154/166/154
f 192/206/192 173/187/173 145/157/145
f 193/207/193 164/178/164 139/151/139
f 194/208/194 158/170/158 162/176/162
f 187/201/187 166/180/166 178/192/178
f 139/151/139 170/184/170 193/207/193
f 181/195/181 169/183/169 187/201/187
f 148/174/148 180/209/180 190/204/190
f 191/205/191 172/210/172 140/175/140
f 175/189/175 195/211/195 163/177/163
f 165/179/165 196/212/196 178/192/178
f 168/182/168 197/213/197 174/188/174
f 194/208/194 162/176/162 189/203/189
f 189/203/189 152/164/152 183/197/183
f 181/195/181 198/214/198 171/185/171
f 188/202/188 197/213/197 168/182/168
f 171/185/171 198/214/198 186/200/186
f 173/187/173 199/215/199 177/191/177
f 200/216/200 180/194/180 163/177/163
f 165/179/165 172/186/172 201/217/201
f 202/218/202 188/202/188 151/163/151
f 182/196/182 203/219/203 175/189/175
f 191/205/191 158/170/158 194/208/194
f 151/163/151 179/193/179 202/218/202
f 177/191/177 204/220/204 182/196/182
f 187/201/187 178/192/178 205/221/205
f 174/188/174 206/222/206 176/190/176
f 163/177/163 195/211/195 200/216/200
f 161/173/161 176/190/176 207/223/207
f 201/217/201 196/212/196 165/179/165
f 186/200/186 208/224/208 170/184/170
f 187/201/187 209/225/209 181/195/181
f 195/211/195 175/189/175 203/219/203
f 210/226/210 179/193/179 157/169/157
f 206/222/206 174/188/174 197/213/197
f 207/223/207 184/198/184 161/173/161
f 211/227/211 183/197/183 160/172/160
f 185/199/185 211/227/211 160/172/160
f 157/169/157 190/204/190 210/226/210
f 181/195/181 209/225/209 198/214/198
f 204/220/204 177/191/177 199/215/199
f 212/228/212 167/181/167 184/198/184
f 212/228/212 185/199/185 167/181/167
f 204/220/204 203/219/203 182/196/182
f 189/203/189 213/229/213 194/208/194
f 214/230/214 192/206/192 164/178/164
f 164/178/164 193/207/193 214/230/214
f 183/197/183 215/231/215 189/203/189
f 197/213/197 188/202/188 216/232/216
f 178/192/178 196/212/196 217/233/217
f 173/187/173 192/206/192 218/234/218
f 218/234/218 199/215/199 173/187/173
f 219/235/219 193/207/193 170/184/170
f 198/214/198 220/236/220 186/200/186
f 217/233/217 205/221/205 178/192/178
f 194/208/194 221/237/221 191/205/191
f 216/232/216 188/202/188 202/218/202
f 206/222/206 207/223/207 176/190/176
f 222/238/222 190/204/190 180/209/180
f 170/184/170 208/224/208 219/235/219
f 223/239/223 172/210/172 191/205/191
f 186/200/186 220/236/220 208/224/208
f 202/218/202 179/193/179 210/226/210
f 215/231/215 213/229/213 189/203/189
f 187/201/187 205/221/205 224/240/224
f 203/219/203 225/241/225 195/211/195
f 221/237/221 194/208/194 213/229/213
f 224/240/224 209/225/209 187/201/187
f 180/209/180 200/242/200 222/238/222
f 223/239/223 201/243/201 172/210/172
f 215/231/215 183/197/183 211/227/211
f 197/213/197 226/244/226 206/222/206
f 198/214/198 209/225/209 227/245/227
f 226/244/226 197/213/197 216/232/216
f 199/215/199 228/246/228 204/220/204
f 204/220/204 229/247/229 203/219/203
f 220/236/220 198/214/198 227/245/227
f 210/226/210 190/204/190 222/238/222
f 221/237/221 223/239/223 191/205/191
f 230/248/230 200/216/200 195/211/195
f 196/212/196 201/217/201 231/249/231
f 202/218/202 232/250/232 216/232/216
f 233/251/233 184/198/184 207/223/207
f 210/226/210 234/252/234 202/218/202
f 229/247/229 225/241/225 203/219/203
f 233/251/233 212/228/212 184/198/184
f 235/253/235 211/227/211 185/199/185
f 236/254/236 207/223/207 206/222/206
f 185/199/185 212/228/212 235/253/235
f 220/236/220 237/255/237 208/224/208
f 195/211/195 225/241/225 230/248/230
f 231/249/231 217/233/217 196/212/196
f 204/220/204 228/246/228 229/247/229
f 209/225/209 224/240/224 227/245/227
f 238/256/238 213/229/213 215/231/215
f 239/257/239 214/230/214 193/207/193
f 213/229/213 240/258/240 221/237/221
f 192/206/192 214/230/214 241/259/241
f 234/252/234 232/250/232 202/218/202
f 236/254/236 206/222/206 226/244/226
f 241/259/241 218/234/218 192/206/192
f 193/207/193 219/235/219 239/257/239
f 211/227/211 242/260/242 215/231/215
f 199/215/199 218/234/218 243/261/243
f 216/232/216 244/262/244 226/244/226
f 245/263/245 205/221/205 217/233/217
f 243/261/243 228/246/228 199/215/199
f 240/258/240 213/229/213 238/256/238
f 244/262/244 216/232/216 232/250/232
f 231/264/231 201/243/201 223/239/223
f 246/265/246 219/235/219 208/224/208
f 245/263/245 224/240/224 205/221/205
f 222/238/222 247/266/247 210/226/210
f 234/252/234 210/226/210 247/266/247
f 227/245/227 248/267/248 220/236/220
f 238/256/238 215/231/215 242/260/242
f 223/239/223 221/237/221 249/268/249
f 208/224/208 237/255/237 246/265/246
f 249/268/249 221/237/221 240/258/240
f 232/250/232 234/252/234 250/269/250
f 248/267/248 237/255/237 220/236/220
f 251/270/251 222/238/222 200/242/200
f 229/247/229 252/271/252 225/241/225
f 242/260/242 211/227/211 235/253/235
f 224/240/224 253/272/253 227/245/227
f 228/246/228 254/273/254 229/247/229
f 200/242/200 230/274/230 251/270/251
f 226/244/226 255/275/255 236/254/236
f 256/276/256 207/223/207 236/254/236
f 244/262/244 255/275/255 226/244/226
f 257/277/257 232/250/232 250/269/250
f 256/276/256 233/251/233 207/223/207
f 238/256/238 258/278/258 240/258/240
f 232/250/232 257/277/257 244/262/244
f 259/279/259 250/269/250 234/252/234
f 227/245/227 253/272/253 248/267/248
f 214/230/214 239/257/239 260/280/260
f 260/280/260 241/259/241 214/230/214
f 247/266/247 259/279/259 234/252/234
f 223/239/223 261/281/261 231/264/231
f 233/251/233 262/282/262 212/228/212
f 251/270/251 247/266/247 222/238/222
f 262/282/262 235/253/235 212/228/212
f 249/268/249 261/281/261 223/239/223
f 252/271/252 229/247/229 254/273/254
f 263/283/263 239/257/239 219/235/219
f 264/284/264 230/248/230 225/241/225
f 240/258/240 265/285/265 249/268/249
f 217/233/217 231/249/231 266/286/266
f 242/260/242 267/287/267 238/256/238
f 241/259/241 268/288/268 218/234/218
f 219/235/219 246/265/246 263/283/263
f 243/261/243 218/234/218 268/288/268
f 240/258/240 258/278/258 265/285/265
f 225/241/225 252/271/252 264/284/264
f 266/286/266 245/263/245 217/233/217
f 248/267/248 269/289/269 237/255/237
f 258/278/258 238/256/238 267/287/267
f 246/265/246 237/255/237 269/289/269
f 235/253/235 270/290/270 242/260/242
f 250/269/250 271/291/271 257/277/257
f 228/246/228 243/261/243 272/292/272
f 256/276/256 236/254/236 255/275/255
f 250/269/250 259/279/259 271/291/271
f 224/240/224 245/263/245 273/293/273
f 272/292/272 254/273/254 228/246/228
f 273/293/273 253/272/253 224/240/224
f 274/294/274 244/262/244 257/277/257
f 274/294/274 255/275/255 244/262/244
f 270/290/270 267/287/267 242/260/242
f 266/295/266 231/264/231 261/281/261
f 253/272/253 275/296/275 248/267/248
f 259/279/259 247/266/247 276/297/276
f 249/268/249 265/285/265 277/298/277
f 258/278/258 278/299/278 265/285/265
f 277/298/277 261/281/261 249/268/249
f 247/266/247 251/270/251 276/297/276
f 279/300/279 260/280/260 239/257/239
f 270/290/270 235/253/235 262/282/262
f 254/273/254 280/301/280 252/271/252
f 239/257/239 263/283/263 279/300/279
f 248/267/248 275/296/275 269/289/269
f 281/302/281 251/270/251 230/274/230
f 267/287/267 282/303/282 258/278/258
f 241/259/241 260/280/260 283/304/283
f 278/299/278 258/278/258 282/303/282
f 271/291/271 284/305/284 257/277/257
f 269/289/269 285/306/285 246/265/246
f 286/307/286 271/291/271 259/279/259
f 233/251/233 256/276/256 287/308/287
f 283/304/283 268/288/268 241/259/241
f 230/274/230 264/309/264 281/302/281
f 255/275/255 288/310/288 256/276/256
f 287/308/287 262/282/262 233/251/233
f 265/285/265 278/299/278 289/311/289
f 257/277/257 284/305/284 274/294/274
f 272/292/272 280/301/280 254/273/254
f 290/312/290 263/283/263 246/265/246
f 288/310/288 255/275/255 274/294/274
f 276/297/276 286/307/286 259/279/259
f 277/298/277 265/285/265 289/311/289
f 291/313/291 267/287/267 270/290/270
f 243/261/243 268/288/268 292/314/292
f 261/281/261 293/315/293 266/295/266
f 245/263/245 266/286/266 294/316/294
f 277/298/277 293/315/293 261/281/261
f 295/317/295 264/284/264 252/271/252
f 246/265/246 285/306/285 290/312/290
f 276/297/276 251/270/251 281/302/281
f 292/314/292 272/292/272 243/261/243
f 282/303/282 267/287/267 291/313/291
f 296/318/296 275/296/275 253/272/253
f 294/316/294 273/293/273 245/263/245
f 252/271/252 280/301/280 295/317/295
f 282/303/282 297/319/297 278/299/278
f 298/320/298 284/305/284 271/291/271
f 296/318/296 253/272/253 273/293/273
f 262/282/262 299/321/299 270/290/270
f 260/280/260 279/300/279 300/322/300
f 279/300/279 263/283/263 290/312/290
f 271/291/271 286/307/286 298/320/298
f 275/296/275 301/323/301 269/289/269
f 278/299/278 297/319/297 289/311/289
f 269/289/269 301/323/301 285/306/285
f 283/304/283 260/280/260 300/322/300
f 291/313/291 270/290/270 299/321/299
f 302/324/302 274/294/274 284/305/284
f 274/294/274 302/324/302 288/310/288
f 272/292/272 303/325/303 280/301/280
f 294/326/294 266/295/266 293/315/293
f 290/312/290 300/322/300 279/300/279
f 304/327/304 277/298/277 289/311/289
f 256/276/256 288/310/288 305/328/305
f 286/307/286 276/297/276 306/329/306
f 304/327/304 293/315/293 277/298/277
f 307/330/307 297/319/297 282/303/282
f 291/313/291 307/330/307 282/303/282
f 301/323/301 275/296/275 296/318/296
f 281/302/281 306/329/306 276/297/276
f 268/288/268 283/304/283 308/331/308
f 305/328/305 287/308/287 256/276/256
f 309/332/309 262/282/262 287/308/287
f 308/331/308 292/314/292 268/288/268
f 309/332/309 299/321/299 262/282/262
f 310/333/310 281/302/281 264/309/264
f 285/306/285 311/334/311 290/312/290
f 295/317/295 280/301/280 303/325/303
f 312/335/312 289/311/289 297/319/297
f 313/336/313 284/305/284 298/320/298
f 311/334/311 285/306/285 301/323/301
f 298/320/298 286/307/286 314/337/314
f 264/309/264 295/338/295 310/333/310
f 284/305/284 313/336/313 302/324/302
f 299/321/299 315/339/315 291/313/291
f 272/292/272 292/314/292 316/340/316
f 302/324/302 305/328/305 288/310/288
f 289/311/289 312/335/312 304/327/304
f 273/293/273 294/316/294 317/341/317
f 283/304/283 300/322/300 318/342/318
f 297/319/297 307/330/307 319/343/319
f 317/341/317 296/318/296 273/293/273
f 303/325/303 272/292/272 316/340/316
f 306/329/306 314/337/314 286/307/286
f 320/344/320 300/322/300 290/312/290
f 307/330/307 291/313/291 315/339/315
f 293/315/293 321/345/321 294/326/294
f 297/319/297 319/343/319 312/335/312
f 304/327/304 321/345/321 293/315/293
f 296/318/296 322/346/322 301/323/301
f 298/320/298 323/347/323 313/336/313
f 314/337/314 323/347/323 298/320/298
f 320/344/320 290/312/290 311/334/311
f 318/342/318 308/331/308 283/304/283
f 311/334/311 301/323/301 322/346/322
f 324/348/324 306/329/306 281/302/281
f 303/325/303 325/349/325 295/317/295
f 318/342/318 300/322/300 320/344/320
f 317/350/317 294/326/294 321/345/321
f 326/351/326 302/324/302 313/336/313
f 281/302/281 310/333/310 324/348/324
f 326/351/326 305/328/305 302/324/302
f 327/352/327 287/308/287 305/328/305
f 310/333/310 295/338/295 325/353/325
f 319/343/319 307/330/307 328/354/328
f 329/355/329 304/327/304 312/335/312
f 317/341/317 322/346/322 296/318/296
f 330/356/330 315/339/315 299/321/299
f 292/314/292 308/331/308 331/357/331
f 315/339/315 328/354/328 307/330/307
f 327/352/327 309/332/309 287/308/287
f 299/321/299 309/332/309 330/356/330
f 325/349/325 303/325/303 316/340/316
f 329/355/329 321/345/321 304/327/304
f 331/357/331 316/340/316 292/314/292
f 332/358/332 314/337/314 306/329/306
f 333/359/333 312/335/312 319/343/319
f 320/344/320 311/334/311 334/360/334
f 322/346/322 334/360/334 311/334/311
f 323/347/323 335/361/335 313/336/313
f 336/362/336 323/347/323 314/337/314
f 308/331/308 318/342/318 337/363/337
f 306/329/306 324/348/324 332/358/332
f 328/354/328 338/364/338 319/343/319
f 313/336/313 335/361/335 326/351/326
f 312/335/312 333/359/333 329/355/329
f 318/342/318 320/344/320 339/365/339
f 321/345/321 340/366/340 317/350/317
f 325/353/325 341/367/341 310/333/310
f 319/343/319 338/364/338 333/359/333
f 342/368/342 322/346/322 317/341/317
f 329/355/329 340/366/340 321/345/321
f 325/349/325 316/340/316 343/369/343
f 344/370/344 305/328/305 326/351/326
f 331/357/331 308/331/308 337/363/337
f 345/371/345 328/354/328 315/339/315
f 339/365/339 320/344/320 334/360/334
f 314/337/314 332/358/332 336/362/336
f 336/362/336 335/361/335 323/347/323
f 342/368/342 334/360/334 322/346/322
f 344/370/344 327/352/327 305/328/305
f 345/371/345 315/339/315 330/356/330
f 343/369/343 316/340/316 331/357/331
f 346/372/346 324/348/324 310/333/310
f 339/365/339 337/363/337 318/342/318
f 327/352/327 347/373/347 309/332/309
f 347/373/347 330/356/330 309/332/309
f 341/367/341 325/353/325 343/374/343
f 310/333/310 341/367/341 346/372/346
f 348/375/348 329/355/329 333/359/333
f 317/350/317 340/366/340 349/376/349
f 348/375/348 340/366/340 329/355/329
f 350/377/350 338/364/338 328/354/328
f 349/376/349 342/378/342 317/350/317
f 351/379/351 326/351/326 335/361/335
f 352/380/352 339/365/339 334/360/334
f 352/380/352 334/360/334 342/368/342
f 353/381/353 333/359/333 338/364/338
f 354/382/354 332/358/332 324/348/324
f 337/363/337 355/383/355 331/357/331
f 343/369/343 331/357/331 355/383/355
f 328/354/328 345/371/345 350/377/350
f 351/379/351 344/370/344 326/351/326
f 356/384/356 335/361/335 336/362/336
f 343/374/343 357/385/357 341/367/341
f 356/384/356 336/362/336 332/358/332
f 324/348/324 346/372/346 354/382/354
f 358/386/358 337/363/337 339/365/339
f 333/359/333 353/381/353 348/375/348
f 353/381/353 338/364/338 350/377/350
f 327/352/327 344/370/344 359/387/359
f 360/388/360 345/371/345 330/356/330
f 359/387/359 347/373/347 327/352/327
f 360/388/360 330/356/330 347/373/347
f 357/385/357 343/374/343 355/389/355
f 358/386/358 339/365/339 352/380/352
f 356/384/356 351/379/351 335/361/335
f 355/383/355 337/363/337 361/390/361
f 340/366/340 348/375/348 362/391/362
f 332/358/332 354/382/354 356/384/356
f 363/392/363 346/372/346 341/367/341
f 361/390/361 337/363/337 358/386/358
f 364/393/364 352/394/352 342/378/342
f 362/391/362 349/376/349 340/366/340
f 364/393/364 342/378/342 349/376/349
f 341/367/341 357/385/357 363/392/363
f 365/395/365 350/377/350 345/371/345
f 351/379/351 366/396/366 344/370/344
f 348/375/348 353/381/353 367/397/367
f 357/385/357 355/389/355 368/398/368
f 368/398/368 355/389/355 361/399/361
f 367/397/367 353/381/353 350/377/350
f 369/400/369 354/382/354 346/372/346
f 360/388/360 365/395/365 345/371/345
f 366/396/366 359/387/359 344/370/344
f 370/401/370 358/402/358 352/394/352
f 367/397/367 362/391/362 348/375/348
f 351/379/351 356/384/356 371/403/371
f 372/404/372 360/388/360 347/373/347
f 372/404/372 347/373/347 359/387/359
f 346/372/346 363/392/363 369/400/369
f 371/403/371 356/384/356 354/382/354
f 373/405/373 361/399/361 358/402/358
f 352/394/352 364/393/364 370/401/370
f 367/397/367 350/377/350 365/395/365
f 349/376/349 362/391/362 374/406/374
f 374/406/374 364/393/364 349/376/349
f 375/407/375 363/392/363 357/385/357
f 361/399/361 373/405/373 368/398/368
f 371/403/371 366/396/366 351/379/351
f 357/385/357 368/398/368 375/407/375
f 354/382/354 369/400/369 371/403/371
f 373/405/373 358/402/358 370/401/370
f 376/408/376 365/395/365 360/388/360
f 377/409/377 359/387/359 366/396/366
f 378/410/378 362/391/362 367/397/367
f 359/387/359 377/409/377 372/404/372
f 360/388/360 372/404/372 376/408/376
f 379/411/379 369/400/369 363/392/363
f 365/395/365 378/410/378 367/397/367
f 380/412/380 370/401/370 364/393/364
f 378/410/378 374/406/374 362/391/362
f 368/398/368 373/405/373 381/413/381
f 364/393/364 374/406/374 380/412/380
f 363/392/363 375/407/375 379/411/379
f 382/414/382 366/396/366 371/403/371
f 381/413/381 375/407/375 368/398/368
f 382/414/382 371/403/371 369/400/369
f 381/413/381 373/405/373 370/401/370
f 376/408/376 378/410/378 365/395/365
f 366/396/366 382/414/382 377/409/377
f 369/400/369 379/411/379 382/414/382
f 370/401/370 380/412/380 381/413/381
f 377/409/377 383/415/383 372/404/372
f 383/415/383 376/408/376 372/404/372
f 374/406/374 378/410/378 384/416/384
f 384/416/384 380/412/380 374/406/374
f 385/417/385 379/411/379 375/407/375
f 375/407/375 381/413/381 385/417/385
f 377/409/377 382/414/382 386/418/386
f 376/408/376 384/416/384 378/410/378
f 386/418/386 382/414/382 379/411/379
f 386/418/386 383/415/383 377/409/377
f 385/417/385 381/413/381 380/412/380
f 383/415/383 384/416/384 376/408/376
f 379/411/379 385/417/385 386/418/386
f 385/417/385 380/412/380 384/416/384
f 386/418/386 385/417/385 383/415/383
f 384/416/384 383/415/383 385/417/385
