# This file uses centimeters as units for non-parametric coordinates.

mtllib R_leg.mtl
g default
v -1.826148 0.064546 0.237924
v -1.485684 0.063943 0.411168
v -1.498037 0.191090 0.447625
v -1.307619 0.064245 0.762779
v -1.648986 0.040743 0.519936
v -1.494121 0.040743 0.755548
v -1.832173 0.191691 0.282817
v -1.324492 0.190186 0.789594
v -1.859892 0.040743 0.458170
v -1.302196 0.064245 0.998090
v -1.510089 0.374276 0.495230
v -1.492915 0.040743 0.951691
v -1.611927 0.040743 0.763984
v -1.723406 0.040743 0.656121
v -1.864412 0.040743 0.582906
v -2.233799 0.064245 0.326806
v -1.300689 0.189884 1.010745
v -1.332627 0.372770 0.803153
v -1.830667 0.374879 0.348499
v -1.647781 0.040743 0.898362
v -1.802948 0.040743 0.803755
v -1.340460 0.064245 1.232498
v -1.517019 0.565900 0.540122
v -2.084055 0.040743 0.541026
v -1.536301 0.040743 1.162899
v -1.298580 0.369455 1.031233
v -2.233197 0.189282 0.362057
v -1.822532 0.565900 0.413880
v -1.976493 0.040743 0.681731
v -1.332627 0.563791 0.809781
v -2.197644 0.378494 0.417194
v -1.713162 0.040743 1.090889
v -1.358839 0.190186 1.231895
v -1.899964 0.040743 0.988449
v -2.269051 0.040743 0.694385
v -1.295266 0.552944 1.052022
v -2.115390 0.040743 0.842622
v -1.601683 0.040743 1.381940
v -1.519030 0.949347 0.619308
v -1.374506 0.365237 1.240934
v -1.424822 0.190488 1.428339
v -2.431148 0.189282 0.498243
v -1.395597 0.064546 1.434064
v -2.149436 0.582170 0.476248
v -2.453443 0.064546 0.485889
v -1.798752 0.950955 0.528084
v -1.326470 0.943094 0.841252
v -1.791800 0.040743 1.313546
v -1.471222 0.361923 1.420807
v -2.004212 0.040743 1.209901
v -1.380833 0.539386 1.255998
v -1.463690 0.064546 1.627194
v -2.409153 0.373071 0.561514
v -1.485986 0.190186 1.605802
v -2.279295 0.040743 1.048708
v -1.282323 0.936663 1.091958
v -2.441994 0.040743 0.896855
v -2.629399 0.064245 0.683539
v -1.687551 0.040743 1.620264
v -1.510559 1.230411 0.669108
v -2.083312 0.948275 0.574067
v -1.519731 0.532758 1.414479
v -1.559200 0.362526 1.587122
v -2.385351 0.568612 0.651902
v -1.313840 1.230110 0.877391
v -1.777476 1.230411 0.592836
v -1.884900 0.040743 1.560005
v -2.620361 0.189282 0.712764
v -2.110569 0.040743 1.462988
v -1.376449 0.932554 1.294241
v -1.636030 0.064546 1.993266
v -1.656819 0.188980 1.956810
v -1.270525 1.229808 1.123038
v -2.402223 0.040743 1.326502
v -1.671282 0.522513 1.594353
v -1.816205 0.040743 1.901673
v -2.627290 0.040743 1.179168
v -1.495335 1.567761 0.719905
v -2.602885 0.370058 0.813698
v -2.857178 0.064245 1.061061
v -1.721598 0.355295 1.914930
v -2.039349 1.230411 0.636012
v -1.294661 1.563845 0.919750
v -2.311418 0.967210 0.758975
v -1.749826 1.569570 0.656034
v -1.561616 0.936127 1.434204
v -2.212407 0.040743 1.731441
v -1.992462 0.040743 1.821830
v -1.361425 1.229507 1.322597
v -1.255632 1.560832 1.157251
v -2.831568 0.188679 1.061663
v -2.579385 0.543603 0.964647
v -1.862001 0.713534 1.651900
v -1.821929 0.505038 1.886909
v -1.821929 0.822904 1.487393
v -2.498034 0.040743 1.611225
v -1.964139 0.040743 2.140599
v -1.477549 1.882256 0.759163
v -1.544334 1.229808 1.460344
v -1.990237 1.569570 0.698939
v -1.877066 0.188378 2.214717
v -2.252842 1.230411 0.788354
v -2.085863 0.040742 2.065576
v -1.275983 1.879846 0.953197
v -2.762873 0.040743 1.500348
v -2.424217 0.825917 1.047201
v -1.860193 0.064244 2.259007
v -1.720996 1.883461 0.703724
v -1.342910 1.560832 1.352536
v -2.791496 0.361622 1.136686
v -2.297071 0.040742 1.994471
v -1.924067 0.323959 2.160786
v -2.982817 0.063942 1.404837
v -1.802912 0.992933 1.500109
v -1.239526 1.879243 1.184892
v -1.965044 0.654480 1.871242
v -2.585711 0.040742 1.878773
v -1.520760 1.563543 1.491252
v -2.396452 0.992219 1.032125
v -2.122621 0.040742 2.249667
v -2.187688 1.569570 0.832805
v -2.020181 0.909074 1.472931
v -2.003911 0.468280 2.097815
v -1.440189 2.336306 0.790498
v -1.946665 1.883461 0.747713
v -2.543831 0.718355 1.177361
v -2.742385 0.522211 1.263832
v -2.952085 0.187172 1.417491
v -1.247963 2.335403 0.978505
v -1.778152 1.230411 1.520890
v -2.151846 0.064244 2.404231
v -2.825240 0.040742 1.798328
v -1.328107 1.879544 1.375612
v -2.079536 0.809346 1.627495
v -1.669474 2.336909 0.743797
v -2.013206 1.012940 1.479983
v -2.332624 0.900337 1.266544
v -2.355249 1.230712 1.021107
v -2.353413 0.040742 2.243641
v -2.157269 0.188378 2.355723
v -2.194028 0.923837 1.400921
v -2.905987 0.320947 1.460275
v -2.327219 1.015798 1.256091
v -1.999344 1.231014 1.495502
v -2.435968 0.810852 1.386760
v -3.007523 0.064545 1.758557
v -1.217532 2.335403 1.201765
v -1.748150 1.565954 1.548770
v -2.191623 1.021158 1.399670
v -2.671881 0.040742 2.110168
v -2.275378 0.838270 1.539818
v -2.685741 0.654781 1.393087
v -2.131961 1.883762 0.873353
v -1.503159 1.880147 1.510592
v -2.173841 0.743964 1.815804
v -2.171129 0.304677 2.290643
v -2.101832 0.596631 2.036652
v -2.314533 1.231014 1.240740
v -1.878572 2.337210 0.791100
v -2.185532 1.231014 1.398984
v -2.759256 0.040742 2.025805
v -2.827650 0.500819 1.544638
v -2.294142 1.569871 1.032820
v -1.394995 2.791261 0.797428
v -2.194027 0.439958 2.202967
v -2.554979 0.741855 1.575069
v -2.981913 0.187774 1.752832
v -2.424819 0.064244 2.423514
v -2.377215 0.771985 1.716979
v -1.972903 1.567761 1.518695
v -1.303702 2.335704 1.386458
v -2.280499 0.664724 1.970669
v -2.426024 0.188076 2.363858
v -2.229882 0.561681 2.104142
v -1.611927 2.791864 0.756452
v -1.187704 2.791562 1.197848
v -1.216930 2.790960 0.975493
v -2.705927 0.064244 2.312939
v -2.937321 0.300760 1.746204
v -2.928283 0.064244 2.064672
v -2.783360 0.582169 1.593448
v -1.721899 1.880749 1.564825
v -2.416082 0.301965 2.294259
v -2.162053 1.568665 1.408378
v -2.279125 1.569570 1.238971
v -2.394991 0.445382 2.194229
v -2.052118 2.337512 0.913727
v -2.650490 0.658698 1.741082
v -1.470619 2.336005 1.516618
v -2.474232 0.686116 1.873350
v -2.368477 0.569214 2.093596
v -2.891826 0.187473 2.045992
v -2.805053 0.542097 1.729633
v -2.865613 0.448997 1.737767
v -2.236510 1.883160 1.059252
v -2.686343 0.187774 2.262321
v -2.845728 0.311908 2.001400
v -2.655310 0.313414 2.193928
v -1.803249 2.792466 0.808274
v -2.786071 0.448394 1.936923
v -2.558594 0.580963 2.007426
v -2.612225 0.447491 2.107757
v -1.270861 2.791864 1.378324
v -2.727319 0.564091 1.872145
v -1.938229 1.881352 1.535599
v -1.186801 3.244107 0.960127
v -2.231690 1.882557 1.256299
v -2.122621 1.881955 1.425928
v -1.678211 2.336306 1.569947
v -1.555284 3.244709 0.743496
v -1.156672 3.245010 1.177360
v -1.351609 3.243805 0.783870
v -1.961730 2.792768 0.929997
v -2.150038 2.337210 1.089683
v -1.426330 2.792165 1.503361
v -1.883996 2.336306 1.541926
v -1.730035 3.245613 0.796223
v -1.232899 3.245914 1.351810
v -1.145524 3.689722 0.933613
v -2.150340 2.337210 1.275883
v -2.052721 2.336909 1.436172
v -1.504968 3.690325 0.712764
v -1.624581 2.792466 1.553677
v -1.309428 3.689120 0.750125
v -1.119914 3.691831 1.144519
v -1.869534 3.246216 0.908907
v -2.051516 2.792768 1.096914
v -1.378424 3.245914 1.467507
v -1.661642 3.691530 0.767901
v -1.818916 2.792768 1.523548
v -1.107352 4.011965 0.909960
v -1.193430 3.692736 1.308424
v -1.970769 2.792768 1.421108
v -1.274258 4.032090 0.714206
v -2.054227 2.792768 1.269858
v -1.462836 4.058460 0.677096
v -1.956910 3.246216 1.068292
v -1.083865 4.014181 1.115680
v -1.562515 3.246216 1.511797
v -1.780954 3.692736 0.871848
v -1.076226 4.227834 0.895047
v -1.327204 3.692736 1.416588
v -1.250073 4.249227 0.689263
v -1.605910 4.080163 0.733158
v -1.963840 3.246517 1.235510
v -1.747510 3.246216 1.480161
v -1.159760 4.031603 1.274272
v -1.051219 4.241693 1.101434
v -1.432959 4.295023 0.650396
v -1.889118 3.246517 1.381939
v -1.858989 3.693037 1.020085
v -1.495929 3.693037 1.454853
v -1.711789 4.096605 0.835571
v -1.289643 4.048436 1.369447
v -1.573362 4.325756 0.707341
v -1.866220 3.693037 1.178566
v -1.665257 3.693037 1.418999
v -1.147332 4.303158 1.282211
v -1.772631 4.108582 0.970173
v -1.797827 3.693037 1.319572
v -1.448326 4.068012 1.394218
v -1.673392 4.355583 0.809479
v -1.772613 4.108842 1.114947
v -1.263631 4.330275 1.391882
v -1.596781 4.086935 1.347205
v -1.711887 4.101269 1.245217
v -1.724311 4.373361 0.941145
v -1.414580 4.369142 1.350002
v -1.710752 4.394752 1.078837
v -1.545041 4.377276 1.297878
v -1.649288 4.387219 1.202368
v -1.049410 4.306170 0.890226
v -1.024101 4.315209 1.112281
v -1.094604 4.380892 1.353919
v -1.257303 4.436933 1.409056
v -1.236815 4.350160 0.670281
v -1.418195 4.420060 0.628703
v -1.564323 4.451695 0.690167
v -1.662846 4.479114 0.795921
v -1.708341 4.502314 0.928792
v -1.693879 4.517679 1.068593
v -1.633018 4.514968 1.194534
v -1.534193 4.501711 1.298782
v -1.408252 4.480017 1.375010
vt 0.022426 0.988307
vt 0.022033 0.988372
vt 0.022065 0.988246
vt 0.021696 0.988243
vt 0.012221 0.991267
vt 0.012590 0.991278
vt 0.012492 0.991442
vt 0.012891 0.991512
vt 0.012724 0.991584
vt 0.022388 0.988431
vt 0.021666 0.988366
vt 0.012283 0.991474
vt 0.021486 0.988246
vt 0.021986 0.988548
vt 0.012806 0.991754
vt 0.012625 0.991639
vt 0.012993 0.991716
vt 0.012483 0.991591
vt 0.012330 0.991585
vt 0.018302 0.989780
vt 0.018178 0.989739
vt 0.018355 0.989392
vt 0.011901 0.991512
vt 0.021458 0.988365
vt 0.021638 0.988540
vt 0.022326 0.988603
vt 0.012649 0.991771
vt 0.012474 0.991753
vt 0.021284 0.988232
vt 0.021939 0.988727
vt 0.012121 0.991639
vt 0.012855 0.991956
vt 0.021412 0.988534
vt 0.018472 0.989439
vt 0.022260 0.988775
vt 0.013056 0.991936
vt 0.012273 0.991717
vt 0.021616 0.988719
vt 0.018640 0.989532
vt 0.018473 0.989843
vt 0.012671 0.991966
vt 0.021251 0.988350
vt 0.012466 0.991954
vt 0.012022 0.991849
vt 0.021369 0.988706
vt 0.012217 0.991915
vt 0.012888 0.992175
vt 0.021866 0.989077
vt 0.021197 0.988515
vt 0.021076 0.988313
vt 0.018589 0.989261
vt 0.013091 0.992135
vt 0.018813 0.989638
vt 0.018642 0.989909
vt 0.021122 0.988194
vt 0.011775 0.991742
vt 0.022151 0.989109
vt 0.021572 0.989071
vt 0.012694 0.992193
vt 0.018487 0.989193
vt 0.021007 0.988482
vt 0.012466 0.992190
vt 0.021146 0.988681
vt 0.013111 0.992332
vt 0.018767 0.989336
vt 0.020929 0.988253
vt 0.012159 0.992162
vt 0.021310 0.989069
vt 0.020972 0.988132
vt 0.011955 0.992096
vt 0.011702 0.991987
vt 0.018615 0.989009
vt 0.012911 0.992418
vt 0.021834 0.989330
vt 0.019103 0.989826
vt 0.020929 0.988656
vt 0.018944 0.990061
vt 0.020844 0.988424
vt 0.018975 0.989406
vt 0.021551 0.989337
vt 0.022104 0.989344
vt 0.012714 0.992446
vt 0.018730 0.989060
vt 0.012477 0.992455
vt 0.021073 0.989063
vt 0.013111 0.992723
vt 0.020639 0.988086
vt 0.021299 0.989348
vt 0.012166 0.992455
vt 0.020711 0.988579
vt 0.012914 0.992717
vt 0.011909 0.992419
vt 0.021825 0.989635
vt 0.020674 0.987961
vt 0.018931 0.989107
vt 0.011658 0.992411
vt 0.020566 0.988253
vt 0.019290 0.989996
vt 0.019123 0.990198
vt 0.021551 0.989649
vt 0.019320 0.989613
vt 0.018803 0.988702
vt 0.022079 0.989632
vt 0.020822 0.989063
vt 0.012498 0.992731
vt 0.012727 0.992719
vt 0.021075 0.989355
vt 0.021316 0.989665
vt 0.018904 0.988773
vt 0.019168 0.989123
vt 0.020456 0.988741
vt 0.020464 0.988402
vt 0.020527 0.988938
vt 0.012199 0.992743
vt 0.012883 0.992986
vt 0.021840 0.989923
vt 0.020835 0.989361
vt 0.019478 0.990233
vt 0.020373 0.987948
vt 0.019480 0.989806
vt 0.012746 0.992970
vt 0.019308 0.990403
vt 0.021574 0.989949
vt 0.011923 0.992755
vt 0.019479 0.989295
vt 0.013024 0.993047
vt 0.022080 0.989904
vt 0.021107 0.989681
vt 0.020396 0.987820
vt 0.019084 0.988830
vt 0.012532 0.992995
vt 0.020330 0.988091
vt 0.011690 0.992763
vt 0.020538 0.989125
vt 0.021351 0.989972
vt 0.020315 0.988547
vt 0.018948 0.988434
vt 0.012233 0.993013
vt 0.020885 0.989698
vt 0.019577 0.989435
vt 0.012789 0.993146
vt 0.019657 0.990076
vt 0.020268 0.989060
vt 0.020263 0.988247
vt 0.021888 0.990346
vt 0.019628 0.990476
vt 0.019458 0.989093
vt 0.019457 0.990623
vt 0.019287 0.988850
vt 0.019053 0.988499
vt 0.021635 0.990383
vt 0.020581 0.989378
vt 0.020108 0.987742
vt 0.011991 0.993041
vt 0.021151 0.989991
vt 0.020209 0.988860
vt 0.022110 0.990312
vt 0.020290 0.989175
vt 0.012829 0.993295
vt 0.019777 0.989209
vt 0.019693 0.989648
vt 0.012586 0.993236
vt 0.020105 0.987872
vt 0.020026 0.989139
vt 0.019184 0.988555
vt 0.019828 0.989323
vt 0.020342 0.989407
vt 0.019731 0.989025
vt 0.011814 0.993082
vt 0.021424 0.990409
vt 0.020655 0.989720
vt 0.020057 0.989243
vt 0.012253 0.993250
vt 0.019975 0.988947
vt 0.019473 0.988845
vt 0.019800 0.990341
vt 0.020941 0.990009
vt 0.020117 0.988653
vt 0.020098 0.988001
vt 0.020176 0.988384
vt 0.019908 0.989535
vt 0.019117 0.988173
vt 0.019815 0.990860
vt 0.020118 0.989457
vt 0.012142 0.993212
vt 0.019648 0.990986
vt 0.019376 0.988613
vt 0.019843 0.989949
vt 0.021953 0.990777
vt 0.020086 0.988158
vt 0.019698 0.988795
vt 0.019208 0.988256
vt 0.012598 0.993424
vt 0.019852 0.987733
vt 0.019911 0.988733
vt 0.020433 0.989751
vt 0.021234 0.990430
vt 0.020021 0.988474
vt 0.019864 0.987866
vt 0.020061 0.988310
vt 0.022161 0.990734
vt 0.021509 0.990847
vt 0.021719 0.990819
vt 0.012306 0.993443
vt 0.019296 0.988334
vt 0.012010 0.993317
vt 0.019472 0.988631
vt 0.020728 0.990031
vt 0.019884 0.987994
vt 0.020221 0.989797
vt 0.020028 0.989860
vt 0.019914 0.988162
vt 0.019982 0.990743
vt 0.019656 0.988597
vt 0.021037 0.990448
vt 0.019843 0.988542
vt 0.019944 0.988316
vt 0.019393 0.988060
vt 0.019496 0.988507
vt 0.019415 0.988437
vt 0.019974 0.990232
vt 0.019315 0.987962
vt 0.019622 0.987926
vt 0.019465 0.988174
vt 0.019579 0.987804
vt 0.019668 0.988059
vt 0.019988 0.991266
vt 0.019542 0.988310
vt 0.019777 0.988368
vt 0.019721 0.988208
vt 0.021325 0.990866
vt 0.019608 0.988432
vt 0.020524 0.990059
vt 0.019829 0.991375
vt 0.021803 0.991254
vt 0.020144 0.990155
vt 0.020326 0.990100
vt 0.020839 0.990469
vt 0.022224 0.991163
vt 0.021597 0.991282
vt 0.022030 0.991210
vt 0.020149 0.991161
vt 0.020146 0.990647
vt 0.021140 0.990882
vt 0.020650 0.990496
vt 0.020154 0.991679
vt 0.021418 0.991300
vt 0.020005 0.991775
vt 0.021885 0.991684
vt 0.020305 0.990579
vt 0.020470 0.990531
vt 0.022303 0.991584
vt 0.020952 0.990902
vt 0.022118 0.991636
vt 0.021682 0.991713
vt 0.020300 0.991587
vt 0.020305 0.991072
vt 0.021244 0.991313
vt 0.020320 0.992086
vt 0.020772 0.990926
vt 0.021945 0.991995
vt 0.020183 0.992171
vt 0.021511 0.991729
vt 0.020607 0.990960
vt 0.022193 0.991963
vt 0.020454 0.991007
vt 0.022378 0.991933
vt 0.020449 0.991501
vt 0.021747 0.992024
vt 0.021068 0.991330
vt 0.020450 0.992006
vt 0.021985 0.992204
vt 0.021347 0.991740
vt 0.022241 0.992171
vt 0.020463 0.992441
vt 0.020592 0.991435
vt 0.020325 0.992501
vt 0.020895 0.991353
vt 0.021578 0.992055
vt 0.021792 0.992242
vt 0.017877 0.987576
vt 0.017803 0.987619
vt 0.017561 0.987430
vt 0.017603 0.987339
vt 0.017877 0.987576
vt 0.022426 0.992160
vt 0.020738 0.991386
vt 0.017351 0.987351
vt 0.017603 0.987339
vt 0.017894 0.987802
vt 0.020589 0.991926
vt 0.020412 0.992716
vt 0.021183 0.991754
vt 0.017970 0.987792
vt 0.017358 0.987226
vt 0.020593 0.992379
vt 0.021423 0.992085
vt 0.020552 0.992665
vt 0.017358 0.987226
vt 0.017173 0.987342
vt 0.020726 0.991860
vt 0.021020 0.991776
vt 0.007315 0.978761
vt 0.007181 0.978953
vt 0.007241 0.978731
vt 0.021607 0.992317
vt 0.020723 0.992318
vt 0.020867 0.991811
vt 0.017146 0.987220
vt 0.021268 0.992117
vt 0.007260 0.979038
vt 0.007315 0.978761
vt 0.020684 0.992618
vt 0.017146 0.987220
vt 0.017016 0.987366
vt 0.020849 0.992258
vt 0.021462 0.992360
vt 0.021120 0.992156
vt 0.016969 0.987252
vt 0.020978 0.992205
vt 0.007050 0.979191
vt 0.020811 0.992566
vt 0.016969 0.987252
vt 0.016884 0.987421
vt 0.007050 0.979191
vt 0.007015 0.979084
vt 0.021319 0.992412
vt 0.020939 0.992529
vt 0.016821 0.987308
vt 0.021189 0.992438
vt 0.006823 0.979170
vt 0.021061 0.992478
vt 0.016821 0.987308
vt 0.016763 0.987481
vt 0.006833 0.979283
vt 0.016699 0.987382
vt 0.006654 0.979191
vt 0.006500 0.979185
vt 0.006468 0.979313
vt 0.006364 0.979159
vt 0.006639 0.979317
vt 0.006468 0.979313
vt 0.006324 0.979274
vt 0.006639 0.979317
vt 0.006833 0.979283
vn 0.075430 -0.622704 -0.778814
vn 0.683705 0.242999 -0.688113
vn 0.559524 -0.589534 -0.582566
vn 0.740061 -0.627724 -0.241397
vn 0.055057 -0.995628 -0.075459
vn 0.090473 -0.995325 -0.033810
vn 0.097832 0.326146 -0.940243
vn 0.938257 0.122040 -0.323697
vn -0.005352 -0.996643 -0.081699
vn 0.628494 -0.777314 0.027897
vn 0.669564 0.212892 -0.711590
vn 0.070560 -0.997490 0.005885
vn 0.000000 -1.000000 0.000000
vn 0.000000 -1.000000 0.000000
vn 0.000000 -1.000000 0.000000
vn -0.233594 -0.744600 -0.625303
vn 0.998663 0.001853 0.051667
vn 0.926034 0.050675 -0.374023
vn 0.110294 0.325259 -0.939171
vn 0.000000 -1.000000 0.000000
vn 0.000000 -1.000000 0.000000
vn 0.594223 -0.789089 0.155685
vn 0.619424 0.179954 -0.764153
vn -0.030319 -0.998104 -0.053564
vn 0.059467 -0.998132 0.014009
vn 0.996944 -0.010717 0.077381
vn -0.334427 0.295255 -0.894977
vn 0.115284 0.286482 -0.951125
vn 0.000000 -1.000000 0.000000
vn 0.908526 0.039525 -0.415955
vn -0.339597 0.336337 -0.878380
vn 0.000000 -1.000000 0.000000
vn 0.941272 0.104933 0.320930
vn 0.000000 -1.000000 -0.000000
vn -0.036158 -0.998623 -0.038015
vn 0.994985 -0.031531 0.094928
vn 0.000000 -1.000000 0.000000
vn 0.053524 -0.998413 0.017505
vn 0.565382 0.140582 -0.812761
vn 0.897559 0.046077 0.438480
vn 0.910192 0.260426 0.322071
vn -0.640255 0.269649 -0.719279
vn 0.602377 -0.776086 0.186636
vn -0.371423 0.316795 -0.872746
vn -0.353219 -0.850934 -0.388778
vn 0.094791 0.243998 -0.965132
vn 0.892119 0.024128 -0.451155
vn 0.000000 -1.000000 -0.000000
vn 0.846044 0.259459 0.465715
vn 0.000000 -1.000000 0.000000
vn 0.847695 -0.052149 0.527915
vn 0.602721 -0.753233 0.263378
vn -0.643317 0.361732 -0.674754
vn 0.864387 0.328478 0.380708
vn 0.000000 -1.000000 -0.000000
vn 0.993026 -0.043164 0.109711
vn -0.043133 -0.998624 -0.029836
vn -0.439140 -0.841556 -0.314547
vn 0.058205 -0.997984 0.025287
vn 0.522838 0.116046 -0.844496
vn -0.373685 0.281580 -0.883783
vn 0.656051 0.129216 0.743573
vn 0.798620 0.446547 0.403488
vn -0.723865 0.374272 -0.579604
vn 0.881509 0.019256 -0.471774
vn 0.067367 0.194745 -0.978538
vn 0.000000 -1.000000 0.000000
vn -0.784494 0.286347 -0.550068
vn 0.000000 -1.000000 0.000000
vn 0.783256 -0.056683 0.619109
vn 0.637050 -0.656301 0.404273
vn 0.787825 0.361987 0.498294
vn 0.992447 -0.056205 0.109040
vn 0.000000 -1.000000 0.000000
vn 0.709798 0.503163 0.492965
vn 0.056998 -0.997913 0.030356
vn -0.044028 -0.998773 -0.022655
vn 0.503408 0.091832 -0.859155
vn -0.771359 0.412513 -0.484602
vn -0.504601 -0.828155 -0.244002
vn 0.727729 0.485487 0.484472
vn -0.364697 0.233743 -0.901310
vn 0.877160 0.008456 -0.480124
vn -0.805613 0.262900 -0.530915
vn 0.047300 0.161386 -0.985757
vn 0.411663 -0.049601 0.909986
vn 0.000001 -1.000000 -0.000002
vn 0.000001 -1.000000 -0.000002
vn 0.773355 -0.100445 0.625966
vn 0.991503 -0.060115 0.115363
vn -0.861803 0.290592 -0.415755
vn -0.753595 0.519322 -0.402988
vn 0.553591 0.660536 0.507177
vn 0.650895 0.591043 0.476449
vn 0.370863 0.306186 0.876761
vn 0.000001 -1.000000 -0.000002
vn 0.063618 -0.996112 0.060948
vn 0.488263 0.046058 -0.871480
vn 0.428368 -0.109696 0.896921
vn -0.361898 0.205821 -0.909212
vn 0.575886 0.403733 0.710883
vn -0.759742 0.227907 -0.608976
vn 0.000002 -1.000000 -0.000001
vn 0.874576 -0.016789 -0.484599
vn -0.049466 -0.998703 -0.012101
vn -0.883443 0.419772 -0.208133
vn 0.544308 -0.479619 0.688254
vn 0.023060 0.112911 -0.993338
vn 0.778202 -0.091560 0.621303
vn -0.828128 0.431551 -0.357726
vn 0.000001 -1.000000 -0.000002
vn 0.531001 0.510577 0.676276
vn -0.598753 -0.790416 -0.129374
vn 0.098512 -0.088847 0.991162
vn 0.990218 -0.057273 0.127233
vn 0.466642 0.740215 0.484074
vn 0.000001 -1.000000 -0.000002
vn 0.432147 -0.094362 0.896853
vn -0.982912 0.165480 -0.080628
vn 0.029349 -0.995709 0.087758
vn -0.729513 0.214430 -0.649485
vn -0.029455 0.551274 0.833804
vn 0.470791 0.579979 0.664816
vn 0.487892 -0.005097 -0.872889
vn -0.377989 0.165767 -0.910849
vn -0.705176 0.676427 -0.212542
vn -0.793979 0.532236 -0.293806
vn -0.929781 0.310065 -0.198410
vn 0.882285 -0.044875 -0.468571
vn 0.072943 -0.088943 0.993362
vn 0.227244 -0.491202 0.840881
vn -0.067003 -0.997747 0.003441
vn 0.773926 -0.067458 0.629673
vn 0.143169 0.877553 0.457607
vn -0.000226 0.059818 -0.998209
vn -0.259364 -0.039782 0.964960
vn -0.756979 0.591788 0.277074
vn -0.972751 0.182082 -0.143531
vn -0.010317 -0.998205 0.059002
vn 0.240725 0.427295 0.871476
vn -0.426309 0.670587 0.607103
vn -0.893886 0.415248 -0.168927
vn -0.879383 0.071913 0.470653
vn -0.293711 -0.040085 0.955053
vn -0.491509 0.868317 0.066670
vn -0.700807 -0.710991 0.057977
vn 0.988544 -0.058465 0.139151
vn 0.062103 -0.073260 0.995377
vn -0.581098 0.021163 0.813559
vn -0.041491 -0.997595 0.055518
vn -0.206817 0.928458 0.308533
vn -0.666058 0.733577 -0.135025
vn -0.721212 0.195961 -0.664419
vn 0.431564 -0.058806 0.900164
vn 0.094775 0.900323 0.424777
vn 0.196924 0.525512 0.827682
vn 0.284338 0.740586 0.608839
vn -0.908957 0.119159 0.399498
vn -0.402953 0.125502 -0.906575
vn -0.630605 0.033917 0.775362
vn -0.062528 -0.997458 0.034174
vn -0.862994 0.483641 -0.146059
vn -0.961891 0.177734 -0.207792
vn 0.489965 -0.050324 -0.870288
vn 0.154326 0.588529 0.793610
vn -0.447237 0.887846 0.108210
vn -0.953387 0.286183 0.095667
vn -0.126533 -0.648704 0.750449
vn -0.196394 0.932660 0.302612
vn -0.321337 -0.029229 0.946514
vn 0.777447 -0.051884 0.626805
vn -0.031395 0.861692 0.506460
vn -0.161905 0.469492 0.867965
vn 0.069755 0.709838 0.700902
vn -0.024687 0.003969 -0.999687
vn 0.988944 -0.064556 0.133501
vn 0.886663 -0.069646 -0.457142
vn -0.420869 -0.660016 0.622293
vn -0.905370 0.410794 0.107486
vn -0.753175 -0.519390 0.403686
vn -0.686166 0.727437 0.003259
vn 0.056480 -0.032884 0.997862
vn -0.161226 0.550548 0.819087
vn -0.675761 0.033167 0.736374
vn -0.938269 0.108370 0.328492
vn -0.172565 0.607704 0.775189
vn -0.729555 0.176938 -0.660638
vn -0.471034 0.851846 0.229096
vn 0.438001 -0.028836 0.898512
vn -0.264106 0.875575 0.404496
vn -0.158893 0.739096 0.654592
vn -0.802326 0.376697 0.463004
vn -0.728632 0.665516 0.161816
vn -0.865294 0.477660 0.152008
vn -0.951651 0.191690 -0.240032
vn -0.512604 0.443843 0.735011
vn -0.748570 0.485465 0.451627
vn -0.466631 0.539865 0.700572
vn -0.440496 0.076007 -0.894531
vn -0.695856 0.554945 0.455874
vn -0.362297 0.744981 0.560128
vn -0.427804 0.612019 0.665143
vn 0.786286 -0.036592 0.616778
vn -0.567255 0.717942 0.403462
vn -0.329410 0.011648 0.944115
vn 0.891239 -0.093577 -0.443774
vn -0.944981 0.143260 0.294089
vn -0.689066 0.073090 0.721004
vn 0.059254 0.008261 0.998209
vn -0.032473 -0.040290 -0.998660
vn 0.990693 -0.065946 0.119077
vn 0.509114 -0.090978 -0.855877
vn -0.749477 0.145214 -0.645908
vn -0.948016 0.199584 -0.247854
vn 0.442497 0.006071 0.896749
vn -0.335760 0.058514 0.940129
vn -0.463426 0.033850 -0.885489
vn 0.793370 -0.019671 0.608421
vn 0.894025 -0.123039 -0.430791
vn -0.946738 0.174899 0.270367
vn -0.698305 0.116959 0.706180
vn -0.051751 -0.073165 -0.995976
vn 0.050676 0.058082 0.997025
vn 0.517529 -0.123916 -0.846645
vn 0.988317 -0.082850 0.127930
vn -0.761822 0.111519 -0.638115
vn -0.948147 0.193350 -0.252255
vn 0.436853 0.039117 0.898682
vn -0.497283 0.007912 -0.867552
vn -0.352506 0.114332 0.928799
vn 0.889229 -0.147432 -0.433053
vn 0.795324 -0.011340 0.606079
vn -0.717045 0.168315 0.676399
vn 0.527453 -0.146447 -0.836867
vn -0.949510 0.202925 0.239273
vn -0.077513 -0.094367 -0.992515
vn -0.945584 0.180016 -0.271044
vn 0.983338 -0.112564 0.142747
vn 0.034414 0.105898 0.993781
vn -0.781840 0.092578 -0.616568
vn 0.878875 -0.203363 -0.431534
vn 0.433574 0.067145 0.898613
vn 0.518247 -0.178355 -0.836427
vn -0.537323 -0.011068 -0.843304
vn -0.952808 0.220382 0.208781
vn -0.363953 0.169044 0.915949
vn 0.775296 -0.040774 0.630280
vn 0.962679 -0.173813 0.207455
vn 0.850372 -0.306160 -0.427942
vn 0.466549 -0.219080 -0.856934
vn -0.094498 -0.119996 -0.988267
vn -0.728585 0.213480 0.650838
vn -0.948246 0.174457 -0.265320
vn 0.008079 0.144389 0.989488
vn 0.853378 -0.449417 0.264140
vn -0.130898 -0.150995 -0.979830
vn -0.810830 0.070643 -0.581003
vn 0.399195 0.002758 0.916862
vn -0.557719 -0.031377 -0.829436
vn -0.951859 0.238169 0.192976
vn -0.396474 0.211861 0.893266
vn 0.706633 -0.292627 0.644235
vn -0.963007 0.162336 -0.215093
vn -0.739176 0.250888 0.625040
vn -0.573705 -0.063886 -0.816567
vn -0.085318 0.130983 0.987707
vn 0.253559 -0.743177 0.619190
vn -0.832745 0.053293 -0.551086
vn -0.949018 0.237228 0.207577
vn 0.254276 -0.045562 0.966058
vn -0.453946 0.227298 0.861550
vn -0.852472 0.025741 -0.522138
vn -0.759682 0.258547 0.596689
vn 0.012551 -0.306342 0.951839
vn -0.978076 0.141405 -0.152879
vn -0.304257 0.069059 0.950083
vn -0.946153 0.198423 0.255780
vn -0.985141 0.112390 -0.129869
vn -0.518277 0.156221 0.840823
vn -0.775724 0.210855 0.594804
vn -0.362747 -0.134576 0.922119
vn -0.952614 0.152678 0.263088
vn -0.807050 0.142181 0.573109
vn -0.607914 0.066038 0.791252
s 1
g R_leg Jake
usemtl lambert2SG
f 1/1/1 3/2/2 2/3/3
f 4/4/4 2/3/3 3/2/2
f 1/5/1 2/6/3 5/7/5
f 2/6/3 4/8/4 6/9/6
f 6/9/6 5/7/5 2/6/3
f 1/1/1 7/10/7 3/2/2
f 3/2/2 8/11/8 4/4/4
f 5/7/5 9/12/9 1/5/1
f 10/13/10 4/4/4 8/11/8
f 8/11/8 3/2/2 11/14/11
f 11/14/11 3/2/2 7/10/7
f 12/15/12 6/9/6 4/8/4
f 5/7/5 6/9/6 13/16/13
f 4/8/4 10/17/10 12/15/12
f 13/16/13 14/18/14 5/7/5
f 15/19/15 9/12/9 5/7/5
f 7/20/7 1/21/1 16/22/16
f 16/23/16 1/5/1 9/12/9
f 5/7/5 14/18/14 15/19/15
f 8/11/8 17/24/17 10/13/10
f 18/25/18 8/11/8 11/14/11
f 7/10/7 19/26/19 11/14/11
f 20/27/20 13/16/13 6/9/6
f 17/24/17 8/11/8 18/25/18
f 6/9/6 12/15/12 20/27/20
f 21/28/21 14/18/14 13/16/13
f 22/29/22 10/13/10 17/24/17
f 18/25/18 11/14/11 23/30/23
f 24/31/24 9/12/9 15/19/15
f 15/19/15 14/18/14 21/28/21
f 25/32/25 12/15/12 10/17/10
f 9/12/9 24/31/24 16/23/16
f 13/16/13 20/27/20 21/28/21
f 26/33/26 17/24/17 18/25/18
f 16/22/16 27/34/27 7/20/7
f 19/26/19 28/35/28 11/14/11
f 10/17/10 22/36/22 25/32/25
f 11/14/11 28/35/28 23/30/23
f 21/28/21 29/37/29 15/19/15
f 30/38/30 18/25/18 23/30/23
f 15/19/15 29/37/29 24/31/24
f 31/39/31 19/40/19 7/20/7
f 26/33/26 18/25/18 30/38/30
f 32/41/32 20/27/20 12/15/12
f 17/24/17 33/42/33 22/29/22
f 33/42/33 17/24/17 26/33/26
f 12/15/12 25/32/25 32/41/32
f 7/20/7 27/34/27 31/39/31
f 34/43/34 21/28/21 20/27/20
f 16/23/16 24/31/24 35/44/35
f 36/45/36 26/33/26 30/38/30
f 37/46/37 29/37/29 21/28/21
f 20/27/20 32/41/32 34/43/34
f 35/44/35 24/31/24 29/37/29
f 38/47/38 25/32/25 22/36/22
f 30/38/30 23/30/23 39/48/39
f 33/42/33 26/33/26 40/49/40
f 22/29/22 33/42/33 41/50/41
f 16/22/16 42/51/42 27/34/27
f 22/36/22 43/52/43 38/47/38
f 19/40/19 44/53/44 28/54/28
f 41/50/41 43/55/43 22/29/22
f 21/28/21 34/43/34 37/46/37
f 40/49/40 26/33/26 36/45/36
f 16/23/16 35/44/35 45/56/45
f 29/37/29 37/46/37 35/44/35
f 28/35/28 46/57/46 23/30/23
f 36/45/36 30/38/30 47/58/47
f 48/59/48 32/41/32 25/32/25
f 45/60/45 42/51/42 16/22/16
f 31/39/31 44/53/44 19/40/19
f 30/38/30 39/48/39 47/58/47
f 25/32/25 38/47/38 48/59/48
f 23/30/23 46/57/46 39/48/39
f 33/42/33 40/49/40 49/61/49
f 50/62/50 34/43/34 32/41/32
f 36/45/36 51/63/51 40/49/40
f 52/64/52 38/47/38 43/52/43
f 49/61/49 41/50/41 33/42/33
f 53/65/53 31/39/31 27/34/27
f 43/55/43 41/50/41 54/66/54
f 32/41/32 48/59/48 50/62/50
f 27/34/27 42/51/42 53/65/53
f 55/67/55 37/46/37 34/43/34
f 36/45/36 47/58/47 56/68/56
f 54/66/54 52/69/52 43/55/43
f 57/70/57 35/44/35 37/46/37
f 58/71/58 45/56/45 35/44/35
f 51/63/51 36/45/36 56/68/56
f 42/51/42 45/60/45 58/72/58
f 59/73/59 48/59/48 38/47/38
f 38/47/38 52/64/52 59/73/59
f 34/43/34 50/62/50 55/67/55
f 47/58/47 39/48/39 60/74/60
f 44/53/44 61/75/61 28/54/28
f 62/76/62 40/49/40 51/63/51
f 28/54/28 61/75/61 46/77/46
f 49/61/49 40/49/40 62/76/62
f 37/46/37 55/67/55 57/70/57
f 35/44/35 57/70/57 58/71/58
f 41/50/41 49/61/49 63/78/63
f 31/39/31 64/79/64 44/53/44
f 63/78/63 54/66/54 41/50/41
f 56/68/56 47/58/47 65/80/65
f 65/80/65 47/58/47 60/74/60
f 53/65/53 64/79/64 31/39/31
f 46/57/46 66/81/66 39/48/39
f 48/59/48 59/73/59 67/82/67
f 68/83/68 53/65/53 42/51/42
f 69/84/69 50/62/50 48/59/48
f 58/72/58 68/83/68 42/51/42
f 51/63/51 56/68/56 70/85/70
f 39/48/39 66/81/66 60/74/60
f 59/73/59 52/64/52 71/86/71
f 52/69/52 54/66/54 72/87/72
f 48/59/48 67/82/67 69/84/69
f 62/76/62 51/63/51 70/85/70
f 73/88/73 56/68/56 65/80/65
f 74/89/74 55/67/55 50/62/50
f 49/61/49 62/76/62 75/90/75
f 70/85/70 56/68/56 73/88/73
f 75/90/75 63/78/63 49/61/49
f 67/82/67 59/73/59 76/91/76
f 77/92/77 57/70/57 55/67/55
f 65/80/65 60/74/60 78/93/78
f 50/62/50 69/84/69 74/89/74
f 72/87/72 71/94/71 52/69/52
f 79/95/79 53/65/53 68/83/68
f 64/79/64 53/65/53 79/95/79
f 80/96/80 58/71/58 57/70/57
f 54/66/54 63/78/63 81/97/81
f 46/77/46 82/98/82 66/99/66
f 61/75/61 82/98/82 46/77/46
f 71/86/71 76/91/76 59/73/59
f 73/88/73 65/80/65 83/100/83
f 44/53/44 84/101/84 61/75/61
f 84/101/84 44/53/44 64/79/64
f 68/83/68 58/72/58 80/102/80
f 78/93/78 83/100/83 65/80/65
f 55/67/55 74/89/74 77/92/77
f 60/74/60 66/81/66 85/103/85
f 70/85/70 86/104/86 62/76/62
f 81/97/81 72/87/72 54/66/54
f 87/105/87 69/84/69 67/82/67
f 76/91/76 88/106/88 67/82/67
f 70/85/70 73/88/73 89/107/89
f 85/103/85 78/93/78 60/74/60
f 57/70/57 77/92/77 80/96/80
f 67/82/67 88/106/88 87/105/87
f 83/100/83 90/108/90 73/88/73
f 79/95/79 68/83/68 91/109/91
f 79/95/79 92/110/92 64/79/64
f 93/111/93 75/90/75 62/76/62
f 89/107/89 73/88/73 90/108/90
f 63/78/63 75/90/75 94/112/94
f 95/113/95 62/76/62 86/104/86
f 96/114/96 74/89/74 69/84/69
f 80/102/80 91/109/91 68/83/68
f 97/115/97 76/91/76 71/86/71
f 98/116/98 83/100/83 78/93/78
f 94/112/94 81/97/81 63/78/63
f 69/84/69 87/105/87 96/114/96
f 70/85/70 89/107/89 99/117/99
f 82/98/82 100/118/100 66/99/66
f 99/117/99 86/104/86 70/85/70
f 101/119/101 71/94/71 72/87/72
f 61/75/61 102/120/102 82/98/82
f 103/121/103 88/106/88 76/91/76
f 62/76/62 95/113/95 93/111/93
f 66/99/66 100/118/100 85/122/85
f 90/108/90 83/100/83 104/123/104
f 84/101/84 102/120/102 61/75/61
f 105/124/105 77/92/77 74/89/74
f 106/125/106 84/101/84 64/79/64
f 106/125/106 64/79/64 92/110/92
f 83/100/83 98/116/98 104/123/104
f 71/86/71 107/126/107 97/115/97
f 78/93/78 85/103/85 108/127/108
f 76/91/76 97/115/97 103/121/103
f 89/107/89 90/108/90 109/128/109
f 71/94/71 101/119/101 107/129/107
f 91/109/91 110/130/110 79/95/79
f 110/130/110 92/110/92 79/95/79
f 111/131/111 87/105/87 88/106/88
f 72/87/72 81/97/81 112/132/112
f 108/127/108 98/116/98 78/93/78
f 74/89/74 96/114/96 105/124/105
f 113/133/113 80/96/80 77/92/77
f 86/104/86 114/134/114 95/113/95
f 88/106/88 103/121/103 111/131/111
f 115/135/115 90/108/90 104/123/104
f 114/134/114 86/104/86 99/117/99
f 112/132/112 101/119/101 72/87/72
f 116/136/116 94/112/94 75/90/75
f 75/90/75 93/111/93 116/136/116
f 91/109/91 80/102/80 113/137/113
f 109/128/109 90/108/90 115/135/115
f 77/92/77 105/124/105 113/133/113
f 117/138/117 96/114/96 87/105/87
f 118/139/118 99/117/99 89/107/89
f 102/120/102 84/101/84 119/140/119
f 120/141/120 97/115/97 107/126/107
f 89/107/89 109/128/109 118/139/118
f 103/121/103 97/115/97 120/141/120
f 82/98/82 121/142/121 100/118/100
f 84/101/84 106/125/106 119/140/119
f 93/111/93 95/113/95 122/143/122
f 121/142/121 82/98/82 102/120/102
f 123/144/123 81/97/81 94/112/94
f 124/145/124 104/123/104 98/116/98
f 100/118/100 125/146/125 85/122/85
f 87/105/87 111/131/111 117/138/117
f 92/110/92 126/147/126 106/125/106
f 122/143/122 95/113/95 114/134/114
f 85/122/85 125/146/125 108/148/108
f 92/110/92 110/130/110 127/149/127
f 110/130/110 91/109/91 128/150/128
f 111/131/111 103/121/103 120/141/120
f 112/132/112 81/97/81 123/144/123
f 115/135/115 104/123/104 129/151/129
f 92/110/92 127/149/127 126/147/126
f 99/117/99 130/152/130 114/134/114
f 131/153/131 107/129/107 101/119/101
f 113/137/113 128/150/128 91/109/91
f 132/154/132 105/124/105 96/114/96
f 109/128/109 115/135/115 133/155/133
f 122/143/122 134/156/134 93/111/93
f 98/116/98 108/127/108 135/157/135
f 114/134/114 136/158/136 122/143/122
f 107/126/107 131/159/131 120/141/120
f 137/160/137 119/140/119 106/125/106
f 134/156/134 116/136/116 93/111/93
f 137/160/137 106/125/106 126/147/126
f 104/123/104 124/145/124 129/151/129
f 94/112/94 116/136/116 123/144/123
f 119/140/119 138/161/138 102/120/102
f 96/114/96 117/138/117 132/154/132
f 120/141/120 139/162/139 111/131/111
f 101/119/101 112/132/112 140/163/140
f 141/164/141 122/143/122 136/158/136
f 135/157/135 124/145/124 98/116/98
f 134/156/134 122/143/122 141/164/141
f 121/142/121 102/120/102 138/161/138
f 142/165/142 127/149/127 110/130/110
f 119/140/119 137/160/137 143/166/143
f 144/167/144 136/158/136 114/134/114
f 128/150/128 142/165/142 110/130/110
f 114/134/114 130/152/130 144/167/144
f 126/147/126 145/168/145 137/160/137
f 146/169/146 113/133/113 105/124/105
f 101/119/101 140/163/140 131/153/131
f 141/164/141 143/166/143 137/160/137
f 115/135/115 129/151/129 147/170/147
f 148/171/148 130/152/130 99/117/99
f 136/158/136 149/172/149 141/164/141
f 133/155/133 115/135/115 147/170/147
f 141/164/141 137/160/137 145/168/145
f 150/173/150 117/138/117 111/131/111
f 139/162/139 120/141/120 131/159/131
f 99/117/99 118/139/118 148/171/148
f 141/164/141 151/174/151 134/156/134
f 127/149/127 152/175/152 126/147/126
f 100/118/100 153/176/153 125/146/125
f 154/177/154 118/139/118 109/128/109
f 149/172/149 143/166/143 141/164/141
f 109/128/109 133/155/133 154/177/154
f 153/176/153 100/118/100 121/142/121
f 155/178/155 116/136/116 134/156/134
f 156/179/156 112/132/112 123/144/123
f 111/131/111 139/162/139 150/173/150
f 157/180/157 123/144/123 116/136/116
f 105/124/105 132/154/132 146/169/146
f 145/168/145 151/174/151 141/164/141
f 158/181/158 119/140/119 143/166/143
f 126/147/126 152/175/152 145/168/145
f 158/181/158 138/161/138 119/140/119
f 128/150/128 113/137/113 146/182/146
f 156/179/156 140/163/140 112/132/112
f 108/148/108 125/146/125 159/183/159
f 155/178/155 134/156/134 151/174/151
f 160/184/160 149/172/149 136/158/136
f 157/180/157 116/136/116 155/178/155
f 161/185/161 132/154/132 117/138/117
f 160/184/160 143/166/143 149/172/149
f 136/158/136 144/167/144 160/184/160
f 159/183/159 135/186/135 108/148/108
f 142/165/142 162/187/162 127/149/127
f 138/161/138 163/188/163 121/142/121
f 129/151/129 124/145/124 164/189/164
f 152/175/152 127/149/127 162/187/162
f 157/180/157 165/190/165 123/144/123
f 117/138/117 150/173/150 161/185/161
f 151/174/151 145/168/145 166/191/166
f 142/165/142 128/150/128 167/192/167
f 131/159/131 168/193/168 139/162/139
f 123/144/123 165/190/165 156/179/156
f 160/184/160 158/181/158 143/166/143
f 168/194/168 131/153/131 140/163/140
f 152/175/152 166/191/166 145/168/145
f 151/174/151 169/195/169 155/178/155
f 163/188/163 138/161/138 158/181/158
f 146/182/146 167/192/167 128/150/128
f 170/196/170 144/167/144 130/152/130
f 133/155/133 147/170/147 171/197/171
f 153/176/153 121/142/121 163/188/163
f 155/178/155 172/198/172 157/180/157
f 166/191/166 169/195/169 151/174/151
f 140/163/140 156/179/156 173/199/173
f 130/152/130 148/171/148 170/196/170
f 165/190/165 157/180/157 174/200/174
f 124/145/124 135/157/135 175/201/175
f 176/202/176 147/170/147 129/151/129
f 172/198/172 155/178/155 169/195/169
f 164/189/164 177/203/177 129/151/129
f 178/204/178 150/173/150 139/162/139
f 179/205/179 162/187/162 142/165/142
f 174/200/174 157/180/157 172/198/172
f 132/154/132 161/185/161 180/206/180
f 180/206/180 146/169/146 132/154/132
f 152/175/152 181/207/181 166/191/166
f 162/187/162 181/207/181 152/175/152
f 140/163/140 173/199/173 168/194/168
f 167/192/167 179/205/179 142/165/142
f 182/208/182 148/171/148 118/139/118
f 183/209/183 156/179/156 165/190/165
f 139/162/139 168/193/168 178/204/178
f 118/139/118 154/177/154 182/208/182
f 184/210/184 160/184/160 144/167/144
f 185/211/185 158/181/158 160/184/160
f 180/206/180 161/185/161 150/173/150
f 175/201/175 164/189/164 124/145/124
f 129/151/129 177/203/177 176/202/176
f 183/209/183 173/199/173 156/179/156
f 186/212/186 165/190/165 174/200/174
f 125/146/125 153/176/153 187/213/187
f 158/181/158 185/211/185 163/188/163
f 166/191/166 188/214/188 169/195/169
f 189/215/189 154/177/154 133/155/133
f 169/195/169 190/216/190 172/198/172
f 172/198/172 191/217/191 174/200/174
f 192/218/192 167/192/167 146/182/146
f 181/207/181 188/214/188 166/191/166
f 165/190/165 186/212/186 183/209/183
f 187/213/187 159/183/159 125/146/125
f 193/219/193 181/207/181 162/187/162
f 179/205/179 194/220/194 162/187/162
f 144/167/144 170/196/170 184/210/184
f 171/197/171 189/215/189 133/155/133
f 188/214/188 190/216/190 169/195/169
f 174/200/174 191/217/191 186/212/186
f 180/206/180 150/173/150 178/204/178
f 163/188/163 195/221/195 153/176/153
f 191/217/191 172/198/172 190/216/190
f 162/187/162 194/220/194 193/219/193
f 180/222/180 192/218/192 146/182/146
f 168/194/168 173/199/173 196/223/196
f 160/184/160 184/210/184 185/211/185
f 197/224/197 179/205/179 167/192/167
f 181/207/181 193/219/193 188/214/188
f 196/223/196 178/225/178 168/194/168
f 173/199/173 183/209/183 198/226/198
f 135/186/135 159/183/159 199/227/199
f 195/221/195 163/188/163 185/211/185
f 192/218/192 197/224/197 167/192/167
f 200/228/200 194/220/194 179/205/179
f 190/216/190 201/229/201 191/217/191
f 186/212/186 191/217/191 201/229/201
f 186/212/186 202/230/202 183/209/183
f 171/197/171 147/170/147 203/231/203
f 190/216/190 188/214/188 204/232/204
f 180/222/180 178/225/178 196/223/196
f 198/226/198 196/223/196 173/199/173
f 205/233/205 170/196/170 148/171/148
f 188/214/188 193/219/193 204/232/204
f 204/232/204 193/219/193 194/220/194
f 199/227/199 175/234/175 135/186/135
f 179/205/179 197/224/197 200/228/200
f 196/223/196 192/218/192 180/222/180
f 202/230/202 198/226/198 183/209/183
f 204/232/204 201/229/201 190/216/190
f 201/229/201 202/230/202 186/212/186
f 206/235/206 177/203/177 164/189/164
f 187/213/187 153/176/153 195/221/195
f 176/202/176 203/231/203 147/170/147
f 148/171/148 182/208/182 205/233/205
f 200/228/200 204/232/204 194/220/194
f 196/223/196 198/226/198 192/218/192
f 198/226/198 197/224/197 192/218/192
f 204/232/204 200/228/200 201/229/201
f 201/229/201 200/228/200 202/230/202
f 200/228/200 197/224/197 198/226/198
f 202/230/202 200/228/200 198/226/198
f 207/236/207 185/211/185 184/210/184
f 208/237/208 184/210/184 170/196/170
f 185/211/185 207/236/207 195/221/195
f 209/238/209 182/208/182 154/177/154
f 164/189/164 175/201/175 210/239/210
f 211/240/211 176/202/176 177/203/177
f 164/189/164 212/241/212 206/235/206
f 154/177/154 189/215/189 209/238/209
f 170/196/170 205/233/205 208/237/208
f 210/239/210 212/241/212 164/189/164
f 184/210/184 208/237/208 207/236/207
f 177/203/177 206/235/206 211/240/211
f 159/183/159 187/213/187 213/242/213
f 195/221/195 214/243/214 187/213/187
f 215/244/215 189/215/189 171/197/171
f 213/242/213 199/227/199 159/183/159
f 195/221/195 207/236/207 214/243/214
f 171/197/171 203/231/203 215/244/215
f 182/208/182 216/245/216 205/233/205
f 175/234/175 199/227/199 217/246/217
f 218/247/218 203/231/203 176/202/176
f 217/246/217 210/248/210 175/234/175
f 209/238/209 216/245/216 182/208/182
f 219/249/219 206/235/206 212/241/212
f 220/250/220 207/236/207 208/237/208
f 213/242/213 187/213/187 214/243/214
f 176/202/176 211/240/211 218/247/218
f 221/251/221 208/237/208 205/233/205
f 220/250/220 214/243/214 207/236/207
f 212/241/212 210/239/210 222/252/222
f 189/215/189 223/253/223 209/238/209
f 212/241/212 224/254/224 219/249/219
f 225/255/225 211/240/211 206/235/206
f 216/245/216 221/251/221 205/233/205
f 215/244/215 223/253/223 189/215/189
f 208/237/208 221/251/221 220/250/220
f 222/252/222 224/254/224 212/241/212
f 199/227/199 213/242/213 226/256/226
f 206/235/206 219/249/219 225/255/225
f 226/256/226 217/246/217 199/227/199
f 214/243/214 227/257/227 213/242/213
f 203/231/203 228/258/228 215/244/215
f 227/257/227 214/243/214 220/250/220
f 218/247/218 228/258/228 203/231/203
f 210/248/210 217/246/217 229/259/229
f 230/260/230 216/245/216 209/238/209
f 231/261/231 219/249/219 224/254/224
f 229/259/229 222/262/222 210/248/210
f 218/247/218 211/240/211 232/263/232
f 223/253/223 230/260/230 209/238/209
f 225/255/225 232/263/232 211/240/211
f 233/264/233 221/251/221 216/245/216
f 220/250/220 221/251/221 233/264/233
f 224/254/224 234/265/234 231/261/231
f 220/250/220 235/266/235 227/257/227
f 236/267/236 224/254/224 222/252/222
f 213/242/213 227/257/227 237/268/237
f 238/269/238 225/255/225 219/249/219
f 224/254/224 236/267/236 234/265/234
f 237/268/237 226/256/226 213/242/213
f 219/249/219 231/261/231 238/269/238
f 239/270/239 223/253/223 215/244/215
f 233/264/233 235/266/235 220/250/220
f 216/245/216 230/260/230 233/264/233
f 228/258/228 239/270/239 215/244/215
f 217/246/217 226/256/226 240/271/240
f 240/271/240 229/259/229 217/246/217
f 241/272/241 231/261/231 234/265/234
f 242/273/242 228/258/228 218/247/218
f 243/274/243 234/265/234 236/267/236
f 234/265/234 243/274/243 241/272/241
f 244/275/244 222/262/222 229/259/229
f 232/263/232 242/273/242 218/247/218
f 245/276/245 227/257/227 235/266/235
f 222/262/222 244/275/244 236/277/236
f 246/278/246 230/260/230 223/253/223
f 247/279/247 232/263/232 225/255/225
f 231/261/231 241/272/241 248/280/248
f 272/281/249 241/282/241 243/283/243
f 225/255/225 238/269/238 247/279/247
f 248/280/248 238/269/238 231/261/231
f 245/276/245 237/268/237 227/257/227
f 243/283/243 276/284/250 272/285/249
f 223/253/223 239/270/239 246/278/246
f 236/267/236 249/286/251 243/274/243
f 235/266/235 233/264/233 250/287/252
f 249/288/251 276/289/250 243/283/243
f 230/260/230 250/287/252 233/264/233
f 248/290/248 241/282/241 272/281/249
f 226/256/226 237/268/237 251/291/253
f 251/291/253 240/271/240 226/256/226
f 236/277/236 244/275/244 249/292/251
f 252/293/254 239/270/239 228/258/228
f 247/279/247 238/269/238 248/280/248
f 250/287/252 245/276/245 235/266/235
f 273/294/255 248/290/248 272/285/249
f 249/288/251 277/295/256 276/284/250
f 229/259/229 240/271/240 253/296/257
f 246/278/246 250/287/252 230/260/230
f 228/258/228 242/273/242 252/293/254
f 253/296/257 244/275/244 229/259/229
f 254/297/258 242/273/242 232/263/232
f 232/263/232 247/279/247 254/297/258
f 244/275/244 255/298/259 249/292/251
f 277/299/256 249/288/251 255/300/259
f 237/268/237 245/276/245 256/301/260
f 239/270/239 257/302/261 246/278/246
f 273/303/255 258/304/262 248/305/248
f 256/301/260 251/291/253 237/268/237
f 247/279/247 248/280/248 258/306/262
f 255/298/259 244/275/244 253/296/257
f 252/293/254 257/302/261 239/270/239
f 259/307/263 240/271/240 251/291/253
f 260/308/264 245/276/245 250/287/252
f 255/300/259 278/309/265 277/295/256
f 260/308/264 250/287/252 246/278/246
f 259/307/263 253/296/257 240/271/240
f 258/306/262 254/297/258 247/279/247
f 242/273/242 261/310/266 252/293/254
f 260/308/264 256/301/260 245/276/245
f 274/311/267 258/304/262 273/312/255
f 254/297/258 261/310/266 242/273/242
f 257/302/261 260/308/264 246/278/246
f 253/296/257 262/313/268 255/298/259
f 278/314/265 255/300/259 262/315/268
f 251/291/253 256/301/260 263/316/269
f 262/313/268 253/296/257 259/307/263
f 263/316/269 259/307/263 251/291/253
f 254/297/258 258/306/262 264/317/270
f 265/318/271 257/302/261 252/293/254
f 262/315/268 279/319/272 278/309/265
f 252/293/254 261/310/266 265/318/271
f 264/317/270 261/310/266 254/297/258
f 256/301/260 260/308/264 266/320/273
f 266/320/273 260/308/264 257/302/261
f 258/304/262 274/311/267 275/321/274
f 259/307/263 267/322/275 262/313/268
f 266/320/273 263/316/269 256/301/260
f 279/323/272 262/315/268 267/324/275
f 275/325/274 264/326/270 258/304/262
f 257/302/261 265/318/271 266/320/273
f 264/317/270 268/327/276 261/310/266
f 269/328/277 259/307/263 263/316/269
f 269/328/277 267/322/275 259/307/263
f 267/324/275 280/329/278 279/319/272
f 270/330/279 265/318/271 261/310/266
f 264/326/270 275/325/274 268/331/276
f 261/310/266 268/327/276 270/330/279
f 271/332/280 263/316/269 266/320/273
f 265/318/271 271/332/280 266/320/273
f 280/333/278 267/324/275 269/334/277
f 271/332/280 269/328/277 263/316/269
f 270/330/279 271/332/280 265/318/271
f 284/335/281 268/331/276 275/321/274
f 269/334/277 281/336/282 280/329/278
f 284/335/281 270/337/279 268/331/276
f 271/338/280 282/339/283 269/340/277
f 271/338/280 270/337/279 283/341/284
f 282/342/283 281/343/282 269/340/277
f 283/344/284 270/337/279 284/345/281
f 283/341/284 282/342/283 271/338/280
