# This file uses centimeters as units for non-parametric coordinates.

mtllib R_whiteEye.mtl
g default
v -1.081836 9.535236 3.786136
v -0.987771 9.654623 3.733528
v -1.079906 9.526382 3.763635
v -1.014906 9.666882 3.724077
v -1.100797 9.545128 3.751889
v -1.199110 9.426418 3.785393
v -0.992684 9.661188 3.757346
v -1.213516 9.451843 3.772826
v -0.922418 9.803577 3.696043
v -0.954516 9.810148 3.689219
v -1.199121 9.438847 3.807996
v -1.137893 9.588091 3.762817
v -0.930201 9.809296 3.721334
v -1.114553 9.576740 3.808256
v -1.338432 9.354347 3.798100
v -1.065845 9.695940 3.740720
v -1.237221 9.510248 3.782778
v -1.346882 9.385290 3.785511
v -1.038987 9.689718 3.785074
v -1.219455 9.495516 3.829327
v -0.918325 9.967588 3.646904
v -0.892886 9.971724 3.677775
v -0.883539 9.965258 3.652005
v -1.337899 9.370197 3.821302
v -1.017028 9.828512 3.712271
v -0.988127 9.828362 3.755374
v -1.359866 9.456997 3.796412
v -1.176529 9.634014 3.776402
v -1.348888 9.440172 3.843771
v -1.155605 9.624914 3.821939
v -1.490606 9.309813 3.800829
v -1.494445 9.343786 3.788272
v -1.253215 9.598194 3.794915
v -0.906213 10.131433 3.598122
v -0.880465 10.140604 3.627544
v -1.236666 9.587599 3.841434
v -1.141937 9.718782 3.767606
v -0.987218 9.980070 3.673386
v -0.870656 10.132656 3.602019
v -1.107907 9.845221 3.745335
v -1.119409 9.713791 3.812692
v -0.957200 9.986174 3.715008
v -1.491195 9.327488 3.824299
v -1.084303 9.846207 3.789487
v -1.501456 9.422810 3.799596
v -1.369411 9.561821 3.809520
v -1.497663 9.404751 3.847250
v -1.359489 9.550077 3.856873
v -1.243340 9.711266 3.789706
v -1.649215 9.292156 3.792727
v -0.883476 10.298370 3.546646
v -1.649095 9.327074 3.780373
v -1.086177 9.993666 3.709692
v -0.918263 10.293549 3.543807
v -1.227057 9.706579 3.836051
v -0.976978 10.140169 3.626225
v -1.061960 10.000603 3.752553
v -0.946639 10.152580 3.666044
v -0.892822 10.307674 3.571517
v -1.651737 9.310326 3.816158
v -1.223719 9.846256 3.769135
v -1.507723 9.536835 3.813151
v -1.652308 9.408298 3.791979
v -1.207319 9.848133 3.814730
v -1.366952 9.691031 3.804291
v -1.504591 9.524364 3.860776
v -1.655901 9.389738 3.839317
v -1.357808 9.686182 3.851545
v -0.922294 10.456007 3.489687
v -0.987158 10.298294 3.572736
v -1.803420 9.335188 3.760915
v -1.807518 9.300993 3.772769
v -0.957137 10.316902 3.610404
v -1.078286 10.151836 3.663760
v -1.209621 9.999104 3.734547
v -0.954395 10.446730 3.487876
v -1.053878 10.164679 3.704967
v -1.193066 10.006893 3.778976
v -0.930076 10.465652 3.513736
v -1.656672 9.525021 3.805724
v -1.358967 9.838924 3.783363
v -1.811922 9.318563 3.795901
v -1.509051 9.674618 3.808029
v -1.660419 9.512196 3.853046
v -1.350351 9.841351 3.829948
v -1.506558 9.669518 3.855549
v -1.016912 10.444704 3.517377
v -1.802732 9.414427 3.772922
v -1.086117 10.307678 3.610373
v -0.987592 10.599472 3.434684
v -0.988006 10.469284 3.552659
v -1.959084 9.337074 3.743147
v -0.992503 10.607590 3.458012
v -1.813668 9.395956 3.819270
v -1.061898 10.326305 3.649538
v -1.351435 9.998949 3.748648
v -1.203922 10.159538 3.688588
v -1.014731 10.584042 3.433991
v -1.950283 9.368500 3.732085
v -1.507524 9.829800 3.786948
v -1.660035 9.665237 3.800537
v -1.342969 10.007339 3.794139
v -1.187279 10.172895 3.731459
v -1.964446 9.352762 3.765827
v -1.663977 9.659903 3.847751
v -1.505529 9.832315 3.833803
v -1.107792 10.449701 3.554145
v -1.805044 9.528561 3.786825
v -1.065679 10.569609 3.464389
v -1.943253 9.440763 3.744758
v -1.084184 10.473944 3.590941
v -1.038814 10.599878 3.497201
v -1.347803 10.163664 3.701952
v -1.209560 10.317257 3.633920
v -1.815628 9.515707 3.833236
v -1.100577 10.699688 3.386715
v -1.961271 9.423132 3.789550
v -2.097784 9.401411 3.705823
v -1.081609 10.727236 3.409122
v -1.504936 9.995256 3.751848
v -1.339313 10.177374 3.745958
v -1.193003 10.336069 3.674861
v -2.102323 9.413712 3.728025
v -1.662467 9.822653 3.779186
v -2.082832 9.427652 3.695857
v -1.079678 10.721743 3.385557
v -1.141776 10.566076 3.499619
v -1.503125 10.003807 3.797614
v -1.941770 9.545893 3.758843
v -1.810289 9.666235 3.781356
v -1.137687 10.670610 3.420431
v -1.666560 9.825012 3.825734
v -1.223602 10.462297 3.574289
v -1.119241 10.595751 3.533740
v -2.064380 9.487230 3.709540
v -1.114338 10.705706 3.451179
v -1.959023 9.533392 3.803788
v -1.820624 9.660780 3.827741
v -1.207197 10.486622 3.612785
v -1.503386 10.164328 3.704200
v -1.351373 10.325315 3.645423
v -1.176337 10.640614 3.458027
v -1.213262 10.788063 3.350197
v -2.089047 9.471315 3.752332
v -1.663946 9.990322 3.743621
v -2.195104 9.514675 3.654997
v -1.198859 10.818680 3.371572
v -1.243174 10.584732 3.513440
v -1.501584 10.178125 3.748500
v -1.155405 10.673914 3.490152
v -1.342905 10.344233 3.687584
v -2.219095 9.503588 3.685441
v -2.055480 9.575871 3.723881
v -1.236987 10.745766 3.391999
v -1.950258 9.674797 3.752645
v -1.198845 10.816059 3.345866
v -1.816540 9.821201 3.759587
v -1.668111 9.998756 3.789077
v -2.216652 9.494749 3.662986
v -1.226883 10.614868 3.548769
v -1.358845 10.476320 3.581763
v -1.253009 10.680471 3.452604
v -2.162821 9.559572 3.672070
v -1.219210 10.784264 3.421712
v -2.079167 9.564154 3.766837
v -1.967100 9.669228 3.797597
v -1.826681 9.823378 3.805367
v -1.664420 10.161520 3.695320
v -1.236451 10.715553 3.484674
v -1.350225 10.500753 3.621388
v -2.192960 9.546730 3.712772
v -1.504872 10.330093 3.645946
v -2.129638 9.607491 3.692012
v -2.070393 9.688250 3.716478
v -1.366777 10.609552 3.513774
v -1.346603 10.849813 3.322300
v -1.359612 10.797142 3.372540
v -2.281351 9.631639 3.611944
v -1.962492 9.822128 3.729926
v -1.369191 10.718552 3.443661
v -1.337611 10.882500 3.342980
v -1.668601 10.175222 3.739309
v -1.821980 9.986435 3.723777
v -1.503059 10.349031 3.688426
v -2.157540 9.597033 3.733224
v -2.308608 9.624569 3.640832
v -2.235687 9.663385 3.637140
v -1.357627 10.640335 3.549758
v -2.094108 9.682451 3.759281
v -1.338141 10.882347 3.314812
v -2.166713 9.690264 3.676872
v -2.308994 9.617857 3.616545
v -1.359260 10.755047 3.475754
v -1.979093 9.823854 3.774278
v -1.507399 10.485775 3.579471
v -1.663882 10.329405 3.636374
v -1.832079 9.994652 3.768488
v -2.269376 9.655479 3.676133
v -1.824441 10.155394 3.675773
v -1.348622 10.837812 3.401715
v -2.093435 9.822054 3.692131
v -2.196337 9.683823 3.717340
v -1.505400 10.510284 3.619370
v -1.508870 10.625078 3.507411
v -1.668044 10.348257 3.678535
v -1.972567 9.981667 3.693652
v -1.501189 10.826939 3.355488
v -1.494151 10.885370 3.300688
v -2.203170 9.814743 3.648359
v -2.342474 9.771524 3.566327
v -1.507494 10.741051 3.432272
v -1.834563 10.168859 3.719018
v -2.117490 9.822805 3.734143
v -1.490892 10.919178 3.320868
v -1.506370 10.656212 3.543470
v -2.371850 9.769178 3.593688
v -2.285953 9.793201 3.599918
v -1.989154 9.989357 3.736927
v -1.821917 10.321272 3.617874
v -1.490300 10.920372 3.291430
v -1.662340 10.487167 3.569008
v -1.504353 10.778294 3.464172
v -2.374852 9.763159 3.567442
v -2.234013 9.814213 3.687690
v -1.977004 10.146156 3.646242
v -2.109601 9.974060 3.654862
v -1.497384 10.868786 3.384192
v -2.321764 9.791250 3.637292
v -1.659852 10.628458 3.495883
v -1.832014 10.339876 3.659299
v -1.666429 10.511627 3.608566
v -1.993646 10.159166 3.688024
v -2.316762 9.943071 3.555667
v -2.379285 9.926931 3.517549
v -1.648797 10.894535 3.284606
v -1.652037 10.834461 3.340902
v -1.816415 10.477175 3.552111
v -2.133927 9.980711 3.695672
v -2.226422 9.961937 3.608732
v -2.115965 10.134159 3.607835
v -1.656439 10.746468 3.419395
v -1.972505 10.308031 3.590427
v -1.663787 10.659611 3.531556
v -1.651430 10.928574 3.304327
v -2.409822 9.929510 3.543463
v -2.353754 9.947309 3.591355
v -1.655618 10.876537 3.369061
v -2.414240 9.922663 3.516475
v -1.648903 10.930197 3.274635
v -1.826552 10.501348 3.590934
v -1.810109 10.616693 3.480738
v -2.257967 9.967321 3.646657
v -2.234824 10.119652 3.561358
v -2.140410 10.146374 3.647069
v -1.660177 10.783827 3.450845
v -1.989090 10.326250 3.630370
v -2.327367 10.102592 3.506660
v -1.804815 10.732777 3.405947
v -1.962371 10.459526 3.528327
v -2.109540 10.292212 3.554235
v -2.391656 10.090097 3.466599
v -1.802464 10.818554 3.328814
v -1.803127 10.876774 3.273331
v -1.820436 10.647472 3.515662
v -1.807211 10.911554 3.263370
v -2.266592 10.130928 3.597590
v -2.422519 10.097692 3.491008
v -1.950083 10.593323 3.462127
v -1.815390 10.769640 3.436632
v -1.978967 10.483257 3.565717
v -2.427352 10.089334 3.464187
v -2.364706 10.113119 3.540486
v -2.226362 10.275948 3.509414
v -2.133864 10.309887 3.591558
v -1.813390 10.859993 3.356214
v -2.093317 10.438097 3.497283
v -1.811619 10.910254 3.292470
v -2.316701 10.261293 3.455018
v -1.941550 10.702623 3.392983
v -2.379223 10.252892 3.414451
v -1.942998 10.780909 3.320888
v -1.950005 10.833021 3.268875
v -1.966919 10.623381 3.495811
v -2.414176 10.255774 3.411116
v -1.958794 10.865078 3.259860
v -2.257905 10.293022 3.543642
v -2.070227 10.561718 3.440211
v -2.203055 10.419224 3.457170
v -2.117368 10.461292 3.532197
v -1.958794 10.738363 3.422671
v -2.353691 10.278038 3.486750
v -2.055274 10.658146 3.381570
v -2.409758 10.265459 3.437206
v -2.285835 10.409393 3.405025
v -1.961005 10.820770 3.347493
v -2.064145 10.722748 3.318761
v -2.342352 10.408106 3.364985
v -2.166553 10.537560 3.408882
v -1.964159 10.865065 3.287505
v -2.082578 10.763872 3.273226
v -2.093936 10.590738 3.472000
v -2.374728 10.415588 3.361087
v -2.129447 10.614090 3.373637
v -2.097520 10.791052 3.266297
v -2.233893 10.441950 3.489144
v -2.235520 10.537054 3.360810
v -2.162615 10.642090 3.329682
v -2.281177 10.548798 3.321857
v -2.194884 10.669237 3.289824
v -2.078953 10.692108 3.410079
v -2.321641 10.432171 3.434577
v -2.088802 10.760065 3.344718
v -2.371725 10.425535 3.386090
v -2.308814 10.562706 3.317701
v -2.102061 10.793547 3.291601
v -2.216425 10.690107 3.284908
v -2.196169 10.565783 3.438386
v -2.157341 10.646032 3.401439
v -2.269203 10.565639 3.388260
v -2.308427 10.570971 3.341498
v -2.192745 10.675697 3.355694
v -2.218868 10.695589 3.308427
vt 0.164479 0.983895
vt 0.164380 0.984015
vt 0.163676 0.983175
vt 0.188071 0.993554
vt 0.188242 0.993661
vt 0.187562 0.994484
vt 0.187434 0.994334
vt 0.165246 0.984646
vt 0.163816 0.983093
vt 0.186635 0.994907
vt 0.163142 0.982165
vt 0.186716 0.995096
vt 0.188549 0.992609
vt 0.188754 0.992677
vt 0.165304 0.984490
vt 0.187200 0.994043
vt 0.163311 0.982116
vt 0.164710 0.983607
vt 0.166236 0.985071
vt 0.187731 0.993355
vt 0.186501 0.994517
vt 0.185715 0.995283
vt 0.164155 0.982892
vt 0.165440 0.984101
vt 0.188871 0.991546
vt 0.185753 0.995503
vt 0.162969 0.981012
vt 0.189095 0.991587
vt 0.162789 0.981039
vt 0.166259 0.984891
vt 0.188119 0.992487
vt 0.163744 0.981991
vt 0.185664 0.994809
vt 0.186953 0.993732
vt 0.166316 0.984414
vt 0.164971 0.983283
vt 0.167304 0.985293
vt 0.184713 0.995475
vt 0.186426 0.993938
vt 0.189037 0.990419
vt 0.162796 0.979837
vt 0.165525 0.983498
vt 0.187214 0.993191
vt 0.184721 0.995711
vt 0.188393 0.991474
vt 0.189268 0.990437
vt 0.162613 0.979850
vt 0.187496 0.992374
vt 0.164697 0.982718
vt 0.163453 0.980937
vt 0.167306 0.985103
vt 0.164400 0.981865
vt 0.184716 0.994958
vt 0.185651 0.994125
vt 0.167309 0.984580
vt 0.166341 0.983698
vt 0.186542 0.993213
vt 0.168406 0.985314
vt 0.162613 0.978646
vt 0.183678 0.995487
vt 0.187714 0.991395
vt 0.189040 0.989279
vt 0.165409 0.982737
vt 0.188543 0.990382
vt 0.164171 0.980850
vt 0.163296 0.979800
vt 0.189268 0.989272
vt 0.183661 0.995726
vt 0.162796 0.978647
vt 0.168394 0.985121
vt 0.186736 0.992343
vt 0.184742 0.994217
vt 0.183717 0.994959
vt 0.165208 0.981826
vt 0.185733 0.993296
vt 0.167290 0.983802
vt 0.168359 0.984589
vt 0.166263 0.982824
vt 0.189088 0.988141
vt 0.188556 0.989280
vt 0.162802 0.977477
vt 0.182655 0.995327
vt 0.169498 0.985147
vt 0.163286 0.978651
vt 0.187844 0.990331
vt 0.186905 0.991342
vt 0.188875 0.988179
vt 0.164036 0.979746
vt 0.165031 0.980789
vt 0.182614 0.995560
vt 0.162977 0.977502
vt 0.183771 0.994205
vt 0.185861 0.992343
vt 0.169472 0.984959
vt 0.184811 0.993333
vt 0.168305 0.983795
vt 0.166134 0.981824
vt 0.167225 0.982868
vt 0.188431 0.988237
vt 0.182728 0.994815
vt 0.187870 0.989259
vt 0.188724 0.987092
vt 0.163425 0.977564
vt 0.181623 0.995206
vt 0.163340 0.976460
vt 0.169399 0.984440
vt 0.164012 0.978635
vt 0.170532 0.984782
vt 0.185991 0.991298
vt 0.187021 0.990271
vt 0.188538 0.987172
vt 0.181692 0.994994
vt 0.163189 0.976398
vt 0.184905 0.992332
vt 0.183836 0.993305
vt 0.166000 0.980742
vt 0.164913 0.979684
vt 0.170484 0.984606
vt 0.168239 0.982844
vt 0.167132 0.981816
vt 0.187798 0.988259
vt 0.182808 0.994078
vt 0.188172 0.987321
vt 0.181810 0.994532
vt 0.164093 0.977595
vt 0.163705 0.976610
vt 0.186096 0.990204
vt 0.187061 0.989195
vt 0.169312 0.983665
vt 0.188020 0.986306
vt 0.170363 0.984140
vt 0.180727 0.994666
vt 0.163887 0.975567
vt 0.185007 0.991253
vt 0.165893 0.979615
vt 0.164874 0.978573
vt 0.171379 0.984074
vt 0.183909 0.992288
vt 0.180834 0.994490
vt 0.188169 0.986177
vt 0.187637 0.987408
vt 0.163771 0.975461
vt 0.167028 0.980697
vt 0.171458 0.984220
vt 0.181922 0.993857
vt 0.182867 0.993193
vt 0.187746 0.986561
vt 0.168164 0.981775
vt 0.187040 0.988179
vt 0.164267 0.976707
vt 0.181024 0.994123
vt 0.164157 0.975821
vt 0.170239 0.983433
vt 0.169247 0.982730
vt 0.164901 0.977520
vt 0.185101 0.990131
vt 0.186150 0.989106
vt 0.187456 0.986834
vt 0.187313 0.985623
vt 0.171189 0.983707
vt 0.183988 0.991193
vt 0.180126 0.993809
vt 0.164625 0.974860
vt 0.186974 0.987290
vt 0.166932 0.979542
vt 0.164461 0.976107
vt 0.165840 0.978484
vt 0.172114 0.983366
vt 0.181181 0.993561
vt 0.187122 0.985991
vt 0.181960 0.993025
vt 0.187420 0.985447
vt 0.182918 0.992189
vt 0.168085 0.980639
vt 0.164547 0.974712
vt 0.179978 0.993939
vt 0.164971 0.976589
vt 0.172231 0.983471
vt 0.186172 0.988053
vt 0.186963 0.986555
vt 0.180400 0.993554
vt 0.164813 0.975228
vt 0.171020 0.983122
vt 0.170194 0.982555
vt 0.169193 0.981674
vt 0.184070 0.990057
vt 0.164981 0.975816
vt 0.165820 0.977393
vt 0.171844 0.983114
vt 0.185169 0.989009
vt 0.180689 0.993281
vt 0.181170 0.992826
vt 0.186183 0.987090
vt 0.186454 0.985116
vt 0.186335 0.985579
vt 0.179608 0.992945
vt 0.181970 0.992062
vt 0.186222 0.986256
vt 0.165520 0.974330
vt 0.168002 0.979468
vt 0.182971 0.991106
vt 0.166864 0.978386
vt 0.171540 0.982829
vt 0.172658 0.982476
vt 0.179973 0.992797
vt 0.165807 0.976384
vt 0.171028 0.982349
vt 0.186524 0.984905
vt 0.180509 0.992709
vt 0.179423 0.993027
vt 0.165763 0.975505
vt 0.165474 0.974154
vt 0.170181 0.981545
vt 0.185223 0.987925
vt 0.184152 0.988921
vt 0.172810 0.982536
vt 0.169139 0.980551
vt 0.172294 0.982326
vt 0.183039 0.989982
vt 0.165640 0.974796
vt 0.181103 0.991937
vt 0.171731 0.982231
vt 0.166811 0.977264
vt 0.185275 0.986920
vt 0.167920 0.978298
vt 0.181991 0.991009
vt 0.185416 0.985295
vt 0.185488 0.984782
vt 0.180345 0.991860
vt 0.179270 0.991941
vt 0.185335 0.986033
vt 0.169071 0.979394
vt 0.171099 0.981419
vt 0.166531 0.973976
vt 0.166757 0.976208
vt 0.173019 0.981437
vt 0.179713 0.991882
vt 0.170162 0.980454
vt 0.183132 0.988861
vt 0.185530 0.984550
vt 0.184231 0.987825
vt 0.166692 0.975272
vt 0.179057 0.991980
vt 0.171906 0.981344
vt 0.182044 0.989911
vt 0.166505 0.973787
vt 0.173193 0.981460
vt 0.181080 0.990922
vt 0.166605 0.974498
vt 0.172572 0.981375
vt 0.184304 0.986807
vt 0.168978 0.978239
vt 0.167841 0.977162
vt 0.170110 0.979322
vt 0.179585 0.990840
vt 0.179101 0.990844
vt 0.184464 0.984617
vt 0.184425 0.985148
vt 0.183233 0.987781
vt 0.171127 0.980366
vt 0.180271 0.990859
vt 0.181118 0.989845
vt 0.184369 0.985906
vt 0.182147 0.988816
vt 0.167767 0.976093
vt 0.167608 0.973808
vt 0.173204 0.980297
vt 0.172714 0.980291
vt 0.167645 0.974344
vt 0.178873 0.990853
vt 0.184482 0.984378
vt 0.168876 0.977119
vt 0.183327 0.986778
vt 0.171988 0.980305
vt 0.167595 0.973616
vt 0.173386 0.980298
vt 0.180293 0.989787
vt 0.171092 0.979254
vt 0.167701 0.975142
vt 0.170006 0.978194
vt 0.179593 0.989738
vt 0.183396 0.985892
vt 0.182276 0.987770
vt 0.181231 0.988773
vt 0.179098 0.989704
vt 0.183423 0.985149
vt 0.183425 0.984629
vt 0.168783 0.976067
vt 0.183418 0.984393
vt 0.171969 0.979194
vt 0.168698 0.973634
vt 0.173211 0.979109
vt 0.182403 0.986815
vt 0.168718 0.975131
vt 0.169875 0.977110
vt 0.178867 0.989688
vt 0.172710 0.979143
vt 0.180421 0.988721
vt 0.170975 0.978147
vt 0.168697 0.974349
vt 0.173394 0.979097
vt 0.181398 0.987771
vt 0.168698 0.973825
vt 0.179738 0.988644
vt 0.182485 0.985984
vt 0.179258 0.988573
vt 0.182471 0.985297
vt 0.182420 0.984821
vt 0.169748 0.976108
vt 0.179034 0.988534
vt 0.182382 0.984601
vt 0.171838 0.978089
vt 0.181591 0.986899
vt 0.180636 0.987740
vt 0.173228 0.977905
vt 0.169770 0.973852
vt 0.170803 0.977108
vt 0.169671 0.975232
vt 0.172559 0.978005
vt 0.181707 0.986171
vt 0.173047 0.977931
vt 0.180011 0.987628
vt 0.169694 0.974512
vt 0.181632 0.985591
vt 0.179579 0.987507
vt 0.180917 0.986921
vt 0.169749 0.974033
vt 0.181496 0.985199
vt 0.170605 0.976195
vt 0.179374 0.987440
vt 0.181180 0.986378
vt 0.181416 0.985010
vt 0.171613 0.977071
vt 0.180399 0.986757
vt 0.180931 0.986066
vt 0.172876 0.976776
vt 0.170767 0.974277
vt 0.180057 0.986558
vt 0.180695 0.985774
vt 0.170490 0.975430
vt 0.172272 0.976948
vt 0.170574 0.974824
vt 0.172708 0.976824
vt 0.179886 0.986452
vt 0.170710 0.974434
vt 0.180567 0.985624
vt 0.171319 0.976214
vt 0.172346 0.975760
vt 0.171641 0.974911
vt 0.171045 0.975647
vt 0.171864 0.976041
vt 0.172205 0.975842
vt 0.171308 0.975321
vt 0.171540 0.975033
vn 0.552403 -0.336888 0.762468
vn 0.595277 -0.660008 -0.458296
vn 0.691386 -0.508375 -0.513361
vn -0.138500 -0.157617 -0.977740
vn -0.093930 -0.138253 -0.985933
vn 0.445578 -0.782976 -0.434061
vn 0.648917 -0.183357 0.738435
vn -0.073601 -0.089799 -0.993237
vn 0.750207 -0.379863 -0.541196
vn -0.192127 -0.189536 -0.962893
vn 0.384904 -0.424018 0.819791
vn -0.276588 0.031245 -0.960481
vn 0.675325 -0.024238 0.737122
vn 0.349053 -0.105692 0.931124
vn 0.307229 -0.861094 -0.405126
vn -0.337229 -0.038501 -0.940635
vn -0.195791 0.092143 -0.976307
vn -0.032687 -0.041298 -0.998612
vn 0.408908 -0.005835 0.912557
vn 0.236389 -0.162026 0.958054
vn -0.214813 -0.239298 -0.946885
vn 0.671533 0.108955 0.732921
vn 0.779603 -0.278304 -0.561041
vn 0.214155 -0.443456 0.870336
vn -0.364758 -0.121020 -0.923204
vn 0.424225 0.097619 0.900280
vn -0.098421 0.120488 -0.987824
vn -0.262033 0.011754 -0.964987
vn 0.120467 -0.181921 0.975906
vn 0.257462 -0.007545 0.966259
vn 0.179265 -0.904626 -0.386673
vn 0.024360 -0.022698 -0.999446
vn -0.171575 0.025266 -0.984847
vn -0.220496 -0.294830 -0.929762
vn 0.666214 0.225738 0.710775
vn 0.169789 -0.022130 0.985232
vn -0.265884 -0.062469 -0.961979
vn -0.370843 -0.203321 -0.906166
vn 0.787981 -0.185980 -0.586940
vn -0.274697 -0.146847 -0.950251
vn 0.262210 0.063881 0.962894
vn 0.426575 0.189430 0.884392
vn 0.067666 -0.439679 0.895603
vn 0.271475 0.147459 0.951082
vn -0.005500 0.127832 -0.991781
vn -0.076572 0.031917 -0.996553
vn 0.016514 -0.184808 0.982636
vn 0.076305 -0.029396 0.996651
vn -0.143103 -0.091115 -0.985505
vn 0.058862 -0.922468 -0.381561
vn 0.776671 -0.096134 -0.622527
vn 0.088794 -0.016193 -0.995918
vn -0.278248 -0.221862 -0.934535
vn -0.215095 -0.349423 -0.911942
vn 0.144073 0.090264 0.985442
vn -0.371671 -0.280548 -0.884960
vn 0.275354 0.222085 0.935339
vn 0.426803 0.273482 0.862002
vn 0.667661 0.334418 0.665127
vn -0.067366 -0.439208 0.895856
vn -0.142558 -0.171297 -0.974851
vn 0.008842 0.035786 -0.999320
vn 0.083838 0.130555 -0.987890
vn 0.144318 0.170174 0.974789
vn -0.054388 -0.092320 -0.994243
vn -0.008728 -0.033594 0.999397
vn -0.081500 -0.186401 0.979088
vn 0.055837 0.090701 0.994312
vn 0.750824 0.000016 -0.660502
vn -0.370593 -0.354809 -0.858354
vn 0.152473 -0.020365 -0.988098
vn -0.060229 -0.910820 -0.408387
vn 0.426820 0.354137 0.832113
vn -0.278568 -0.289657 -0.915696
vn -0.145630 -0.238641 -0.960126
vn -0.196974 -0.399604 -0.895275
vn 0.275750 0.289936 0.916460
vn 0.147643 0.238009 0.959976
vn 0.668850 0.444444 0.595911
vn 0.087066 0.038513 -0.995458
vn -0.050497 -0.175940 -0.983105
vn -0.200197 -0.447468 0.871604
vn 0.021536 -0.089135 -0.995787
vn -0.087132 -0.036323 0.995534
vn 0.052551 0.174255 0.983297
vn -0.020762 0.087228 0.995972
vn -0.363835 -0.431216 -0.825637
vn 0.172466 0.132627 -0.976046
vn -0.277673 -0.355705 -0.892397
vn 0.700940 0.127763 -0.701684
vn 0.424390 0.437954 0.792521
vn -0.181557 -0.877961 -0.442969
vn 0.642693 0.575736 0.505444
vn -0.178525 -0.190052 0.965406
vn 0.274782 0.355999 0.893174
vn -0.052767 -0.242112 -0.968812
vn -0.147432 -0.298015 -0.943107
vn -0.147204 -0.440683 -0.885511
vn 0.209718 -0.034701 -0.977146
vn 0.023936 -0.173553 -0.984534
vn 0.090247 -0.086131 -0.992188
vn 0.054980 0.241424 0.968861
vn 0.149365 0.297963 0.942819
vn -0.337662 -0.458939 0.821803
vn -0.090208 0.084240 0.992354
vn -0.023088 0.171680 0.984882
vn -0.274325 -0.426071 -0.862096
vn 0.164758 0.040013 -0.985522
vn -0.334212 -0.512507 -0.790973
vn 0.263427 0.130247 -0.955846
vn 0.271110 0.426050 0.863123
vn 0.403173 0.531602 0.744883
vn -0.054145 -0.301106 -0.952052
vn -0.145428 -0.356900 -0.922753
vn -0.165007 -0.037834 0.985567
vn -0.087869 -0.454887 -0.886204
vn -0.279584 -0.192672 0.940590
vn -0.323643 -0.809854 -0.489277
vn 0.545639 0.716763 0.434200
vn 0.023065 -0.241058 -0.970237
vn 0.056362 0.301071 0.951935
vn 0.147438 0.357319 0.922272
vn -0.498489 -0.447585 0.742413
vn 0.091616 -0.170852 -0.981028
vn 0.254849 -0.077745 -0.963850
vn 0.589156 0.272245 -0.760775
vn -0.267170 -0.502385 -0.822331
vn -0.022248 0.240400 0.970419
vn 0.248365 0.040742 -0.967809
vn 0.158558 -0.085382 -0.983651
vn -0.268705 -0.583284 -0.766536
vn -0.091592 0.168950 0.981360
vn -0.142345 -0.420270 -0.896165
vn 0.263325 0.501452 0.824140
vn 0.358525 0.107113 -0.927355
vn 0.341796 0.626096 0.700841
vn -0.248260 -0.038207 0.967940
vn -0.159251 0.083435 0.983706
vn 0.144105 0.421151 0.895470
vn 0.022563 -0.301540 -0.953187
vn -0.052715 -0.358984 -0.931854
vn -0.250343 -0.573272 -0.780185
vn -0.068615 -0.491563 -0.868135
vn -0.391302 -0.178924 0.902701
vn 0.092280 -0.239176 -0.966581
vn 0.269986 -0.130209 -0.954020
vn 0.384741 0.819980 0.423801
vn -0.142765 -0.491814 -0.858917
vn -0.021751 0.301547 0.953203
vn 0.245631 0.570822 0.783472
vn 0.054927 0.359569 0.931501
vn -0.657065 -0.367799 0.658020
vn 0.339927 0.039161 -0.939636
vn -0.193413 -0.636215 -0.746875
vn 0.233028 -0.084452 -0.968796
vn 0.447802 0.400770 -0.799285
vn 0.158885 -0.169832 -0.972580
vn -0.092278 0.238502 0.966748
vn -0.462416 -0.685169 -0.562774
vn 0.143731 0.492478 0.858375
vn -0.050382 -0.421246 -0.905546
vn -0.170070 -0.585087 -0.792938
vn 0.438337 0.050637 -0.897383
vn 0.233056 0.685617 0.689648
vn -0.338409 -0.035936 0.940313
vn -0.234378 0.082756 0.968617
vn -0.159675 0.167917 0.972784
vn 0.092413 -0.300282 -0.949363
vn 0.168662 0.582837 0.794893
vn 0.052433 0.422731 0.904737
vn -0.500154 -0.128624 0.856330
vn 0.023014 -0.360739 -0.932383
vn 0.425920 0.030455 -0.904248
vn 0.318507 -0.078476 -0.944667
vn -0.054192 -0.495852 -0.866714
vn -0.032481 -0.539963 -0.841062
vn -0.097908 -0.665520 -0.739931
vn 0.316286 -0.145130 -0.937497
vn 0.231862 -0.168159 -0.958103
vn -0.076210 -0.598407 -0.797559
vn 0.216252 0.865197 0.452404
vn -0.092412 0.300283 0.949363
vn 0.161127 -0.237296 -0.957982
vn -0.022203 0.361377 0.932156
vn -0.421890 -0.026015 0.906274
vn -0.757128 -0.221777 0.614468
vn 0.498149 -0.015742 -0.866949
vn 0.055640 0.497218 0.865840
vn -0.319402 0.077574 0.944439
vn 0.310031 0.483281 -0.818731
vn 0.433253 -0.043369 -0.900228
vn -0.567551 -0.543262 -0.618670
vn 0.075944 0.596407 0.799082
vn -0.233819 0.166364 0.957942
vn 0.023972 -0.424037 -0.905328
vn 0.092170 -0.360155 -0.928328
vn -0.161915 0.236587 0.958024
vn -0.561063 -0.032183 0.827147
vn 0.162142 -0.297220 -0.940941
vn 0.119090 0.708134 0.695963
vn 0.320516 -0.158550 -0.933880
vn -0.429890 0.044972 0.901761
vn -0.023127 0.425766 0.904538
vn 0.021599 -0.499353 -0.866129
vn -0.092168 0.360798 0.928079
vn 0.235369 -0.234301 -0.943242
vn -0.005511 -0.673883 -0.738818
vn 0.024172 -0.556329 -0.830610
vn 0.444997 -0.126938 -0.886490
vn 0.368066 -0.174108 -0.913353
vn 0.008929 -0.603270 -0.797487
vn -0.162931 0.297197 0.940812
vn -0.322174 0.157335 0.933515
vn 0.066089 0.875237 0.479159
vn -0.020824 0.501018 0.865186
vn -0.790878 -0.066176 0.608385
vn 0.527022 -0.095663 -0.844451
vn -0.237512 0.233478 0.942908
vn 0.160897 -0.356839 -0.920206
vn 0.181273 0.526438 -0.830664
vn 0.091572 -0.424249 -0.900904
vn -0.008822 0.601539 0.798795
vn -0.625521 -0.421228 -0.656727
vn -0.442019 0.127756 0.887861
vn 0.237038 -0.292423 -0.926446
vn 0.324739 -0.225681 -0.918484
vn 0.015059 0.714495 0.699478
vn -0.580187 0.069150 0.811542
vn 0.090184 -0.499756 -0.861459
vn -0.161694 0.357439 0.919833
vn -0.091551 0.425993 0.900083
vn -0.239181 0.292308 0.925931
vn 0.534591 -0.179145 -0.825905
vn 0.390245 -0.222564 -0.893406
vn 0.089261 -0.556994 -0.825706
vn 0.084469 -0.673813 -0.734058
vn 0.158762 -0.420260 -0.893407
vn -0.326646 0.224935 0.917991
vn 0.449188 -0.202193 -0.870258
vn 0.326435 -0.284612 -0.901353
vn 0.087174 -0.603050 -0.792925
vn 0.235144 -0.350947 -0.906390
vn -0.090142 0.501396 0.860509
vn -0.065992 0.873129 0.483002
vn -0.793446 0.068926 0.604725
vn -0.585280 0.162164 0.794450
vn -0.081380 0.714304 0.695088
vn -0.653959 -0.317884 -0.686504
vn 0.060046 0.530207 -0.845739
vn -0.159553 0.421936 0.892476
vn 0.158369 -0.495499 -0.854049
vn -0.446506 0.202544 0.871555
vn 0.450065 -0.269453 -0.851374
vn -0.328315 0.284476 0.900712
vn -0.087257 0.601287 0.794255
vn -0.237281 0.351418 0.905651
vn 0.535443 -0.255438 -0.805017
vn 0.164461 -0.598741 -0.783876
vn 0.231671 -0.413338 -0.880614
vn 0.324428 -0.343793 -0.881222
vn 0.394866 -0.277701 -0.875764
vn 0.172090 -0.668712 -0.723332
vn 0.152577 -0.551973 -0.819784
vn -0.159057 0.497120 0.852979
vn -0.061607 0.519923 -0.851989
vn -0.447456 0.269879 0.852613
vn -0.790761 0.185687 0.583281
vn 0.232709 -0.487775 -0.841381
vn -0.164713 0.596991 0.785157
vn -0.233625 0.414705 0.879454
vn -0.657768 -0.226891 -0.718235
vn -0.585080 0.245500 0.772924
vn 0.448747 -0.335466 -0.828305
vn -0.326336 0.344107 0.880395
vn -0.177004 0.708870 0.682768
vn 0.320234 -0.407311 -0.855306
vn -0.198040 0.867831 0.455685
vn 0.533827 -0.329646 -0.778693
vn 0.247853 -0.589227 -0.769012
vn 0.391450 -0.332741 -0.857934
vn 0.262771 -0.655265 -0.708222
vn 0.209365 -0.533106 -0.819734
vn -0.234059 0.489051 0.840266
vn -0.654260 -0.134047 -0.744295
vn -0.188008 0.469904 -0.862463
vn -0.446073 0.335914 0.829567
vn 0.318067 -0.478849 -0.818253
vn 0.444037 -0.405967 -0.798763
vn -0.321883 0.408095 0.854312
vn -0.247752 0.587245 0.770560
vn -0.583657 0.324977 0.744133
vn 0.339214 -0.571864 -0.746931
vn -0.792949 0.291203 0.535194
vn 0.525695 -0.406348 -0.747346
vn -0.278198 0.696836 0.661079
vn 0.357647 -0.620195 -0.698174
vn 0.372544 -0.383673 -0.844989
vn 0.434262 -0.482671 -0.760556
vn -0.339568 0.849419 0.403956
vn 0.251232 -0.488186 -0.835797
vn -0.318958 0.479449 0.817554
vn -0.626150 -0.032114 -0.779041
vn 0.414787 -0.546457 -0.727555
vn -0.322523 0.380080 -0.866901
vn -0.441061 0.406122 0.800331
vn 0.495076 -0.489205 -0.718038
vn 0.434604 -0.560976 -0.704575
vn 0.321621 -0.424937 -0.846161
vn 0.267957 -0.443286 -0.855393
vn -0.337710 0.569614 0.749328
vn -0.578941 0.409581 0.705032
vn -0.388584 0.665527 0.637241
vn -0.789950 0.404350 0.460955
vn -0.568598 0.090164 -0.817660
vn -0.497437 0.795101 0.346945
vn -0.466398 0.246253 -0.849607
vn -0.430757 0.481936 0.763011
vn -0.410827 0.544197 0.731485
vn -0.556737 0.503239 0.660904
vn -0.755820 0.534981 0.377533
vn -0.499421 0.601757 0.623272
vn -0.650095 0.680222 0.338638
s 1
g R_whiteEye Jake
usemtl lambert2SG
f 1/1/1 3/2/2 2/3/3
f 4/4/4 2/5/3 3/6/2
f 3/6/2 5/7/5 4/4/4
f 6/8/6 3/2/2 1/1/1
f 2/3/3 7/9/7 1/1/1
f 8/10/8 5/7/5 3/6/2
f 7/9/7 2/3/3 9/11/9
f 3/6/2 6/12/6 8/10/8
f 2/5/3 4/4/4 10/13/10
f 10/13/10 9/14/9 2/5/3
f 1/1/1 11/15/11 6/8/6
f 4/4/4 5/7/5 12/16/12
f 9/11/9 13/17/13 7/9/7
f 14/18/14 1/1/1 7/9/7
f 15/19/15 6/8/6 11/15/11
f 10/13/10 4/4/4 16/20/16
f 5/7/5 8/10/8 17/21/17
f 8/10/8 6/12/6 18/22/18
f 19/23/19 7/9/7 13/17/13
f 20/24/20 11/15/11 1/1/1
f 12/16/12 16/20/16 4/4/4
f 9/14/9 10/13/10 21/25/21
f 17/21/17 12/16/12 5/7/5
f 6/12/6 15/26/15 18/22/18
f 7/9/7 19/23/19 14/18/14
f 22/27/22 13/17/13 9/11/9
f 1/1/1 14/18/14 20/24/20
f 21/25/21 23/28/23 9/14/9
f 23/29/23 22/27/22 9/11/9
f 11/15/11 24/30/24 15/19/15
f 16/20/16 25/31/25 10/13/10
f 21/25/21 10/13/10 25/31/25
f 13/17/13 26/32/26 19/23/19
f 8/10/8 18/22/18 27/33/27
f 26/32/26 13/17/13 22/27/22
f 16/20/16 12/16/12 28/34/28
f 27/33/27 17/21/17 8/10/8
f 29/35/29 24/30/24 11/15/11
f 30/36/30 14/18/14 19/23/19
f 31/37/31 15/19/15 24/30/24
f 11/15/11 20/24/20 29/35/29
f 18/22/18 15/26/15 32/38/32
f 12/16/12 17/21/17 33/39/33
f 23/28/23 21/25/21 34/40/34
f 35/41/35 22/27/22 23/29/23
f 20/24/20 14/18/14 36/42/36
f 28/34/28 37/43/37 16/20/16
f 31/44/31 32/38/32 15/26/15
f 33/39/33 28/34/28 12/16/12
f 25/31/25 38/45/38 21/25/21
f 34/40/34 39/46/39 23/28/23
f 23/29/23 39/47/39 35/41/35
f 40/48/40 25/31/25 16/20/16
f 19/23/19 41/49/41 30/36/30
f 36/42/36 14/18/14 30/36/30
f 22/27/22 42/50/42 26/32/26
f 24/30/24 43/51/43 31/37/31
f 19/23/19 26/32/26 44/52/44
f 34/40/34 21/25/21 38/45/38
f 16/20/16 37/43/37 40/48/40
f 42/50/42 22/27/22 35/41/35
f 27/33/27 18/22/18 45/53/45
f 32/38/32 45/53/45 18/22/18
f 44/52/44 41/49/41 19/23/19
f 17/21/17 27/33/27 46/54/46
f 47/55/47 24/30/24 29/35/29
f 46/54/46 33/39/33 17/21/17
f 47/55/47 43/51/43 24/30/24
f 48/56/48 29/35/29 20/24/20
f 28/34/28 49/57/49 37/43/37
f 20/24/20 36/42/36 48/56/48
f 33/39/33 49/57/49 28/34/28
f 50/58/50 31/37/31 43/51/43
f 35/41/35 39/47/39 51/59/51
f 52/60/52 32/38/32 31/44/31
f 53/61/53 38/45/38 25/31/25
f 39/46/39 34/40/34 54/62/54
f 55/63/55 30/36/30 41/49/41
f 38/45/38 56/64/56 34/40/34
f 55/63/55 36/42/36 30/36/30
f 42/50/42 57/65/57 26/32/26
f 25/31/25 40/48/40 53/61/53
f 35/41/35 58/66/58 42/50/42
f 54/62/54 51/67/51 39/46/39
f 31/44/31 50/68/50 52/60/52
f 26/32/26 57/65/57 44/52/44
f 54/62/54 34/40/34 56/64/56
f 51/59/51 59/69/59 35/41/35
f 43/51/43 60/70/60 50/58/50
f 37/43/37 61/71/61 40/48/40
f 53/61/53 56/64/56 38/45/38
f 58/66/58 35/41/35 59/69/59
f 45/53/45 62/72/62 27/33/27
f 63/73/63 45/53/45 32/38/32
f 46/54/46 27/33/27 62/72/62
f 49/57/49 61/71/61 37/43/37
f 32/38/32 52/60/52 63/73/63
f 44/52/44 64/74/64 41/49/41
f 57/65/57 42/50/42 58/66/58
f 33/39/33 46/54/46 65/75/65
f 65/75/65 49/57/49 33/39/33
f 66/76/66 47/55/47 29/35/29
f 67/77/67 43/51/43 47/55/47
f 64/74/64 55/63/55 41/49/41
f 66/76/66 29/35/29 48/56/48
f 67/77/67 60/70/60 43/51/43
f 68/78/68 48/56/48 36/42/36
f 68/78/68 36/42/36 55/63/55
f 51/67/51 54/62/54 69/79/69
f 56/64/56 70/80/70 54/62/54
f 59/69/59 51/59/51 69/81/69
f 52/60/52 50/68/50 71/82/71
f 72/83/72 50/58/50 60/70/60
f 59/69/59 73/84/73 58/66/58
f 53/61/53 74/85/74 56/64/56
f 40/48/40 75/86/75 53/61/53
f 61/71/61 75/86/75 40/48/40
f 70/80/70 56/64/56 74/85/74
f 76/87/76 54/62/54 70/80/70
f 58/66/58 77/88/77 57/65/57
f 63/73/63 52/60/52 71/82/71
f 76/87/76 69/79/69 54/62/54
f 78/89/78 44/52/44 57/65/57
f 72/90/72 71/82/71 50/68/50
f 69/81/69 79/91/79 59/69/59
f 45/53/45 63/73/63 80/92/80
f 81/93/81 61/71/61 49/57/49
f 73/84/73 59/69/59 79/91/79
f 80/92/80 62/72/62 45/53/45
f 78/89/78 64/74/64 44/52/44
f 77/88/77 58/66/58 73/84/73
f 60/70/60 82/94/82 72/83/72
f 49/57/49 65/75/65 81/93/81
f 82/94/82 60/70/60 67/77/67
f 62/72/62 83/95/83 46/54/46
f 46/54/46 83/95/83 65/75/65
f 74/85/74 53/61/53 75/86/75
f 84/96/84 67/77/67 47/55/47
f 55/63/55 64/74/64 85/97/85
f 47/55/47 66/76/66 84/96/84
f 85/97/85 68/78/68 55/63/55
f 86/98/86 66/76/66 48/56/48
f 86/98/86 48/56/48 68/78/68
f 78/89/78 57/65/57 77/88/77
f 70/80/70 87/99/87 76/87/76
f 71/82/71 88/100/88 63/73/63
f 74/85/74 89/101/89 70/80/70
f 90/102/90 69/79/69 76/87/76
f 79/91/79 91/103/91 73/84/73
f 71/82/71 72/90/72 92/104/92
f 80/92/80 63/73/63 88/100/88
f 93/105/93 79/91/79 69/81/69
f 67/77/67 94/106/94 82/94/82
f 70/80/70 89/101/89 87/99/87
f 73/84/73 95/107/95 77/88/77
f 92/108/92 72/83/72 82/94/82
f 96/109/96 75/86/75 61/71/61
f 75/86/75 97/110/97 74/85/74
f 98/111/98 76/87/76 87/99/87
f 61/71/61 81/93/81 96/109/96
f 95/107/95 73/84/73 91/103/91
f 94/106/94 67/77/67 84/96/84
f 88/100/88 71/82/71 99/112/99
f 76/87/76 98/111/98 90/102/90
f 90/113/90 93/105/93 69/81/69
f 89/101/89 74/85/74 97/110/97
f 65/75/65 100/114/100 81/93/81
f 62/72/62 80/92/80 101/115/101
f 101/115/101 83/95/83 62/72/62
f 91/103/91 79/91/79 93/105/93
f 83/95/83 100/114/100 65/75/65
f 92/104/92 99/112/99 71/82/71
f 102/116/102 64/74/64 78/89/78
f 77/88/77 103/117/103 78/89/78
f 102/116/102 85/97/85 64/74/64
f 104/118/104 82/94/82 94/106/94
f 82/94/82 104/118/104 92/108/92
f 103/117/103 77/88/77 95/107/95
f 105/119/105 84/96/84 66/76/66
f 85/97/85 106/120/106 68/78/68
f 105/119/105 66/76/66 86/98/86
f 87/99/87 89/101/89 107/121/107
f 88/100/88 108/122/108 80/92/80
f 106/120/106 86/98/86 68/78/68
f 87/99/87 109/123/109 98/111/98
f 99/112/99 110/124/110 88/100/88
f 109/123/109 87/99/87 107/121/107
f 91/103/91 111/125/111 95/107/95
f 93/105/93 112/126/112 91/103/91
f 113/127/113 97/110/97 75/86/75
f 97/110/97 114/128/114 89/101/89
f 84/96/84 115/129/115 94/106/94
f 101/115/101 80/92/80 108/122/108
f 110/124/110 108/122/108 88/100/88
f 90/102/90 98/111/98 116/130/116
f 75/86/75 96/109/96 113/127/113
f 107/121/107 89/101/89 114/128/114
f 94/106/94 117/131/117 104/118/104
f 111/125/111 91/103/91 112/126/112
f 99/112/99 92/104/92 118/132/118
f 119/133/119 93/105/93 90/113/90
f 116/130/116 98/111/98 109/123/109
f 81/93/81 120/134/120 96/109/96
f 78/89/78 103/117/103 121/135/121
f 95/107/95 122/136/122 103/117/103
f 100/114/100 120/134/120 81/93/81
f 115/129/115 84/96/84 105/119/105
f 123/137/123 92/108/92 104/118/104
f 117/131/117 94/106/94 115/129/115
f 124/138/124 100/114/100 83/95/83
f 83/95/83 101/115/101 124/138/124
f 110/124/110 99/112/99 125/139/125
f 121/135/121 102/116/102 78/89/78
f 122/136/122 95/107/95 111/125/111
f 116/130/116 126/140/126 90/102/90
f 112/126/112 93/105/93 119/133/119
f 107/121/107 127/141/127 109/123/109
f 114/128/114 97/110/97 113/127/113
f 90/113/90 126/142/126 119/133/119
f 118/132/118 125/139/125 99/112/99
f 128/143/128 85/97/85 102/116/102
f 92/108/92 123/137/123 118/144/118
f 110/124/110 129/145/129 108/122/108
f 128/143/128 106/120/106 85/97/85
f 123/137/123 104/118/104 117/131/117
f 108/122/108 130/146/130 101/115/101
f 109/123/109 131/147/131 116/130/116
f 132/148/132 105/119/105 86/98/86
f 86/98/86 106/120/106 132/148/132
f 114/128/114 133/149/133 107/121/107
f 112/126/112 134/150/134 111/125/111
f 109/123/109 127/141/127 131/147/131
f 121/135/121 103/117/103 122/136/122
f 127/141/127 107/121/107 133/149/133
f 125/139/125 135/151/135 110/124/110
f 130/146/130 108/122/108 129/145/129
f 119/133/119 136/152/136 112/126/112
f 115/129/115 137/153/137 117/131/117
f 129/145/129 110/124/110 135/151/135
f 105/119/105 138/154/138 115/129/115
f 124/138/124 101/115/101 130/146/130
f 134/150/134 112/126/112 136/152/136
f 111/125/111 139/155/139 122/136/122
f 96/109/96 140/156/140 113/127/113
f 113/127/113 141/157/141 114/128/114
f 139/155/139 111/125/111 134/150/134
f 131/147/131 127/141/127 142/158/142
f 120/134/120 140/156/140 96/109/96
f 126/140/126 116/130/116 143/159/143
f 117/131/117 144/160/144 123/137/123
f 141/157/141 133/149/133 114/128/114
f 143/159/143 116/130/116 131/147/131
f 137/153/137 115/129/115 138/154/138
f 145/161/145 120/134/120 100/114/100
f 146/162/146 125/139/125 118/132/118
f 144/160/144 117/131/117 137/153/137
f 100/114/100 124/138/124 145/161/145
f 147/163/147 119/133/119 126/142/126
f 138/154/138 105/119/105 132/148/132
f 133/149/133 148/164/148 127/141/127
f 142/158/142 127/141/127 148/164/148
f 135/151/135 125/139/125 146/162/146
f 102/116/102 121/135/121 149/165/149
f 136/152/136 150/166/150 134/150/134
f 122/136/122 151/167/151 121/135/121
f 118/144/118 123/137/123 152/168/152
f 135/151/135 153/169/153 129/145/129
f 149/165/149 128/143/128 102/116/102
f 147/163/147 136/152/136 119/133/119
f 154/170/154 131/147/131 142/158/142
f 129/145/129 155/171/155 130/146/130
f 151/167/151 122/136/122 139/155/139
f 143/159/143 156/172/156 126/140/126
f 141/157/141 113/127/113 140/156/140
f 130/146/130 157/173/157 124/138/124
f 158/174/158 106/120/106 128/143/128
f 156/175/156 147/163/147 126/142/126
f 159/176/159 146/162/146 118/132/118
f 158/174/158 132/148/132 106/120/106
f 134/150/134 160/177/160 139/155/139
f 154/170/154 143/159/143 131/147/131
f 160/177/160 134/150/134 150/166/150
f 152/168/152 123/137/123 144/160/144
f 155/171/155 129/145/129 153/169/153
f 152/168/152 159/178/159 118/144/118
f 141/157/141 161/179/161 133/149/133
f 148/164/148 162/180/162 142/158/142
f 163/181/163 153/169/153 135/151/135
f 164/182/164 150/166/150 136/152/136
f 148/164/148 133/149/133 161/179/161
f 137/153/137 165/183/165 144/160/144
f 146/162/146 163/181/163 135/151/135
f 155/171/155 157/173/157 130/146/130
f 154/170/154 142/158/142 162/180/162
f 138/154/138 166/184/166 137/153/137
f 145/161/145 124/138/124 157/173/157
f 149/165/149 121/135/121 151/167/151
f 132/148/132 167/185/167 138/154/138
f 136/152/136 147/163/147 164/182/164
f 165/183/165 137/153/137 166/184/166
f 168/186/168 140/156/140 120/134/120
f 150/166/150 169/187/169 160/177/160
f 139/155/139 170/188/170 151/167/151
f 170/188/170 139/155/139 160/177/160
f 120/134/120 145/161/145 168/186/168
f 144/160/144 171/189/171 152/168/152
f 140/156/140 172/190/172 141/157/141
f 165/183/165 171/189/171 144/160/144
f 163/181/163 173/191/173 153/169/153
f 150/166/150 164/182/164 169/187/169
f 166/184/166 138/154/138 167/185/167
f 153/169/153 174/192/174 155/171/155
f 175/193/175 162/180/162 148/164/148
f 161/179/161 141/157/141 172/190/172
f 167/185/167 132/148/132 158/174/158
f 156/172/156 143/159/143 176/194/176
f 161/179/161 175/193/175 148/164/148
f 143/159/143 154/170/154 177/195/177
f 174/192/174 153/169/153 173/191/173
f 178/196/178 146/162/146 159/176/159
f 178/196/178 163/181/163 146/162/146
f 155/171/155 179/197/179 157/173/157
f 154/170/154 162/180/162 180/198/180
f 181/199/181 147/163/147 156/175/156
f 128/143/128 149/165/149 182/200/182
f 157/173/157 183/201/183 145/161/145
f 151/167/151 184/202/184 149/165/149
f 182/200/182 158/174/158 128/143/128
f 165/183/165 185/203/185 171/189/171
f 186/204/186 159/178/159 152/168/152
f 173/191/173 163/181/163 187/205/187
f 179/197/179 155/171/155 174/192/174
f 188/206/188 160/177/160 169/187/169
f 164/182/164 147/163/147 181/199/181
f 166/184/166 189/207/189 165/183/165
f 184/202/184 151/167/151 170/188/170
f 177/195/177 176/194/176 143/159/143
f 175/193/175 180/198/180 162/180/162
f 160/177/160 188/206/188 170/188/170
f 176/194/176 190/208/190 156/172/156
f 185/203/185 165/183/165 189/207/189
f 152/168/152 171/189/171 186/204/186
f 180/198/180 177/195/177 154/170/154
f 173/191/173 191/209/191 174/192/174
f 159/176/159 192/210/192 178/196/178
f 183/201/183 157/173/157 179/197/179
f 193/211/193 169/187/169 164/182/164
f 163/181/163 178/196/178 187/205/187
f 156/175/156 190/212/190 181/199/181
f 167/185/167 194/213/194 166/184/166
f 172/190/172 195/214/195 161/179/161
f 175/193/175 161/179/161 195/214/195
f 196/215/196 172/190/172 140/156/140
f 159/178/159 186/204/186 192/216/192
f 191/209/191 173/191/173 187/205/187
f 158/174/158 197/217/197 167/185/167
f 140/156/140 168/186/168 196/215/196
f 198/218/198 171/189/171 185/203/185
f 189/207/189 166/184/166 194/213/194
f 169/187/169 193/211/193 188/206/188
f 145/161/145 199/219/199 168/186/168
f 181/199/181 200/220/200 164/182/164
f 183/201/183 199/219/199 145/161/145
f 174/192/174 201/221/201 179/197/179
f 164/182/164 200/220/200 193/211/193
f 174/192/174 191/209/191 201/221/201
f 189/207/189 202/222/202 185/203/185
f 171/189/171 198/218/198 186/204/186
f 194/213/194 167/185/167 197/217/197
f 170/188/170 203/223/203 184/202/184
f 203/223/203 170/188/170 188/206/188
f 180/198/180 175/193/175 204/224/204
f 205/225/205 149/165/149 184/202/184
f 196/215/196 195/214/195 172/190/172
f 185/203/185 202/222/202 198/218/198
f 179/197/179 206/226/206 183/201/183
f 195/214/195 204/224/204 175/193/175
f 205/225/205 182/200/182 149/165/149
f 176/194/176 177/195/177 207/227/207
f 190/208/190 176/194/176 208/228/208
f 209/229/209 191/209/191 187/205/187
f 187/205/187 178/196/178 210/230/210
f 177/195/177 180/198/180 211/231/211
f 178/196/178 192/210/192 210/230/210
f 182/200/182 212/232/212 158/174/158
f 206/226/206 179/197/179 201/221/201
f 212/232/212 197/217/197 158/174/158
f 194/213/194 213/233/213 189/207/189
f 201/221/201 191/209/191 209/229/209
f 202/222/202 189/207/189 213/233/213
f 214/234/214 181/199/181 190/212/190
f 215/235/215 188/206/188 193/211/193
f 192/216/192 186/204/186 216/236/216
f 204/224/204 211/231/211 180/198/180
f 205/225/205 184/202/184 203/223/203
f 187/205/187 217/237/217 209/229/209
f 200/220/200 181/199/181 214/234/214
f 207/227/207 208/228/208 176/194/176
f 197/217/197 218/238/218 194/213/194
f 188/206/188 215/235/215 203/223/203
f 211/231/211 207/227/207 177/195/177
f 210/230/210 217/237/217 187/205/187
f 216/236/216 186/204/186 198/218/198
f 168/186/168 219/239/219 196/215/196
f 208/228/208 220/240/220 190/208/190
f 196/215/196 221/241/221 195/214/195
f 222/242/222 193/211/193 200/220/200
f 223/243/223 210/230/210 192/210/192
f 204/224/204 195/214/195 221/241/221
f 198/218/198 202/222/202 224/244/224
f 199/219/199 219/239/219 168/186/168
f 183/201/183 206/226/206 225/245/225
f 225/245/225 199/219/199 183/201/183
f 213/233/213 194/213/194 218/238/218
f 190/212/190 220/246/220 214/234/214
f 216/236/216 223/247/223 192/216/192
f 201/221/201 226/248/226 206/226/206
f 213/233/213 224/244/224 202/222/202
f 226/248/226 201/221/201 209/229/209
f 193/211/193 222/242/222 215/235/215
f 200/220/200 214/234/214 227/249/227
f 200/220/200 227/249/227 222/242/222
f 198/218/198 228/250/228 216/236/216
f 224/244/224 228/250/228 198/218/198
f 229/251/229 211/231/211 204/224/204
f 230/252/230 182/200/182 205/225/205
f 203/223/203 231/253/231 205/225/205
f 231/253/231 203/223/203 215/235/215
f 230/252/230 212/232/212 182/200/182
f 221/241/221 229/251/229 204/224/204
f 232/254/232 218/238/218 197/217/197
f 197/217/197 212/232/212 232/254/232
f 209/229/209 217/237/217 233/255/233
f 217/237/217 210/230/210 234/256/234
f 235/257/235 208/228/208 207/227/207
f 236/258/236 207/227/207 211/231/211
f 196/215/196 237/259/237 221/241/221
f 218/238/218 238/260/238 213/233/213
f 209/229/209 239/261/239 226/248/226
f 234/256/234 210/230/210 223/243/223
f 220/240/220 208/228/208 235/257/235
f 224/244/224 213/233/213 238/260/238
f 219/239/219 237/259/237 196/215/196
f 226/248/226 240/262/240 206/226/206
f 206/226/206 240/262/240 225/245/225
f 209/229/209 233/255/233 239/261/239
f 229/251/229 241/263/241 211/231/211
f 242/264/242 219/239/219 199/219/199
f 199/219/199 225/245/225 242/264/242
f 243/265/243 215/235/215 222/242/222
f 244/266/244 214/234/214 220/246/220
f 234/256/234 233/255/233 217/237/217
f 245/267/245 223/247/223 216/236/216
f 211/231/211 241/263/241 236/258/236
f 207/227/207 236/258/236 235/257/235
f 215/235/215 243/265/243 231/253/231
f 245/267/245 216/236/216 228/250/228
f 246/268/246 228/250/228 224/244/224
f 227/249/227 214/234/214 247/269/247
f 223/243/223 248/270/248 234/256/234
f 235/257/235 249/271/249 220/240/220
f 247/269/247 222/242/222 227/249/227
f 231/253/231 250/272/250 205/225/205
f 221/241/221 251/273/251 229/251/229
f 238/260/238 252/274/252 224/244/224
f 220/246/220 249/275/249 244/266/244
f 223/247/223 245/267/245 248/276/248
f 250/272/250 230/252/230 205/225/205
f 226/248/226 239/261/239 253/277/253
f 254/278/254 238/260/238 218/238/218
f 237/259/237 251/273/251 221/241/221
f 232/254/232 254/278/254 218/238/218
f 222/242/222 255/279/255 243/265/243
f 256/280/256 212/232/212 230/252/230
f 224/244/224 252/274/252 246/268/246
f 256/280/256 232/254/232 212/232/212
f 253/277/253 240/262/240 226/248/226
f 244/266/244 247/269/247 214/234/214
f 228/250/228 246/268/246 245/267/245
f 247/269/247 255/279/255 222/242/222
f 233/255/233 257/281/257 239/261/239
f 229/251/229 258/282/258 241/263/241
f 259/283/259 237/259/237 219/239/219
f 219/239/219 242/264/242 259/283/259
f 240/262/240 260/284/260 225/245/225
f 233/255/233 234/256/234 261/285/261
f 225/245/225 260/284/260 242/264/242
f 236/258/236 241/263/241 262/286/262
f 235/257/235 236/258/236 263/287/263
f 264/288/264 231/253/231 243/265/243
f 234/256/234 248/270/248 261/285/261
f 251/273/251 258/282/258 229/251/229
f 239/261/239 257/281/257 253/277/253
f 249/271/249 235/257/235 265/289/265
f 266/290/266 252/274/252 238/260/238
f 264/288/264 250/272/250 231/253/231
f 261/285/261 257/281/257 233/255/233
f 258/282/258 262/286/262 241/263/241
f 244/266/244 249/275/249 265/291/265
f 262/286/262 263/287/263 236/258/236
f 238/260/238 254/278/254 266/290/266
f 248/276/248 245/267/245 267/292/267
f 268/293/268 251/273/251 237/259/237
f 263/287/263 265/289/265 235/257/235
f 255/279/255 269/294/269 243/265/243
f 230/252/230 250/272/250 270/295/270
f 261/285/261 248/270/248 271/296/271
f 272/297/272 246/268/246 252/274/252
f 240/262/240 253/277/253 273/298/273
f 267/292/267 245/267/245 246/268/246
f 237/259/237 259/283/259 268/293/268
f 270/295/270 256/280/256 230/252/230
f 274/299/274 254/278/254 232/254/232
f 275/300/275 247/269/247 244/266/244
f 274/299/274 232/254/232 256/280/256
f 275/300/275 255/279/255 247/269/247
f 273/298/273 260/284/260 240/262/240
f 267/292/267 271/301/271 248/276/248
f 242/264/242 276/302/276 259/283/259
f 260/284/260 276/302/276 242/264/242
f 269/294/269 264/288/264 243/265/243
f 265/291/265 277/303/277 244/266/244
f 266/290/266 272/297/272 252/274/252
f 278/304/278 253/277/253 257/281/257
f 279/305/279 258/282/258 251/273/251
f 246/268/246 272/297/272 267/292/267
f 244/266/244 277/303/277 275/300/275
f 257/281/257 261/285/261 280/306/280
f 281/307/281 262/286/262 258/282/258
f 275/300/275 269/294/269 255/279/255
f 251/273/251 268/293/268 279/305/279
f 282/308/282 263/287/263 262/286/262
f 253/277/253 278/304/278 273/298/273
f 283/309/283 250/272/250 264/288/264
f 261/285/261 271/296/271 284/310/284
f 280/306/280 278/304/278 257/281/257
f 265/289/265 263/287/263 285/311/285
f 286/312/286 266/290/266 254/278/254
f 258/282/258 279/305/279 281/307/281
f 259/283/259 287/313/287 268/293/268
f 283/309/283 270/295/270 250/272/250
f 262/286/262 281/307/281 282/308/282
f 260/284/260 273/298/273 288/314/288
f 276/302/276 287/313/287 259/283/259
f 286/312/286 254/278/254 274/299/274
f 288/314/288 276/302/276 260/284/260
f 284/315/284 271/301/271 267/292/267
f 284/310/284 280/306/280 261/285/261
f 277/303/277 265/291/265 285/316/285
f 270/295/270 289/317/289 256/280/256
f 263/287/263 282/308/282 285/311/285
f 289/317/289 274/299/274 256/280/256
f 264/288/264 269/294/269 290/318/290
f 291/319/291 272/297/272 266/290/266
f 268/293/268 292/320/292 279/305/279
f 272/297/272 293/321/293 267/292/267
f 294/322/294 273/298/273 278/304/278
f 287/313/287 292/320/292 268/293/268
f 275/300/275 277/303/277 295/323/295
f 295/323/295 269/294/269 275/300/275
f 281/307/281 279/305/279 296/324/296
f 290/318/290 283/309/283 264/288/264
f 273/298/273 294/322/294 288/314/288
f 278/304/278 280/306/280 297/325/297
f 267/292/267 293/321/293 284/315/284
f 291/319/291 266/290/266 286/312/286
f 298/326/298 287/313/287 276/302/276
f 285/316/285 299/327/299 277/303/277
f 282/308/282 281/307/281 300/328/300
f 276/302/276 288/314/288 298/326/298
f 292/320/292 296/324/296 279/305/279
f 297/325/297 294/322/294 278/304/278
f 291/319/291 293/321/293 272/297/272
f 299/327/299 295/323/295 277/303/277
f 281/307/281 296/324/296 300/328/300
f 301/329/301 270/295/270 283/309/283
f 295/323/295 290/318/290 269/294/269
f 280/306/280 284/310/284 302/330/302
f 303/331/303 292/320/292 287/313/287
f 285/311/285 282/308/282 304/332/304
f 305/333/305 286/312/286 274/299/274
f 270/295/270 301/329/301 289/317/289
f 287/313/287 298/326/298 303/331/303
f 274/299/274 289/317/289 305/333/305
f 306/334/306 288/314/288 294/322/294
f 302/330/302 297/325/297 280/306/280
f 288/314/288 306/334/306 298/326/298
f 282/308/282 300/328/300 304/332/304
f 296/324/296 292/320/292 307/335/307
f 302/336/302 284/315/284 293/321/293
f 292/320/292 303/331/303 307/335/307
f 299/327/299 285/316/285 304/337/304
f 307/335/307 303/331/303 298/326/298
f 294/322/294 297/325/297 308/338/308
f 309/339/309 300/328/300 296/324/296
f 307/335/307 298/326/298 306/334/306
f 308/338/308 306/334/306 294/322/294
f 290/318/290 310/340/310 283/309/283
f 296/324/296 307/335/307 309/339/309
f 311/341/311 291/319/291 286/312/286
f 293/321/293 291/319/291 311/341/311
f 309/339/309 307/335/307 306/334/306
f 310/340/310 301/329/301 283/309/283
f 306/334/306 308/338/308 309/339/309
f 312/342/312 295/323/295 299/327/299
f 312/342/312 290/318/290 295/323/295
f 293/321/293 313/343/313 302/336/302
f 305/333/305 311/341/311 286/312/286
f 297/325/297 302/330/302 314/344/314
f 314/344/314 308/338/308 297/325/297
f 304/337/304 315/345/315 299/327/299
f 316/346/316 300/328/300 309/339/309
f 304/332/304 300/328/300 316/346/316
f 317/347/317 289/317/289 301/329/301
f 289/317/289 317/347/317 305/333/305
f 311/341/311 313/343/313 293/321/293
f 312/342/312 310/340/310 290/318/290
f 316/346/316 309/339/309 308/338/308
f 299/327/299 315/345/315 312/342/312
f 314/348/314 302/336/302 313/343/313
f 308/338/308 314/344/314 316/346/316
f 315/345/315 304/337/304 316/349/316
f 301/329/301 310/340/310 318/350/318
f 318/350/318 317/347/317 301/329/301
f 305/333/305 319/351/319 311/341/311
f 317/347/317 319/351/319 305/333/305
f 313/343/313 320/352/320 314/348/314
f 313/343/313 311/341/311 319/351/319
f 321/353/321 310/340/310 312/342/312
f 315/345/315 316/349/316 322/354/322
f 316/349/316 314/348/314 320/352/320
f 312/342/312 315/345/315 321/353/321
f 321/353/321 318/350/318 310/340/310
f 319/351/319 320/352/320 313/343/313
f 317/347/317 318/350/318 321/353/321
f 321/353/321 315/345/315 322/354/322
f 320/352/320 322/354/322 316/349/316
f 321/353/321 319/351/319 317/347/317
f 320/352/320 321/353/321 322/354/322
f 321/353/321 320/352/320 319/351/319
