# This file uses centimeters as units for non-parametric coordinates.

mtllib teeth.mtl
g default
v -0.182633 8.230081 3.740790
v -0.182954 8.170684 3.755383
v -0.207381 8.228769 3.755383
v -0.199136 8.305832 3.755383
v -0.163639 8.186325 3.744573
v -0.108889 8.151321 3.755383
v -0.175056 8.309004 3.740790
v -0.175188 8.382126 3.755383
v -0.108825 8.171890 3.740790
v -0.010004 8.151321 3.755383
v -0.108633 8.233598 3.735925
v -0.010004 8.172468 3.740790
v 0.088816 8.171890 3.740790
v 0.088881 8.151322 3.755383
v -0.010004 8.235908 3.735925
v 0.143630 8.186325 3.744573
v 0.162946 8.170684 3.755383
v 0.088624 8.233597 3.735925
v 0.162625 8.230081 3.740788
v 0.187372 8.228769 3.755383
v 0.179127 8.305833 3.755383
v 0.155048 8.309003 3.740790
v 0.155180 8.382126 3.755383
v 0.084211 8.318234 3.735925
v 0.133155 8.388256 3.740788
v 0.114658 8.449397 3.755383
v -0.010004 8.324367 3.735925
v 0.105030 8.440793 3.744573
v 0.071486 8.407598 3.735925
v 0.059346 8.476411 3.740788
v 0.056688 8.499397 3.755383
v -0.010004 8.420571 3.735925
v -0.010004 8.495487 3.740788
v -0.010004 8.520076 3.755383
v -0.076697 8.499397 3.755383
v -0.079355 8.476411 3.740788
v -0.134665 8.449397 3.755383
v -0.091494 8.407598 3.735925
v -0.125039 8.440792 3.744573
v -0.153163 8.388256 3.740790
v -0.104220 8.318234 3.735925
v -0.199136 8.305832 3.755383
v -0.207381 8.228769 3.755383
v -0.200924 8.305374 3.794298
v -0.175188 8.382126 3.755383
v -0.207619 8.228160 3.794298
v -0.181148 8.383343 3.794298
v -0.134665 8.449397 3.755383
v -0.182991 8.228849 3.808892
v -0.183014 8.170531 3.794298
v -0.177738 8.307714 3.808892
v -0.163798 8.185777 3.805108
v -0.108889 8.151321 3.794298
v -0.108871 8.231730 3.813756
v -0.108884 8.171424 3.808892
v -0.010004 8.151321 3.794298
v -0.010004 8.171921 3.808892
v -0.106008 8.315384 3.813756
v 0.088876 8.171424 3.808892
v 0.088881 8.151322 3.794298
v -0.010004 8.233718 3.813756
v 0.088862 8.231730 3.813756
v 0.143789 8.185777 3.805108
v 0.163006 8.170531 3.794298
v 0.162982 8.228849 3.808892
v 0.085999 8.315384 3.813756
v 0.187610 8.228160 3.794298
v 0.162946 8.170684 3.755383
v 0.187372 8.228769 3.755383
v 0.157730 8.307714 3.808892
v 0.180916 8.305374 3.794298
v 0.179127 8.305833 3.755383
v 0.155180 8.382126 3.755383
v 0.161140 8.383343 3.794298
v 0.114658 8.449397 3.755383
v 0.142095 8.389260 3.808892
v 0.123299 8.451478 3.794298
v 0.062409 8.499193 3.794298
v 0.056688 8.499397 3.755383
v 0.114726 8.441937 3.805108
v -0.010004 8.517943 3.794298
v -0.010004 8.520076 3.755383
v -0.076697 8.499397 3.755383
v 0.067988 8.475636 3.808892
v -0.010004 8.491739 3.808892
v -0.082418 8.499193 3.794298
v 0.077446 8.405527 3.813756
v -0.010004 8.416247 3.813756
v -0.010004 8.320546 3.813756
v -0.087997 8.475636 3.808892
v -0.097455 8.405525 3.813756
v -0.162103 8.389260 3.808892
v -0.134735 8.441937 3.805108
v -0.143307 8.451478 3.794298
v 0.206448 9.294088 3.789417
v 0.201056 9.358064 3.756917
v 0.207942 9.293706 3.756917
v 0.200857 9.358573 3.789417
v 0.227941 9.229989 3.756917
v 0.221425 9.357998 3.801604
v 0.221406 9.406702 3.789417
v 0.222964 9.228973 3.789417
v 0.261784 9.173807 3.756917
v 0.225811 9.292133 3.801604
v 0.237454 9.393968 3.798444
v 0.283310 9.422744 3.789417
v 0.283326 9.355592 3.805666
v 0.283314 9.405956 3.801604
v 0.365893 9.422743 3.789417
v 0.365893 9.405540 3.801604
v 0.285717 9.285730 3.805666
v 0.448472 9.405956 3.801604
v 0.448476 9.422744 3.789417
v 0.365893 9.353931 3.805666
v 0.448461 9.355593 3.805666
v 0.494333 9.393969 3.798444
v 0.510381 9.406701 3.789417
v 0.510362 9.357998 3.801604
v 0.446070 9.285730 3.805666
v 0.530930 9.358574 3.789417
v 0.510331 9.406573 3.756917
v 0.530731 9.358065 3.756917
v 0.505975 9.292132 3.801604
v 0.525338 9.294088 3.789417
v 0.523845 9.293706 3.756917
v 0.503845 9.229989 3.756917
v 0.508823 9.228973 3.789417
v 0.470003 9.173807 3.756917
v 0.492918 9.224032 3.801604
v 0.477220 9.172071 3.789417
v 0.426369 9.132222 3.789417
v 0.421591 9.132051 3.756917
v 0.470060 9.180038 3.798444
v 0.365893 9.116563 3.789417
v 0.365893 9.114780 3.756917
v 0.310196 9.132051 3.756917
v 0.431028 9.151895 3.801604
v 0.365893 9.138448 3.801604
v 0.305418 9.132222 3.789417
v 0.438927 9.210446 3.805666
v 0.365893 9.201493 3.805666
v 0.365893 9.281416 3.805666
v 0.300759 9.151895 3.801604
v 0.292860 9.210447 3.805666
v 0.238869 9.224032 3.801604
v 0.261726 9.180038 3.798444
v 0.254566 9.172071 3.789417
v 0.523845 9.293706 3.756917
v 0.510063 9.356970 3.744730
v 0.530731 9.358065 3.756917
v 0.510331 9.406573 3.756917
v 0.503735 9.291058 3.744730
v 0.503845 9.229989 3.756917
v 0.494200 9.393511 3.747890
v 0.448476 9.422744 3.756917
v 0.485451 9.224870 3.744730
v 0.448423 9.405566 3.744730
v 0.470003 9.173807 3.756917
v 0.365893 9.422743 3.756917
v 0.448262 9.354033 3.740666
v 0.365893 9.405084 3.744730
v 0.444577 9.283347 3.740666
v 0.365893 9.352102 3.740666
v 0.283364 9.405566 3.744730
v 0.283310 9.422744 3.756917
v 0.283525 9.354033 3.740666
v 0.237587 9.393512 3.747890
v 0.221455 9.406573 3.756917
v 0.221723 9.356970 3.744730
v 0.201056 9.358064 3.756917
v 0.207942 9.293706 3.756917
v 0.228051 9.291058 3.744730
v 0.227941 9.229989 3.756917
v 0.287210 9.283347 3.740666
v 0.246335 9.224870 3.744730
v 0.261784 9.173807 3.756917
v 0.365893 9.278227 3.740666
v 0.297837 9.208717 3.740666
v 0.269823 9.180995 3.747890
v 0.307976 9.151248 3.744730
v 0.310196 9.132051 3.756917
v 0.365893 9.197882 3.740666
v 0.365893 9.135317 3.744730
v 0.365893 9.114780 3.756917
v 0.421591 9.132051 3.756917
v 0.423811 9.151249 3.744730
v 0.433949 9.208716 3.740666
v 0.461964 9.180994 3.747890
v -0.523845 9.293706 3.756917
v -0.510063 9.356970 3.744730
v -0.530731 9.358065 3.756917
v -0.510331 9.406573 3.756917
v -0.503735 9.291058 3.744730
v -0.503845 9.229989 3.756917
v -0.494200 9.393511 3.747890
v -0.448476 9.422744 3.756917
v -0.485451 9.224870 3.744730
v -0.448423 9.405566 3.744730
v -0.470003 9.173807 3.756917
v -0.365893 9.422743 3.756917
v -0.448262 9.354033 3.740666
v -0.365893 9.405084 3.744730
v -0.444577 9.283347 3.740666
v -0.365893 9.352102 3.740666
v -0.283364 9.405566 3.744730
v -0.283310 9.422744 3.756917
v -0.283525 9.354033 3.740666
v -0.237587 9.393512 3.747890
v -0.221455 9.406573 3.756917
v -0.221723 9.356970 3.744730
v -0.201056 9.358064 3.756917
v -0.207942 9.293706 3.756917
v -0.228051 9.291058 3.744730
v -0.227941 9.229989 3.756917
v -0.287210 9.283347 3.740666
v -0.246335 9.224870 3.744730
v -0.261784 9.173807 3.756917
v -0.365893 9.278227 3.740666
v -0.297837 9.208717 3.740666
v -0.269823 9.180995 3.747890
v -0.307976 9.151248 3.744730
v -0.310196 9.132051 3.756917
v -0.365893 9.197882 3.740666
v -0.365893 9.135317 3.744730
v -0.365893 9.114780 3.756917
v -0.421591 9.132051 3.756917
v -0.423811 9.151249 3.744730
v -0.433949 9.208716 3.740666
v -0.461964 9.180994 3.747890
v 0.202355 9.268660 3.757002
v 0.183826 9.336420 3.737689
v 0.211613 9.338308 3.754008
v 0.184186 9.390804 3.751752
v 0.175318 9.265090 3.740756
v 0.175466 9.199705 3.759966
v 0.162499 9.376146 3.740234
v 0.101025 9.408304 3.751000
v 0.150736 9.193461 3.743834
v 0.100954 9.389010 3.735429
v 0.129967 9.138906 3.762579
v -0.010004 9.408303 3.751000
v 0.100737 9.333008 3.732368
v -0.010004 9.388489 3.735451
v 0.095783 9.256511 3.735656
v -0.010004 9.330917 3.732458
v -0.120961 9.389010 3.735429
v -0.121033 9.408304 3.751000
v -0.120744 9.333008 3.732368
v -0.182506 9.376147 3.740234
v -0.204194 9.390804 3.751752
v -0.203834 9.336420 3.737689
v -0.231620 9.338307 3.754008
v -0.222362 9.268660 3.757002
v -0.195326 9.265090 3.740756
v -0.195474 9.199705 3.759966
v -0.115790 9.256511 3.735656
v -0.170744 9.193461 3.743834
v -0.149974 9.138906 3.762579
v -0.010004 9.250970 3.735895
v -0.101502 9.175747 3.739128
v -0.139166 9.146163 3.750120
v -0.087871 9.113789 3.747259
v -0.084886 9.093718 3.764522
v -0.010004 9.164021 3.739632
v -0.010004 9.096548 3.748000
v -0.010004 9.075027 3.765325
v 0.064879 9.093718 3.764522
v 0.067864 9.113790 3.747259
v 0.081494 9.175746 3.739128
v 0.119159 9.146161 3.750120
v -0.206448 9.294088 3.789417
v -0.201056 9.358064 3.756917
v -0.207942 9.293706 3.756917
v -0.200857 9.358573 3.789417
v -0.227941 9.229989 3.756917
v -0.221425 9.357998 3.801604
v -0.221406 9.406702 3.789417
v -0.222964 9.228973 3.789417
v -0.261784 9.173807 3.756917
v -0.225811 9.292133 3.801604
v -0.237454 9.393968 3.798444
v -0.283310 9.422744 3.789417
v -0.283326 9.355592 3.805666
v -0.283314 9.405956 3.801604
v -0.365893 9.422743 3.789417
v -0.365893 9.405540 3.801604
v -0.285717 9.285730 3.805666
v -0.448472 9.405956 3.801604
v -0.448476 9.422744 3.789417
v -0.365893 9.353931 3.805666
v -0.448461 9.355593 3.805666
v -0.494333 9.393969 3.798444
v -0.510381 9.406701 3.789417
v -0.510362 9.357998 3.801604
v -0.446070 9.285730 3.805666
v -0.530930 9.358574 3.789417
v -0.510331 9.406573 3.756917
v -0.530731 9.358065 3.756917
v -0.505975 9.292132 3.801604
v -0.525338 9.294088 3.789417
v -0.523845 9.293706 3.756917
v -0.503845 9.229989 3.756917
v -0.508823 9.228973 3.789417
v -0.470003 9.173807 3.756917
v -0.492918 9.224032 3.801604
v -0.477220 9.172071 3.789417
v -0.426369 9.132222 3.789417
v -0.421591 9.132051 3.756917
v -0.470060 9.180038 3.798444
v -0.365893 9.116563 3.789417
v -0.365893 9.114780 3.756917
v -0.310196 9.132051 3.756917
v -0.431028 9.151895 3.801604
v -0.365893 9.138448 3.801604
v -0.305418 9.132222 3.789417
v -0.438927 9.210446 3.805666
v -0.365893 9.201493 3.805666
v -0.365893 9.281416 3.805666
v -0.300759 9.151895 3.801604
v -0.292860 9.210447 3.805666
v -0.238869 9.224032 3.801604
v -0.261726 9.180038 3.798444
v -0.254566 9.172071 3.789417
v -0.224370 9.270949 3.800640
v -0.231620 9.338307 3.754008
v -0.222362 9.268660 3.757002
v -0.231887 9.340734 3.797640
v -0.195474 9.199705 3.759966
v -0.204235 9.340816 3.814037
v -0.204260 9.392819 3.795402
v -0.202165 9.200482 3.803669
v -0.149974 9.138906 3.762579
v -0.198338 9.269537 3.817101
v -0.182684 9.379560 3.808119
v -0.121033 9.410180 3.794655
v -0.121012 9.338447 3.819605
v -0.121028 9.392716 3.811806
v -0.010004 9.410179 3.794655
v -0.010004 9.392266 3.811825
v -0.117797 9.262843 3.822855
v 0.101019 9.392716 3.811806
v 0.101025 9.410180 3.794655
v -0.010004 9.336650 3.819682
v 0.101005 9.338448 3.819605
v 0.162677 9.379561 3.808119
v 0.184253 9.392818 3.795402
v 0.184228 9.340816 3.814037
v 0.097790 9.262843 3.822855
v 0.211880 9.340735 3.797640
v 0.184186 9.390804 3.751752
v 0.211613 9.338308 3.754008
v 0.178330 9.269536 3.817101
v 0.204362 9.270949 3.800640
v 0.202355 9.268660 3.757002
v 0.175466 9.199705 3.759966
v 0.182158 9.200482 3.803669
v 0.129967 9.138906 3.762579
v 0.160775 9.195839 3.820269
v 0.139670 9.138903 3.806315
v 0.071303 9.095778 3.808169
v 0.064879 9.093718 3.764522
v 0.130043 9.148046 3.818070
v -0.010004 9.078832 3.808897
v -0.010004 9.075027 3.765325
v -0.084886 9.093718 3.764522
v 0.077567 9.117771 3.823624
v -0.010004 9.103219 3.824249
v -0.091310 9.095778 3.808169
v 0.088187 9.181371 3.826356
v -0.010004 9.171681 3.826773
v -0.010004 9.258174 3.823055
v -0.097574 9.117771 3.823624
v -0.108194 9.181372 3.826356
v -0.180782 9.195839 3.820269
v -0.150052 9.148046 3.818070
v -0.159678 9.138903 3.806315
vt 0.138235 0.979943
vt 0.138982 0.979990
vt 0.138256 0.980291
vt 0.137298 0.980187
vt 0.138776 0.979728
vt 0.139269 0.979080
vt 0.137274 0.979841
vt 0.136356 0.979877
vt 0.138962 0.979060
vt 0.139305 0.977852
vt 0.138211 0.979040
vt 0.138990 0.977848
vt 0.138998 0.976635
vt 0.139305 0.976623
vt 0.138210 0.977836
vt 0.138831 0.975962
vt 0.139044 0.975706
vt 0.138246 0.976633
vt 0.138296 0.975731
vt 0.138328 0.975383
vt 0.137367 0.975460
vt 0.137333 0.975805
vt 0.136416 0.975742
vt 0.137217 0.976673
vt 0.136368 0.976069
vt 0.135580 0.976239
vt 0.137131 0.977820
vt 0.135717 0.976396
vt 0.136128 0.976816
vt 0.135289 0.976957
vt 0.134954 0.976954
vt 0.135958 0.977803
vt 0.135041 0.977790
vt 0.134693 0.977785
vt 0.134930 0.978623
vt 0.135265 0.978630
vt 0.135535 0.979356
vt 0.136099 0.978795
vt 0.135676 0.979203
vt 0.136317 0.979549
vt 0.137183 0.978970
vt 0.134117 0.976691
vt 0.133152 0.976951
vt 0.133927 0.976262
vt 0.135105 0.976276
vt 0.132991 0.976480
vt 0.134831 0.975891
vt 0.135974 0.975613
vt 0.132941 0.976121
vt 0.132201 0.976235
vt 0.133881 0.975930
vt 0.132368 0.975946
vt 0.131794 0.975308
vt 0.132824 0.975190
vt 0.132095 0.975263
vt 0.131648 0.973992
vt 0.131959 0.973978
vt 0.133828 0.975050
vt 0.131951 0.972680
vt 0.131648 0.972660
vt 0.132721 0.973943
vt 0.132681 0.972698
vt 0.132159 0.971966
vt 0.131978 0.971666
vt 0.132698 0.971786
vt 0.133690 0.972718
vt 0.132711 0.971446
vt 0.131890 0.971163
vt 0.132706 0.970977
vt 0.133636 0.971841
vt 0.133634 0.971504
vt 0.133741 0.971052
vt 0.134782 0.971324
vt 0.134569 0.971746
vt 0.135730 0.971865
vt 0.134595 0.972035
vt 0.135365 0.972203
vt 0.135951 0.972882
vt 0.136397 0.972730
vt 0.135218 0.972340
vt 0.136214 0.973716
vt 0.136657 0.973685
vt 0.136524 0.974667
vt 0.135613 0.972867
vt 0.135855 0.973741
vt 0.136060 0.974578
vt 0.134772 0.972792
vt 0.134939 0.973804
vt 0.133780 0.973881
vt 0.135726 0.974640
vt 0.134898 0.974830
vt 0.134819 0.975602
vt 0.135401 0.975215
vt 0.135565 0.975330
vt 0.129176 0.990391
vt 0.129823 0.990967
vt 0.129017 0.990749
vt 0.129958 0.990573
vt 0.128192 0.990403
vt 0.130000 0.990273
vt 0.130618 0.990369
vt 0.128421 0.990081
vt 0.127467 0.989849
vt 0.129214 0.990114
vt 0.130478 0.990127
vt 0.130957 0.989594
vt 0.130097 0.989496
vt 0.130706 0.989557
vt 0.131080 0.988495
vt 0.130820 0.988484
vt 0.129259 0.989379
vt 0.130827 0.987400
vt 0.131080 0.987383
vt 0.130183 0.988454
vt 0.130217 0.987415
vt 0.130653 0.986803
vt 0.130804 0.986553
vt 0.130203 0.986653
vt 0.129374 0.987432
vt 0.130192 0.986369
vt 0.130877 0.986133
vt 0.130196 0.985977
vt 0.129419 0.986699
vt 0.129421 0.986418
vt 0.129331 0.986040
vt 0.128462 0.986267
vt 0.128641 0.986620
vt 0.127671 0.986719
vt 0.128618 0.986861
vt 0.127976 0.987001
vt 0.127486 0.987569
vt 0.127113 0.987441
vt 0.128098 0.987116
vt 0.127266 0.988265
vt 0.126896 0.988239
vt 0.127008 0.989059
vt 0.127768 0.987555
vt 0.127566 0.988286
vt 0.127395 0.988985
vt 0.128471 0.987494
vt 0.128331 0.988338
vt 0.129299 0.988403
vt 0.127674 0.989037
vt 0.128366 0.989195
vt 0.128431 0.989840
vt 0.127946 0.989517
vt 0.127808 0.989613
vt 0.147154 0.989585
vt 0.146378 0.989812
vt 0.146352 0.989522
vt 0.145753 0.989791
vt 0.147182 0.989873
vt 0.147948 0.989821
vt 0.145932 0.990004
vt 0.145536 0.990557
vt 0.147989 0.990094
vt 0.145792 0.990567
vt 0.148647 0.990236
vt 0.145536 0.991583
vt 0.146420 0.990565
vt 0.145799 0.991579
vt 0.147280 0.990598
vt 0.146450 0.991570
vt 0.145822 0.992592
vt 0.145566 0.992609
vt 0.146449 0.992575
vt 0.145977 0.993150
vt 0.145806 0.993368
vt 0.146429 0.993329
vt 0.146412 0.993620
vt 0.147212 0.993533
vt 0.147232 0.993244
vt 0.147999 0.993274
vt 0.147307 0.992517
vt 0.148031 0.993001
vt 0.148684 0.992839
vt 0.147352 0.991557
vt 0.148213 0.992371
vt 0.148566 0.992712
vt 0.148910 0.992233
vt 0.149190 0.992227
vt 0.148331 0.991542
vt 0.149097 0.991531
vt 0.149387 0.991527
vt 0.149169 0.990833
vt 0.148890 0.990835
vt 0.148189 0.990718
vt 0.148532 0.990367
vt 0.150687 0.990656
vt 0.149885 0.990720
vt 0.149911 0.990430
vt 0.149286 0.990451
vt 0.150715 0.990368
vt 0.151481 0.990420
vt 0.149465 0.990237
vt 0.149069 0.989685
vt 0.151522 0.990148
vt 0.149325 0.989675
vt 0.152180 0.990005
vt 0.149069 0.988658
vt 0.149953 0.989677
vt 0.149332 0.988662
vt 0.150813 0.989643
vt 0.149983 0.988672
vt 0.149355 0.987650
vt 0.149099 0.987633
vt 0.149982 0.987666
vt 0.149510 0.987092
vt 0.149339 0.986873
vt 0.149962 0.986912
vt 0.149945 0.986621
vt 0.150745 0.986708
vt 0.150765 0.986997
vt 0.151532 0.986967
vt 0.150840 0.987724
vt 0.151564 0.987241
vt 0.152217 0.987403
vt 0.150885 0.988685
vt 0.151746 0.987871
vt 0.152099 0.987530
vt 0.152443 0.988008
vt 0.152723 0.988014
vt 0.151864 0.988699
vt 0.152630 0.988710
vt 0.152920 0.988714
vt 0.152702 0.989408
vt 0.152423 0.989406
vt 0.151722 0.989524
vt 0.152065 0.989874
vt 0.132416 0.976907
vt 0.131565 0.977182
vt 0.131543 0.976791
vt 0.130879 0.977127
vt 0.132432 0.977295
vt 0.133273 0.977255
vt 0.131072 0.977422
vt 0.130595 0.978149
vt 0.133293 0.977621
vt 0.130896 0.978172
vt 0.134017 0.977838
vt 0.130551 0.979530
vt 0.131577 0.978194
vt 0.130860 0.979535
vt 0.132505 0.978273
vt 0.131567 0.979547
vt 0.130853 0.980899
vt 0.130551 0.980912
vt 0.131534 0.980899
vt 0.131004 0.981654
vt 0.130802 0.981943
vt 0.131489 0.981910
vt 0.131455 0.982300
vt 0.132331 0.982212
vt 0.132359 0.981825
vt 0.133199 0.981892
vt 0.132464 0.980850
vt 0.133231 0.981526
vt 0.133961 0.981333
vt 0.132545 0.979562
vt 0.133449 0.980687
vt 0.133823 0.981158
vt 0.134209 0.980529
vt 0.134535 0.980531
vt 0.133607 0.979579
vt 0.134438 0.979592
vt 0.134773 0.979598
vt 0.134565 0.978658
vt 0.134239 0.978649
vt 0.133485 0.978467
vt 0.133873 0.978008
vt 0.137328 0.989910
vt 0.137487 0.990268
vt 0.136681 0.990486
vt 0.136546 0.990092
vt 0.138312 0.989922
vt 0.136504 0.989792
vt 0.135886 0.989887
vt 0.138083 0.989600
vt 0.139038 0.989368
vt 0.137290 0.989633
vt 0.136026 0.989646
vt 0.135547 0.989113
vt 0.136407 0.989014
vt 0.135798 0.989075
vt 0.135424 0.988014
vt 0.135684 0.988003
vt 0.137245 0.988897
vt 0.135678 0.986919
vt 0.135424 0.986902
vt 0.136321 0.987973
vt 0.136287 0.986933
vt 0.135852 0.986322
vt 0.135701 0.986072
vt 0.136302 0.986171
vt 0.137130 0.986950
vt 0.136312 0.985888
vt 0.135627 0.985652
vt 0.136308 0.985496
vt 0.137085 0.986218
vt 0.137083 0.985936
vt 0.137173 0.985559
vt 0.138042 0.985786
vt 0.137864 0.986138
vt 0.138833 0.986238
vt 0.137886 0.986380
vt 0.138529 0.986520
vt 0.139018 0.987088
vt 0.139391 0.986960
vt 0.138406 0.986635
vt 0.139238 0.987784
vt 0.139608 0.987758
vt 0.139497 0.988578
vt 0.138736 0.987074
vt 0.138938 0.987805
vt 0.139109 0.988503
vt 0.138033 0.987013
vt 0.138173 0.987857
vt 0.137205 0.987922
vt 0.138831 0.988556
vt 0.138138 0.988714
vt 0.138073 0.989359
vt 0.138559 0.989035
vt 0.138696 0.989132
vt 0.129281 0.976884
vt 0.129888 0.977654
vt 0.129028 0.977342
vt 0.130111 0.977136
vt 0.128141 0.976868
vt 0.130186 0.976733
vt 0.130860 0.976871
vt 0.128492 0.976474
vt 0.127361 0.976139
vt 0.129353 0.976516
vt 0.130718 0.976542
vt 0.131306 0.975827
vt 0.130354 0.975691
vt 0.131011 0.975775
vt 0.131491 0.974346
vt 0.131185 0.974330
vt 0.129451 0.975535
vt 0.131192 0.972870
vt 0.131491 0.972844
vt 0.130491 0.974294
vt 0.130531 0.972896
vt 0.130979 0.972065
vt 0.131138 0.971720
vt 0.130485 0.971873
vt 0.129617 0.972937
vt 0.130456 0.971500
vt 0.131230 0.971143
vt 0.130446 0.970977
vt 0.129647 0.971959
vt 0.129634 0.971584
vt 0.129489 0.971090
vt 0.128525 0.971418
vt 0.128804 0.971866
vt 0.127647 0.972028
vt 0.128795 0.972187
vt 0.128089 0.972368
vt 0.127536 0.973125
vt 0.127025 0.972979
vt 0.128233 0.972522
vt 0.127279 0.974071
vt 0.126774 0.974033
vt 0.126878 0.975113
vt 0.127866 0.973109
vt 0.127627 0.974097
vt 0.127405 0.975044
vt 0.128634 0.973029
vt 0.128465 0.974158
vt 0.129526 0.974233
vt 0.127732 0.975109
vt 0.128485 0.975302
vt 0.128530 0.976157
vt 0.128016 0.975742
vt 0.127851 0.975873
vn -0.219731 -0.044210 -0.974558
vn -0.270485 -0.339707 -0.900798
vn -0.505121 -0.052899 -0.861426
vn -0.523415 0.096211 -0.846629
vn -0.136128 -0.226179 -0.964527
vn -0.061867 -0.566047 -0.822048
vn -0.209629 0.042224 -0.976869
vn -0.573626 0.212685 -0.791023
vn -0.045296 -0.240974 -0.969474
vn -0.000001 -0.569632 -0.821900
vn -0.028066 -0.031997 -0.999094
vn 0.000000 -0.225159 -0.974322
vn 0.045293 -0.240974 -0.969474
vn 0.061867 -0.566024 -0.822064
vn 0.000001 -0.032308 -0.999478
vn 0.136115 -0.226192 -0.964526
vn 0.270486 -0.339711 -0.900796
vn 0.028062 -0.031997 -0.999094
vn 0.219736 -0.044209 -0.974557
vn 0.505173 -0.052902 -0.861395
vn 0.523443 0.096222 -0.846610
vn 0.209626 0.042222 -0.976870
vn 0.573660 0.212686 -0.790999
vn 0.030254 0.004409 -0.999533
vn 0.239813 0.109568 -0.964616
vn 0.500312 0.421267 -0.756453
vn 0.000000 0.000000 -1.000000
vn 0.258500 0.214576 -0.941878
vn 0.040155 0.036508 -0.998526
vn 0.130805 0.221568 -0.966332
vn 0.238498 0.534032 -0.811128
vn -0.000000 0.031184 -0.999514
vn -0.000001 0.222244 -0.974991
vn -0.000000 0.510378 -0.859950
vn -0.238504 0.534055 -0.811111
vn -0.130807 0.221571 -0.966331
vn -0.500327 0.421265 -0.756445
vn -0.040161 0.036506 -0.998526
vn -0.258514 0.214566 -0.941877
vn -0.239813 0.109569 -0.964616
vn -0.030257 0.004412 -0.999532
vn -0.977516 0.206536 -0.042480
vn -0.995596 0.092294 -0.016472
vn -0.920619 0.169442 0.351781
vn -0.910817 0.389996 -0.135335
vn -0.850409 0.011545 0.525995
vn -0.918559 0.346957 0.189395
vn -0.743056 0.645914 -0.175110
vn -0.218204 -0.048076 0.974718
vn -0.273737 -0.345525 0.897597
vn -0.206560 0.031308 0.977933
vn -0.136373 -0.231261 0.963286
vn -0.062259 -0.575116 0.815699
vn -0.027957 -0.032837 0.999070
vn -0.045601 -0.246013 0.968193
vn 0.000001 -0.579548 0.814939
vn 0.000001 -0.230592 0.973051
vn -0.029435 0.002885 0.999563
vn 0.045603 -0.246014 0.968193
vn 0.062260 -0.575121 0.815696
vn 0.000000 -0.032855 0.999460
vn 0.027958 -0.032837 0.999070
vn 0.136366 -0.231255 0.963289
vn 0.735184 -0.444683 0.511626
vn 0.218199 -0.048076 0.974719
vn 0.029435 0.002885 0.999563
vn 0.917519 -0.118004 0.379781
vn 0.920427 -0.390868 -0.006065
vn 0.992118 -0.124428 -0.014796
vn 0.206558 0.031308 0.977933
vn 0.920624 0.169436 0.351772
vn 0.977517 0.206531 -0.042502
vn 0.910819 0.389997 -0.135323
vn 0.918558 0.346959 0.189397
vn 0.743056 0.645916 -0.175102
vn 0.244022 0.098467 0.964758
vn 0.765658 0.641937 0.041050
vn 0.421889 0.856403 0.297629
vn 0.457564 0.887851 -0.048532
vn 0.243263 0.205339 0.947976
vn 0.000000 0.904558 0.426351
vn 0.000001 0.998502 0.054714
vn -0.457563 0.887852 -0.048530
vn 0.117297 0.222210 0.967918
vn -0.000000 0.207203 0.978298
vn -0.421890 0.856405 0.297623
vn 0.037032 0.034502 0.998718
vn -0.000000 0.030510 0.999535
vn 0.000001 0.000000 1.000000
vn -0.117300 0.222207 0.967918
vn -0.037032 0.034502 0.998718
vn -0.244025 0.098469 0.964757
vn -0.243267 0.205332 0.947977
vn -0.765658 0.641937 0.041036
vn -0.920622 -0.169438 0.351775
vn -0.995596 -0.092284 -0.016481
vn -0.977517 -0.206531 -0.042493
vn -0.850403 -0.011540 0.526006
vn -0.910818 -0.390003 -0.135308
vn -0.218188 0.048075 0.974722
vn -0.273686 0.345488 0.897627
vn -0.918556 -0.346964 0.189397
vn -0.743055 -0.645922 -0.175083
vn -0.206551 -0.031306 0.977935
vn -0.136355 0.231235 0.963295
vn -0.062253 0.575106 0.815707
vn -0.027960 0.032839 0.999070
vn -0.045601 0.246004 0.968196
vn 0.000000 0.579540 0.814944
vn 0.000001 0.230580 0.973053
vn -0.029435 -0.002885 0.999563
vn 0.045600 0.246009 0.968194
vn 0.062252 0.575122 0.815696
vn 0.000002 0.032857 0.999460
vn 0.027960 0.032839 0.999070
vn 0.136359 0.231236 0.963294
vn 0.735156 0.444683 0.511666
vn 0.218190 0.048071 0.974722
vn 0.029434 -0.002885 0.999563
vn 0.917524 0.118007 0.379769
vn 0.920416 0.390893 -0.006068
vn 0.992118 0.124429 -0.014808
vn 0.206551 -0.031306 0.977935
vn 0.920618 -0.169440 0.351784
vn 0.977516 -0.206538 -0.042468
vn 0.910817 -0.389993 -0.135344
vn 0.918564 -0.346957 0.189371
vn 0.743057 -0.645922 -0.175072
vn 0.244009 -0.098462 0.964762
vn 0.765663 -0.641930 0.041062
vn 0.421884 -0.856407 0.297626
vn 0.457555 -0.887856 -0.048535
vn 0.243256 -0.205327 0.947981
vn 0.000001 -0.904537 0.426395
vn 0.000001 -0.998495 0.054839
vn -0.457559 -0.887853 -0.048536
vn 0.117297 -0.222204 0.967919
vn 0.000001 -0.207193 0.978300
vn -0.421891 -0.856409 0.297611
vn 0.037034 -0.034503 0.998718
vn -0.000001 -0.030512 0.999534
vn 0.000000 0.000000 1.000000
vn -0.117297 -0.222199 0.967920
vn -0.037036 -0.034503 0.998718
vn -0.244003 -0.098459 0.964763
vn -0.243251 -0.205322 0.947983
vn -0.765667 -0.641926 0.041043
vn 0.523417 -0.096210 -0.846628
vn 0.219739 0.044216 -0.974556
vn 0.505146 0.052900 -0.861411
vn 0.270468 0.339690 -0.900810
vn 0.209628 -0.042222 -0.976869
vn 0.573645 -0.212686 -0.791010
vn 0.136121 0.226179 -0.964528
vn 0.061869 0.566036 -0.822055
vn 0.239812 -0.109572 -0.964616
vn 0.045303 0.240979 -0.969472
vn 0.500296 -0.421264 -0.756466
vn 0.000001 0.569683 -0.821865
vn 0.028068 0.031999 -0.999094
vn 0.000000 0.225167 -0.974320
vn 0.030261 -0.004412 -0.999532
vn -0.000000 0.032307 -0.999478
vn -0.045299 0.240981 -0.969472
vn -0.061871 0.566034 -0.822057
vn -0.028068 0.031999 -0.999094
vn -0.136118 0.226181 -0.964528
vn -0.270468 0.339685 -0.900811
vn -0.219738 0.044217 -0.974556
vn -0.505153 0.052894 -0.861408
vn -0.523433 -0.096211 -0.846618
vn -0.209629 -0.042221 -0.976869
vn -0.573646 -0.212688 -0.791009
vn -0.030258 -0.004412 -0.999532
vn -0.239811 -0.109574 -0.964616
vn -0.500271 -0.421245 -0.756493
vn 0.000000 0.000000 -1.000000
vn -0.040164 -0.036515 -0.998526
vn -0.258494 -0.214570 -0.941881
vn -0.130793 -0.221565 -0.966334
vn -0.238489 -0.534027 -0.811134
vn -0.000003 -0.031194 -0.999513
vn 0.000000 -0.222236 -0.974993
vn 0.000000 -0.510323 -0.859983
vn 0.238480 -0.534009 -0.811148
vn 0.130793 -0.221566 -0.966334
vn 0.040164 -0.036515 -0.998526
vn 0.258502 -0.214575 -0.941878
vn -0.523415 -0.096210 -0.846629
vn -0.505142 0.052900 -0.861413
vn -0.219739 0.044216 -0.974556
vn -0.270468 0.339689 -0.900810
vn -0.209628 -0.042222 -0.976869
vn -0.573646 -0.212687 -0.791009
vn -0.136122 0.226179 -0.964528
vn -0.061869 0.566035 -0.822056
vn -0.239813 -0.109572 -0.964616
vn -0.045304 0.240980 -0.969472
vn -0.500289 -0.421260 -0.756473
vn 0.000000 0.569682 -0.821865
vn -0.028068 0.031999 -0.999094
vn 0.000001 0.225167 -0.974320
vn -0.030261 -0.004412 -0.999532
vn 0.000001 0.032307 -0.999478
vn 0.045302 0.240980 -0.969472
vn 0.061870 0.566034 -0.822057
vn 0.028068 0.031999 -0.999094
vn 0.136120 0.226181 -0.964528
vn 0.270468 0.339685 -0.900812
vn 0.219739 0.044217 -0.974556
vn 0.505155 0.052895 -0.861406
vn 0.523431 -0.096211 -0.846619
vn 0.209627 -0.042221 -0.976869
vn 0.573647 -0.212688 -0.791008
vn 0.030259 -0.004412 -0.999532
vn 0.239814 -0.109574 -0.964615
vn 0.500271 -0.421247 -0.756492
vn 0.000000 0.000000 -1.000000
vn 0.040165 -0.036515 -0.998526
vn 0.258495 -0.214569 -0.941881
vn 0.130795 -0.221567 -0.966334
vn 0.238492 -0.534029 -0.811132
vn 0.000001 -0.031194 -0.999513
vn 0.000000 -0.222237 -0.974993
vn -0.000000 -0.510323 -0.859983
vn -0.238486 -0.534018 -0.811141
vn -0.130797 -0.221569 -0.966333
vn -0.040166 -0.036514 -0.998526
vn -0.258496 -0.214571 -0.941881
vn 0.521690 -0.154461 -0.839036
vn 0.223619 0.012778 -0.974593
vn 0.505034 0.024308 -0.862757
vn 0.283327 0.352668 -0.891825
vn 0.211940 -0.094966 -0.972658
vn 0.565295 -0.292465 -0.771301
vn 0.129050 0.240836 -0.961948
vn 0.059277 0.616553 -0.785079
vn 0.238500 -0.176748 -0.954923
vn 0.044356 0.249825 -0.967275
vn 0.485003 -0.522578 -0.701202
vn 0.000001 0.618832 -0.785523
vn 0.028559 -0.003451 -0.999586
vn 0.000000 0.234092 -0.972215
vn 0.030659 -0.048261 -0.998364
vn -0.000000 -0.002723 -0.999996
vn -0.044352 0.249826 -0.967275
vn -0.059277 0.616576 -0.785061
vn -0.028559 -0.003451 -0.999586
vn -0.129047 0.240837 -0.961948
vn -0.283333 0.352659 -0.891826
vn -0.223617 0.012778 -0.974593
vn -0.505048 0.024306 -0.862749
vn -0.521706 -0.154461 -0.839026
vn -0.211937 -0.094964 -0.972658
vn -0.565289 -0.292467 -0.771305
vn -0.030659 -0.048261 -0.998364
vn -0.238499 -0.176752 -0.954923
vn -0.484992 -0.522563 -0.701221
vn 0.000001 -0.042946 -0.999077
vn -0.040564 -0.087102 -0.995373
vn -0.252211 -0.307643 -0.917467
vn -0.126316 -0.309485 -0.942477
vn -0.229890 -0.649153 -0.725087
vn 0.000004 -0.080397 -0.996763
vn 0.000004 -0.304562 -0.952493
vn 0.000000 -0.627093 -0.778944
vn 0.229889 -0.649130 -0.725108
vn 0.126318 -0.309480 -0.942479
vn 0.040565 -0.087102 -0.995373
vn 0.252212 -0.307653 -0.917463
vn 0.920622 -0.169437 0.351776
vn 0.977517 -0.206531 -0.042493
vn 0.995596 -0.092284 -0.016481
vn 0.850403 -0.011541 0.526006
vn 0.910818 -0.390003 -0.135308
vn 0.218187 0.048074 0.974722
vn 0.273687 0.345483 0.897628
vn 0.918554 -0.346966 0.189401
vn 0.743053 -0.645925 -0.175082
vn 0.206553 -0.031306 0.977935
vn 0.136353 0.231232 0.963296
vn 0.062255 0.575107 0.815706
vn 0.027959 0.032839 0.999070
vn 0.045602 0.246003 0.968196
vn 0.000000 0.579540 0.814944
vn -0.000001 0.230580 0.973053
vn 0.029436 -0.002885 0.999563
vn -0.045599 0.246009 0.968194
vn -0.062253 0.575124 0.815694
vn -0.000001 0.032857 0.999460
vn -0.027958 0.032839 0.999070
vn -0.136360 0.231241 0.963293
vn -0.735156 0.444688 0.511662
vn -0.218187 0.048071 0.974722
vn -0.029434 -0.002885 0.999563
vn -0.917523 0.118006 0.379771
vn -0.920416 0.390893 -0.006068
vn -0.992118 0.124429 -0.014808
vn -0.206551 -0.031306 0.977935
vn -0.920618 -0.169440 0.351786
vn -0.977516 -0.206539 -0.042465
vn -0.910817 -0.389993 -0.135342
vn -0.918564 -0.346957 0.189372
vn -0.743057 -0.645923 -0.175071
vn -0.244009 -0.098462 0.964762
vn -0.765664 -0.641929 0.041063
vn -0.421884 -0.856407 0.297626
vn -0.457554 -0.887856 -0.048535
vn -0.243254 -0.205325 0.947982
vn -0.000000 -0.904538 0.426394
vn 0.000000 -0.998495 0.054839
vn 0.457557 -0.887855 -0.048535
vn -0.117296 -0.222204 0.967919
vn 0.000000 -0.207193 0.978300
vn 0.421888 -0.856412 0.297606
vn -0.037034 -0.034504 0.998718
vn 0.000001 -0.030512 0.999534
vn 0.000000 0.000000 1.000000
vn 0.117296 -0.222202 0.967919
vn 0.037035 -0.034503 0.998718
vn 0.244002 -0.098459 0.964764
vn 0.243245 -0.205322 0.947985
vn 0.765666 -0.641928 0.041043
vn -0.915044 -0.192254 0.354588
vn -0.993106 -0.116411 -0.013768
vn -0.966445 -0.254983 -0.031108
vn -0.854980 0.003918 0.518646
vn -0.874257 -0.473523 -0.107007
vn -0.221575 0.101133 0.969885
vn -0.286200 0.434287 0.854098
vn -0.890829 -0.407537 0.200844
vn -0.669036 -0.732758 -0.124323
vn -0.208530 0.002820 0.978012
vn -0.129217 0.328294 0.935695
vn -0.059456 0.690145 0.721224
vn -0.028374 0.083325 0.996118
vn -0.044599 0.337710 0.940193
vn 0.000001 0.693187 0.720758
vn 0.000000 0.323010 0.946396
vn -0.029719 0.039458 0.998779
vn 0.044598 0.337719 0.940190
vn 0.059451 0.690152 0.721219
vn -0.000001 0.083743 0.996487
vn 0.028373 0.083324 0.996119
vn 0.129226 0.328310 0.935689
vn 0.706109 0.532861 0.466335
vn 0.221571 0.101128 0.969886
vn 0.029720 0.039457 0.998779
vn 0.917185 0.160220 0.364831
vn 0.884760 0.465305 -0.026272
vn 0.987999 0.152795 -0.022638
vn 0.208531 0.002820 0.978012
vn 0.915040 -0.192257 0.354597
vn 0.966444 -0.254992 -0.031082
vn 0.874261 -0.473514 -0.107014
vn 0.890835 -0.407528 0.200834
vn 0.669044 -0.732755 -0.124302
vn 0.244184 -0.080495 0.966382
vn 0.696931 -0.713854 0.068551
vn 0.358418 -0.887058 0.290972
vn 0.382659 -0.923890 -0.000779
vn 0.236909 -0.216636 0.947071
vn 0.000001 -0.914971 0.403520
vn 0.000001 -0.996208 0.087007
vn -0.382660 -0.923889 -0.000786
vn 0.113837 -0.227396 0.967126
vn 0.000000 -0.205854 0.978583
vn -0.358419 -0.887056 0.290978
vn 0.037506 0.001003 0.999296
vn -0.000001 0.005971 0.999982
vn 0.000000 0.042943 0.999078
vn -0.113839 -0.227393 0.967126
vn -0.037507 0.001003 0.999296
vn -0.244181 -0.080495 0.966383
vn -0.236907 -0.216628 0.947073
vn -0.696933 -0.713854 0.068529
s 1
g teeth Jake
usemtl lambert2SG
f 1/1/1 2/2/2 3/3/3
f 3/3/3 4/4/4 1/1/1
f 2/2/2 1/1/1 5/5/5
f 5/5/5 6/6/6 2/2/2
f 4/4/4 7/7/7 1/1/1
f 4/4/4 8/8/8 7/7/7
f 6/6/6 5/5/5 9/9/9
f 10/10/10 6/6/6 9/9/9
f 11/11/11 5/5/5 1/1/1
f 5/5/5 11/11/11 9/9/9
f 11/11/11 1/1/1 7/7/7
f 10/10/10 9/9/9 12/12/12
f 12/12/12 9/9/9 11/11/11
f 13/13/13 10/10/10 12/12/12
f 10/10/10 13/13/13 14/14/14
f 12/12/12 11/11/11 15/15/15
f 16/16/16 14/14/14 13/13/13
f 14/14/14 16/16/16 17/17/17
f 12/12/12 18/18/18 13/13/13
f 16/16/16 13/13/13 18/18/18
f 18/18/18 12/12/12 15/15/15
f 16/16/16 19/19/19 17/17/17
f 18/18/18 19/19/19 16/16/16
f 20/20/20 17/17/17 19/19/19
f 19/19/19 21/21/21 20/20/20
f 21/21/21 19/19/19 22/22/22
f 18/18/18 22/22/22 19/19/19
f 22/22/22 23/23/23 21/21/21
f 22/22/22 18/18/18 24/24/24
f 15/15/15 24/24/24 18/18/18
f 23/23/23 22/22/22 25/25/25
f 24/24/24 25/25/25 22/22/22
f 25/25/25 26/26/26 23/23/23
f 24/24/24 15/15/15 27/27/27
f 26/26/26 25/25/25 28/28/28
f 25/25/25 24/24/24 29/29/29
f 29/29/29 28/28/28 25/25/25
f 27/27/27 29/29/29 24/24/24
f 30/30/30 26/26/26 28/28/28
f 28/28/28 29/29/29 30/30/30
f 26/26/26 30/30/30 31/31/31
f 32/32/32 30/30/30 29/29/29
f 29/29/29 27/27/27 32/32/32
f 33/33/33 31/31/31 30/30/30
f 30/30/30 32/32/32 33/33/33
f 31/31/31 33/33/33 34/34/34
f 33/33/33 35/35/35 34/34/34
f 33/33/33 36/36/36 35/35/35
f 32/32/32 36/36/36 33/33/33
f 37/37/37 35/35/35 36/36/36
f 32/32/32 38/38/38 36/36/36
f 27/27/27 38/38/38 32/32/32
f 37/37/37 36/36/36 39/39/39
f 39/39/39 36/36/36 38/38/38
f 39/39/39 40/40/40 37/37/37
f 38/38/38 40/40/40 39/39/39
f 8/8/8 37/37/37 40/40/40
f 8/8/8 40/40/40 7/7/7
f 27/27/27 41/41/41 38/38/38
f 40/40/40 38/38/38 41/41/41
f 41/41/41 7/7/7 40/40/40
f 15/15/15 41/41/41 27/27/27
f 11/11/11 7/7/7 41/41/41
f 15/15/15 11/11/11 41/41/41
s 2
f 42/42/42 43/43/43 44/44/44
f 44/44/44 45/45/45 42/42/42
f 46/46/46 44/44/44 43/43/43
f 45/45/45 44/44/44 47/47/47
f 47/47/47 48/48/48 45/45/45
f 49/49/49 44/44/44 46/46/46
f 46/46/46 50/50/50 49/49/49
f 51/51/51 47/47/47 44/44/44
f 44/44/44 49/49/49 51/51/51
f 49/49/49 50/50/50 52/52/52
f 53/53/53 52/52/52 50/50/50
f 52/52/52 54/54/54 49/49/49
f 54/54/54 51/51/51 49/49/49
f 52/52/52 53/53/53 55/55/55
f 54/54/54 52/52/52 55/55/55
f 56/56/56 55/55/55 53/53/53
f 57/57/57 54/54/54 55/55/55
f 55/55/55 56/56/56 57/57/57
f 51/51/51 54/54/54 58/58/58
f 59/59/59 57/57/57 56/56/56
f 59/59/59 56/56/56 60/60/60
f 54/54/54 57/57/57 61/61/61
f 61/61/61 58/58/58 54/54/54
f 62/62/62 57/57/57 59/59/59
f 61/61/61 57/57/57 62/62/62
f 60/60/60 63/63/63 59/59/59
f 63/63/63 62/62/62 59/59/59
f 60/60/60 64/64/64 63/63/63
f 62/62/62 63/63/63 65/65/65
f 64/64/64 65/65/65 63/63/63
f 66/66/66 61/61/61 62/62/62
f 65/65/65 64/64/64 67/67/67
f 68/68/68 67/67/67 64/64/64
f 67/67/67 68/68/68 69/69/69
f 70/70/70 62/62/62 65/65/65
f 66/66/66 62/62/62 70/70/70
f 71/71/71 65/65/65 67/67/67
f 69/69/69 71/71/71 67/67/67
f 70/70/70 65/65/65 71/71/71
f 71/71/71 69/69/69 72/72/72
f 73/73/73 71/71/71 72/72/72
f 71/71/71 73/73/73 74/74/74
f 74/74/74 70/70/70 71/71/71
f 75/75/75 74/74/74 73/73/73
f 76/76/76 70/70/70 74/74/74
f 76/76/76 66/66/66 70/70/70
f 74/74/74 75/75/75 77/77/77
f 77/77/77 76/76/76 74/74/74
f 78/78/78 77/77/77 75/75/75
f 78/78/78 75/75/75 79/79/79
f 76/76/76 77/77/77 80/80/80
f 81/81/81 78/78/78 79/79/79
f 81/81/81 79/79/79 82/82/82
f 83/83/83 81/81/81 82/82/82
f 77/77/77 78/78/78 84/84/84
f 84/84/84 80/80/80 77/77/77
f 78/78/78 81/81/81 85/85/85
f 78/78/78 85/85/85 84/84/84
f 81/81/81 83/83/83 86/86/86
f 86/86/86 85/85/85 81/81/81
f 48/48/48 86/86/86 83/83/83
f 80/80/80 87/87/87 76/76/76
f 84/84/84 87/87/87 80/80/80
f 87/87/87 66/66/66 76/76/76
f 85/85/85 88/88/88 84/84/84
f 84/84/84 88/88/88 87/87/87
f 87/87/87 89/89/89 66/66/66
f 88/88/88 89/89/89 87/87/87
f 89/89/89 61/61/61 66/66/66
f 58/58/58 61/61/61 89/89/89
f 90/90/90 88/88/88 85/85/85
f 85/85/85 86/86/86 90/90/90
f 91/91/91 89/89/89 88/88/88
f 89/89/89 91/91/91 58/58/58
f 88/88/88 90/90/90 91/91/91
f 92/92/92 58/58/58 91/91/91
f 58/58/58 92/92/92 51/51/51
f 47/47/47 51/51/51 92/92/92
f 91/91/91 90/90/90 93/93/93
f 93/93/93 92/92/92 91/91/91
f 90/90/90 94/94/94 93/93/93
f 94/94/94 92/92/92 93/93/93
f 92/92/92 94/94/94 47/47/47
f 94/94/94 90/90/90 86/86/86
f 48/48/48 47/47/47 94/94/94
f 86/86/86 48/48/48 94/94/94
s 3
f 95/95/95 96/96/96 97/97/97
f 95/95/95 98/98/98 96/96/96
f 99/99/99 95/95/95 97/97/97
f 95/95/95 100/100/100 98/98/98
f 100/100/100 101/101/101 98/98/98
f 95/95/95 99/99/99 102/102/102
f 103/103/103 102/102/102 99/99/99
f 100/100/100 95/95/95 104/104/104
f 102/102/102 104/104/104 95/95/95
f 101/101/101 100/100/100 105/105/105
f 105/105/105 106/106/106 101/101/101
f 107/107/107 105/105/105 100/100/100
f 104/104/104 107/107/107 100/100/100
f 106/106/106 105/105/105 108/108/108
f 105/105/105 107/107/107 108/108/108
f 108/108/108 109/109/109 106/106/106
f 107/107/107 110/110/110 108/108/108
f 109/109/109 108/108/108 110/110/110
f 107/107/107 104/104/104 111/111/111
f 112/112/112 109/109/109 110/110/110
f 109/109/109 112/112/112 113/113/113
f 110/110/110 107/107/107 114/114/114
f 111/111/111 114/114/114 107/107/107
f 110/110/110 115/115/115 112/112/112
f 115/115/115 110/110/110 114/114/114
f 116/116/116 113/113/113 112/112/112
f 115/115/115 116/116/116 112/112/112
f 117/117/117 113/113/113 116/116/116
f 116/116/116 115/115/115 118/118/118
f 118/118/118 117/117/117 116/116/116
f 114/114/114 119/119/119 115/115/115
f 117/117/117 118/118/118 120/120/120
f 120/120/120 121/121/121 117/117/117
f 121/121/121 120/120/120 122/122/122
f 115/115/115 123/123/123 118/118/118
f 123/123/123 115/115/115 119/119/119
f 118/118/118 124/124/124 120/120/120
f 124/124/124 122/122/122 120/120/120
f 124/124/124 118/118/118 123/123/123
f 122/122/122 124/124/124 125/125/125
f 124/124/124 126/126/126 125/125/125
f 124/124/124 127/127/127 126/126/126
f 123/123/123 127/127/127 124/124/124
f 127/127/127 128/128/128 126/126/126
f 127/127/127 123/123/123 129/129/129
f 119/119/119 129/129/129 123/123/123
f 127/127/127 130/130/130 128/128/128
f 129/129/129 130/130/130 127/127/127
f 131/131/131 128/128/128 130/130/130
f 128/128/128 131/131/131 132/132/132
f 130/130/130 129/129/129 133/133/133
f 134/134/134 132/132/132 131/131/131
f 132/132/132 134/134/134 135/135/135
f 134/134/134 136/136/136 135/135/135
f 131/131/131 130/130/130 137/137/137
f 130/130/130 133/133/133 137/137/137
f 131/131/131 138/138/138 134/134/134
f 138/138/138 131/131/131 137/137/137
f 136/136/136 134/134/134 139/139/139
f 138/138/138 139/139/139 134/134/134
f 139/139/139 103/103/103 136/136/136
f 129/129/129 140/140/140 133/133/133
f 140/140/140 137/137/137 133/133/133
f 129/129/129 119/119/119 140/140/140
f 137/137/137 141/141/141 138/138/138
f 141/141/141 137/137/137 140/140/140
f 142/142/142 140/140/140 119/119/119
f 140/140/140 142/142/142 141/141/141
f 119/119/119 114/114/114 142/142/142
f 114/114/114 111/111/111 142/142/142
f 141/141/141 143/143/143 138/138/138
f 139/139/139 138/138/138 143/143/143
f 142/142/142 144/144/144 141/141/141
f 144/144/144 142/142/142 111/111/111
f 143/143/143 141/141/141 144/144/144
f 111/111/111 145/145/145 144/144/144
f 145/145/145 111/111/111 104/104/104
f 104/104/104 102/102/102 145/145/145
f 144/144/144 146/146/146 143/143/143
f 146/146/146 144/144/144 145/145/145
f 147/147/147 143/143/143 146/146/146
f 145/145/145 147/147/147 146/146/146
f 143/143/143 147/147/147 139/139/139
f 147/147/147 145/145/145 102/102/102
f 103/103/103 139/139/139 147/147/147
f 102/102/102 103/103/103 147/147/147
s 4
f 148/148/148 149/149/149 150/150/150
f 151/151/151 150/150/150 149/149/149
f 149/149/149 148/148/148 152/152/152
f 153/153/153 152/152/152 148/148/148
f 151/151/151 149/149/149 154/154/154
f 154/154/154 155/155/155 151/151/151
f 152/152/152 153/153/153 156/156/156
f 155/155/155 154/154/154 157/157/157
f 158/158/158 156/156/156 153/153/153
f 157/157/157 159/159/159 155/155/155
f 149/149/149 160/160/160 154/154/154
f 160/160/160 157/157/157 154/154/154
f 152/152/152 160/160/160 149/149/149
f 159/159/159 157/157/157 161/161/161
f 160/160/160 161/161/161 157/157/157
f 160/160/160 152/152/152 162/162/162
f 156/156/156 162/162/162 152/152/152
f 161/161/161 160/160/160 163/163/163
f 162/162/162 163/163/163 160/160/160
f 164/164/164 159/159/159 161/161/161
f 159/159/159 164/164/164 165/165/165
f 166/166/166 164/164/164 161/161/161
f 163/163/163 166/166/166 161/161/161
f 167/167/167 165/165/165 164/164/164
f 166/166/166 167/167/167 164/164/164
f 165/165/165 167/167/167 168/168/168
f 169/169/169 168/168/168 167/167/167
f 167/167/167 166/166/166 169/169/169
f 168/168/168 169/169/169 170/170/170
f 171/171/171 170/170/170 169/169/169
f 169/169/169 172/172/172 171/171/171
f 172/172/172 169/169/169 166/166/166
f 173/173/173 171/171/171 172/172/172
f 174/174/174 172/172/172 166/166/166
f 174/174/174 166/166/166 163/163/163
f 172/172/172 175/175/175 173/173/173
f 175/175/175 172/172/172 174/174/174
f 176/176/176 173/173/173 175/175/175
f 177/177/177 174/174/174 163/163/163
f 163/163/163 162/162/162 177/177/177
f 178/178/178 175/175/175 174/174/174
f 178/178/178 174/174/174 177/177/177
f 175/175/175 179/179/179 176/176/176
f 179/179/179 175/175/175 178/178/178
f 179/179/179 180/180/180 176/176/176
f 180/180/180 179/179/179 178/178/178
f 180/180/180 181/181/181 176/176/176
f 182/182/182 178/178/178 177/177/177
f 180/180/180 178/178/178 182/182/182
f 183/183/183 181/181/181 180/180/180
f 183/183/183 180/180/180 182/182/182
f 181/181/181 183/183/183 184/184/184
f 183/183/183 185/185/185 184/184/184
f 185/185/185 183/183/183 186/186/186
f 182/182/182 186/186/186 183/183/183
f 186/186/186 158/158/158 185/185/185
f 177/177/177 187/187/187 182/182/182
f 186/186/186 182/182/182 187/187/187
f 187/187/187 177/177/177 162/162/162
f 162/162/162 156/156/156 187/187/187
f 158/158/158 186/186/186 188/188/188
f 156/156/156 158/158/158 188/188/188
f 187/187/187 188/188/188 186/186/186
f 188/188/188 187/187/187 156/156/156
s 5
f 189/189/189 191/190/190 190/191/191
f 192/192/192 190/191/191 191/190/190
f 190/191/191 193/193/193 189/189/189
f 194/194/194 189/189/189 193/193/193
f 192/192/192 195/195/195 190/191/191
f 195/195/195 192/192/192 196/196/196
f 193/193/193 197/197/197 194/194/194
f 196/196/196 198/198/198 195/195/195
f 199/199/199 194/194/194 197/197/197
f 198/198/198 196/196/196 200/200/200
f 190/191/191 195/195/195 201/201/201
f 201/201/201 195/195/195 198/198/198
f 193/193/193 190/191/191 201/201/201
f 200/200/200 202/202/202 198/198/198
f 201/201/201 198/198/198 202/202/202
f 201/201/201 203/203/203 193/193/193
f 197/197/197 193/193/193 203/203/203
f 202/202/202 204/204/204 201/201/201
f 203/203/203 201/201/201 204/204/204
f 205/205/205 202/202/202 200/200/200
f 200/200/200 206/206/206 205/205/205
f 207/207/207 202/202/202 205/205/205
f 204/204/204 202/202/202 207/207/207
f 208/208/208 205/205/205 206/206/206
f 207/207/207 205/205/205 208/208/208
f 206/206/206 209/209/209 208/208/208
f 210/210/210 208/208/208 209/209/209
f 208/208/208 210/210/210 207/207/207
f 209/209/209 211/211/211 210/210/210
f 212/212/212 210/210/210 211/211/211
f 210/210/210 212/212/212 213/213/213
f 213/213/213 207/207/207 210/210/210
f 214/214/214 213/213/213 212/212/212
f 215/215/215 207/207/207 213/213/213
f 215/215/215 204/204/204 207/207/207
f 213/213/213 214/214/214 216/216/216
f 216/216/216 215/215/215 213/213/213
f 217/217/217 216/216/216 214/214/214
f 218/218/218 204/204/204 215/215/215
f 204/204/204 218/218/218 203/203/203
f 219/219/219 215/215/215 216/216/216
f 219/219/219 218/218/218 215/215/215
f 216/216/216 217/217/217 220/220/220
f 220/220/220 219/219/219 216/216/216
f 220/220/220 217/217/217 221/221/221
f 221/221/221 219/219/219 220/220/220
f 221/221/221 217/217/217 222/222/222
f 223/223/223 218/218/218 219/219/219
f 221/221/221 223/223/223 219/219/219
f 224/224/224 221/221/221 222/222/222
f 224/224/224 223/223/223 221/221/221
f 222/222/222 225/225/225 224/224/224
f 224/224/224 225/225/225 226/226/226
f 226/226/226 227/227/227 224/224/224
f 223/223/223 224/224/224 227/227/227
f 227/227/227 226/226/226 199/199/199
f 218/218/218 223/223/223 228/228/228
f 227/227/227 228/228/228 223/223/223
f 228/228/228 203/203/203 218/218/218
f 203/203/203 228/228/228 197/197/197
f 199/199/199 229/229/229 227/227/227
f 197/197/197 229/229/229 199/199/199
f 228/228/228 227/227/227 229/229/229
f 229/229/229 197/197/197 228/228/228
s 6
f 230/230/230 231/231/231 232/232/232
f 233/233/233 232/232/232 231/231/231
f 231/231/231 230/230/230 234/234/234
f 235/235/235 234/234/234 230/230/230
f 233/233/233 231/231/231 236/236/236
f 236/236/236 237/237/237 233/233/233
f 234/234/234 235/235/235 238/238/238
f 237/237/237 236/236/236 239/239/239
f 240/240/240 238/238/238 235/235/235
f 239/239/239 241/241/241 237/237/237
f 231/231/231 242/242/242 236/236/236
f 242/242/242 239/239/239 236/236/236
f 234/234/234 242/242/242 231/231/231
f 241/241/241 239/239/239 243/243/243
f 242/242/242 243/243/243 239/239/239
f 242/242/242 234/234/234 244/244/244
f 238/238/238 244/244/244 234/234/234
f 243/243/243 242/242/242 245/245/245
f 244/244/244 245/245/245 242/242/242
f 246/246/246 241/241/241 243/243/243
f 241/241/241 246/246/246 247/247/247
f 248/248/248 246/246/246 243/243/243
f 245/245/245 248/248/248 243/243/243
f 249/249/249 247/247/247 246/246/246
f 248/248/248 249/249/249 246/246/246
f 247/247/247 249/249/249 250/250/250
f 251/251/251 250/250/250 249/249/249
f 249/249/249 248/248/248 251/251/251
f 250/250/250 251/251/251 252/252/252
f 253/253/253 252/252/252 251/251/251
f 251/251/251 254/254/254 253/253/253
f 254/254/254 251/251/251 248/248/248
f 255/255/255 253/253/253 254/254/254
f 256/256/256 254/254/254 248/248/248
f 256/256/256 248/248/248 245/245/245
f 254/254/254 257/257/257 255/255/255
f 257/257/257 254/254/254 256/256/256
f 258/258/258 255/255/255 257/257/257
f 259/259/259 256/256/256 245/245/245
f 245/245/245 244/244/244 259/259/259
f 260/260/260 257/257/257 256/256/256
f 260/260/260 256/256/256 259/259/259
f 257/257/257 261/261/261 258/258/258
f 261/261/261 257/257/257 260/260/260
f 261/261/261 262/262/262 258/258/258
f 262/262/262 261/261/261 260/260/260
f 262/262/262 263/263/263 258/258/258
f 264/264/264 260/260/260 259/259/259
f 262/262/262 260/260/260 264/264/264
f 265/265/265 263/263/263 262/262/262
f 265/265/265 262/262/262 264/264/264
f 263/263/263 265/265/265 266/266/266
f 265/265/265 267/267/267 266/266/266
f 267/267/267 265/265/265 268/268/268
f 264/264/264 268/268/268 265/265/265
f 268/268/268 240/240/240 267/267/267
f 259/259/259 269/269/269 264/264/264
f 268/268/268 264/264/264 269/269/269
f 269/269/269 259/259/259 244/244/244
f 244/244/244 238/238/238 269/269/269
f 240/240/240 268/268/268 270/270/270
f 238/238/238 240/240/240 270/270/270
f 269/269/269 270/270/270 268/268/268
f 270/270/270 269/269/269 238/238/238
s 7
f 271/271/271 273/272/272 272/273/273
f 271/271/271 272/273/273 274/274/274
f 275/275/275 273/272/272 271/271/271
f 271/271/271 274/274/274 276/276/276
f 276/276/276 274/274/274 277/277/277
f 271/271/271 278/278/278 275/275/275
f 279/279/279 275/275/275 278/278/278
f 276/276/276 280/280/280 271/271/271
f 278/278/278 271/271/271 280/280/280
f 277/277/277 281/281/281 276/276/276
f 281/281/281 277/277/277 282/282/282
f 283/283/283 276/276/276 281/281/281
f 280/280/280 276/276/276 283/283/283
f 282/282/282 284/284/284 281/281/281
f 281/281/281 284/284/284 283/283/283
f 284/284/284 282/282/282 285/285/285
f 283/283/283 284/284/284 286/286/286
f 285/285/285 286/286/286 284/284/284
f 283/283/283 287/287/287 280/280/280
f 288/288/288 286/286/286 285/285/285
f 285/285/285 289/289/289 288/288/288
f 286/286/286 290/290/290 283/283/283
f 287/287/287 283/283/283 290/290/290
f 286/286/286 288/288/288 291/291/291
f 291/291/291 290/290/290 286/286/286
f 292/292/292 288/288/288 289/289/289
f 291/291/291 288/288/288 292/292/292
f 293/293/293 292/292/292 289/289/289
f 292/292/292 294/294/294 291/291/291
f 294/294/294 292/292/292 293/293/293
f 290/290/290 291/291/291 295/295/295
f 293/293/293 296/296/296 294/294/294
f 296/296/296 293/293/293 297/297/297
f 297/297/297 298/298/298 296/296/296
f 291/291/291 294/294/294 299/299/299
f 299/299/299 295/295/295 291/291/291
f 294/294/294 296/296/296 300/300/300
f 300/300/300 296/296/296 298/298/298
f 300/300/300 299/299/299 294/294/294
f 298/298/298 301/301/301 300/300/300
f 300/300/300 301/301/301 302/302/302
f 300/300/300 302/302/302 303/303/303
f 299/299/299 300/300/300 303/303/303
f 303/303/303 302/302/302 304/304/304
f 303/303/303 305/305/305 299/299/299
f 295/295/295 299/299/299 305/305/305
f 303/303/303 304/304/304 306/306/306
f 305/305/305 303/303/303 306/306/306
f 307/307/307 306/306/306 304/304/304
f 304/304/304 308/308/308 307/307/307
f 306/306/306 309/309/309 305/305/305
f 310/310/310 307/307/307 308/308/308
f 308/308/308 311/311/311 310/310/310
f 310/310/310 311/311/311 312/312/312
f 307/307/307 313/313/313 306/306/306
f 306/306/306 313/313/313 309/309/309
f 307/307/307 310/310/310 314/314/314
f 314/314/314 313/313/313 307/307/307
f 312/312/312 315/315/315 310/310/310
f 314/314/314 310/310/310 315/315/315
f 315/315/315 312/312/312 279/279/279
f 305/305/305 309/309/309 316/316/316
f 316/316/316 309/309/309 313/313/313
f 305/305/305 316/316/316 295/295/295
f 313/313/313 314/314/314 317/317/317
f 317/317/317 316/316/316 313/313/313
f 318/318/318 295/295/295 316/316/316
f 316/316/316 317/317/317 318/318/318
f 295/295/295 318/318/318 290/290/290
f 290/290/290 318/318/318 287/287/287
f 317/317/317 314/314/314 319/319/319
f 315/315/315 319/319/319 314/314/314
f 318/318/318 317/317/317 320/320/320
f 320/320/320 287/287/287 318/318/318
f 319/319/319 320/320/320 317/317/317
f 287/287/287 320/320/320 321/321/321
f 321/321/321 280/280/280 287/287/287
f 280/280/280 321/321/321 278/278/278
f 320/320/320 319/319/319 322/322/322
f 322/322/322 321/321/321 320/320/320
f 323/323/323 322/322/322 319/319/319
f 321/321/321 322/322/322 323/323/323
f 319/319/319 315/315/315 323/323/323
f 323/323/323 278/278/278 321/321/321
f 279/279/279 323/323/323 315/315/315
f 278/278/278 323/323/323 279/279/279
s 8
f 324/324/324 325/325/325 326/326/326
f 324/324/324 327/327/327 325/325/325
f 328/328/328 324/324/324 326/326/326
f 324/324/324 329/329/329 327/327/327
f 329/329/329 330/330/330 327/327/327
f 324/324/324 328/328/328 331/331/331
f 332/332/332 331/331/331 328/328/328
f 329/329/329 324/324/324 333/333/333
f 331/331/331 333/333/333 324/324/324
f 330/330/330 329/329/329 334/334/334
f 334/334/334 335/335/335 330/330/330
f 336/336/336 334/334/334 329/329/329
f 333/333/333 336/336/336 329/329/329
f 335/335/335 334/334/334 337/337/337
f 334/334/334 336/336/336 337/337/337
f 337/337/337 338/338/338 335/335/335
f 336/336/336 339/339/339 337/337/337
f 338/338/338 337/337/337 339/339/339
f 336/336/336 333/333/333 340/340/340
f 341/341/341 338/338/338 339/339/339
f 338/338/338 341/341/341 342/342/342
f 339/339/339 336/336/336 343/343/343
f 340/340/340 343/343/343 336/336/336
f 339/339/339 344/344/344 341/341/341
f 344/344/344 339/339/339 343/343/343
f 345/345/345 342/342/342 341/341/341
f 344/344/344 345/345/345 341/341/341
f 346/346/346 342/342/342 345/345/345
f 345/345/345 344/344/344 347/347/347
f 347/347/347 346/346/346 345/345/345
f 343/343/343 348/348/348 344/344/344
f 346/346/346 347/347/347 349/349/349
f 349/349/349 350/350/350 346/346/346
f 350/350/350 349/349/349 351/351/351
f 344/344/344 352/352/352 347/347/347
f 352/352/352 344/344/344 348/348/348
f 347/347/347 353/353/353 349/349/349
f 353/353/353 351/351/351 349/349/349
f 353/353/353 347/347/347 352/352/352
f 351/351/351 353/353/353 354/354/354
f 353/353/353 355/355/355 354/354/354
f 353/353/353 356/356/356 355/355/355
f 352/352/352 356/356/356 353/353/353
f 356/356/356 357/357/357 355/355/355
f 356/356/356 352/352/352 358/358/358
f 348/348/348 358/358/358 352/352/352
f 356/356/356 359/359/359 357/357/357
f 358/358/358 359/359/359 356/356/356
f 360/360/360 357/357/357 359/359/359
f 357/357/357 360/360/360 361/361/361
f 359/359/359 358/358/358 362/362/362
f 363/363/363 361/361/361 360/360/360
f 361/361/361 363/363/363 364/364/364
f 363/363/363 365/365/365 364/364/364
f 360/360/360 359/359/359 366/366/366
f 359/359/359 362/362/362 366/366/366
f 360/360/360 367/367/367 363/363/363
f 367/367/367 360/360/360 366/366/366
f 365/365/365 363/363/363 368/368/368
f 367/367/367 368/368/368 363/363/363
f 368/368/368 332/332/332 365/365/365
f 358/358/358 369/369/369 362/362/362
f 369/369/369 366/366/366 362/362/362
f 358/358/358 348/348/348 369/369/369
f 366/366/366 370/370/370 367/367/367
f 370/370/370 366/366/366 369/369/369
f 371/371/371 369/369/369 348/348/348
f 369/369/369 371/371/371 370/370/370
f 348/348/348 343/343/343 371/371/371
f 343/343/343 340/340/340 371/371/371
f 370/370/370 372/372/372 367/367/367
f 368/368/368 367/367/367 372/372/372
f 371/371/371 373/373/373 370/370/370
f 373/373/373 371/371/371 340/340/340
f 372/372/372 370/370/370 373/373/373
f 340/340/340 374/374/374 373/373/373
f 374/374/374 340/340/340 333/333/333
f 333/333/333 331/331/331 374/374/374
f 373/373/373 375/375/375 372/372/372
f 375/375/375 373/373/373 374/374/374
f 376/376/376 372/372/372 375/375/375
f 374/374/374 376/376/376 375/375/375
f 372/372/372 376/376/376 368/368/368
f 376/376/376 374/374/374 331/331/331
f 332/332/332 368/368/368 376/376/376
f 331/331/331 332/332/332 376/376/376
