# This file uses centimeters as units for non-parametric coordinates.

mtllib tongue.mtl
g default
v 0.000000 8.501945 3.762058
v -0.000000 8.530265 3.644515
v 0.202006 8.640239 3.464198
v 0.131452 8.540305 3.646013
v 0.224364 8.607437 3.539105
v 0.278470 8.657209 3.538878
v 0.223485 8.687449 3.447721
v 0.237305 8.570482 3.649858
v 0.131123 8.511803 3.761787
v 0.298731 8.722173 3.543021
v 0.233453 8.752888 3.446085
v 0.303877 8.620853 3.654285
v 0.285528 8.787079 3.554530
v 0.226916 8.814263 3.462869
v 0.208009 8.851096 3.489642
v 0.235324 8.837523 3.567695
v 0.316428 8.750736 3.671488
v 0.256442 8.805586 3.682768
v 0.330628 8.684810 3.661410
v 0.322465 8.711180 3.790706
v 0.264168 8.764161 3.802772
v 0.256174 8.722169 3.905519
v 0.333587 8.647972 3.780195
v 0.302483 8.674897 3.895639
v 0.234440 8.689619 3.970541
v 0.249235 8.647685 3.976665
v 0.307978 8.616642 3.884957
v 0.247017 8.593095 3.968802
v 0.229434 8.545012 3.946557
v 0.304452 8.587803 3.770281
v 0.281451 8.562483 3.870541
v 0.204095 8.516788 3.921104
v 0.236905 8.540826 3.763268
v 0.224481 8.522636 3.858882
v 0.126882 8.499035 3.861748
v 0.123110 8.503656 3.939090
v 0.000000 8.490869 3.864694
v 0.131655 8.531501 3.992902
v 0.000000 8.498024 3.947793
v 0.000000 8.526236 4.010085
v 0.000000 8.573266 4.047466
v 0.140498 8.578464 4.025955
v 0.000000 8.632472 4.050325
v 0.144624 8.636085 4.029789
v 0.000000 8.694423 4.013525
v 0.144446 8.693233 3.999271
v 0.000000 8.753197 3.934865
v 0.150386 8.745959 3.924877
v -0.000000 8.807380 3.823411
v 0.151698 8.796675 3.816718
v 0.146004 8.840484 3.691020
v 0.000000 8.852329 3.694386
v -0.202006 8.640239 3.464198
v -0.131452 8.540305 3.646013
v -0.224364 8.607437 3.539105
v -0.278470 8.657209 3.538878
v -0.223485 8.687449 3.447721
v -0.237305 8.570482 3.649858
v -0.131123 8.511803 3.761787
v -0.298731 8.722173 3.543021
v -0.233453 8.752888 3.446085
v -0.303877 8.620853 3.654285
v -0.285528 8.787079 3.554530
v -0.226916 8.814263 3.462869
v -0.208009 8.851096 3.489642
v -0.235324 8.837523 3.567695
v -0.316428 8.750736 3.671488
v -0.256442 8.805586 3.682768
v -0.330628 8.684810 3.661410
v -0.322465 8.711180 3.790706
v -0.264168 8.764161 3.802772
v -0.256174 8.722169 3.905519
v -0.333587 8.647972 3.780195
v -0.302483 8.674897 3.895639
v -0.234440 8.689619 3.970541
v -0.249235 8.647685 3.976665
v -0.307978 8.616642 3.884957
v -0.247017 8.593095 3.968802
v -0.229434 8.545012 3.946557
v -0.304452 8.587803 3.770281
v -0.281451 8.562483 3.870541
v -0.204095 8.516788 3.921104
v -0.236905 8.540826 3.763268
v -0.224481 8.522636 3.858882
v -0.126882 8.499035 3.861748
v -0.123110 8.503656 3.939090
v -0.131655 8.531501 3.992902
v -0.140498 8.578464 4.025955
v -0.144624 8.636085 4.029789
v -0.144446 8.693233 3.999271
v -0.150386 8.745959 3.924877
v -0.151698 8.796675 3.816718
v -0.146004 8.840484 3.691020
v -0.000000 8.601177 3.527113
v -0.000000 8.653942 3.476034
v 0.126968 8.608937 3.531162
v 0.135242 8.868505 3.568114
v -0.000000 8.869844 3.470870
v 0.000000 8.879258 3.567293
v -0.126968 8.608937 3.531162
v -0.135242 8.868505 3.568114
vt 0.085378 0.985254
vt 0.086553 0.985254
vt 0.085325 0.987364
vt 0.083256 0.985254
vt 0.086375 0.988748
vt 0.083230 0.987318
vt 0.081383 0.985254
vt 0.085037 0.988934
vt 0.085206 0.990087
vt 0.086867 0.989500
vt 0.083193 0.989045
vt 0.081384 0.987270
vt 0.085538 0.991102
vt 0.087381 0.990421
vt 0.083239 0.990356
vt 0.076019 0.979992
vt 0.074108 0.980442
vt 0.074089 0.979363
vt 0.075819 0.981029
vt 0.075558 0.981823
vt 0.074222 0.981592
vt 0.072086 0.980138
vt 0.072309 0.981421
vt 0.083387 0.991438
vt 0.071868 0.979069
vt 0.070057 0.980218
vt 0.070331 0.981448
vt 0.068644 0.981706
vt 0.069666 0.979264
vt 0.081239 0.991299
vt 0.068314 0.980739
vt 0.067560 0.982103
vt 0.067021 0.981696
vt 0.067762 0.979989
vt 0.066278 0.981269
vt 0.078463 0.988894
vt 0.079358 0.990690
vt 0.077892 0.989523
vt 0.081302 0.990241
vt 0.079684 0.989760
vt 0.078920 0.988370
vt 0.081366 0.988964
vt 0.079877 0.988696
vt 0.079825 0.987175
vt 0.078616 0.987135
vt 0.079764 0.985254
vt 0.077674 0.987345
vt 0.078453 0.985254
vt 0.077383 0.985254
vt 0.076415 0.985254
vt 0.076821 0.987674
vt 0.065302 0.983241
vt 0.065918 0.985692
vt 0.065005 0.985711
vt 0.066197 0.983383
vt 0.067046 0.985669
vt 0.067215 0.983476
vt 0.068591 0.985637
vt 0.068634 0.983373
vt 0.070531 0.985597
vt 0.070475 0.983266
vt 0.072534 0.983240
vt 0.072669 0.985553
vt 0.074509 0.983273
vt 0.076245 0.985479
vt 0.074679 0.985512
vt 0.085325 0.983144
vt 0.086375 0.981759
vt 0.083230 0.983190
vt 0.085037 0.981574
vt 0.085206 0.980420
vt 0.086867 0.981007
vt 0.083193 0.981463
vt 0.081384 0.983238
vt 0.085538 0.979406
vt 0.087381 0.980087
vt 0.083239 0.980151
vt 0.076245 0.990972
vt 0.074342 0.991679
vt 0.074317 0.990601
vt 0.076002 0.989943
vt 0.075709 0.989161
vt 0.074383 0.989447
vt 0.072309 0.990987
vt 0.072479 0.989697
vt 0.083387 0.979069
vt 0.072135 0.992064
vt 0.070278 0.990990
vt 0.070501 0.989750
vt 0.068806 0.989562
vt 0.069928 0.991960
vt 0.081239 0.979209
vt 0.068515 0.990542
vt 0.067706 0.989210
vt 0.067185 0.989639
vt 0.067995 0.991314
vt 0.066459 0.990096
vt 0.078463 0.981614
vt 0.077892 0.980984
vt 0.079358 0.979818
vt 0.081302 0.980266
vt 0.079684 0.980747
vt 0.078920 0.982137
vt 0.081366 0.981544
vt 0.079877 0.981812
vt 0.079825 0.983332
vt 0.078616 0.983373
vt 0.077674 0.983162
vt 0.076821 0.982834
vt 0.065403 0.988166
vt 0.066292 0.987988
vt 0.067305 0.987853
vt 0.068727 0.987897
vt 0.070570 0.987928
vt 0.072630 0.987870
vt 0.074601 0.987755
vn -0.000000 -0.806702 -0.590958
vn -0.000000 -0.776029 -0.630697
vn 0.006490 -0.856748 -0.515694
vn 0.000000 -0.923012 -0.384770
vn 0.242167 -0.815571 -0.525547
vn 0.139505 -0.922601 -0.359646
vn -0.000000 -0.983548 -0.180645
vn 0.337833 -0.840938 -0.422720
vn 0.776739 -0.465027 -0.424767
vn 0.764690 -0.281672 -0.579578
vn 0.422229 -0.861301 -0.282636
vn 0.156828 -0.969496 -0.188369
vn 0.919472 0.012335 -0.392963
vn 0.840629 0.061402 -0.538120
vn 0.762784 -0.591199 -0.262001
vn 0.853128 0.478682 -0.207451
vn 0.822617 0.395189 -0.408812
vn 0.351491 0.929121 -0.114841
vn 0.475886 0.875342 0.085491
vn 0.862368 0.505298 0.031550
vn 0.477133 0.853963 0.207585
vn 0.985034 -0.067012 -0.158798
vn 0.865342 0.459112 0.200994
vn 0.468792 0.827258 0.309642
vn 0.455755 0.779688 0.429388
vn 0.987010 -0.153325 0.047987
vn 0.858490 0.303746 0.413200
vn 0.424331 0.608279 0.670775
vn 0.641996 0.058618 0.764464
vn 0.914615 -0.243609 0.322699
vn 0.649237 -0.319562 0.690197
vn 0.572272 -0.626939 0.528633
vn 0.751753 -0.651985 -0.098905
vn 0.738452 -0.661058 0.133005
vn 0.355235 -0.908385 0.220554
vn 0.408837 -0.894093 -0.182893
vn 0.387727 -0.919933 -0.058231
vn 0.129403 -0.990428 -0.048027
vn 0.117277 -0.963745 0.239672
vn 0.000000 -0.999678 -0.025370
vn 0.214115 -0.742127 0.635140
vn 0.000000 -0.968617 0.248559
vn 0.000000 -0.790967 0.611859
vn 0.000000 -0.337574 0.941299
vn 0.292003 -0.331512 0.897125
vn 0.000000 0.260356 0.965513
vn 0.249322 0.189842 0.949631
vn -0.000000 0.684228 0.729268
vn 0.144061 0.678198 0.720621
vn 0.000000 0.861561 0.507655
vn 0.150665 0.861697 0.484539
vn -0.000000 0.925556 0.378611
vn 0.175162 0.915196 0.362953
vn 0.179774 0.947648 0.263904
vn -0.000000 0.961964 0.273176
vn 0.146142 0.987330 0.061826
vn -0.000000 0.993935 -0.109973
vn 0.000000 0.997021 0.077133
vn -0.006490 -0.856747 -0.515697
vn -0.242167 -0.815568 -0.525551
vn -0.139505 -0.922601 -0.359646
vn -0.337832 -0.840938 -0.422721
vn -0.776738 -0.465027 -0.424769
vn -0.764691 -0.281673 -0.579576
vn -0.422229 -0.861301 -0.282636
vn -0.156827 -0.969496 -0.188368
vn -0.919472 0.012335 -0.392962
vn -0.840630 0.061402 -0.538119
vn -0.762784 -0.591199 -0.262001
vn -0.853129 0.478681 -0.207451
vn -0.822617 0.395189 -0.408812
vn -0.351490 0.929121 -0.114840
vn -0.475887 0.875342 0.085490
vn -0.862368 0.505297 0.031550
vn -0.477133 0.853963 0.207583
vn -0.985034 -0.067012 -0.158798
vn -0.865342 0.459112 0.200994
vn -0.468793 0.827258 0.309640
vn -0.455754 0.779687 0.429390
vn -0.987010 -0.153325 0.047987
vn -0.858490 0.303746 0.413199
vn -0.424329 0.608277 0.670778
vn -0.641996 0.058618 0.764464
vn -0.914615 -0.243609 0.322698
vn -0.649238 -0.319562 0.690196
vn -0.572272 -0.626941 0.528630
vn -0.751753 -0.651985 -0.098905
vn -0.738452 -0.661058 0.133005
vn -0.355235 -0.908386 0.220551
vn -0.408836 -0.894094 -0.182892
vn -0.387727 -0.919933 -0.058230
vn -0.129402 -0.990429 -0.048024
vn -0.117277 -0.963743 0.239677
vn -0.214115 -0.742126 0.635141
vn -0.292003 -0.331512 0.897125
vn -0.249322 0.189842 0.949631
vn -0.144061 0.678196 0.720622
vn -0.150664 0.861696 0.484541
vn -0.175162 0.915196 0.362952
vn -0.179774 0.947648 0.263902
vn -0.146142 0.987330 0.061827
s 1
g tongue Jake
usemtl lambert2SG
f 94/1/1 95/2/2 96/3/3
f 96/3/3 2/4/4 94/1/1
f 3/5/5 96/3/3 95/2/2
f 2/4/4 96/3/3 4/6/6
f 4/6/6 1/7/7 2/4/4
f 96/3/3 3/5/5 5/8/8
f 5/8/8 4/6/6 96/3/3
f 3/5/5 6/9/9 5/8/8
f 6/9/9 3/5/5 7/10/10
f 4/6/6 5/8/8 8/11/11
f 8/11/11 5/8/8 6/9/9
f 1/7/7 4/6/6 9/12/12
f 8/11/11 9/12/12 4/6/6
f 7/10/10 10/13/13 6/9/9
f 10/13/13 7/10/10 11/14/14
f 6/9/9 12/15/15 8/11/11
f 11/16/14 13/17/16 10/18/13
f 13/17/16 11/16/14 14/19/17
f 13/17/16 14/19/17 15/20/18
f 13/17/16 15/20/18 16/21/19
f 17/22/20 13/17/16 16/21/19
f 17/22/20 10/18/13 13/17/16
f 17/22/20 16/21/19 18/23/21
f 19/24/22 6/9/9 10/13/13
f 10/18/13 17/22/20 19/25/22
f 6/9/9 19/24/22 12/15/15
f 20/26/23 17/22/20 18/23/21
f 20/26/23 19/25/22 17/22/20
f 21/27/24 20/26/23 18/23/21
f 20/26/23 21/27/24 22/28/25
f 19/25/22 20/26/23 23/29/26
f 23/30/26 12/15/15 19/24/22
f 24/31/27 20/26/23 22/28/25
f 23/29/26 20/26/23 24/31/27
f 24/31/27 22/28/25 25/32/28
f 26/33/29 24/31/27 25/32/28
f 27/34/30 24/31/27 26/33/29
f 27/34/30 23/29/26 24/31/27
f 28/35/31 27/34/30 26/33/29
f 29/36/32 27/37/30 28/38/31
f 30/39/33 23/30/26 27/37/30
f 12/15/15 23/30/26 30/39/33
f 27/37/30 29/36/32 31/40/34
f 31/40/34 30/39/33 27/37/30
f 32/41/35 31/40/34 29/36/32
f 30/39/33 33/42/36 12/15/15
f 33/42/36 30/39/33 31/40/34
f 33/42/36 8/11/11 12/15/15
f 9/12/12 8/11/11 33/42/36
f 34/43/37 33/42/36 31/40/34
f 34/43/37 9/12/12 33/42/36
f 32/41/35 34/43/37 31/40/34
f 34/43/37 35/44/38 9/12/12
f 32/41/35 35/44/38 34/43/37
f 35/44/38 1/7/7 9/12/12
f 36/45/39 35/44/38 32/41/35
f 35/44/38 37/46/40 1/7/7
f 36/45/39 37/46/40 35/44/38
f 32/41/35 38/47/41 36/45/39
f 38/47/41 32/41/35 29/36/32
f 39/48/42 37/46/40 36/45/39
f 38/47/41 39/48/42 36/45/39
f 38/47/41 40/49/43 39/48/42
f 38/47/41 41/50/44 40/49/43
f 41/50/44 38/47/41 42/51/45
f 29/36/32 42/51/45 38/47/41
f 42/51/45 29/36/32 28/38/31
f 42/52/45 43/53/46 41/54/44
f 28/35/31 44/55/47 42/52/45
f 43/53/46 42/52/45 44/55/47
f 44/55/47 28/35/31 26/33/29
f 44/55/47 26/33/29 25/32/28
f 44/55/47 45/56/48 43/53/46
f 25/32/28 46/57/49 44/55/47
f 45/56/48 44/55/47 46/57/49
f 45/56/48 46/57/49 47/58/50
f 46/57/49 25/32/28 48/59/51
f 48/59/51 47/58/50 46/57/49
f 22/28/25 48/59/51 25/32/28
f 47/58/50 48/59/51 49/60/52
f 48/59/51 22/28/25 50/61/53
f 48/59/51 50/61/53 49/60/52
f 22/28/25 21/27/24 50/61/53
f 21/27/24 51/62/54 50/61/53
f 51/62/54 21/27/24 18/23/21
f 16/21/19 51/62/54 18/23/21
f 50/61/53 52/63/55 49/60/52
f 52/63/55 50/61/53 51/62/54
f 51/62/54 16/21/19 97/64/56
f 97/64/56 52/63/55 51/62/54
f 16/21/19 15/20/18 97/64/56
f 97/64/56 15/20/18 98/65/57
f 97/64/56 98/65/57 99/66/58
f 52/63/55 97/64/56 99/66/58
f 94/1/1 100/67/59 95/2/2
f 100/67/59 94/1/1 2/4/4
f 53/68/60 95/2/2 100/67/59
f 2/4/4 54/69/61 100/67/59
f 54/69/61 2/4/4 1/7/7
f 100/67/59 55/70/62 53/68/60
f 55/70/62 100/67/59 54/69/61
f 53/68/60 55/70/62 56/71/63
f 56/71/63 57/72/64 53/68/60
f 54/69/61 58/73/65 55/70/62
f 58/73/65 56/71/63 55/70/62
f 1/7/7 59/74/66 54/69/61
f 58/73/65 54/69/61 59/74/66
f 57/72/64 56/71/63 60/75/67
f 60/75/67 61/76/68 57/72/64
f 56/71/63 58/73/65 62/77/69
f 61/78/68 60/79/67 63/80/70
f 63/80/70 64/81/71 61/78/68
f 63/80/70 65/82/72 64/81/71
f 63/80/70 66/83/73 65/82/72
f 67/84/74 66/83/73 63/80/70
f 67/84/74 63/80/70 60/79/67
f 67/84/74 68/85/75 66/83/73
f 69/86/76 60/75/67 56/71/63
f 60/79/67 69/87/76 67/84/74
f 56/71/63 62/77/69 69/86/76
f 70/88/77 68/85/75 67/84/74
f 70/88/77 67/84/74 69/87/76
f 71/89/78 68/85/75 70/88/77
f 70/88/77 72/90/79 71/89/78
f 69/87/76 73/91/80 70/88/77
f 73/92/80 69/86/76 62/77/69
f 74/93/81 72/90/79 70/88/77
f 73/91/80 74/93/81 70/88/77
f 74/93/81 75/94/82 72/90/79
f 76/95/83 75/94/82 74/93/81
f 77/96/84 76/95/83 74/93/81
f 77/96/84 74/93/81 73/91/80
f 78/97/85 76/95/83 77/96/84
f 79/98/86 78/99/85 77/100/84
f 80/101/87 77/100/84 73/92/80
f 62/77/69 80/101/87 73/92/80
f 77/100/84 81/102/88 79/98/86
f 81/102/88 77/100/84 80/101/87
f 82/103/89 79/98/86 81/102/88
f 80/101/87 62/77/69 83/104/90
f 83/104/90 81/102/88 80/101/87
f 83/104/90 62/77/69 58/73/65
f 59/74/66 83/104/90 58/73/65
f 84/105/91 81/102/88 83/104/90
f 84/105/91 83/104/90 59/74/66
f 82/103/89 81/102/88 84/105/91
f 84/105/91 59/74/66 85/106/92
f 82/103/89 84/105/91 85/106/92
f 85/106/92 59/74/66 1/7/7
f 86/107/93 82/103/89 85/106/92
f 85/106/92 1/7/7 37/46/40
f 86/107/93 85/106/92 37/46/40
f 82/103/89 86/107/93 87/108/94
f 87/108/94 79/98/86 82/103/89
f 39/48/42 86/107/93 37/46/40
f 87/108/94 86/107/93 39/48/42
f 87/108/94 39/48/42 40/49/43
f 87/108/94 40/49/43 41/50/44
f 41/50/44 88/109/95 87/108/94
f 79/98/86 87/108/94 88/109/95
f 88/109/95 78/99/85 79/98/86
f 88/110/95 41/54/44 43/53/46
f 78/97/85 88/110/95 89/111/96
f 43/53/46 89/111/96 88/110/95
f 89/111/96 76/95/83 78/97/85
f 89/111/96 75/94/82 76/95/83
f 89/111/96 43/53/46 45/56/48
f 75/94/82 89/111/96 90/112/97
f 45/56/48 90/112/97 89/111/96
f 45/56/48 47/58/50 90/112/97
f 90/112/97 91/113/98 75/94/82
f 91/113/98 90/112/97 47/58/50
f 72/90/79 75/94/82 91/113/98
f 47/58/50 49/60/52 91/113/98
f 91/113/98 92/114/99 72/90/79
f 91/113/98 49/60/52 92/114/99
f 72/90/79 92/114/99 71/89/78
f 71/89/78 92/114/99 93/115/100
f 93/115/100 68/85/75 71/89/78
f 66/83/73 68/85/75 93/115/100
f 92/114/99 49/60/52 52/63/55
f 52/63/55 93/115/100 92/114/99
f 93/115/100 101/116/101 66/83/73
f 101/116/101 93/115/100 52/63/55
f 66/83/73 101/116/101 65/82/72
f 101/116/101 98/65/57 65/82/72
f 101/116/101 99/66/58 98/65/57
f 52/63/55 99/66/58 101/116/101
